<svg width="22" height="12" viewBox="0 0 22 12" fill="none" xmlns="http://www.w3.org/2000/svg">
<ellipse cx="3.29229" cy="2.48804" rx="1.77275" ry="1.74097" fill="#FF9D94"/>
<ellipse cx="10.1878" cy="8.95386" rx="1.77276" ry="1.74097" fill="#FF9D94"/>
<path d="M3.93026 2.11403C3.93026 3.0681 3.14082 3.85306 2.15263 3.85306C1.16445 3.85306 0.375 3.0681 0.375 2.11403C0.375 1.15996 1.16445 0.375 2.15263 0.375C3.14082 0.375 3.93026 1.15996 3.93026 2.11403Z" stroke="#2A2A2A" stroke-width="0.75"/>
<path d="M11.1432 8.12477C11.1432 9.07885 10.3537 9.86381 9.36552 9.86381C8.37734 9.86381 7.58789 9.07885 7.58789 8.12477C7.58789 7.1707 8.37734 6.38574 9.36552 6.38574C10.3537 6.38574 11.1432 7.1707 11.1432 8.12477Z" stroke="#2A2A2A" stroke-width="0.75"/>
<ellipse cx="19.804" cy="10.156" rx="1.77276" ry="1.74097" fill="#FF9D94"/>
<path d="M20.7594 9.32692C20.7594 10.281 19.9699 11.066 18.9817 11.066C17.9935 11.066 17.2041 10.281 17.2041 9.32692C17.2041 8.37285 17.9935 7.58789 18.9817 7.58789C19.9699 7.58789 20.7594 8.37285 20.7594 9.32692Z" stroke="#2A2A2A" stroke-width="0.75"/>
<path d="M11.4199 8.41504L17.1299 9.01608" stroke="#2A2A2A" stroke-width="0.75" stroke-linecap="round"/>
<path d="M7.81376 7.21272L3.60645 3.60645" stroke="#2A2A2A" stroke-width="0.75" stroke-linecap="round"/>
</svg>
