<svg width="19" height="12" viewBox="0 0 19 12" fill="none" xmlns="http://www.w3.org/2000/svg">
<path d="M3.21039 10.2411C3.21039 10.9988 2.58296 11.6247 1.79465 11.6247C1.00633 11.6247 0.378906 10.9988 0.378906 10.2411C0.378906 9.48326 1.00633 8.85742 1.79465 8.85742C2.58296 8.85742 3.21039 9.48326 3.21039 10.2411Z" stroke="#2A2A2A" stroke-width="0.75"/>
<path d="M8.05609 4.24105C8.05609 4.99884 7.42867 5.62468 6.64035 5.62468C5.85203 5.62468 5.22461 4.99884 5.22461 4.24105C5.22461 3.48326 5.85203 2.85742 6.64035 2.85742C7.42867 2.85742 8.05609 3.48326 8.05609 4.24105Z" stroke="#2A2A2A" stroke-width="0.75"/>
<path d="M12.269 9.62093C12.269 10.3787 11.6416 11.0046 10.8532 11.0046C10.0649 11.0046 9.4375 10.3787 9.4375 9.62093C9.4375 8.86314 10.0649 8.2373 10.8532 8.2373C11.6416 8.2373 12.269 8.86314 12.269 9.62093Z" stroke="#2A2A2A" stroke-width="0.75"/>
<path d="M18.3793 1.75863C18.3793 2.51642 17.7519 3.14226 16.9636 3.14226C16.1753 3.14226 15.5479 2.51642 15.5479 1.75863C15.5479 1.00084 16.1753 0.375 16.9636 0.375C17.7519 0.375 18.3793 1.00084 18.3793 1.75863Z" stroke="#2A2A2A" stroke-width="0.75"/>
<path d="M2.53223 8.89665L5.48168 5.37939" stroke="#2A2A2A" stroke-width="0.75"/>
<path d="M7.58789 5.58643L10.116 8.27609" stroke="#2A2A2A" stroke-width="0.75"/>
<path d="M11.5908 8.48272L16.015 2.89648" stroke="#2A2A2A" stroke-width="0.75"/>
</svg>
