<svg width="19" height="12" viewBox="0 0 19 12" fill="none" xmlns="http://www.w3.org/2000/svg">
<ellipse cx="2.63378" cy="10.5518" rx="1.58006" ry="1.44828" fill="#BCD5E4"/>
<ellipse cx="7.5841" cy="4.5518" rx="1.47473" ry="1.44828" fill="#BCD5E4"/>
<ellipse cx="11.798" cy="9.93071" rx="1.47473" ry="1.44828" fill="#BCD5E4"/>
<ellipse cx="17.2755" cy="2.68949" rx="1.47473" ry="1.44828" fill="#BCD5E4"/>
<path d="M3.20648 10.2411C3.20648 10.9988 2.57906 11.6247 1.79074 11.6247C1.00242 11.6247 0.375 10.9988 0.375 10.2411C0.375 9.48326 1.00242 8.85742 1.79074 8.85742C2.57906 8.85742 3.20648 9.48326 3.20648 10.2411Z" stroke="#2A2A2A" stroke-width="0.75"/>
<path d="M8.05218 4.24105C8.05218 4.99884 7.42476 5.62468 6.63644 5.62468C5.84813 5.62468 5.2207 4.99884 5.2207 4.24105C5.2207 3.48326 5.84813 2.85742 6.63644 2.85742C7.42476 2.85742 8.05218 3.48326 8.05218 4.24105Z" stroke="#2A2A2A" stroke-width="0.75"/>
<path d="M12.2651 9.62093C12.2651 10.3787 11.6377 11.0046 10.8493 11.0046C10.061 11.0046 9.43359 10.3787 9.43359 9.62093C9.43359 8.86314 10.061 8.2373 10.8493 8.2373C11.6377 8.2373 12.2651 8.86314 12.2651 9.62093Z" stroke="#2A2A2A" stroke-width="0.75"/>
<path d="M18.3754 1.75863C18.3754 2.51642 17.748 3.14226 16.9597 3.14226C16.1714 3.14226 15.5439 2.51642 15.5439 1.75863C15.5439 1.00084 16.1714 0.375 16.9597 0.375C17.748 0.375 18.3754 1.00084 18.3754 1.75863Z" stroke="#2A2A2A" stroke-width="0.75"/>
<path d="M2.52832 8.89617L5.47777 5.37891" stroke="#2A2A2A" stroke-width="0.75"/>
<path d="M7.58398 5.58594L10.1121 8.27561" stroke="#2A2A2A" stroke-width="0.75"/>
<path d="M11.5869 8.48272L16.0111 2.89648" stroke="#2A2A2A" stroke-width="0.75"/>
</svg>
