<svg width="18" height="17" viewBox="0 0 18 17" fill="none" xmlns="http://www.w3.org/2000/svg">
<rect x="2" y="3" width="16" height="14" rx="1" fill="#8FD6FF"/>
<path d="M14 7.68C14 7.66 14 7.62 14 7.6C14 7.5 14.04 7.4 14.12 7.32C14.14 7.3 14.16 7.28 14.18 7.28C14.2 7.28 14.22 7.26 14.24 7.24C14.26 7.24 14.28 7.22 14.32 7.22C14.36 7.22 14.42 7.22 14.48 7.22C14.5 7.22 14.52 7.24 14.56 7.24C14.58 7.26 14.6 7.26 14.62 7.28C14.64 7.3 14.66 7.32 14.68 7.32C14.7 7.34 14.72 7.36 14.72 7.38C14.74 7.4 14.74 7.42 14.76 7.44C14.78 7.46 14.78 7.48 14.78 7.52C14.78 7.54 14.78 7.58 14.78 7.6C14.78 7.62 14.78 7.66 14.78 7.68C14.78 7.7 14.76 7.72 14.76 7.76C14.76 7.78 14.74 7.8 14.72 7.82C14.7 7.84 14.7 7.86 14.68 7.88C14.66 7.9 14.64 7.92 14.62 7.92C14.6 7.92 14.58 7.94 14.56 7.96C14.54 7.96 14.52 7.98 14.48 7.98C14.46 7.98 14.42 7.98 14.4 7.98C14.3 7.98 14.2 7.94 14.12 7.86C14.1 7.84 14.08 7.82 14.08 7.8C14.06 7.78 14.06 7.76 14.04 7.74C14.02 7.72 14.02 7.7 14 7.68ZM12.4 8C12.5 8 12.6 7.96 12.68 7.88C12.76 7.8 12.8 7.7 12.8 7.6C12.8 7.5 12.76 7.4 12.68 7.32C12.54 7.18 12.26 7.18 12.12 7.32C12.04 7.4 12 7.5 12 7.6C12 7.7 12.04 7.8 12.12 7.88C12.2 7.96 12.3 8 12.4 8ZM10.04 7.76C10.04 7.78 10.06 7.8 10.08 7.82C10.1 7.84 10.1 7.86 10.12 7.88C10.2 7.96 10.3 8 10.4 8C10.5 8 10.6 7.96 10.68 7.88C10.7 7.86 10.72 7.84 10.72 7.82C10.74 7.8 10.74 7.78 10.76 7.76C10.78 7.74 10.78 7.72 10.78 7.68C10.78 7.66 10.78 7.62 10.78 7.6C10.78 7.58 10.78 7.54 10.78 7.52C10.78 7.5 10.76 7.48 10.76 7.44C10.76 7.42 10.74 7.4 10.72 7.38C10.7 7.36 10.7 7.34 10.68 7.32C10.54 7.16 10.26 7.16 10.12 7.32C10.1 7.34 10.08 7.36 10.08 7.38C10.06 7.4 10.06 7.42 10.04 7.44C10.02 7.46 10.02 7.48 10.02 7.52C10.02 7.54 10.02 7.58 10.02 7.6C10.02 7.62 10.02 7.66 10.02 7.68C10.02 7.7 10.02 7.72 10.04 7.76ZM14.04 9.76C14.04 9.78 14.06 9.8 14.08 9.82C14.1 9.84 14.1 9.86 14.12 9.88C14.16 9.92 14.2 9.94 14.24 9.96C14.3 10 14.34 10 14.4 10C14.42 10 14.46 10 14.48 10C14.5 10 14.54 9.98 14.56 9.98C14.58 9.98 14.6 9.96 14.62 9.94C14.64 9.92 14.66 9.92 14.68 9.9C14.7 9.88 14.72 9.86 14.72 9.84C14.74 9.82 14.74 9.8 14.76 9.78C14.78 9.76 14.78 9.74 14.78 9.7C14.78 9.68 14.78 9.64 14.78 9.62C14.78 9.52 14.74 9.42 14.66 9.34C14.64 9.32 14.62 9.3 14.6 9.3C14.58 9.3 14.56 9.28 14.54 9.26C14.52 9.26 14.5 9.24 14.46 9.24C14.32 9.22 14.2 9.26 14.1 9.34C14.08 9.36 14.06 9.38 14.06 9.4C14.04 9.42 14.04 9.44 14.02 9.46C14 9.48 14 9.5 14 9.54C14 9.56 14 9.6 14 9.62C14 9.64 14 9.68 14 9.7C14.02 9.7 14.02 9.72 14.04 9.76ZM12.04 9.76C12.04 9.78 12.06 9.8 12.08 9.82C12.1 9.84 12.12 9.86 12.14 9.88C12.2 9.96 12.3 10 12.4 10C12.42 10 12.46 10 12.48 10C12.5 10 12.54 9.98 12.56 9.98C12.58 9.98 12.6 9.96 12.62 9.94C12.64 9.92 12.66 9.92 12.68 9.9C12.7 9.88 12.72 9.86 12.72 9.84C12.74 9.82 12.74 9.8 12.76 9.78C12.78 9.76 12.78 9.74 12.78 9.7C12.78 9.68 12.78 9.64 12.78 9.62C12.78 9.52 12.74 9.42 12.66 9.34C12.52 9.18 12.24 9.18 12.1 9.34C12.04 9.4 12 9.5 12 9.6C12 9.62 12 9.66 12 9.68C12.02 9.7 12.02 9.72 12.04 9.76ZM10.4 10C10.5 10 10.6 9.96 10.68 9.88C10.76 9.8 10.8 9.7 10.8 9.6C10.8 9.5 10.76 9.4 10.68 9.32C10.54 9.16 10.26 9.16 10.12 9.32C10.04 9.4 10 9.5 10 9.6C10 9.7 10.04 9.8 10.12 9.88C10.2 9.96 10.3 10 10.4 10ZM14.12 11.88C14.16 11.92 14.2 11.94 14.24 11.96C14.3 12 14.34 12 14.4 12C14.42 12 14.46 12 14.48 12C14.5 12 14.54 11.98 14.56 11.98C14.58 11.98 14.6 11.96 14.62 11.94C14.64 11.92 14.66 11.92 14.68 11.9C14.72 11.86 14.74 11.82 14.76 11.78C14.8 11.7 14.8 11.66 14.8 11.6C14.8 11.5 14.76 11.4 14.68 11.32C14.66 11.3 14.64 11.28 14.62 11.28C14.6 11.28 14.58 11.26 14.56 11.24C14.54 11.24 14.52 11.22 14.48 11.22C14.34 11.2 14.22 11.24 14.12 11.32C14.04 11.4 14 11.5 14 11.6C14 11.66 14 11.7 14.04 11.76C14.04 11.8 14.08 11.84 14.12 11.88ZM12.12 11.88C12.2 11.96 12.3 12 12.4 12C12.42 12 12.46 12 12.48 12C12.5 12 12.54 11.98 12.56 11.98C12.58 11.98 12.6 11.96 12.62 11.94C12.64 11.92 12.66 11.92 12.68 11.9C12.72 11.86 12.74 11.82 12.76 11.78C12.8 11.7 12.8 11.66 12.8 11.6C12.8 11.5 12.76 11.4 12.68 11.32C12.66 11.3 12.64 11.28 12.62 11.28C12.6 11.28 12.58 11.26 12.56 11.24C12.54 11.24 12.52 11.22 12.48 11.22C12.34 11.2 12.22 11.24 12.12 11.32C12.04 11.4 12 11.5 12 11.6C12 11.66 12 11.7 12.04 11.76C12.04 11.8 12.08 11.84 12.12 11.88ZM10.24 11.96C10.3 12 10.34 12 10.4 12C10.42 12 10.46 12 10.48 12C10.5 12 10.54 11.98 10.56 11.98C10.58 11.98 10.6 11.96 10.62 11.94C10.64 11.92 10.66 11.92 10.68 11.9C10.76 11.8 10.8 11.7 10.8 11.6C10.8 11.5 10.76 11.4 10.68 11.32C10.54 11.16 10.26 11.16 10.12 11.32C10.04 11.4 10 11.5 10 11.6C10 11.7 10.04 11.8 10.12 11.88C10.16 11.92 10.2 11.96 10.24 11.96ZM14.24 13.96C14.3 14 14.34 14 14.4 14C14.42 14 14.46 14 14.48 14C14.5 14 14.54 13.98 14.56 13.98C14.58 13.98 14.6 13.96 14.62 13.94C14.64 13.92 14.66 13.9 14.68 13.88C14.76 13.8 14.8 13.7 14.8 13.6C14.8 13.58 14.8 13.54 14.8 13.52C14.8 13.5 14.78 13.46 14.78 13.44C14.78 13.42 14.76 13.4 14.74 13.38C14.72 13.36 14.72 13.34 14.7 13.32C14.68 13.3 14.66 13.28 14.64 13.28C14.62 13.28 14.6 13.26 14.58 13.24C14.56 13.24 14.54 13.22 14.5 13.22C14.44 13.22 14.4 13.22 14.34 13.22C14.32 13.22 14.28 13.24 14.26 13.24C14.24 13.26 14.22 13.26 14.2 13.28C14.18 13.3 14.16 13.32 14.14 13.32C14.12 13.34 14.1 13.36 14.1 13.38C14.08 13.4 14.08 13.42 14.06 13.44C14.04 13.46 14.04 13.48 14.04 13.52C14.04 13.54 14.04 13.58 14.04 13.6C14.04 13.7 14.08 13.8 14.16 13.88C14.16 13.92 14.2 13.96 14.24 13.96ZM12.4 14C12.5 14 12.6 13.96 12.68 13.88C12.76 13.8 12.8 13.7 12.8 13.6C12.8 13.58 12.8 13.54 12.8 13.52C12.8 13.5 12.78 13.46 12.78 13.44C12.78 13.42 12.76 13.4 12.74 13.38C12.72 13.36 12.72 13.34 12.7 13.32C12.56 13.16 12.28 13.16 12.14 13.32C12.12 13.34 12.1 13.36 12.1 13.38C12.08 13.4 12.08 13.42 12.06 13.44C12.04 13.46 12.04 13.48 12.04 13.52C12.04 13.54 12.04 13.58 12.04 13.6C12.04 13.7 12.08 13.8 12.16 13.88C12.2 13.96 12.3 14 12.4 14ZM10.24 13.96C10.3 14 10.34 14 10.4 14C10.46 14 10.5 14 10.56 13.96C10.6 13.94 10.66 13.92 10.68 13.88C10.76 13.8 10.8 13.7 10.8 13.6C10.8 13.58 10.8 13.54 10.8 13.52C10.8 13.5 10.78 13.46 10.78 13.44C10.78 13.42 10.76 13.4 10.74 13.38C10.72 13.36 10.72 13.34 10.7 13.32C10.56 13.16 10.28 13.16 10.14 13.32C10.12 13.34 10.1 13.36 10.1 13.38C10.08 13.4 10.08 13.42 10.06 13.44C10.04 13.46 10.04 13.48 10.04 13.52C10.04 13.54 10.04 13.58 10.04 13.6C10.04 13.7 10.08 13.8 10.16 13.88C10.16 13.92 10.2 13.96 10.24 13.96ZM3 13C2.36 12.36 2 11.5 2 10.6C2 9.7 2.36 8.84 3 8.2C4.32 6.88 6.48 6.88 7.8 8.2C8.44 8.84 8.8 9.7 8.8 10.6C8.8 11.5 8.44 12.36 7.8 13C7.16 13.64 6.3 14 5.4 14C4.5 14 3.64 13.64 3 13ZM2.8 10.6C2.8 11.3 3.06 11.94 3.56 12.44C4.06 12.94 4.7 13.2 5.4 13.2C6.1 13.2 6.74 12.92 7.24 12.44C7.74 11.94 8 11.3 8 10.6C8 9.9 7.74 9.26 7.24 8.76C6.74 8.26 6.06 8 5.4 8C4.74 8 4.06 8.26 3.56 8.76C3.06 9.26 2.8 9.9 2.8 10.6ZM16.8 3.2V14.4C16.8 15.28 16.08 16 15.2 16H1.6C0.72 16 0 15.28 0 14.4V3.2C0 2.32 0.72 1.6 1.6 1.6H2V1.4C2 0.62 2.62 0 3.4 0C4.18 0 4.8 0.62 4.8 1.4V1.6H7V1.4C7 0.62 7.62 0 8.4 0C9.18 0 9.8 0.62 9.8 1.4V1.6H12V1.4C12 0.62 12.62 0 13.4 0C14.18 0 14.8 0.62 14.8 1.4V1.6H15.2C16.08 1.6 16.8 2.32 16.8 3.2ZM12.8 2.6C12.8 2.92 13.06 3.2 13.4 3.2C13.74 3.2 14 2.92 14 2.6V1.4C14 1.06 13.74 0.8 13.4 0.8C13.06 0.8 12.8 1.06 12.8 1.4V2.6ZM7.8 2.6C7.8 2.92 8.06 3.2 8.4 3.2C8.74 3.2 9 2.92 9 2.6V1.4C9 1.06 8.74 0.8 8.4 0.8C8.06 0.8 7.8 1.06 7.8 1.4V2.6ZM2.8 2.6C2.8 2.92 3.06 3.2 3.4 3.2C3.74 3.2 4 2.92 4 2.6V1.4C4 1.06 3.74 0.8 3.4 0.8C3.06 0.8 2.8 1.06 2.8 1.4V2.6ZM16 6H0.8V14.4C0.8 14.84 1.16 15.2 1.6 15.2H15.2C15.64 15.2 16 14.84 16 14.4V6ZM16 3.2C16 2.76 15.64 2.4 15.2 2.4H14.8V2.6C14.8 3.38 14.18 4 13.4 4C12.62 4 12 3.38 12 2.6V2.4H9.8V2.6C9.8 3.38 9.18 4 8.4 4C7.62 4 7 3.38 7 2.6V2.4H4.8V2.6C4.8 3.38 4.18 4 3.4 4C2.62 4 2 3.38 2 2.6V2.4H1.6C1.16 2.4 0.8 2.76 0.8 3.2V5.2H16V3.2ZM5.02 10.72C5.02 10.74 5.02 10.74 5.04 10.76C5.04 10.78 5.06 10.78 5.06 10.8C5.06 10.8 5.06 10.82 5.08 10.84C5.1 10.86 5.1 10.88 5.12 10.9L5.82 11.6C5.9 11.68 6 11.72 6.1 11.72C6.2 11.72 6.3 11.68 6.38 11.6C6.54 11.44 6.54 11.18 6.38 11.04L5.78 10.44V9.6C5.78 9.38 5.6 9.2 5.38 9.2C5.16 9.2 4.98 9.38 4.98 9.6V10.6C4.98 10.62 4.98 10.66 4.98 10.68C5 10.7 5.02 10.7 5.02 10.72Z" fill="black"/>
</svg>
