<svg width="908" height="156" viewBox="0 0 908 156" fill="none" xmlns="http://www.w3.org/2000/svg">
<circle r="2.5" transform="matrix(4.37114e-08 1 1 -4.37114e-08 73.104 27.5381)" fill="#2A2A2A"/>
<circle r="2.45869" transform="matrix(0.972975 -0.230912 -0.230912 -0.972975 814.96 143.683)" fill="#FFE500"/>
<circle r="2.45869" transform="matrix(0.972975 -0.230912 -0.230912 -0.972975 375.959 83.6831)" fill="#FFE500"/>
<path d="M199.846 24.068L204.895 15.9135L209.433 24.3638L199.846 24.068Z" fill="#54A2DB"/>
<path d="M463.648 62.7851L468.236 58.4189L469.723 64.575L463.648 62.7851Z" fill="#54A2DB"/>
<rect x="93.9995" y="136.645" width="8.21272" height="8.21272" transform="rotate(-28.524 93.9995 136.645)" fill="#E98686"/>
<rect x="44.2798" y="71.2002" width="4.41639" height="4.41639" transform="rotate(-60 44.2798 71.2002)" fill="#E98686"/>
<rect x="266.05" y="116.525" width="5.2717" height="5.2717" transform="rotate(-43.6758 266.05 116.525)" fill="#E98686"/>
<rect x="470.381" y="130.723" width="6.8277" height="6.8277" transform="rotate(39.929 470.381 130.723)" fill="#E98686"/>
<circle r="2.92839" transform="matrix(-0.281072 0.959687 0.959687 0.281072 537.633 122.357)" fill="#2A2A2A"/>
<circle r="1.22935" transform="matrix(0.972975 -0.230912 -0.230912 -0.972975 168.48 89.2031)" fill="#2A2A2A"/>
<circle r="4.39259" transform="matrix(-0.281072 0.959687 0.959687 0.281072 325.45 68.1733)" fill="#2A2A2A"/>
<circle r="1.84402" transform="matrix(0.972975 -0.230912 -0.230912 -0.972975 731.22 103.943)" fill="#2A2A2A"/>
<path d="M906.477 132.919C904.104 135.241 898.516 138.274 895.141 131.831C891.766 125.389 886.756 127.006 884.673 128.62" stroke="#2A2A2A" stroke-width="2"/>
<path d="M1.06454 10.5276C3.03572 9.08253 7.42521 7.4544 9.21376 12.5021C11.0023 17.5498 14.8225 16.8931 16.509 15.9338" stroke="#2A2A2A" stroke-width="2"/>
<path d="M424.938 95.291C423.292 97.0984 419.313 99.5651 416.559 94.9726C413.804 90.3801 410.19 91.7816 408.727 93.0565" stroke="#2A2A2A" stroke-width="2"/>
<path d="M642.629 2.86807C642.967 5.28865 642.321 9.9255 637.028 9.10824C631.736 8.29099 630.503 11.9661 630.549 13.9059" stroke="#2A2A2A" stroke-width="2"/>
<path d="M381.054 133.94L395.506 141.206L381.987 150.088L381.054 133.94Z" fill="#7FD1B9"/>
<path d="M377.253 149.811L376.42 135.392L389.324 141.88L377.253 149.811Z" stroke="#2A2A2A"/>
<rect x="427.033" y="13.7231" width="13.1071" height="13.1071" transform="rotate(49.9469 427.033 13.7231)" fill="#FFE500"/>
<circle cx="531.332" cy="11.9458" r="7.46892" transform="rotate(-105.825 531.332 11.9458)" fill="#E98686"/>
<circle cx="527.223" cy="15.6988" r="6.96892" transform="rotate(-105.825 527.223 15.6988)" stroke="#2A2A2A"/>
<path d="M191.461 144.745L178.138 145.857L183.837 133.763L191.461 144.745Z" fill="#FFE500"/>
<path d="M187.305 132.087L193.942 141.647L182.345 142.615L187.305 132.087Z" stroke="#2A2A2A"/>
<circle cx="627.186" cy="96.6934" r="5.50653" transform="rotate(150.824 627.186 96.6934)" fill="#54A2DB"/>
<circle cx="630.93" cy="97.7549" r="5.00653" transform="rotate(150.824 630.93 97.7549)" stroke="#2A2A2A"/>
<rect x="546.723" y="64.3828" width="12.6264" height="12.6264" transform="rotate(-80.8949 546.723 64.3828)" fill="#FFE500"/>
<rect x="544.084" y="66.2934" width="11.6264" height="11.6264" transform="rotate(-80.8949 544.084 66.2934)" stroke="#2A2A2A"/>
<rect x="820.807" y="92.541" width="10.1789" height="10.1789" transform="rotate(-80.8949 820.807 92.541)" fill="#E98686"/>
<rect x="818.791" y="94.001" width="9.17887" height="9.17887" transform="rotate(-80.8949 818.791 94.001)" stroke="#2A2A2A"/>
<rect x="8.88721" y="56.5107" width="6.0004" height="6.0004" transform="rotate(-23.4848 8.88721 56.5107)" fill="#7FD1B9"/>
<rect x="6.56457" y="56.3653" width="5.0004" height="5.0004" transform="rotate(-23.4848 6.56457 56.3653)" stroke="#2A2A2A"/>
<rect x="243.739" y="52.8623" width="19.6099" height="19.6099" transform="rotate(-23.4848 243.739 52.8623)" fill="#54A2DB"/>
<rect x="234.657" y="51.7974" width="18.6099" height="18.6099" transform="rotate(-23.4848 234.657 51.7974)" stroke="#2A2A2A"/>
<path d="M675.249 137.738L685.451 127.026L689.627 141.217L675.249 137.738Z" fill="#E98686"/>
<path d="M688.064 145.227L675.37 142.155L684.377 132.697L688.064 145.227Z" stroke="#2A2A2A"/>
<path d="M338.064 18.5276L325.369 15.4556L334.377 5.99816L338.064 18.5276Z" stroke="#2A2A2A"/>
<circle cx="115.578" cy="62.8307" r="6.96946" transform="rotate(105.499 115.578 62.8307)" fill="#7FD1B9"/>
<circle cx="120.485" cy="60.0611" r="6.46946" transform="rotate(105.499 120.485 60.0611)" stroke="#2A2A2A"/>
<circle cx="767.579" cy="147.071" r="6.96946" transform="rotate(105.499 767.579 147.071)" fill="#7FD1B9"/>
<circle cx="772.485" cy="144.301" r="6.46946" transform="rotate(105.499 772.485 144.301)" stroke="#2A2A2A"/>
</svg>
