<svg width="928" height="36" viewBox="0 0 928 36" fill="none" xmlns="http://www.w3.org/2000/svg">
<g clip-path="url(#clip0_1213_273837)">
<rect width="928" height="44" fill="white"/>
<path d="M478.249 12.0148L488.451 1.30307L492.627 15.4942L478.249 12.0148Z" fill="#E98686"/>
<path d="M491.064 19.5037L478.37 16.4317L487.377 6.97423L491.064 19.5037Z" stroke="#2A2A2A"/>
<circle r="2.45869" transform="matrix(0.972975 -0.230912 -0.230912 -0.972975 536.96 33.9594)" fill="#FFE500"/>
<circle cx="425.838" cy="33.5835" r="5.48161" transform="rotate(-31.3414 425.838 33.5835)" fill="#7FD1B9"/>
<circle cx="421.533" cy="32.5327" r="4.98161" transform="rotate(-31.3414 421.533 32.5327)" stroke="#2A2A2A"/>
<circle cx="592.186" cy="11.9702" r="5.50653" transform="rotate(150.824 592.186 11.9702)" fill="#54A2DB"/>
<circle cx="595.93" cy="13.0318" r="5.00653" transform="rotate(150.824 595.93 13.0318)" stroke="#2A2A2A"/>
<rect x="131" y="-0.359375" width="5.2717" height="5.2717" transform="rotate(-43.6758 131 -0.359375)" fill="#E98686"/>
<g clip-path="url(#clip1_1213_273837)">
<ellipse rx="1.82769" ry="1.52848" transform="matrix(0.981665 -0.190616 -0.278581 -0.960413 299.22 9.99761)" fill="#2A2A2A"/>
</g>
<g clip-path="url(#clip2_1213_273837)">
<ellipse rx="1.8277" ry="1.52848" transform="matrix(0.981665 -0.190615 -0.278582 -0.960412 120.22 23.0889)" fill="#2A2A2A"/>
</g>
<rect x="349.723" y="19.6597" width="12.6264" height="12.6264" transform="rotate(-80.8949 349.723 19.6597)" fill="#FFE500"/>
<rect x="347.084" y="21.5703" width="11.6264" height="11.6264" transform="rotate(-80.8949 347.084 21.5703)" stroke="#2A2A2A"/>
<rect x="9.98047" y="35.7969" width="6.0004" height="6.0004" transform="rotate(-23.4848 9.98047 35.7969)" fill="#7FD1B9"/>
<rect x="7.65784" y="35.6509" width="5.0004" height="5.0004" transform="rotate(-23.4848 7.65784 35.6509)" stroke="#2A2A2A"/>
<rect x="179.709" y="20.6543" width="12.7147" height="12.7147" transform="rotate(21.4839 179.709 20.6543)" fill="#54A2DB"/>
<rect x="176.13" y="16.2329" width="11.7147" height="11.7147" transform="rotate(21.4839 176.13 16.2329)" stroke="#2A2A2A"/>
<circle cx="279.578" cy="42.3478" r="6.96946" transform="rotate(105.499 279.578 42.3478)" fill="#E98686"/>
<circle cx="284.485" cy="39.5782" r="6.46946" transform="rotate(105.499 284.485 39.5782)" stroke="#2A2A2A"/>
<path d="M29.0641 11.4929C31.0352 10.0479 35.4247 8.41973 37.2133 13.4674C39.0018 18.5151 42.822 17.8585 44.5085 16.8992" stroke="#2A2A2A" stroke-width="2"/>
<path d="M85.4619 21.0216L72.1388 22.1336L77.8373 10.0395L85.4619 21.0216Z" fill="#FFE500"/>
<path d="M81.3062 8.36412L87.943 17.9235L76.3459 18.8915L81.3062 8.36412Z" stroke="#2A2A2A"/>
<path d="M253.055 -7.78328L267.506 -0.516985L253.988 8.36499L253.055 -7.78328Z" fill="#7FD1B9"/>
<path d="M249.253 8.08778L248.42 -6.33132L261.324 0.156894L249.253 8.08778Z" stroke="#2A2A2A"/>
<circle cx="795.383" cy="24.492" r="5.50653" transform="rotate(104.371 795.383 24.492)" fill="#FFF390"/>
<circle cx="798.732" cy="22.5096" r="5.00653" transform="rotate(104.371 798.732 22.5096)" stroke="#2A2A2A"/>
<rect x="858" y="10.6406" width="5.2717" height="5.2717" transform="rotate(-43.6758 858 10.6406)" fill="#E98686"/>
<path d="M767.064 4.8045L754.37 1.73249L763.377 -7.72499L767.064 4.8045Z" stroke="#2A2A2A"/>
<path d="M910.525 14.807C910.144 18.1044 907.712 23.9794 901.034 21.0999C894.355 18.2204 891.481 22.6314 890.88 25.1968" stroke="#2A2A2A" stroke-width="2"/>
<g clip-path="url(#clip3_1213_273837)">
<path d="M683.649 14.062L688.237 9.69574L689.724 15.8519L683.649 14.062Z" fill="#7FD1B9"/>
</g>
<g clip-path="url(#clip4_1213_273837)">
<ellipse rx="1.8277" ry="1.52848" transform="matrix(0.981665 -0.190615 -0.278583 -0.960412 644.219 26.3614)" fill="#2A2A2A"/>
</g>
<g clip-path="url(#clip5_1213_273837)">
<ellipse rx="1.8277" ry="1.52848" transform="matrix(0.981665 -0.190615 -0.278583 -0.960412 848.219 27.9976)" fill="#2A2A2A"/>
</g>
<rect x="715.808" y="35.8179" width="10.1789" height="10.1789" transform="rotate(-80.8949 715.808 35.8179)" fill="#E98686"/>
<rect x="713.791" y="37.2778" width="9.17887" height="9.17887" transform="rotate(-80.8949 713.791 37.2778)" stroke="#2A2A2A"/>
</g>
<defs>
<clipPath id="clip0_1213_273837">
<rect width="928" height="36" fill="white"/>
</clipPath>
<clipPath id="clip1_1213_273837">
<rect width="3.65538" height="3.05696" fill="white" transform="matrix(-0.981665 0.190616 -0.278581 -0.960413 301.439 11.1172)"/>
</clipPath>
<clipPath id="clip2_1213_273837">
<rect width="3.6554" height="3.05696" fill="white" transform="matrix(-0.981665 0.190615 -0.278582 -0.960412 122.439 24.2085)"/>
</clipPath>
<clipPath id="clip3_1213_273837">
<rect width="9.08169" height="9.08169" fill="white" transform="translate(681 11.541) rotate(-30)"/>
</clipPath>
<clipPath id="clip4_1213_273837">
<rect width="3.65541" height="3.05696" fill="white" transform="matrix(-0.981665 0.190615 -0.278583 -0.960412 646.439 27.481)"/>
</clipPath>
<clipPath id="clip5_1213_273837">
<rect width="3.65541" height="3.05696" fill="white" transform="matrix(-0.981665 0.190615 -0.278583 -0.960412 850.439 29.1172)"/>
</clipPath>
</defs>
</svg>
