<svg width="19" height="15" viewBox="0 0 19 15" fill="none" xmlns="http://www.w3.org/2000/svg">
<path d="M5.72596 1.78223L2.56543 5.35987L10.7828 14.304L19.0002 5.35987L15.8397 1.78223H5.72596Z" fill="#DAD7FF"/>
<path d="M4.01003 1L1 4.57764L8.82609 13.5217L16.6522 4.57764L13.6421 1H4.01003Z" stroke="#3A3A3A" stroke-width="0.75" stroke-linecap="round" stroke-linejoin="round"/>
<path d="M8.95065 7.57546C9.09503 7.56212 9.22191 7.53099 9.33129 7.48206C9.44067 7.43092 9.53255 7.36643 9.60693 7.2886C9.68349 7.21077 9.74037 7.12071 9.77756 7.01842C9.81694 6.9139 9.83662 6.79938 9.83662 6.67486C9.83662 6.56367 9.81584 6.46805 9.77428 6.388C9.7349 6.30794 9.68021 6.23901 9.61021 6.18119C9.54021 6.12115 9.45817 6.07112 9.36411 6.03109C9.27004 5.98884 9.16941 5.94992 9.06222 5.91434L8.95065 7.57546ZM8.84237 3.71954C8.70017 3.73288 8.57657 3.76179 8.47157 3.80626C8.36875 3.85074 8.28344 3.90633 8.21562 3.97304C8.14781 4.03975 8.09749 4.11536 8.06468 4.19986C8.03187 4.28214 8.01546 4.36886 8.01546 4.46003C8.01546 4.56677 8.03405 4.66017 8.07124 4.74022C8.10843 4.81805 8.15984 4.88699 8.22547 4.94703C8.2911 5.00707 8.36766 5.05933 8.45516 5.1038C8.54267 5.14827 8.63783 5.1883 8.74064 5.22388L8.84237 3.71954ZM9.1016 5.34063C9.2591 5.39177 9.41442 5.44625 9.56755 5.50407C9.72068 5.56189 9.8585 5.63638 9.981 5.72755C10.1035 5.81873 10.202 5.93325 10.2763 6.07112C10.3529 6.20676 10.3912 6.37688 10.3912 6.58146C10.3912 6.78159 10.3584 6.9695 10.2927 7.14517C10.2271 7.32084 10.1309 7.47539 10.004 7.60882C9.87928 7.74224 9.72506 7.8512 9.5413 7.9357C9.35973 8.01798 9.15191 8.0669 8.91784 8.08247L8.87846 8.66619C8.87627 8.70844 8.85987 8.74513 8.82924 8.77627C8.79861 8.80962 8.76033 8.8263 8.71439 8.8263H8.49782L8.54704 8.0758C8.28234 8.04911 8.04062 7.9824 7.82186 7.87566C7.60529 7.7667 7.41825 7.62883 7.26074 7.46205L7.43794 7.18853C7.45544 7.16407 7.47731 7.14406 7.50356 7.12849C7.52982 7.11293 7.55825 7.10514 7.58888 7.10514C7.63044 7.10514 7.67748 7.12627 7.72998 7.16852C7.78248 7.21077 7.84702 7.25858 7.92358 7.31195C8.00233 7.36532 8.09421 7.41758 8.19922 7.46872C8.30641 7.51987 8.43438 7.55433 8.58314 7.57212L8.70127 5.80094C8.54814 5.75424 8.39719 5.70198 8.24844 5.64416C8.10187 5.58635 7.96952 5.50963 7.85139 5.41401C7.73545 5.31839 7.64138 5.19942 7.56919 5.0571C7.49919 4.91478 7.46419 4.73578 7.46419 4.52008C7.46419 4.35774 7.49481 4.19986 7.55607 4.04642C7.61951 3.89076 7.71138 3.75289 7.8317 3.63281C7.95202 3.51273 8.09968 3.41489 8.27469 3.33928C8.44969 3.26145 8.64986 3.21809 8.87518 3.2092L8.90799 2.72887C8.91018 2.68662 8.92549 2.64882 8.95393 2.61546C8.98456 2.58211 9.02394 2.56543 9.07206 2.56543H9.28863L9.24598 3.22254C9.47348 3.25145 9.67037 3.31149 9.83662 3.40266C10.0051 3.49383 10.1538 3.60502 10.2829 3.73622L10.1418 3.95636C10.098 4.02308 10.0477 4.05643 9.99085 4.05643C9.96022 4.05643 9.92194 4.04309 9.876 4.0164C9.83225 3.9875 9.77865 3.95414 9.71521 3.91634C9.65396 3.87853 9.58068 3.84184 9.49536 3.80626C9.41223 3.77068 9.31707 3.744 9.20988 3.72621L9.1016 5.34063Z" fill="black"/>
</svg>
