<svg width="19" height="12" viewBox="0 0 19 12" fill="none" xmlns="http://www.w3.org/2000/svg">
<path d="M2.52783 8.89665L5.47729 5.37939" stroke="#2A2A2A" stroke-width="0.75"/>
<path d="M3.20648 10.2413C3.20648 10.9991 2.57906 11.6249 1.79074 11.6249C1.00242 11.6249 0.375 10.9991 0.375 10.2413C0.375 9.48351 1.00242 8.85767 1.79074 8.85767C2.57906 8.85767 3.20648 9.48351 3.20648 10.2413Z" stroke="#2A2A2A" stroke-width="0.75"/>
<path d="M8.05218 4.24105C8.05218 4.99884 7.42476 5.62468 6.63644 5.62468C5.84813 5.62468 5.2207 4.99884 5.2207 4.24105C5.2207 3.48326 5.84813 2.85742 6.63644 2.85742C7.42476 2.85742 8.05218 3.48326 8.05218 4.24105Z" stroke="#2A2A2A" stroke-width="0.75"/>
<path d="M12.2656 9.62093C12.2656 10.3787 11.6381 11.0046 10.8498 11.0046C10.0615 11.0046 9.43408 10.3787 9.43408 9.62093C9.43408 8.86314 10.0615 8.2373 10.8498 8.2373C11.6381 8.2373 12.2656 8.86314 12.2656 9.62093Z" stroke="#2A2A2A" stroke-width="0.75"/>
<path d="M18.3749 1.75863C18.3749 2.51642 17.7475 3.14226 16.9592 3.14226C16.1709 3.14226 15.5435 2.51642 15.5435 1.75863C15.5435 1.00084 16.1709 0.375 16.9592 0.375C17.7475 0.375 18.3749 1.00084 18.3749 1.75863Z" stroke="#2A2A2A" stroke-width="0.75"/>
<path d="M7.58447 5.58618L10.1126 8.27585" stroke="#2A2A2A" stroke-width="0.75"/>
<path d="M11.5869 8.48272L16.0111 2.89648" stroke="#2A2A2A" stroke-width="0.75"/>
</svg>
