<svg width="24" height="24" viewBox="0 0 24 24" fill="none" xmlns="http://www.w3.org/2000/svg">
<ellipse cx="5.63329" cy="16.552" rx="1.58006" ry="1.44828" fill="#BCD5E4"/>
<ellipse cx="10.5846" cy="10.552" rx="1.47473" ry="1.44828" fill="#BCD5E4"/>
<ellipse cx="14.798" cy="15.9309" rx="1.47473" ry="1.44828" fill="#BCD5E4"/>
<ellipse cx="20.2755" cy="8.68974" rx="1.47473" ry="1.44828" fill="#BCD5E4"/>
<path d="M6.20648 16.2413C6.20648 16.9991 5.57906 17.6249 4.79074 17.6249C4.00242 17.6249 3.375 16.9991 3.375 16.2413C3.375 15.4835 4.00242 14.8577 4.79074 14.8577C5.57906 14.8577 6.20648 15.4835 6.20648 16.2413Z" stroke="#2A2A2A" stroke-width="0.75"/>
<path d="M11.0522 10.2413C11.0522 10.9991 10.4248 11.6249 9.63644 11.6249C8.84813 11.6249 8.2207 10.9991 8.2207 10.2413C8.2207 9.48351 8.84813 8.85767 9.63644 8.85767C10.4248 8.85767 11.0522 9.48351 11.0522 10.2413Z" stroke="#2A2A2A" stroke-width="0.75"/>
<path d="M15.2656 15.6209C15.2656 16.3787 14.6381 17.0046 13.8498 17.0046C13.0615 17.0046 12.4341 16.3787 12.4341 15.6209C12.4341 14.8631 13.0615 14.2373 13.8498 14.2373C14.6381 14.2373 15.2656 14.8631 15.2656 15.6209Z" stroke="#2A2A2A" stroke-width="0.75"/>
<path d="M21.3749 7.75863C21.3749 8.51642 20.7475 9.14226 19.9592 9.14226C19.1709 9.14226 18.5435 8.51642 18.5435 7.75863C18.5435 7.00084 19.1709 6.375 19.9592 6.375C20.7475 6.375 21.3749 7.00084 21.3749 7.75863Z" stroke="#2A2A2A" stroke-width="0.75"/>
<path d="M5.52783 14.8967L8.47729 11.3794" stroke="#2A2A2A" stroke-width="0.75"/>
<path d="M10.5845 11.5862L13.1126 14.2759" stroke="#2A2A2A" stroke-width="0.75"/>
<path d="M14.5869 14.4827L19.0111 8.89648" stroke="#2A2A2A" stroke-width="0.75"/>
</svg>
