<svg width="143" height="277" viewBox="0 0 143 277" fill="none" xmlns="http://www.w3.org/2000/svg">
<g filter="url(#filter0_d)">
<rect x="8.53174" y="2" width="125.937" height="264.312" rx="18" fill="#F6F6F6" stroke="black" stroke-width="4"/>
<rect x="134.781" y="47.251" width="4.21874" height="25.7343" rx="2.10937" fill="#131315"/>
<rect x="4" y="53.5791" width="4.21874" height="20.25" rx="2.10937" fill="#131315"/>
<rect x="4" y="78.8916" width="4.21874" height="19.8281" rx="2.10937" fill="#131315"/>
<rect x="4.00146" y="35.4395" width="4.21874" height="9.70311" rx="2.10937" fill="#131315"/>
</g>
<mask id="mask0" style="mask-type:alpha" maskUnits="userSpaceOnUse" x="11" y="82" width="122" height="107">
<path d="M11 82H133V189H11V82Z" fill="#C4C4C4"/>
</mask>
<g mask="url(#mask0)">
<g filter="url(#filter1_d)">
<rect x="-19.832" y="89.1279" width="55" height="74" rx="5" fill="white"/>
<rect x="-19.582" y="89.3779" width="54.5" height="73.5" rx="4.75" stroke="black" stroke-opacity="0.1" stroke-width="0.5"/>
</g>
<path d="M16.2115 126.213C16.2115 124.809 15.0663 123.671 13.6544 123.671C12.2425 123.671 11.0972 124.809 11.0972 126.213C11.0972 127.618 12.2425 128.756 13.6544 128.756C15.0663 128.756 16.2115 127.618 16.2115 126.213Z" fill="#ABBCE8" stroke="#2A2A2A" stroke-width="0.5"/>
<path d="M22.3508 126.213C22.3508 124.809 21.2054 123.671 19.7935 123.671C18.3817 123.671 17.2363 124.809 17.2363 126.213C17.2363 127.618 18.3817 128.756 19.7935 128.756C21.2054 128.756 22.3508 127.618 22.3508 126.213Z" fill="#ABBCE8" stroke="#2A2A2A" stroke-width="0.5"/>
<path d="M28.4909 126.213C28.4909 124.809 27.3456 123.671 25.9337 123.671C24.5218 123.671 23.3765 124.809 23.3765 126.213C23.3765 127.618 24.5218 128.756 25.9337 128.756C27.3456 128.756 28.4909 127.618 28.4909 126.213Z" fill="#ABBCE8" stroke="#2A2A2A" stroke-width="0.5"/>
<path d="M14.1265 126.669C14.1149 126.654 14.1034 126.643 14.0919 126.634C14.0814 126.626 14.0656 126.622 14.0447 126.622C14.0247 126.622 14.0053 126.628 13.9864 126.639C13.9675 126.651 13.9449 126.665 13.9187 126.679C13.8924 126.695 13.861 126.708 13.8243 126.72C13.7885 126.732 13.744 126.739 13.6905 126.739C13.6221 126.739 13.5623 126.726 13.511 126.701C13.4595 126.677 13.4165 126.643 13.3819 126.597C13.3482 126.551 13.323 126.496 13.3063 126.43C13.2895 126.366 13.2811 126.293 13.2811 126.211C13.2811 126.126 13.2899 126.05 13.3079 125.984C13.3268 125.917 13.3535 125.861 13.3882 125.815C13.4228 125.771 13.4647 125.737 13.5141 125.713C13.5634 125.69 13.619 125.678 13.681 125.678C13.7429 125.678 13.7928 125.686 13.8306 125.7C13.8693 125.716 13.9019 125.732 13.9282 125.75C13.9543 125.769 13.977 125.785 13.9959 125.8C14.0157 125.815 14.0378 125.823 14.062 125.823C14.0935 125.823 14.1171 125.811 14.1328 125.787L14.2446 125.647C14.2015 125.597 14.1549 125.555 14.1045 125.521C14.0541 125.488 14.0015 125.461 13.9471 125.44C13.8935 125.421 13.8378 125.407 13.7802 125.398C13.7235 125.39 13.6668 125.386 13.6102 125.386C13.5103 125.386 13.4165 125.404 13.3284 125.44C13.2402 125.478 13.163 125.532 13.0969 125.602C13.0308 125.673 12.9782 125.759 12.9395 125.861C12.9017 125.963 12.8828 126.08 12.8828 126.211C12.8828 126.328 12.8995 126.437 12.9332 126.536C12.9678 126.637 13.0182 126.724 13.0843 126.796C13.1505 126.87 13.2323 126.927 13.3299 126.969C13.4275 127.01 13.5398 127.031 13.6668 127.031C13.7874 127.031 13.8929 127.012 13.9833 126.974C14.0746 126.935 14.1565 126.88 14.2289 126.809L14.1265 126.669Z" fill="#2A2A2A"/>
<path d="M20.6057 127.006H20.231C20.2027 127.006 20.1795 126.999 20.1617 126.985C20.1449 126.97 20.1307 126.953 20.1192 126.935L19.7776 126.379C19.7724 126.397 19.7661 126.413 19.7587 126.429C19.7524 126.444 19.745 126.459 19.7366 126.472L19.4344 126.935C19.4229 126.952 19.4087 126.969 19.3919 126.985C19.375 126.999 19.3541 127.006 19.3289 127.006H18.981L19.5351 126.183L19.003 125.409H19.3777C19.406 125.409 19.427 125.413 19.4407 125.422C19.4544 125.429 19.4663 125.441 19.4769 125.459L19.8154 125.991C19.8269 125.956 19.8432 125.921 19.8642 125.887L20.1365 125.467C20.1597 125.428 20.1896 125.409 20.2263 125.409H20.5836L20.0531 126.166L20.6057 127.006Z" fill="#2A2A2A"/>
<path d="M25.1911 125.725C25.2069 125.617 25.2373 125.522 25.2824 125.441C25.3276 125.359 25.3837 125.291 25.4509 125.237C25.5191 125.182 25.5968 125.141 25.6839 125.114C25.7721 125.086 25.8665 125.072 25.9673 125.072C26.0723 125.072 26.1667 125.087 26.2507 125.117C26.3357 125.146 26.4081 125.187 26.4679 125.24C26.5277 125.292 26.5734 125.354 26.6049 125.424C26.6375 125.495 26.6537 125.571 26.6537 125.653C26.6537 125.725 26.6453 125.788 26.6285 125.843C26.6128 125.897 26.5896 125.944 26.5592 125.985C26.5288 126.025 26.4911 126.059 26.4459 126.087C26.4007 126.115 26.3498 126.139 26.2932 126.157C26.4297 126.2 26.5314 126.265 26.5986 126.352C26.6658 126.439 26.6993 126.549 26.6993 126.68C26.6993 126.792 26.6784 126.892 26.6364 126.978C26.5943 127.064 26.5377 127.137 26.4663 127.196C26.395 127.254 26.3121 127.298 26.2176 127.328C26.1242 127.358 26.0251 127.373 25.92 127.373C25.8056 127.373 25.7059 127.36 25.6209 127.334C25.5359 127.308 25.4619 127.27 25.3989 127.219C25.336 127.168 25.2824 127.106 25.2384 127.032C25.1943 126.959 25.1565 126.873 25.125 126.777L25.2966 126.707C25.3418 126.688 25.3837 126.684 25.4226 126.693C25.4624 126.701 25.4914 126.722 25.5091 126.755C25.528 126.791 25.5485 126.827 25.5705 126.863C25.5937 126.898 25.6209 126.929 25.6524 126.958C25.6839 126.984 25.7206 127.007 25.7626 127.024C25.8056 127.041 25.8566 127.049 25.9153 127.049C25.9814 127.049 26.0392 127.039 26.0885 127.018C26.1378 126.996 26.1787 126.968 26.2113 126.934C26.2448 126.9 26.2696 126.862 26.2853 126.821C26.3021 126.778 26.3105 126.735 26.3105 126.693C26.3105 126.639 26.3047 126.59 26.2932 126.547C26.2817 126.502 26.2574 126.464 26.2207 126.433C26.1841 126.402 26.131 126.377 26.0617 126.36C25.9936 126.342 25.9016 126.333 25.7862 126.333V126.059C25.8818 126.058 25.961 126.049 26.024 126.033C26.0869 126.016 26.1368 125.993 26.1735 125.964C26.2113 125.934 26.2376 125.898 26.2522 125.857C26.2669 125.815 26.2743 125.77 26.2743 125.72C26.2743 125.614 26.2444 125.534 26.1845 125.479C26.1247 125.424 26.0449 125.396 25.9452 125.396C25.8991 125.396 25.8566 125.403 25.8177 125.416C25.7788 125.429 25.7437 125.447 25.7122 125.471C25.6818 125.494 25.656 125.521 25.6351 125.552C25.6141 125.583 25.5984 125.617 25.5879 125.654C25.5701 125.702 25.5465 125.734 25.517 125.749C25.4887 125.765 25.4482 125.769 25.3958 125.76L25.1911 125.725Z" fill="#2A2A2A"/>
<g filter="url(#filter2_d)">
<rect x="43.168" y="89.1279" width="54" height="74" rx="5" fill="white"/>
<rect x="43.418" y="89.3779" width="53.5" height="73.5" rx="4.75" stroke="black" stroke-opacity="0.1" stroke-width="0.5"/>
</g>
<g clip-path="url(#clip0)">
<path d="M53.7312 121.062H50.5664C50.1077 121.062 49.7358 121.424 49.7358 121.87V130.443C49.7358 130.89 50.1077 131.252 50.5664 131.252H53.7312C54.1899 131.252 54.5617 130.89 54.5617 130.443V121.87C54.5617 121.424 54.1899 121.062 53.7312 121.062Z" fill="#D2CBE8" stroke="#2A2A2A" stroke-width="0.5"/>
<path d="M91.0144 121.062H87.8496C87.3909 121.062 87.019 121.424 87.019 121.87V130.443C87.019 130.89 87.3909 131.252 87.8496 131.252H91.0144C91.4731 131.252 91.8449 130.89 91.8449 130.443V121.87C91.8449 121.424 91.4731 121.062 91.0144 121.062Z" fill="#D2CBE8" stroke="#2A2A2A" stroke-width="0.5"/>
<path d="M60.1921 121.062H57.0273C56.5686 121.062 56.1968 121.424 56.1968 121.87V130.443C56.1968 130.89 56.5686 131.252 57.0273 131.252H60.1921C60.6508 131.252 61.0227 130.89 61.0227 130.443V121.87C61.0227 121.424 60.6508 121.062 60.1921 121.062Z" fill="#D2CBE8" stroke="#2A2A2A" stroke-width="0.5"/>
<path d="M78.2795 120.972H75.1147C74.6051 120.972 74.1919 121.374 74.1919 121.871V130.443C74.1919 130.94 74.6051 131.342 75.1147 131.342H78.2795C78.7892 131.342 79.2024 130.94 79.2024 130.443V126.157V121.871C79.2024 121.374 78.7892 120.972 78.2795 120.972Z" fill="#D2CBE8"/>
<path d="M78.279 121.062H75.1143C74.6555 121.062 74.2837 121.424 74.2837 121.87V130.443C74.2837 130.89 74.6555 131.252 75.1143 131.252H78.279C78.7377 131.252 79.1096 130.89 79.1096 130.443V121.87C79.1096 121.424 78.7377 121.062 78.279 121.062Z" stroke="#2A2A2A" stroke-opacity="0.4" stroke-width="0.5"/>
<path d="M66.6516 121.062H63.4868C63.0281 121.062 62.6562 121.424 62.6562 121.87V130.443C62.6562 130.89 63.0281 131.252 63.4868 131.252H66.6516C67.1103 131.252 67.4822 130.89 67.4822 130.443V121.87C67.4822 121.424 67.1103 121.062 66.6516 121.062Z" fill="#D2CBE8" stroke="#2A2A2A" stroke-width="0.5"/>
<path d="M84.739 120.972H81.5742C81.0645 120.972 80.6514 121.374 80.6514 121.871V130.443C80.6514 130.94 81.0645 131.342 81.5742 131.342H84.739C85.2487 131.342 85.6618 130.94 85.6618 130.443V121.871C85.6618 121.374 85.2487 120.972 84.739 120.972Z" fill="#D2CBE8"/>
<path d="M84.7395 121.062H81.5747C81.116 121.062 80.7441 121.424 80.7441 121.87V130.443C80.7441 130.89 81.116 131.252 81.5747 131.252H84.7395C85.1982 131.252 85.5701 130.89 85.5701 130.443V121.87C85.5701 121.424 85.1982 121.062 84.7395 121.062Z" stroke="#2A2A2A" stroke-opacity="0.4" stroke-width="0.5"/>
<path d="M65.0286 124.225H65.7901V124.51H64.6748V122.657H65.0286V124.225Z" fill="#2A2A2A"/>
<path d="M65.6775 128.936H65.9168V129.119C65.9168 129.136 65.9111 129.151 65.8997 129.164C65.8883 129.176 65.8717 129.182 65.8498 129.182H65.6775V129.634H65.3934V129.182H64.5911C64.5691 129.182 64.5499 129.175 64.5332 129.163C64.5165 129.149 64.506 129.132 64.5016 129.113L64.4688 128.952L65.3697 127.78H65.6775V128.936ZM65.3934 128.33C65.3934 128.303 65.3942 128.273 65.396 128.241C65.3977 128.21 65.4008 128.177 65.4052 128.143L64.8147 128.936H65.3934V128.33Z" fill="#2A2A2A"/>
<path d="M59.2329 129.188V129.421H58.1993V129.188H58.5779V128.127C58.5779 128.085 58.5792 128.042 58.5817 127.998L58.313 128.217C58.2975 128.228 58.282 128.236 58.2665 128.239C58.2518 128.242 58.2376 128.242 58.2239 128.239C58.2109 128.237 58.1993 128.232 58.189 128.227C58.1786 128.22 58.1709 128.213 58.1657 128.205L58.0649 128.071L58.6347 127.599H58.897V129.188H59.2329Z" fill="#2A2A2A"/>
<path fill-rule="evenodd" clip-rule="evenodd" d="M70.71 127.605C70.6384 127.676 70.6393 127.789 70.7119 127.859C70.7844 127.929 70.9012 127.928 70.9729 127.857L72.2137 126.632C72.2848 126.562 72.2846 126.449 72.2134 126.379L70.9725 125.161C70.9007 125.09 70.7839 125.09 70.7115 125.16C70.6392 125.229 70.6386 125.343 70.7104 125.414L71.6393 126.326H69.5854C69.4836 126.326 69.4009 126.407 69.4009 126.506C69.4009 126.605 69.4836 126.686 69.5854 126.686H71.641L70.71 127.605Z" fill="#2A2A2A"/>
<path d="M88.7192 127.327C88.7611 127.291 88.8065 127.257 88.8558 127.224C88.9062 127.192 88.9605 127.164 89.0182 127.14C89.076 127.116 89.1388 127.097 89.2065 127.084C89.2742 127.07 89.3473 127.062 89.4261 127.062C89.5332 127.062 89.6305 127.077 89.7178 127.106C89.8063 127.134 89.882 127.176 89.9448 127.23C90.0075 127.282 90.0561 127.347 90.0906 127.422C90.1251 127.498 90.1423 127.582 90.1423 127.676C90.1423 127.767 90.1288 127.846 90.1017 127.913C90.0745 127.979 90.0408 128.036 90.0001 128.085C89.9595 128.135 89.9147 128.177 89.8654 128.213C89.8174 128.249 89.7718 128.283 89.7288 128.316C89.6858 128.347 89.6482 128.378 89.6162 128.409C89.5854 128.439 89.567 128.473 89.5609 128.511L89.5184 128.774H89.2065L89.1751 128.481C89.1677 128.425 89.1757 128.375 89.1991 128.333C89.2237 128.29 89.2558 128.251 89.2951 128.217C89.3357 128.181 89.3805 128.147 89.4298 128.114C89.4791 128.081 89.5253 128.045 89.5683 128.006C89.6113 127.967 89.6471 127.923 89.6753 127.875C89.7048 127.826 89.7196 127.768 89.7196 127.701C89.7196 127.658 89.7109 127.619 89.6938 127.586C89.6777 127.551 89.655 127.522 89.6255 127.498C89.5959 127.472 89.5603 127.453 89.5184 127.44C89.4778 127.427 89.4335 127.42 89.3855 127.42C89.3154 127.42 89.2558 127.428 89.2065 127.444C89.1585 127.458 89.1174 127.475 89.0828 127.494C89.0496 127.512 89.0214 127.529 88.9979 127.544C88.9745 127.559 88.9536 127.566 88.9352 127.566C88.8909 127.566 88.859 127.548 88.8392 127.512L88.7192 127.327ZM89.0681 129.446C89.0681 129.409 89.0749 129.374 89.0884 129.34C89.1031 129.307 89.1229 129.278 89.1474 129.254C89.172 129.23 89.2015 129.211 89.236 129.196C89.2705 129.182 89.3075 129.175 89.3468 129.175C89.3861 129.175 89.4224 129.182 89.4557 129.196C89.4902 129.211 89.5197 129.23 89.5443 129.254C89.5701 129.278 89.5904 129.307 89.6052 129.34C89.6199 129.374 89.6273 129.409 89.6273 129.446C89.6273 129.485 89.6199 129.521 89.6052 129.554C89.5904 129.586 89.5701 129.615 89.5443 129.639C89.5197 129.663 89.4902 129.681 89.4557 129.694C89.4224 129.709 89.3861 129.716 89.3468 129.716C89.3075 129.716 89.2705 129.709 89.236 129.694C89.2015 129.681 89.172 129.663 89.1474 129.639C89.1229 129.615 89.1031 129.586 89.0884 129.554C89.0749 129.521 89.0681 129.485 89.0681 129.446Z" fill="#2A2A2A"/>
<path d="M57.312 123.698C57.2524 123.698 57.2041 123.651 57.2041 123.593C57.2041 123.535 57.2524 123.488 57.312 123.488H59.7373C59.7968 123.488 59.8451 123.535 59.8451 123.593C59.8451 123.651 59.7968 123.698 59.7373 123.698H57.312Z" fill="#2A2A2A"/>
<path opacity="0.4" d="M75.3988 123.783C75.3394 123.783 75.291 123.736 75.291 123.678C75.291 123.62 75.3394 123.573 75.3988 123.573H77.8242C77.8839 123.573 77.932 123.62 77.932 123.678C77.932 123.736 77.8839 123.783 77.8242 123.783H75.3988Z" fill="#8F8B9C"/>
<g opacity="0.4">
<path opacity="0.4" d="M83.1165 124.225H83.878V124.51H82.7627V122.657H83.1165V124.225Z" fill="#8F8B9C"/>
<path opacity="0.4" d="M83.7644 128.936H84.0038V129.119C84.0038 129.136 83.9981 129.151 83.9866 129.164C83.9754 129.176 83.9586 129.182 83.9368 129.182H83.7644V129.634H83.4804V129.182H82.678C82.6561 129.182 82.6369 129.175 82.6203 129.163C82.6035 129.149 82.5929 129.132 82.5887 129.113L82.5557 128.952L83.4567 127.78H83.7644V128.936ZM83.4804 128.33C83.4804 128.303 83.4813 128.273 83.4829 128.241C83.4848 128.21 83.4877 128.177 83.4922 128.143L82.9017 128.936H83.4804V128.33Z" fill="#8F8B9C"/>
</g>
<path d="M51.2183 122.847V124.926H51.422C51.4535 124.926 51.4801 124.921 51.5018 124.912C51.5224 124.901 51.5426 124.884 51.5623 124.86L52.6771 123.474C52.6712 123.537 52.6682 123.595 52.6682 123.649V124.926H53.0182V122.847H52.81C52.7933 122.847 52.779 122.848 52.7672 122.85C52.7544 122.851 52.7435 122.853 52.7347 122.858C52.7248 122.862 52.7155 122.868 52.7066 122.877C52.6978 122.885 52.6879 122.895 52.6771 122.909L51.5579 124.301C51.5608 124.267 51.5633 124.234 51.5653 124.201C51.5672 124.169 51.5682 124.139 51.5682 124.111V122.847H51.2183Z" fill="#2A2A2A"/>
<path d="M88.4561 122.847V124.926H88.6598C88.6914 124.926 88.718 124.921 88.7396 124.912C88.7602 124.901 88.7803 124.884 88.8001 124.86L89.9149 123.474C89.909 123.537 89.906 123.595 89.906 123.649V124.926H90.256V122.847H90.0478C90.031 122.847 90.0168 122.848 90.005 122.85C89.9922 122.851 89.9813 122.853 89.9725 122.858C89.9627 122.862 89.9533 122.868 89.9444 122.877C89.9356 122.885 89.9258 122.895 89.9149 122.909L88.7957 124.301C88.7986 124.267 88.801 124.234 88.803 124.201C88.8051 124.169 88.806 124.139 88.806 124.111V122.847H88.4561Z" fill="#2A2A2A"/>
<path d="M52.7034 129.131C52.7379 129.131 52.765 129.141 52.7848 129.16C52.8055 129.179 52.8158 129.204 52.8158 129.235V129.421H51.5342V129.318C51.5342 129.297 51.5385 129.275 51.5471 129.252C51.5566 129.229 51.5712 129.208 51.591 129.189L52.1582 128.636C52.2056 128.589 52.2478 128.544 52.2848 128.501C52.3227 128.458 52.3541 128.416 52.3791 128.374C52.4041 128.332 52.4231 128.29 52.436 128.247C52.4498 128.203 52.4567 128.157 52.4567 128.11C52.4567 128.066 52.4502 128.028 52.4373 127.995C52.4244 127.962 52.4058 127.933 52.3817 127.911C52.3585 127.888 52.33 127.871 52.2965 127.86C52.2637 127.849 52.2267 127.843 52.1853 127.843C52.1474 127.843 52.1121 127.848 52.0794 127.859C52.0475 127.869 52.0191 127.884 51.9941 127.903C51.9691 127.922 51.948 127.943 51.9308 127.969C51.9136 127.994 51.9007 128.021 51.8921 128.052C51.8774 128.09 51.8585 128.116 51.8352 128.128C51.812 128.141 51.7784 128.144 51.7344 128.137L51.5665 128.108C51.5794 128.021 51.6044 127.945 51.6414 127.879C51.6784 127.813 51.7245 127.758 51.7797 127.714C51.8356 127.67 51.8994 127.637 51.9709 127.615C52.0432 127.592 52.1207 127.581 52.2034 127.581C52.2895 127.581 52.3684 127.594 52.4399 127.619C52.5113 127.643 52.5725 127.678 52.6233 127.723C52.6741 127.769 52.7138 127.823 52.7422 127.887C52.7706 127.951 52.7848 128.021 52.7848 128.1C52.7848 128.167 52.7745 128.229 52.7538 128.286C52.734 128.343 52.7069 128.397 52.6724 128.449C52.6388 128.501 52.5992 128.552 52.5536 128.6C52.5079 128.649 52.4601 128.699 52.4101 128.749L51.989 129.168C52.0294 129.156 52.0695 129.147 52.1091 129.141C52.1496 129.135 52.1879 129.131 52.2241 129.131H52.7034Z" fill="#2A2A2A"/>
<path opacity="0.4" d="M77.3208 129.188V129.421H76.2872V129.188H76.6658V128.127C76.6658 128.085 76.667 128.042 76.6696 127.998L76.4009 128.217C76.3854 128.228 76.3699 128.236 76.3544 128.239C76.3396 128.242 76.3254 128.242 76.3117 128.239C76.2988 128.237 76.2872 128.232 76.2769 128.227C76.2665 128.22 76.2588 128.213 76.2536 128.205L76.1528 128.071L76.7226 127.599H76.9849V129.188H77.3208Z" fill="#8F8B9C"/>
</g>
<g filter="url(#filter3_d)">
<rect x="105.168" y="89.1279" width="54" height="74" rx="5" fill="white"/>
<rect x="105.418" y="89.3779" width="53.5" height="73.5" rx="4.75" stroke="black" stroke-opacity="0.1" stroke-width="0.5"/>
</g>
<path d="M146.292 126.041C146.155 126.172 146.155 126.385 146.292 126.516L148.535 128.657C148.672 128.788 148.896 128.788 149.033 128.657C149.171 128.525 149.171 128.312 149.033 128.181L147.04 126.278L149.033 124.376C149.171 124.245 149.171 124.032 149.033 123.9C148.896 123.769 148.672 123.769 148.535 123.9L146.292 126.041ZM137.794 126.041C137.656 126.172 137.656 126.385 137.794 126.516L140.036 128.657C140.174 128.788 140.397 128.788 140.534 128.657C140.672 128.525 140.672 128.312 140.534 128.181L138.541 126.278L140.534 124.376C140.672 124.245 140.672 124.032 140.534 123.9C140.397 123.769 140.174 123.769 140.036 123.9L137.794 126.041ZM129.295 126.041C129.157 126.172 129.157 126.385 129.295 126.516L131.537 128.657C131.675 128.788 131.898 128.788 132.036 128.657C132.173 128.525 132.173 128.312 132.036 128.181L130.042 126.278L132.036 124.376C132.173 124.245 132.173 124.032 132.036 123.9C131.898 123.769 131.675 123.769 131.537 123.9L129.295 126.041ZM120.796 126.041C120.659 126.172 120.659 126.385 120.796 126.516L123.039 128.657C123.176 128.788 123.399 128.788 123.537 128.657C123.675 128.525 123.675 128.312 123.537 128.181L121.544 126.278L123.537 124.376C123.675 124.245 123.675 124.032 123.537 123.9C123.399 123.769 123.176 123.769 123.039 123.9L120.796 126.041ZM112.298 126.041C112.16 126.172 112.16 126.385 112.298 126.516L114.54 128.657C114.678 128.788 114.901 128.788 115.038 128.657C115.176 128.525 115.176 128.312 115.038 128.181L113.045 126.278L115.038 124.376C115.176 124.245 115.176 124.032 115.038 123.9C114.901 123.769 114.678 123.769 114.54 123.9L112.298 126.041ZM151.541 125.942H146.542V126.615H151.541V125.942ZM143.042 125.942H138.043V126.615H143.042V125.942ZM134.543 125.942H129.544V126.615H134.543V125.942ZM126.045 125.942H121.045V126.615H126.045V125.942ZM117.546 125.942H112.547V126.615H117.546V125.942Z" fill="#2A2A2A"/>
<path d="M131.868 131.469C134.584 131.469 136.786 129.277 136.786 126.574C136.786 123.87 134.584 121.679 131.868 121.679C129.151 121.679 126.949 123.87 126.949 126.574C126.949 129.277 129.151 131.469 131.868 131.469Z" stroke="#2A2A2A"/>
</g>
<defs>
<filter id="filter0_d" x="0" y="0" width="143" height="276.312" filterUnits="userSpaceOnUse" color-interpolation-filters="sRGB">
<feFlood flood-opacity="0" result="BackgroundImageFix"/>
<feColorMatrix in="SourceAlpha" type="matrix" values="0 0 0 0 0 0 0 0 0 0 0 0 0 0 0 0 0 0 127 0" result="hardAlpha"/>
<feOffset dy="4"/>
<feGaussianBlur stdDeviation="2"/>
<feColorMatrix type="matrix" values="0 0 0 0 0 0 0 0 0 0 0 0 0 0 0 0 0 0 0.25 0"/>
<feBlend mode="normal" in2="BackgroundImageFix" result="effect1_dropShadow"/>
<feBlend mode="normal" in="SourceGraphic" in2="effect1_dropShadow" result="shape"/>
</filter>
<filter id="filter1_d" x="-21.832" y="88.1279" width="63" height="82" filterUnits="userSpaceOnUse" color-interpolation-filters="sRGB">
<feFlood flood-opacity="0" result="BackgroundImageFix"/>
<feColorMatrix in="SourceAlpha" type="matrix" values="0 0 0 0 0 0 0 0 0 0 0 0 0 0 0 0 0 0 127 0" result="hardAlpha"/>
<feOffset dx="2" dy="3"/>
<feGaussianBlur stdDeviation="2"/>
<feColorMatrix type="matrix" values="0 0 0 0 0 0 0 0 0 0 0 0 0 0 0 0 0 0 0.05 0"/>
<feBlend mode="normal" in2="BackgroundImageFix" result="effect1_dropShadow"/>
<feBlend mode="normal" in="SourceGraphic" in2="effect1_dropShadow" result="shape"/>
</filter>
<filter id="filter2_d" x="41.168" y="88.1279" width="62" height="82" filterUnits="userSpaceOnUse" color-interpolation-filters="sRGB">
<feFlood flood-opacity="0" result="BackgroundImageFix"/>
<feColorMatrix in="SourceAlpha" type="matrix" values="0 0 0 0 0 0 0 0 0 0 0 0 0 0 0 0 0 0 127 0" result="hardAlpha"/>
<feOffset dx="2" dy="3"/>
<feGaussianBlur stdDeviation="2"/>
<feColorMatrix type="matrix" values="0 0 0 0 0 0 0 0 0 0 0 0 0 0 0 0 0 0 0.05 0"/>
<feBlend mode="normal" in2="BackgroundImageFix" result="effect1_dropShadow"/>
<feBlend mode="normal" in="SourceGraphic" in2="effect1_dropShadow" result="shape"/>
</filter>
<filter id="filter3_d" x="103.168" y="88.1279" width="62" height="82" filterUnits="userSpaceOnUse" color-interpolation-filters="sRGB">
<feFlood flood-opacity="0" result="BackgroundImageFix"/>
<feColorMatrix in="SourceAlpha" type="matrix" values="0 0 0 0 0 0 0 0 0 0 0 0 0 0 0 0 0 0 127 0" result="hardAlpha"/>
<feOffset dx="2" dy="3"/>
<feGaussianBlur stdDeviation="2"/>
<feColorMatrix type="matrix" values="0 0 0 0 0 0 0 0 0 0 0 0 0 0 0 0 0 0 0.05 0"/>
<feBlend mode="normal" in2="BackgroundImageFix" result="effect1_dropShadow"/>
<feBlend mode="normal" in="SourceGraphic" in2="effect1_dropShadow" result="shape"/>
</filter>
<clipPath id="clip0">
<rect width="44.1122" height="10.4268" fill="white" transform="translate(49.644 120.972)"/>
</clipPath>
</defs>
</svg>
