<svg width="122" height="94" viewBox="0 0 122 94" fill="none" xmlns="http://www.w3.org/2000/svg">
<g filter="url(#filter0_d)">
<rect x="-30.832" y="1.12793" width="55" height="74" rx="5" fill="white"/>
<rect x="-30.582" y="1.37793" width="54.5" height="73.5" rx="4.75" stroke="black" stroke-opacity="0.1" stroke-width="0.5"/>
</g>
<path d="M5.21145 38.2135C5.21145 36.809 4.06627 35.6711 2.65439 35.6711C1.24251 35.6711 0.097168 36.809 0.097168 38.2135C0.097168 39.618 1.24251 40.7559 2.65439 40.7559C4.06627 40.7559 5.21145 39.618 5.21145 38.2135Z" fill="#ABBCE8" stroke="#2A2A2A" stroke-width="0.5"/>
<path d="M11.3508 38.2135C11.3508 36.809 10.2054 35.6711 8.79355 35.6711C7.38167 35.6711 6.23633 36.809 6.23633 38.2135C6.23633 39.618 7.38167 40.7559 8.79355 40.7559C10.2054 40.7559 11.3508 39.618 11.3508 38.2135Z" fill="#ABBCE8" stroke="#2A2A2A" stroke-width="0.5"/>
<path d="M17.4909 38.2135C17.4909 36.809 16.3456 35.6711 14.9337 35.6711C13.5218 35.6711 12.3765 36.809 12.3765 38.2135C12.3765 39.618 13.5218 40.7559 14.9337 40.7559C16.3456 40.7559 17.4909 39.618 17.4909 38.2135Z" fill="#ABBCE8" stroke="#2A2A2A" stroke-width="0.5"/>
<path d="M3.12655 38.6685C3.1149 38.654 3.10341 38.6426 3.09191 38.6343C3.08136 38.626 3.06562 38.6218 3.04468 38.6218C3.02469 38.6218 3.00532 38.6275 2.98643 38.6389C2.96754 38.6514 2.94487 38.6649 2.91873 38.6794C2.89244 38.695 2.86096 38.7085 2.82427 38.7199C2.78854 38.7324 2.74398 38.7386 2.69045 38.7386C2.62213 38.7386 2.5623 38.7261 2.51098 38.7012C2.4595 38.6774 2.41652 38.6426 2.38188 38.5969C2.34819 38.5513 2.323 38.4957 2.30631 38.4303C2.28947 38.366 2.28112 38.2928 2.28112 38.2108C2.28112 38.1257 2.28994 38.05 2.30789 37.9835C2.32678 37.9171 2.35354 37.8611 2.38818 37.8154C2.42281 37.7708 2.46469 37.7365 2.51413 37.7127C2.5634 37.6898 2.61898 37.6784 2.68101 37.6784C2.74288 37.6784 2.79279 37.6857 2.83057 37.7002C2.8693 37.7158 2.90189 37.7324 2.92818 37.75C2.95431 37.7687 2.97699 37.7853 2.99588 37.7999C3.01571 37.8154 3.03776 37.8232 3.062 37.8232C3.09349 37.8232 3.1171 37.8113 3.13285 37.7874L3.24463 37.6473C3.20149 37.5975 3.15489 37.5554 3.10451 37.5212C3.05413 37.488 3.00155 37.461 2.94707 37.4402C2.89355 37.4205 2.83781 37.4065 2.78019 37.3982C2.72352 37.3899 2.66684 37.3858 2.61016 37.3858C2.51035 37.3858 2.41652 37.4039 2.32835 37.4402C2.24019 37.4776 2.16305 37.5316 2.09692 37.6021C2.0308 37.6727 1.97822 37.7589 1.93949 37.8606C1.9017 37.9633 1.88281 38.0801 1.88281 38.2108C1.88281 38.3281 1.8995 38.4366 1.93319 38.5362C1.96783 38.6369 2.01821 38.7235 2.08433 38.7962C2.15045 38.8699 2.23232 38.9275 2.32993 38.969C2.42754 39.0105 2.53979 39.0312 2.66684 39.0312C2.78743 39.0312 2.89292 39.0121 2.98328 38.9736C3.07459 38.9352 3.15646 38.8802 3.22888 38.8086L3.12655 38.6685Z" fill="#2A2A2A"/>
<path d="M9.60568 39.0064H9.23099C9.20265 39.0064 9.17951 38.9992 9.16172 38.9846C9.14487 38.9701 9.1307 38.9535 9.11921 38.9348L8.77758 38.379C8.77238 38.3967 8.76608 38.4133 8.75869 38.4289C8.75239 38.4444 8.74499 38.459 8.73664 38.4724L8.43437 38.9348C8.42287 38.9524 8.40871 38.9691 8.39186 38.9846C8.37502 38.9992 8.35408 39.0064 8.32889 39.0064H7.98096L8.53513 38.1829L8.003 37.4092H8.37769C8.40603 37.4092 8.42697 37.4133 8.44067 37.4216C8.45436 37.4289 8.46633 37.4414 8.47688 37.459L8.81536 37.9914C8.82685 37.9561 8.84323 37.9214 8.86417 37.8871L9.13653 37.4668C9.15967 37.4284 9.18958 37.4092 9.22627 37.4092H9.58364L9.05309 38.1658L9.60568 39.0064Z" fill="#2A2A2A"/>
<path d="M14.1911 37.7245C14.2069 37.6166 14.2373 37.5222 14.2824 37.4412C14.3276 37.3592 14.3837 37.2913 14.4509 37.2373C14.5191 37.1823 14.5968 37.1413 14.6839 37.1143C14.7721 37.0863 14.8665 37.0723 14.9673 37.0723C15.0723 37.0723 15.1667 37.0873 15.2507 37.1174C15.3357 37.1465 15.4081 37.1875 15.4679 37.2404C15.5277 37.2923 15.5734 37.3535 15.6049 37.4241C15.6375 37.4947 15.6537 37.5709 15.6537 37.6529C15.6537 37.7245 15.6453 37.7879 15.6285 37.8429C15.6128 37.8968 15.5896 37.9441 15.5592 37.9845C15.5288 38.025 15.4911 38.0593 15.4459 38.0873C15.4007 38.1153 15.3498 38.1386 15.2932 38.1573C15.4297 38.1999 15.5314 38.2647 15.5986 38.3519C15.6658 38.4391 15.6993 38.5486 15.6993 38.6804C15.6993 38.7925 15.6784 38.8916 15.6364 38.9777C15.5943 39.0639 15.5377 39.1365 15.4663 39.1957C15.395 39.2538 15.3121 39.2979 15.2176 39.328C15.1242 39.3581 15.0251 39.3732 14.92 39.3732C14.8056 39.3732 14.7059 39.3602 14.6209 39.3342C14.5359 39.3083 14.4619 39.2699 14.3989 39.219C14.336 39.1682 14.2824 39.1059 14.2384 39.0322C14.1943 38.9585 14.1565 38.8734 14.125 38.7769L14.2966 38.7069C14.3418 38.6882 14.3837 38.6835 14.4226 38.6929C14.4624 38.7012 14.4914 38.7219 14.5091 38.7551C14.528 38.7914 14.5485 38.8273 14.5705 38.8625C14.5937 38.8978 14.6209 38.9295 14.6524 38.9575C14.6839 38.9845 14.7206 39.0068 14.7626 39.0244C14.8056 39.0411 14.8566 39.0494 14.9153 39.0494C14.9814 39.0494 15.0392 39.039 15.0885 39.0182C15.1378 38.9964 15.1787 38.9684 15.2113 38.9342C15.2448 38.8999 15.2696 38.862 15.2853 38.8205C15.3021 38.778 15.3105 38.7354 15.3105 38.6929C15.3105 38.6389 15.3047 38.5901 15.2932 38.5465C15.2817 38.5019 15.2574 38.464 15.2207 38.4329C15.1841 38.4017 15.131 38.3773 15.0617 38.3597C14.9936 38.3421 14.9016 38.3332 14.7862 38.3332V38.0593C14.8818 38.0582 14.961 38.0494 15.024 38.0328C15.0869 38.0162 15.1368 37.9934 15.1735 37.9643C15.2113 37.9342 15.2376 37.8984 15.2522 37.8569C15.2669 37.8154 15.2743 37.7697 15.2743 37.7199C15.2743 37.614 15.2444 37.5336 15.1845 37.4786C15.1247 37.4236 15.0449 37.3961 14.9452 37.3961C14.8991 37.3961 14.8566 37.4028 14.8177 37.4163C14.7788 37.4288 14.7437 37.4469 14.7122 37.4708C14.6818 37.4936 14.656 37.5206 14.6351 37.5517C14.6141 37.5829 14.5984 37.6171 14.5879 37.6545C14.5701 37.7022 14.5465 37.7339 14.517 37.7495C14.4887 37.765 14.4482 37.7687 14.3958 37.7604L14.1911 37.7245Z" fill="#2A2A2A"/>
<g filter="url(#filter1_d)">
<rect x="32.168" y="1.12793" width="54" height="74" rx="5" fill="white"/>
<rect x="32.418" y="1.37793" width="53.5" height="73.5" rx="4.75" stroke="black" stroke-opacity="0.1" stroke-width="0.5"/>
</g>
<g clip-path="url(#clip0)">
<path d="M42.7312 33.0615H39.5664C39.1077 33.0615 38.7358 33.4237 38.7358 33.8705V42.4433C38.7358 42.8901 39.1077 43.2522 39.5664 43.2522H42.7312C43.1899 43.2522 43.5617 42.8901 43.5617 42.4433V33.8705C43.5617 33.4237 43.1899 33.0615 42.7312 33.0615Z" fill="#D2CBE8" stroke="#2A2A2A" stroke-width="0.5"/>
<path d="M80.0144 33.0615H76.8496C76.3909 33.0615 76.019 33.4237 76.019 33.8705V42.4433C76.019 42.8901 76.3909 43.2522 76.8496 43.2522H80.0144C80.4731 43.2522 80.8449 42.8901 80.8449 42.4433V33.8705C80.8449 33.4237 80.4731 33.0615 80.0144 33.0615Z" fill="#D2CBE8" stroke="#2A2A2A" stroke-width="0.5"/>
<path d="M49.1921 33.0615H46.0273C45.5686 33.0615 45.1968 33.4237 45.1968 33.8705V42.4433C45.1968 42.8901 45.5686 43.2522 46.0273 43.2522H49.1921C49.6508 43.2522 50.0227 42.8901 50.0227 42.4433V33.8705C50.0227 33.4237 49.6508 33.0615 49.1921 33.0615Z" fill="#D2CBE8" stroke="#2A2A2A" stroke-width="0.5"/>
<path d="M67.2795 32.9717H64.1147C63.6051 32.9717 63.1919 33.3741 63.1919 33.8705V42.4433C63.1919 42.9397 63.6051 43.3422 64.1147 43.3422H67.2795C67.7892 43.3422 68.2024 42.9397 68.2024 42.4433V38.1569V33.8705C68.2024 33.3741 67.7892 32.9717 67.2795 32.9717Z" fill="#D2CBE8"/>
<path d="M67.279 33.0615H64.1143C63.6555 33.0615 63.2837 33.4237 63.2837 33.8705V42.4433C63.2837 42.8901 63.6555 43.2522 64.1143 43.2522H67.279C67.7377 43.2522 68.1096 42.8901 68.1096 42.4433V33.8705C68.1096 33.4237 67.7377 33.0615 67.279 33.0615Z" stroke="#2A2A2A" stroke-opacity="0.4" stroke-width="0.5"/>
<path d="M55.6516 33.0615H52.4868C52.0281 33.0615 51.6562 33.4237 51.6562 33.8705V42.4433C51.6562 42.8901 52.0281 43.2522 52.4868 43.2522H55.6516C56.1103 43.2522 56.4822 42.8901 56.4822 42.4433V33.8705C56.4822 33.4237 56.1103 33.0615 55.6516 33.0615Z" fill="#D2CBE8" stroke="#2A2A2A" stroke-width="0.5"/>
<path d="M73.739 32.9717H70.5742C70.0645 32.9717 69.6514 33.3741 69.6514 33.8705V42.4433C69.6514 42.9397 70.0645 43.3422 70.5742 43.3422H73.739C74.2487 43.3422 74.6618 42.9397 74.6618 42.4433V33.8705C74.6618 33.3741 74.2487 32.9717 73.739 32.9717Z" fill="#D2CBE8"/>
<path d="M73.7395 33.0615H70.5747C70.116 33.0615 69.7441 33.4237 69.7441 33.8705V42.4433C69.7441 42.8901 70.116 43.2522 70.5747 43.2522H73.7395C74.1982 43.2522 74.5701 42.8901 74.5701 42.4433V33.8705C74.5701 33.4237 74.1982 33.0615 73.7395 33.0615Z" stroke="#2A2A2A" stroke-opacity="0.4" stroke-width="0.5"/>
<path d="M54.0286 36.2252H54.7901V36.5096H53.6748V34.6572H54.0286V36.2252Z" fill="#2A2A2A"/>
<path d="M54.6775 40.9358H54.9168V41.119C54.9168 41.1361 54.9111 41.151 54.8997 41.1638C54.8883 41.1758 54.8717 41.1818 54.8498 41.1818H54.6775V41.634H54.3934V41.1818H53.5911C53.5691 41.1818 53.5499 41.1753 53.5332 41.1625C53.5165 41.1489 53.506 41.1322 53.5016 41.1126L53.4688 40.9524L54.3697 39.7803H54.6775V40.9358ZM54.3934 40.3299C54.3934 40.3025 54.3942 40.273 54.396 40.2415C54.3977 40.2099 54.4008 40.177 54.4052 40.1428L53.8147 40.9358H54.3934V40.3299Z" fill="#2A2A2A"/>
<path d="M48.2329 41.188V41.4208H47.1993V41.188H47.5779V40.1272C47.5779 40.0852 47.5792 40.042 47.5817 39.9975L47.313 40.2165C47.2975 40.2282 47.282 40.2358 47.2665 40.2392C47.2518 40.2417 47.2376 40.2417 47.2239 40.2392C47.2109 40.2366 47.1993 40.2325 47.189 40.2266C47.1786 40.2199 47.1709 40.2127 47.1657 40.2052L47.0649 40.0705L47.6347 39.5986H47.897V41.188H48.2329Z" fill="#2A2A2A"/>
<path fill-rule="evenodd" clip-rule="evenodd" d="M59.71 39.605C59.6384 39.6757 59.6393 39.7895 59.7119 39.8592C59.7844 39.9289 59.9012 39.9282 59.9729 39.8575L61.2137 38.6323C61.2848 38.5622 61.2846 38.4494 61.2134 38.3795L59.9725 37.1606C59.9007 37.0901 59.7839 37.0896 59.7115 37.1595C59.6392 37.2294 59.6386 37.3433 59.7104 37.4138L60.6393 38.3263H58.5854C58.4836 38.3263 58.4009 38.4068 58.4009 38.5061C58.4009 38.6054 58.4836 38.6858 58.5854 38.6858H60.641L59.71 39.605Z" fill="#2A2A2A"/>
<path d="M77.7192 39.3268C77.7611 39.2908 77.8065 39.2567 77.8558 39.2243C77.9062 39.1919 77.9605 39.1638 78.0182 39.1398C78.076 39.1158 78.1388 39.0973 78.2065 39.0841C78.2742 39.0697 78.3473 39.0625 78.4261 39.0625C78.5332 39.0625 78.6305 39.0769 78.7178 39.1056C78.8063 39.1344 78.882 39.1758 78.9448 39.2297C79.0075 39.2824 79.0561 39.3465 79.0906 39.422C79.1251 39.4975 79.1423 39.582 79.1423 39.6755C79.1423 39.7666 79.1288 39.8457 79.1017 39.9128C79.0745 39.9787 79.0408 40.0363 79.0001 40.0854C78.9595 40.1346 78.9147 40.1771 78.8654 40.213C78.8174 40.249 78.7718 40.2832 78.7288 40.3155C78.6858 40.3467 78.6482 40.3778 78.6162 40.409C78.5854 40.439 78.567 40.4731 78.5609 40.5115L78.5184 40.7739H78.2065L78.1751 40.4809C78.1677 40.4246 78.1757 40.3754 78.1991 40.3335C78.2237 40.2903 78.2558 40.2514 78.2951 40.2166C78.3357 40.1807 78.3805 40.1465 78.4298 40.1142C78.4791 40.0806 78.5253 40.0447 78.5683 40.0063C78.6113 39.9668 78.6471 39.923 78.6753 39.8751C78.7048 39.8259 78.7196 39.7678 78.7196 39.7007C78.7196 39.6575 78.7109 39.6192 78.6938 39.5856C78.6777 39.5509 78.655 39.5215 78.6255 39.4975C78.5959 39.4724 78.5603 39.4532 78.5184 39.44C78.4778 39.4268 78.4335 39.4202 78.3855 39.4202C78.3154 39.4202 78.2558 39.428 78.2065 39.4436C78.1585 39.458 78.1174 39.4748 78.0828 39.494C78.0496 39.5119 78.0214 39.5287 77.9979 39.5443C77.9745 39.5587 77.9536 39.5659 77.9352 39.5659C77.8909 39.5659 77.859 39.5479 77.8392 39.5119L77.7192 39.3268ZM78.0681 41.4463C78.0681 41.4091 78.0749 41.3738 78.0884 41.3402C78.1031 41.3067 78.1229 41.2779 78.1474 41.2539C78.172 41.23 78.2015 41.2108 78.236 41.1964C78.2705 41.182 78.3075 41.1748 78.3468 41.1748C78.3861 41.1748 78.4224 41.182 78.4557 41.1964C78.4902 41.2108 78.5197 41.23 78.5443 41.2539C78.5701 41.2779 78.5904 41.3067 78.6052 41.3402C78.6199 41.3738 78.6273 41.4091 78.6273 41.4463C78.6273 41.4846 78.6199 41.5206 78.6052 41.5541C78.5904 41.5865 78.5701 41.6147 78.5443 41.6386C78.5197 41.6626 78.4902 41.6812 78.4557 41.6944C78.4224 41.7087 78.3861 41.7159 78.3468 41.7159C78.3075 41.7159 78.2705 41.7087 78.236 41.6944C78.2015 41.6812 78.172 41.6626 78.1474 41.6386C78.1229 41.6147 78.1031 41.5865 78.0884 41.5541C78.0749 41.5206 78.0681 41.4846 78.0681 41.4463Z" fill="#2A2A2A"/>
<path d="M46.312 35.6984C46.2524 35.6984 46.2041 35.6514 46.2041 35.5933C46.2041 35.5353 46.2524 35.4883 46.312 35.4883H48.7373C48.7968 35.4883 48.8451 35.5353 48.8451 35.5933C48.8451 35.6514 48.7968 35.6984 48.7373 35.6984H46.312Z" fill="#2A2A2A"/>
<path opacity="0.4" d="M64.3988 35.7833C64.3394 35.7833 64.291 35.7363 64.291 35.6783C64.291 35.6203 64.3394 35.5732 64.3988 35.5732H66.8242C66.8839 35.5732 66.932 35.6203 66.932 35.6783C66.932 35.7363 66.8839 35.7833 66.8242 35.7833H64.3988Z" fill="#8F8B9C"/>
<g opacity="0.4">
<path opacity="0.4" d="M72.1165 36.2252H72.878V36.5096H71.7627V34.6572H72.1165V36.2252Z" fill="#8F8B9C"/>
<path opacity="0.4" d="M72.7644 40.9358H73.0038V41.119C73.0038 41.1361 72.9981 41.151 72.9866 41.1638C72.9754 41.1758 72.9586 41.1818 72.9368 41.1818H72.7644V41.634H72.4804V41.1818H71.678C71.6561 41.1818 71.6369 41.1753 71.6203 41.1625C71.6035 41.1489 71.5929 41.1322 71.5887 41.1126L71.5557 40.9524L72.4567 39.7803H72.7644V40.9358ZM72.4804 40.3299C72.4804 40.3025 72.4813 40.273 72.4829 40.2415C72.4848 40.2099 72.4877 40.177 72.4922 40.1428L71.9017 40.9358H72.4804V40.3299Z" fill="#8F8B9C"/>
</g>
<path d="M40.2183 34.8467V36.9263H40.422C40.4535 36.9263 40.4801 36.9215 40.5018 36.9119C40.5224 36.9013 40.5426 36.8841 40.5623 36.8601L41.6771 35.4737C41.6712 35.537 41.6682 35.5955 41.6682 35.6492V36.9263H42.0182V34.8467H41.81C41.7933 34.8467 41.779 34.8476 41.7672 34.8496C41.7544 34.8505 41.7435 34.8534 41.7347 34.8582C41.7248 34.862 41.7155 34.8683 41.7066 34.8769C41.6978 34.8846 41.6879 34.8951 41.6771 34.9085L40.5579 36.3007C40.5608 36.2671 40.5633 36.234 40.5653 36.2014C40.5672 36.1688 40.5682 36.1386 40.5682 36.1108V34.8467H40.2183Z" fill="#2A2A2A"/>
<path d="M77.4561 34.8467V36.9263H77.6598C77.6914 36.9263 77.718 36.9215 77.7396 36.9119C77.7602 36.9013 77.7803 36.8841 77.8001 36.8601L78.9149 35.4737C78.909 35.537 78.906 35.5955 78.906 35.6492V36.9263H79.256V34.8467H79.0478C79.031 34.8467 79.0168 34.8476 79.005 34.8496C78.9922 34.8505 78.9813 34.8534 78.9725 34.8582C78.9627 34.862 78.9533 34.8683 78.9444 34.8769C78.9356 34.8846 78.9258 34.8951 78.9149 34.9085L77.7957 36.3007C77.7986 36.2671 77.801 36.234 77.803 36.2014C77.8051 36.1688 77.806 36.1386 77.806 36.1108V34.8467H77.4561Z" fill="#2A2A2A"/>
<path d="M41.7034 41.1314C41.7379 41.1314 41.765 41.1411 41.7848 41.1604C41.8055 41.1788 41.8158 41.2036 41.8158 41.2346V41.4208H40.5342V41.3177C40.5342 41.2967 40.5385 41.2749 40.5471 41.2522C40.5566 41.2287 40.5712 41.2078 40.591 41.1893L41.1582 40.6356C41.2056 40.5886 41.2478 40.5437 41.2848 40.5009C41.3227 40.4582 41.3541 40.4158 41.3791 40.3738C41.4041 40.3319 41.4231 40.2895 41.436 40.2468C41.4498 40.2031 41.4567 40.1574 41.4567 40.1096C41.4567 40.066 41.4502 40.0278 41.4373 39.9951C41.4244 39.9615 41.4058 39.9334 41.3817 39.9108C41.3585 39.8881 41.33 39.8713 41.2965 39.8604C41.2637 39.8487 41.2267 39.8428 41.1853 39.8428C41.1474 39.8428 41.1121 39.8483 41.0794 39.8592C41.0475 39.8692 41.0191 39.8839 40.9941 39.9032C40.9691 39.9217 40.948 39.9435 40.9308 39.9686C40.9136 39.9938 40.9007 40.0215 40.8921 40.0517C40.8774 40.0903 40.8585 40.1159 40.8352 40.1285C40.812 40.141 40.7784 40.144 40.7344 40.1373L40.5665 40.1083C40.5794 40.0211 40.6044 39.9447 40.6414 39.8793C40.6784 39.813 40.7245 39.7581 40.7797 39.7144C40.8356 39.67 40.8994 39.6368 40.9709 39.615C41.0432 39.5924 41.1207 39.5811 41.2034 39.5811C41.2895 39.5811 41.3684 39.5936 41.4399 39.6188C41.5113 39.6431 41.5725 39.678 41.6233 39.7233C41.6741 39.7686 41.7138 39.8231 41.7422 39.8868C41.7706 39.9506 41.7848 40.0215 41.7848 40.0995C41.7848 40.1666 41.7745 40.2287 41.7538 40.2858C41.734 40.3428 41.7069 40.3973 41.6724 40.4494C41.6388 40.5014 41.5992 40.5517 41.5536 40.6004C41.5079 40.649 41.4601 40.6985 41.4101 40.7489L40.989 41.1679C41.0294 41.1562 41.0695 41.1474 41.1091 41.1415C41.1496 41.1348 41.1879 41.1314 41.2241 41.1314H41.7034Z" fill="#2A2A2A"/>
<path opacity="0.4" d="M66.3208 41.188V41.4208H65.2872V41.188H65.6658V40.1272C65.6658 40.0852 65.667 40.042 65.6696 39.9975L65.4009 40.2165C65.3854 40.2282 65.3699 40.2358 65.3544 40.2392C65.3396 40.2417 65.3254 40.2417 65.3117 40.2392C65.2988 40.2366 65.2872 40.2325 65.2769 40.2266C65.2665 40.2199 65.2588 40.2127 65.2536 40.2052L65.1528 40.0705L65.7226 39.5986H65.9849V41.188H66.3208Z" fill="#8F8B9C"/>
</g>
<g filter="url(#filter2_d)">
<rect x="94.168" y="1.12793" width="54" height="74" rx="5" fill="white"/>
<rect x="94.418" y="1.37793" width="53.5" height="73.5" rx="4.75" stroke="black" stroke-opacity="0.1" stroke-width="0.5"/>
</g>
<path d="M135.292 38.0406C135.155 38.172 135.155 38.385 135.292 38.5163L137.535 40.6567C137.672 40.788 137.896 40.788 138.033 40.6567C138.171 40.5253 138.171 40.3124 138.033 40.1811L136.04 38.2785L138.033 36.3759C138.171 36.2446 138.171 36.0316 138.033 35.9003C137.896 35.7689 137.672 35.7689 137.535 35.9003L135.292 38.0406ZM126.794 38.0406C126.656 38.172 126.656 38.385 126.794 38.5163L129.036 40.6567C129.174 40.788 129.397 40.788 129.534 40.6567C129.672 40.5253 129.672 40.3124 129.534 40.1811L127.541 38.2785L129.534 36.3759C129.672 36.2446 129.672 36.0316 129.534 35.9003C129.397 35.7689 129.174 35.7689 129.036 35.9003L126.794 38.0406ZM118.295 38.0406C118.157 38.172 118.157 38.385 118.295 38.5163L120.537 40.6567C120.675 40.788 120.898 40.788 121.036 40.6567C121.173 40.5253 121.173 40.3124 121.036 40.1811L119.042 38.2785L121.036 36.3759C121.173 36.2446 121.173 36.0316 121.036 35.9003C120.898 35.7689 120.675 35.7689 120.537 35.9003L118.295 38.0406ZM109.796 38.0406C109.659 38.172 109.659 38.385 109.796 38.5163L112.039 40.6567C112.176 40.788 112.399 40.788 112.537 40.6567C112.675 40.5253 112.675 40.3124 112.537 40.1811L110.544 38.2785L112.537 36.3759C112.675 36.2446 112.675 36.0316 112.537 35.9003C112.399 35.7689 112.176 35.7689 112.039 35.9003L109.796 38.0406ZM101.298 38.0406C101.16 38.172 101.16 38.385 101.298 38.5163L103.54 40.6567C103.678 40.788 103.901 40.788 104.038 40.6567C104.176 40.5253 104.176 40.3124 104.038 40.1811L102.045 38.2785L104.038 36.3759C104.176 36.2446 104.176 36.0316 104.038 35.9003C103.901 35.7689 103.678 35.7689 103.54 35.9003L101.298 38.0406ZM140.541 37.9421H135.542V38.6148H140.541V37.9421ZM132.042 37.9421H127.043V38.6148H132.042V37.9421ZM123.543 37.9421H118.544V38.6148H123.543V37.9421ZM115.045 37.9421H110.045V38.6148H115.045V37.9421ZM106.546 37.9421H101.547V38.6148H106.546V37.9421Z" fill="#2A2A2A"/>
<path d="M120.868 43.469C123.584 43.469 125.786 41.2774 125.786 38.5739C125.786 35.8703 123.584 33.6787 120.868 33.6787C118.151 33.6787 115.949 35.8703 115.949 38.5739C115.949 41.2774 118.151 43.469 120.868 43.469Z" stroke="#2A2A2A"/>
<defs>
<filter id="filter0_d" x="-32.832" y="0.12793" width="63" height="82" filterUnits="userSpaceOnUse" color-interpolation-filters="sRGB">
<feFlood flood-opacity="0" result="BackgroundImageFix"/>
<feColorMatrix in="SourceAlpha" type="matrix" values="0 0 0 0 0 0 0 0 0 0 0 0 0 0 0 0 0 0 127 0" result="hardAlpha"/>
<feOffset dx="2" dy="3"/>
<feGaussianBlur stdDeviation="2"/>
<feColorMatrix type="matrix" values="0 0 0 0 0 0 0 0 0 0 0 0 0 0 0 0 0 0 0.05 0"/>
<feBlend mode="normal" in2="BackgroundImageFix" result="effect1_dropShadow"/>
<feBlend mode="normal" in="SourceGraphic" in2="effect1_dropShadow" result="shape"/>
</filter>
<filter id="filter1_d" x="30.168" y="0.12793" width="62" height="82" filterUnits="userSpaceOnUse" color-interpolation-filters="sRGB">
<feFlood flood-opacity="0" result="BackgroundImageFix"/>
<feColorMatrix in="SourceAlpha" type="matrix" values="0 0 0 0 0 0 0 0 0 0 0 0 0 0 0 0 0 0 127 0" result="hardAlpha"/>
<feOffset dx="2" dy="3"/>
<feGaussianBlur stdDeviation="2"/>
<feColorMatrix type="matrix" values="0 0 0 0 0 0 0 0 0 0 0 0 0 0 0 0 0 0 0.05 0"/>
<feBlend mode="normal" in2="BackgroundImageFix" result="effect1_dropShadow"/>
<feBlend mode="normal" in="SourceGraphic" in2="effect1_dropShadow" result="shape"/>
</filter>
<filter id="filter2_d" x="92.168" y="0.12793" width="62" height="82" filterUnits="userSpaceOnUse" color-interpolation-filters="sRGB">
<feFlood flood-opacity="0" result="BackgroundImageFix"/>
<feColorMatrix in="SourceAlpha" type="matrix" values="0 0 0 0 0 0 0 0 0 0 0 0 0 0 0 0 0 0 127 0" result="hardAlpha"/>
<feOffset dx="2" dy="3"/>
<feGaussianBlur stdDeviation="2"/>
<feColorMatrix type="matrix" values="0 0 0 0 0 0 0 0 0 0 0 0 0 0 0 0 0 0 0.05 0"/>
<feBlend mode="normal" in2="BackgroundImageFix" result="effect1_dropShadow"/>
<feBlend mode="normal" in="SourceGraphic" in2="effect1_dropShadow" result="shape"/>
</filter>
<clipPath id="clip0">
<rect width="44.1122" height="10.4268" fill="white" transform="translate(38.644 32.9717)"/>
</clipPath>
</defs>
</svg>
