<svg width="177" height="107" viewBox="0 0 177 107" fill="none" xmlns="http://www.w3.org/2000/svg">
<g clip-path="url(#clip0_635_200825)">
<path d="M29.7019 101.124C29.5601 101.13 29.4197 101.093 29.2998 101.017C29.1798 100.941 29.0861 100.83 29.0313 100.699C28.9766 100.568 28.9634 100.424 28.9936 100.285C29.0238 100.146 29.0959 100.02 29.2001 99.9237L29.2476 99.7351C29.2413 99.7199 29.235 99.7048 29.2287 99.6898C29.0858 99.3523 28.8464 99.0646 28.5406 98.8627C28.2347 98.6609 27.876 98.5539 27.5096 98.5553C27.1431 98.5567 26.7852 98.6663 26.4809 98.8704C26.1765 99.0745 25.9392 99.364 25.7989 99.7025C25.2379 101.054 24.5237 102.407 24.3478 103.835C24.2704 104.467 24.3031 105.107 24.4444 105.727C23.1268 102.853 22.4427 99.7294 22.4383 96.5677C22.438 95.7743 22.4821 94.9816 22.5703 94.1931C22.6432 93.5467 22.7444 92.9049 22.8738 92.2677C23.58 88.8105 25.0962 85.5701 27.2979 82.8126C28.3635 82.2311 29.2253 81.337 29.7671 80.2507C29.9634 79.8602 30.1021 79.4434 30.179 79.0131C30.0588 79.0289 29.7257 77.1981 29.8164 77.0858C29.6489 76.8316 29.3491 76.7053 29.1661 76.4572C28.2562 75.2235 27.0025 75.4389 26.3481 77.1154C24.95 77.821 24.9364 78.9912 25.7943 80.1167C26.3401 80.8327 26.4151 81.8016 26.8939 82.5682C26.8447 82.6313 26.7934 82.6923 26.7442 82.7554C25.8436 83.9135 25.0586 85.157 24.4006 86.4681C24.5606 84.9993 24.3696 83.5134 23.8434 82.1327C23.31 80.846 22.3102 79.7623 21.4298 78.6499C20.3723 77.3137 18.2038 77.8968 18.0175 79.5906C18.0157 79.607 18.0139 79.6234 18.0122 79.6398C18.143 79.7136 18.271 79.7919 18.3962 79.8747C18.5536 79.9798 18.6755 80.13 18.746 80.3056C18.8165 80.4812 18.8324 80.674 18.7914 80.8588C18.7505 81.0435 18.6547 81.2116 18.5166 81.341C18.3785 81.4704 18.2046 81.555 18.0176 81.5839L17.9984 81.5868C18.045 82.0581 18.1273 82.5252 18.2447 82.984C17.1153 87.3519 19.5537 88.9428 23.0354 89.0142C23.1122 89.0536 23.1871 89.093 23.264 89.1305C22.6029 91.004 22.1882 92.9555 22.0304 94.936C21.941 96.1044 21.9463 97.2782 22.0461 98.4457L22.0402 98.4044C21.788 97.106 21.0954 95.9346 20.0794 95.0878C18.5705 93.8482 16.4386 93.3918 14.8107 92.3954C14.6377 92.2843 14.4366 92.225 14.231 92.2245C14.0254 92.224 13.8239 92.2823 13.6504 92.3926C13.4768 92.5028 13.3384 92.6604 13.2515 92.8467C13.1646 93.033 13.1327 93.2403 13.1597 93.4441C13.1619 93.4586 13.1641 93.4731 13.1664 93.4876C13.4091 93.5864 13.6453 93.7003 13.8738 93.8285C14.0046 93.9023 14.1326 93.9806 14.2579 94.0634C14.4152 94.1685 14.5371 94.3187 14.6076 94.4943C14.6782 94.6699 14.694 94.8627 14.6531 95.0475C14.6121 95.2322 14.5163 95.4003 14.3783 95.5297C14.2402 95.6591 14.0662 95.7437 13.8792 95.7726L13.86 95.7755C13.8462 95.7775 13.8344 95.7794 13.8206 95.7814C14.2353 96.7714 14.8172 97.6827 15.541 98.4753C16.2472 102.288 19.2804 102.65 22.525 101.54H22.527C22.883 103.087 23.3988 104.592 24.0661 106.033H29.5642C29.5839 105.972 29.6016 105.909 29.6194 105.847C29.1104 105.879 28.5995 105.849 28.098 105.757C28.5059 105.256 28.9139 104.752 29.3218 104.251C29.3309 104.242 29.3394 104.232 29.3474 104.222C29.5543 103.966 29.7632 103.711 29.9701 103.455L29.9702 103.455C29.9813 102.67 29.8912 101.886 29.7021 101.124L29.7019 101.124Z" fill="#EAECEE"/>
<path d="M144.54 101.124C144.681 101.13 144.822 101.093 144.942 101.017C145.062 100.941 145.155 100.83 145.21 100.699C145.265 100.568 145.278 100.424 145.248 100.285C145.218 100.146 145.146 100.02 145.041 99.9237L144.994 99.7351C145 99.7199 145.006 99.7048 145.013 99.6898C145.156 99.3523 145.395 99.0646 145.701 98.8627C146.007 98.6609 146.365 98.5539 146.732 98.5553C147.098 98.5567 147.456 98.6663 147.761 98.8704C148.065 99.0745 148.302 99.364 148.443 99.7025C149.004 101.054 149.718 102.407 149.894 103.835C149.971 104.467 149.938 105.107 149.797 105.727C151.115 102.853 151.799 99.7294 151.803 96.5677C151.804 95.7743 151.759 94.9816 151.671 94.1931C151.598 93.5467 151.497 92.9049 151.368 92.2677C150.662 88.8105 149.145 85.5701 146.944 82.8126C145.878 82.2311 145.016 81.337 144.474 80.2507C144.278 79.8602 144.139 79.4434 144.062 79.0131C144.183 79.0289 144.516 77.1981 144.425 77.0858C144.593 76.8316 144.892 76.7053 145.075 76.4572C145.985 75.2235 147.239 75.4389 147.893 77.1154C149.292 77.821 149.305 78.9912 148.447 80.1167C147.901 80.8327 147.826 81.8016 147.348 82.5682C147.397 82.6313 147.448 82.6923 147.497 82.7554C148.398 83.9135 149.183 85.157 149.841 86.4681C149.681 84.9993 149.872 83.5134 150.398 82.1327C150.932 80.846 151.931 79.7623 152.812 78.6499C153.869 77.3137 156.038 77.8968 156.224 79.5906C156.226 79.607 156.228 79.6234 156.229 79.6398C156.099 79.7136 155.971 79.7919 155.845 79.8747C155.688 79.9798 155.566 80.13 155.495 80.3056C155.425 80.4812 155.409 80.674 155.45 80.8588C155.491 81.0435 155.587 81.2116 155.725 81.341C155.863 81.4704 156.037 81.555 156.224 81.5839L156.243 81.5868C156.197 82.0581 156.114 82.5252 155.997 82.984C157.126 87.3519 154.688 88.9428 151.206 89.0142C151.129 89.0536 151.054 89.093 150.977 89.1305C151.639 91.004 152.053 92.9555 152.211 94.936C152.3 96.1044 152.295 97.2782 152.195 98.4457L152.201 98.4044C152.454 97.106 153.146 95.9346 154.162 95.0878C155.671 93.8482 157.803 93.3918 159.431 92.3954C159.604 92.2843 159.805 92.225 160.011 92.2245C160.216 92.224 160.418 92.2823 160.591 92.3926C160.765 92.5028 160.903 92.6604 160.99 92.8467C161.077 93.033 161.109 93.2403 161.082 93.4441C161.08 93.4586 161.077 93.4731 161.075 93.4876C160.832 93.5864 160.596 93.7003 160.368 93.8285C160.237 93.9023 160.109 93.9806 159.984 94.0634C159.826 94.1685 159.704 94.3187 159.634 94.4943C159.563 94.6699 159.548 94.8627 159.588 95.0475C159.629 95.2322 159.725 95.4003 159.863 95.5297C160.001 95.6591 160.175 95.7437 160.362 95.7726L160.381 95.7755C160.395 95.7775 160.407 95.7794 160.421 95.7814C160.006 96.7714 159.424 97.6827 158.701 98.4753C157.994 102.288 154.961 102.65 151.717 101.54H151.715C151.359 103.087 150.843 104.592 150.175 106.033H144.677C144.658 105.972 144.64 105.909 144.622 105.847C145.131 105.879 145.642 105.849 146.144 105.757C145.736 105.256 145.328 104.752 144.92 104.251C144.911 104.242 144.902 104.232 144.894 104.222C144.687 103.966 144.478 103.711 144.271 103.455L144.271 103.455C144.26 102.67 144.35 101.886 144.539 101.124L144.54 101.124Z" fill="#EAECEE"/>
<path d="M36.0254 105.91H44.8976C46.415 100.8 44.9057 88.7254 46.9058 83.7901C50.7431 74.3271 55.6453 64.3425 64.795 59.722C68.7017 57.749 72.9613 56.9784 77.3114 57.0204C83.3208 57.0774 89.4991 58.6905 95.1554 60.8284C97.4693 61.7009 99.762 62.6604 102.046 63.6409C110.649 67.3379 119.16 71.3647 128.412 72.4531C140.12 73.8294 153.885 68.5912 157.083 57.3083C159.523 48.6699 155.128 39.7017 150.519 31.9868C145.909 24.2719 140.756 16.0174 141.598 7.08514C141.601 7.05517 141.604 7.02217 141.61 6.99219C141.927 3.78391 143.842 1.47821 146.518 0H134.868C134.714 8.33253 139.535 15.6875 143.873 22.9496C148.482 30.6615 152.878 39.6327 150.437 48.2711C147.239 59.5511 120.761 46.3286 109.053 44.9493C105.746 44.5625 110.998 45.9388 107.846 44.9493C102.902 43.3991 102.353 57.6171 97.5417 55.5302C94.5461 54.2289 91.5474 52.9366 88.5096 51.7882C87.2516 51.3115 85.9665 50.8647 84.6663 50.4509C84.6632 50.4509 84.6632 50.4509 84.6602 50.4479C75.9298 47.6834 66.3818 46.607 58.3151 50.6038C58.2608 50.6308 58.2035 50.6578 58.1492 50.6848C48.9994 55.3023 44.0972 65.287 40.2599 74.7499C37.0893 82.5727 37.588 97.658 36.0254 105.91Z" fill="#EAECEE"/>
<path d="M85.386 105.648C107.891 105.648 126.135 87.4038 126.135 64.8987C126.135 42.3935 107.891 24.1494 85.386 24.1494C62.8808 24.1494 44.6367 42.3935 44.6367 64.8987C44.6367 87.4038 62.8808 105.648 85.386 105.648Z" fill="white"/>
<path d="M85.2697 105.91C44.9524 106.836 44.0684 87.6814 44.0684 64.8985C44.0684 42.1161 62.6035 23.5811 85.3861 23.5811C108.169 23.5811 126.704 42.1162 126.704 64.8985C126.704 87.6814 108.052 105.91 85.2697 105.91ZM85.3861 24.718C63.2302 24.718 45.5784 42.746 45.2052 64.8985C44.8582 85.5031 66.7471 111.215 85.3861 105.08C95.3816 94.0712 123.642 82.2146 125.567 64.8985C128.015 42.8786 107.542 24.718 85.3861 24.718V24.718Z" fill="#4F527D"/>
<path d="M79.8283 86.1068C79.1247 86.1068 78.4306 85.9429 77.8013 85.6281C77.1719 85.3133 76.6245 84.8563 76.2025 84.2933L65.0854 69.4703C64.728 68.9942 64.4679 68.4522 64.3199 67.8755C64.1719 67.2987 64.1391 66.6985 64.2232 66.109C64.3072 65.5196 64.5066 64.9525 64.81 64.4401C65.1133 63.9277 65.5146 63.4802 65.9909 63.1229C66.4673 62.7657 67.0093 62.5058 67.5861 62.3581C68.163 62.2104 68.7632 62.1778 69.3526 62.2622C69.942 62.3466 70.5091 62.5462 71.0213 62.8498C71.5335 63.1533 71.9809 63.5548 72.3379 64.0314L79.6111 73.7281L98.2912 45.7083C98.9583 44.7087 99.9951 44.015 101.174 43.7796C102.352 43.5442 103.576 43.7864 104.576 44.4531C105.576 45.1197 106.27 46.1562 106.506 47.3345C106.742 48.5129 106.5 49.7368 105.834 50.7371L83.6003 84.0882C83.1981 84.6913 82.6571 85.1893 82.0228 85.5402C81.3884 85.8912 80.6792 86.085 79.9545 86.1053C79.9124 86.106 79.8704 86.1068 79.8283 86.1068Z" fill="#EAECEE"/>
<path d="M1.29907e-06 105.941C-0.00011365 105.98 0.00740098 106.018 0.0221107 106.054C0.0368204 106.089 0.0584362 106.122 0.0857142 106.149C0.112992 106.176 0.145392 106.198 0.181054 106.213C0.216715 106.227 0.254937 106.235 0.293512 106.235H176.707C176.784 106.235 176.859 106.204 176.914 106.149C176.969 106.094 177 106.019 177 105.941C177 105.863 176.969 105.789 176.914 105.734C176.859 105.679 176.784 105.648 176.707 105.648H0.293512C0.254937 105.648 0.216719 105.655 0.181057 105.67C0.145396 105.685 0.112996 105.706 0.0857179 105.733C0.0584402 105.761 0.0368246 105.793 0.0221144 105.829C0.00740428 105.864 -0.000112341 105.903 1.29907e-06 105.941Z" fill="#EAECEE"/>
<path d="M111.408 103.064H109.022L107.887 93.8606L111.408 93.8608L111.408 103.064Z" fill="#FFB6B6"/>
<path d="M111.492 105.553L104.154 105.553V105.46C104.154 104.703 104.455 103.976 104.991 103.441C105.526 102.905 106.253 102.604 107.01 102.604H107.01L108.351 101.587L110.851 102.604L111.492 102.604L111.492 105.553Z" fill="#4F527D"/>
<path d="M101.036 91.6579L98.8321 92.5719L94.2578 84.5053L97.5109 83.1565L101.036 91.6579Z" fill="#FFB6B6"/>
<path d="M102.066 93.925L95.2885 96.7356L95.2529 96.6499C94.9628 95.9502 94.9625 95.164 95.2521 94.4641C95.5417 93.7642 96.0974 93.208 96.797 92.9178L96.7972 92.9177L97.6457 91.4651L100.345 91.4465L100.937 91.2012L102.066 93.925Z" fill="#4F527D"/>
<path d="M114.136 50.7097L97.2032 52.4789L94.9381 60.1078L87.0938 72.714C87.0938 72.714 92.5674 81.9267 92.0534 81.8264C91.5395 81.726 92.5668 84.2373 93.2863 84.0915C94.0058 83.9457 94.7541 85.5831 94.2566 85.8743C93.7592 86.1654 95.7549 88.627 95.7549 88.627L98.8051 85.8893C99.4539 80.9955 98.67 76.64 95.8773 73.0393L104.616 63.605L106.273 62.9174L107.589 97.9259L112.454 98.0058C113.796 91.0999 114.471 84.8844 113.421 80.4504C113.421 80.4504 113.572 67.1301 114.148 67.2758C114.723 67.4214 114.235 65.6861 114.235 65.6861C114.235 65.6861 113.731 64.2083 114.35 63.5951C114.97 62.982 114.583 59.3761 114.583 59.3761C115.606 55.9635 115.298 53.1458 114.136 50.7097Z" fill="#4F527D"/>
<path d="M101.117 22.5565L105.798 21.3434L107.983 18.3296L113.173 18.9675L114.277 23.0784L117.972 25.2229C117.972 25.2229 115.93 46.8208 116.416 48.0067C116.901 49.1927 118.643 49.0948 117.155 50.6235C115.668 52.1522 115.471 51.5365 115.816 53.2008C116.161 54.8652 118.677 56.6266 115.816 56.6091C112.955 56.5916 95.6909 56.345 96.1842 54.3719C96.6775 52.3989 96.6697 52.8999 97.4135 51.6629C98.1572 50.4258 98.6578 51.1171 98.4075 49.2917C98.1572 47.4662 98.4039 46.2331 98.4039 45.2466C98.4039 44.26 99.2302 35.2953 99.2302 35.2953L101.117 22.5565Z" fill="#EAECEE"/>
<path d="M110.566 17.7725C113.603 17.7725 116.065 15.3104 116.065 12.2732C116.065 9.23604 113.603 6.77393 110.566 6.77393C107.529 6.77393 105.066 9.23604 105.066 12.2732C105.066 15.3104 107.529 17.7725 110.566 17.7725Z" fill="#FFB6B6"/>
<path d="M104.803 8.94507C105.286 9.33528 105.175 11.233 105.713 10.9237C106.251 10.6144 106.363 10.0605 106.983 10.0546C107.488 10.0825 107.964 10.2982 108.319 10.6592C108.385 10.7188 108.447 10.7813 108.508 10.843C108.564 10.8235 108.619 10.8058 108.677 10.7913C109.111 10.6852 109.57 10.7498 109.958 10.9717C109.6 10.9973 109.258 11.135 108.982 11.3653C109.101 11.4979 109.221 11.6311 109.347 11.7543C110.4 12.7864 112.559 11.6873 114.011 11.4393C112.802 12.7597 113.041 13.4969 113.341 15.2618L113.343 15.3583C113.404 14.9512 114.708 14.9715 114.493 15.5116C114.223 16.0451 113.885 16.5416 113.488 16.9886C115.265 15.7581 116.698 14.0619 117.015 12.0131C117.08 11.5823 117.207 11.1427 117.085 10.7227C117.032 10.5104 116.911 10.3212 116.74 10.1849C116.569 10.0486 116.358 9.97277 116.139 9.96926C116.337 9.34076 116.361 8.67039 116.209 8.02943C116.056 7.38846 115.732 6.80085 115.272 6.32906C114.812 5.85728 114.233 5.51896 113.596 5.35008C112.959 5.18119 112.289 5.18805 111.655 5.36992C111.078 5.57523 110.514 5.81845 109.968 6.09797C109.418 6.37858 108.794 6.48416 108.182 6.40057C107.8 6.32175 107.414 6.12421 107.04 6.23606C106.607 6.36602 106.42 6.82365 106.247 7.26543C106.573 7.3845 106.856 7.59806 107.06 7.87883C106.723 7.75445 106.355 7.73951 106.009 7.83614C106.003 7.83726 105.997 7.83895 105.991 7.84121C105.598 8.54425 105.575 8.71664 104.803 8.94507Z" fill="#4F527D"/>
<path d="M106.617 19.8703C103.8 19.6435 101.228 21.7977 100.055 24.3687C98.8829 26.9398 98.8061 29.8565 98.7492 32.6817L98.5722 41.4639C98.5461 42.7635 98.5199 44.0632 98.4551 45.3615C98.4218 46.6247 98.2629 47.8815 97.9808 49.1133C97.4065 51.3736 96.1432 53.3878 94.8984 55.36C98.0855 56.3234 101.327 57.0974 104.605 57.6782C106.242 52.3827 107.898 46.935 107.496 41.4068C107.283 38.4814 106.496 35.6253 106.197 32.7076C105.773 28.5752 106.335 24.4124 106.895 20.2963" fill="#4F527D"/>
<path d="M113.453 20.3643C116.243 20.8129 118.23 23.5161 118.758 26.2921C119.287 29.0681 118.669 31.9195 118.053 34.6775C117.415 37.5351 116.777 40.3928 116.139 43.2505C115.856 44.5191 115.573 45.7879 115.328 47.0644C115.089 48.3044 116.088 49.8947 116.099 51.1574C116.12 53.4895 115.667 55.4101 116.408 57.6215C113.084 57.8005 109.751 57.7827 106.429 57.5683C106.096 52.0355 105.781 46.3504 107.485 41.0759C108.386 38.2848 109.829 35.6973 110.812 32.934C112.205 29.0204 112.648 24.8433 113.081 20.712" fill="#4F527D"/>
<path d="M115.314 60.2326C115.106 59.8715 115.048 59.4438 115.152 59.0405C115.255 58.6372 115.512 58.2901 115.867 58.0732C115.94 58.0302 116.016 57.9933 116.095 57.963L115.739 45.8495L119.593 44.8685L118.124 58.9813C118.224 59.3186 118.21 59.6797 118.084 60.0083C117.958 60.3368 117.726 60.6144 117.426 60.7976C117.254 60.9002 117.063 60.9679 116.865 60.9968C116.667 61.0258 116.465 61.0154 116.271 60.9663C116.076 60.9172 115.894 60.8303 115.733 60.7107C115.573 60.591 115.437 60.4409 115.335 60.2689C115.327 60.2569 115.32 60.2448 115.314 60.2326Z" fill="#FFB6B6"/>
<path d="M115.031 25.2037C115.031 25.2037 117.721 22.9287 119.985 27.4774C122.248 32.0262 120.983 42.4178 120.665 42.9724C120.346 43.527 120.152 42.7544 120.326 44.2327C120.468 45.4351 119.624 45.2847 119.927 45.5413C120.725 46.2178 118.49 46.2949 119.638 46.891C120.786 47.4871 115.648 47.5987 115.648 47.5987C115.648 47.5987 115.026 47.1549 115.458 45.4812C115.7 44.5412 116.307 44.1973 115.66 43.7624C115.013 43.3274 116.329 41.9826 116.329 41.6875C116.33 41.3925 114.277 34.9389 114.277 34.9389L115.031 25.2037Z" fill="#4F527D"/>
<path d="M92.7717 81.2402C92.068 81.2402 91.374 81.0763 90.7447 80.7615C90.1153 80.4468 89.5679 79.9897 89.1458 79.4267L78.0288 64.6037C77.6714 64.1276 77.4112 63.5856 77.2633 63.0089C77.1153 62.4321 77.0824 61.8319 77.1665 61.2424C77.2506 60.653 77.45 60.0859 77.7533 59.5735C78.0567 59.0612 78.4579 58.6136 78.9343 58.2563C79.4106 57.8991 79.9527 57.6392 80.5295 57.4915C81.1063 57.3438 81.7066 57.3112 82.296 57.3956C82.8854 57.48 83.4524 57.6796 83.9646 57.9832C84.4769 58.2867 84.9243 58.6882 85.2813 59.1648L92.5544 68.8615L111.235 40.8417C111.565 40.3464 111.989 39.921 112.484 39.5898C112.978 39.2586 113.533 39.028 114.117 38.9113C114.701 38.7945 115.302 38.7939 115.886 38.9094C116.47 39.0249 117.025 39.2543 117.521 39.5845C118.016 39.9147 118.441 40.3392 118.772 40.8338C119.104 41.3284 119.334 41.8834 119.451 42.4672C119.568 43.0509 119.568 43.6518 119.453 44.2358C119.337 44.8197 119.108 45.3752 118.778 45.8705L96.5437 79.2216C96.1415 79.8247 95.6005 80.3227 94.9661 80.6736C94.3318 81.0246 93.6226 81.2184 92.8979 81.2387C92.8558 81.2394 92.8138 81.2402 92.7717 81.2402Z" fill="#63A650"/>
<path d="M101.244 58.1285C101.471 57.7794 101.553 57.3556 101.472 56.9472C101.391 56.5388 101.154 56.1781 100.811 55.9418C100.741 55.8949 100.667 55.8538 100.589 55.8192L101.614 43.7438L97.8203 42.5514L98.5077 56.7238C98.3887 57.055 98.3826 57.4164 98.4905 57.7514C98.5984 58.0864 98.8142 58.3764 99.1042 58.5759C99.2702 58.6878 99.4568 58.766 99.6531 58.8058C99.8493 58.8457 100.052 58.8465 100.248 58.8082C100.445 58.7699 100.632 58.6933 100.799 58.5827C100.966 58.4721 101.109 58.3296 101.221 58.1635C101.229 58.152 101.237 58.1403 101.244 58.1285Z" fill="#FFB6B6"/>
<path d="M103.466 23.1934C103.466 23.1934 100.906 20.7733 98.394 25.1899C95.8824 29.6066 96.5711 40.0523 96.8586 40.6236C97.1462 41.195 97.383 40.4344 97.127 41.9008C96.9189 43.0934 97.7698 42.9899 97.4534 43.2294C96.619 43.8608 98.8465 44.0612 97.6674 44.593C96.4882 45.1248 101.612 45.5202 101.612 45.5202C101.612 45.5202 102.257 45.1114 101.919 43.4164C101.729 42.4644 101.142 42.0875 101.812 41.689C102.482 41.2905 101.243 39.875 101.258 39.5803C101.274 39.2857 103.68 32.9554 103.68 32.9554L103.466 23.1934Z" fill="#4F527D"/>
</g>
<defs>
<clipPath id="clip0_635_200825">
<rect width="177" height="106.235" fill="white"/>
</clipPath>
</defs>
</svg>
