<svg width="133" height="115" viewBox="0 0 133 115" fill="none" xmlns="http://www.w3.org/2000/svg">
<g clip-path="url(#clip0_635_200678)">
<path d="M123.141 106.55L126.723 105.418C127.17 103.503 127.14 101.509 126.637 99.6077C125.198 102.795 120.975 103.576 118.569 106.12C117.825 106.919 117.27 107.875 116.947 108.916C116.624 109.958 116.541 111.058 116.703 112.136L115.949 114.683C117.71 114.533 119.417 114.005 120.952 113.135C122.488 112.265 123.816 111.073 124.845 109.643C125.414 108.835 125.879 107.958 126.229 107.035C124.701 106.882 123.141 106.55 123.141 106.55Z" fill="#EAECEE"/>
<path d="M119.314 101.841L122.014 99.2367C121.556 97.3245 120.637 95.5524 119.335 94.0745C119.474 97.5665 116.044 100.141 115.03 103.487C114.721 104.533 114.653 105.634 114.831 106.71C115.008 107.785 115.426 108.808 116.054 109.7L116.52 112.314C118.028 111.398 119.319 110.168 120.304 108.707C121.289 107.246 121.945 105.59 122.225 103.852C122.373 102.876 122.396 101.885 122.295 100.903C120.859 101.446 119.314 101.841 119.314 101.841Z" fill="#EAECEE"/>
<path d="M101.367 7.63343H0.39313C0.288106 7.63121 0.188136 7.58811 0.114647 7.51335C0.0411572 7.4386 0 7.33814 0 7.23352C0 7.1289 0.0411572 7.02845 0.114647 6.95369C0.188136 6.87894 0.288106 6.83583 0.39313 6.83362H101.367C101.472 6.83583 101.572 6.87894 101.645 6.95369C101.719 7.02845 101.76 7.1289 101.76 7.23352C101.76 7.33814 101.719 7.4386 101.645 7.51335C101.572 7.58811 101.472 7.63121 101.367 7.63343Z" fill="#4F527D"/>
<path d="M7.26535 4.79173C8.56501 4.79173 9.61859 3.71906 9.61859 2.39586C9.61859 1.07266 8.56501 0 7.26535 0C5.96569 0 4.91211 1.07266 4.91211 2.39586C4.91211 3.71906 5.96569 4.79173 7.26535 4.79173Z" fill="#4F527D"/>
<path d="M15.3962 4.79173C16.6959 4.79173 17.7495 3.71906 17.7495 2.39586C17.7495 1.07266 16.6959 0 15.3962 0C14.0966 0 13.043 1.07266 13.043 2.39586C13.043 3.71906 14.0966 4.79173 15.3962 4.79173Z" fill="#4F527D"/>
<path d="M23.5251 4.79173C24.8248 4.79173 25.8784 3.71906 25.8784 2.39586C25.8784 1.07266 24.8248 0 23.5251 0C22.2255 0 21.1719 1.07266 21.1719 2.39586C21.1719 3.71906 22.2255 4.79173 23.5251 4.79173Z" fill="#4F527D"/>
<path d="M96.4728 0.593872H90.6981C90.5837 0.596142 90.4747 0.643018 90.3946 0.724436C90.3144 0.805854 90.2695 0.915321 90.2695 1.02933C90.2695 1.14335 90.3144 1.25281 90.3946 1.33423C90.4747 1.41565 90.5837 1.46253 90.6981 1.4648H96.4728C96.5873 1.46253 96.6963 1.41565 96.7765 1.33423C96.8566 1.25281 96.9015 1.14335 96.9015 1.02933C96.9015 0.915321 96.8566 0.805854 96.7765 0.724436C96.6963 0.643018 96.5873 0.596142 96.4728 0.593872Z" fill="#4F527D"/>
<path d="M96.4729 2.22839H90.6982C90.5837 2.23065 90.4747 2.27752 90.3946 2.35894C90.3144 2.44036 90.2695 2.54983 90.2695 2.66386C90.2695 2.77788 90.3144 2.88735 90.3946 2.96877C90.4747 3.05019 90.5837 3.09706 90.6982 3.09932H96.4729C96.5874 3.09706 96.6964 3.05019 96.7765 2.96877C96.8567 2.88735 96.9016 2.77788 96.9016 2.66386C96.9016 2.54983 96.8567 2.44036 96.7765 2.35894C96.6964 2.27752 96.5874 2.23065 96.4729 2.22839Z" fill="#4F527D"/>
<path d="M96.4729 3.86084H90.6982C90.5837 3.8631 90.4747 3.90996 90.3946 3.99138C90.3144 4.0728 90.2695 4.18228 90.2695 4.2963C90.2695 4.41032 90.3144 4.5198 90.3946 4.60122C90.4747 4.68264 90.5837 4.72951 90.6982 4.73176H96.4729C96.5874 4.72951 96.6964 4.68264 96.7765 4.60122C96.8567 4.5198 96.9016 4.41032 96.9016 4.2963C96.9016 4.18228 96.8567 4.0728 96.7765 3.99138C96.6964 3.90996 96.5874 3.8631 96.4729 3.86084Z" fill="#4F527D"/>
<path d="M7.82143 23.8812C9.4282 23.8812 10.7307 22.584 10.7307 20.9837C10.7307 19.3835 9.4282 18.0863 7.82143 18.0863C6.21466 18.0863 4.91211 19.3835 4.91211 20.9837C4.91211 22.584 6.21466 23.8812 7.82143 23.8812Z" fill="#EAECEE"/>
<path d="M81.9076 27.3997H5.77844C5.54868 27.3997 5.32832 27.3088 5.16585 27.147C5.00338 26.9852 4.91211 26.7657 4.91211 26.5369C4.91211 26.308 5.00338 26.0886 5.16585 25.9268C5.32832 25.765 5.54868 25.6741 5.77844 25.6741H81.9076C82.1374 25.6741 82.3577 25.765 82.5202 25.9268C82.6827 26.0886 82.774 26.308 82.774 26.5369C82.774 26.7657 82.6827 26.9852 82.5202 27.147C82.3577 27.3088 82.1374 27.3997 81.9076 27.3997Z" fill="#EAECEE"/>
<path d="M61.9414 30.8091H5.77849C5.54871 30.8091 5.32835 30.7182 5.16587 30.5563C5.00339 30.3945 4.91211 30.1751 4.91211 29.9462C4.91211 29.7174 5.00339 29.4979 5.16587 29.3361C5.32835 29.1743 5.54871 29.0834 5.77849 29.0834H61.9414C62.1712 29.0834 62.3916 29.1743 62.5541 29.3361C62.7165 29.4979 62.8078 29.7174 62.8078 29.9462C62.8078 30.1751 62.7165 30.3945 62.5541 30.5563C62.3916 30.7182 62.1712 30.8091 61.9414 30.8091Z" fill="#EAECEE"/>
<path d="M7.82143 69.1058C9.4282 69.1058 10.7307 67.8086 10.7307 66.2084C10.7307 64.6081 9.4282 63.3109 7.82143 63.3109C6.21466 63.3109 4.91211 64.6081 4.91211 66.2084C4.91211 67.8086 6.21466 69.1058 7.82143 69.1058Z" fill="#EAECEE"/>
<path d="M81.909 72.6243H5.77983C5.66595 72.6245 5.55314 72.6023 5.44787 72.559C5.3426 72.5157 5.24694 72.4522 5.16634 72.3721C5.08575 72.2919 5.02181 72.1968 4.97819 72.092C4.93457 71.9872 4.91211 71.8749 4.91211 71.7615C4.91211 71.6481 4.93457 71.5358 4.97819 71.431C5.02181 71.3262 5.08575 71.231 5.16634 71.1509C5.24694 71.0708 5.3426 71.0072 5.44787 70.964C5.55314 70.9207 5.66595 70.8985 5.77983 70.8987H81.909C82.1504 70.9121 82.378 71.0148 82.5472 71.1868C82.7164 71.3587 82.8149 71.5874 82.8235 71.828C82.8163 71.9403 82.787 72.05 82.7371 72.1509C82.6872 72.2517 82.6177 72.3418 82.5327 72.4158C82.4477 72.4898 82.3488 72.5464 82.2418 72.5821C82.1347 72.6179 82.0217 72.6322 81.909 72.6243Z" fill="#EAECEE"/>
<path d="M61.9414 76.0336H5.77849C5.54871 76.0336 5.32835 75.9426 5.16587 75.7808C5.00339 75.619 4.91211 75.3995 4.91211 75.1707C4.91211 74.9419 5.00339 74.7224 5.16587 74.5606C5.32835 74.3988 5.54871 74.3079 5.77849 74.3079H61.9414C62.1712 74.3079 62.3916 74.3988 62.5541 74.5606C62.7165 74.7224 62.8078 74.9419 62.8078 75.1707C62.8078 75.3995 62.7165 75.619 62.5541 75.7808C62.3916 75.9426 62.1712 76.0336 61.9414 76.0336Z" fill="#EAECEE"/>
<path d="M7.82143 44.7888C9.4282 44.7888 10.7307 43.4916 10.7307 41.8913C10.7307 40.2911 9.4282 38.9939 7.82143 38.9939C6.21466 38.9939 4.91211 40.2911 4.91211 41.8913C4.91211 43.4916 6.21466 44.7888 7.82143 44.7888Z" fill="#EAECEE"/>
<path d="M81.9076 48.3073H5.77844C5.54868 48.3073 5.32832 48.2164 5.16585 48.0546C5.00338 47.8928 4.91211 47.6733 4.91211 47.4445C4.91211 47.2156 5.00338 46.9962 5.16585 46.8344C5.32832 46.6726 5.54868 46.5817 5.77844 46.5817H81.9076C82.1374 46.5817 82.3577 46.6726 82.5202 46.8344C82.6827 46.9962 82.774 47.2156 82.774 47.4445C82.774 47.6733 82.6827 47.8928 82.5202 48.0546C82.3577 48.2164 82.1374 48.3073 81.9076 48.3073Z" fill="#EAECEE"/>
<path d="M71.3061 51.7166H5.77849C5.54871 51.7166 5.32835 51.6257 5.16587 51.4639C5.00339 51.3021 4.91211 51.0827 4.91211 50.8538C4.91211 50.625 5.00339 50.4055 5.16587 50.2437C5.32835 50.0819 5.54871 49.991 5.77849 49.991H71.3061C71.5359 49.991 71.7563 50.0819 71.9188 50.2437C72.0812 50.4055 72.1725 50.625 72.1725 50.8538C72.1725 51.0827 72.0812 51.3021 71.9188 51.4639C71.7563 51.6257 71.5359 51.7166 71.3061 51.7166Z" fill="#EAECEE"/>
<path d="M66.8586 55.1261H5.77849C5.54871 55.1261 5.32835 55.0352 5.16587 54.8734C5.00339 54.7115 4.91211 54.4921 4.91211 54.2632C4.91211 54.0344 5.00339 53.8149 5.16587 53.6531C5.32835 53.4913 5.54871 53.4004 5.77849 53.4004H66.8586C67.0883 53.4004 67.3087 53.4913 67.4712 53.6531C67.6337 53.8149 67.725 54.0344 67.725 54.2632C67.725 54.4921 67.6337 54.7115 67.4712 54.8734C67.3087 55.0352 67.0883 55.1261 66.8586 55.1261Z" fill="#EAECEE"/>
<path d="M68.1231 93.2704C80.0221 93.2704 89.6682 83.6637 89.6682 71.8133C89.6682 59.9629 80.0221 50.3562 68.1231 50.3562C56.2242 50.3562 46.5781 59.9629 46.5781 71.8133C46.5781 83.6637 56.2242 93.2704 68.1231 93.2704Z" fill="#C22E49"/>
<path d="M68.0935 79.2998C69.7933 79.2998 71.1713 77.9274 71.1713 76.2345C71.1713 74.5416 69.7933 73.1692 68.0935 73.1692C66.3936 73.1692 65.0156 74.5416 65.0156 76.2345C65.0156 77.9274 66.3936 79.2998 68.0935 79.2998Z" fill="white" fill-opacity="0.5"/>
<path d="M68.0944 77.6493C68.8789 77.6493 69.5149 77.0159 69.5149 76.2346C69.5149 75.4532 68.8789 74.8198 68.0944 74.8198C67.3098 74.8198 66.6738 75.4532 66.6738 76.2346C66.6738 77.0159 67.3098 77.6493 68.0944 77.6493Z" fill="#C22E49"/>
<path d="M73.8065 83.058H62.439C61.3134 83.0567 60.2342 82.6109 59.4383 81.8182C58.6424 81.0256 58.1947 79.9509 58.1934 78.8299V73.6392C58.1946 72.5182 58.6424 71.4434 59.4383 70.6507C60.2342 69.8581 61.3134 69.4122 62.439 69.4109H73.8065C74.9321 69.4122 76.0113 69.8581 76.8072 70.6508C77.6031 71.4435 78.0508 72.5182 78.0521 73.6392V78.8299C78.0508 79.9509 77.6031 81.0256 76.8071 81.8182C76.0112 82.6108 74.9321 83.0567 73.8065 83.058ZM62.439 69.8536C61.4312 69.8547 60.4651 70.2539 59.7525 70.9636C59.0399 71.6733 58.639 72.6355 58.6379 73.6392V78.8299C58.6391 79.8335 59.0399 80.7957 59.7525 81.5053C60.4651 82.215 61.4312 82.6141 62.439 82.6152H73.8065C74.8143 82.6141 75.7804 82.215 76.493 81.5053C77.2056 80.7957 77.6064 79.8335 77.6075 78.8299V73.6392C77.6064 72.6356 77.2056 71.6733 76.493 70.9637C75.7804 70.254 74.8143 69.8548 73.8065 69.8536L62.439 69.8536Z" fill="white"/>
<path d="M61.7663 80.2402H71.8562C72.3799 80.2402 72.8985 80.1375 73.3823 79.9379C73.8662 79.7383 74.3058 79.4457 74.6761 79.0769C75.0465 78.7081 75.3402 78.2703 75.5406 77.7884C75.7411 77.3065 75.8442 76.7901 75.8442 76.2685V71.9246C75.8434 71.4429 75.7543 70.9654 75.5811 70.5156C76.0734 70.8848 76.4728 71.3628 76.7478 71.9119C77.0229 72.461 77.1661 73.0663 77.1661 73.68V78.0238C77.1661 78.5454 77.063 79.0619 76.8625 79.5437C76.6621 80.0256 76.3684 80.4635 75.998 80.8323C75.6277 81.2011 75.1881 81.4936 74.7042 81.6932C74.2204 81.8928 73.7018 81.9956 73.1781 81.9956H63.0882C62.2796 81.9951 61.4902 81.7497 60.8249 81.292C60.1596 80.8343 59.6499 80.1859 59.3633 79.4328C60.0539 79.9567 60.8982 80.2404 61.7663 80.2402Z" fill="white" fill-opacity="0.5"/>
<path d="M92.6646 112.127L90.1854 112.127L89.0059 102.603L92.6652 102.603L92.6646 112.127Z" fill="#A0616A"/>
<path d="M92.7513 114.703L85.127 114.703V114.607C85.127 113.823 85.4397 113.072 85.9962 112.517C86.5527 111.963 87.3075 111.652 88.0946 111.652H88.0948L89.4874 110.599L92.0859 111.652L92.7515 111.652L92.7513 114.703Z" fill="#4F527D"/>
<path d="M110.207 112.127L112.687 112.127L113.866 102.603L110.207 102.603L110.207 112.127Z" fill="#A0616A"/>
<path d="M110.121 114.703L117.746 114.703V114.607C117.746 113.823 117.433 113.072 116.876 112.517C116.32 111.963 115.565 111.652 114.778 111.652H114.778L113.385 110.599L110.787 111.652L110.121 111.652L110.121 114.703Z" fill="#4F527D"/>
<path d="M88.8973 95.6039C88.934 95.0605 89.2251 92.0549 89.2251 92.0549L89.9225 85.681L91.1516 68.7851L91.2318 67.6791L97.6702 66.4481L102.071 64.3472L107.301 66.0123L111.373 67.5333C111.373 67.5333 111.38 68.1844 111.412 68.9709C111.454 70.0006 111.527 71.2628 111.701 71.591C111.992 72.1709 111.919 75.2841 111.919 75.2841C111.919 75.2841 112.208 81.6181 112.573 82.3126C112.937 83.0071 113.01 84.4535 112.901 84.7434C112.791 85.0334 113.265 92.6401 113.265 92.6401C113.265 92.6401 114.482 106.101 113.718 108.131C112.955 110.161 110.069 108.831 110.069 108.831C110.069 108.831 110.209 108.289 109.372 108.034C108.535 107.779 105.986 88.6917 105.986 88.6917C105.986 88.6917 105.512 84.7781 105.076 83.6565C104.64 82.5349 104.239 79.3835 104.239 79.3835C104.239 79.3835 101.548 74.1676 101.513 73.0078C101.513 73.0078 101.16 71.9226 100.827 73.1172C100.495 74.3118 99.513 77.1732 99.513 77.1732L98.5558 80.6874L97.4296 85.938L96.7008 90.3586C96.7008 90.3586 95.6095 96.2255 95.4351 96.479C95.2608 96.7325 95.4351 102.092 95.4351 102.092C95.4351 102.092 94.5913 106.657 93.3988 107.454C92.2063 108.251 89.0469 107.467 89.0469 107.467C89.0469 107.467 88.8607 96.1474 88.8973 95.6039Z" fill="#4F527D"/>
<path d="M91.6441 52.2695L93.0755 56.5634L91.3094 58.6572L92.0871 59.4543L91.5134 60.5811L90.0176 72.3914L98.2185 75.4889L100.98 72.0406L103.158 75.4889L112.647 73.1797L110.227 58.1191V57.1345L109.544 55.2332V51.2085L111.348 39.2281L105.963 37.3495L103.388 35.3198L102.554 38.1742L99.0067 37.5458L98.9142 35.4013L96.1997 37.9555L93.9139 38.6048L91.1769 39.2281L90.8282 40.0963L91.5254 39.9228L91.4123 51.2174L91.6441 52.2695Z" fill="#4F527D"/>
<path d="M89.1917 67.9801L90.569 54.7026L90.9326 49.2381L87.0774 48.5438C87.0774 48.5438 87.2302 52.4512 86.7252 54.6557C86.2268 56.8312 86.659 67.6886 86.6898 67.979C86.4067 68.2311 86.2071 68.5629 86.1175 68.9305C86.0278 69.298 86.0523 69.684 86.1877 70.0374C86.3231 70.3908 86.5631 70.695 86.8758 70.9096C87.1886 71.1242 87.5594 71.2392 87.9392 71.2394C88.319 71.2396 88.6899 71.1249 89.0029 70.9106C89.3158 70.6963 89.5561 70.3923 89.6918 70.0391C89.8276 69.6858 89.8524 69.2998 89.7631 68.9322C89.6738 68.5645 89.4746 68.2325 89.1917 67.9801Z" fill="#A0616A"/>
<path d="M85.4325 57.4539L86.5047 57.6745L90.1833 58.4332L90.3873 58.4749L90.8214 56.756L91.3253 56.2212L92.2841 51.2172L92.3347 50.9567L93.7835 47.8731L94.7858 38.6047L91.0584 39.2715C91.0392 39.2906 91.0218 39.3114 91.0044 39.3322C90.4691 39.9365 90.0873 40.7768 89.4632 41.6224C87.4321 44.3744 85.8736 51.0609 85.9346 54.7245C85.9364 54.7835 85.8754 54.8478 85.8021 54.9138C85.4565 55.2302 85.231 55.6556 85.1637 56.1184C85.0963 56.5811 85.1913 57.0528 85.4325 57.4539Z" fill="#4F527D"/>
<path d="M113.157 67.9801L111.78 54.7026L111.416 49.2381L115.271 48.5438C115.271 48.5438 115.118 52.4512 115.623 54.6557C116.122 56.8312 115.69 67.6886 115.659 67.979C115.942 68.2311 116.141 68.5629 116.231 68.9305C116.321 69.298 116.296 69.684 116.161 70.0374C116.025 70.3908 115.785 70.6949 115.473 70.9096C115.16 71.1242 114.789 71.2392 114.409 71.2394C114.03 71.2396 113.659 71.1249 113.346 70.9106C113.033 70.6962 112.793 70.3923 112.657 70.0391C112.521 69.6858 112.496 69.2998 112.585 68.9322C112.675 68.5645 112.874 68.2325 113.157 67.9801Z" fill="#A0616A"/>
<path d="M116.917 57.4539L115.845 57.6745L112.167 58.4332L111.963 58.4749L111.528 56.756L111.025 56.2212L110.066 51.2172L110.015 50.9567L108.566 47.8731L108.898 38.6047L111.291 39.2715C111.311 39.2906 111.328 39.3114 111.345 39.3322C111.881 39.9365 112.263 40.7768 112.887 41.6224C114.918 44.3744 116.476 51.0609 116.415 54.7245C116.413 54.7835 116.475 54.8478 116.548 54.9138C116.893 55.2302 117.119 55.6556 117.186 56.1184C117.254 56.5811 117.159 57.0528 116.917 57.4539Z" fill="#4F527D"/>
<path d="M97.162 39.9761L98.9134 35.4013L103.387 35.3197L104.871 39.9761L110.207 69.6611C110.207 69.6611 93.8608 74.1947 94.0266 68.7451C94.201 63.0153 94.9876 55.4043 94.9876 55.4043L97.162 39.9761Z" fill="#9499C7"/>
<path d="M101.051 34.1217C103.962 34.1217 106.321 31.7719 106.321 28.8733C106.321 25.9747 103.962 23.6249 101.051 23.6249C98.1407 23.6249 95.7812 25.9747 95.7812 28.8733C95.7812 31.7719 98.1407 34.1217 101.051 34.1217Z" fill="#A0616A"/>
<path d="M95.4706 25.0659C96.3286 24.1358 97.4017 22.4335 100.652 21.7186C104.669 20.8352 106.566 24.4487 105.554 24.508C108.515 25.4012 106.613 31.5053 105.764 30.9933C105.756 30.9883 105.749 30.9828 105.743 30.977C105.286 30.6421 104.903 30.218 104.616 29.7306C104.33 29.2432 104.146 28.7027 104.076 28.1422L103.915 26.6977C103.892 27.873 102.686 28.0284 101.454 27.5956C101.527 27.3379 101.666 27.1036 101.857 26.9158C102.049 26.728 102.286 26.5932 102.546 26.5246C101.687 27.3001 100.596 27.773 99.4406 27.8703C99.5011 27.576 99.6241 27.2981 99.8015 27.0551C99.9788 26.8121 100.206 26.6097 100.469 26.4615L100.42 26.4139C99.9387 26.8181 99.3863 27.1296 98.7907 27.3326C98.1115 27.5265 97.2976 27.4216 96.8322 26.8921C96.7069 26.746 96.6122 26.5763 96.5538 26.3931C96.6544 27.3239 96.0276 28.3863 95.5407 28.2039C95.1356 28.1255 94.8995 25.685 95.4706 25.0659Z" fill="#4F527D"/>
<path d="M133 114.703C133 114.737 132.993 114.772 132.98 114.804C132.967 114.836 132.947 114.865 132.923 114.889C132.898 114.914 132.869 114.933 132.837 114.946C132.804 114.959 132.77 114.966 132.735 114.966H70.4364C70.3662 114.966 70.299 114.938 70.2494 114.889C70.1997 114.839 70.1719 114.772 70.1719 114.703C70.1719 114.633 70.1997 114.566 70.2494 114.516C70.299 114.467 70.3662 114.439 70.4364 114.439H132.735C132.77 114.439 132.804 114.446 132.837 114.459C132.869 114.472 132.898 114.492 132.923 114.516C132.947 114.541 132.967 114.57 132.98 114.602C132.993 114.634 133 114.668 133 114.703Z" fill="#EAECEE"/>
<path d="M68.2974 60.1791C66.1901 60.1791 64.3378 61.1292 63.2891 62.5553C64.4102 61.7427 65.7638 61.3101 67.1505 61.3213C70.4137 61.3213 73.0685 63.5979 73.0685 66.3961V68.7221H74.2155V65.2538C74.2154 62.4556 71.5606 60.1791 68.2974 60.1791Z" fill="white" fill-opacity="0.5"/>
<path d="M75.0044 69.9125H61.2422V65.8798C61.2422 62.6263 64.3291 59.9792 68.1233 59.9792C71.9176 59.9792 75.0044 62.6263 75.0044 65.8798V69.9125ZM61.6867 69.4698H74.5599V65.8798C74.5599 62.8703 71.6725 60.422 68.1233 60.422C64.5741 60.422 61.6867 62.8703 61.6867 65.8798V69.4698Z" fill="white"/>
<path d="M71.6476 68.373H64.5984C64.2813 68.3727 63.9773 68.247 63.753 68.0237C63.5288 67.8004 63.4027 67.4975 63.4023 67.1817V65.5769C63.4023 63.3393 65.5201 61.5189 68.123 61.5189C70.7259 61.5189 72.8436 63.3393 72.8436 65.5769V67.1817C72.8433 67.4975 72.7172 67.8004 72.493 68.0237C72.2687 68.247 71.9647 68.3727 71.6476 68.373ZM68.123 61.9616C65.7651 61.9616 63.8469 63.5833 63.8469 65.5769V67.1817C63.8471 67.3802 63.9263 67.5704 64.0672 67.7108C64.2081 67.8511 64.3992 67.9301 64.5984 67.9303H71.6476C71.8468 67.9301 72.0379 67.8511 72.1788 67.7108C72.3197 67.5704 72.3989 67.3802 72.3991 67.1817V65.5769C72.3991 63.5833 70.4809 61.9616 68.123 61.9616Z" fill="white"/>
</g>
<defs>
<clipPath id="clip0_635_200678">
<rect width="133" height="114.966" fill="white"/>
</clipPath>
</defs>
</svg>
