<svg width="50" height="80" viewBox="0 0 50 80" fill="none" xmlns="http://www.w3.org/2000/svg">
<rect x="0.75" y="0.75" width="35.2765" height="64.4111" rx="2.25" fill="#F9DC5C" stroke="black" stroke-width="1.5"/>
<circle cx="18.5" cy="60.5" r="2.5" fill="black"/>
<path d="M11 5H27" stroke="black" stroke-linecap="round"/>
<rect x="14.5" y="23.5" width="9" height="9" fill="#F2F2F2" stroke="black"/>
<path fill-rule="evenodd" clip-rule="evenodd" d="M23.747 33.2003V33.9009V34.9009H22.7704L23.747 33.2003ZM23.7278 31.2258L23.0754 30.0898L22.747 30.6617V32.9336L23.7278 31.2258ZM22.1915 33.9009L21.6172 34.9009H20.3125L20.8868 33.9009H22.1915Z" fill="black"/>
<circle cx="12" cy="32" r="5.5" fill="#F2F2F2" stroke="black"/>
<path d="M23.5 32L26.5311 35.75H20.4689L23.5 32Z" fill="#C0D0D9"/>
<path d="M18.902 38L24.5 28.9504L30.098 38H18.902Z" fill="#F2F2F2" stroke="black"/>
<path d="M36.9593 13L46.9186 18.75V30.25L36.9593 36L27 30.25V18.75L36.9593 13Z" fill="#F9DC5C"/>
<path d="M39.9593 14L49.9186 19.75V31.25L39.9593 37L30 31.25V19.75L39.9593 14Z" fill="#F2F2F2"/>
<path d="M32.9531 23.442L36.8382 27.5121L43.0542 21" stroke="#2A2A2A"/>
<mask id="path-12-inside-1" fill="white">
<path d="M36.9593 13L46.9186 18.75V30.25L36.9593 36L27 30.25V18.75L36.9593 13Z"/>
</mask>
<path d="M36.9593 13L37.4593 12.134L36.9593 11.8453L36.4593 12.134L36.9593 13ZM46.9186 18.75H47.9186V18.1726L47.4186 17.884L46.9186 18.75ZM46.9186 30.25L47.4186 31.116L47.9186 30.8274V30.25H46.9186ZM36.9593 36L36.4593 36.866L36.9593 37.1547L37.4593 36.866L36.9593 36ZM27 30.25H26V30.8274L26.5 31.116L27 30.25ZM27 18.75L26.5 17.884L26 18.1726V18.75H27ZM36.4593 13.866L46.4186 19.616L47.4186 17.884L37.4593 12.134L36.4593 13.866ZM45.9186 18.75V30.25H47.9186V18.75H45.9186ZM46.4186 29.384L36.4593 35.134L37.4593 36.866L47.4186 31.116L46.4186 29.384ZM37.4593 35.134L27.5 29.384L26.5 31.116L36.4593 36.866L37.4593 35.134ZM28 30.25V18.75H26V30.25H28ZM27.5 19.616L37.4593 13.866L36.4593 12.134L26.5 17.884L27.5 19.616Z" fill="black" mask="url(#path-12-inside-1)"/>
</svg>
