<svg width="57" height="56" viewBox="0 0 57 56" fill="none" xmlns="http://www.w3.org/2000/svg">
<path d="M35.2002 15.1636C35.2002 23.1239 28.747 29.5771 20.7866 29.5771C12.8262 29.5771 6.37305 23.1239 6.37305 15.1636C6.37305 7.20317 12.8262 0.75 20.7866 0.75C28.747 0.75 35.2002 7.20317 35.2002 15.1636Z" fill="#8FD6FF" stroke="#2A2A2A" stroke-width="1.5"/>
<path d="M0.865148 48.0623C1.56559 44.0137 4.48861 36.1783 11.7513 31.4333C13.6069 32.5117 16.5152 33.7011 19.7421 34.0678C23.1051 34.45 26.8719 33.9419 30.1244 31.4141C36.0929 33.9847 41.9087 40.5658 42.2765 48.0623H0.865148Z" fill="#8FD6FF" stroke="#2A2A2A" stroke-width="1.5"/>
<ellipse cx="48.1265" cy="45.6714" rx="8.50831" ry="8.50831" transform="rotate(-180 48.1265 45.6714)" fill="white"/>
<path d="M56 45C56 49.9706 51.5228 54 46 54C40.4772 54 36 49.9706 36 45C36 40.0294 40.4772 36 46 36C51.5228 36 56 40.0294 56 45Z" fill="#8FD6FF"/>
<ellipse cx="47.8678" cy="45.8502" rx="9.07553" ry="9.07553" transform="rotate(-180 47.8678 45.8502)" fill="white"/>
<mask id="path-6-inside-1" fill="white">
<path d="M55.8091 45.2852C55.8091 50.7563 51.3747 55.1915 45.9045 55.1915C40.4344 55.1915 36 50.7563 36 45.2852C36 39.8141 40.4344 35.3789 45.9045 35.3789C51.3747 35.3789 55.8091 39.8141 55.8091 45.2852Z"/>
</mask>
<path d="M54.8091 45.2852C54.8091 50.2042 50.8222 54.1915 45.9045 54.1915V56.1915C51.9271 56.1915 56.8091 51.3084 56.8091 45.2852H54.8091ZM45.9045 54.1915C40.9869 54.1915 37 50.2042 37 45.2852H35C35 51.3084 39.882 56.1915 45.9045 56.1915V54.1915ZM37 45.2852C37 40.3662 40.9869 36.3789 45.9045 36.3789V34.3789C39.882 34.3789 35 39.262 35 45.2852H37ZM45.9045 36.3789C50.8222 36.3789 54.8091 40.3662 54.8091 45.2852H56.8091C56.8091 39.262 51.9271 34.3789 45.9045 34.3789V36.3789Z" fill="black" mask="url(#path-6-inside-1)"/>
<path fill-rule="evenodd" clip-rule="evenodd" d="M50.3584 36.8324V32.5849C50.3584 30.0527 48.3056 28 45.7734 28C43.2412 28 41.1885 30.0527 41.1885 32.5849V36.8325C40.8357 37.0365 40.5015 37.2634 40.1885 37.5107V32.5849C40.1885 29.5005 42.6889 27 45.7734 27C48.8579 27 51.3584 29.5005 51.3584 32.5849V37.5105C51.0453 37.2632 50.7111 37.0364 50.3584 36.8324Z" fill="black"/>
<rect width="2" height="6" rx="1" transform="matrix(-1 0 0 1 46.9717 40)" fill="black"/>
</svg>
