<svg width="138" height="96" viewBox="0 0 138 96" fill="none" xmlns="http://www.w3.org/2000/svg">
<g clip-path="url(#clip0_635_200723)">
<path d="M115.304 14.7614L104.659 14.8651C104.158 12.4032 102.477 5.94347 103.991 4.18153C104.06 3.51838 104.382 2.90738 104.891 2.47572C105.399 2.04407 106.055 1.82501 106.721 1.86417V1.86417C108.371 -0.717112 111.119 -0.329549 112.977 1.28257C114.846 1.92724 115.551 3.07253 115.304 4.62673C116.689 5.83787 116.944 7.31138 116.323 8.98868L115.304 14.7614Z" fill="#4F527D"/>
<path d="M114.279 21.3155L106.599 20.2527L105.062 18.0089C107.179 16.6062 107.927 14.6469 106.953 11.9863L112.27 11.8682C112.021 14.2375 112.805 16.072 114.988 17.1823L114.279 21.3155Z" fill="#FFB9B9"/>
<path d="M104.783 90.5505L104.49 94.563C104.476 94.7447 104.502 94.927 104.565 95.0979C104.628 95.2688 104.727 95.4242 104.855 95.5538C104.983 95.6833 105.137 95.7841 105.308 95.8492C105.478 95.9143 105.66 95.9422 105.842 95.9312L107.904 95.8064C108 95.8006 108.093 95.7738 108.177 95.728C108.261 95.6822 108.334 95.6184 108.39 95.5413C108.447 95.4641 108.486 95.3754 108.504 95.2816C108.523 95.1877 108.52 95.0909 108.497 94.9981L107.352 90.4221L104.783 90.5505Z" fill="#EAECEE"/>
<path d="M111.459 90.4221L110.314 94.9981C110.291 95.0909 110.289 95.1877 110.307 95.2816C110.326 95.3754 110.364 95.4641 110.421 95.5413C110.478 95.6184 110.551 95.6822 110.635 95.728C110.719 95.7738 110.812 95.8006 110.907 95.8064L112.97 95.9312C113.151 95.9422 113.334 95.9143 113.504 95.8492C113.674 95.7841 113.828 95.6833 113.956 95.5538C114.084 95.4242 114.183 95.2688 114.246 95.0979C114.309 94.927 114.335 94.7446 114.322 94.563L114.028 90.5505L111.459 90.4221Z" fill="#EAECEE"/>
<path d="M114.162 91.1076L111.379 90.8285L108.608 61.2305L107.561 90.7332L104.827 90.6353L100.219 49.7755H117.825L114.162 91.1076Z" fill="#47A4DD"/>
<path d="M109.907 13.8758C112.844 13.8758 115.224 11.4966 115.224 8.56168C115.224 5.62677 112.844 3.24756 109.907 3.24756C106.97 3.24756 104.59 5.62677 104.59 8.56168C104.59 11.4966 106.97 13.8758 109.907 13.8758Z" fill="#FFB9B9"/>
<path d="M120.423 50.7203L98.918 50.9565C102.109 38.814 104.019 27.5346 100.69 19.7804L106.008 17.1824C108.572 19.855 111.427 19.5794 114.515 16.9462L119.596 18.2452C118.726 28.4137 119.116 39.3043 120.423 50.7203Z" fill="#47A4DD"/>
<path d="M93.0098 38.2026L106.362 43.5167L109.347 44.3942C109.481 44.4334 109.621 44.4453 109.759 44.4291C109.897 44.4128 110.031 44.3689 110.152 44.2998C110.272 44.2307 110.378 44.1379 110.462 44.027C110.546 43.916 110.607 43.7893 110.641 43.6544C110.7 43.4177 110.673 43.1678 110.566 42.9489C110.458 42.73 110.276 42.5563 110.053 42.4585L106.953 41.5091L97.6181 36.0769L99.5677 30.9399L95.4912 28.7552L93.0098 38.2026Z" fill="#FFB9B9"/>
<path d="M93.1289 28.5192C95.6693 29.5097 97.6899 31.2001 99.2733 33.479L104.236 26.2754L100.691 19.7804L93.1289 28.5192Z" fill="#47A4DD"/>
<path d="M115.899 7.70032C113.741 7.1446 111.619 7.0683 109.557 7.77319C108.243 8.40916 106.665 8.35056 104.91 7.82656V2.52466L114.383 2.77713L115.899 7.70032Z" fill="#4F527D"/>
<path d="M106.319 32.011C105.901 32.0115 105.501 32.1774 105.206 32.4725C104.911 32.7676 104.745 33.1676 104.744 33.5849L105.366 46.5896C105.366 47.0069 105.532 47.407 105.828 47.7021C106.123 47.9971 106.523 48.1631 106.941 48.1636H114.048C114.465 48.1631 114.866 47.9971 115.161 47.7021C115.456 47.407 115.622 47.0069 115.623 46.5896L116.244 33.5849C116.244 33.1676 116.078 32.7676 115.782 32.4725C115.487 32.1774 115.087 32.0115 114.669 32.011H106.319Z" fill="#4F527D"/>
<path d="M126.482 37.2201L114.844 41.8516L113.966 42.201C113.938 42.2119 113.91 42.2212 113.88 42.2306L110.938 43.0956C110.562 43.2059 110.042 42.6996 109.737 42.3501C109.586 42.1817 109.501 41.9649 109.496 41.7389C109.492 41.513 109.568 41.2929 109.712 41.1185C109.753 41.0717 109.798 41.0285 109.846 40.9896C109.959 40.9014 110.093 40.8427 110.234 40.8188L113.173 40.241C113.279 40.2203 113.38 40.1825 113.473 40.1292L114.844 39.3309L121.96 35.1902C122.158 35.0752 122.308 34.8938 122.385 34.6782C122.461 34.4626 122.459 34.2269 122.378 34.0129L121.02 30.433C120.936 30.2139 120.936 29.9721 121.018 29.7526C121.1 29.5331 121.259 29.3509 121.466 29.2402L123.716 28.0349C123.844 27.9659 123.987 27.927 124.133 27.9211C124.279 27.9152 124.424 27.9424 124.558 28.0007C124.691 28.059 124.81 28.1469 124.905 28.2578C125 28.3686 125.068 28.4995 125.105 28.6407L127.059 36.077C127.119 36.3051 127.093 36.5472 126.987 36.7578C126.881 36.9683 126.701 37.1328 126.482 37.2201V37.2201Z" fill="#FFB9B9"/>
<path d="M127.158 27.2201C124.618 28.2106 122.597 29.901 121.014 32.1799L116.051 24.9763L119.596 18.2451L127.158 27.2201Z" fill="#47A4DD"/>
<path d="M113.445 13.2915C111.119 14.2585 108.68 14.2192 106.141 13.2915C106.88 12.0313 105.776 11.0443 105.209 9.77215L114.689 9.4906C113.964 10.5958 112.894 11.9015 113.445 13.2915Z" fill="white"/>
<path d="M114.589 9.70087L114.479 9.59106L114.634 9.43575L115.562 8.35291L115.68 8.45386L114.748 9.54105L114.589 9.70087Z" fill="white"/>
<path d="M104.56 9.04261L104.461 9.16199L105.393 9.93855L105.493 9.81918L104.56 9.04261Z" fill="white"/>
<path d="M114.857 10.614L113.225 13.1764L113.356 13.2598L114.988 10.6974L114.857 10.614Z" fill="white"/>
<path d="M104.731 10.6137L104.6 10.6971L106.231 13.2598L106.363 13.1764L104.731 10.6137Z" fill="white"/>
<path d="M115.155 39.1112V41.9249L114.175 42.315C114.143 42.3272 114.112 42.3376 114.079 42.348L110.795 43.3136C110.376 43.4367 109.795 42.8715 109.455 42.4814C109.286 42.2935 109.191 42.0514 109.186 41.7992C109.181 41.547 109.266 41.3013 109.427 41.1066C109.472 41.0544 109.522 41.0062 109.576 40.9627C109.703 40.8643 109.852 40.7988 110.01 40.772L113.29 40.1271C113.408 40.104 113.521 40.0619 113.625 40.0023L115.155 39.1112Z" fill="white"/>
<path d="M116.576 29.075H116.014C116.014 21.1368 114.379 15.6048 112.785 15.6048L112.645 15.0436C114.074 15.0436 114.985 17.3459 115.498 19.2775C116.193 21.8959 116.576 25.3754 116.576 29.075Z" fill="#4F527D"/>
<path d="M103.659 27.1106H103.098C103.098 19.8405 104.744 15.3242 107.169 15.3242L107.029 15.8855C105.352 15.8855 103.659 19.3564 103.659 27.1106Z" fill="#4F527D"/>
<path d="M116.295 30.6184C117.07 30.6184 117.699 29.9902 117.699 29.2153C117.699 28.4403 117.07 27.8121 116.295 27.8121C115.519 27.8121 114.891 28.4403 114.891 29.2153C114.891 29.9902 115.519 30.6184 116.295 30.6184Z" fill="#4F527D"/>
<path d="M101.413 30.4781H100.852C100.852 28.4665 101.985 26.83 103.379 26.83V27.3912C102.295 27.3912 101.413 28.776 101.413 30.4781Z" fill="#4F527D"/>
<path d="M105.906 30.4781H105.344C105.344 28.776 104.463 27.3912 103.379 27.3912V26.83C104.772 26.83 105.906 28.4665 105.906 30.4781Z" fill="#4F527D"/>
<path d="M105.624 31.1796C105.934 31.1796 106.186 30.9284 106.186 30.6184C106.186 30.3084 105.934 30.0571 105.624 30.0571C105.314 30.0571 105.062 30.3084 105.062 30.6184C105.062 30.9284 105.314 31.1796 105.624 31.1796Z" fill="#4F527D"/>
<path d="M101.132 31.1796C101.442 31.1796 101.693 30.9284 101.693 30.6184C101.693 30.3084 101.442 30.0571 101.132 30.0571C100.822 30.0571 100.57 30.3084 100.57 30.6184C100.57 30.9284 100.822 31.1796 101.132 31.1796Z" fill="#4F527D"/>
<path d="M33.4539 11.7568L23.5909 13.426C23.3472 13.4676 23.0968 13.4173 22.8881 13.285C22.6794 13.1526 22.5273 12.9476 22.4611 12.7096C21.7485 10.1393 20.2587 6.78616 21.7051 5.1029C21.7788 4.39477 22.123 3.74232 22.6659 3.28138C23.2088 2.82044 23.9087 2.58652 24.6198 2.62833C26.3818 -0.128067 29.3165 0.285789 31.3001 2.00728C33.2963 2.69568 34.0489 3.91867 33.7858 5.57831C34.6481 6.33274 35.1003 7.1825 35.1956 8.11518C35.2408 8.63421 35.1747 9.1569 35.0018 9.64837C34.8288 10.1399 34.553 10.5888 34.1927 10.9653L33.4539 11.7568Z" fill="#4F527D"/>
<path d="M31.9214 19.517L24.2754 19.0675C25.0247 17.3487 25.324 15.6935 25.025 14.123H30.722C30.7091 15.3289 31.3095 17.4147 31.9214 19.517Z" fill="#9F616A"/>
<path d="M22.7176 90.1266L22.404 94.4113C22.3898 94.6053 22.4173 94.8 22.4846 94.9825C22.5519 95.165 22.6574 95.3309 22.7941 95.4693C22.9308 95.6077 23.0956 95.7152 23.2773 95.7847C23.459 95.8542 23.6535 95.8841 23.8478 95.8723L26.0499 95.739C26.1519 95.7329 26.2513 95.7043 26.3411 95.6554C26.4308 95.6064 26.5087 95.5383 26.5691 95.4559C26.6295 95.3736 26.6711 95.2789 26.6908 95.1786C26.7105 95.0784 26.7078 94.975 26.683 94.8759L25.4607 89.9895L22.7176 90.1266Z" fill="#EAECEE"/>
<path d="M29.8467 89.9895L28.6243 94.8759C28.5995 94.975 28.5969 95.0784 28.6166 95.1786C28.6362 95.2789 28.6778 95.3735 28.7382 95.4559C28.7987 95.5383 28.8765 95.6064 28.9662 95.6553C29.056 95.7043 29.1554 95.7329 29.2574 95.739L31.4596 95.8723C31.6538 95.8841 31.8483 95.8542 32.03 95.7847C32.2117 95.7152 32.3765 95.6077 32.5132 95.4693C32.6499 95.3309 32.7555 95.165 32.8227 94.9825C32.89 94.8 32.9175 94.6053 32.9033 94.4113L32.5897 90.1266L29.8467 89.9895Z" fill="#EAECEE"/>
<path d="M32.7307 90.7213L29.7591 90.4233L26.8005 58.8172L25.6823 90.3214L22.7627 90.2169L17.8418 46.5852H36.6423L32.7307 90.7213Z" fill="#47A4DD"/>
<path d="M28.0237 15.9419C31.1596 15.9419 33.7017 13.4013 33.7017 10.2673C33.7017 7.13327 31.1596 4.59265 28.0237 4.59265C24.8878 4.59265 22.3457 7.13327 22.3457 10.2673C22.3457 13.4013 24.8878 15.9419 28.0237 15.9419Z" fill="#9F616A"/>
<path d="M34.422 7.55643C32.1175 7.15532 29.8518 7.10025 27.6492 7.60901C26.2462 8.06804 24.5613 8.02574 22.6875 7.64753V3.8208L32.8035 4.00303L34.422 7.55643Z" fill="#4F527D"/>
<path d="M31.8011 14.8205C29.3172 15.8531 26.7126 15.8112 24.0015 14.8205C24.7904 13.4748 23.6112 12.4208 23.0059 11.0624L33.1287 10.7617C32.3546 11.9418 31.2123 13.3361 31.8011 14.8205Z" fill="white"/>
<path d="M22.3105 10.2874L22.2109 10.4067L23.2066 11.2359L23.3061 11.1166L22.3105 10.2874Z" fill="white"/>
<path d="M33.3132 11.964L31.5703 14.7003L31.7014 14.7837L33.4443 12.0474L33.3132 11.964Z" fill="white"/>
<path d="M22.4905 11.9638L22.3594 12.0472L24.1018 14.7838L24.233 14.7004L22.4905 11.9638Z" fill="white"/>
<path d="M17.2286 36.1485L12.8809 33.4515L16.5887 22.5984C17.0023 21.4785 17.7944 20.5382 18.8281 19.9401L20.0771 19.2174L20.1857 30.1662L17.2286 36.1485Z" fill="#47A4DD"/>
<path d="M36.0217 41.4196L35.3784 35.9134C35.3441 33.007 35.8388 30.1971 37.0185 27.608L37.6182 19.5171L31.0216 16.8201C31.0014 16.9544 30.9842 17.0887 30.9649 17.223L27.8733 18.7679L24.8582 18.0831L24.8748 17.1197L18.878 19.8167C20.8611 29.0312 19.7795 38.5999 16.3691 49.9023L24.2695 52.0613L24.3352 48.27L31.3761 47.7674C31.4486 48.9974 31.5069 50.2056 31.5407 51.387C35.5137 52.8488 35.6501 52.8246 39.27 50.7315C37.8284 47.7025 36.687 44.5504 36.0217 41.4196Z" fill="#47A4DD"/>
<path d="M46.1633 34.7999L42.1154 33.4515L35.6406 25.9183L37.6177 19.5171L46.613 32.103L46.1633 34.7999Z" fill="#47A4DD"/>
<path d="M33.477 40.6319C33.5432 40.9224 33.722 41.1748 33.9741 41.3337C34.2263 41.4927 34.5312 41.5452 34.822 41.4798L38.2581 40.7021L37.7615 38.5101L34.3253 39.2877C34.0345 39.3535 33.7817 39.5322 33.6226 39.7842C33.4635 40.0363 33.4111 40.3412 33.477 40.6319V40.6319Z" fill="#EAECEE"/>
<path d="M36.5684 38.0963L38.5173 41.6923C41.7955 40.7786 44.6365 37.8979 47.3627 34.5004L46.6131 32.103L41.9655 33.3017L36.5684 38.0963Z" fill="#47A4DD"/>
<path d="M11.1562 26.8165L14.8978 27.4842L23.4499 39.637L18.9066 38.5686L11.1562 26.8165Z" fill="#EAECEE"/>
<path d="M10.4931 26.6677C10.4361 26.6686 10.3804 26.6847 10.3317 26.7145C10.2831 26.7442 10.2434 26.7865 10.2167 26.8369C10.19 26.8872 10.1773 26.9438 10.18 27.0008C10.1827 27.0577 10.2007 27.1128 10.232 27.1605L18.226 39.2821C18.2706 39.3498 18.3395 39.3979 18.4185 39.4165L22.1378 40.291C22.2006 40.3058 22.2663 40.3011 22.3263 40.2777C22.3863 40.2543 22.4377 40.2131 22.4738 40.1598C22.5099 40.1065 22.5289 40.0434 22.5283 39.979C22.5277 39.9147 22.5075 39.852 22.4705 39.7993L13.6936 27.3271C13.6698 27.2931 13.6395 27.2642 13.6045 27.2419C13.5695 27.2196 13.5305 27.2044 13.4896 27.1973L10.5531 26.6731C10.5333 26.6696 10.5132 26.6678 10.4931 26.6677Z" fill="#4F527D"/>
<path d="M15.4805 35.3346L15.7026 37.5711L19.2085 37.2233C19.5053 37.1939 19.7782 37.0479 19.9672 36.8173C20.1562 36.5868 20.2459 36.2907 20.2164 35.9941C20.187 35.6975 20.0408 35.4248 19.8102 35.2359C19.5795 35.047 19.2832 34.9574 18.9864 34.9868L15.4805 35.3346Z" fill="#EAECEE"/>
<path d="M12.4316 35.0755C12.4367 35.8381 12.7432 36.5678 13.2843 37.1055C13.8253 37.6433 14.5571 37.9456 15.3202 37.9464H15.8967L16.3164 34.451L12.8414 33.2008L12.4316 35.0755Z" fill="#47A4DD"/>
<path d="M32.8521 11.1484L32.7422 11.0386L32.9082 10.8727L33.8998 9.71606L34.0178 9.81702L33.0221 10.978L32.8521 11.1484Z" fill="white"/>
<path d="M138 95.6895H0V96.0001H138V95.6895Z" fill="#4F527D"/>
<path d="M52.6816 95.534H85.3168V55.9732C85.3168 53.8784 83.2522 52.1742 80.7146 52.1742H57.2839C54.7461 52.1742 52.6816 53.8784 52.6816 55.9732V95.534Z" fill="#EAECEE"/>
<path d="M55.168 93.8981H82.8301V60.3656C82.8301 58.59 81.0801 57.1455 78.9292 57.1455H59.0689C56.9179 57.1455 55.168 58.59 55.168 60.3656V93.8981Z" fill="white"/>
<path d="M52.4356 49.0955C51.629 49.0955 50.9727 49.6372 50.9727 50.3031V53.7889C50.9727 54.4547 51.629 54.9965 52.4356 54.9965H85.5639C86.3705 54.9965 87.0267 54.4547 87.0267 53.7889V50.3031C87.0267 49.6372 86.3705 49.0955 85.5639 49.0955H52.4356Z" fill="#4F527D"/>
<path d="M59.2378 89.5984C58.8591 89.5995 58.4962 89.7503 58.2284 90.018C57.9606 90.2856 57.8097 90.6483 57.8086 91.0268V91.0268C57.8097 91.4052 57.9606 91.7679 58.2284 92.0355C58.4962 92.3032 58.8591 92.454 59.2378 92.4551H61.913V89.5984H59.2378Z" fill="#4F527D"/>
<path d="M64.3675 89.5984H61.7656V92.4551H64.3675C64.7462 92.454 65.1091 92.3032 65.3769 92.0355C65.6447 91.7679 65.7956 91.4052 65.7967 91.0268V91.0268C65.7956 90.6483 65.6447 90.2856 65.3769 90.018C65.1091 89.7503 64.7462 89.5995 64.3675 89.5984V89.5984Z" fill="#63A650"/>
<path opacity="0.2" d="M65.3001 89.9482C65.5255 90.2065 65.6498 90.5376 65.6502 90.8803V90.8803C65.649 91.2588 65.4981 91.6214 65.2303 91.8891C64.9625 92.1567 64.5996 92.3076 64.2209 92.3087H61.7656V92.4552H64.3675C64.7462 92.4541 65.1091 92.3032 65.3769 92.0356C65.6447 91.7679 65.7956 91.4053 65.7967 91.0268C65.7964 90.8219 65.7519 90.6195 65.6662 90.4334C65.5805 90.2473 65.4556 90.0818 65.3001 89.9482V89.9482Z" fill="#4F527D"/>
<path d="M71.3093 68.0833C71.0487 67.8087 70.6899 67.6483 70.3114 67.6371C69.9329 67.6259 69.5653 67.7649 69.2889 68.0237V68.0237C69.0141 68.2842 68.8536 68.6427 68.8424 69.021C68.8312 69.3993 68.9703 69.7667 69.2293 70.0429L71.0643 71.9884L73.1443 70.0288L71.3093 68.0833Z" fill="#4F527D"/>
<path d="M74.8295 71.8146L73.0448 69.9224L70.9648 71.8819L72.7496 73.7741C73.0101 74.0487 73.3689 74.2092 73.7474 74.2203C74.126 74.2315 74.4936 74.0925 74.7699 73.8337V73.8337C75.0447 73.5733 75.2052 73.2147 75.2164 72.8364C75.2276 72.4581 75.0885 72.0907 74.8295 71.8146V71.8146Z" fill="#C22E49"/>
<path opacity="0.2" d="M75.2146 72.7328C75.1811 73.0739 75.0253 73.3914 74.776 73.6267V73.6267C74.4997 73.8855 74.1321 74.0245 73.7536 74.0133C73.375 74.0022 73.0163 73.8417 72.7557 73.5671L71.0715 71.7815L70.9648 71.882L72.7496 73.7742C73.0101 74.0488 73.3689 74.2092 73.7474 74.2204C74.126 74.2316 74.4936 74.0926 74.7699 73.8338C74.9188 73.693 75.0357 73.5218 75.1124 73.3318C75.1891 73.1418 75.224 72.9375 75.2146 72.7328V72.7328Z" fill="#4F527D"/>
<path d="M63.694 72.5875C63.4335 72.3128 63.0747 72.1524 62.6962 72.1412C62.3176 72.1301 61.95 72.2691 61.6737 72.5279V72.5279C61.3989 72.7883 61.2384 73.1468 61.2272 73.5252C61.216 73.9035 61.3551 74.2709 61.6141 74.547L63.4491 76.4925L65.529 74.533L63.694 72.5875Z" fill="#4F527D"/>
<path d="M67.2143 76.3187L65.4296 74.4265L63.3496 76.386L65.1343 78.2782C65.3949 78.5529 65.7536 78.7133 66.1322 78.7245C66.5107 78.7356 66.8783 78.5966 67.1547 78.3378V78.3378C67.4295 78.0774 67.59 77.7189 67.6012 77.3406C67.6124 76.9622 67.4733 76.5949 67.2143 76.3187V76.3187Z" fill="#9499C7"/>
<path opacity="0.2" d="M67.5993 77.2367C67.5659 77.5778 67.4101 77.8953 67.1608 78.1306V78.1306C66.8845 78.3894 66.5169 78.5284 66.1383 78.5172C65.7598 78.5061 65.401 78.3456 65.1405 78.071L63.4563 76.2854L63.3496 76.3859L65.1343 78.2781C65.3949 78.5527 65.7536 78.7132 66.1322 78.7243C66.5107 78.7355 66.8783 78.5965 67.1547 78.3377V78.3377C67.3036 78.1969 67.4204 78.0257 67.4972 77.8357C67.5739 77.6457 67.6087 77.4414 67.5993 77.2367Z" fill="#4F527D"/>
<path d="M71.3093 76.7811C71.0487 76.5065 70.6899 76.346 70.3114 76.3349C69.9329 76.3237 69.5653 76.4627 69.2889 76.7215V76.7215C69.0141 76.9819 68.8536 77.3404 68.8424 77.7188C68.8312 78.0971 68.9703 78.4645 69.2293 78.7406L71.0643 80.6861L73.1443 78.7266L71.3093 76.7811Z" fill="#4F527D"/>
<path d="M74.8295 80.5121L73.0448 78.6199L70.9648 80.5794L72.7496 82.4716C73.0101 82.7462 73.3689 82.9067 73.7474 82.9178C74.126 82.929 74.4936 82.79 74.7699 82.5312V82.5312C75.0447 82.2708 75.2052 81.9123 75.2164 81.5339C75.2276 81.1556 75.0885 80.7882 74.8295 80.5121V80.5121Z" fill="#63A650"/>
<path opacity="0.2" d="M75.2146 81.4303C75.1811 81.7714 75.0253 82.0889 74.776 82.3242C74.4997 82.583 74.1321 82.722 73.7536 82.7108C73.375 82.6997 73.0163 82.5392 72.7557 82.2646L71.0715 80.479L70.9648 80.5795L72.7496 82.4717C73.0101 82.7463 73.3689 82.9068 73.7474 82.9179C74.126 82.9291 74.4936 82.7901 74.7699 82.5313V82.5313C74.9188 82.3905 75.0357 82.2193 75.1124 82.0293C75.1891 81.8393 75.224 81.635 75.2146 81.4303V81.4303Z" fill="#4F527D"/>
<path d="M75.9549 85.7065C76.2266 85.4427 76.3827 85.0823 76.3893 84.7038C76.3959 84.3254 76.2523 83.9598 75.99 83.6868V83.6868C75.7261 83.4153 75.3655 83.2592 74.9868 83.2527C74.6082 83.2461 74.2423 83.3895 73.9691 83.6517L72.0449 85.5091L74.0307 87.5639L75.9549 85.7065Z" fill="#4F527D"/>
<path d="M72.2641 89.2685L74.1356 87.462L72.1498 85.4072L70.2783 87.2137C70.0067 87.4775 69.8505 87.8379 69.844 88.2164C69.8374 88.5948 69.9809 88.9604 70.2432 89.2335V89.2335C70.5071 89.5049 70.8678 89.661 71.2464 89.6676C71.6251 89.6741 71.991 89.5307 72.2641 89.2685V89.2685Z" fill="#63A650"/>
<path opacity="0.2" d="M71.3502 89.6644C71.0085 89.6351 70.689 89.4833 70.4505 89.2371V89.2371C70.1882 88.9641 70.0447 88.5984 70.0512 88.22C70.0578 87.8415 70.214 87.4811 70.4856 87.2173L72.2516 85.5126L72.1498 85.4072L70.2783 87.2137C70.0067 87.4775 69.8505 87.8379 69.844 88.2164C69.8374 88.5948 69.9809 88.9604 70.2432 89.2335V89.2335C70.3859 89.3806 70.5586 89.4953 70.7497 89.5696C70.9407 89.644 71.1455 89.6763 71.3502 89.6644Z" fill="#4F527D"/>
<path d="M65.6991 81.2023C65.9707 80.9386 66.1269 80.5781 66.1334 80.1997C66.14 79.8213 65.9965 79.4556 65.7342 79.1826C65.4703 78.9111 65.1096 78.7551 64.731 78.7485C64.3523 78.7419 63.9864 78.8854 63.7133 79.1475L61.7891 81.0049L63.7749 83.0597L65.6991 81.2023Z" fill="#4F527D"/>
<path d="M62.0083 84.7644L63.8798 82.9578L61.8939 80.9031L60.0225 82.7096C59.7508 82.9733 59.5947 83.3338 59.5881 83.7122C59.5815 84.0907 59.7251 84.4563 59.9874 84.7293V84.7293C60.2513 85.0008 60.6119 85.1568 60.9906 85.1634C61.3692 85.17 61.7351 85.0265 62.0083 84.7644V84.7644Z" fill="#C22E49"/>
<path opacity="0.2" d="M61.0943 85.1603C60.7526 85.131 60.4331 84.9792 60.1946 84.7329C59.9323 84.4599 59.7888 84.0942 59.7954 83.7158C59.802 83.3374 59.9581 82.9769 60.2297 82.7132L61.9958 81.0085L61.8939 80.9031L60.0225 82.7096C59.7508 82.9733 59.5947 83.3338 59.5881 83.7122C59.5815 84.0907 59.7251 84.4563 59.9874 84.7293V84.7293C60.13 84.8764 60.3028 84.9911 60.4938 85.0655C60.6848 85.1399 60.8896 85.1722 61.0943 85.1603V85.1603Z" fill="#4F527D"/>
<path d="M80.3065 75.7663C80.5781 75.5025 80.7343 75.1421 80.7409 74.7637C80.7474 74.3852 80.6039 74.0196 80.3416 73.7466V73.7466C80.0777 73.4751 79.717 73.319 79.3384 73.3125C78.9597 73.3059 78.5939 73.4493 78.3207 73.7115L76.3965 75.5689L78.3823 77.6237L80.3065 75.7663Z" fill="#4F527D"/>
<path d="M76.6157 79.3286L78.4872 77.5221L76.5014 75.4673L74.6299 77.2738C74.3583 77.5375 74.2021 77.898 74.1955 78.2764C74.189 78.6549 74.3325 79.0205 74.5948 79.2935V79.2935C74.8587 79.565 75.2194 79.721 75.598 79.7276C75.9767 79.7342 76.3425 79.5907 76.6157 79.3286Z" fill="#9499C7"/>
<path opacity="0.2" d="M75.7017 79.7245C75.3601 79.6952 75.0405 79.5434 74.8021 79.2971V79.2971C74.5398 79.0241 74.3962 78.6585 74.4028 78.28C74.4094 77.9016 74.5655 77.5411 74.8372 77.2774L76.6032 75.5727L76.5014 75.4673L74.6299 77.2738C74.3583 77.5375 74.2021 77.898 74.1955 78.2764C74.189 78.6549 74.3325 79.0205 74.5948 79.2935V79.2935C74.7375 79.4406 74.9102 79.5553 75.1012 79.6297C75.2922 79.7041 75.4971 79.7364 75.7017 79.7245Z" fill="#4F527D"/>
<path d="M77.0593 87.0316C76.7987 86.7569 76.4399 86.5965 76.0614 86.5853C75.6829 86.5742 75.3153 86.7132 75.0389 86.972V86.972C74.7641 87.2324 74.6036 87.5909 74.5924 87.9693C74.5812 88.3476 74.7203 88.7149 74.9793 88.9911L76.8143 90.9366L78.8943 88.9771L77.0593 87.0316Z" fill="#4F527D"/>
<path d="M80.5795 90.7628L78.7948 88.8706L76.7148 90.8301L78.4996 92.7223C78.7601 92.997 79.1189 93.1574 79.4974 93.1686C79.876 93.1797 80.2436 93.0407 80.5199 92.7819V92.7819C80.7947 92.5215 80.9552 92.163 80.9664 91.7847C80.9776 91.4063 80.8385 91.039 80.5795 90.7628Z" fill="#C22E49"/>
<path opacity="0.2" d="M80.9646 91.6811C80.9311 92.0221 80.7753 92.3396 80.526 92.5749V92.5749C80.2497 92.8337 79.8821 92.9727 79.5036 92.9616C79.125 92.9504 78.7663 92.79 78.5057 92.5153L76.8215 90.7297L76.7148 90.8302L78.4996 92.7224C78.7601 92.9971 79.1189 93.1575 79.4974 93.1687C79.876 93.1798 80.2436 93.0408 80.5199 92.782V92.782C80.6688 92.6412 80.7857 92.47 80.8624 92.28C80.9391 92.09 80.974 91.8857 80.9646 91.6811V91.6811Z" fill="#4F527D"/>
<path d="M66.9577 86.8763C66.6971 86.6017 66.3384 86.4412 65.9598 86.4301C65.5813 86.4189 65.2137 86.5579 64.9374 86.8167V86.8167C64.6626 87.0771 64.502 87.4357 64.4909 87.814C64.4797 88.1923 64.6188 88.5597 64.8777 88.8358L66.7127 90.7813L68.7927 88.8218L66.9577 86.8763Z" fill="#4F527D"/>
<path d="M70.478 90.6075L68.6933 88.7153L66.6133 90.6749L68.398 92.567C68.6586 92.8417 69.0173 93.0021 69.3959 93.0133C69.7744 93.0245 70.142 92.8855 70.4183 92.6267V92.6267C70.6932 92.3662 70.8537 92.0077 70.8649 91.6294C70.876 91.2511 70.737 90.8837 70.478 90.6075V90.6075Z" fill="#9499C7"/>
<path opacity="0.2" d="M70.863 91.5255C70.8295 91.8666 70.6738 92.1841 70.4245 92.4194V92.4194C70.1481 92.6782 69.7805 92.8172 69.402 92.806C69.0234 92.7949 68.6647 92.6344 68.4041 92.3598L66.72 90.5742L66.6133 90.6747L68.398 92.5669C68.6586 92.8415 69.0173 93.002 69.3959 93.0131C69.7744 93.0243 70.142 92.8853 70.4183 92.6265V92.6265C70.5673 92.4857 70.6841 92.3145 70.7608 92.1245C70.8376 91.9345 70.8724 91.7302 70.863 91.5255Z" fill="#4F527D"/>
<path d="M69.802 81.7521C69.8021 82.227 69.638 82.6873 69.3376 83.0552C69.0371 83.423 68.6186 83.6758 68.1531 83.7708C67.881 83.8258 67.6007 83.8258 67.3286 83.7708C66.8631 83.6758 66.4447 83.4229 66.1443 83.0551C65.8438 82.6872 65.6797 82.2269 65.6797 81.7521C65.6797 81.2772 65.8438 80.8169 66.1443 80.4491C66.4447 80.0812 66.8631 79.8284 67.3286 79.7333C67.6007 79.6784 67.881 79.6784 68.1531 79.7333C68.6186 79.8283 69.0371 80.0811 69.3376 80.449C69.638 80.8169 69.8021 81.2772 69.802 81.7521V81.7521Z" fill="#47A4DD"/>
<path opacity="0.2" d="M68.1526 79.7333V83.7708C67.8805 83.8258 67.6002 83.8258 67.3281 83.7708V79.7333C67.6002 79.6784 67.8805 79.6784 68.1526 79.7333Z" fill="#4F527D"/>
<path d="M70.7337 73.5204C70.7338 73.9953 70.5697 74.4556 70.2692 74.8235C69.9687 75.1913 69.5503 75.4442 69.0847 75.5391C68.8127 75.5941 68.5323 75.5941 68.2603 75.5391C67.7947 75.4441 67.3764 75.1912 67.0759 74.8234C66.7754 74.4555 66.6113 73.9952 66.6113 73.5204C66.6113 73.0455 66.7754 72.5853 67.0759 72.2174C67.3764 71.8495 67.7947 71.5967 68.2603 71.5016C68.5323 71.4467 68.8127 71.4467 69.0847 71.5016C69.5503 71.5966 69.9687 71.8494 70.2692 72.2173C70.5697 72.5852 70.7338 73.0455 70.7337 73.5204V73.5204Z" fill="#47A4DD"/>
<path opacity="0.2" d="M69.0842 71.5016V75.5391C68.8122 75.5941 68.5318 75.5941 68.2598 75.5391V71.5016C68.5318 71.4467 68.8122 71.4467 69.0842 71.5016Z" fill="#4F527D"/>
<path d="M70.7337 85.3243C70.7338 85.7992 70.5697 86.2596 70.2692 86.6274C69.9687 86.9953 69.5503 87.2481 69.0847 87.3431C68.8127 87.398 68.5323 87.398 68.2603 87.3431C67.7947 87.248 67.3764 86.9952 67.0759 86.6273C66.7754 86.2595 66.6113 85.7992 66.6113 85.3243C66.6113 84.8495 66.7754 84.3892 67.0759 84.0214C67.3764 83.6535 67.7947 83.4007 68.2603 83.3056C68.5323 83.2507 68.8127 83.2507 69.0847 83.3056C69.5503 83.4006 69.9687 83.6534 70.2692 84.0213C70.5697 84.3891 70.7338 84.8495 70.7337 85.3243V85.3243Z" fill="#47A4DD"/>
<path opacity="0.2" d="M69.0842 83.3056V87.3431C68.8122 87.398 68.5318 87.398 68.2598 87.3431V83.3056C68.5318 83.2507 68.8122 83.2507 69.0842 83.3056Z" fill="#4F527D"/>
<path d="M75.8626 91.0709C75.8627 91.5458 75.6986 92.0061 75.3981 92.374C75.0976 92.7419 74.6792 92.9947 74.2136 93.0897C73.9416 93.1446 73.6612 93.1446 73.3892 93.0897C72.9237 92.9946 72.5053 92.7418 72.2048 92.3739C71.9043 92.0061 71.7402 91.5458 71.7402 91.0709C71.7402 90.5961 71.9043 90.1358 72.2048 89.7679C72.5053 89.4001 72.9237 89.1472 73.3892 89.0522C73.6612 88.9973 73.9416 88.9973 74.2136 89.0522C74.6792 89.1472 75.0976 89.4 75.3981 89.7679C75.6986 90.1357 75.8627 90.596 75.8626 91.0709V91.0709Z" fill="#47A4DD"/>
<path opacity="0.2" d="M74.2131 89.0522V93.0897C73.9411 93.1446 73.6607 93.1446 73.3887 93.0897V89.0522C73.6607 88.9973 73.9411 88.9973 74.2131 89.0522Z" fill="#4F527D"/>
<path d="M80.3921 80.4977C80.7343 80.8272 80.9521 81.2647 81.0086 81.7363C81.0651 82.2078 80.9568 82.6843 80.7022 83.0852C80.5529 83.3191 80.3584 83.5208 80.13 83.6785C79.7385 83.9475 79.266 84.0731 78.7924 84.034C78.3189 83.9949 77.8734 83.7936 77.5313 83.4641C77.1892 83.1345 76.9715 82.697 76.915 82.2255C76.8585 81.754 76.9667 81.2775 77.2213 80.8766C77.3705 80.6427 77.5651 80.441 77.7934 80.2833C78.185 80.0142 78.6575 79.8886 79.131 79.9276C79.6046 79.9667 80.0501 80.1681 80.3921 80.4977V80.4977Z" fill="#47A4DD"/>
<path opacity="0.2" d="M77.7948 80.2834L80.7035 83.0854C80.5543 83.3193 80.3598 83.521 80.1314 83.6786L77.2227 80.8767C77.3719 80.6428 77.5664 80.4411 77.7948 80.2834V80.2834Z" fill="#4F527D"/>
<path d="M81.0152 85.0019C81.3574 85.3314 81.5751 85.7689 81.6316 86.2404C81.6881 86.7119 81.5799 87.1885 81.3252 87.5894C81.176 87.8233 80.9814 88.025 80.7531 88.1826C80.3615 88.4516 79.889 88.5772 79.4155 88.5381C78.942 88.4991 78.4965 88.2977 78.1544 87.9682C77.8123 87.6387 77.5946 87.2012 77.5381 86.7297C77.4816 86.2582 77.5898 85.7817 77.8443 85.3807C77.9936 85.1468 78.1881 84.9451 78.4165 84.7875C78.808 84.5184 79.2805 84.3927 79.7541 84.4318C80.2276 84.4709 80.6731 84.6723 81.0152 85.0019V85.0019Z" fill="#47A4DD"/>
<path opacity="0.2" d="M78.4159 84.7874L81.3246 87.5893C81.1754 87.8232 80.9809 88.0249 80.7525 88.1825L77.8438 85.3806C77.993 85.1467 78.1875 84.945 78.4159 84.7874V84.7874Z" fill="#4F527D"/>
<path d="M62.521 86.0891C62.8632 86.4185 63.081 86.8561 63.1375 87.3276C63.194 87.7991 63.0857 88.2756 62.8311 88.6765C62.6818 88.9104 62.4873 89.1121 62.2589 89.2698C61.8674 89.5388 61.3949 89.6644 60.9213 89.6253C60.4478 89.5862 60.0023 89.3849 59.6602 89.0554C59.3181 88.7258 59.1004 88.2883 59.0439 87.8168C58.9874 87.3453 59.0956 86.8688 59.3502 86.4679C59.4994 86.234 59.694 86.0323 59.9224 85.8746C60.3139 85.6055 60.7864 85.4799 61.2599 85.519C61.7335 85.558 62.179 85.7594 62.521 86.0891V86.0891Z" fill="#47A4DD"/>
<path opacity="0.2" d="M59.9218 85.8745L62.8305 88.6764C62.6813 88.9103 62.4867 89.112 62.2583 89.2697L59.3496 86.4678C59.4989 86.2339 59.6934 86.0322 59.9218 85.8745V85.8745Z" fill="#4F527D"/>
<path opacity="0.2" d="M55.8688 49.0955H55.0918V54.842H55.8688V49.0955Z" fill="#4F527D"/>
<path opacity="0.2" d="M60.3747 49.0955H59.5977V54.842H60.3747V49.0955Z" fill="#4F527D"/>
<path opacity="0.2" d="M64.8825 49.0955H64.1055V54.842H64.8825V49.0955Z" fill="#4F527D"/>
<path opacity="0.2" d="M69.3884 49.0955H68.6113V54.842H69.3884V49.0955Z" fill="#4F527D"/>
<path opacity="0.2" d="M73.8962 49.0955H73.1191V54.842H73.8962V49.0955Z" fill="#4F527D"/>
<path opacity="0.2" d="M78.402 49.0955H77.625V54.842H78.402V49.0955Z" fill="#4F527D"/>
<path opacity="0.2" d="M82.9079 49.0955H82.1309V54.842H82.9079V49.0955Z" fill="#4F527D"/>
</g>
<defs>
<clipPath id="clip0_635_200723">
<rect width="138" height="96" fill="white"/>
</clipPath>
</defs>
</svg>
