<svg width="120" height="120" viewBox="0 0 120 120" fill="none" xmlns="http://www.w3.org/2000/svg">
<rect x="32.75" y="45.75" width="54.5" height="33.5" fill="#FF9D94" stroke="#2A2A2A" stroke-width="1.5"/>
<rect x="32.75" y="45.75" width="54.5" height="24.5" fill="#FF9D94" stroke="#2A2A2A" stroke-width="1.5"/>
<path d="M50 45.5V36.5H69.5V45.5" stroke="#2A2A2A" stroke-width="1.5"/>
<path d="M64 60.5988H64.5V60.0988V58.874V58.374H64H60.671V55V54.5H60.171H58.8102H58.3102V55V58.374H55H54.5V58.874V60.0988V60.5988H55H58.3102V64V64.5H58.8102H60.171H60.671V64V60.5988H64Z" stroke="#2A2A2A"/>
<path d="M114.25 59.5C114.25 89.1789 89.9679 113.25 60 113.25C30.0321 113.25 5.75 89.1789 5.75 59.5C5.75 29.8211 30.0321 5.75 60 5.75C89.9679 5.75 114.25 29.8211 114.25 59.5Z" stroke="#2A2A2A" stroke-width="1.5"/>
<path d="M99 22L22 98" stroke="#2A2A2A" stroke-width="1.5"/>
</svg>
