<svg width="120" height="120" viewBox="0 0 120 120" fill="none" xmlns="http://www.w3.org/2000/svg">
<rect x="40.75" y="28.75" width="35.2765" height="64.4111" rx="2.25" fill="#F9DC5C" stroke="black" stroke-width="1.5"/>
<circle cx="58.5" cy="88.5" r="2.5" fill="black"/>
<path d="M51 33H67" stroke="black" stroke-linecap="round"/>
<rect x="54.5" y="51.5" width="9" height="9" fill="#F2F2F2" stroke="black"/>
<path fill-rule="evenodd" clip-rule="evenodd" d="M63.7475 61.2003V61.9009V62.9009H62.7709L63.7475 61.2003ZM63.7283 59.2258L63.0759 58.0898L62.7475 58.6617V60.9336L63.7283 59.2258ZM62.192 61.9009L61.6177 62.9009H60.313L60.8873 61.9009H62.192Z" fill="black"/>
<circle cx="52" cy="60" r="5.5" fill="#F2F2F2" stroke="black"/>
<path d="M63.5 60L66.5311 63.75H60.4689L63.5 60Z" fill="#C0D0D9"/>
<path d="M58.902 66L64.5 56.9504L70.098 66H58.902Z" fill="#F2F2F2" stroke="black"/>
<path d="M76.9593 41L86.9186 46.75V58.25L76.9593 64L67 58.25V46.75L76.9593 41Z" fill="#F9DC5C"/>
<path d="M79.9593 42L89.9186 47.75V59.25L79.9593 65L70 59.25V47.75L79.9593 42Z" fill="#F2F2F2"/>
<path d="M72.9531 51.442L76.8382 55.5121L83.0542 49" stroke="#2A2A2A"/>
<mask id="path-12-inside-1" fill="white">
<path d="M76.9593 41L86.9186 46.75V58.25L76.9593 64L67 58.25V46.75L76.9593 41Z"/>
</mask>
<path d="M76.9593 41L77.4593 40.134L76.9593 39.8453L76.4593 40.134L76.9593 41ZM86.9186 46.75H87.9186V46.1726L87.4186 45.884L86.9186 46.75ZM86.9186 58.25L87.4186 59.116L87.9186 58.8274V58.25H86.9186ZM76.9593 64L76.4593 64.866L76.9593 65.1547L77.4593 64.866L76.9593 64ZM67 58.25H66V58.8274L66.5 59.116L67 58.25ZM67 46.75L66.5 45.884L66 46.1726V46.75H67ZM76.4593 41.866L86.4186 47.616L87.4186 45.884L77.4593 40.134L76.4593 41.866ZM85.9186 46.75V58.25H87.9186V46.75H85.9186ZM86.4186 57.384L76.4593 63.134L77.4593 64.866L87.4186 59.116L86.4186 57.384ZM77.4593 63.134L67.5 57.384L66.5 59.116L76.4593 64.866L77.4593 63.134ZM68 58.25V46.75H66V58.25H68ZM67.5 47.616L77.4593 41.866L76.4593 40.134L66.5 45.884L67.5 47.616Z" fill="black" mask="url(#path-12-inside-1)"/>
</svg>
