<svg width="120" height="120" viewBox="0 0 120 120" fill="none" xmlns="http://www.w3.org/2000/svg">
<path d="M67.1997 47.1636C67.1997 55.1239 60.7465 61.5771 52.7861 61.5771C44.8257 61.5771 38.3726 55.1239 38.3726 47.1636C38.3726 39.2032 44.8257 32.75 52.7861 32.75C60.7465 32.75 67.1997 39.2032 67.1997 47.1636Z" fill="#8FD6FF" stroke="#2A2A2A" stroke-width="1.5"/>
<path d="M32.8651 80.0618C33.5656 76.0132 36.4886 68.1778 43.7513 63.4328C45.6069 64.5112 48.5152 65.7006 51.7421 66.0673C55.1051 66.4495 58.8719 65.9414 62.1244 63.4136C68.0929 65.9842 73.9087 72.5653 74.2765 80.0618H32.8651Z" fill="#8FD6FF" stroke="#2A2A2A" stroke-width="1.5"/>
<ellipse cx="80.1265" cy="77.6723" rx="8.50831" ry="8.50831" transform="rotate(-180 80.1265 77.6723)" fill="white"/>
<path d="M88 77.001C88 81.9715 83.5228 86.001 78 86.001C72.4772 86.001 68 81.9715 68 77.001C68 72.0304 72.4772 68.001 78 68.001C83.5228 68.001 88 72.0304 88 77.001Z" fill="#8FD6FF"/>
<ellipse cx="79.8678" cy="77.8493" rx="9.07553" ry="9.07553" transform="rotate(-180 79.8678 77.8493)" fill="white"/>
<mask id="path-6-inside-1" fill="white">
<path d="M87.8091 77.2837C87.8091 82.7548 83.3747 87.19 77.9045 87.19C72.4344 87.19 68 82.7548 68 77.2837C68 71.8126 72.4344 67.3774 77.9045 67.3774C83.3747 67.3774 87.8091 71.8126 87.8091 77.2837Z"/>
</mask>
<path d="M86.8091 77.2837C86.8091 82.2027 82.8222 86.19 77.9045 86.19V88.19C83.9271 88.19 88.8091 83.3069 88.8091 77.2837H86.8091ZM77.9045 86.19C72.9869 86.19 69 82.2027 69 77.2837H67C67 83.3069 71.882 88.19 77.9045 88.19V86.19ZM69 77.2837C69 72.3648 72.9869 68.3774 77.9045 68.3774V66.3774C71.882 66.3774 67 71.2605 67 77.2837H69ZM77.9045 68.3774C82.8222 68.3774 86.8091 72.3648 86.8091 77.2837H88.8091C88.8091 71.2605 83.9271 66.3774 77.9045 66.3774V68.3774Z" fill="black" mask="url(#path-6-inside-1)"/>
<path fill-rule="evenodd" clip-rule="evenodd" d="M82.3584 68.8324V64.5849C82.3584 62.0527 80.3056 60 77.7734 60C75.2412 60 73.1885 62.0527 73.1885 64.5849V68.8325C72.8357 69.0365 72.5015 69.2634 72.1885 69.5107V64.5849C72.1885 61.5005 74.6889 59 77.7734 59C80.8579 59 83.3584 61.5005 83.3584 64.5849V69.5105C83.0453 69.2632 82.7111 69.0364 82.3584 68.8324Z" fill="black"/>
<rect width="2" height="6" rx="1" transform="matrix(-1 0 0 1 78.9717 72)" fill="black"/>
</svg>
