<svg width="23" height="21" viewBox="0 0 23 21" fill="none" xmlns="http://www.w3.org/2000/svg">
<path d="M22.7954 18.7044L12.7054 0.732871C12.4546 0.280216 11.993 0 11.5013 0C11.0096 0 10.548 0.280216 10.2921 0.732871L0.202116 18.7044C-0.0587882 19.1732 -0.068823 19.7552 0.182046 20.2294C0.432915 20.7036 0.899531 21 1.4113 21H21.5912C22.098 21 22.5696 20.7036 22.8205 20.2294C23.0663 19.7552 23.0613 19.1732 22.7954 18.7044Z" fill="#EE6070"/>
<path d="M12.5507 16.3351C12.5507 16.9333 12.0791 17.456 11.5221 17.456C10.9251 17.456 10.4785 16.9333 10.4785 16.3351C10.4785 15.7262 10.9251 15.2143 11.5221 15.2143C12.0791 15.2143 12.5507 15.7208 12.5507 16.3351ZM12.2948 13.5761C12.2948 14.0287 11.8332 14.2173 11.5121 14.2173C11.0806 14.2173 10.7143 14.0287 10.7143 13.5761C10.7143 11.8463 10.5237 9.36207 10.5237 7.63766C10.5237 7.07184 10.9552 6.75391 11.5121 6.75391C12.0389 6.75391 12.4855 7.07184 12.4855 7.63766C12.4855 9.36207 12.2948 11.8463 12.2948 13.5761Z" fill="white"/>
</svg>
