<svg width="20" height="20" viewBox="0 0 20 20" fill="none" xmlns="http://www.w3.org/2000/svg">
<path d="M19.3673 9.09292C19.6822 8.83998 19.8192 8.42042 19.6775 8.04219C19.5259 7.63754 19.3422 7.23955 19.1225 6.84741C18.9343 6.51155 18.5526 6.34184 18.1711 6.39335L17.1892 6.5259C16.8521 6.5714 16.5187 6.43877 16.2788 6.19765C16.1254 6.04351 15.9655 5.89686 15.7995 5.75792C15.5258 5.52878 15.3634 5.18684 15.3965 4.83142L15.4752 3.98636C15.5124 3.58758 15.31 3.20059 14.9453 3.03494C14.5209 2.84213 14.0818 2.68049 13.6319 2.55146C13.2634 2.44576 12.8739 2.59007 12.6374 2.89178L12.0564 3.63288C11.846 3.90126 11.5134 4.03903 11.1725 4.03102C10.936 4.02546 10.6983 4.03098 10.4604 4.04792C10.121 4.07208 9.7828 3.95121 9.55964 3.69435L8.93793 2.97876C8.68702 2.68996 8.29179 2.56523 7.92947 2.68802C7.49425 2.83551 7.06644 3.01568 6.64514 3.23278C6.28804 3.4168 6.10476 3.81497 6.16281 4.21248L6.28496 5.04907C6.33664 5.40299 6.1915 5.75354 5.92927 5.99678C5.77095 6.14364 5.62029 6.29673 5.47754 6.45547C5.24944 6.70911 4.92192 6.85863 4.58206 6.82935L3.59672 6.74445C3.21243 6.71135 2.83879 6.90004 2.66812 7.24594C2.47371 7.63997 2.30956 8.04741 2.17701 8.46458C2.05494 8.84879 2.21247 9.25999 2.53888 9.49658L3.26442 10.0225C3.55364 10.2321 3.70317 10.5801 3.69679 10.9372C3.69334 11.1302 3.69819 11.3239 3.71157 11.5178C3.7362 11.8751 3.6042 12.2312 3.32499 12.4555L2.63266 13.0116C2.31777 13.2646 2.18084 13.6841 2.32253 14.0624C2.47412 14.467 2.65777 14.865 2.8775 15.2572C3.0657 15.593 3.44739 15.7627 3.82891 15.7112L4.81078 15.5787C5.14785 15.5332 5.48134 15.6658 5.72123 15.9069C5.87458 16.0611 6.03454 16.2077 6.20049 16.3466C6.47419 16.5758 6.63663 16.9177 6.60351 17.2731L6.52474 18.1184C6.48759 18.5171 6.68988 18.904 7.05441 19.0696C7.47881 19.2624 7.9181 19.4241 8.36805 19.5531C8.73657 19.6588 9.1261 19.5145 9.36262 19.2128L9.94362 18.4717C10.154 18.2033 10.4866 18.0655 10.8275 18.0735C11.064 18.0791 11.3017 18.0736 11.5396 18.0566C11.879 18.0325 12.2172 18.1534 12.4404 18.4102L13.0621 19.1258C13.313 19.4146 13.7082 19.5393 14.0705 19.4165C14.5058 19.2691 14.9336 19.0889 15.3549 18.8718C15.712 18.6878 15.8952 18.2896 15.8372 17.8921L15.715 17.0555C15.6634 16.7016 15.8085 16.351 16.0707 16.1078C16.2291 15.9609 16.3797 15.8078 16.5225 15.6491C16.7506 15.3955 17.0781 15.2459 17.4179 15.2752L18.4033 15.3601C18.7876 15.3932 19.1612 15.2045 19.3319 14.8586C19.5263 14.4646 19.6904 14.0572 19.823 13.64C19.9451 13.2558 19.7875 12.8446 19.4611 12.608L18.7356 12.0821C18.4464 11.8725 18.2968 11.5245 18.3032 11.1673C18.3067 10.9744 18.3018 10.7807 18.2884 10.5868C18.2638 10.2295 18.3958 9.87332 18.675 9.64904L19.3673 9.09292ZM12.6037 14.5267C10.608 15.3782 8.27211 14.5132 7.38598 12.5943C6.50044 10.6753 7.40006 8.42932 9.39576 7.57727C11.3915 6.72522 13.7273 7.5908 14.6134 9.50974C15.4996 11.4287 14.5994 13.6747 12.6037 14.5267Z" fill="#EBEBEB"/>
<path d="M6.83992 11.3846C7.60772 13.0473 9.64941 13.8169 11.4073 13.0669L6.83992 11.3846ZM6.83992 11.3846C6.07793 9.73327 6.84359 7.78362 8.59208 7.03711M6.83992 11.3846L8.59208 7.03711M8.59208 7.03711C10.3498 6.28665 12.3916 7.05653 13.1595 8.71936M8.59208 7.03711L13.1595 8.71936M13.1595 8.71936C13.922 10.3705 13.156 12.3202 11.4074 13.0668L13.1595 8.71936ZM2.01187 11.0657L2.32499 11.4555L2.01187 11.0657L1.31954 11.6218C0.854242 11.9956 0.629151 12.6367 0.85431 13.2378L1.32253 13.0624L0.854311 13.2378C1.01472 13.666 1.20904 14.0871 1.44132 14.5016C1.73958 15.0339 2.33153 15.2829 2.89581 15.2067L3.87768 15.0742C4.03965 15.0523 4.22216 15.1142 4.36678 15.2596C4.5309 15.4245 4.70204 15.5814 4.87952 15.73C5.04437 15.868 5.12157 16.056 5.10567 16.2267L5.0269 17.072C4.97192 17.662 5.27067 18.2627 5.84758 18.5248C6.29446 18.7279 6.75682 18.898 7.23023 19.0338C7.81221 19.2006 8.40588 18.968 8.75612 18.5213L9.33711 17.7802C9.43842 17.6509 9.61249 17.5686 9.81579 17.5734C10.0679 17.5793 10.3213 17.5735 10.5751 17.5554C10.7779 17.5409 10.9555 17.6145 11.0629 17.7381L11.6846 18.4537C12.0561 18.8813 12.659 19.084 13.231 18.8901C13.6893 18.7348 14.14 18.545 14.5839 18.3162C15.1487 18.0252 15.4178 17.4081 15.3319 16.8198L15.2098 15.9833C15.185 15.8133 15.2526 15.6211 15.4108 15.4744C15.5802 15.3172 15.7414 15.1534 15.8942 14.9834C16.0319 14.8304 16.2117 14.7593 16.375 14.7734L17.3604 14.8583C17.9286 14.9072 18.5094 14.6288 18.7803 14.0799C18.9858 13.6633 19.1593 13.2326 19.2995 12.7914C19.4936 12.1806 19.2369 11.5528 18.7546 11.2031L18.029 10.6773C17.8904 10.5768 17.7992 10.3941 17.8031 10.1763C17.8068 9.96897 17.8016 9.76083 17.7872 9.55236C17.7722 9.33407 17.8544 9.14629 17.9881 9.03886L18.6805 8.48273C19.1458 8.10898 19.3708 7.46783 19.1457 6.86678C18.9853 6.43859 18.791 6.01751 18.5587 5.60299C18.2604 5.0707 17.6685 4.82167 17.1042 4.89784L16.1223 5.03039C15.9604 5.05226 15.7778 4.99035 15.6332 4.845C15.4691 4.68003 15.298 4.52314 15.1205 4.37455C14.9556 4.23653 14.8784 4.04853 14.8943 3.87782L14.9731 3.03275C15.0281 2.44263 14.7291 1.84182 14.1521 1.57971C13.7053 1.37671 13.2431 1.2066 12.7698 1.07084C12.1878 0.903906 11.5941 1.13654 11.2439 1.58329L10.6629 2.3244C10.5616 2.45362 10.3875 2.53594 10.1842 2.53116C9.93208 2.52523 9.67868 2.53111 9.42488 2.54918C9.22212 2.56362 9.04451 2.49007 8.93708 2.36642L8.31537 1.65083C7.94387 1.22323 7.34104 1.02062 6.76899 1.21447C6.31071 1.36978 5.85996 1.5596 5.4161 1.78832C4.85131 2.07937 4.58216 2.6965 4.66805 3.28472L4.79021 4.12131C4.81502 4.29126 4.7474 4.4835 4.58924 4.6302C4.41984 4.78733 4.2586 4.95118 4.10576 5.12113C3.96812 5.27418 3.78826 5.34526 3.62498 5.33119L2.63963 5.2463C2.0714 5.19734 1.49059 5.47575 1.21973 6.0247C1.01422 6.44123 0.840654 6.87201 0.700487 7.31318C0.506416 7.92401 0.763091 8.5518 1.24545 8.90142L1.53581 8.50083L1.24545 8.90142L1.97098 9.4273C2.10956 9.52774 2.20076 9.71048 2.19687 9.92829C2.19316 10.1356 2.19838 10.3437 2.21275 10.5522C2.2278 10.7705 2.14561 10.9583 2.01187 11.0657Z" stroke="#565656"/>
</svg>
