<svg width="26" height="27" viewBox="0 0 26 27" fill="none" xmlns="http://www.w3.org/2000/svg">
<g filter="url(#filter0_i_213_39159)">
<path d="M25.963 13.0036C25.963 20.1852 20.1513 26.0067 12.9818 26.0067C5.81232 26.0067 0 20.1852 0 13.0036C0 5.8221 5.81232 0 12.9818 0C20.1513 0 25.963 5.8221 25.963 13.0036Z" fill="#48474B"/>
</g>
<path d="M12.874 23.2751C18.597 23.2751 23.2364 18.6279 23.2364 12.8954C23.2364 7.1628 18.597 2.51562 12.874 2.51562C7.15109 2.51562 2.51172 7.1628 2.51172 12.8954C2.51172 18.6279 7.15109 23.2751 12.874 23.2751Z" fill="#8FD6FF"/>
<path d="M8.03516 10.5234V15.1679M17.9258 10.5234V15.1679" stroke="#48474B" stroke-width="2" stroke-linecap="round"/>
<path d="M12.9824 9.28906V16.7191" stroke="#48474B" stroke-width="2" stroke-linecap="round"/>
<defs>
<filter id="filter0_i_213_39159" x="0" y="0" width="25.9629" height="26.0078" filterUnits="userSpaceOnUse" color-interpolation-filters="sRGB">
<feFlood flood-opacity="0" result="BackgroundImageFix"/>
<feBlend mode="normal" in="SourceGraphic" in2="BackgroundImageFix" result="shape"/>
<feColorMatrix in="SourceAlpha" type="matrix" values="0 0 0 0 0 0 0 0 0 0 0 0 0 0 0 0 0 0 127 0" result="hardAlpha"/>
<feOffset/>
<feGaussianBlur stdDeviation="2"/>
<feComposite in2="hardAlpha" operator="arithmetic" k2="-1" k3="1"/>
<feColorMatrix type="matrix" values="0 0 0 0 0 0 0 0 0 0 0 0 0 0 0 0 0 0 0.25 0"/>
<feBlend mode="normal" in2="shape" result="effect1_innerShadow_213_39159"/>
</filter>
</defs>
</svg>
