<svg width="320" height="80" viewBox="0 0 320 80" fill="none" xmlns="http://www.w3.org/2000/svg">
<g clip-path="url(#clip0_1777_247531)">
<path fill-rule="evenodd" clip-rule="evenodd" d="M26 0C11.6406 0 0 11.6406 0 26V80H320V26C320 11.6406 308.359 0 294 0H26Z" fill="#FBFBFC"/>
<rect width="156" height="4" transform="matrix(1 0 0 -1 0 80)" fill="#878E95"/>
<path d="M39.765 66H39.015C38.9283 66 38.8583 65.9783 38.805 65.935C38.7517 65.8917 38.7117 65.8367 38.685 65.77L38.015 64.04H34.8L34.13 65.77C34.1067 65.83 34.0667 65.8833 34.01 65.93C33.9533 65.9767 33.8833 66 33.8 66H33.05L35.915 58.835H36.9L39.765 66ZM35.07 63.34H37.745L36.62 60.425C36.5467 60.245 36.475 60.02 36.405 59.75C36.3683 59.8867 36.3317 60.0133 36.295 60.13C36.2617 60.2433 36.2283 60.3433 36.195 60.43L35.07 63.34ZM40.6669 66V58.835H42.9519C43.3919 58.835 43.7702 58.8783 44.0869 58.965C44.4069 59.0517 44.6685 59.175 44.8719 59.335C45.0785 59.495 45.2302 59.6917 45.3269 59.925C45.4269 60.155 45.4769 60.415 45.4769 60.705C45.4769 60.8817 45.4485 61.0517 45.3919 61.215C45.3385 61.3783 45.2552 61.53 45.1419 61.67C45.0319 61.81 44.8919 61.935 44.7219 62.045C44.5552 62.155 44.3585 62.245 44.1319 62.315C44.6552 62.4183 45.0502 62.6067 45.3169 62.88C45.5835 63.1533 45.7169 63.5133 45.7169 63.96C45.7169 64.2633 45.6602 64.54 45.5469 64.79C45.4369 65.04 45.2735 65.255 45.0569 65.435C44.8435 65.615 44.5802 65.755 44.2669 65.855C43.9569 65.9517 43.6019 66 43.2019 66H40.6669ZM41.6369 62.735V65.23H43.1869C43.4635 65.23 43.7002 65.1983 43.8969 65.135C44.0969 65.0717 44.2602 64.9833 44.3869 64.87C44.5169 64.7533 44.6119 64.6167 44.6719 64.46C44.7319 64.3 44.7619 64.125 44.7619 63.935C44.7619 63.565 44.6302 63.2733 44.3669 63.06C44.1069 62.8433 43.7119 62.735 43.1819 62.735H41.6369ZM41.6369 62.045H42.9169C43.1902 62.045 43.4269 62.015 43.6269 61.955C43.8269 61.895 43.9919 61.8117 44.1219 61.705C44.2552 61.5983 44.3535 61.47 44.4169 61.32C44.4802 61.1667 44.5119 61 44.5119 60.82C44.5119 60.4 44.3852 60.0917 44.1319 59.895C43.8785 59.6983 43.4852 59.6 42.9519 59.6H41.6369V62.045ZM53.7965 62.42C53.7965 62.9567 53.7115 63.45 53.5415 63.9C53.3715 64.3467 53.1315 64.7317 52.8215 65.055C52.5115 65.3783 52.1382 65.63 51.7015 65.81C51.2682 65.9867 50.7882 66.075 50.2615 66.075C49.7348 66.075 49.2548 65.9867 48.8215 65.81C48.3882 65.63 48.0165 65.3783 47.7065 65.055C47.3965 64.7317 47.1565 64.3467 46.9865 63.9C46.8165 63.45 46.7315 62.9567 46.7315 62.42C46.7315 61.8833 46.8165 61.3917 46.9865 60.945C47.1565 60.495 47.3965 60.1083 47.7065 59.785C48.0165 59.4583 48.3882 59.205 48.8215 59.025C49.2548 58.845 49.7348 58.755 50.2615 58.755C50.7882 58.755 51.2682 58.845 51.7015 59.025C52.1382 59.205 52.5115 59.4583 52.8215 59.785C53.1315 60.1083 53.3715 60.495 53.5415 60.945C53.7115 61.3917 53.7965 61.8833 53.7965 62.42ZM52.8015 62.42C52.8015 61.98 52.7415 61.585 52.6215 61.235C52.5015 60.885 52.3315 60.59 52.1115 60.35C51.8915 60.1067 51.6248 59.92 51.3115 59.79C50.9982 59.66 50.6482 59.595 50.2615 59.595C49.8782 59.595 49.5298 59.66 49.2165 59.79C48.9032 59.92 48.6348 60.1067 48.4115 60.35C48.1915 60.59 48.0215 60.885 47.9015 61.235C47.7815 61.585 47.7215 61.98 47.7215 62.42C47.7215 62.86 47.7815 63.255 47.9015 63.605C48.0215 63.9517 48.1915 64.2467 48.4115 64.49C48.6348 64.73 48.9032 64.915 49.2165 65.045C49.5298 65.1717 49.8782 65.235 50.2615 65.235C50.6482 65.235 50.9982 65.1717 51.3115 65.045C51.6248 64.915 51.8915 64.73 52.1115 64.49C52.3315 64.2467 52.5015 63.9517 52.6215 63.605C52.7415 63.255 52.8015 62.86 52.8015 62.42ZM57.905 65.23C58.2017 65.23 58.4667 65.18 58.7 65.08C58.9333 64.98 59.13 64.84 59.29 64.66C59.4533 64.48 59.5767 64.265 59.66 64.015C59.7467 63.765 59.79 63.49 59.79 63.19V58.835H60.755V63.19C60.755 63.6033 60.6883 63.9867 60.555 64.34C60.425 64.6933 60.2367 65 59.99 65.26C59.7467 65.5167 59.4483 65.7183 59.095 65.865C58.7417 66.0117 58.345 66.085 57.905 66.085C57.465 66.085 57.0683 66.0117 56.715 65.865C56.3617 65.7183 56.0617 65.5167 55.815 65.26C55.5683 65 55.3783 64.6933 55.245 64.34C55.115 63.9867 55.05 63.6033 55.05 63.19V58.835H56.015V63.185C56.015 63.485 56.0567 63.76 56.14 64.01C56.2267 64.26 56.35 64.475 56.51 64.655C56.6733 64.835 56.8717 64.9767 57.105 65.08C57.3417 65.18 57.6083 65.23 57.905 65.23ZM67.3047 58.835V59.65H64.9897V66H64.0197V59.65H61.6947V58.835H67.3047ZM75.1367 58.835V59.65H72.8217V66H71.8517V59.65H69.5267V58.835H75.1367ZM81.9652 66H80.9902V62.74H77.1302V66H76.1552V58.835H77.1302V62.03H80.9902V58.835H81.9652V66ZM88.1288 58.835V59.625H84.6888V62.005H87.4738V62.765H84.6888V65.21H88.1288V66H83.7138V58.835H88.1288ZM95.1279 59.955C95.0979 60.005 95.0662 60.0433 95.0329 60.07C94.9996 60.0933 94.9562 60.105 94.9029 60.105C94.8462 60.105 94.7796 60.0767 94.7029 60.02C94.6296 59.9633 94.5346 59.9017 94.4179 59.835C94.3046 59.765 94.1662 59.7017 94.0029 59.645C93.8429 59.5883 93.6479 59.56 93.4179 59.56C93.2012 59.56 93.0096 59.59 92.8429 59.65C92.6762 59.7067 92.5362 59.785 92.4229 59.885C92.3129 59.985 92.2296 60.1033 92.1729 60.24C92.1162 60.3733 92.0879 60.5183 92.0879 60.675C92.0879 60.875 92.1362 61.0417 92.2329 61.175C92.3329 61.305 92.4629 61.4167 92.6229 61.51C92.7862 61.6033 92.9696 61.685 93.1729 61.755C93.3796 61.8217 93.5896 61.8917 93.8029 61.965C94.0196 62.0383 94.2296 62.1217 94.4329 62.215C94.6396 62.305 94.8229 62.42 94.9829 62.56C95.1462 62.7 95.2762 62.8717 95.3729 63.075C95.4729 63.2783 95.5229 63.5283 95.5229 63.825C95.5229 64.1383 95.4696 64.4333 95.3629 64.71C95.2562 64.9833 95.0996 65.2217 94.8929 65.425C94.6896 65.6283 94.4379 65.7883 94.1379 65.905C93.8412 66.0217 93.5029 66.08 93.1229 66.08C92.6596 66.08 92.2362 65.9967 91.8529 65.83C91.4729 65.66 91.1479 65.4317 90.8779 65.145L91.1579 64.685C91.1846 64.6483 91.2162 64.6183 91.2529 64.595C91.2929 64.5683 91.3362 64.555 91.3829 64.555C91.4529 64.555 91.5329 64.5933 91.6229 64.67C91.7129 64.7433 91.8246 64.825 91.9579 64.915C92.0946 65.005 92.2579 65.0883 92.4479 65.165C92.6412 65.2383 92.8762 65.275 93.1529 65.275C93.3829 65.275 93.5879 65.2433 93.7679 65.18C93.9479 65.1167 94.0996 65.0283 94.2229 64.915C94.3496 64.7983 94.4462 64.66 94.5129 64.5C94.5796 64.34 94.6129 64.1617 94.6129 63.965C94.6129 63.7483 94.5629 63.5717 94.4629 63.435C94.3662 63.295 94.2379 63.1783 94.0779 63.085C93.9179 62.9917 93.7346 62.9133 93.5279 62.85C93.3246 62.7833 93.1146 62.7167 92.8979 62.65C92.6846 62.58 92.4746 62.5 92.2679 62.41C92.0646 62.32 91.8829 62.2033 91.7229 62.06C91.5629 61.9167 91.4329 61.7383 91.3329 61.525C91.2362 61.3083 91.1879 61.0417 91.1879 60.725C91.1879 60.4717 91.2362 60.2267 91.3329 59.99C91.4329 59.7533 91.5762 59.5433 91.7629 59.36C91.9496 59.1767 92.1796 59.03 92.4529 58.92C92.7296 58.81 93.0462 58.755 93.4029 58.755C93.8029 58.755 94.1679 58.8183 94.4979 58.945C94.8279 59.0717 95.1162 59.255 95.3629 59.495L95.1279 59.955ZM101.641 58.835V59.65H99.3256V66H98.3556V59.65H96.0306V58.835H101.641ZM105.444 65.23C105.741 65.23 106.006 65.18 106.239 65.08C106.472 64.98 106.669 64.84 106.829 64.66C106.992 64.48 107.116 64.265 107.199 64.015C107.286 63.765 107.329 63.49 107.329 63.19V58.835H108.294V63.19C108.294 63.6033 108.227 63.9867 108.094 64.34C107.964 64.6933 107.776 65 107.529 65.26C107.286 65.5167 106.987 65.7183 106.634 65.865C106.281 66.0117 105.884 66.085 105.444 66.085C105.004 66.085 104.607 66.0117 104.254 65.865C103.901 65.7183 103.601 65.5167 103.354 65.26C103.107 65 102.917 64.6933 102.784 64.34C102.654 63.9867 102.589 63.6033 102.589 63.19V58.835H103.554V63.185C103.554 63.485 103.596 63.76 103.679 64.01C103.766 64.26 103.889 64.475 104.049 64.655C104.212 64.835 104.411 64.9767 104.644 65.08C104.881 65.18 105.147 65.23 105.444 65.23ZM116.174 62.42C116.174 62.9567 116.089 63.445 115.919 63.885C115.749 64.325 115.509 64.7017 115.199 65.015C114.889 65.3283 114.517 65.5717 114.084 65.745C113.65 65.915 113.17 66 112.644 66H109.964V58.835H112.644C113.17 58.835 113.65 58.9217 114.084 59.095C114.517 59.265 114.889 59.5083 115.199 59.825C115.509 60.1383 115.749 60.515 115.919 60.955C116.089 61.395 116.174 61.8833 116.174 62.42ZM115.179 62.42C115.179 61.98 115.119 61.5867 114.999 61.24C114.879 60.8933 114.709 60.6 114.489 60.36C114.269 60.12 114.002 59.9367 113.689 59.81C113.375 59.6833 113.027 59.62 112.644 59.62H110.939V65.215H112.644C113.027 65.215 113.375 65.1517 113.689 65.025C114.002 64.8983 114.269 64.7167 114.489 64.48C114.709 64.24 114.879 63.9467 114.999 63.6C115.119 63.2533 115.179 62.86 115.179 62.42ZM119.853 63.15V66H118.888V63.15L116.263 58.835H117.113C117.199 58.835 117.268 58.8567 117.318 58.9C117.368 58.9433 117.411 58.9967 117.448 59.06L119.088 61.845C119.154 61.9617 119.209 62.0717 119.253 62.175C119.299 62.2783 119.341 62.38 119.378 62.48C119.414 62.3767 119.454 62.2733 119.498 62.17C119.541 62.0667 119.596 61.9583 119.663 61.845L121.298 59.06C121.328 59.0067 121.368 58.9567 121.418 58.91C121.471 58.86 121.539 58.835 121.623 58.835H122.483L119.853 63.15Z" fill="#4A5056"/>
<path d="M81.7083 48.8751H82.5417V45.7501H81.7083V48.8751ZM82.125 44.9376C82.2361 44.9376 82.3333 44.8959 82.4167 44.8126C82.5 44.7292 82.5417 44.6251 82.5417 44.5001C82.5417 44.389 82.5 44.2917 82.4167 44.2084C82.3333 44.1251 82.2361 44.0834 82.125 44.0834C82 44.0834 81.8993 44.1251 81.8229 44.2084C81.7465 44.2917 81.7083 44.389 81.7083 44.5001C81.7083 44.6251 81.7465 44.7292 81.8229 44.8126C81.8993 44.8959 82 44.9376 82.125 44.9376V44.9376ZM72.75 34.9167V41.0626V40.9792V49.0834V34.9167V38.7917V34.9167ZM74.8125 43.2501H78.2917C78.4583 43.014 78.6458 42.7917 78.8542 42.5834C79.0625 42.3751 79.2847 42.1806 79.5208 42.0001H74.8125V43.2501ZM74.8125 46.7917H77.375C77.3472 46.5973 77.3368 46.3924 77.3437 46.1772C77.3507 45.9619 77.3681 45.7501 77.3958 45.5417H74.8125V46.7917ZM72.75 50.3334C72.4167 50.3334 72.125 50.2084 71.875 49.9584C71.625 49.7084 71.5 49.4167 71.5 49.0834V34.9167C71.5 34.5834 71.625 34.2917 71.875 34.0417C72.125 33.7917 72.4167 33.6667 72.75 33.6667H80.2708L84.8333 38.2292V41.4584C84.6389 41.3751 84.4375 41.2987 84.2292 41.2292C84.0208 41.1598 83.8056 41.1042 83.5833 41.0626V38.7917H79.6458V34.9167H72.75V49.0834H78.1458C78.2986 49.3195 78.4653 49.5417 78.6458 49.7501C78.8264 49.9584 79.0278 50.1529 79.25 50.3334H72.75ZM82.6458 42.2292C83.7708 42.2292 84.7257 42.6216 85.5104 43.4063C86.2951 44.1911 86.6875 45.1459 86.6875 46.2709C86.6875 47.3959 86.2951 48.3508 85.5104 49.1355C84.7257 49.9202 83.7708 50.3126 82.6458 50.3126C81.5208 50.3126 80.566 49.9202 79.7812 49.1355C78.9965 48.3508 78.6042 47.3959 78.6042 46.2709C78.6042 45.1459 78.9965 44.1911 79.7812 43.4063C80.566 42.6216 81.5208 42.2292 82.6458 42.2292Z" fill="#878E95"/>
<path d="M72 34H80L84 38.5V43L80 44.5L80.5 49.5H72V34Z" fill="#878E95" fill-opacity="0.3"/>
<path d="M188.7 64.295C188.773 64.295 188.837 64.3233 188.89 64.38L189.42 64.955C189.127 65.3183 188.765 65.5967 188.335 65.79C187.908 65.9833 187.395 66.08 186.795 66.08C186.258 66.08 185.775 65.9883 185.345 65.805C184.918 65.6217 184.553 65.3667 184.25 65.04C183.947 64.7133 183.713 64.3233 183.55 63.87C183.39 63.4167 183.31 62.9217 183.31 62.385C183.31 61.8417 183.4 61.345 183.58 60.895C183.76 60.4417 184.013 60.0517 184.34 59.725C184.667 59.3983 185.057 59.145 185.51 58.965C185.967 58.7817 186.47 58.69 187.02 58.69C187.557 58.69 188.025 58.7767 188.425 58.95C188.828 59.12 189.173 59.3467 189.46 59.63L189.01 60.255C188.983 60.295 188.948 60.33 188.905 60.36C188.865 60.39 188.808 60.405 188.735 60.405C188.658 60.405 188.58 60.375 188.5 60.315C188.42 60.255 188.318 60.19 188.195 60.12C188.072 60.05 187.915 59.985 187.725 59.925C187.538 59.865 187.3 59.835 187.01 59.835C186.67 59.835 186.357 59.895 186.07 60.015C185.787 60.1317 185.542 60.3 185.335 60.52C185.132 60.74 184.972 61.0083 184.855 61.325C184.742 61.6383 184.685 61.9917 184.685 62.385C184.685 62.7917 184.742 63.1533 184.855 63.47C184.972 63.7867 185.128 64.0533 185.325 64.27C185.522 64.4867 185.753 64.6533 186.02 64.77C186.287 64.8833 186.573 64.94 186.88 64.94C187.063 64.94 187.228 64.93 187.375 64.91C187.525 64.89 187.662 64.8583 187.785 64.815C187.912 64.7717 188.03 64.7167 188.14 64.65C188.253 64.58 188.365 64.495 188.475 64.395C188.508 64.365 188.543 64.3417 188.58 64.325C188.617 64.305 188.657 64.295 188.7 64.295ZM197.374 62.385C197.374 62.915 197.286 63.4067 197.109 63.86C196.932 64.31 196.684 64.7 196.364 65.03C196.044 65.36 195.659 65.6183 195.209 65.805C194.759 65.9883 194.261 66.08 193.714 66.08C193.167 66.08 192.667 65.9883 192.214 65.805C191.764 65.6183 191.377 65.36 191.054 65.03C190.734 64.7 190.486 64.31 190.309 63.86C190.132 63.4067 190.044 62.915 190.044 62.385C190.044 61.855 190.132 61.365 190.309 60.915C190.486 60.4617 190.734 60.07 191.054 59.74C191.377 59.41 191.764 59.1533 192.214 58.97C192.667 58.7833 193.167 58.69 193.714 58.69C194.261 58.69 194.759 58.7833 195.209 58.97C195.659 59.1567 196.044 59.415 196.364 59.745C196.684 60.0717 196.932 60.4617 197.109 60.915C197.286 61.365 197.374 61.855 197.374 62.385ZM195.994 62.385C195.994 61.9883 195.941 61.6333 195.834 61.32C195.731 61.0033 195.581 60.735 195.384 60.515C195.187 60.295 194.947 60.1267 194.664 60.01C194.384 59.8933 194.067 59.835 193.714 59.835C193.361 59.835 193.042 59.8933 192.759 60.01C192.476 60.1267 192.234 60.295 192.034 60.515C191.837 60.735 191.686 61.0033 191.579 61.32C191.472 61.6333 191.419 61.9883 191.419 62.385C191.419 62.7817 191.472 63.1383 191.579 63.455C191.686 63.7683 191.837 64.035 192.034 64.255C192.234 64.4717 192.476 64.6383 192.759 64.755C193.042 64.8717 193.361 64.93 193.714 64.93C194.067 64.93 194.384 64.8717 194.664 64.755C194.947 64.6383 195.187 64.4717 195.384 64.255C195.581 64.035 195.731 63.7683 195.834 63.455C195.941 63.1383 195.994 62.7817 195.994 62.385ZM199.142 58.77C199.202 58.77 199.252 58.7733 199.292 58.78C199.332 58.7833 199.367 58.7933 199.397 58.81C199.43 58.8233 199.462 58.845 199.492 58.875C199.522 58.9017 199.555 58.9383 199.592 58.985L203.387 63.82C203.374 63.7033 203.364 63.59 203.357 63.48C203.354 63.3667 203.352 63.2617 203.352 63.165V58.77H204.537V66H203.842C203.735 66 203.647 65.9833 203.577 65.95C203.507 65.9167 203.439 65.8567 203.372 65.77L199.592 60.955C199.602 61.0617 199.609 61.1683 199.612 61.275C199.619 61.3783 199.622 61.4733 199.622 61.56V66H198.437V58.77H199.142ZM211.091 58.77V59.875H208.916V66H207.571V59.875H205.386V58.77H211.091ZM217.565 66H216.525C216.409 66 216.312 65.9717 216.235 65.915C216.162 65.855 216.109 65.7817 216.075 65.695L215.535 64.22H212.54L212 65.695C211.974 65.7717 211.92 65.8417 211.84 65.905C211.764 65.9683 211.669 66 211.555 66H210.51L213.35 58.77H214.725L217.565 66ZM212.885 63.27H215.19L214.31 60.865C214.27 60.7583 214.225 60.6333 214.175 60.49C214.129 60.3433 214.082 60.185 214.035 60.015C213.989 60.185 213.942 60.3433 213.895 60.49C213.852 60.6367 213.809 60.765 213.765 60.875L212.885 63.27ZM223.026 64.295C223.1 64.295 223.163 64.3233 223.216 64.38L223.746 64.955C223.453 65.3183 223.091 65.5967 222.661 65.79C222.235 65.9833 221.721 66.08 221.121 66.08C220.585 66.08 220.101 65.9883 219.671 65.805C219.245 65.6217 218.88 65.3667 218.576 65.04C218.273 64.7133 218.04 64.3233 217.876 63.87C217.716 63.4167 217.636 62.9217 217.636 62.385C217.636 61.8417 217.726 61.345 217.906 60.895C218.086 60.4417 218.34 60.0517 218.666 59.725C218.993 59.3983 219.383 59.145 219.836 58.965C220.293 58.7817 220.796 58.69 221.346 58.69C221.883 58.69 222.351 58.7767 222.751 58.95C223.155 59.12 223.5 59.3467 223.786 59.63L223.336 60.255C223.31 60.295 223.275 60.33 223.231 60.36C223.191 60.39 223.135 60.405 223.061 60.405C222.985 60.405 222.906 60.375 222.826 60.315C222.746 60.255 222.645 60.19 222.521 60.12C222.398 60.05 222.241 59.985 222.051 59.925C221.865 59.865 221.626 59.835 221.336 59.835C220.996 59.835 220.683 59.895 220.396 60.015C220.113 60.1317 219.868 60.3 219.661 60.52C219.458 60.74 219.298 61.0083 219.181 61.325C219.068 61.6383 219.011 61.9917 219.011 62.385C219.011 62.7917 219.068 63.1533 219.181 63.47C219.298 63.7867 219.455 64.0533 219.651 64.27C219.848 64.4867 220.08 64.6533 220.346 64.77C220.613 64.8833 220.9 64.94 221.206 64.94C221.39 64.94 221.555 64.93 221.701 64.91C221.851 64.89 221.988 64.8583 222.111 64.815C222.238 64.7717 222.356 64.7167 222.466 64.65C222.58 64.58 222.691 64.495 222.801 64.395C222.835 64.365 222.87 64.3417 222.906 64.325C222.943 64.305 222.983 64.295 223.026 64.295ZM229.86 58.77V59.875H227.685V66H226.34V59.875H224.155V58.77H229.86ZM235.231 58.69C235.524 58.69 235.786 58.735 236.016 58.825C236.249 58.915 236.448 59.035 236.611 59.185C236.778 59.335 236.908 59.5067 237.001 59.7C237.098 59.8933 237.154 60.0933 237.171 60.3L236.386 60.465C236.376 60.4683 236.364 60.47 236.351 60.47C236.341 60.47 236.331 60.47 236.321 60.47C236.264 60.47 236.213 60.455 236.166 60.425C236.123 60.3917 236.088 60.3417 236.061 60.275C236.031 60.1883 235.993 60.1067 235.946 60.03C235.899 59.95 235.843 59.8817 235.776 59.825C235.709 59.765 235.631 59.7183 235.541 59.685C235.451 59.6483 235.348 59.63 235.231 59.63C235.091 59.63 234.966 59.655 234.856 59.705C234.746 59.7517 234.653 59.8167 234.576 59.9C234.499 59.98 234.441 60.075 234.401 60.185C234.361 60.2917 234.341 60.405 234.341 60.525C234.341 60.625 234.351 60.7217 234.371 60.815C234.394 60.9083 234.429 61.0017 234.476 61.095C234.523 61.1883 234.583 61.285 234.656 61.385C234.733 61.4817 234.826 61.5867 234.936 61.7L236.856 63.695C236.966 63.485 237.054 63.2633 237.121 63.03C237.188 62.7967 237.231 62.56 237.251 62.32C237.258 62.2433 237.283 62.1817 237.326 62.135C237.369 62.0883 237.429 62.065 237.506 62.065H238.281C238.278 62.505 238.214 62.925 238.091 63.325C237.968 63.725 237.791 64.0933 237.561 64.43L239.076 66H237.866C237.803 66 237.746 65.9967 237.696 65.99C237.649 65.9833 237.604 65.9717 237.561 65.955C237.518 65.935 237.476 65.91 237.436 65.88C237.396 65.85 237.354 65.8117 237.311 65.765L236.811 65.25C236.491 65.51 236.134 65.7133 235.741 65.86C235.351 66.0067 234.928 66.08 234.471 66.08C234.191 66.08 233.918 66.0333 233.651 65.94C233.384 65.8433 233.146 65.705 232.936 65.525C232.726 65.345 232.556 65.1283 232.426 64.875C232.299 64.6183 232.236 64.33 232.236 64.01C232.236 63.7867 232.273 63.575 232.346 63.375C232.419 63.1717 232.521 62.9833 232.651 62.81C232.781 62.6367 232.934 62.48 233.111 62.34C233.291 62.2 233.488 62.08 233.701 61.98C233.524 61.73 233.394 61.4867 233.311 61.25C233.231 61.01 233.191 60.7717 233.191 60.535C233.191 60.285 233.236 60.0483 233.326 59.825C233.419 59.5983 233.553 59.4017 233.726 59.235C233.903 59.0683 234.118 58.9367 234.371 58.84C234.624 58.74 234.911 58.69 235.231 58.69ZM233.491 63.91C233.491 64.0933 233.523 64.2583 233.586 64.405C233.649 64.5517 233.736 64.6767 233.846 64.78C233.956 64.88 234.083 64.9583 234.226 65.015C234.373 65.0683 234.528 65.095 234.691 65.095C234.984 65.095 235.251 65.05 235.491 64.96C235.734 64.8667 235.956 64.7383 236.156 64.575L234.256 62.625C233.989 62.7983 233.794 62.9933 233.671 63.21C233.551 63.4267 233.491 63.66 233.491 63.91ZM245.593 60.085C245.557 60.1583 245.513 60.21 245.463 60.24C245.417 60.27 245.36 60.285 245.293 60.285C245.227 60.285 245.152 60.26 245.068 60.21C244.985 60.1567 244.887 60.0983 244.773 60.035C244.66 59.9717 244.527 59.915 244.373 59.865C244.223 59.8117 244.045 59.785 243.838 59.785C243.652 59.785 243.488 59.8083 243.348 59.855C243.212 59.8983 243.095 59.96 242.998 60.04C242.905 60.12 242.835 60.2167 242.788 60.33C242.742 60.44 242.718 60.5617 242.718 60.695C242.718 60.865 242.765 61.0067 242.858 61.12C242.955 61.2333 243.082 61.33 243.238 61.41C243.395 61.49 243.573 61.5617 243.773 61.625C243.973 61.6883 244.177 61.7567 244.383 61.83C244.593 61.9 244.798 61.9833 244.998 62.08C245.198 62.1733 245.377 62.2933 245.533 62.44C245.69 62.5833 245.815 62.76 245.908 62.97C246.005 63.18 246.053 63.435 246.053 63.735C246.053 64.0617 245.997 64.3683 245.883 64.655C245.773 64.9383 245.61 65.1867 245.393 65.4C245.18 65.61 244.918 65.7767 244.608 65.9C244.298 66.02 243.943 66.08 243.543 66.08C243.313 66.08 243.087 66.0567 242.863 66.01C242.64 65.9667 242.425 65.9033 242.218 65.82C242.015 65.7367 241.823 65.6367 241.643 65.52C241.467 65.4033 241.308 65.2733 241.168 65.13L241.558 64.485C241.595 64.4383 241.638 64.4 241.688 64.37C241.742 64.3367 241.8 64.32 241.863 64.32C241.947 64.32 242.037 64.355 242.133 64.425C242.23 64.4917 242.343 64.5667 242.473 64.65C242.607 64.7333 242.762 64.81 242.938 64.88C243.118 64.9467 243.333 64.98 243.583 64.98C243.967 64.98 244.263 64.89 244.473 64.71C244.683 64.5267 244.788 64.265 244.788 63.925C244.788 63.735 244.74 63.58 244.643 63.46C244.55 63.34 244.425 63.24 244.268 63.16C244.112 63.0767 243.933 63.0067 243.733 62.95C243.533 62.8933 243.33 62.8317 243.123 62.765C242.917 62.6983 242.713 62.6183 242.513 62.525C242.313 62.4317 242.135 62.31 241.978 62.16C241.822 62.01 241.695 61.8233 241.598 61.6C241.505 61.3733 241.458 61.095 241.458 60.765C241.458 60.5017 241.51 60.245 241.613 59.995C241.72 59.745 241.873 59.5233 242.073 59.33C242.277 59.1367 242.525 58.9817 242.818 58.865C243.112 58.7483 243.447 58.69 243.823 58.69C244.25 58.69 244.643 58.7567 245.003 58.89C245.363 59.0233 245.67 59.21 245.923 59.45L245.593 60.085ZM249.99 64.915C250.25 64.915 250.481 64.8717 250.685 64.785C250.891 64.6983 251.065 64.5767 251.205 64.42C251.348 64.2633 251.456 64.0733 251.53 63.85C251.606 63.6267 251.645 63.3767 251.645 63.1V58.77H252.99V63.1C252.99 63.53 252.92 63.9283 252.78 64.295C252.643 64.6583 252.445 64.9733 252.185 65.24C251.925 65.5033 251.61 65.71 251.24 65.86C250.87 66.0067 250.453 66.08 249.99 66.08C249.526 66.08 249.11 66.0067 248.74 65.86C248.37 65.71 248.055 65.5033 247.795 65.24C247.538 64.9733 247.34 64.6583 247.2 64.295C247.063 63.9283 246.995 63.53 246.995 63.1V58.77H248.34V63.095C248.34 63.3717 248.376 63.6217 248.45 63.845C248.526 64.0683 248.635 64.26 248.775 64.42C248.915 64.5767 249.086 64.6983 249.29 64.785C249.496 64.8717 249.73 64.915 249.99 64.915ZM255.745 63.455V66H254.4V58.77H256.755C257.238 58.77 257.657 58.8267 258.01 58.94C258.363 59.0533 258.655 59.2117 258.885 59.415C259.115 59.6183 259.285 59.8617 259.395 60.145C259.505 60.4283 259.56 60.7383 259.56 61.075C259.56 61.425 259.502 61.7467 259.385 62.04C259.268 62.33 259.093 62.58 258.86 62.79C258.627 63 258.335 63.1633 257.985 63.28C257.635 63.3967 257.225 63.455 256.755 63.455H255.745ZM255.745 62.405H256.755C257.002 62.405 257.217 62.375 257.4 62.315C257.583 62.2517 257.735 62.1633 257.855 62.05C257.975 61.9333 258.065 61.7933 258.125 61.63C258.185 61.4633 258.215 61.2783 258.215 61.075C258.215 60.8817 258.185 60.7067 258.125 60.55C258.065 60.3933 257.975 60.26 257.855 60.15C257.735 60.04 257.583 59.9567 257.4 59.9C257.217 59.84 257.002 59.81 256.755 59.81H255.745V62.405ZM261.995 63.455V66H260.65V58.77H263.005C263.488 58.77 263.907 58.8267 264.26 58.94C264.613 59.0533 264.905 59.2117 265.135 59.415C265.365 59.6183 265.535 59.8617 265.645 60.145C265.755 60.4283 265.81 60.7383 265.81 61.075C265.81 61.425 265.752 61.7467 265.635 62.04C265.518 62.33 265.343 62.58 265.11 62.79C264.877 63 264.585 63.1633 264.235 63.28C263.885 63.3967 263.475 63.455 263.005 63.455H261.995ZM261.995 62.405H263.005C263.252 62.405 263.467 62.375 263.65 62.315C263.833 62.2517 263.985 62.1633 264.105 62.05C264.225 61.9333 264.315 61.7933 264.375 61.63C264.435 61.4633 264.465 61.2783 264.465 61.075C264.465 60.8817 264.435 60.7067 264.375 60.55C264.315 60.3933 264.225 60.26 264.105 60.15C263.985 60.04 263.833 59.9567 263.65 59.9C263.467 59.84 263.252 59.81 263.005 59.81H261.995V62.405ZM273.79 62.385C273.79 62.915 273.702 63.4067 273.525 63.86C273.348 64.31 273.1 64.7 272.78 65.03C272.46 65.36 272.075 65.6183 271.625 65.805C271.175 65.9883 270.677 66.08 270.13 66.08C269.583 66.08 269.083 65.9883 268.63 65.805C268.18 65.6183 267.793 65.36 267.47 65.03C267.15 64.7 266.902 64.31 266.725 63.86C266.548 63.4067 266.46 62.915 266.46 62.385C266.46 61.855 266.548 61.365 266.725 60.915C266.902 60.4617 267.15 60.07 267.47 59.74C267.793 59.41 268.18 59.1533 268.63 58.97C269.083 58.7833 269.583 58.69 270.13 58.69C270.677 58.69 271.175 58.7833 271.625 58.97C272.075 59.1567 272.46 59.415 272.78 59.745C273.1 60.0717 273.348 60.4617 273.525 60.915C273.702 61.365 273.79 61.855 273.79 62.385ZM272.41 62.385C272.41 61.9883 272.357 61.6333 272.25 61.32C272.147 61.0033 271.997 60.735 271.8 60.515C271.603 60.295 271.363 60.1267 271.08 60.01C270.8 59.8933 270.483 59.835 270.13 59.835C269.777 59.835 269.458 59.8933 269.175 60.01C268.892 60.1267 268.65 60.295 268.45 60.515C268.253 60.735 268.102 61.0033 267.995 61.32C267.888 61.6333 267.835 61.9883 267.835 62.385C267.835 62.7817 267.888 63.1383 267.995 63.455C268.102 63.7683 268.253 64.035 268.45 64.255C268.65 64.4717 268.892 64.6383 269.175 64.755C269.458 64.8717 269.777 64.93 270.13 64.93C270.483 64.93 270.8 64.8717 271.08 64.755C271.363 64.6383 271.603 64.4717 271.8 64.255C271.997 64.035 272.147 63.7683 272.25 63.455C272.357 63.1383 272.41 62.7817 272.41 62.385ZM276.243 63.175V66H274.898V58.77H277.103C277.596 58.77 278.018 58.8217 278.368 58.925C278.721 59.025 279.01 59.1667 279.233 59.35C279.46 59.5333 279.625 59.7533 279.728 60.01C279.835 60.2633 279.888 60.5433 279.888 60.85C279.888 61.0933 279.851 61.3233 279.778 61.54C279.708 61.7567 279.605 61.9533 279.468 62.13C279.335 62.3067 279.168 62.4617 278.968 62.595C278.771 62.7283 278.546 62.835 278.293 62.915C278.463 63.0117 278.61 63.15 278.733 63.33L280.543 66H279.333C279.216 66 279.116 65.9767 279.033 65.93C278.953 65.8833 278.885 65.8167 278.828 65.73L277.308 63.415C277.251 63.3283 277.188 63.2667 277.118 63.23C277.051 63.1933 276.951 63.175 276.818 63.175H276.243ZM276.243 62.21H277.083C277.336 62.21 277.556 62.1783 277.743 62.115C277.933 62.0517 278.088 61.965 278.208 61.855C278.331 61.7417 278.423 61.6083 278.483 61.455C278.543 61.3017 278.573 61.1333 278.573 60.95C278.573 60.5833 278.451 60.3017 278.208 60.105C277.968 59.9083 277.6 59.81 277.103 59.81H276.243V62.21ZM286.218 58.77V59.875H284.043V66H282.698V59.875H280.513V58.77H286.218Z" fill="#4A5056"/>
<g clip-path="url(#clip1_1777_247531)">
<path opacity="0.3" d="M234.584 34.5C231.134 34.5 228.334 37.3 228.334 40.75C228.334 44.2 231.134 47 234.584 47H235.834V48.9167C238.867 47 240.834 43.85 240.834 40.75C240.834 37.3 238.034 34.5 234.584 34.5ZM235.417 45.75H233.751V44.0833H235.417V45.75ZM235.417 42.8333H233.751C233.751 40.125 236.251 40.3333 236.251 38.6667C236.251 37.75 235.501 37 234.584 37C233.667 37 232.917 37.75 232.917 38.6667H231.251C231.251 36.825 232.742 35.3333 234.584 35.3333C236.426 35.3333 237.917 36.825 237.917 38.6667C237.917 40.75 235.417 40.9583 235.417 42.8333Z" fill="#9499C7"/>
<path d="M234.583 32.8333C230.216 32.8333 226.666 36.3833 226.666 40.7499C226.666 44.9749 229.991 48.4416 234.166 48.6583V51.6583L235.358 51.0833C239.633 49.0249 242.499 44.8749 242.499 40.7499C242.499 36.3833 238.949 32.8333 234.583 32.8333ZM235.833 48.9166V46.9999H234.583C231.133 46.9999 228.333 44.1999 228.333 40.7499C228.333 37.2999 231.133 34.4999 234.583 34.4999C238.033 34.4999 240.833 37.2999 240.833 40.7499C240.833 43.8583 238.866 47.0083 235.833 48.9166ZM233.749 44.0833H235.416V45.7499H233.749V44.0833ZM234.583 35.3333C232.741 35.3333 231.249 36.8249 231.249 38.6666H232.916C232.916 37.7499 233.666 36.9999 234.583 36.9999C235.499 36.9999 236.249 37.7499 236.249 38.6666C236.249 40.3333 233.749 40.1249 233.749 42.8333H235.416C235.416 40.9583 237.916 40.7499 237.916 38.6666C237.916 36.8249 236.424 35.3333 234.583 35.3333Z" fill="#9499C7"/>
</g>
<path d="M320 80H0V76H320V80Z" fill="#EAECEE"/>
<rect width="156" height="4" transform="matrix(1 0 0 -1 164 80)" fill="#9499C7"/>
</g>
<defs>
<clipPath id="clip0_1777_247531">
<rect width="320" height="80" fill="white"/>
</clipPath>
<clipPath id="clip1_1777_247531">
<rect width="20" height="20" fill="white" transform="translate(225 32)"/>
</clipPath>
</defs>
</svg>
