<svg width="320" height="80" viewBox="0 0 320 80" fill="none" xmlns="http://www.w3.org/2000/svg">
<path fill-rule="evenodd" clip-rule="evenodd" d="M26 0C11.6406 0 0 11.6406 0 26V80H320V26C320 11.6406 308.359 0 294 0H26Z" fill="#F6F6F6"/>
<rect width="320" height="4" transform="matrix(1 0 0 -1 0 80)" fill="#E5E5E5"/>
<rect width="160" height="4" transform="matrix(1 0 0 -1 160 80)" fill="#93CCF0"/>
<path d="M37.625 63.27L36.745 60.865C36.7017 60.7583 36.6567 60.6317 36.61 60.485C36.5633 60.3383 36.5167 60.18 36.47 60.01C36.4267 60.18 36.3817 60.34 36.335 60.49C36.2883 60.6367 36.2433 60.765 36.2 60.875L35.325 63.27H37.625ZM40 66H38.96C38.8433 66 38.7483 65.9717 38.675 65.915C38.6017 65.855 38.5467 65.7817 38.51 65.695L37.97 64.22H34.975L34.435 65.695C34.4083 65.7717 34.3567 65.8417 34.28 65.905C34.2033 65.9683 34.1083 66 33.995 66H32.945L35.79 58.77H37.16L40 66ZM43.4534 64.95C43.7034 64.95 43.9134 64.92 44.0834 64.86C44.2534 64.8 44.3884 64.72 44.4884 64.62C44.5917 64.52 44.665 64.4033 44.7084 64.27C44.755 64.1367 44.7784 63.995 44.7784 63.845C44.7784 63.6883 44.7534 63.5483 44.7034 63.425C44.6534 63.2983 44.575 63.1917 44.4684 63.105C44.3617 63.015 44.2234 62.9467 44.0534 62.9C43.8867 62.8533 43.685 62.83 43.4484 62.83H42.0934V64.95H43.4534ZM42.0934 59.81V61.9H43.1634C43.6234 61.9 43.97 61.8167 44.2034 61.65C44.44 61.4833 44.5584 61.2183 44.5584 60.855C44.5584 60.4783 44.4517 60.21 44.2384 60.05C44.025 59.89 43.6917 59.81 43.2384 59.81H42.0934ZM43.2384 58.77C43.7117 58.77 44.1167 58.815 44.4534 58.905C44.79 58.995 45.065 59.1233 45.2784 59.29C45.495 59.4567 45.6534 59.6583 45.7534 59.895C45.8534 60.1317 45.9034 60.3983 45.9034 60.695C45.9034 60.865 45.8784 61.0283 45.8284 61.185C45.7784 61.3383 45.7 61.4833 45.5934 61.62C45.49 61.7533 45.3567 61.875 45.1934 61.985C45.0334 62.095 44.8417 62.1883 44.6184 62.265C45.6117 62.4883 46.1084 63.025 46.1084 63.875C46.1084 64.1817 46.05 64.465 45.9334 64.725C45.8167 64.985 45.6467 65.21 45.4234 65.4C45.2 65.5867 44.925 65.7333 44.5984 65.84C44.2717 65.9467 43.8984 66 43.4784 66H40.7484V58.77H43.2384ZM54.2254 62.385C54.2254 62.915 54.1371 63.4067 53.9604 63.86C53.7871 64.31 53.5404 64.7 53.2204 65.03C52.9004 65.36 52.5154 65.6183 52.0654 65.805C51.6154 65.9883 51.1154 66.08 50.5654 66.08C50.0187 66.08 49.5204 65.9883 49.0704 65.805C48.6204 65.6183 48.2337 65.36 47.9104 65.03C47.5904 64.7 47.3421 64.31 47.1654 63.86C46.9887 63.4067 46.9004 62.915 46.9004 62.385C46.9004 61.855 46.9887 61.365 47.1654 60.915C47.3421 60.4617 47.5904 60.07 47.9104 59.74C48.2337 59.41 48.6204 59.1533 49.0704 58.97C49.5204 58.7833 50.0187 58.69 50.5654 58.69C50.9321 58.69 51.2771 58.7333 51.6004 58.82C51.9237 58.9033 52.2204 59.0233 52.4904 59.18C52.7604 59.3333 53.0021 59.5217 53.2154 59.745C53.4321 59.965 53.6154 60.2117 53.7654 60.485C53.9154 60.7583 54.0287 61.055 54.1054 61.375C54.1854 61.695 54.2254 62.0317 54.2254 62.385ZM52.8504 62.385C52.8504 61.9883 52.7971 61.6333 52.6904 61.32C52.5837 61.0033 52.4321 60.735 52.2354 60.515C52.0387 60.295 51.7987 60.1267 51.5154 60.01C51.2354 59.8933 50.9187 59.835 50.5654 59.835C50.2121 59.835 49.8937 59.8933 49.6104 60.01C49.3304 60.1267 49.0904 60.295 48.8904 60.515C48.6937 60.735 48.5421 61.0033 48.4354 61.32C48.3287 61.6333 48.2754 61.9883 48.2754 62.385C48.2754 62.7817 48.3287 63.1383 48.4354 63.455C48.5421 63.7683 48.6937 64.035 48.8904 64.255C49.0904 64.4717 49.3304 64.6383 49.6104 64.755C49.8937 64.8717 50.2121 64.93 50.5654 64.93C50.9187 64.93 51.2354 64.8717 51.5154 64.755C51.7987 64.6383 52.0387 64.4717 52.2354 64.255C52.4321 64.035 52.5837 63.7683 52.6904 63.455C52.7971 63.1383 52.8504 62.7817 52.8504 62.385ZM58.3166 64.915C58.5766 64.915 58.8082 64.8717 59.0116 64.785C59.2182 64.6983 59.3916 64.5767 59.5316 64.42C59.6716 64.2633 59.7782 64.0733 59.8516 63.85C59.9282 63.6267 59.9666 63.3767 59.9666 63.1V58.77H61.3116V63.1C61.3116 63.53 61.2416 63.9283 61.1016 64.295C60.9649 64.6583 60.7666 64.9733 60.5066 65.24C60.2499 65.5033 59.9366 65.71 59.5666 65.86C59.1966 66.0067 58.7799 66.08 58.3166 66.08C57.8499 66.08 57.4316 66.0067 57.0616 65.86C56.6916 65.71 56.3766 65.5033 56.1166 65.24C55.8599 64.9733 55.6616 64.6583 55.5216 64.295C55.3849 63.9283 55.3166 63.53 55.3166 63.1V58.77H56.6616V63.095C56.6616 63.3717 56.6982 63.6217 56.7716 63.845C56.8482 64.0683 56.9566 64.26 57.0966 64.42C57.2399 64.5767 57.4132 64.6983 57.6166 64.785C57.8232 64.8717 58.0566 64.915 58.3166 64.915ZM67.8784 59.875H65.6984V66H64.3534V59.875H62.1734V58.77H67.8784V59.875ZM75.7007 59.875H73.5207V66H72.1757V59.875H69.9957V58.77H75.7007V59.875ZM82.7418 58.77V66H81.3918V62.84H77.9968V66H76.6468V58.77H77.9968V61.88H81.3918V58.77H82.7418ZM85.7019 59.84V61.845H88.2319V62.88H85.7019V64.925H88.9119V66H84.3519V58.77H88.9119V59.84H85.7019ZM96.3855 60.085C96.3455 60.155 96.3021 60.2067 96.2555 60.24C96.2121 60.27 96.1571 60.285 96.0905 60.285C96.0205 60.285 95.9438 60.26 95.8605 60.21C95.7805 60.1567 95.6838 60.0983 95.5705 60.035C95.4571 59.9717 95.3238 59.915 95.1705 59.865C95.0205 59.8117 94.8421 59.785 94.6355 59.785C94.4488 59.785 94.2855 59.8083 94.1455 59.855C94.0055 59.8983 93.8871 59.96 93.7905 60.04C93.6971 60.12 93.6271 60.2167 93.5805 60.33C93.5338 60.44 93.5105 60.5617 93.5105 60.695C93.5105 60.865 93.5571 61.0067 93.6505 61.12C93.7471 61.2333 93.8738 61.33 94.0305 61.41C94.1871 61.49 94.3655 61.5617 94.5655 61.625C94.7655 61.6883 94.9705 61.7567 95.1805 61.83C95.3905 61.9 95.5955 61.9833 95.7955 62.08C95.9955 62.1733 96.1738 62.2933 96.3305 62.44C96.4871 62.5833 96.6121 62.76 96.7055 62.97C96.8021 63.18 96.8505 63.435 96.8505 63.735C96.8505 64.0617 96.7938 64.3683 96.6805 64.655C96.5705 64.9383 96.4071 65.1867 96.1905 65.4C95.9771 65.61 95.7155 65.7767 95.4055 65.9C95.0955 66.02 94.7405 66.08 94.3405 66.08C94.1105 66.08 93.8838 66.0567 93.6605 66.01C93.4371 65.9667 93.2221 65.9033 93.0155 65.82C92.8121 65.7367 92.6205 65.6367 92.4405 65.52C92.2605 65.4033 92.1005 65.2733 91.9605 65.13L92.3555 64.485C92.3888 64.4383 92.4321 64.4 92.4855 64.37C92.5388 64.3367 92.5955 64.32 92.6555 64.32C92.7388 64.32 92.8288 64.355 92.9255 64.425C93.0221 64.4917 93.1371 64.5667 93.2705 64.65C93.4038 64.7333 93.5588 64.81 93.7355 64.88C93.9155 64.9467 94.1305 64.98 94.3805 64.98C94.7638 64.98 95.0605 64.89 95.2705 64.71C95.4805 64.5267 95.5855 64.265 95.5855 63.925C95.5855 63.735 95.5371 63.58 95.4405 63.46C95.3471 63.34 95.2221 63.24 95.0655 63.16C94.9088 63.0767 94.7305 63.0067 94.5305 62.95C94.3305 62.8933 94.1271 62.8317 93.9205 62.765C93.7138 62.6983 93.5105 62.6183 93.3105 62.525C93.1105 62.4317 92.9321 62.31 92.7755 62.16C92.6188 62.01 92.4921 61.8233 92.3955 61.6C92.3021 61.3733 92.2555 61.095 92.2555 60.765C92.2555 60.5017 92.3071 60.245 92.4105 59.995C92.5171 59.745 92.6705 59.5233 92.8705 59.33C93.0705 59.1367 93.3171 58.9817 93.6105 58.865C93.9038 58.7483 94.2405 58.69 94.6205 58.69C95.0471 58.69 95.4405 58.7567 95.8005 58.89C96.1605 59.0233 96.4671 59.21 96.7205 59.45L96.3855 60.085ZM103.074 59.875H100.894V66H99.5488V59.875H97.3688V58.77H103.074V59.875ZM106.93 64.915C107.19 64.915 107.422 64.8717 107.625 64.785C107.832 64.6983 108.005 64.5767 108.145 64.42C108.285 64.2633 108.392 64.0733 108.465 63.85C108.542 63.6267 108.58 63.3767 108.58 63.1V58.77H109.925V63.1C109.925 63.53 109.855 63.9283 109.715 64.295C109.578 64.6583 109.38 64.9733 109.12 65.24C108.863 65.5033 108.55 65.71 108.18 65.86C107.81 66.0067 107.393 66.08 106.93 66.08C106.463 66.08 106.045 66.0067 105.675 65.86C105.305 65.71 104.99 65.5033 104.73 65.24C104.473 64.9733 104.275 64.6583 104.135 64.295C103.998 63.9283 103.93 63.53 103.93 63.1V58.77H105.275V63.095C105.275 63.3717 105.312 63.6217 105.385 63.845C105.462 64.0683 105.57 64.26 105.71 64.42C105.853 64.5767 106.027 64.6983 106.23 64.785C106.437 64.8717 106.67 64.915 106.93 64.915ZM117.862 62.385C117.862 62.915 117.773 63.4017 117.597 63.845C117.42 64.2883 117.172 64.67 116.852 64.99C116.532 65.31 116.147 65.5583 115.697 65.735C115.247 65.9117 114.747 66 114.197 66H111.442V58.77H114.197C114.747 58.77 115.247 58.86 115.697 59.04C116.147 59.2167 116.532 59.465 116.852 59.785C117.172 60.1017 117.42 60.4817 117.597 60.925C117.773 61.3683 117.862 61.855 117.862 62.385ZM116.482 62.385C116.482 61.9883 116.428 61.6333 116.322 61.32C116.218 61.0033 116.067 60.7367 115.867 60.52C115.67 60.3 115.43 60.1317 115.147 60.015C114.867 59.8983 114.55 59.84 114.197 59.84H112.792V64.93H114.197C114.55 64.93 114.867 64.8717 115.147 64.755C115.43 64.6383 115.67 64.4717 115.867 64.255C116.067 64.035 116.218 63.7683 116.322 63.455C116.428 63.1383 116.482 62.7817 116.482 62.385ZM121.724 63.2V66H120.384V63.2L117.749 58.77H118.934C119.051 58.77 119.143 58.7983 119.209 58.855C119.279 58.9117 119.338 58.9833 119.384 59.07L120.704 61.485C120.781 61.6283 120.848 61.7633 120.904 61.89C120.964 62.0167 121.018 62.1433 121.064 62.27C121.108 62.1433 121.158 62.0167 121.214 61.89C121.271 61.7633 121.336 61.6283 121.409 61.485L122.724 59.07C122.761 58.9967 122.816 58.9283 122.889 58.865C122.963 58.8017 123.056 58.77 123.169 58.77H124.359L121.724 63.2Z" fill="black"/>
<path d="M186.945 64.52C186.998 64.52 187.045 64.5417 187.085 64.585L187.47 65C187.177 65.34 186.82 65.605 186.4 65.795C185.983 65.985 185.478 66.08 184.885 66.08C184.372 66.08 183.905 65.9917 183.485 65.815C183.065 65.635 182.707 65.385 182.41 65.065C182.113 64.7417 181.883 64.355 181.72 63.905C181.557 63.455 181.475 62.96 181.475 62.42C181.475 61.88 181.56 61.385 181.73 60.935C181.9 60.485 182.138 60.0983 182.445 59.775C182.755 59.4517 183.125 59.2017 183.555 59.025C183.985 58.845 184.46 58.755 184.98 58.755C185.49 58.755 185.94 58.8367 186.33 59C186.72 59.1633 187.063 59.385 187.36 59.665L187.04 60.11C187.02 60.1433 186.993 60.1717 186.96 60.195C186.93 60.215 186.888 60.225 186.835 60.225C186.775 60.225 186.702 60.1933 186.615 60.13C186.528 60.0633 186.415 59.99 186.275 59.91C186.135 59.83 185.96 59.7583 185.75 59.695C185.54 59.6283 185.282 59.595 184.975 59.595C184.605 59.595 184.267 59.66 183.96 59.79C183.653 59.9167 183.388 60.1017 183.165 60.345C182.945 60.5883 182.773 60.885 182.65 61.235C182.527 61.585 182.465 61.98 182.465 62.42C182.465 62.8667 182.528 63.265 182.655 63.615C182.785 63.965 182.96 64.2617 183.18 64.505C183.403 64.745 183.665 64.9283 183.965 65.055C184.268 65.1817 184.595 65.245 184.945 65.245C185.158 65.245 185.35 65.2333 185.52 65.21C185.693 65.1833 185.852 65.1433 185.995 65.09C186.142 65.0367 186.277 64.97 186.4 64.89C186.527 64.8067 186.652 64.7083 186.775 64.595C186.832 64.545 186.888 64.52 186.945 64.52ZM195.078 62.42C195.078 62.9567 194.993 63.45 194.823 63.9C194.653 64.3467 194.413 64.7317 194.103 65.055C193.793 65.3783 193.42 65.63 192.983 65.81C192.55 65.9867 192.07 66.075 191.543 66.075C191.016 66.075 190.536 65.9867 190.103 65.81C189.67 65.63 189.298 65.3783 188.988 65.055C188.678 64.7317 188.438 64.3467 188.268 63.9C188.098 63.45 188.013 62.9567 188.013 62.42C188.013 61.8833 188.098 61.3917 188.268 60.945C188.438 60.495 188.678 60.1083 188.988 59.785C189.298 59.4583 189.67 59.205 190.103 59.025C190.536 58.845 191.016 58.755 191.543 58.755C192.07 58.755 192.55 58.845 192.983 59.025C193.42 59.205 193.793 59.4583 194.103 59.785C194.413 60.1083 194.653 60.495 194.823 60.945C194.993 61.3917 195.078 61.8833 195.078 62.42ZM194.083 62.42C194.083 61.98 194.023 61.585 193.903 61.235C193.783 60.885 193.613 60.59 193.393 60.35C193.173 60.1067 192.906 59.92 192.593 59.79C192.28 59.66 191.93 59.595 191.543 59.595C191.16 59.595 190.811 59.66 190.498 59.79C190.185 59.92 189.916 60.1067 189.693 60.35C189.473 60.59 189.303 60.885 189.183 61.235C189.063 61.585 189.003 61.98 189.003 62.42C189.003 62.86 189.063 63.255 189.183 63.605C189.303 63.9517 189.473 64.2467 189.693 64.49C189.916 64.73 190.185 64.915 190.498 65.045C190.811 65.1717 191.16 65.235 191.543 65.235C191.93 65.235 192.28 65.1717 192.593 65.045C192.906 64.915 193.173 64.73 193.393 64.49C193.613 64.2467 193.783 63.9517 193.903 63.605C194.023 63.255 194.083 62.86 194.083 62.42ZM202.271 58.835V66H201.786C201.709 66 201.644 65.9867 201.591 65.96C201.541 65.9333 201.491 65.8883 201.441 65.825L197.296 60.425C197.302 60.5083 197.307 60.59 197.311 60.67C197.314 60.75 197.316 60.825 197.316 60.895V66H196.466V58.835H196.966C197.009 58.835 197.046 58.8383 197.076 58.845C197.106 58.8483 197.132 58.8567 197.156 58.87C197.179 58.88 197.202 58.8967 197.226 58.92C197.249 58.94 197.274 58.9667 197.301 59L201.446 64.395C201.439 64.3083 201.432 64.225 201.426 64.145C201.422 64.0617 201.421 63.9833 201.421 63.91V58.835H202.271ZM208.948 59.65H206.628V66H205.663V59.65H203.338V58.835H208.948V59.65ZM213.113 63.34L211.988 60.425C211.954 60.3383 211.919 60.2383 211.883 60.125C211.846 60.0083 211.811 59.885 211.778 59.755C211.708 60.025 211.636 60.25 211.563 60.43L210.438 63.34H213.113ZM215.133 66H214.383C214.296 66 214.226 65.9783 214.173 65.935C214.119 65.8917 214.079 65.8367 214.053 65.77L213.383 64.04H210.168L209.498 65.77C209.478 65.83 209.439 65.8833 209.383 65.93C209.326 65.9767 209.256 66 209.173 66H208.423L211.288 58.835H212.268L215.133 66ZM220.92 64.52C220.973 64.52 221.02 64.5417 221.06 64.585L221.445 65C221.151 65.34 220.795 65.605 220.375 65.795C219.958 65.985 219.453 66.08 218.86 66.08C218.346 66.08 217.88 65.9917 217.46 65.815C217.04 65.635 216.681 65.385 216.385 65.065C216.088 64.7417 215.858 64.355 215.695 63.905C215.531 63.455 215.45 62.96 215.45 62.42C215.45 61.88 215.535 61.385 215.705 60.935C215.875 60.485 216.113 60.0983 216.42 59.775C216.73 59.4517 217.1 59.2017 217.53 59.025C217.96 58.845 218.435 58.755 218.955 58.755C219.465 58.755 219.915 58.8367 220.305 59C220.695 59.1633 221.038 59.385 221.335 59.665L221.015 60.11C220.995 60.1433 220.968 60.1717 220.935 60.195C220.905 60.215 220.863 60.225 220.81 60.225C220.75 60.225 220.676 60.1933 220.59 60.13C220.503 60.0633 220.39 59.99 220.25 59.91C220.11 59.83 219.935 59.7583 219.725 59.695C219.515 59.6283 219.256 59.595 218.95 59.595C218.58 59.595 218.241 59.66 217.935 59.79C217.628 59.9167 217.363 60.1017 217.14 60.345C216.92 60.5883 216.748 60.885 216.625 61.235C216.501 61.585 216.44 61.98 216.44 62.42C216.44 62.8667 216.503 63.265 216.63 63.615C216.76 63.965 216.935 64.2617 217.155 64.505C217.378 64.745 217.64 64.9283 217.94 65.055C218.243 65.1817 218.57 65.245 218.92 65.245C219.133 65.245 219.325 65.2333 219.495 65.21C219.668 65.1833 219.826 65.1433 219.97 65.09C220.116 65.0367 220.251 64.97 220.375 64.89C220.501 64.8067 220.626 64.7083 220.75 64.595C220.806 64.545 220.863 64.52 220.92 64.52ZM227.414 59.65H225.094V66H224.129V59.65H221.804V58.835H227.414V59.65ZM232.233 62.47C231.88 62.6567 231.613 62.8833 231.433 63.15C231.257 63.4167 231.168 63.7067 231.168 64.02C231.168 64.2367 231.208 64.4283 231.288 64.595C231.368 64.7583 231.473 64.8967 231.603 65.01C231.733 65.1233 231.882 65.21 232.048 65.27C232.215 65.3267 232.385 65.355 232.558 65.355C232.932 65.355 233.267 65.2867 233.563 65.15C233.863 65.0133 234.125 64.83 234.348 64.6L232.233 62.47ZM236.853 66H235.988C235.892 66 235.813 65.9883 235.753 65.965C235.693 65.9417 235.628 65.8933 235.558 65.82L234.833 65.09C234.52 65.3933 234.158 65.635 233.748 65.815C233.342 65.9917 232.893 66.08 232.403 66.08C232.137 66.08 231.875 66.035 231.618 65.945C231.365 65.855 231.137 65.725 230.933 65.555C230.73 65.3817 230.567 65.1717 230.443 64.925C230.32 64.6783 230.258 64.4 230.258 64.09C230.258 63.8567 230.297 63.6367 230.373 63.43C230.453 63.22 230.563 63.0267 230.703 62.85C230.843 62.6733 231.008 62.515 231.198 62.375C231.388 62.235 231.597 62.115 231.823 62.015C231.62 61.755 231.47 61.505 231.373 61.265C231.277 61.0217 231.228 60.77 231.228 60.51C231.228 60.2667 231.272 60.0383 231.358 59.825C231.448 59.6117 231.577 59.4267 231.743 59.27C231.91 59.11 232.112 58.985 232.348 58.895C232.588 58.8017 232.857 58.755 233.153 58.755C233.417 58.755 233.657 58.7983 233.873 58.885C234.09 58.9683 234.277 59.08 234.433 59.22C234.59 59.36 234.713 59.5233 234.803 59.71C234.897 59.8933 234.95 60.085 234.963 60.285L234.408 60.395C234.298 60.4217 234.217 60.37 234.163 60.24C234.14 60.1533 234.102 60.0633 234.048 59.97C233.998 59.8767 233.932 59.7917 233.848 59.715C233.768 59.6383 233.67 59.575 233.553 59.525C233.44 59.475 233.307 59.45 233.153 59.45C232.987 59.45 232.835 59.4767 232.698 59.53C232.565 59.5833 232.45 59.6583 232.353 59.755C232.26 59.8483 232.188 59.96 232.138 60.09C232.088 60.2167 232.063 60.355 232.063 60.505C232.063 60.6217 232.077 60.7333 232.103 60.84C232.13 60.9467 232.172 61.055 232.228 61.165C232.288 61.275 232.363 61.3867 232.453 61.5C232.543 61.6133 232.652 61.7333 232.778 61.86L234.838 63.955C234.965 63.7283 235.067 63.4933 235.143 63.25C235.22 63.0033 235.27 62.7583 235.293 62.515C235.3 62.4517 235.32 62.4017 235.353 62.365C235.387 62.3283 235.433 62.31 235.493 62.31H236.038C236.035 62.6933 235.975 63.07 235.858 63.44C235.742 63.8067 235.573 64.1517 235.353 64.475L236.853 66ZM244.076 59.955C244.046 60.005 244.013 60.0433 243.976 60.07C243.943 60.0933 243.901 60.105 243.851 60.105C243.794 60.105 243.728 60.0767 243.651 60.02C243.574 59.9633 243.478 59.9017 243.361 59.835C243.248 59.765 243.109 59.7017 242.946 59.645C242.786 59.5883 242.591 59.56 242.361 59.56C242.144 59.56 241.953 59.59 241.786 59.65C241.623 59.7067 241.484 59.785 241.371 59.885C241.261 59.985 241.178 60.1033 241.121 60.24C241.064 60.3733 241.036 60.5183 241.036 60.675C241.036 60.875 241.084 61.0417 241.181 61.175C241.281 61.305 241.411 61.4167 241.571 61.51C241.734 61.6033 241.918 61.685 242.121 61.755C242.328 61.8217 242.538 61.8917 242.751 61.965C242.968 62.0383 243.178 62.1217 243.381 62.215C243.588 62.305 243.771 62.42 243.931 62.56C244.094 62.7 244.224 62.8717 244.321 63.075C244.421 63.2783 244.471 63.5283 244.471 63.825C244.471 64.1383 244.418 64.4333 244.311 64.71C244.204 64.9833 244.048 65.2217 243.841 65.425C243.638 65.6283 243.386 65.7883 243.086 65.905C242.789 66.0217 242.451 66.08 242.071 66.08C241.604 66.08 241.181 65.9967 240.801 65.83C240.421 65.66 240.096 65.4317 239.826 65.145L240.106 64.685C240.133 64.6483 240.164 64.6183 240.201 64.595C240.241 64.5683 240.284 64.555 240.331 64.555C240.374 64.555 240.423 64.5733 240.476 64.61C240.533 64.6433 240.596 64.6867 240.666 64.74C240.736 64.7933 240.816 64.8517 240.906 64.915C240.996 64.9783 241.098 65.0367 241.211 65.09C241.328 65.1433 241.459 65.1883 241.606 65.225C241.753 65.2583 241.918 65.275 242.101 65.275C242.331 65.275 242.536 65.2433 242.716 65.18C242.896 65.1167 243.048 65.0283 243.171 64.915C243.298 64.7983 243.394 64.66 243.461 64.5C243.528 64.34 243.561 64.1617 243.561 63.965C243.561 63.7483 243.511 63.5717 243.411 63.435C243.314 63.295 243.186 63.1783 243.026 63.085C242.866 62.9917 242.683 62.9133 242.476 62.85C242.269 62.7833 242.059 62.7167 241.846 62.65C241.633 62.58 241.423 62.5 241.216 62.41C241.009 62.32 240.826 62.2033 240.666 62.06C240.506 61.9167 240.376 61.7383 240.276 61.525C240.179 61.3083 240.131 61.0417 240.131 60.725C240.131 60.4717 240.179 60.2267 240.276 59.99C240.376 59.7533 240.519 59.5433 240.706 59.36C240.896 59.1767 241.128 59.03 241.401 58.92C241.678 58.81 241.994 58.755 242.351 58.755C242.751 58.755 243.114 58.8183 243.441 58.945C243.771 59.0717 244.061 59.255 244.311 59.495L244.076 59.955ZM248.606 65.23C248.902 65.23 249.167 65.18 249.401 65.08C249.634 64.98 249.831 64.84 249.991 64.66C250.154 64.48 250.277 64.265 250.361 64.015C250.447 63.765 250.491 63.49 250.491 63.19V58.835H251.456V63.19C251.456 63.6033 251.389 63.9867 251.256 64.34C251.126 64.6933 250.937 65 250.691 65.26C250.447 65.5167 250.149 65.7183 249.796 65.865C249.442 66.0117 249.046 66.085 248.606 66.085C248.166 66.085 247.769 66.0117 247.416 65.865C247.062 65.7183 246.762 65.5167 246.516 65.26C246.269 65 246.079 64.6933 245.946 64.34C245.816 63.9867 245.751 63.6033 245.751 63.19V58.835H246.716V63.185C246.716 63.485 246.757 63.76 246.841 64.01C246.927 64.26 247.051 64.475 247.211 64.655C247.374 64.835 247.572 64.9767 247.806 65.08C248.042 65.18 248.309 65.23 248.606 65.23ZM255.309 62.55C255.586 62.55 255.829 62.5133 256.039 62.44C256.253 62.3667 256.431 62.265 256.574 62.135C256.721 62.0017 256.831 61.8433 256.904 61.66C256.978 61.4767 257.014 61.275 257.014 61.055C257.014 60.5983 256.873 60.2417 256.589 59.985C256.309 59.7283 255.883 59.6 255.309 59.6H254.159V62.55H255.309ZM255.309 58.835C255.763 58.835 256.156 58.8883 256.489 58.995C256.826 59.0983 257.104 59.2467 257.324 59.44C257.544 59.6333 257.708 59.8667 257.814 60.14C257.924 60.4133 257.979 60.7183 257.979 61.055C257.979 61.3883 257.921 61.6933 257.804 61.97C257.688 62.2467 257.516 62.485 257.289 62.685C257.066 62.885 256.788 63.0417 256.454 63.155C256.124 63.265 255.743 63.32 255.309 63.32H254.159V66H253.194V58.835H255.309ZM261.315 62.55C261.592 62.55 261.835 62.5133 262.045 62.44C262.258 62.3667 262.437 62.265 262.58 62.135C262.727 62.0017 262.837 61.8433 262.91 61.66C262.983 61.4767 263.02 61.275 263.02 61.055C263.02 60.5983 262.878 60.2417 262.595 59.985C262.315 59.7283 261.888 59.6 261.315 59.6H260.165V62.55H261.315ZM261.315 58.835C261.768 58.835 262.162 58.8883 262.495 58.995C262.832 59.0983 263.11 59.2467 263.33 59.44C263.55 59.6333 263.713 59.8667 263.82 60.14C263.93 60.4133 263.985 60.7183 263.985 61.055C263.985 61.3883 263.927 61.6933 263.81 61.97C263.693 62.2467 263.522 62.485 263.295 62.685C263.072 62.885 262.793 63.0417 262.46 63.155C262.13 63.265 261.748 63.32 261.315 63.32H260.165V66H259.2V58.835H261.315ZM271.826 62.42C271.826 62.9567 271.741 63.45 271.571 63.9C271.401 64.3467 271.161 64.7317 270.851 65.055C270.541 65.3783 270.168 65.63 269.731 65.81C269.298 65.9867 268.818 66.075 268.291 66.075C267.764 66.075 267.284 65.9867 266.851 65.81C266.418 65.63 266.046 65.3783 265.736 65.055C265.426 64.7317 265.186 64.3467 265.016 63.9C264.846 63.45 264.761 62.9567 264.761 62.42C264.761 61.8833 264.846 61.3917 265.016 60.945C265.186 60.495 265.426 60.1083 265.736 59.785C266.046 59.4583 266.418 59.205 266.851 59.025C267.284 58.845 267.764 58.755 268.291 58.755C268.818 58.755 269.298 58.845 269.731 59.025C270.168 59.205 270.541 59.4583 270.851 59.785C271.161 60.1083 271.401 60.495 271.571 60.945C271.741 61.3917 271.826 61.8833 271.826 62.42ZM270.831 62.42C270.831 61.98 270.771 61.585 270.651 61.235C270.531 60.885 270.361 60.59 270.141 60.35C269.921 60.1067 269.654 59.92 269.341 59.79C269.028 59.66 268.678 59.595 268.291 59.595C267.908 59.595 267.559 59.66 267.246 59.79C266.933 59.92 266.664 60.1067 266.441 60.35C266.221 60.59 266.051 60.885 265.931 61.235C265.811 61.585 265.751 61.98 265.751 62.42C265.751 62.86 265.811 63.255 265.931 63.605C266.051 63.9517 266.221 64.2467 266.441 64.49C266.664 64.73 266.933 64.915 267.246 65.045C267.559 65.1717 267.908 65.235 268.291 65.235C268.678 65.235 269.028 65.1717 269.341 65.045C269.654 64.915 269.921 64.73 270.141 64.49C270.361 64.2467 270.531 63.9517 270.651 63.605C270.771 63.255 270.831 62.86 270.831 62.42ZM275.199 62.305C275.479 62.305 275.725 62.2717 275.939 62.205C276.155 62.135 276.335 62.0383 276.479 61.915C276.625 61.7883 276.735 61.6383 276.809 61.465C276.882 61.2917 276.919 61.1 276.919 60.89C276.919 60.4633 276.779 60.1417 276.499 59.925C276.219 59.7083 275.799 59.6 275.239 59.6H274.179V62.305H275.199ZM278.509 66H277.649C277.472 66 277.342 65.9317 277.259 65.795L275.399 63.235C275.342 63.155 275.28 63.0983 275.214 63.065C275.15 63.0283 275.05 63.01 274.914 63.01H274.179V66H273.214V58.835H275.239C275.692 58.835 276.084 58.8817 276.414 58.975C276.744 59.065 277.015 59.1967 277.229 59.37C277.445 59.5433 277.605 59.7533 277.709 60C277.812 60.2433 277.864 60.5167 277.864 60.82C277.864 61.0733 277.824 61.31 277.744 61.53C277.664 61.75 277.547 61.9483 277.394 62.125C277.244 62.2983 277.059 62.4467 276.839 62.57C276.622 62.6933 276.375 62.7867 276.099 62.85C276.222 62.92 276.329 63.0217 276.419 63.155L278.509 66ZM284.094 59.65H281.774V66H280.809V59.65H278.484V58.835H284.094V59.65Z" fill="black"/>
<rect x="70.5" y="31.5" width="13" height="16" rx="0.5" stroke="#2A2A2A"/>
<line x1="73" y1="35.5" x2="80.8974" y2="35.5" stroke="black"/>
<line x1="73" y1="38.5" x2="80.8974" y2="38.5" stroke="black"/>
<line x1="73" y1="41.5" x2="79" y2="41.5" stroke="black"/>
<rect x="223.66" y="39.4902" width="15.766" height="10.7872" rx="2" fill="#93CCF0"/>
<rect x="222.6" y="37.6" width="15.3957" height="10.417" rx="1.4" stroke="#0E0E0E" stroke-width="1.2"/>
<path d="M237.766 37.9628L230.399 42.8088L222.83 37.8301" stroke="#0E0E0E" stroke-width="1.2"/>
<path d="M217.03 35.4542C216.09 34.1337 214.81 36.0044 214.288 37.1048C213.504 39.5804 214.288 41.2318 217.03 45.3584C219.773 49.485 223.299 51.5483 224.866 51.9609C226.119 52.2911 227.478 50.4478 228 49.485L224.866 45.771L222.515 47.009L217.814 40.8191L219.381 38.7558L217.03 35.4542Z" fill="#F6F6F6"/>
<path d="M215.209 36.1168C214.213 34.7891 212.858 36.67 212.305 37.7764C211.475 40.2653 212.305 41.9257 215.209 46.0746C218.113 50.2236 221.848 52.298 223.507 52.7129C224.835 53.0448 226.273 51.1917 226.826 50.2236L223.507 46.4895L221.018 47.7342L216.039 41.5108L217.699 39.4363L215.209 36.1168Z" fill="#93CCF0"/>
<path d="M228.18 48.1063C227.868 47.502 227.439 46.8575 226.892 46.213L226.853 46.1727C226.58 45.8505 226.268 45.4879 225.839 45.206C225.293 44.8837 224.434 44.7226 223.771 45.1657L222.756 45.8908C222.678 45.9713 222.639 45.931 222.6 45.931C222.561 45.931 222.444 45.8908 222.288 45.7296C221.429 44.8837 220.649 43.9975 219.907 43.0307C219.868 42.9904 219.79 42.9099 219.712 42.789C219.517 42.5473 219.205 42.1445 218.932 41.7417C218.659 41.3389 218.581 41.1375 218.503 41.0166C218.581 40.9361 218.62 40.8958 218.698 40.8152L219.556 39.8887C220.141 39.2845 220.102 38.3983 219.907 37.7941C219.751 37.3107 219.478 36.9079 219.205 36.5856L219.166 36.505C218.659 35.8202 218.112 35.2563 217.644 34.8132C217.293 34.4909 216.707 34.0881 216.005 34.0076C215.537 33.9673 215.107 34.0881 214.756 34.3701C214.561 34.5312 214.366 34.6923 214.21 34.8938C213.664 35.5383 213.195 36.3439 213 37.1496C212.844 37.7538 212.805 38.4386 212.844 39.1234C213 40.8152 213.703 42.2251 214.444 43.4738C215.342 45.0448 216.278 46.3741 217.254 47.5423C219.322 49.9995 221.234 51.4497 223.107 52.0136C223.654 52.1748 224.161 52.2553 224.707 52.2553C224.824 52.2553 224.902 52.2553 225.019 52.2553C225.839 52.215 226.697 51.9331 227.4 51.49C227.634 51.3691 227.829 51.208 227.985 51.0469C228.336 50.7246 228.531 50.3218 228.57 49.8384C228.688 49.1939 228.375 48.5494 228.18 48.1063ZM227.166 50.1607C227.049 50.2815 226.892 50.4023 226.736 50.4829C226.19 50.8052 225.527 51.0469 224.941 51.0871C224.473 51.1274 223.966 51.0469 223.458 50.8857C221.819 50.4023 220.102 49.073 218.19 46.8172C217.254 45.7296 216.395 44.4406 215.498 42.9502C214.834 41.8223 214.21 40.5735 214.093 39.1234C214.054 38.5997 214.093 38.076 214.21 37.5927C214.366 36.9884 214.678 36.3439 215.107 35.8605C215.225 35.7397 215.381 35.5786 215.498 35.498C215.615 35.4174 215.693 35.3771 215.849 35.3771H215.888C216.161 35.4174 216.473 35.5786 216.825 35.8605C217.254 36.2231 217.722 36.7467 218.19 37.351L218.229 37.4315C218.424 37.7135 218.659 37.9552 218.737 38.2372C218.815 38.5191 218.815 38.8817 218.698 39.0025L217.839 39.929C217.761 40.0096 217.683 40.0901 217.605 40.1707L217.566 40.211L217.527 40.2513C217.371 40.4124 217.098 40.7749 217.293 41.3792C217.371 41.6209 217.488 41.9028 217.722 42.2251C218.073 42.7488 218.503 43.3127 218.776 43.635C218.854 43.7155 218.893 43.7961 218.932 43.8364C219.712 44.8434 220.532 45.8102 221.429 46.6561C221.859 47.0992 222.288 47.2201 222.639 47.2201C222.99 47.2201 223.263 47.0992 223.458 46.9381L224.473 46.213C224.629 46.0922 224.941 46.1727 225.214 46.2936C225.449 46.4144 225.644 46.6964 225.878 46.9381L225.917 47.0187C226.385 47.6229 226.775 48.1868 227.049 48.6702C227.283 49.1133 227.361 49.4356 227.361 49.7175C227.361 49.919 227.283 50.0398 227.166 50.1607Z" fill="#1E1C1C"/>
</svg>
