<svg width="320" height="80" viewBox="0 0 320 80" fill="none" xmlns="http://www.w3.org/2000/svg">
<g clip-path="url(#clip0_1777_247591)">
<path fill-rule="evenodd" clip-rule="evenodd" d="M26 0C11.6406 0 0 11.6406 0 26V80H320V26C320 11.6406 308.359 0 294 0H26Z" fill="#FBFBFC"/>
<rect width="156" height="4" transform="matrix(1 0 0 -1 0 80)" fill="#878E95"/>
<path d="M40.085 66H39.045C38.9283 66 38.8317 65.9717 38.755 65.915C38.6817 65.855 38.6283 65.7817 38.595 65.695L38.055 64.22H35.06L34.52 65.695C34.4933 65.7717 34.44 65.8417 34.36 65.905C34.2833 65.9683 34.1883 66 34.075 66H33.03L35.87 58.77H37.245L40.085 66ZM35.405 63.27H37.71L36.83 60.865C36.79 60.7583 36.745 60.6333 36.695 60.49C36.6483 60.3433 36.6017 60.185 36.555 60.015C36.5083 60.185 36.4617 60.3433 36.415 60.49C36.3717 60.6367 36.3283 60.765 36.285 60.875L35.405 63.27ZM40.8296 66V58.77H43.3246C43.7979 58.77 44.2013 58.815 44.5346 58.905C44.8713 58.995 45.1463 59.1233 45.3596 59.29C45.5763 59.4567 45.7346 59.6583 45.8346 59.895C45.9346 60.1317 45.9846 60.3983 45.9846 60.695C45.9846 60.865 45.9596 61.0283 45.9096 61.185C45.8596 61.3383 45.7813 61.4833 45.6746 61.62C45.5713 61.7533 45.4379 61.875 45.2746 61.985C45.1146 62.095 44.9229 62.1883 44.6996 62.265C45.6929 62.4883 46.1896 63.025 46.1896 63.875C46.1896 64.1817 46.1313 64.465 46.0146 64.725C45.8979 64.985 45.7279 65.21 45.5046 65.4C45.2813 65.5867 45.0063 65.7333 44.6796 65.84C44.3529 65.9467 43.9796 66 43.5596 66H40.8296ZM42.1746 62.83V64.95H43.5396C43.7896 64.95 43.9979 64.92 44.1646 64.86C44.3346 64.8 44.4696 64.72 44.5696 64.62C44.6729 64.52 44.7463 64.4033 44.7896 64.27C44.8363 64.1367 44.8596 63.995 44.8596 63.845C44.8596 63.6883 44.8346 63.5483 44.7846 63.425C44.7346 63.2983 44.6563 63.1917 44.5496 63.105C44.4429 63.015 44.3063 62.9467 44.1396 62.9C43.9729 62.8533 43.7713 62.83 43.5346 62.83H42.1746ZM42.1746 61.9H43.2496C43.7063 61.9 44.0529 61.8167 44.2896 61.65C44.5263 61.4833 44.6446 61.2183 44.6446 60.855C44.6446 60.4783 44.5379 60.21 44.3246 60.05C44.1113 59.89 43.7779 59.81 43.3246 59.81H42.1746V61.9ZM54.2783 62.385C54.2783 62.915 54.1899 63.4067 54.0133 63.86C53.8366 64.31 53.5883 64.7 53.2683 65.03C52.9483 65.36 52.5633 65.6183 52.1133 65.805C51.6633 65.9883 51.1649 66.08 50.6183 66.08C50.0716 66.08 49.5716 65.9883 49.1183 65.805C48.6683 65.6183 48.2816 65.36 47.9583 65.03C47.6383 64.7 47.3899 64.31 47.2133 63.86C47.0366 63.4067 46.9483 62.915 46.9483 62.385C46.9483 61.855 47.0366 61.365 47.2133 60.915C47.3899 60.4617 47.6383 60.07 47.9583 59.74C48.2816 59.41 48.6683 59.1533 49.1183 58.97C49.5716 58.7833 50.0716 58.69 50.6183 58.69C51.1649 58.69 51.6633 58.7833 52.1133 58.97C52.5633 59.1567 52.9483 59.415 53.2683 59.745C53.5883 60.0717 53.8366 60.4617 54.0133 60.915C54.1899 61.365 54.2783 61.855 54.2783 62.385ZM52.8983 62.385C52.8983 61.9883 52.8449 61.6333 52.7383 61.32C52.6349 61.0033 52.4849 60.735 52.2883 60.515C52.0916 60.295 51.8516 60.1267 51.5683 60.01C51.2883 59.8933 50.9716 59.835 50.6183 59.835C50.2649 59.835 49.9466 59.8933 49.6633 60.01C49.3799 60.1267 49.1383 60.295 48.9383 60.515C48.7416 60.735 48.5899 61.0033 48.4833 61.32C48.3766 61.6333 48.3233 61.9883 48.3233 62.385C48.3233 62.7817 48.3766 63.1383 48.4833 63.455C48.5899 63.7683 48.7416 64.035 48.9383 64.255C49.1383 64.4717 49.3799 64.6383 49.6633 64.755C49.9466 64.8717 50.2649 64.93 50.6183 64.93C50.9716 64.93 51.2883 64.8717 51.5683 64.755C51.8516 64.6383 52.0916 64.4717 52.2883 64.255C52.4849 64.035 52.6349 63.7683 52.7383 63.455C52.8449 63.1383 52.8983 62.7817 52.8983 62.385ZM58.2513 64.915C58.5113 64.915 58.743 64.8717 58.9463 64.785C59.153 64.6983 59.3263 64.5767 59.4663 64.42C59.6097 64.2633 59.718 64.0733 59.7913 63.85C59.868 63.6267 59.9063 63.3767 59.9063 63.1V58.77H61.2513V63.1C61.2513 63.53 61.1813 63.9283 61.0413 64.295C60.9047 64.6583 60.7063 64.9733 60.4463 65.24C60.1863 65.5033 59.8713 65.71 59.5013 65.86C59.1313 66.0067 58.7147 66.08 58.2513 66.08C57.788 66.08 57.3713 66.0067 57.0013 65.86C56.6313 65.71 56.3163 65.5033 56.0563 65.24C55.7997 64.9733 55.6013 64.6583 55.4613 64.295C55.3247 63.9283 55.2563 63.53 55.2563 63.1V58.77H56.6013V63.095C56.6013 63.3717 56.638 63.6217 56.7113 63.845C56.788 64.0683 56.8963 64.26 57.0363 64.42C57.1763 64.5767 57.348 64.6983 57.5513 64.785C57.758 64.8717 57.9913 64.915 58.2513 64.915ZM67.7117 58.77V59.875H65.5367V66H64.1917V59.875H62.0067V58.77H67.7117ZM75.5926 58.77V59.875H73.4176V66H72.0726V59.875H69.8876V58.77H75.5926ZM82.5448 66H81.1898V62.84H77.7998V66H76.4448V58.77H77.7998V61.88H81.1898V58.77H82.5448V66ZM88.5634 58.77V59.84H85.3584V61.845H87.8834V62.88H85.3584V64.925H88.5634V66H84.0034V58.77H88.5634ZM95.5347 60.085C95.498 60.1583 95.4547 60.21 95.4047 60.24C95.358 60.27 95.3014 60.285 95.2347 60.285C95.168 60.285 95.093 60.26 95.0097 60.21C94.9264 60.1567 94.828 60.0983 94.7147 60.035C94.6014 59.9717 94.468 59.915 94.3147 59.865C94.1647 59.8117 93.9864 59.785 93.7797 59.785C93.593 59.785 93.4297 59.8083 93.2897 59.855C93.153 59.8983 93.0364 59.96 92.9397 60.04C92.8464 60.12 92.7764 60.2167 92.7297 60.33C92.683 60.44 92.6597 60.5617 92.6597 60.695C92.6597 60.865 92.7064 61.0067 92.7997 61.12C92.8964 61.2333 93.023 61.33 93.1797 61.41C93.3364 61.49 93.5147 61.5617 93.7147 61.625C93.9147 61.6883 94.118 61.7567 94.3247 61.83C94.5347 61.9 94.7397 61.9833 94.9397 62.08C95.1397 62.1733 95.318 62.2933 95.4747 62.44C95.6314 62.5833 95.7564 62.76 95.8497 62.97C95.9464 63.18 95.9947 63.435 95.9947 63.735C95.9947 64.0617 95.938 64.3683 95.8247 64.655C95.7147 64.9383 95.5514 65.1867 95.3347 65.4C95.1214 65.61 94.8597 65.7767 94.5497 65.9C94.2397 66.02 93.8847 66.08 93.4847 66.08C93.2547 66.08 93.028 66.0567 92.8047 66.01C92.5814 65.9667 92.3664 65.9033 92.1597 65.82C91.9564 65.7367 91.7647 65.6367 91.5847 65.52C91.408 65.4033 91.2497 65.2733 91.1097 65.13L91.4997 64.485C91.5364 64.4383 91.5797 64.4 91.6297 64.37C91.683 64.3367 91.7414 64.32 91.8047 64.32C91.888 64.32 91.978 64.355 92.0747 64.425C92.1714 64.4917 92.2847 64.5667 92.4147 64.65C92.548 64.7333 92.703 64.81 92.8797 64.88C93.0597 64.9467 93.2747 64.98 93.5247 64.98C93.908 64.98 94.2047 64.89 94.4147 64.71C94.6247 64.5267 94.7297 64.265 94.7297 63.925C94.7297 63.735 94.6814 63.58 94.5847 63.46C94.4914 63.34 94.3664 63.24 94.2097 63.16C94.053 63.0767 93.8747 63.0067 93.6747 62.95C93.4747 62.8933 93.2714 62.8317 93.0647 62.765C92.858 62.6983 92.6547 62.6183 92.4547 62.525C92.2547 62.4317 92.0764 62.31 91.9197 62.16C91.763 62.01 91.6364 61.8233 91.5397 61.6C91.4464 61.3733 91.3997 61.095 91.3997 60.765C91.3997 60.5017 91.4514 60.245 91.5547 59.995C91.6614 59.745 91.8147 59.5233 92.0147 59.33C92.218 59.1367 92.4664 58.9817 92.7597 58.865C93.053 58.7483 93.388 58.69 93.7647 58.69C94.1914 58.69 94.5847 58.7567 94.9447 58.89C95.3047 59.0233 95.6114 59.21 95.8647 59.45L95.5347 60.085ZM102.116 58.77V59.875H99.941V66H98.596V59.875H96.411V58.77H102.116ZM105.878 64.915C106.138 64.915 106.37 64.8717 106.573 64.785C106.78 64.6983 106.953 64.5767 107.093 64.42C107.237 64.2633 107.345 64.0733 107.418 63.85C107.495 63.6267 107.533 63.3767 107.533 63.1V58.77H108.878V63.1C108.878 63.53 108.808 63.9283 108.668 64.295C108.532 64.6583 108.333 64.9733 108.073 65.24C107.813 65.5033 107.498 65.71 107.128 65.86C106.758 66.0067 106.342 66.08 105.878 66.08C105.415 66.08 104.998 66.0067 104.628 65.86C104.258 65.71 103.943 65.5033 103.683 65.24C103.427 64.9733 103.228 64.6583 103.088 64.295C102.952 63.9283 102.883 63.53 102.883 63.1V58.77H104.228V63.095C104.228 63.3717 104.265 63.6217 104.338 63.845C104.415 64.0683 104.523 64.26 104.663 64.42C104.803 64.5767 104.975 64.6983 105.178 64.785C105.385 64.8717 105.618 64.915 105.878 64.915ZM116.664 62.385C116.664 62.915 116.575 63.4017 116.399 63.845C116.222 64.2883 115.974 64.67 115.654 64.99C115.334 65.31 114.949 65.5583 114.499 65.735C114.049 65.9117 113.55 66 113.004 66H110.244V58.77H113.004C113.55 58.77 114.049 58.86 114.499 59.04C114.949 59.2167 115.334 59.465 115.654 59.785C115.974 60.1017 116.222 60.4817 116.399 60.925C116.575 61.3683 116.664 61.855 116.664 62.385ZM115.289 62.385C115.289 61.9883 115.235 61.6333 115.129 61.32C115.022 61.0033 114.87 60.7367 114.674 60.52C114.477 60.3 114.237 60.1317 113.954 60.015C113.674 59.8983 113.357 59.84 113.004 59.84H111.599V64.93H113.004C113.357 64.93 113.674 64.8717 113.954 64.755C114.237 64.6383 114.477 64.4717 114.674 64.255C114.87 64.035 115.022 63.7683 115.129 63.455C115.235 63.1383 115.289 62.7817 115.289 62.385ZM120.529 63.19V66H119.184V63.19L116.549 58.77H117.734C117.851 58.77 117.942 58.7983 118.009 58.855C118.079 58.9117 118.137 58.9833 118.184 59.07L119.509 61.485C119.586 61.6283 119.652 61.765 119.709 61.895C119.766 62.0217 119.817 62.1467 119.864 62.27C119.907 62.1433 119.956 62.0167 120.009 61.89C120.066 61.76 120.132 61.625 120.209 61.485L121.524 59.07C121.561 58.9967 121.616 58.9283 121.689 58.865C121.762 58.8017 121.856 58.77 121.969 58.77H123.159L120.529 63.19Z" fill="#4A5056"/>
<path d="M81.7083 48.8751H82.5417V45.7501H81.7083V48.8751ZM82.125 44.9376C82.2361 44.9376 82.3333 44.8959 82.4167 44.8126C82.5 44.7292 82.5417 44.6251 82.5417 44.5001C82.5417 44.389 82.5 44.2917 82.4167 44.2084C82.3333 44.1251 82.2361 44.0834 82.125 44.0834C82 44.0834 81.8993 44.1251 81.8229 44.2084C81.7465 44.2917 81.7083 44.389 81.7083 44.5001C81.7083 44.6251 81.7465 44.7292 81.8229 44.8126C81.8993 44.8959 82 44.9376 82.125 44.9376V44.9376ZM72.75 34.9167V41.0626V40.9792V49.0834V34.9167V38.7917V34.9167ZM74.8125 43.2501H78.2917C78.4583 43.014 78.6458 42.7917 78.8542 42.5834C79.0625 42.3751 79.2847 42.1806 79.5208 42.0001H74.8125V43.2501ZM74.8125 46.7917H77.375C77.3472 46.5973 77.3368 46.3924 77.3437 46.1772C77.3507 45.9619 77.3681 45.7501 77.3958 45.5417H74.8125V46.7917ZM72.75 50.3334C72.4167 50.3334 72.125 50.2084 71.875 49.9584C71.625 49.7084 71.5 49.4167 71.5 49.0834V34.9167C71.5 34.5834 71.625 34.2917 71.875 34.0417C72.125 33.7917 72.4167 33.6667 72.75 33.6667H80.2708L84.8333 38.2292V41.4584C84.6389 41.3751 84.4375 41.2987 84.2292 41.2292C84.0208 41.1598 83.8056 41.1042 83.5833 41.0626V38.7917H79.6458V34.9167H72.75V49.0834H78.1458C78.2986 49.3195 78.4653 49.5417 78.6458 49.7501C78.8264 49.9584 79.0278 50.1529 79.25 50.3334H72.75ZM82.6458 42.2292C83.7708 42.2292 84.7257 42.6216 85.5104 43.4063C86.2951 44.1911 86.6875 45.1459 86.6875 46.2709C86.6875 47.3959 86.2951 48.3508 85.5104 49.1355C84.7257 49.9202 83.7708 50.3126 82.6458 50.3126C81.5208 50.3126 80.566 49.9202 79.7812 49.1355C78.9965 48.3508 78.6042 47.3959 78.6042 46.2709C78.6042 45.1459 78.9965 44.1911 79.7812 43.4063C80.566 42.6216 81.5208 42.2292 82.6458 42.2292Z" fill="#9499C7"/>
<path d="M72 34H80L84 38.5V43L80 44.5L80.5 49.5H72V34Z" fill="#9499C7" fill-opacity="0.3"/>
<path d="M188.92 64.52C188.973 64.52 189.022 64.5417 189.065 64.585L189.445 65C189.152 65.34 188.795 65.605 188.375 65.795C187.958 65.985 187.455 66.08 186.865 66.08C186.348 66.08 185.88 65.9917 185.46 65.815C185.04 65.635 184.682 65.385 184.385 65.065C184.088 64.7417 183.858 64.355 183.695 63.905C183.532 63.455 183.45 62.96 183.45 62.42C183.45 61.88 183.537 61.385 183.71 60.935C183.887 60.485 184.133 60.0983 184.45 59.775C184.767 59.4517 185.145 59.2017 185.585 59.025C186.028 58.845 186.517 58.755 187.05 58.755C187.577 58.755 188.03 58.8367 188.41 59C188.793 59.1633 189.133 59.385 189.43 59.665L189.115 60.11C189.092 60.1433 189.065 60.1717 189.035 60.195C189.005 60.215 188.962 60.225 188.905 60.225C188.862 60.225 188.815 60.21 188.765 60.18C188.718 60.1467 188.662 60.1067 188.595 60.06C188.528 60.0133 188.45 59.9633 188.36 59.91C188.27 59.8567 188.163 59.8067 188.04 59.76C187.917 59.7133 187.773 59.675 187.61 59.645C187.447 59.6117 187.258 59.595 187.045 59.595C186.662 59.595 186.31 59.6617 185.99 59.795C185.673 59.925 185.4 60.1117 185.17 60.355C184.94 60.5983 184.76 60.895 184.63 61.245C184.503 61.595 184.44 61.9867 184.44 62.42C184.44 62.8667 184.503 63.265 184.63 63.615C184.76 63.965 184.935 64.2617 185.155 64.505C185.378 64.745 185.642 64.9283 185.945 65.055C186.248 65.1817 186.575 65.245 186.925 65.245C187.138 65.245 187.33 65.2333 187.5 65.21C187.67 65.1833 187.827 65.1433 187.97 65.09C188.117 65.0367 188.252 64.97 188.375 64.89C188.502 64.8067 188.628 64.7083 188.755 64.595C188.812 64.545 188.867 64.52 188.92 64.52ZM197.371 62.42C197.371 62.9567 197.286 63.45 197.116 63.9C196.946 64.3467 196.706 64.7317 196.396 65.055C196.086 65.3783 195.712 65.63 195.276 65.81C194.842 65.9867 194.362 66.075 193.836 66.075C193.309 66.075 192.829 65.9867 192.396 65.81C191.962 65.63 191.591 65.3783 191.281 65.055C190.971 64.7317 190.731 64.3467 190.561 63.9C190.391 63.45 190.306 62.9567 190.306 62.42C190.306 61.8833 190.391 61.3917 190.561 60.945C190.731 60.495 190.971 60.1083 191.281 59.785C191.591 59.4583 191.962 59.205 192.396 59.025C192.829 58.845 193.309 58.755 193.836 58.755C194.362 58.755 194.842 58.845 195.276 59.025C195.712 59.205 196.086 59.4583 196.396 59.785C196.706 60.1083 196.946 60.495 197.116 60.945C197.286 61.3917 197.371 61.8833 197.371 62.42ZM196.376 62.42C196.376 61.98 196.316 61.585 196.196 61.235C196.076 60.885 195.906 60.59 195.686 60.35C195.466 60.1067 195.199 59.92 194.886 59.79C194.572 59.66 194.222 59.595 193.836 59.595C193.452 59.595 193.104 59.66 192.791 59.79C192.477 59.92 192.209 60.1067 191.986 60.35C191.766 60.59 191.596 60.885 191.476 61.235C191.356 61.585 191.296 61.98 191.296 62.42C191.296 62.86 191.356 63.255 191.476 63.605C191.596 63.9517 191.766 64.2467 191.986 64.49C192.209 64.73 192.477 64.915 192.791 65.045C193.104 65.1717 193.452 65.235 193.836 65.235C194.222 65.235 194.572 65.1717 194.886 65.045C195.199 64.915 195.466 64.73 195.686 64.49C195.906 64.2467 196.076 63.9517 196.196 63.605C196.316 63.255 196.376 62.86 196.376 62.42ZM199.194 58.835C199.281 58.835 199.344 58.8467 199.384 58.87C199.428 58.89 199.476 58.9333 199.529 59L203.679 64.4C203.669 64.3133 203.663 64.23 203.659 64.15C203.656 64.0667 203.654 63.9867 203.654 63.91V58.835H204.504V66H204.014C203.938 66 203.873 65.9867 203.819 65.96C203.769 65.9333 203.719 65.8883 203.669 65.825L199.524 60.43C199.531 60.5133 199.536 60.595 199.539 60.675C199.543 60.755 199.544 60.8283 199.544 60.895V66H198.694V58.835H199.194ZM211.133 58.835V59.65H208.818V66H207.848V59.65H205.523V58.835H211.133ZM217.382 66H216.632C216.546 66 216.476 65.9783 216.422 65.935C216.369 65.8917 216.329 65.8367 216.302 65.77L215.632 64.04H212.417L211.747 65.77C211.724 65.83 211.684 65.8833 211.627 65.93C211.571 65.9767 211.501 66 211.417 66H210.667L213.532 58.835H214.517L217.382 66ZM212.687 63.34H215.362L214.237 60.425C214.164 60.245 214.092 60.02 214.022 59.75C213.986 59.8867 213.949 60.0133 213.912 60.13C213.879 60.2433 213.846 60.3433 213.812 60.43L212.687 63.34ZM223.119 64.52C223.173 64.52 223.221 64.5417 223.264 64.585L223.644 65C223.351 65.34 222.994 65.605 222.574 65.795C222.158 65.985 221.654 66.08 221.064 66.08C220.548 66.08 220.079 65.9917 219.659 65.815C219.239 65.635 218.881 65.385 218.584 65.065C218.288 64.7417 218.058 64.355 217.894 63.905C217.731 63.455 217.649 62.96 217.649 62.42C217.649 61.88 217.736 61.385 217.909 60.935C218.086 60.485 218.333 60.0983 218.649 59.775C218.966 59.4517 219.344 59.2017 219.784 59.025C220.228 58.845 220.716 58.755 221.249 58.755C221.776 58.755 222.229 58.8367 222.609 59C222.993 59.1633 223.333 59.385 223.629 59.665L223.314 60.11C223.291 60.1433 223.264 60.1717 223.234 60.195C223.204 60.215 223.161 60.225 223.104 60.225C223.061 60.225 223.014 60.21 222.964 60.18C222.918 60.1467 222.861 60.1067 222.794 60.06C222.728 60.0133 222.649 59.9633 222.559 59.91C222.469 59.8567 222.363 59.8067 222.239 59.76C222.116 59.7133 221.973 59.675 221.809 59.645C221.646 59.6117 221.458 59.595 221.244 59.595C220.861 59.595 220.509 59.6617 220.189 59.795C219.873 59.925 219.599 60.1117 219.369 60.355C219.139 60.5983 218.959 60.895 218.829 61.245C218.703 61.595 218.639 61.9867 218.639 62.42C218.639 62.8667 218.703 63.265 218.829 63.615C218.959 63.965 219.134 64.2617 219.354 64.505C219.578 64.745 219.841 64.9283 220.144 65.055C220.448 65.1817 220.774 65.245 221.124 65.245C221.338 65.245 221.529 65.2333 221.699 65.21C221.869 65.1833 222.026 65.1433 222.169 65.09C222.316 65.0367 222.451 64.97 222.574 64.89C222.701 64.8067 222.828 64.7083 222.954 64.595C223.011 64.545 223.066 64.52 223.119 64.52ZM229.795 58.835V59.65H227.48V66H226.51V59.65H224.185V58.835H229.795ZM235.177 58.755C235.44 58.755 235.68 58.7983 235.897 58.885C236.114 58.9683 236.3 59.08 236.457 59.22C236.617 59.36 236.742 59.5233 236.832 59.71C236.925 59.8933 236.979 60.085 236.992 60.285L236.437 60.395C236.42 60.3983 236.405 60.4 236.392 60.4C236.349 60.4 236.307 60.3883 236.267 60.365C236.23 60.3417 236.204 60.3 236.187 60.24C236.164 60.1533 236.125 60.0633 236.072 59.97C236.022 59.8767 235.955 59.7917 235.872 59.715C235.792 59.6383 235.694 59.575 235.577 59.525C235.464 59.475 235.33 59.45 235.177 59.45C235.01 59.45 234.86 59.4767 234.727 59.53C234.594 59.5833 234.479 59.6583 234.382 59.755C234.289 59.8483 234.215 59.96 234.162 60.09C234.112 60.2167 234.087 60.355 234.087 60.505C234.087 60.6217 234.1 60.7333 234.127 60.84C234.157 60.9467 234.2 61.055 234.257 61.165C234.314 61.2717 234.387 61.3833 234.477 61.5C234.567 61.6133 234.675 61.7333 234.802 61.86L236.862 63.955C236.989 63.7317 237.089 63.4983 237.162 63.255C237.239 63.0083 237.29 62.7617 237.317 62.515C237.324 62.4517 237.344 62.4017 237.377 62.365C237.41 62.3283 237.457 62.31 237.517 62.31H238.067C238.06 62.6933 237.999 63.07 237.882 63.44C237.765 63.81 237.597 64.1567 237.377 64.48L238.877 66H238.017C237.92 66 237.842 65.9883 237.782 65.965C237.722 65.9417 237.655 65.8933 237.582 65.82L236.862 65.095C236.549 65.3983 236.187 65.6383 235.777 65.815C235.37 65.9917 234.922 66.08 234.432 66.08C234.165 66.08 233.904 66.035 233.647 65.945C233.39 65.855 233.16 65.725 232.957 65.555C232.757 65.3817 232.595 65.1717 232.472 64.925C232.349 64.6783 232.287 64.4 232.287 64.09C232.287 63.8567 232.325 63.6367 232.402 63.43C232.482 63.22 232.59 63.0267 232.727 62.85C232.867 62.6733 233.032 62.515 233.222 62.375C233.412 62.235 233.62 62.115 233.847 62.015C233.644 61.7583 233.494 61.5083 233.397 61.265C233.3 61.0217 233.252 60.77 233.252 60.51C233.252 60.2667 233.295 60.0383 233.382 59.825C233.472 59.6117 233.6 59.4267 233.767 59.27C233.934 59.11 234.135 58.985 234.372 58.895C234.612 58.8017 234.88 58.755 235.177 58.755ZM233.192 64.02C233.192 64.2367 233.232 64.4283 233.312 64.595C233.392 64.7583 233.497 64.8967 233.627 65.01C233.757 65.1233 233.905 65.21 234.072 65.27C234.239 65.3267 234.409 65.355 234.582 65.355C234.955 65.355 235.29 65.2867 235.587 65.15C235.884 65.0133 236.145 64.8317 236.372 64.605L234.257 62.47C233.904 62.66 233.637 62.8883 233.457 63.155C233.28 63.4183 233.192 63.7067 233.192 64.02ZM245.382 59.955C245.352 60.005 245.32 60.0433 245.287 60.07C245.253 60.0933 245.21 60.105 245.157 60.105C245.1 60.105 245.033 60.0767 244.957 60.02C244.883 59.9633 244.788 59.9017 244.672 59.835C244.558 59.765 244.42 59.7017 244.257 59.645C244.097 59.5883 243.902 59.56 243.672 59.56C243.455 59.56 243.263 59.59 243.097 59.65C242.93 59.7067 242.79 59.785 242.677 59.885C242.567 59.985 242.483 60.1033 242.427 60.24C242.37 60.3733 242.342 60.5183 242.342 60.675C242.342 60.875 242.39 61.0417 242.487 61.175C242.587 61.305 242.717 61.4167 242.877 61.51C243.04 61.6033 243.223 61.685 243.427 61.755C243.633 61.8217 243.843 61.8917 244.057 61.965C244.273 62.0383 244.483 62.1217 244.687 62.215C244.893 62.305 245.077 62.42 245.237 62.56C245.4 62.7 245.53 62.8717 245.627 63.075C245.727 63.2783 245.777 63.5283 245.777 63.825C245.777 64.1383 245.723 64.4333 245.617 64.71C245.51 64.9833 245.353 65.2217 245.147 65.425C244.943 65.6283 244.692 65.7883 244.392 65.905C244.095 66.0217 243.757 66.08 243.377 66.08C242.913 66.08 242.49 65.9967 242.107 65.83C241.727 65.66 241.402 65.4317 241.132 65.145L241.412 64.685C241.438 64.6483 241.47 64.6183 241.507 64.595C241.547 64.5683 241.59 64.555 241.637 64.555C241.707 64.555 241.787 64.5933 241.877 64.67C241.967 64.7433 242.078 64.825 242.212 64.915C242.348 65.005 242.512 65.0883 242.702 65.165C242.895 65.2383 243.13 65.275 243.407 65.275C243.637 65.275 243.842 65.2433 244.022 65.18C244.202 65.1167 244.353 65.0283 244.477 64.915C244.603 64.7983 244.7 64.66 244.767 64.5C244.833 64.34 244.867 64.1617 244.867 63.965C244.867 63.7483 244.817 63.5717 244.717 63.435C244.62 63.295 244.492 63.1783 244.332 63.085C244.172 62.9917 243.988 62.9133 243.782 62.85C243.578 62.7833 243.368 62.7167 243.152 62.65C242.938 62.58 242.728 62.5 242.522 62.41C242.318 62.32 242.137 62.2033 241.977 62.06C241.817 61.9167 241.687 61.7383 241.587 61.525C241.49 61.3083 241.442 61.0417 241.442 60.725C241.442 60.4717 241.49 60.2267 241.587 59.99C241.687 59.7533 241.83 59.5433 242.017 59.36C242.203 59.1767 242.433 59.03 242.707 58.92C242.983 58.81 243.3 58.755 243.657 58.755C244.057 58.755 244.422 58.8183 244.752 58.945C245.082 59.0717 245.37 59.255 245.617 59.495L245.382 59.955ZM249.8 65.23C250.096 65.23 250.361 65.18 250.595 65.08C250.828 64.98 251.025 64.84 251.185 64.66C251.348 64.48 251.471 64.265 251.555 64.015C251.641 63.765 251.685 63.49 251.685 63.19V58.835H252.65V63.19C252.65 63.6033 252.583 63.9867 252.45 64.34C252.32 64.6933 252.131 65 251.885 65.26C251.641 65.5167 251.343 65.7183 250.99 65.865C250.636 66.0117 250.24 66.085 249.8 66.085C249.36 66.085 248.963 66.0117 248.61 65.865C248.256 65.7183 247.956 65.5167 247.71 65.26C247.463 65 247.273 64.6933 247.14 64.34C247.01 63.9867 246.945 63.6033 246.945 63.19V58.835H247.91V63.185C247.91 63.485 247.951 63.76 248.035 64.01C248.121 64.26 248.245 64.475 248.405 64.655C248.568 64.835 248.766 64.9767 249 65.08C249.236 65.18 249.503 65.23 249.8 65.23ZM255.384 63.32V66H254.419V58.835H256.534C256.988 58.835 257.381 58.8883 257.714 58.995C258.051 59.0983 258.329 59.2467 258.549 59.44C258.769 59.6333 258.933 59.8667 259.039 60.14C259.149 60.4133 259.204 60.7183 259.204 61.055C259.204 61.3883 259.146 61.6933 259.029 61.97C258.913 62.2467 258.741 62.485 258.514 62.685C258.291 62.885 258.013 63.0417 257.679 63.155C257.346 63.265 256.964 63.32 256.534 63.32H255.384ZM255.384 62.55H256.534C256.811 62.55 257.054 62.5133 257.264 62.44C257.478 62.3667 257.656 62.265 257.799 62.135C257.943 62.0017 258.051 61.8433 258.124 61.66C258.198 61.4767 258.234 61.275 258.234 61.055C258.234 60.5983 258.093 60.2417 257.809 59.985C257.529 59.7283 257.104 59.6 256.534 59.6H255.384V62.55ZM261.498 63.32V66H260.533V58.835H262.648C263.101 58.835 263.494 58.8883 263.828 58.995C264.164 59.0983 264.443 59.2467 264.663 59.44C264.883 59.6333 265.046 59.8667 265.153 60.14C265.263 60.4133 265.318 60.7183 265.318 61.055C265.318 61.3883 265.259 61.6933 265.143 61.97C265.026 62.2467 264.854 62.485 264.628 62.685C264.404 62.885 264.126 63.0417 263.793 63.155C263.459 63.265 263.078 63.32 262.648 63.32H261.498ZM261.498 62.55H262.648C262.924 62.55 263.168 62.5133 263.378 62.44C263.591 62.3667 263.769 62.265 263.913 62.135C264.056 62.0017 264.164 61.8433 264.238 61.66C264.311 61.4767 264.348 61.275 264.348 61.055C264.348 60.5983 264.206 60.2417 263.923 59.985C263.643 59.7283 263.218 59.6 262.648 59.6H261.498V62.55ZM273.201 62.42C273.201 62.9567 273.116 63.45 272.946 63.9C272.776 64.3467 272.536 64.7317 272.226 65.055C271.916 65.3783 271.542 65.63 271.106 65.81C270.672 65.9867 270.192 66.075 269.666 66.075C269.139 66.075 268.659 65.9867 268.226 65.81C267.792 65.63 267.421 65.3783 267.111 65.055C266.801 64.7317 266.561 64.3467 266.391 63.9C266.221 63.45 266.136 62.9567 266.136 62.42C266.136 61.8833 266.221 61.3917 266.391 60.945C266.561 60.495 266.801 60.1083 267.111 59.785C267.421 59.4583 267.792 59.205 268.226 59.025C268.659 58.845 269.139 58.755 269.666 58.755C270.192 58.755 270.672 58.845 271.106 59.025C271.542 59.205 271.916 59.4583 272.226 59.785C272.536 60.1083 272.776 60.495 272.946 60.945C273.116 61.3917 273.201 61.8833 273.201 62.42ZM272.206 62.42C272.206 61.98 272.146 61.585 272.026 61.235C271.906 60.885 271.736 60.59 271.516 60.35C271.296 60.1067 271.029 59.92 270.716 59.79C270.402 59.66 270.052 59.595 269.666 59.595C269.282 59.595 268.934 59.66 268.621 59.79C268.307 59.92 268.039 60.1067 267.816 60.35C267.596 60.59 267.426 60.885 267.306 61.235C267.186 61.585 267.126 61.98 267.126 62.42C267.126 62.86 267.186 63.255 267.306 63.605C267.426 63.9517 267.596 64.2467 267.816 64.49C268.039 64.73 268.307 64.915 268.621 65.045C268.934 65.1717 269.282 65.235 269.666 65.235C270.052 65.235 270.402 65.1717 270.716 65.045C271.029 64.915 271.296 64.73 271.516 64.49C271.736 64.2467 271.906 63.9517 272.026 63.605C272.146 63.255 272.206 62.86 272.206 62.42ZM275.589 63.01V66H274.624V58.835H276.649C277.103 58.835 277.494 58.8817 277.824 58.975C278.154 59.065 278.426 59.1967 278.639 59.37C278.856 59.5433 279.016 59.7533 279.119 60C279.223 60.2433 279.274 60.5167 279.274 60.82C279.274 61.0733 279.234 61.31 279.154 61.53C279.074 61.75 278.958 61.9483 278.804 62.125C278.654 62.2983 278.469 62.4467 278.249 62.57C278.033 62.6933 277.786 62.7867 277.509 62.85C277.629 62.92 277.736 63.0217 277.829 63.155L279.919 66H279.059C278.883 66 278.753 65.9317 278.669 65.795L276.809 63.235C276.753 63.155 276.691 63.0983 276.624 63.065C276.558 63.0283 276.458 63.01 276.324 63.01H275.589ZM275.589 62.305H276.604C276.888 62.305 277.136 62.2717 277.349 62.205C277.566 62.135 277.746 62.0383 277.889 61.915C278.036 61.7883 278.146 61.6383 278.219 61.465C278.293 61.2917 278.329 61.1 278.329 60.89C278.329 60.4633 278.188 60.1417 277.904 59.925C277.624 59.7083 277.206 59.6 276.649 59.6H275.589V62.305ZM285.576 58.835V59.65H283.261V66H282.291V59.65H279.966V58.835H285.576Z" fill="#4A5056"/>
<g clip-path="url(#clip1_1777_247591)">
<path opacity="0.3" d="M234.584 34.5C231.134 34.5 228.334 37.3 228.334 40.75C228.334 44.2 231.134 47 234.584 47H235.834V48.9167C238.867 47 240.834 43.85 240.834 40.75C240.834 37.3 238.034 34.5 234.584 34.5ZM235.417 45.75H233.751V44.0833H235.417V45.75ZM235.417 42.8333H233.751C233.751 40.125 236.251 40.3333 236.251 38.6667C236.251 37.75 235.501 37 234.584 37C233.667 37 232.917 37.75 232.917 38.6667H231.251C231.251 36.825 232.742 35.3333 234.584 35.3333C236.426 35.3333 237.917 36.825 237.917 38.6667C237.917 40.75 235.417 40.9583 235.417 42.8333Z" fill="#878E95"/>
<path d="M234.583 32.8333C230.216 32.8333 226.666 36.3833 226.666 40.7499C226.666 44.9749 229.991 48.4416 234.166 48.6583V51.6583L235.358 51.0833C239.633 49.0249 242.499 44.8749 242.499 40.7499C242.499 36.3833 238.949 32.8333 234.583 32.8333ZM235.833 48.9166V46.9999H234.583C231.133 46.9999 228.333 44.1999 228.333 40.7499C228.333 37.2999 231.133 34.4999 234.583 34.4999C238.033 34.4999 240.833 37.2999 240.833 40.7499C240.833 43.8583 238.866 47.0083 235.833 48.9166ZM233.749 44.0833H235.416V45.7499H233.749V44.0833ZM234.583 35.3333C232.741 35.3333 231.249 36.8249 231.249 38.6666H232.916C232.916 37.7499 233.666 36.9999 234.583 36.9999C235.499 36.9999 236.249 37.7499 236.249 38.6666C236.249 40.3333 233.749 40.1249 233.749 42.8333H235.416C235.416 40.9583 237.916 40.7499 237.916 38.6666C237.916 36.8249 236.424 35.3333 234.583 35.3333Z" fill="#878E95"/>
</g>
<path d="M320 80H0V76H320V80Z" fill="#EAECEE"/>
<rect width="156" height="4" transform="matrix(1 0 0 -1 0 80)" fill="#9499C7"/>
</g>
<defs>
<clipPath id="clip0_1777_247591">
<rect width="320" height="80" fill="white"/>
</clipPath>
<clipPath id="clip1_1777_247591">
<rect width="20" height="20" fill="white" transform="translate(225 32)"/>
</clipPath>
</defs>
</svg>
