<svg width="320" height="64" viewBox="0 0 320 64" fill="none" xmlns="http://www.w3.org/2000/svg">
<g filter="url(#filter0_d_338_174889)">
<rect width="320" height="64" fill="#FDFDFD"/>
<rect width="320" height="64" fill="#FDFDFD"/>
<path d="M38.72 43.8333V50.9983H37.75V47.7383H33.885V50.9983H32.915V43.8333H33.885V47.0283H37.75V43.8333H38.72ZM42.3205 45.8533C42.6905 45.8533 43.0238 45.915 43.3205 46.0383C43.6171 46.1616 43.8705 46.3366 44.0805 46.5633C44.2905 46.79 44.4505 47.065 44.5605 47.3883C44.6738 47.7083 44.7305 48.0666 44.7305 48.4633C44.7305 48.8633 44.6738 49.2233 44.5605 49.5433C44.4505 49.8633 44.2905 50.1366 44.0805 50.3633C43.8705 50.59 43.6171 50.765 43.3205 50.8883C43.0238 51.0083 42.6905 51.0683 42.3205 51.0683C41.9471 51.0683 41.6105 51.0083 41.3105 50.8883C41.0138 50.765 40.7605 50.59 40.5505 50.3633C40.3405 50.1366 40.1788 49.8633 40.0655 49.5433C39.9555 49.2233 39.9005 48.8633 39.9005 48.4633C39.9005 48.0666 39.9555 47.7083 40.0655 47.3883C40.1788 47.065 40.3405 46.79 40.5505 46.5633C40.7605 46.3366 41.0138 46.1616 41.3105 46.0383C41.6105 45.915 41.9471 45.8533 42.3205 45.8533ZM42.3205 50.3733C42.8205 50.3733 43.1938 50.2066 43.4405 49.8733C43.6871 49.5366 43.8105 49.0683 43.8105 48.4683C43.8105 47.865 43.6871 47.395 43.4405 47.0583C43.1938 46.7216 42.8205 46.5533 42.3205 46.5533C42.0671 46.5533 41.8455 46.5966 41.6555 46.6833C41.4688 46.77 41.3121 46.895 41.1855 47.0583C41.0621 47.2216 40.9688 47.4233 40.9055 47.6633C40.8455 47.9 40.8155 48.1683 40.8155 48.4683C40.8155 49.0683 40.9388 49.5366 41.1855 49.8733C41.4355 50.2066 41.8138 50.3733 42.3205 50.3733ZM45.8593 50.9983V45.9333H46.3943C46.521 45.9333 46.5993 45.995 46.6293 46.1183L46.6943 46.6383C46.881 46.4083 47.091 46.22 47.3243 46.0733C47.5576 45.9266 47.8276 45.8533 48.1343 45.8533C48.4743 45.8533 48.7493 45.9483 48.9593 46.1383C49.1726 46.3283 49.326 46.585 49.4193 46.9083C49.4926 46.725 49.586 46.5666 49.6993 46.4333C49.816 46.3 49.946 46.19 50.0893 46.1033C50.2326 46.0166 50.3843 45.9533 50.5443 45.9133C50.7076 45.8733 50.8726 45.8533 51.0393 45.8533C51.306 45.8533 51.5426 45.8966 51.7493 45.9833C51.9593 46.0666 52.136 46.19 52.2793 46.3533C52.426 46.5166 52.5376 46.7183 52.6143 46.9583C52.691 47.195 52.7293 47.4666 52.7293 47.7733V50.9983H51.8343V47.7733C51.8343 47.3766 51.7476 47.0766 51.5743 46.8733C51.401 46.6666 51.151 46.5633 50.8243 46.5633C50.6776 46.5633 50.5376 46.59 50.4043 46.6433C50.2743 46.6933 50.1593 46.7683 50.0593 46.8683C49.9593 46.9683 49.8793 47.095 49.8193 47.2483C49.7626 47.3983 49.7343 47.5733 49.7343 47.7733V50.9983H48.8393V47.7733C48.8393 47.3666 48.7576 47.0633 48.5943 46.8633C48.431 46.6633 48.1926 46.5633 47.8793 46.5633C47.6593 46.5633 47.456 46.6233 47.2693 46.7433C47.0826 46.86 46.911 47.02 46.7543 47.2233V50.9983H45.8593ZM57.472 47.9133C57.472 47.7066 57.442 47.5183 57.382 47.3483C57.3253 47.175 57.2403 47.0266 57.127 46.9033C57.017 46.7766 56.882 46.68 56.722 46.6133C56.562 46.5433 56.3803 46.5083 56.177 46.5083C55.7503 46.5083 55.412 46.6333 55.162 46.8833C54.9153 47.13 54.762 47.4733 54.702 47.9133H57.472ZM58.192 50.2883C58.082 50.4216 57.9503 50.5383 57.797 50.6383C57.6436 50.735 57.4786 50.815 57.302 50.8783C57.1286 50.9416 56.9486 50.9883 56.762 51.0183C56.5753 51.0516 56.3903 51.0683 56.207 51.0683C55.857 51.0683 55.5336 51.01 55.237 50.8933C54.9436 50.7733 54.6886 50.6 54.472 50.3733C54.2586 50.1433 54.092 49.86 53.972 49.5233C53.852 49.1866 53.792 48.8 53.792 48.3633C53.792 48.01 53.8453 47.68 53.952 47.3733C54.062 47.0666 54.2186 46.8016 54.422 46.5783C54.6253 46.3516 54.8736 46.175 55.167 46.0483C55.4603 45.9183 55.7903 45.8533 56.157 45.8533C56.4603 45.8533 56.7403 45.905 56.997 46.0083C57.257 46.1083 57.4803 46.255 57.667 46.4483C57.857 46.6383 58.0053 46.875 58.112 47.1583C58.2186 47.4383 58.272 47.7583 58.272 48.1183C58.272 48.2583 58.257 48.3516 58.227 48.3983C58.197 48.445 58.1403 48.4683 58.057 48.4683H54.672C54.682 48.7883 54.7253 49.0666 54.802 49.3033C54.882 49.54 54.992 49.7383 55.132 49.8983C55.272 50.055 55.4386 50.1733 55.632 50.2533C55.8253 50.33 56.042 50.3683 56.282 50.3683C56.5053 50.3683 56.697 50.3433 56.857 50.2933C57.0203 50.24 57.1603 50.1833 57.277 50.1233C57.3936 50.0633 57.4903 50.0083 57.567 49.9583C57.647 49.905 57.7153 49.8783 57.772 49.8783C57.8453 49.8783 57.902 49.9066 57.942 49.9633L58.192 50.2883Z" fill="#878E95"/>
<path fill-rule="evenodd" clip-rule="evenodd" d="M52.964 31.2073C52.0262 28.409 49.2599 26.3411 45.9252 26.3411C42.5905 26.3411 39.8242 28.409 38.8865 31.2073H37.8379C38.8061 27.8268 42.0601 25.3411 45.9252 25.3411C49.7904 25.3411 53.0444 27.8268 54.0125 31.2073H52.964Z" fill="#878E95"/>
<path fill-rule="evenodd" clip-rule="evenodd" d="M58.2658 26.3749L54.5998 28.3006L54.1348 27.4153L57.8008 25.4896L58.2658 26.3749Z" fill="#878E95"/>
<path fill-rule="evenodd" clip-rule="evenodd" d="M51.7302 19.4758L49.7695 23.1232L48.8887 22.6497L50.8494 19.0023L51.7302 19.4758Z" fill="#878E95"/>
<path fill-rule="evenodd" clip-rule="evenodd" d="M33.9805 24.1669L37.4086 26.4898L36.8477 27.3176L33.4196 24.9947L33.9805 24.1669Z" fill="#878E95"/>
<path fill-rule="evenodd" clip-rule="evenodd" d="M40.1067 19.4746L42.0305 23.1416L42.916 22.677L40.9922 19.01L40.1067 19.4746Z" fill="#878E95"/>
<path fill-rule="evenodd" clip-rule="evenodd" d="M29.9995 31.2083L61.8457 31.2083V32.2083L29.9995 32.2083V31.2083Z" fill="#878E95"/>
<path d="M97.935 48.32V51H96.97V43.835H99.085C99.5383 43.835 99.9317 43.8883 100.265 43.995C100.602 44.0983 100.88 44.2467 101.1 44.44C101.32 44.6333 101.483 44.8667 101.59 45.14C101.7 45.4133 101.755 45.7183 101.755 46.055C101.755 46.3883 101.697 46.6933 101.58 46.97C101.463 47.2467 101.292 47.485 101.065 47.685C100.842 47.885 100.563 48.0417 100.23 48.155C99.8967 48.265 99.515 48.32 99.085 48.32H97.935ZM97.935 47.55H99.085C99.3617 47.55 99.605 47.5133 99.815 47.44C100.028 47.3667 100.207 47.265 100.35 47.135C100.493 47.0017 100.602 46.8433 100.675 46.66C100.748 46.4767 100.785 46.275 100.785 46.055C100.785 45.5983 100.643 45.2417 100.36 44.985C100.08 44.7283 99.655 44.6 99.085 44.6H97.935V47.55ZM106.309 51H105.914C105.828 51 105.758 50.9867 105.704 50.96C105.651 50.9333 105.616 50.8767 105.599 50.79L105.499 50.32C105.366 50.44 105.236 50.5483 105.109 50.645C104.983 50.7383 104.849 50.8183 104.709 50.885C104.569 50.9483 104.419 50.9967 104.259 51.03C104.103 51.0633 103.928 51.08 103.734 51.08C103.538 51.08 103.353 51.0533 103.179 51C103.009 50.9433 102.861 50.86 102.734 50.75C102.608 50.64 102.506 50.5017 102.429 50.335C102.356 50.165 102.319 49.965 102.319 49.735C102.319 49.535 102.374 49.3433 102.484 49.16C102.594 48.9733 102.771 48.8083 103.014 48.665C103.261 48.5217 103.583 48.405 103.979 48.315C104.376 48.2217 104.861 48.1683 105.434 48.155V47.76C105.434 47.3667 105.349 47.07 105.179 46.87C105.013 46.6667 104.764 46.565 104.434 46.565C104.218 46.565 104.034 46.5933 103.884 46.65C103.738 46.7033 103.609 46.765 103.499 46.835C103.393 46.9017 103.299 46.9633 103.219 47.02C103.143 47.0733 103.066 47.1 102.989 47.1C102.929 47.1 102.876 47.085 102.829 47.055C102.786 47.0217 102.751 46.9817 102.724 46.935L102.564 46.65C102.844 46.38 103.146 46.1783 103.469 46.045C103.793 45.9117 104.151 45.845 104.544 45.845C104.828 45.845 105.079 45.8917 105.299 45.985C105.519 46.0783 105.704 46.2083 105.854 46.375C106.004 46.5417 106.118 46.7433 106.194 46.98C106.271 47.2167 106.309 47.4767 106.309 47.76V51ZM103.999 50.455C104.156 50.455 104.299 50.44 104.429 50.41C104.559 50.3767 104.681 50.3317 104.794 50.275C104.911 50.215 105.021 50.1433 105.124 50.06C105.231 49.9767 105.334 49.8817 105.434 49.775V48.72C105.024 48.7333 104.676 48.7667 104.389 48.82C104.103 48.87 103.869 48.9367 103.689 49.02C103.509 49.1033 103.378 49.2017 103.294 49.315C103.214 49.4283 103.174 49.555 103.174 49.695C103.174 49.8283 103.196 49.9433 103.239 50.04C103.283 50.1367 103.341 50.2167 103.414 50.28C103.488 50.34 103.574 50.385 103.674 50.415C103.774 50.4417 103.883 50.455 103.999 50.455ZM110.558 46.77C110.518 46.8433 110.456 46.88 110.373 46.88C110.323 46.88 110.266 46.8617 110.203 46.825C110.139 46.7883 110.061 46.7483 109.968 46.705C109.878 46.6583 109.769 46.6167 109.643 46.58C109.516 46.54 109.366 46.52 109.193 46.52C109.043 46.52 108.908 46.54 108.788 46.58C108.668 46.6167 108.564 46.6683 108.478 46.735C108.394 46.8017 108.329 46.88 108.283 46.97C108.239 47.0567 108.218 47.1517 108.218 47.255C108.218 47.385 108.254 47.4933 108.328 47.58C108.404 47.6667 108.504 47.7417 108.628 47.805C108.751 47.8683 108.891 47.925 109.048 47.975C109.204 48.0217 109.364 48.0733 109.528 48.13C109.694 48.1833 109.856 48.2433 110.013 48.31C110.169 48.3767 110.309 48.46 110.433 48.56C110.556 48.66 110.654 48.7833 110.728 48.93C110.804 49.0733 110.843 49.2467 110.843 49.45C110.843 49.6833 110.801 49.9 110.718 50.1C110.634 50.2967 110.511 50.4683 110.348 50.615C110.184 50.7583 109.984 50.8717 109.748 50.955C109.511 51.0383 109.238 51.08 108.928 51.08C108.574 51.08 108.254 51.0233 107.968 50.91C107.681 50.7933 107.438 50.645 107.238 50.465L107.448 50.125C107.474 50.0817 107.506 50.0483 107.543 50.025C107.579 50.0017 107.628 49.99 107.688 49.99C107.748 49.99 107.811 50.0133 107.878 50.06C107.944 50.1067 108.024 50.1583 108.118 50.215C108.214 50.2717 108.329 50.3233 108.463 50.37C108.599 50.4167 108.769 50.44 108.973 50.44C109.146 50.44 109.298 50.4183 109.428 50.375C109.558 50.3283 109.666 50.2667 109.753 50.19C109.839 50.1133 109.903 50.025 109.943 49.925C109.986 49.825 110.008 49.7183 110.008 49.605C110.008 49.465 109.969 49.35 109.893 49.26C109.819 49.1667 109.721 49.0883 109.598 49.025C109.474 48.9583 109.333 48.9017 109.173 48.855C109.016 48.805 108.854 48.7533 108.688 48.7C108.524 48.6467 108.363 48.5867 108.203 48.52C108.046 48.45 107.906 48.3633 107.783 48.26C107.659 48.1567 107.559 48.03 107.483 47.88C107.409 47.7267 107.373 47.5417 107.373 47.325C107.373 47.1317 107.413 46.9467 107.493 46.77C107.573 46.59 107.689 46.4333 107.843 46.3C107.996 46.1633 108.184 46.055 108.408 45.975C108.631 45.895 108.886 45.855 109.173 45.855C109.506 45.855 109.804 45.9083 110.068 46.015C110.334 46.1183 110.564 46.2617 110.758 46.445L110.558 46.77ZM113.529 51.08C113.129 51.08 112.82 50.9683 112.604 50.745C112.39 50.5217 112.284 50.2 112.284 49.78V46.68H111.674C111.62 46.68 111.575 46.665 111.539 46.635C111.502 46.6017 111.484 46.5517 111.484 46.485V46.13L112.314 46.025L112.519 44.46C112.525 44.41 112.547 44.37 112.584 44.34C112.62 44.3067 112.667 44.29 112.724 44.29H113.174V46.035H114.624V46.68H113.174V49.72C113.174 49.9333 113.225 50.0917 113.329 50.195C113.432 50.2983 113.565 50.35 113.729 50.35C113.822 50.35 113.902 50.3383 113.969 50.315C114.039 50.2883 114.099 50.26 114.149 50.23C114.199 50.2 114.24 50.1733 114.274 50.15C114.31 50.1233 114.342 50.11 114.369 50.11C114.415 50.11 114.457 50.1383 114.494 50.195L114.754 50.62C114.6 50.7633 114.415 50.8767 114.199 50.96C113.982 51.04 113.759 51.08 113.529 51.08ZM123.693 51H122.943C122.856 51 122.786 50.9783 122.733 50.935C122.679 50.8917 122.639 50.8367 122.613 50.77L121.943 49.04H118.728L118.058 50.77C118.034 50.83 117.994 50.8833 117.938 50.93C117.881 50.9767 117.811 51 117.728 51H116.978L119.843 43.835H120.828L123.693 51ZM118.998 48.34H121.673L120.548 45.425C120.474 45.245 120.403 45.02 120.333 44.75C120.296 44.8867 120.259 45.0133 120.223 45.13C120.189 45.2433 120.156 45.3433 120.123 45.43L118.998 48.34ZM127.91 46.835C127.883 46.8717 127.856 46.9 127.83 46.92C127.803 46.94 127.765 46.95 127.715 46.95C127.665 46.95 127.61 46.93 127.55 46.89C127.493 46.8467 127.42 46.8 127.33 46.75C127.24 46.7 127.13 46.655 127 46.615C126.873 46.5717 126.716 46.55 126.53 46.55C126.283 46.55 126.065 46.595 125.875 46.685C125.685 46.7717 125.525 46.8983 125.395 47.065C125.268 47.2317 125.171 47.4333 125.105 47.67C125.041 47.9067 125.01 48.1717 125.01 48.465C125.01 48.7717 125.045 49.045 125.115 49.285C125.185 49.5217 125.283 49.7217 125.41 49.885C125.536 50.045 125.69 50.1683 125.87 50.255C126.053 50.3383 126.258 50.38 126.485 50.38C126.701 50.38 126.88 50.355 127.02 50.305C127.16 50.2517 127.276 50.1933 127.37 50.13C127.463 50.0667 127.54 50.01 127.6 49.96C127.66 49.9067 127.72 49.88 127.78 49.88C127.856 49.88 127.913 49.9083 127.95 49.965L128.2 50.29C127.98 50.56 127.705 50.7583 127.375 50.885C127.045 51.0083 126.696 51.07 126.33 51.07C126.013 51.07 125.718 51.0117 125.445 50.895C125.175 50.7783 124.94 50.61 124.74 50.39C124.54 50.1667 124.381 49.8933 124.265 49.57C124.151 49.2467 124.095 48.8783 124.095 48.465C124.095 48.0883 124.146 47.74 124.25 47.42C124.356 47.1 124.51 46.825 124.71 46.595C124.913 46.3617 125.163 46.18 125.46 46.05C125.756 45.92 126.096 45.855 126.48 45.855C126.833 45.855 127.146 45.9133 127.42 46.03C127.693 46.1433 127.935 46.305 128.145 46.515L127.91 46.835ZM130.658 51.08C130.258 51.08 129.949 50.9683 129.733 50.745C129.519 50.5217 129.413 50.2 129.413 49.78V46.68H128.803C128.749 46.68 128.704 46.665 128.668 46.635C128.631 46.6017 128.613 46.5517 128.613 46.485V46.13L129.443 46.025L129.648 44.46C129.654 44.41 129.676 44.37 129.713 44.34C129.749 44.3067 129.796 44.29 129.853 44.29H130.303V46.035H131.753V46.68H130.303V49.72C130.303 49.9333 130.354 50.0917 130.458 50.195C130.561 50.2983 130.694 50.35 130.858 50.35C130.951 50.35 131.031 50.3383 131.098 50.315C131.168 50.2883 131.228 50.26 131.278 50.23C131.328 50.2 131.369 50.1733 131.403 50.15C131.439 50.1233 131.471 50.11 131.498 50.11C131.544 50.11 131.586 50.1383 131.623 50.195L131.883 50.62C131.729 50.7633 131.544 50.8767 131.328 50.96C131.111 51.04 130.888 51.08 130.658 51.08ZM133.843 45.935V51H132.953V45.935H133.843ZM134.043 44.345C134.043 44.4317 134.025 44.5133 133.988 44.59C133.955 44.6633 133.908 44.73 133.848 44.79C133.791 44.8467 133.725 44.8917 133.648 44.925C133.571 44.9583 133.49 44.975 133.403 44.975C133.316 44.975 133.235 44.9583 133.158 44.925C133.085 44.8917 133.018 44.8467 132.958 44.79C132.901 44.73 132.856 44.6633 132.823 44.59C132.79 44.5133 132.773 44.4317 132.773 44.345C132.773 44.2583 132.79 44.1767 132.823 44.1C132.856 44.02 132.901 43.9517 132.958 43.895C133.018 43.835 133.085 43.7883 133.158 43.755C133.235 43.7217 133.316 43.705 133.403 43.705C133.49 43.705 133.571 43.7217 133.648 43.755C133.725 43.7883 133.791 43.835 133.848 43.895C133.908 43.9517 133.955 44.02 133.988 44.1C134.025 44.1767 134.043 44.2583 134.043 44.345ZM134.772 45.935H135.502C135.572 45.935 135.63 45.9533 135.677 45.99C135.723 46.0267 135.757 46.07 135.777 46.12L137.062 49.38C137.108 49.5 137.145 49.62 137.172 49.74C137.198 49.86 137.223 49.9783 137.247 50.095C137.273 49.9783 137.302 49.86 137.332 49.74C137.362 49.62 137.4 49.5 137.447 49.38L138.747 46.12C138.767 46.0667 138.798 46.0233 138.842 45.99C138.888 45.9533 138.945 45.935 139.012 45.935H139.707L137.642 51H136.837L134.772 45.935ZM141.519 45.935V51H140.629V45.935H141.519ZM141.719 44.345C141.719 44.4317 141.7 44.5133 141.664 44.59C141.63 44.6633 141.584 44.73 141.524 44.79C141.467 44.8467 141.4 44.8917 141.324 44.925C141.247 44.9583 141.165 44.975 141.079 44.975C140.992 44.975 140.91 44.9583 140.834 44.925C140.76 44.8917 140.694 44.8467 140.634 44.79C140.577 44.73 140.532 44.6633 140.499 44.59C140.465 44.5133 140.449 44.4317 140.449 44.345C140.449 44.2583 140.465 44.1767 140.499 44.1C140.532 44.02 140.577 43.9517 140.634 43.895C140.694 43.835 140.76 43.7883 140.834 43.755C140.91 43.7217 140.992 43.705 141.079 43.705C141.165 43.705 141.247 43.7217 141.324 43.755C141.4 43.7883 141.467 43.835 141.524 43.895C141.584 43.9517 141.63 44.02 141.664 44.1C141.7 44.1767 141.719 44.2583 141.719 44.345ZM144.622 51.08C144.222 51.08 143.914 50.9683 143.697 50.745C143.484 50.5217 143.377 50.2 143.377 49.78V46.68H142.767C142.714 46.68 142.669 46.665 142.632 46.635C142.596 46.6017 142.577 46.5517 142.577 46.485V46.13L143.407 46.025L143.612 44.46C143.619 44.41 143.641 44.37 143.677 44.34C143.714 44.3067 143.761 44.29 143.817 44.29H144.267V46.035H145.717V46.68H144.267V49.72C144.267 49.9333 144.319 50.0917 144.422 50.195C144.526 50.2983 144.659 50.35 144.822 50.35C144.916 50.35 144.996 50.3383 145.062 50.315C145.132 50.2883 145.192 50.26 145.242 50.23C145.292 50.2 145.334 50.1733 145.367 50.15C145.404 50.1233 145.436 50.11 145.462 50.11C145.509 50.11 145.551 50.1383 145.587 50.195L145.847 50.62C145.694 50.7633 145.509 50.8767 145.292 50.96C145.076 51.04 144.852 51.08 144.622 51.08ZM147.808 45.935V51H146.918V45.935H147.808ZM148.008 44.345C148.008 44.4317 147.99 44.5133 147.953 44.59C147.92 44.6633 147.873 44.73 147.813 44.79C147.756 44.8467 147.69 44.8917 147.613 44.925C147.536 44.9583 147.455 44.975 147.368 44.975C147.281 44.975 147.2 44.9583 147.123 44.925C147.05 44.8917 146.983 44.8467 146.923 44.79C146.866 44.73 146.821 44.6633 146.788 44.59C146.755 44.5133 146.738 44.4317 146.738 44.345C146.738 44.2583 146.755 44.1767 146.788 44.1C146.821 44.02 146.866 43.9517 146.923 43.895C146.983 43.835 147.05 43.7883 147.123 43.755C147.2 43.7217 147.281 43.705 147.368 43.705C147.455 43.705 147.536 43.7217 147.613 43.755C147.69 43.7883 147.756 43.835 147.813 43.895C147.873 43.9517 147.92 44.02 147.953 44.1C147.99 44.1767 148.008 44.2583 148.008 44.345ZM151.381 45.855C151.685 45.855 151.965 45.9067 152.221 46.01C152.478 46.11 152.7 46.2567 152.886 46.45C153.073 46.64 153.218 46.8767 153.321 47.16C153.428 47.44 153.481 47.76 153.481 48.12C153.481 48.26 153.466 48.3533 153.436 48.4C153.406 48.4467 153.35 48.47 153.266 48.47H149.896C149.903 48.79 149.946 49.0683 150.026 49.305C150.106 49.5417 150.216 49.74 150.356 49.9C150.496 50.0567 150.663 50.175 150.856 50.255C151.05 50.3317 151.266 50.37 151.506 50.37C151.73 50.37 151.921 50.345 152.081 50.295C152.245 50.2417 152.385 50.185 152.501 50.125C152.618 50.065 152.715 50.01 152.791 49.96C152.871 49.9067 152.94 49.88 152.996 49.88C153.07 49.88 153.126 49.9083 153.166 49.965L153.416 50.29C153.306 50.4233 153.175 50.54 153.021 50.64C152.868 50.7367 152.703 50.8167 152.526 50.88C152.353 50.9433 152.173 50.99 151.986 51.02C151.8 51.0533 151.615 51.07 151.431 51.07C151.081 51.07 150.758 51.0117 150.461 50.895C150.168 50.775 149.913 50.6017 149.696 50.375C149.483 50.145 149.316 49.8617 149.196 49.525C149.076 49.1883 149.016 48.8017 149.016 48.365C149.016 48.0117 149.07 47.6817 149.176 47.375C149.286 47.0683 149.443 46.8033 149.646 46.58C149.85 46.3533 150.098 46.1767 150.391 46.05C150.685 45.92 151.015 45.855 151.381 45.855ZM151.401 46.51C150.971 46.51 150.633 46.635 150.386 46.885C150.14 47.1317 149.986 47.475 149.926 47.915H152.681C152.681 47.7083 152.653 47.52 152.596 47.35C152.54 47.1767 152.456 47.0283 152.346 46.905C152.236 46.7783 152.101 46.6817 151.941 46.615C151.785 46.545 151.605 46.51 151.401 46.51ZM157.521 46.77C157.481 46.8433 157.419 46.88 157.336 46.88C157.286 46.88 157.229 46.8617 157.166 46.825C157.102 46.7883 157.024 46.7483 156.931 46.705C156.841 46.6583 156.732 46.6167 156.606 46.58C156.479 46.54 156.329 46.52 156.156 46.52C156.006 46.52 155.871 46.54 155.751 46.58C155.631 46.6167 155.527 46.6683 155.441 46.735C155.357 46.8017 155.292 46.88 155.246 46.97C155.202 47.0567 155.181 47.1517 155.181 47.255C155.181 47.385 155.217 47.4933 155.291 47.58C155.367 47.6667 155.467 47.7417 155.591 47.805C155.714 47.8683 155.854 47.925 156.011 47.975C156.167 48.0217 156.327 48.0733 156.491 48.13C156.657 48.1833 156.819 48.2433 156.976 48.31C157.132 48.3767 157.272 48.46 157.396 48.56C157.519 48.66 157.617 48.7833 157.691 48.93C157.767 49.0733 157.806 49.2467 157.806 49.45C157.806 49.6833 157.764 49.9 157.681 50.1C157.597 50.2967 157.474 50.4683 157.311 50.615C157.147 50.7583 156.947 50.8717 156.711 50.955C156.474 51.0383 156.201 51.08 155.891 51.08C155.537 51.08 155.217 51.0233 154.931 50.91C154.644 50.7933 154.401 50.645 154.201 50.465L154.411 50.125C154.437 50.0817 154.469 50.0483 154.506 50.025C154.542 50.0017 154.591 49.99 154.651 49.99C154.711 49.99 154.774 50.0133 154.841 50.06C154.907 50.1067 154.987 50.1583 155.081 50.215C155.177 50.2717 155.292 50.3233 155.426 50.37C155.562 50.4167 155.732 50.44 155.936 50.44C156.109 50.44 156.261 50.4183 156.391 50.375C156.521 50.3283 156.629 50.2667 156.716 50.19C156.802 50.1133 156.866 50.025 156.906 49.925C156.949 49.825 156.971 49.7183 156.971 49.605C156.971 49.465 156.932 49.35 156.856 49.26C156.782 49.1667 156.684 49.0883 156.561 49.025C156.437 48.9583 156.296 48.9017 156.136 48.855C155.979 48.805 155.817 48.7533 155.651 48.7C155.487 48.6467 155.326 48.5867 155.166 48.52C155.009 48.45 154.869 48.3633 154.746 48.26C154.622 48.1567 154.522 48.03 154.446 47.88C154.372 47.7267 154.336 47.5417 154.336 47.325C154.336 47.1317 154.376 46.9467 154.456 46.77C154.536 46.59 154.652 46.4333 154.806 46.3C154.959 46.1633 155.147 46.055 155.371 45.975C155.594 45.895 155.849 45.855 156.136 45.855C156.469 45.855 156.767 45.9083 157.031 46.015C157.297 46.1183 157.527 46.2617 157.721 46.445L157.521 46.77Z" fill="#878E95"/>
<rect x="119.5" y="15.5" width="10.6316" height="14.8266" rx="0.5" fill="white" stroke="#878E95"/>
<rect x="116.5" y="18.5" width="10.6316" height="14.8266" rx="0.5" fill="white" stroke="#878E95"/>
<rect x="113.5" y="21.5" width="11" height="14" rx="0.5" fill="white" stroke="#878E95"/>
<path d="M118 27.2164L119.409 28.6667L122 26" stroke="#FDFDFD"/>
<circle cx="119" cy="29" r="3" fill="#878E95"/>
<path d="M118 28.2164L119.409 29.6667L122 27" stroke="#FDFDFD"/>
<path d="M185.655 45.085C185.615 45.155 185.572 45.2067 185.525 45.24C185.482 45.27 185.427 45.285 185.36 45.285C185.29 45.285 185.213 45.26 185.13 45.21C185.05 45.1567 184.953 45.0983 184.84 45.035C184.727 44.9717 184.593 44.915 184.44 44.865C184.29 44.8117 184.112 44.785 183.905 44.785C183.718 44.785 183.555 44.8083 183.415 44.855C183.275 44.8983 183.157 44.96 183.06 45.04C182.967 45.12 182.897 45.2167 182.85 45.33C182.803 45.44 182.78 45.5617 182.78 45.695C182.78 45.865 182.827 46.0067 182.92 46.12C183.017 46.2333 183.143 46.33 183.3 46.41C183.457 46.49 183.635 46.5617 183.835 46.625C184.035 46.6883 184.24 46.7567 184.45 46.83C184.66 46.9 184.865 46.9833 185.065 47.08C185.265 47.1733 185.443 47.2933 185.6 47.44C185.757 47.5833 185.882 47.76 185.975 47.97C186.072 48.18 186.12 48.435 186.12 48.735C186.12 49.0617 186.063 49.3683 185.95 49.655C185.84 49.9383 185.677 50.1867 185.46 50.4C185.247 50.61 184.985 50.7767 184.675 50.9C184.365 51.02 184.01 51.08 183.61 51.08C183.38 51.08 183.153 51.0567 182.93 51.01C182.707 50.9667 182.492 50.9033 182.285 50.82C182.082 50.7367 181.89 50.6367 181.71 50.52C181.53 50.4033 181.37 50.2733 181.23 50.13L181.625 49.485C181.658 49.4383 181.702 49.4 181.755 49.37C181.808 49.3367 181.865 49.32 181.925 49.32C182.008 49.32 182.098 49.355 182.195 49.425C182.292 49.4917 182.407 49.5667 182.54 49.65C182.673 49.7333 182.828 49.81 183.005 49.88C183.185 49.9467 183.4 49.98 183.65 49.98C184.033 49.98 184.33 49.89 184.54 49.71C184.75 49.5267 184.855 49.265 184.855 48.925C184.855 48.735 184.807 48.58 184.71 48.46C184.617 48.34 184.492 48.24 184.335 48.16C184.178 48.0767 184 48.0067 183.8 47.95C183.6 47.8933 183.397 47.8317 183.19 47.765C182.983 47.6983 182.78 47.6183 182.58 47.525C182.38 47.4317 182.202 47.31 182.045 47.16C181.888 47.01 181.762 46.8233 181.665 46.6C181.572 46.3733 181.525 46.095 181.525 45.765C181.525 45.5017 181.577 45.245 181.68 44.995C181.787 44.745 181.94 44.5233 182.14 44.33C182.34 44.1367 182.587 43.9817 182.88 43.865C183.173 43.7483 183.51 43.69 183.89 43.69C184.317 43.69 184.71 43.7567 185.07 43.89C185.43 44.0233 185.737 44.21 185.99 44.45L185.655 45.085ZM188.584 51.08C188.137 51.08 187.794 50.955 187.554 50.705C187.317 50.4517 187.199 50.1033 187.199 49.66V46.795H186.674C186.607 46.795 186.55 46.7733 186.504 46.73C186.457 46.6867 186.434 46.6217 186.434 46.535V46.045L187.259 45.91L187.519 44.51C187.535 44.4433 187.567 44.3917 187.614 44.355C187.66 44.3183 187.72 44.3 187.794 44.3H188.434V45.915H189.804V46.795H188.434V49.575C188.434 49.735 188.472 49.86 188.549 49.95C188.629 50.04 188.737 50.085 188.874 50.085C188.95 50.085 189.014 50.0767 189.064 50.06C189.117 50.04 189.162 50.02 189.199 50C189.239 49.98 189.274 49.9617 189.304 49.945C189.334 49.925 189.364 49.915 189.394 49.915C189.43 49.915 189.46 49.925 189.484 49.945C189.507 49.9617 189.532 49.9883 189.559 50.025L189.929 50.625C189.749 50.775 189.542 50.8883 189.309 50.965C189.075 51.0417 188.834 51.08 188.584 51.08ZM195.014 45.87V51H194.259C194.096 51 193.993 50.925 193.949 50.775L193.864 50.365C193.654 50.5783 193.423 50.7517 193.169 50.885C192.916 51.015 192.618 51.08 192.274 51.08C191.994 51.08 191.746 51.0333 191.529 50.94C191.316 50.8433 191.136 50.7083 190.989 50.535C190.843 50.3617 190.731 50.1567 190.654 49.92C190.581 49.68 190.544 49.4167 190.544 49.13V45.87H191.779V49.13C191.779 49.4433 191.851 49.6867 191.994 49.86C192.141 50.03 192.359 50.115 192.649 50.115C192.863 50.115 193.063 50.0683 193.249 49.975C193.436 49.8783 193.613 49.7467 193.779 49.58V45.87H195.014ZM199.459 47.18C199.319 47.01 199.166 46.89 198.999 46.82C198.836 46.75 198.659 46.715 198.469 46.715C198.282 46.715 198.114 46.75 197.964 46.82C197.814 46.89 197.686 46.9967 197.579 47.14C197.472 47.28 197.391 47.46 197.334 47.68C197.277 47.8967 197.249 48.1533 197.249 48.45C197.249 48.75 197.272 49.005 197.319 49.215C197.369 49.4217 197.439 49.5917 197.529 49.725C197.619 49.855 197.729 49.95 197.859 50.01C197.989 50.0667 198.134 50.095 198.294 50.095C198.551 50.095 198.769 50.0417 198.949 49.935C199.129 49.8283 199.299 49.6767 199.459 49.48V47.18ZM200.694 43.57V51H199.939C199.776 51 199.672 50.925 199.629 50.775L199.524 50.28C199.317 50.5167 199.079 50.7083 198.809 50.855C198.542 51.0017 198.231 51.075 197.874 51.075C197.594 51.075 197.337 51.0167 197.104 50.9C196.871 50.7833 196.669 50.615 196.499 50.395C196.332 50.1717 196.202 49.8967 196.109 49.57C196.019 49.2433 195.974 48.87 195.974 48.45C195.974 48.07 196.026 47.7167 196.129 47.39C196.232 47.0633 196.381 46.78 196.574 46.54C196.767 46.3 196.999 46.1133 197.269 45.98C197.539 45.8433 197.842 45.775 198.179 45.775C198.466 45.775 198.711 45.82 198.914 45.91C199.117 46 199.299 46.1217 199.459 46.275V43.57H200.694ZM206.573 45.87L203.778 52.41C203.741 52.4967 203.693 52.5617 203.633 52.605C203.576 52.6517 203.488 52.675 203.368 52.675H202.448L203.408 50.615L201.333 45.87H202.418C202.514 45.87 202.589 45.8933 202.643 45.94C202.699 45.9867 202.741 46.04 202.768 46.1L203.858 48.76C203.894 48.85 203.924 48.94 203.948 49.03C203.974 49.12 203.999 49.2117 204.023 49.305C204.053 49.2117 204.083 49.12 204.113 49.03C204.143 48.9367 204.176 48.845 204.213 48.755L205.243 46.1C205.269 46.0333 205.313 45.9783 205.373 45.935C205.436 45.8917 205.506 45.87 205.583 45.87H206.573ZM210.644 45.87V51H209.404V45.87H210.644ZM210.814 44.375C210.814 44.4817 210.792 44.5817 210.749 44.675C210.706 44.7683 210.647 44.85 210.574 44.92C210.504 44.99 210.421 45.0467 210.324 45.09C210.227 45.13 210.124 45.15 210.014 45.15C209.907 45.15 209.806 45.13 209.709 45.09C209.616 45.0467 209.534 44.99 209.464 44.92C209.394 44.85 209.337 44.7683 209.294 44.675C209.254 44.5817 209.234 44.4817 209.234 44.375C209.234 44.265 209.254 44.1617 209.294 44.065C209.337 43.9683 209.394 43.885 209.464 43.815C209.534 43.745 209.616 43.69 209.709 43.65C209.806 43.6067 209.907 43.585 210.014 43.585C210.124 43.585 210.227 43.6067 210.324 43.65C210.421 43.69 210.504 43.745 210.574 43.815C210.647 43.885 210.706 43.9683 210.749 44.065C210.792 44.1617 210.814 44.265 210.814 44.375ZM213.058 46.5C213.161 46.3967 213.27 46.3017 213.383 46.215C213.5 46.125 213.621 46.05 213.748 45.99C213.878 45.9267 214.016 45.8783 214.163 45.845C214.31 45.8083 214.47 45.79 214.643 45.79C214.923 45.79 215.171 45.8383 215.388 45.935C215.605 46.0283 215.785 46.1617 215.928 46.335C216.075 46.505 216.185 46.71 216.258 46.95C216.335 47.1867 216.373 47.4483 216.373 47.735V51H215.138V47.735C215.138 47.4217 215.066 47.18 214.923 47.01C214.78 46.8367 214.561 46.75 214.268 46.75C214.055 46.75 213.855 46.7983 213.668 46.895C213.481 46.9917 213.305 47.1233 213.138 47.29V51H211.903V45.87H212.658C212.818 45.87 212.923 45.945 212.973 46.095L213.058 46.5ZM217.82 51V46.8L217.375 46.73C217.278 46.71 217.2 46.6767 217.14 46.63C217.083 46.58 217.055 46.51 217.055 46.42V45.915H217.82V45.535C217.82 45.2417 217.863 44.9783 217.95 44.745C218.04 44.5117 218.166 44.3133 218.33 44.15C218.496 43.9867 218.698 43.8617 218.935 43.775C219.171 43.6883 219.438 43.645 219.735 43.645C219.971 43.645 220.191 43.6767 220.395 43.74L220.37 44.36C220.366 44.4067 220.353 44.445 220.33 44.475C220.306 44.5017 220.275 44.5233 220.235 44.54C220.198 44.5533 220.155 44.5633 220.105 44.57C220.055 44.5733 220.001 44.575 219.945 44.575C219.798 44.575 219.666 44.5917 219.55 44.625C219.436 44.655 219.34 44.71 219.26 44.79C219.18 44.8667 219.118 44.97 219.075 45.1C219.035 45.2267 219.015 45.385 219.015 45.575V45.915H220.35V46.795H219.055V51H217.82ZM223.177 45.79C223.557 45.79 223.902 45.8517 224.212 45.975C224.525 46.0983 224.792 46.2733 225.012 46.5C225.235 46.7267 225.407 47.0033 225.527 47.33C225.647 47.6567 225.707 48.0217 225.707 48.425C225.707 48.8317 225.647 49.1983 225.527 49.525C225.407 49.8517 225.235 50.13 225.012 50.36C224.792 50.59 224.525 50.7667 224.212 50.89C223.902 51.0133 223.557 51.075 223.177 51.075C222.794 51.075 222.445 51.0133 222.132 50.89C221.819 50.7667 221.55 50.59 221.327 50.36C221.107 50.13 220.935 49.8517 220.812 49.525C220.692 49.1983 220.632 48.8317 220.632 48.425C220.632 48.0217 220.692 47.6567 220.812 47.33C220.935 47.0033 221.107 46.7267 221.327 46.5C221.55 46.2733 221.819 46.0983 222.132 45.975C222.445 45.8517 222.794 45.79 223.177 45.79ZM223.177 50.125C223.604 50.125 223.919 49.9817 224.122 49.695C224.329 49.4083 224.432 48.9883 224.432 48.435C224.432 47.8817 224.329 47.46 224.122 47.17C223.919 46.88 223.604 46.735 223.177 46.735C222.744 46.735 222.422 46.8817 222.212 47.175C222.005 47.465 221.902 47.885 221.902 48.435C221.902 48.985 222.005 49.405 222.212 49.695C222.422 49.9817 222.744 50.125 223.177 50.125Z" fill="#878E95"/>
<rect x="199" y="22" width="13" height="16" fill="#f1f3f5"/>
<rect x="197.5" y="19.5" width="13" height="16" rx="0.5" stroke="#878E95"/>
<line x1="200" y1="23.5" x2="207.897" y2="23.5" stroke="#878E95"/>
<line x1="200" y1="26.5" x2="207.897" y2="26.5" stroke="#878E95"/>
<line x1="200" y1="29.5" x2="207.897" y2="29.5" stroke="#878E95"/>
<line x1="200" y1="32.5" x2="207.897" y2="32.5" stroke="#878E95"/>
<rect x="200" y="18" width="8" height="3" fill="#878E95"/>
<path d="M277.959 23.9893C277.959 26.4687 275.949 28.4787 273.47 28.4787C270.99 28.4787 268.98 26.4687 268.98 23.9893C268.98 21.5099 270.99 19.5 273.47 19.5C275.949 19.5 277.959 21.5099 277.959 23.9893Z" stroke="#878E95"/>
<path d="M261.765 51H261.015C260.928 51 260.858 50.9783 260.805 50.935C260.752 50.8917 260.712 50.8367 260.685 50.77L260.015 49.04H256.8L256.13 50.77C256.107 50.83 256.067 50.8833 256.01 50.93C255.953 50.9767 255.883 51 255.8 51H255.05L257.915 43.835H258.9L261.765 51ZM257.07 48.34H259.745L258.62 45.425C258.547 45.245 258.475 45.02 258.405 44.75C258.368 44.8867 258.332 45.0133 258.295 45.13C258.262 45.2433 258.228 45.3433 258.195 45.43L257.07 48.34ZM265.982 46.835C265.955 46.8717 265.929 46.9 265.902 46.92C265.875 46.94 265.837 46.95 265.787 46.95C265.737 46.95 265.682 46.93 265.622 46.89C265.565 46.8467 265.492 46.8 265.402 46.75C265.312 46.7 265.202 46.655 265.072 46.615C264.945 46.5717 264.789 46.55 264.602 46.55C264.355 46.55 264.137 46.595 263.947 46.685C263.757 46.7717 263.597 46.8983 263.467 47.065C263.34 47.2317 263.244 47.4333 263.177 47.67C263.114 47.9067 263.082 48.1717 263.082 48.465C263.082 48.7717 263.117 49.045 263.187 49.285C263.257 49.5217 263.355 49.7217 263.482 49.885C263.609 50.045 263.762 50.1683 263.942 50.255C264.125 50.3383 264.33 50.38 264.557 50.38C264.774 50.38 264.952 50.355 265.092 50.305C265.232 50.2517 265.349 50.1933 265.442 50.13C265.535 50.0667 265.612 50.01 265.672 49.96C265.732 49.9067 265.792 49.88 265.852 49.88C265.929 49.88 265.985 49.9083 266.022 49.965L266.272 50.29C266.052 50.56 265.777 50.7583 265.447 50.885C265.117 51.0083 264.769 51.07 264.402 51.07C264.085 51.07 263.79 51.0117 263.517 50.895C263.247 50.7783 263.012 50.61 262.812 50.39C262.612 50.1667 262.454 49.8933 262.337 49.57C262.224 49.2467 262.167 48.8783 262.167 48.465C262.167 48.0883 262.219 47.74 262.322 47.42C262.429 47.1 262.582 46.825 262.782 46.595C262.985 46.3617 263.235 46.18 263.532 46.05C263.829 45.92 264.169 45.855 264.552 45.855C264.905 45.855 265.219 45.9133 265.492 46.03C265.765 46.1433 266.007 46.305 266.217 46.515L265.982 46.835ZM270.65 46.835C270.623 46.8717 270.597 46.9 270.57 46.92C270.543 46.94 270.505 46.95 270.455 46.95C270.405 46.95 270.35 46.93 270.29 46.89C270.233 46.8467 270.16 46.8 270.07 46.75C269.98 46.7 269.87 46.655 269.74 46.615C269.613 46.5717 269.457 46.55 269.27 46.55C269.023 46.55 268.805 46.595 268.615 46.685C268.425 46.7717 268.265 46.8983 268.135 47.065C268.008 47.2317 267.912 47.4333 267.845 47.67C267.782 47.9067 267.75 48.1717 267.75 48.465C267.75 48.7717 267.785 49.045 267.855 49.285C267.925 49.5217 268.023 49.7217 268.15 49.885C268.277 50.045 268.43 50.1683 268.61 50.255C268.793 50.3383 268.998 50.38 269.225 50.38C269.442 50.38 269.62 50.355 269.76 50.305C269.9 50.2517 270.017 50.1933 270.11 50.13C270.203 50.0667 270.28 50.01 270.34 49.96C270.4 49.9067 270.46 49.88 270.52 49.88C270.597 49.88 270.653 49.9083 270.69 49.965L270.94 50.29C270.72 50.56 270.445 50.7583 270.115 50.885C269.785 51.0083 269.437 51.07 269.07 51.07C268.753 51.07 268.458 51.0117 268.185 50.895C267.915 50.7783 267.68 50.61 267.48 50.39C267.28 50.1667 267.122 49.8933 267.005 49.57C266.892 49.2467 266.835 48.8783 266.835 48.465C266.835 48.0883 266.887 47.74 266.99 47.42C267.097 47.1 267.25 46.825 267.45 46.595C267.653 46.3617 267.903 46.18 268.2 46.05C268.497 45.92 268.837 45.855 269.22 45.855C269.573 45.855 269.887 45.9133 270.16 46.03C270.433 46.1433 270.675 46.305 270.885 46.515L270.65 46.835ZM273.913 45.855C274.283 45.855 274.616 45.9167 274.913 46.04C275.213 46.1633 275.466 46.3383 275.673 46.565C275.883 46.7917 276.043 47.0667 276.153 47.39C276.266 47.71 276.323 48.0683 276.323 48.465C276.323 48.865 276.266 49.225 276.153 49.545C276.043 49.865 275.883 50.1383 275.673 50.365C275.466 50.5917 275.213 50.7667 274.913 50.89C274.616 51.01 274.283 51.07 273.913 51.07C273.543 51.07 273.208 51.01 272.908 50.89C272.611 50.7667 272.358 50.5917 272.148 50.365C271.938 50.1383 271.776 49.865 271.663 49.545C271.549 49.225 271.493 48.865 271.493 48.465C271.493 48.0683 271.549 47.71 271.663 47.39C271.776 47.0667 271.938 46.7917 272.148 46.565C272.358 46.3383 272.611 46.1633 272.908 46.04C273.208 45.9167 273.543 45.855 273.913 45.855ZM273.913 50.375C274.413 50.375 274.786 50.2083 275.033 49.875C275.279 49.5383 275.403 49.07 275.403 48.47C275.403 47.8667 275.279 47.3967 275.033 47.06C274.786 46.7233 274.413 46.555 273.913 46.555C273.659 46.555 273.439 46.5983 273.253 46.685C273.066 46.7717 272.909 46.8967 272.783 47.06C272.659 47.2233 272.566 47.425 272.503 47.665C272.443 47.9017 272.413 48.17 272.413 48.47C272.413 48.77 272.443 49.0383 272.503 49.275C272.566 49.5117 272.659 49.7117 272.783 49.875C272.909 50.035 273.066 50.1583 273.253 50.245C273.439 50.3317 273.659 50.375 273.913 50.375ZM278.189 45.935V49.165C278.189 49.5483 278.278 49.845 278.454 50.055C278.631 50.265 278.898 50.37 279.254 50.37C279.514 50.37 279.759 50.3083 279.989 50.185C280.219 50.0617 280.431 49.89 280.624 49.67V45.935H281.514V51H280.984C280.858 51 280.778 50.9383 280.744 50.815L280.674 50.27C280.454 50.5133 280.208 50.71 279.934 50.86C279.661 51.0067 279.348 51.08 278.994 51.08C278.718 51.08 278.473 51.035 278.259 50.945C278.049 50.8517 277.873 50.7217 277.729 50.555C277.586 50.3883 277.478 50.1867 277.404 49.95C277.334 49.7133 277.299 49.4517 277.299 49.165V45.935H278.189ZM282.976 51V45.935H283.506C283.633 45.935 283.713 45.9967 283.746 46.12L283.816 46.67C284.036 46.4267 284.281 46.23 284.551 46.08C284.824 45.93 285.139 45.855 285.496 45.855C285.773 45.855 286.016 45.9017 286.226 45.995C286.439 46.085 286.616 46.215 286.756 46.385C286.899 46.5517 287.008 46.7533 287.081 46.99C287.154 47.2267 287.191 47.4883 287.191 47.775V51H286.301V47.775C286.301 47.3917 286.213 47.095 286.036 46.885C285.863 46.6717 285.596 46.565 285.236 46.565C284.973 46.565 284.726 46.6283 284.496 46.755C284.269 46.8817 284.059 47.0533 283.866 47.27V51H282.976ZM290.068 51.08C289.668 51.08 289.359 50.9683 289.143 50.745C288.929 50.5217 288.823 50.2 288.823 49.78V46.68H288.213C288.159 46.68 288.114 46.665 288.078 46.635C288.041 46.6017 288.023 46.5517 288.023 46.485V46.13L288.853 46.025L289.058 44.46C289.064 44.41 289.086 44.37 289.123 44.34C289.159 44.3067 289.206 44.29 289.263 44.29H289.713V46.035H291.163V46.68H289.713V49.72C289.713 49.9333 289.764 50.0917 289.868 50.195C289.971 50.2983 290.104 50.35 290.268 50.35C290.361 50.35 290.441 50.3383 290.508 50.315C290.578 50.2883 290.638 50.26 290.688 50.23C290.738 50.2 290.779 50.1733 290.813 50.15C290.849 50.1233 290.881 50.11 290.908 50.11C290.954 50.11 290.996 50.1383 291.033 50.195L291.293 50.62C291.139 50.7633 290.954 50.8767 290.738 50.96C290.521 51.04 290.298 51.08 290.068 51.08Z" fill="#878E95"/>
<path d="M273.471 30.8002C275.028 30.8002 276.464 30.2734 277.612 29.3917C279.204 30.5691 280.276 32.406 280.424 34.4982H266.518C266.666 32.406 267.738 30.5691 269.33 29.3917C270.477 30.2734 271.914 30.8002 273.471 30.8002Z" stroke="#878E95"/>
</g>
<defs>
<filter id="filter0_d_338_174889" x="-4" y="0" width="328" height="72" filterUnits="userSpaceOnUse" color-interpolation-filters="sRGB">
<feFlood flood-opacity="0" result="BackgroundImageFix"/>
<feColorMatrix in="SourceAlpha" type="matrix" values="0 0 0 0 0 0 0 0 0 0 0 0 0 0 0 0 0 0 127 0" result="hardAlpha"/>
<feOffset dy="4"/>
<feGaussianBlur stdDeviation="2"/>
<feColorMatrix type="matrix" values="0 0 0 0 0 0 0 0 0 0 0 0 0 0 0 0 0 0 0.25 0"/>
<feBlend mode="normal" in2="BackgroundImageFix" result="effect1_dropShadow_338_174889"/>
<feBlend mode="normal" in="SourceGraphic" in2="effect1_dropShadow_338_174889" result="shape"/>
</filter>
</defs>
</svg>
