<svg width="320" height="64" viewBox="0 0 320 64" fill="none" xmlns="http://www.w3.org/2000/svg">
<g filter="url(#filter0_d)">
<rect width="320" height="64" fill="#FDFDFD"/>
<rect width="320" height="64" fill="#FDFDFD"/>
<path d="M37.76 44.648H35.44V50.998H34.475V44.648H32.15V43.833H37.76V44.648ZM39.5275 45.853C39.8975 45.853 40.2308 45.9147 40.5275 46.038C40.8242 46.1614 41.0775 46.3364 41.2875 46.563C41.4975 46.7897 41.6575 47.0647 41.7675 47.388C41.8808 47.708 41.9375 48.0664 41.9375 48.463C41.9375 48.863 41.8808 49.223 41.7675 49.543C41.6575 49.863 41.4975 50.1364 41.2875 50.363C41.0775 50.5897 40.8242 50.7647 40.5275 50.888C40.2308 51.008 39.8975 51.068 39.5275 51.068C39.1542 51.068 38.8175 51.008 38.5175 50.888C38.2208 50.7647 37.9675 50.5897 37.7575 50.363C37.5475 50.1364 37.3858 49.863 37.2725 49.543C37.1625 49.223 37.1075 48.863 37.1075 48.463C37.1075 48.0664 37.1625 47.708 37.2725 47.388C37.3858 47.0647 37.5475 46.7897 37.7575 46.563C37.9675 46.3364 38.2208 46.1614 38.5175 46.038C38.8175 45.9147 39.1542 45.853 39.5275 45.853ZM39.5275 50.373C40.0275 50.373 40.4008 50.2064 40.6475 49.873C40.8942 49.5364 41.0175 49.068 41.0175 48.468C41.0175 47.8647 40.8942 47.3947 40.6475 47.058C40.4008 46.7214 40.0275 46.553 39.5275 46.553C39.2742 46.553 39.0525 46.5964 38.8625 46.683C38.6758 46.7697 38.5192 46.8947 38.3925 47.058C38.2692 47.2214 38.1758 47.423 38.1125 47.663C38.0525 47.8997 38.0225 48.168 38.0225 48.468C38.0225 49.068 38.1458 49.5364 38.3925 49.873C38.6425 50.2064 39.0208 50.373 39.5275 50.373ZM46.3663 47.138C46.1997 46.9147 46.0197 46.7597 45.8263 46.673C45.633 46.583 45.4163 46.538 45.1763 46.538C44.7063 46.538 44.3447 46.7064 44.0913 47.043C43.838 47.3797 43.7113 47.8597 43.7113 48.483C43.7113 48.813 43.7397 49.0964 43.7963 49.333C43.853 49.5664 43.9363 49.7597 44.0463 49.913C44.1563 50.063 44.2913 50.173 44.4513 50.243C44.6113 50.313 44.793 50.348 44.9963 50.348C45.2897 50.348 45.5447 50.2814 45.7613 50.148C45.9813 50.0147 46.183 49.8264 46.3663 49.583V47.138ZM47.2563 43.633V50.998H46.7263C46.5997 50.998 46.5197 50.9364 46.4863 50.813L46.4063 50.198C46.1897 50.458 45.943 50.668 45.6663 50.828C45.3897 50.988 45.0697 51.068 44.7063 51.068C44.4163 51.068 44.153 51.013 43.9163 50.903C43.6797 50.7897 43.478 50.6247 43.3113 50.408C43.1447 50.1914 43.0163 49.9214 42.9263 49.598C42.8363 49.2747 42.7913 48.903 42.7913 48.483C42.7913 48.1097 42.8413 47.763 42.9413 47.443C43.0413 47.1197 43.1847 46.8397 43.3713 46.603C43.558 46.3664 43.7863 46.1814 44.0563 46.048C44.3297 45.9114 44.6363 45.843 44.9763 45.843C45.2863 45.843 45.5513 45.8964 45.7713 46.003C45.9947 46.1064 46.193 46.2514 46.3663 46.438V43.633H47.2563ZM51.407 48.718C50.997 48.7314 50.647 48.7647 50.357 48.818C50.0704 48.868 49.8354 48.9347 49.652 49.018C49.472 49.1014 49.3404 49.1997 49.257 49.313C49.177 49.4264 49.137 49.553 49.137 49.693C49.137 49.8264 49.1587 49.9414 49.202 50.038C49.2454 50.1347 49.3037 50.2147 49.377 50.278C49.4537 50.338 49.542 50.383 49.642 50.413C49.7454 50.4397 49.8554 50.453 49.972 50.453C50.1287 50.453 50.272 50.438 50.402 50.408C50.532 50.3747 50.6537 50.328 50.767 50.268C50.8837 50.208 50.9937 50.1364 51.097 50.053C51.2037 49.9697 51.307 49.8747 51.407 49.768V48.718ZM48.532 46.648C48.812 46.378 49.1137 46.1764 49.437 46.043C49.7604 45.9097 50.1187 45.843 50.512 45.843C50.7954 45.843 51.047 45.8897 51.267 45.983C51.487 46.0764 51.672 46.2064 51.822 46.373C51.972 46.5397 52.0854 46.7414 52.162 46.978C52.2387 47.2147 52.277 47.4747 52.277 47.758V50.998H51.882C51.7954 50.998 51.7287 50.9847 51.682 50.958C51.6354 50.928 51.5987 50.8714 51.572 50.788L51.472 50.308C51.3387 50.4314 51.2087 50.5414 51.082 50.638C50.9554 50.7314 50.822 50.8114 50.682 50.878C50.542 50.9414 50.392 50.9897 50.232 51.023C50.0754 51.0597 49.9004 51.078 49.707 51.078C49.5104 51.078 49.3254 51.0514 49.152 50.998C48.9787 50.9414 48.827 50.858 48.697 50.748C48.5704 50.638 48.4687 50.4997 48.392 50.333C48.3187 50.163 48.282 49.963 48.282 49.733C48.282 49.533 48.337 49.3414 48.447 49.158C48.557 48.9714 48.7354 48.8064 48.982 48.663C49.2287 48.5197 49.5504 48.403 49.947 48.313C50.3437 48.2197 50.8304 48.1664 51.407 48.153V47.758C51.407 47.3647 51.322 47.068 51.152 46.868C50.982 46.6647 50.7337 46.563 50.407 46.563C50.187 46.563 50.002 46.5914 49.852 46.648C49.7054 46.7014 49.577 46.763 49.467 46.833C49.3604 46.8997 49.267 46.9614 49.187 47.018C49.1104 47.0714 49.0337 47.098 48.957 47.098C48.897 47.098 48.8454 47.083 48.802 47.053C48.7587 47.0197 48.722 46.9797 48.692 46.933L48.532 46.648ZM57.8855 45.933L55.0605 52.493C55.0305 52.5597 54.9922 52.613 54.9455 52.653C54.9022 52.693 54.8339 52.713 54.7405 52.713H54.0805L55.0055 50.703L52.9155 45.933H53.6855C53.7622 45.933 53.8222 45.953 53.8655 45.993C53.9122 46.0297 53.9439 46.0714 53.9605 46.118L55.3155 49.308C55.3689 49.448 55.4139 49.5947 55.4505 49.748C55.4972 49.5914 55.5472 49.443 55.6005 49.303L56.9155 46.118C56.9355 46.0647 56.9689 46.0214 57.0155 45.988C57.0655 45.9514 57.1205 45.933 57.1805 45.933H57.8855Z" fill="black"/>
<path fill-rule="evenodd" clip-rule="evenodd" d="M52.962 31.2071C52.0243 28.4088 49.2579 26.3408 45.9233 26.3408C42.5886 26.3408 39.8222 28.4088 38.8845 31.2071H37.8359C38.8041 27.8266 42.0581 25.3408 45.9233 25.3408C49.7884 25.3408 53.0424 27.8266 54.0106 31.2071H52.962Z" fill="#2A2A2A"/>
<path fill-rule="evenodd" clip-rule="evenodd" d="M58.2648 26.3747L54.5988 28.3003L54.1338 27.415L57.7998 25.4894L58.2648 26.3747Z" fill="#2A2A2A"/>
<path fill-rule="evenodd" clip-rule="evenodd" d="M51.7283 19.4755L49.7675 23.1229L48.8867 22.6494L50.8475 19.002L51.7283 19.4755Z" fill="#2A2A2A"/>
<path fill-rule="evenodd" clip-rule="evenodd" d="M33.9795 24.1666L37.4076 26.4895L36.8467 27.3174L33.4186 24.9945L33.9795 24.1666Z" fill="#2A2A2A"/>
<path fill-rule="evenodd" clip-rule="evenodd" d="M40.1057 19.4743L42.0295 23.1413L42.915 22.6768L40.9913 19.0098L40.1057 19.4743Z" fill="#2A2A2A"/>
<path fill-rule="evenodd" clip-rule="evenodd" d="M29.9985 31.208L61.8447 31.208V32.208L29.9985 32.208V31.208Z" fill="#2A2A2A"/>
<path d="M99.03 47.55C99.3067 47.55 99.55 47.5133 99.76 47.44C99.9733 47.3667 100.152 47.265 100.295 47.135C100.442 47.0017 100.552 46.8433 100.625 46.66C100.698 46.4767 100.735 46.275 100.735 46.055C100.735 45.5983 100.593 45.2417 100.31 44.985C100.03 44.7283 99.6033 44.6 99.03 44.6H97.88V47.55H99.03ZM99.03 43.835C99.4833 43.835 99.8767 43.8883 100.21 43.995C100.547 44.0983 100.825 44.2467 101.045 44.44C101.265 44.6333 101.428 44.8667 101.535 45.14C101.645 45.4133 101.7 45.7183 101.7 46.055C101.7 46.3883 101.642 46.6933 101.525 46.97C101.408 47.2467 101.237 47.485 101.01 47.685C100.787 47.885 100.508 48.0417 100.175 48.155C99.845 48.265 99.4633 48.32 99.03 48.32H97.88V51H96.915V43.835H99.03ZM105.3 48.72C104.89 48.7333 104.54 48.7667 104.25 48.82C103.963 48.87 103.728 48.9367 103.545 49.02C103.365 49.1033 103.233 49.2017 103.15 49.315C103.07 49.4283 103.03 49.555 103.03 49.695C103.03 49.8283 103.051 49.9433 103.095 50.04C103.138 50.1367 103.196 50.2167 103.27 50.28C103.346 50.34 103.435 50.385 103.535 50.415C103.638 50.4417 103.748 50.455 103.865 50.455C104.021 50.455 104.165 50.44 104.295 50.41C104.425 50.3767 104.546 50.33 104.66 50.27C104.776 50.21 104.886 50.1383 104.99 50.055C105.096 49.9717 105.2 49.8767 105.3 49.77V48.72ZM102.425 46.65C102.705 46.38 103.006 46.1783 103.33 46.045C103.653 45.9117 104.011 45.845 104.405 45.845C104.688 45.845 104.94 45.8917 105.16 45.985C105.38 46.0783 105.565 46.2083 105.715 46.375C105.865 46.5417 105.978 46.7433 106.055 46.98C106.131 47.2167 106.17 47.4767 106.17 47.76V51H105.775C105.688 51 105.621 50.9867 105.575 50.96C105.528 50.93 105.491 50.8733 105.465 50.79L105.365 50.31C105.231 50.4333 105.101 50.5433 104.975 50.64C104.848 50.7333 104.715 50.8133 104.575 50.88C104.435 50.9433 104.285 50.9917 104.125 51.025C103.968 51.0617 103.793 51.08 103.6 51.08C103.403 51.08 103.218 51.0533 103.045 51C102.871 50.9433 102.72 50.86 102.59 50.75C102.463 50.64 102.361 50.5017 102.285 50.335C102.211 50.165 102.175 49.965 102.175 49.735C102.175 49.535 102.23 49.3433 102.34 49.16C102.45 48.9733 102.628 48.8083 102.875 48.665C103.121 48.5217 103.443 48.405 103.84 48.315C104.236 48.2217 104.723 48.1683 105.3 48.155V47.76C105.3 47.3667 105.215 47.07 105.045 46.87C104.875 46.6667 104.626 46.565 104.3 46.565C104.08 46.565 103.895 46.5933 103.745 46.65C103.598 46.7033 103.47 46.765 103.36 46.835C103.253 46.9017 103.16 46.9633 103.08 47.02C103.003 47.0733 102.926 47.1 102.85 47.1C102.79 47.1 102.738 47.085 102.695 47.055C102.651 47.0217 102.615 46.9817 102.585 46.935L102.425 46.65ZM110.475 46.77C110.435 46.8433 110.374 46.88 110.29 46.88C110.24 46.88 110.184 46.8617 110.12 46.825C110.057 46.7883 109.979 46.7483 109.885 46.705C109.795 46.6583 109.687 46.6167 109.56 46.58C109.434 46.54 109.284 46.52 109.11 46.52C108.96 46.52 108.825 46.54 108.705 46.58C108.585 46.6167 108.482 46.6683 108.395 46.735C108.312 46.8017 108.247 46.88 108.2 46.97C108.157 47.0567 108.135 47.1517 108.135 47.255C108.135 47.385 108.172 47.4933 108.245 47.58C108.322 47.6667 108.422 47.7417 108.545 47.805C108.669 47.8683 108.809 47.925 108.965 47.975C109.122 48.0217 109.282 48.0733 109.445 48.13C109.612 48.1833 109.774 48.2433 109.93 48.31C110.087 48.3767 110.227 48.46 110.35 48.56C110.474 48.66 110.572 48.7833 110.645 48.93C110.722 49.0733 110.76 49.2467 110.76 49.45C110.76 49.6833 110.719 49.9 110.635 50.1C110.552 50.2967 110.429 50.4683 110.265 50.615C110.102 50.7583 109.902 50.8717 109.665 50.955C109.429 51.0383 109.155 51.08 108.845 51.08C108.492 51.08 108.172 51.0233 107.885 50.91C107.599 50.7933 107.355 50.645 107.155 50.465L107.365 50.125C107.392 50.0817 107.424 50.0483 107.46 50.025C107.497 50.0017 107.544 49.99 107.6 49.99C107.66 49.99 107.724 50.0133 107.79 50.06C107.857 50.1067 107.937 50.1583 108.03 50.215C108.127 50.2717 108.244 50.3233 108.38 50.37C108.517 50.4167 108.687 50.44 108.89 50.44C109.064 50.44 109.215 50.4183 109.345 50.375C109.475 50.3283 109.584 50.2667 109.67 50.19C109.757 50.1133 109.82 50.025 109.86 49.925C109.904 49.825 109.925 49.7183 109.925 49.605C109.925 49.465 109.887 49.35 109.81 49.26C109.737 49.1667 109.639 49.0883 109.515 49.025C109.392 48.9583 109.25 48.9017 109.09 48.855C108.934 48.805 108.772 48.7533 108.605 48.7C108.442 48.6467 108.28 48.5867 108.12 48.52C107.964 48.45 107.824 48.3633 107.7 48.26C107.577 48.1567 107.477 48.03 107.4 47.88C107.327 47.7267 107.29 47.5417 107.29 47.325C107.29 47.1317 107.33 46.9467 107.41 46.77C107.49 46.59 107.607 46.4333 107.76 46.3C107.914 46.1633 108.102 46.055 108.325 45.975C108.549 45.895 108.804 45.855 109.09 45.855C109.424 45.855 109.722 45.9083 109.985 46.015C110.252 46.1183 110.482 46.2617 110.675 46.445L110.475 46.77ZM113.406 51.08C113.006 51.08 112.698 50.9683 112.481 50.745C112.268 50.5217 112.161 50.2 112.161 49.78V46.68H111.551C111.498 46.68 111.453 46.665 111.416 46.635C111.38 46.6017 111.361 46.5517 111.361 46.485V46.13L112.191 46.025L112.396 44.46C112.406 44.41 112.428 44.37 112.461 44.34C112.498 44.3067 112.545 44.29 112.601 44.29H113.051V46.035H114.516V46.68H113.051V49.72C113.051 49.9333 113.103 50.0917 113.206 50.195C113.31 50.2983 113.443 50.35 113.606 50.35C113.7 50.35 113.78 50.3383 113.846 50.315C113.916 50.2883 113.976 50.26 114.026 50.23C114.076 50.2 114.118 50.1733 114.151 50.15C114.188 50.1233 114.22 50.11 114.246 50.11C114.293 50.11 114.335 50.1383 114.371 50.195L114.631 50.62C114.478 50.7633 114.293 50.8767 114.076 50.96C113.86 51.04 113.636 51.08 113.406 51.08ZM121.677 48.34L120.552 45.425C120.519 45.3383 120.484 45.2383 120.447 45.125C120.41 45.0083 120.375 44.885 120.342 44.755C120.272 45.025 120.2 45.25 120.127 45.43L119.002 48.34H121.677ZM123.697 51H122.947C122.86 51 122.79 50.9783 122.737 50.935C122.684 50.8917 122.644 50.8367 122.617 50.77L121.947 49.04H118.732L118.062 50.77C118.042 50.83 118.004 50.8833 117.947 50.93C117.89 50.9767 117.82 51 117.737 51H116.987L119.852 43.835H120.832L123.697 51ZM127.818 46.835C127.791 46.8717 127.765 46.9 127.738 46.92C127.711 46.94 127.675 46.95 127.628 46.95C127.578 46.95 127.523 46.93 127.463 46.89C127.403 46.8467 127.328 46.8 127.238 46.75C127.151 46.7 127.043 46.655 126.913 46.615C126.786 46.5717 126.63 46.55 126.443 46.55C126.193 46.55 125.973 46.595 125.783 46.685C125.593 46.7717 125.433 46.8983 125.303 47.065C125.176 47.2317 125.08 47.4333 125.013 47.67C124.95 47.9067 124.918 48.1717 124.918 48.465C124.918 48.7717 124.953 49.045 125.023 49.285C125.093 49.5217 125.191 49.7217 125.318 49.885C125.448 50.045 125.603 50.1683 125.783 50.255C125.966 50.3383 126.171 50.38 126.398 50.38C126.615 50.38 126.793 50.355 126.933 50.305C127.073 50.2517 127.188 50.1933 127.278 50.13C127.371 50.0667 127.448 50.01 127.508 49.96C127.571 49.9067 127.633 49.88 127.693 49.88C127.766 49.88 127.823 49.9083 127.863 49.965L128.113 50.29C128.003 50.4267 127.878 50.5433 127.738 50.64C127.598 50.7367 127.446 50.8183 127.283 50.885C127.123 50.9483 126.955 50.995 126.778 51.025C126.601 51.055 126.421 51.07 126.238 51.07C125.921 51.07 125.626 51.0117 125.353 50.895C125.083 50.7783 124.848 50.61 124.648 50.39C124.448 50.1667 124.291 49.8933 124.178 49.57C124.065 49.2467 124.008 48.8783 124.008 48.465C124.008 48.0883 124.06 47.74 124.163 47.42C124.27 47.1 124.423 46.825 124.623 46.595C124.826 46.3617 125.075 46.18 125.368 46.05C125.665 45.92 126.005 45.855 126.388 45.855C126.745 45.855 127.058 45.9133 127.328 46.03C127.601 46.1433 127.843 46.305 128.053 46.515L127.818 46.835ZM133.768 51H132.878V46.68H130.268V49.72C130.268 49.9333 130.32 50.0917 130.423 50.195C130.527 50.2983 130.66 50.35 130.823 50.35C130.917 50.35 130.997 50.3383 131.063 50.315C131.133 50.2883 131.193 50.26 131.243 50.23C131.293 50.2 131.335 50.1733 131.368 50.15C131.405 50.1233 131.437 50.11 131.463 50.11C131.51 50.11 131.552 50.1383 131.588 50.195L131.848 50.62C131.695 50.7633 131.51 50.8767 131.293 50.96C131.077 51.04 130.853 51.08 130.623 51.08C130.223 51.08 129.915 50.9683 129.698 50.745C129.485 50.5217 129.378 50.2 129.378 49.78V46.68H128.768C128.715 46.68 128.67 46.665 128.633 46.635C128.597 46.6017 128.578 46.5517 128.578 46.485V46.13L129.408 46.02L129.613 44.46C129.623 44.41 129.645 44.37 129.678 44.34C129.715 44.3067 129.762 44.29 129.818 44.29H130.268V46.035H133.768V51ZM133.988 44.31C133.988 44.3967 133.97 44.4783 133.933 44.555C133.9 44.6283 133.853 44.6933 133.793 44.75C133.737 44.8067 133.67 44.8517 133.593 44.885C133.517 44.9183 133.435 44.935 133.348 44.935C133.262 44.935 133.18 44.9183 133.103 44.885C133.03 44.8517 132.965 44.8067 132.908 44.75C132.852 44.6933 132.807 44.6283 132.773 44.555C132.74 44.4783 132.723 44.3967 132.723 44.31C132.723 44.2233 132.74 44.1417 132.773 44.065C132.807 43.985 132.852 43.9167 132.908 43.86C132.965 43.8 133.03 43.7533 133.103 43.72C133.18 43.6867 133.262 43.67 133.348 43.67C133.435 43.67 133.517 43.6867 133.593 43.72C133.67 43.7533 133.737 43.8 133.793 43.86C133.853 43.9167 133.9 43.985 133.933 44.065C133.97 44.1417 133.988 44.2233 133.988 44.31ZM139.57 45.935L137.505 51H136.705L134.64 45.935H135.365C135.439 45.935 135.499 45.9533 135.545 45.99C135.592 46.0267 135.624 46.07 135.64 46.12L136.925 49.38C136.965 49.5033 137 49.6233 137.03 49.74C137.06 49.8567 137.089 49.9733 137.115 50.09C137.142 49.9733 137.17 49.8567 137.2 49.74C137.23 49.6233 137.267 49.5033 137.31 49.38L138.61 46.12C138.63 46.0667 138.664 46.0233 138.71 45.99C138.757 45.9533 138.812 45.935 138.875 45.935H139.57ZM141.327 45.935V51H140.437V45.935H141.327ZM141.517 44.345C141.517 44.4317 141.498 44.5133 141.462 44.59C141.428 44.6633 141.382 44.73 141.322 44.79C141.265 44.8467 141.197 44.8917 141.117 44.925C141.04 44.9583 140.958 44.975 140.872 44.975C140.785 44.975 140.703 44.9583 140.627 44.925C140.553 44.8917 140.488 44.8467 140.432 44.79C140.375 44.73 140.33 44.6633 140.297 44.59C140.263 44.5133 140.247 44.4317 140.247 44.345C140.247 44.2583 140.263 44.1767 140.297 44.1C140.33 44.02 140.375 43.9517 140.432 43.895C140.488 43.835 140.553 43.7883 140.627 43.755C140.703 43.7217 140.785 43.705 140.872 43.705C140.958 43.705 141.04 43.7217 141.117 43.755C141.197 43.7883 141.265 43.835 141.322 43.895C141.382 43.9517 141.428 44.02 141.462 44.1C141.498 44.1767 141.517 44.2583 141.517 44.345ZM147.489 51H146.599V46.68H143.989V49.72C143.989 49.9333 144.041 50.0917 144.144 50.195C144.247 50.2983 144.381 50.35 144.544 50.35C144.637 50.35 144.717 50.3383 144.784 50.315C144.854 50.2883 144.914 50.26 144.964 50.23C145.014 50.2 145.056 50.1733 145.089 50.15C145.126 50.1233 145.157 50.11 145.184 50.11C145.231 50.11 145.272 50.1383 145.309 50.195L145.569 50.62C145.416 50.7633 145.231 50.8767 145.014 50.96C144.797 51.04 144.574 51.08 144.344 51.08C143.944 51.08 143.636 50.9683 143.419 50.745C143.206 50.5217 143.099 50.2 143.099 49.78V46.68H142.489C142.436 46.68 142.391 46.665 142.354 46.635C142.317 46.6017 142.299 46.5517 142.299 46.485V46.13L143.129 46.02L143.334 44.46C143.344 44.41 143.366 44.37 143.399 44.34C143.436 44.3067 143.482 44.29 143.539 44.29H143.989V46.035H147.489V51ZM147.709 44.31C147.709 44.3967 147.691 44.4783 147.654 44.555C147.621 44.6283 147.574 44.6933 147.514 44.75C147.457 44.8067 147.391 44.8517 147.314 44.885C147.237 44.9183 147.156 44.935 147.069 44.935C146.982 44.935 146.901 44.9183 146.824 44.885C146.751 44.8517 146.686 44.8067 146.629 44.75C146.572 44.6933 146.527 44.6283 146.494 44.555C146.461 44.4783 146.444 44.3967 146.444 44.31C146.444 44.2233 146.461 44.1417 146.494 44.065C146.527 43.985 146.572 43.9167 146.629 43.86C146.686 43.8 146.751 43.7533 146.824 43.72C146.901 43.6867 146.982 43.67 147.069 43.67C147.156 43.67 147.237 43.6867 147.314 43.72C147.391 43.7533 147.457 43.8 147.514 43.86C147.574 43.9167 147.621 43.985 147.654 44.065C147.691 44.1417 147.709 44.2233 147.709 44.31ZM152.341 47.915C152.341 47.7083 152.311 47.52 152.251 47.35C152.194 47.1767 152.109 47.0283 151.996 46.905C151.886 46.7783 151.751 46.6817 151.591 46.615C151.431 46.545 151.249 46.51 151.046 46.51C150.619 46.51 150.281 46.635 150.031 46.885C149.784 47.1317 149.631 47.475 149.571 47.915H152.341ZM153.061 50.29C152.951 50.4233 152.819 50.54 152.666 50.64C152.513 50.7367 152.348 50.8167 152.171 50.88C151.998 50.9433 151.818 50.99 151.631 51.02C151.444 51.0533 151.259 51.07 151.076 51.07C150.726 51.07 150.403 51.0117 150.106 50.895C149.813 50.775 149.558 50.6017 149.341 50.375C149.128 50.145 148.961 49.8617 148.841 49.525C148.721 49.1883 148.661 48.8017 148.661 48.365C148.661 48.0117 148.714 47.6817 148.821 47.375C148.931 47.0683 149.088 46.8033 149.291 46.58C149.494 46.3533 149.743 46.1767 150.036 46.05C150.329 45.92 150.659 45.855 151.026 45.855C151.329 45.855 151.609 45.9067 151.866 46.01C152.126 46.11 152.349 46.2567 152.536 46.45C152.726 46.64 152.874 46.8767 152.981 47.16C153.088 47.44 153.141 47.76 153.141 48.12C153.141 48.26 153.126 48.3533 153.096 48.4C153.066 48.4467 153.009 48.47 152.926 48.47H149.541C149.551 48.79 149.594 49.0683 149.671 49.305C149.751 49.5417 149.861 49.74 150.001 49.9C150.141 50.0567 150.308 50.175 150.501 50.255C150.694 50.3317 150.911 50.37 151.151 50.37C151.374 50.37 151.566 50.345 151.726 50.295C151.889 50.2417 152.029 50.185 152.146 50.125C152.263 50.065 152.359 50.01 152.436 49.96C152.516 49.9067 152.584 49.88 152.641 49.88C152.714 49.88 152.771 49.9083 152.811 49.965L153.061 50.29ZM157.184 46.77C157.144 46.8433 157.083 46.88 156.999 46.88C156.949 46.88 156.893 46.8617 156.829 46.825C156.766 46.7883 156.688 46.7483 156.594 46.705C156.504 46.6583 156.396 46.6167 156.269 46.58C156.143 46.54 155.993 46.52 155.819 46.52C155.669 46.52 155.534 46.54 155.414 46.58C155.294 46.6167 155.191 46.6683 155.104 46.735C155.021 46.8017 154.956 46.88 154.909 46.97C154.866 47.0567 154.844 47.1517 154.844 47.255C154.844 47.385 154.881 47.4933 154.954 47.58C155.031 47.6667 155.131 47.7417 155.254 47.805C155.378 47.8683 155.518 47.925 155.674 47.975C155.831 48.0217 155.991 48.0733 156.154 48.13C156.321 48.1833 156.483 48.2433 156.639 48.31C156.796 48.3767 156.936 48.46 157.059 48.56C157.183 48.66 157.281 48.7833 157.354 48.93C157.431 49.0733 157.469 49.2467 157.469 49.45C157.469 49.6833 157.428 49.9 157.344 50.1C157.261 50.2967 157.138 50.4683 156.974 50.615C156.811 50.7583 156.611 50.8717 156.374 50.955C156.138 51.0383 155.864 51.08 155.554 51.08C155.201 51.08 154.881 51.0233 154.594 50.91C154.308 50.7933 154.064 50.645 153.864 50.465L154.074 50.125C154.101 50.0817 154.133 50.0483 154.169 50.025C154.206 50.0017 154.253 49.99 154.309 49.99C154.369 49.99 154.433 50.0133 154.499 50.06C154.566 50.1067 154.646 50.1583 154.739 50.215C154.836 50.2717 154.953 50.3233 155.089 50.37C155.226 50.4167 155.396 50.44 155.599 50.44C155.773 50.44 155.924 50.4183 156.054 50.375C156.184 50.3283 156.293 50.2667 156.379 50.19C156.466 50.1133 156.529 50.025 156.569 49.925C156.613 49.825 156.634 49.7183 156.634 49.605C156.634 49.465 156.596 49.35 156.519 49.26C156.446 49.1667 156.348 49.0883 156.224 49.025C156.101 48.9583 155.959 48.9017 155.799 48.855C155.643 48.805 155.481 48.7533 155.314 48.7C155.151 48.6467 154.989 48.5867 154.829 48.52C154.673 48.45 154.533 48.3633 154.409 48.26C154.286 48.1567 154.186 48.03 154.109 47.88C154.036 47.7267 153.999 47.5417 153.999 47.325C153.999 47.1317 154.039 46.9467 154.119 46.77C154.199 46.59 154.316 46.4333 154.469 46.3C154.623 46.1633 154.811 46.055 155.034 45.975C155.258 45.895 155.513 45.855 155.799 45.855C156.133 45.855 156.431 45.9083 156.694 46.015C156.961 46.1183 157.191 46.2617 157.384 46.445L157.184 46.77Z" fill="black"/>
<rect x="119.5" y="15.5" width="10.6316" height="14.8266" rx="0.5" fill="white" stroke="black"/>
<rect x="116.5" y="18.5" width="10.6316" height="14.8266" rx="0.5" fill="white" stroke="black"/>
<rect x="113.5" y="21.5" width="11" height="14" rx="0.5" fill="white" stroke="black"/>
<path d="M118 27.2164L119.409 28.6667L122 26" stroke="#FDFDFD"/>
<circle cx="119" cy="29" r="3" fill="#2F2727"/>
<path d="M118 28.2164L119.409 29.6667L122 27" stroke="#FDFDFD"/>
<path d="M185.655 45.085C185.615 45.155 185.572 45.2067 185.525 45.24C185.482 45.27 185.427 45.285 185.36 45.285C185.29 45.285 185.213 45.26 185.13 45.21C185.05 45.1567 184.953 45.0983 184.84 45.035C184.727 44.9717 184.593 44.915 184.44 44.865C184.29 44.8117 184.112 44.785 183.905 44.785C183.718 44.785 183.555 44.8083 183.415 44.855C183.275 44.8983 183.157 44.96 183.06 45.04C182.967 45.12 182.897 45.2167 182.85 45.33C182.803 45.44 182.78 45.5617 182.78 45.695C182.78 45.865 182.827 46.0067 182.92 46.12C183.017 46.2333 183.143 46.33 183.3 46.41C183.457 46.49 183.635 46.5617 183.835 46.625C184.035 46.6883 184.24 46.7567 184.45 46.83C184.66 46.9 184.865 46.9833 185.065 47.08C185.265 47.1733 185.443 47.2933 185.6 47.44C185.757 47.5833 185.882 47.76 185.975 47.97C186.072 48.18 186.12 48.435 186.12 48.735C186.12 49.0617 186.063 49.3683 185.95 49.655C185.84 49.9383 185.677 50.1867 185.46 50.4C185.247 50.61 184.985 50.7767 184.675 50.9C184.365 51.02 184.01 51.08 183.61 51.08C183.38 51.08 183.153 51.0567 182.93 51.01C182.707 50.9667 182.492 50.9033 182.285 50.82C182.082 50.7367 181.89 50.6367 181.71 50.52C181.53 50.4033 181.37 50.2733 181.23 50.13L181.625 49.485C181.658 49.4383 181.702 49.4 181.755 49.37C181.808 49.3367 181.865 49.32 181.925 49.32C182.008 49.32 182.098 49.355 182.195 49.425C182.292 49.4917 182.407 49.5667 182.54 49.65C182.673 49.7333 182.828 49.81 183.005 49.88C183.185 49.9467 183.4 49.98 183.65 49.98C184.033 49.98 184.33 49.89 184.54 49.71C184.75 49.5267 184.855 49.265 184.855 48.925C184.855 48.735 184.807 48.58 184.71 48.46C184.617 48.34 184.492 48.24 184.335 48.16C184.178 48.0767 184 48.0067 183.8 47.95C183.6 47.8933 183.397 47.8317 183.19 47.765C182.983 47.6983 182.78 47.6183 182.58 47.525C182.38 47.4317 182.202 47.31 182.045 47.16C181.888 47.01 181.762 46.8233 181.665 46.6C181.572 46.3733 181.525 46.095 181.525 45.765C181.525 45.5017 181.577 45.245 181.68 44.995C181.787 44.745 181.94 44.5233 182.14 44.33C182.34 44.1367 182.587 43.9817 182.88 43.865C183.173 43.7483 183.51 43.69 183.89 43.69C184.317 43.69 184.71 43.7567 185.07 43.89C185.43 44.0233 185.737 44.21 185.99 44.45L185.655 45.085ZM188.584 51.08C188.137 51.08 187.794 50.955 187.554 50.705C187.317 50.4517 187.199 50.1033 187.199 49.66V46.795H186.674C186.607 46.795 186.55 46.7733 186.504 46.73C186.457 46.6867 186.434 46.6217 186.434 46.535V46.045L187.259 45.91L187.519 44.51C187.535 44.4433 187.567 44.3917 187.614 44.355C187.66 44.3183 187.72 44.3 187.794 44.3H188.434V45.915H189.804V46.795H188.434V49.575C188.434 49.735 188.472 49.86 188.549 49.95C188.629 50.04 188.737 50.085 188.874 50.085C188.95 50.085 189.014 50.0767 189.064 50.06C189.117 50.04 189.162 50.02 189.199 50C189.239 49.98 189.274 49.9617 189.304 49.945C189.334 49.925 189.364 49.915 189.394 49.915C189.43 49.915 189.46 49.925 189.484 49.945C189.507 49.9617 189.532 49.9883 189.559 50.025L189.929 50.625C189.749 50.775 189.542 50.8883 189.309 50.965C189.075 51.0417 188.834 51.08 188.584 51.08ZM195.014 45.87V51H194.259C194.096 51 193.993 50.925 193.949 50.775L193.864 50.365C193.654 50.5783 193.423 50.7517 193.169 50.885C192.916 51.015 192.618 51.08 192.274 51.08C191.994 51.08 191.746 51.0333 191.529 50.94C191.316 50.8433 191.136 50.7083 190.989 50.535C190.843 50.3617 190.731 50.1567 190.654 49.92C190.581 49.68 190.544 49.4167 190.544 49.13V45.87H191.779V49.13C191.779 49.4433 191.851 49.6867 191.994 49.86C192.141 50.03 192.359 50.115 192.649 50.115C192.863 50.115 193.063 50.0683 193.249 49.975C193.436 49.8783 193.613 49.7467 193.779 49.58V45.87H195.014ZM199.459 47.18C199.319 47.01 199.166 46.89 198.999 46.82C198.836 46.75 198.659 46.715 198.469 46.715C198.282 46.715 198.114 46.75 197.964 46.82C197.814 46.89 197.686 46.9967 197.579 47.14C197.472 47.28 197.391 47.46 197.334 47.68C197.277 47.8967 197.249 48.1533 197.249 48.45C197.249 48.75 197.272 49.005 197.319 49.215C197.369 49.4217 197.439 49.5917 197.529 49.725C197.619 49.855 197.729 49.95 197.859 50.01C197.989 50.0667 198.134 50.095 198.294 50.095C198.551 50.095 198.769 50.0417 198.949 49.935C199.129 49.8283 199.299 49.6767 199.459 49.48V47.18ZM200.694 43.57V51H199.939C199.776 51 199.672 50.925 199.629 50.775L199.524 50.28C199.317 50.5167 199.079 50.7083 198.809 50.855C198.542 51.0017 198.231 51.075 197.874 51.075C197.594 51.075 197.337 51.0167 197.104 50.9C196.871 50.7833 196.669 50.615 196.499 50.395C196.332 50.1717 196.202 49.8967 196.109 49.57C196.019 49.2433 195.974 48.87 195.974 48.45C195.974 48.07 196.026 47.7167 196.129 47.39C196.232 47.0633 196.381 46.78 196.574 46.54C196.767 46.3 196.999 46.1133 197.269 45.98C197.539 45.8433 197.842 45.775 198.179 45.775C198.466 45.775 198.711 45.82 198.914 45.91C199.117 46 199.299 46.1217 199.459 46.275V43.57H200.694ZM206.573 45.87L203.778 52.41C203.741 52.4967 203.693 52.5617 203.633 52.605C203.576 52.6517 203.488 52.675 203.368 52.675H202.448L203.408 50.615L201.333 45.87H202.418C202.514 45.87 202.589 45.8933 202.643 45.94C202.699 45.9867 202.741 46.04 202.768 46.1L203.858 48.76C203.894 48.85 203.924 48.94 203.948 49.03C203.974 49.12 203.999 49.2117 204.023 49.305C204.053 49.2117 204.083 49.12 204.113 49.03C204.143 48.9367 204.176 48.845 204.213 48.755L205.243 46.1C205.269 46.0333 205.313 45.9783 205.373 45.935C205.436 45.8917 205.506 45.87 205.583 45.87H206.573ZM210.644 45.87V51H209.404V45.87H210.644ZM210.814 44.375C210.814 44.4817 210.792 44.5817 210.749 44.675C210.706 44.7683 210.647 44.85 210.574 44.92C210.504 44.99 210.421 45.0467 210.324 45.09C210.227 45.13 210.124 45.15 210.014 45.15C209.907 45.15 209.806 45.13 209.709 45.09C209.616 45.0467 209.534 44.99 209.464 44.92C209.394 44.85 209.337 44.7683 209.294 44.675C209.254 44.5817 209.234 44.4817 209.234 44.375C209.234 44.265 209.254 44.1617 209.294 44.065C209.337 43.9683 209.394 43.885 209.464 43.815C209.534 43.745 209.616 43.69 209.709 43.65C209.806 43.6067 209.907 43.585 210.014 43.585C210.124 43.585 210.227 43.6067 210.324 43.65C210.421 43.69 210.504 43.745 210.574 43.815C210.647 43.885 210.706 43.9683 210.749 44.065C210.792 44.1617 210.814 44.265 210.814 44.375ZM213.058 46.5C213.161 46.3967 213.27 46.3017 213.383 46.215C213.5 46.125 213.621 46.05 213.748 45.99C213.878 45.9267 214.016 45.8783 214.163 45.845C214.31 45.8083 214.47 45.79 214.643 45.79C214.923 45.79 215.171 45.8383 215.388 45.935C215.605 46.0283 215.785 46.1617 215.928 46.335C216.075 46.505 216.185 46.71 216.258 46.95C216.335 47.1867 216.373 47.4483 216.373 47.735V51H215.138V47.735C215.138 47.4217 215.066 47.18 214.923 47.01C214.78 46.8367 214.561 46.75 214.268 46.75C214.055 46.75 213.855 46.7983 213.668 46.895C213.481 46.9917 213.305 47.1233 213.138 47.29V51H211.903V45.87H212.658C212.818 45.87 212.923 45.945 212.973 46.095L213.058 46.5ZM217.82 51V46.8L217.375 46.73C217.278 46.71 217.2 46.6767 217.14 46.63C217.083 46.58 217.055 46.51 217.055 46.42V45.915H217.82V45.535C217.82 45.2417 217.863 44.9783 217.95 44.745C218.04 44.5117 218.166 44.3133 218.33 44.15C218.496 43.9867 218.698 43.8617 218.935 43.775C219.171 43.6883 219.438 43.645 219.735 43.645C219.971 43.645 220.191 43.6767 220.395 43.74L220.37 44.36C220.366 44.4067 220.353 44.445 220.33 44.475C220.306 44.5017 220.275 44.5233 220.235 44.54C220.198 44.5533 220.155 44.5633 220.105 44.57C220.055 44.5733 220.001 44.575 219.945 44.575C219.798 44.575 219.666 44.5917 219.55 44.625C219.436 44.655 219.34 44.71 219.26 44.79C219.18 44.8667 219.118 44.97 219.075 45.1C219.035 45.2267 219.015 45.385 219.015 45.575V45.915H220.35V46.795H219.055V51H217.82ZM223.177 45.79C223.557 45.79 223.902 45.8517 224.212 45.975C224.525 46.0983 224.792 46.2733 225.012 46.5C225.235 46.7267 225.407 47.0033 225.527 47.33C225.647 47.6567 225.707 48.0217 225.707 48.425C225.707 48.8317 225.647 49.1983 225.527 49.525C225.407 49.8517 225.235 50.13 225.012 50.36C224.792 50.59 224.525 50.7667 224.212 50.89C223.902 51.0133 223.557 51.075 223.177 51.075C222.794 51.075 222.445 51.0133 222.132 50.89C221.819 50.7667 221.55 50.59 221.327 50.36C221.107 50.13 220.935 49.8517 220.812 49.525C220.692 49.1983 220.632 48.8317 220.632 48.425C220.632 48.0217 220.692 47.6567 220.812 47.33C220.935 47.0033 221.107 46.7267 221.327 46.5C221.55 46.2733 221.819 46.0983 222.132 45.975C222.445 45.8517 222.794 45.79 223.177 45.79ZM223.177 50.125C223.604 50.125 223.919 49.9817 224.122 49.695C224.329 49.4083 224.432 48.9883 224.432 48.435C224.432 47.8817 224.329 47.46 224.122 47.17C223.919 46.88 223.604 46.735 223.177 46.735C222.744 46.735 222.422 46.8817 222.212 47.175C222.005 47.465 221.902 47.885 221.902 48.435C221.902 48.985 222.005 49.405 222.212 49.695C222.422 49.9817 222.744 50.125 223.177 50.125Z" fill="black"/>
<rect x="199" y="22" width="13" height="16" fill="#93CCF0"/>
<rect x="197.5" y="19.5" width="13" height="16" rx="0.5" stroke="#2A2A2A"/>
<line x1="200" y1="23.5" x2="207.897" y2="23.5" stroke="black"/>
<line x1="200" y1="26.5" x2="207.897" y2="26.5" stroke="black"/>
<line x1="200" y1="29.5" x2="207.897" y2="29.5" stroke="black"/>
<line x1="200" y1="32.5" x2="207.897" y2="32.5" stroke="black"/>
<rect x="200" y="18" width="8" height="3" fill="#2A2A2A"/>
<path d="M277.959 23.9893C277.959 26.4687 275.949 28.4787 273.47 28.4787C270.99 28.4787 268.98 26.4687 268.98 23.9893C268.98 21.5099 270.99 19.5 273.47 19.5C275.949 19.5 277.959 21.5099 277.959 23.9893Z" stroke="black"/>
<path d="M259.72 48.34L258.595 45.425C258.562 45.3383 258.527 45.2383 258.49 45.125C258.453 45.0083 258.418 44.885 258.385 44.755C258.315 45.025 258.243 45.25 258.17 45.43L257.045 48.34H259.72ZM261.74 51H260.99C260.903 51 260.833 50.9783 260.78 50.935C260.727 50.8917 260.687 50.8367 260.66 50.77L259.99 49.04H256.775L256.105 50.77C256.085 50.83 256.047 50.8833 255.99 50.93C255.933 50.9767 255.863 51 255.78 51H255.03L257.895 43.835H258.875L261.74 51ZM265.861 46.835C265.834 46.8717 265.808 46.9 265.781 46.92C265.754 46.94 265.718 46.95 265.671 46.95C265.621 46.95 265.566 46.93 265.506 46.89C265.446 46.8467 265.371 46.8 265.281 46.75C265.194 46.7 265.086 46.655 264.956 46.615C264.829 46.5717 264.673 46.55 264.486 46.55C264.236 46.55 264.016 46.595 263.826 46.685C263.636 46.7717 263.476 46.8983 263.346 47.065C263.219 47.2317 263.123 47.4333 263.056 47.67C262.993 47.9067 262.961 48.1717 262.961 48.465C262.961 48.7717 262.996 49.045 263.066 49.285C263.136 49.5217 263.234 49.7217 263.361 49.885C263.491 50.045 263.646 50.1683 263.826 50.255C264.009 50.3383 264.214 50.38 264.441 50.38C264.658 50.38 264.836 50.355 264.976 50.305C265.116 50.2517 265.231 50.1933 265.321 50.13C265.414 50.0667 265.491 50.01 265.551 49.96C265.614 49.9067 265.676 49.88 265.736 49.88C265.809 49.88 265.866 49.9083 265.906 49.965L266.156 50.29C266.046 50.4267 265.921 50.5433 265.781 50.64C265.641 50.7367 265.489 50.8183 265.326 50.885C265.166 50.9483 264.998 50.995 264.821 51.025C264.644 51.055 264.464 51.07 264.281 51.07C263.964 51.07 263.669 51.0117 263.396 50.895C263.126 50.7783 262.891 50.61 262.691 50.39C262.491 50.1667 262.334 49.8933 262.221 49.57C262.108 49.2467 262.051 48.8783 262.051 48.465C262.051 48.0883 262.103 47.74 262.206 47.42C262.313 47.1 262.466 46.825 262.666 46.595C262.869 46.3617 263.118 46.18 263.411 46.05C263.708 45.92 264.048 45.855 264.431 45.855C264.788 45.855 265.101 45.9133 265.371 46.03C265.644 46.1433 265.886 46.305 266.096 46.515L265.861 46.835ZM270.548 46.835C270.522 46.8717 270.495 46.9 270.468 46.92C270.442 46.94 270.405 46.95 270.358 46.95C270.308 46.95 270.253 46.93 270.193 46.89C270.133 46.8467 270.058 46.8 269.968 46.75C269.882 46.7 269.773 46.655 269.643 46.615C269.517 46.5717 269.36 46.55 269.173 46.55C268.923 46.55 268.703 46.595 268.513 46.685C268.323 46.7717 268.163 46.8983 268.033 47.065C267.907 47.2317 267.81 47.4333 267.743 47.67C267.68 47.9067 267.648 48.1717 267.648 48.465C267.648 48.7717 267.683 49.045 267.753 49.285C267.823 49.5217 267.922 49.7217 268.048 49.885C268.178 50.045 268.333 50.1683 268.513 50.255C268.697 50.3383 268.902 50.38 269.128 50.38C269.345 50.38 269.523 50.355 269.663 50.305C269.803 50.2517 269.918 50.1933 270.008 50.13C270.102 50.0667 270.178 50.01 270.238 49.96C270.302 49.9067 270.363 49.88 270.423 49.88C270.497 49.88 270.553 49.9083 270.593 49.965L270.843 50.29C270.733 50.4267 270.608 50.5433 270.468 50.64C270.328 50.7367 270.177 50.8183 270.013 50.885C269.853 50.9483 269.685 50.995 269.508 51.025C269.332 51.055 269.152 51.07 268.968 51.07C268.652 51.07 268.357 51.0117 268.083 50.895C267.813 50.7783 267.578 50.61 267.378 50.39C267.178 50.1667 267.022 49.8933 266.908 49.57C266.795 49.2467 266.738 48.8783 266.738 48.465C266.738 48.0883 266.79 47.74 266.893 47.42C267 47.1 267.153 46.825 267.353 46.595C267.557 46.3617 267.805 46.18 268.098 46.05C268.395 45.92 268.735 45.855 269.118 45.855C269.475 45.855 269.788 45.9133 270.058 46.03C270.332 46.1433 270.573 46.305 270.783 46.515L270.548 46.835ZM273.846 45.855C274.216 45.855 274.549 45.9167 274.846 46.04C275.143 46.1633 275.396 46.3383 275.606 46.565C275.816 46.7917 275.976 47.0667 276.086 47.39C276.199 47.71 276.256 48.0683 276.256 48.465C276.256 48.865 276.199 49.225 276.086 49.545C275.976 49.865 275.816 50.1383 275.606 50.365C275.396 50.5917 275.143 50.7667 274.846 50.89C274.549 51.01 274.216 51.07 273.846 51.07C273.473 51.07 273.136 51.01 272.836 50.89C272.539 50.7667 272.286 50.5917 272.076 50.365C271.866 50.1383 271.704 49.865 271.591 49.545C271.481 49.225 271.426 48.865 271.426 48.465C271.426 48.0683 271.481 47.71 271.591 47.39C271.704 47.0667 271.866 46.7917 272.076 46.565C272.286 46.3383 272.539 46.1633 272.836 46.04C273.136 45.9167 273.473 45.855 273.846 45.855ZM273.846 50.375C274.346 50.375 274.719 50.2083 274.966 49.875C275.213 49.5383 275.336 49.07 275.336 48.47C275.336 47.8667 275.213 47.3967 274.966 47.06C274.719 46.7233 274.346 46.555 273.846 46.555C273.593 46.555 273.371 46.5983 273.181 46.685C272.994 46.7717 272.838 46.8967 272.711 47.06C272.588 47.2233 272.494 47.425 272.431 47.665C272.371 47.9017 272.341 48.17 272.341 48.47C272.341 49.07 272.464 49.5383 272.711 49.875C272.961 50.2083 273.339 50.375 273.846 50.375ZM281.55 45.935V51H281.02C280.893 51 280.813 50.9383 280.78 50.815L280.71 50.27C280.49 50.5133 280.243 50.71 279.97 50.86C279.696 51.0067 279.383 51.08 279.03 51.08C278.753 51.08 278.508 51.035 278.295 50.945C278.085 50.8517 277.908 50.7217 277.765 50.555C277.621 50.3883 277.513 50.1867 277.44 49.95C277.37 49.7133 277.335 49.4517 277.335 49.165V45.935H278.225V49.165C278.225 49.5483 278.311 49.845 278.485 50.055C278.661 50.265 278.93 50.37 279.29 50.37C279.553 50.37 279.798 50.3083 280.025 50.185C280.255 50.0583 280.466 49.885 280.66 49.665V45.935H281.55ZM283.801 46.67C283.911 46.5467 284.028 46.435 284.151 46.335C284.274 46.235 284.404 46.15 284.541 46.08C284.681 46.0067 284.828 45.9517 284.981 45.915C285.138 45.875 285.306 45.855 285.486 45.855C285.763 45.855 286.006 45.9017 286.216 45.995C286.429 46.085 286.606 46.215 286.746 46.385C286.889 46.5517 286.998 46.7533 287.071 46.99C287.144 47.2267 287.181 47.4883 287.181 47.775V51H286.286V47.775C286.286 47.3917 286.198 47.095 286.021 46.885C285.848 46.6717 285.583 46.565 285.226 46.565C284.963 46.565 284.716 46.6283 284.486 46.755C284.259 46.8817 284.049 47.0533 283.856 47.27V51H282.961V45.935H283.496C283.623 45.935 283.701 45.9967 283.731 46.12L283.801 46.67ZM290.024 51.08C289.624 51.08 289.315 50.9683 289.099 50.745C288.885 50.5217 288.779 50.2 288.779 49.78V46.68H288.169C288.115 46.68 288.07 46.665 288.034 46.635C287.997 46.6017 287.979 46.5517 287.979 46.485V46.13L288.809 46.025L289.014 44.46C289.024 44.41 289.045 44.37 289.079 44.34C289.115 44.3067 289.162 44.29 289.219 44.29H289.669V46.035H291.134V46.68H289.669V49.72C289.669 49.9333 289.72 50.0917 289.824 50.195C289.927 50.2983 290.06 50.35 290.224 50.35C290.317 50.35 290.397 50.3383 290.464 50.315C290.534 50.2883 290.594 50.26 290.644 50.23C290.694 50.2 290.735 50.1733 290.769 50.15C290.805 50.1233 290.837 50.11 290.864 50.11C290.91 50.11 290.952 50.1383 290.989 50.195L291.249 50.62C291.095 50.7633 290.91 50.8767 290.694 50.96C290.477 51.04 290.254 51.08 290.024 51.08Z" fill="black"/>
<path d="M273.471 30.8002C275.028 30.8002 276.464 30.2734 277.612 29.3917C279.204 30.5691 280.276 32.406 280.424 34.4982H266.518C266.666 32.406 267.738 30.5691 269.33 29.3917C270.477 30.2734 271.914 30.8002 273.471 30.8002Z" stroke="black"/>
</g>
<defs>
<filter id="filter0_d" x="-4" y="0" width="328" height="72" filterUnits="userSpaceOnUse" color-interpolation-filters="sRGB">
<feFlood flood-opacity="0" result="BackgroundImageFix"/>
<feColorMatrix in="SourceAlpha" type="matrix" values="0 0 0 0 0 0 0 0 0 0 0 0 0 0 0 0 0 0 127 0"/>
<feOffset dy="4"/>
<feGaussianBlur stdDeviation="2"/>
<feColorMatrix type="matrix" values="0 0 0 0 0 0 0 0 0 0 0 0 0 0 0 0 0 0 0.25 0"/>
<feBlend mode="normal" in2="BackgroundImageFix" result="effect1_dropShadow"/>
<feBlend mode="normal" in="SourceGraphic" in2="effect1_dropShadow" result="shape"/>
</filter>
</defs>
</svg>
