<svg width="25" height="24" viewBox="0 0 25 24" fill="none" xmlns="http://www.w3.org/2000/svg">
<path fill-rule="evenodd" clip-rule="evenodd" d="M9.39844 1H22.9983C23.5506 1 23.9983 1.44772 23.9983 2V15.6C23.9983 16.1523 23.5506 16.6 22.9983 16.6H22.5974V17.6H22.9983C24.1029 17.6 24.9983 16.7046 24.9983 15.6V2C24.9983 0.895431 24.1029 0 22.9983 0H9.39844C8.29387 0 7.39844 0.895432 7.39844 2V2.39941H8.39844V2C8.39844 1.44772 8.84615 1 9.39844 1Z" fill="#2A2A2A"/>
<path fill-rule="evenodd" clip-rule="evenodd" d="M5.93945 4H19.5393C20.0916 4 20.5393 4.44772 20.5393 5V18.6C20.5393 19.1523 20.0916 19.6 19.5393 19.6H19.1384V20.6H19.5393C20.6439 20.6 21.5393 19.7046 21.5393 18.6V5C21.5393 3.89543 20.6439 3 19.5393 3H5.93945C4.83488 3 3.93945 3.89543 3.93945 5V5.39941H4.93945V5C4.93945 4.44772 5.38717 4 5.93945 4Z" fill="#2A2A2A"/>
<rect x="0.800781" y="7.19971" width="15.9999" height="16" fill="#FFF509"/>
<path d="M9.39597 14.566H11.9996V15.6226H9.39597V18.4H8.2032V15.6226H5.59961V14.566H8.2032V12H9.39597V14.566Z" fill="#2A2A2A"/>
<path fill-rule="evenodd" clip-rule="evenodd" d="M15.5999 7.3999H2C1.44772 7.3999 1 7.84762 1 8.3999V21.9999C1 22.5522 1.44772 22.9999 2 22.9999H15.5999C16.1521 22.9999 16.5999 22.5522 16.5999 21.9999V8.3999C16.5999 7.84762 16.1521 7.3999 15.5999 7.3999ZM2 6.3999C0.895431 6.3999 0 7.29533 0 8.3999V21.9999C0 23.1045 0.89543 23.9999 2 23.9999H15.5999C16.7044 23.9999 17.5999 23.1045 17.5999 21.9999V8.3999C17.5999 7.29533 16.7044 6.3999 15.5999 6.3999H2Z" fill="#2A2A2A"/>
</svg>
