<svg width="14" height="14" viewBox="0 0 14 14" fill="none" xmlns="http://www.w3.org/2000/svg">
<path d="M12.5393 14H1.46067C0.655667 14 0 13.3449 0 12.5393V2.62792C0 1.82233 0.655667 1.16667 1.46125 1.16667H12.5387C13.3443 1.16667 14 1.82233 14 2.62792V12.5393C14 13.3449 13.3449 14 12.5393 14ZM1.46125 2.33333C1.29908 2.33333 1.16667 2.46575 1.16667 2.62792V12.5393C1.16667 12.7015 1.2985 12.8333 1.46067 12.8333H12.5393C12.7015 12.8333 12.8333 12.7015 12.8333 12.5393V2.62792C12.8333 2.46575 12.7009 2.33333 12.5387 2.33333H1.46125ZM13.4167 4.66667H0.583333C0.261333 4.66667 0 4.40533 0 4.08333C0 3.76133 0.261333 3.5 0.583333 3.5H13.4167C13.7392 3.5 14 3.76133 14 4.08333C14 4.40533 13.7392 4.66667 13.4167 4.66667ZM2.91667 2.91667C2.59467 2.91667 2.33333 2.65533 2.33333 2.33333V0.583333C2.33333 0.261333 2.59467 0 2.91667 0C3.23867 0 3.5 0.261333 3.5 0.583333V2.33333C3.5 2.65533 3.23867 2.91667 2.91667 2.91667ZM11.0833 2.91667C10.7607 2.91667 10.5 2.65533 10.5 2.33333V0.583333C10.5 0.261333 10.7607 0 11.0833 0C11.4059 0 11.6667 0.261333 11.6667 0.583333V2.33333C11.6667 2.65533 11.4059 2.91667 11.0833 2.91667Z" fill="#2A2A2A"/>
<path d="M3.50033 11.6667C3.82249 11.6667 4.08366 11.4055 4.08366 11.0833C4.08366 10.7612 3.82249 10.5 3.50033 10.5C3.17816 10.5 2.91699 10.7612 2.91699 11.0833C2.91699 11.4055 3.17816 11.6667 3.50033 11.6667Z" fill="#2A2A2A"/>
<path d="M3.50033 9.33366C3.82249 9.33366 4.08366 9.07249 4.08366 8.75033C4.08366 8.42816 3.82249 8.16699 3.50033 8.16699C3.17816 8.16699 2.91699 8.42816 2.91699 8.75033C2.91699 9.07249 3.17816 9.33366 3.50033 9.33366Z" fill="#2A2A2A"/>
<path d="M5.25033 11.6667C5.57249 11.6667 5.83366 11.4055 5.83366 11.0833C5.83366 10.7612 5.57249 10.5 5.25033 10.5C4.92816 10.5 4.66699 10.7612 4.66699 11.0833C4.66699 11.4055 4.92816 11.6667 5.25033 11.6667Z" fill="#2A2A2A"/>
<path d="M5.25033 9.33366C5.57249 9.33366 5.83366 9.07249 5.83366 8.75033C5.83366 8.42816 5.57249 8.16699 5.25033 8.16699C4.92816 8.16699 4.66699 8.42816 4.66699 8.75033C4.66699 9.07249 4.92816 9.33366 5.25033 9.33366Z" fill="#2A2A2A"/>
<path d="M5.25033 6.99967C5.57249 6.99967 5.83366 6.73851 5.83366 6.41634C5.83366 6.09417 5.57249 5.83301 5.25033 5.83301C4.92816 5.83301 4.66699 6.09417 4.66699 6.41634C4.66699 6.73851 4.92816 6.99967 5.25033 6.99967Z" fill="#2A2A2A"/>
<path d="M8.75033 11.6667C9.07249 11.6667 9.33366 11.4055 9.33366 11.0833C9.33366 10.7612 9.07249 10.5 8.75033 10.5C8.42816 10.5 8.16699 10.7612 8.16699 11.0833C8.16699 11.4055 8.42816 11.6667 8.75033 11.6667Z" fill="#2A2A2A"/>
<path d="M8.75033 9.33366C9.07249 9.33366 9.33366 9.07249 9.33366 8.75033C9.33366 8.42816 9.07249 8.16699 8.75033 8.16699C8.42816 8.16699 8.16699 8.42816 8.16699 8.75033C8.16699 9.07249 8.42816 9.33366 8.75033 9.33366Z" fill="#2A2A2A"/>
<path d="M8.75033 6.99967C9.07249 6.99967 9.33366 6.73851 9.33366 6.41634C9.33366 6.09417 9.07249 5.83301 8.75033 5.83301C8.42816 5.83301 8.16699 6.09417 8.16699 6.41634C8.16699 6.73851 8.42816 6.99967 8.75033 6.99967Z" fill="#2A2A2A"/>
<path d="M10.5003 9.33366C10.8225 9.33366 11.0837 9.07249 11.0837 8.75033C11.0837 8.42816 10.8225 8.16699 10.5003 8.16699C10.1782 8.16699 9.91699 8.42816 9.91699 8.75033C9.91699 9.07249 10.1782 9.33366 10.5003 9.33366Z" fill="#2A2A2A"/>
<path d="M10.5003 6.99967C10.8225 6.99967 11.0837 6.73851 11.0837 6.41634C11.0837 6.09417 10.8225 5.83301 10.5003 5.83301C10.1782 5.83301 9.91699 6.09417 9.91699 6.41634C9.91699 6.73851 10.1782 6.99967 10.5003 6.99967Z" fill="#2A2A2A"/>
<path d="M7.00033 11.6667C7.32249 11.6667 7.58366 11.4055 7.58366 11.0833C7.58366 10.7612 7.32249 10.5 7.00033 10.5C6.67816 10.5 6.41699 10.7612 6.41699 11.0833C6.41699 11.4055 6.67816 11.6667 7.00033 11.6667Z" fill="#2A2A2A"/>
<path d="M7.00033 9.33366C7.32249 9.33366 7.58366 9.07249 7.58366 8.75033C7.58366 8.42816 7.32249 8.16699 7.00033 8.16699C6.67816 8.16699 6.41699 8.42816 6.41699 8.75033C6.41699 9.07249 6.67816 9.33366 7.00033 9.33366Z" fill="#2A2A2A"/>
<path d="M7.00033 6.99967C7.32249 6.99967 7.58366 6.73851 7.58366 6.41634C7.58366 6.09417 7.32249 5.83301 7.00033 5.83301C6.67816 5.83301 6.41699 6.09417 6.41699 6.41634C6.41699 6.73851 6.67816 6.99967 7.00033 6.99967Z" fill="#2A2A2A"/>
</svg>
