<svg width="157" height="110" viewBox="0 0 157 110" fill="none" xmlns="http://www.w3.org/2000/svg">
<g clip-path="url(#clip0_1284_224114)">
<path d="M129.745 93.4078C130.38 88.2888 133.544 83.245 138.414 81.5791C136.494 86.8481 136.494 92.6282 138.415 97.8969C139.164 99.9261 140.207 102.105 139.503 104.15C139.065 105.423 137.993 106.396 136.796 107.005C135.598 107.614 134.269 107.904 132.956 108.188L132.698 108.402C130.615 103.686 129.11 98.5269 129.745 93.4078Z" fill="#DFE2E6"/>
<path d="M138.462 81.6758C135.626 84.8614 133.864 88.8618 133.425 93.1088C133.314 94.0214 133.348 94.9458 133.524 95.848C133.724 96.7212 134.154 97.5248 134.769 98.1752C135.33 98.7932 135.975 99.3601 136.377 100.104C136.577 100.488 136.693 100.91 136.719 101.342C136.745 101.774 136.679 102.207 136.526 102.612C136.172 103.631 135.473 104.462 134.762 105.25C133.972 106.126 133.138 107.023 132.802 108.183C132.762 108.324 132.546 108.253 132.587 108.112C133.171 106.093 135.127 104.946 136.059 103.127C136.494 102.278 136.677 101.293 136.269 100.397C135.912 99.6136 135.247 99.0283 134.674 98.4075C134.065 97.7818 133.618 97.0162 133.372 96.1775C133.15 95.2872 133.081 94.3657 133.168 93.4523C133.331 91.3927 133.815 89.3716 134.604 87.4629C135.492 85.2796 136.746 83.2647 138.312 81.5053C138.409 81.3965 138.559 81.5677 138.462 81.6758H138.462Z" fill="white"/>
<path d="M133.487 91.7329C132.786 91.5624 132.169 91.1476 131.745 90.5628C131.321 89.9779 131.118 89.2611 131.173 88.5402C131.184 88.3944 131.411 88.4055 131.399 88.5516C131.347 89.2227 131.536 89.8905 131.932 90.4343C132.328 90.9781 132.905 91.3621 133.558 91.517C133.7 91.5509 133.628 91.7666 133.487 91.7329V91.7329Z" fill="white"/>
<path d="M134.444 97.8994C135.71 97.1417 136.644 95.9337 137.061 94.5161C137.102 94.3757 137.317 94.4471 137.276 94.5874C136.84 96.0618 135.865 97.3169 134.546 98.1024C134.42 98.1772 134.319 97.9738 134.444 97.8994V97.8994Z" fill="white"/>
<path d="M135.703 85.4951C135.96 85.6177 136.244 85.6744 136.529 85.6599C136.813 85.6454 137.09 85.5602 137.334 85.4121C137.458 85.3358 137.56 85.5393 137.436 85.6152C137.166 85.7776 136.86 85.8712 136.545 85.8879C136.231 85.9046 135.917 85.8439 135.632 85.711C135.604 85.7007 135.581 85.6802 135.567 85.6535C135.554 85.6268 135.551 85.596 135.559 85.5674C135.569 85.5389 135.589 85.5153 135.616 85.5017C135.643 85.4882 135.674 85.4858 135.703 85.4951V85.4951Z" fill="white"/>
<path d="M153.258 90.7223C153.181 90.7722 153.105 90.822 153.028 90.8739C152.002 91.55 151.033 92.3085 150.13 93.1419C150.059 93.2052 149.989 93.2705 149.92 93.3357C147.765 95.3669 146.006 97.7814 144.731 100.456C144.224 101.521 143.799 102.623 143.46 103.753C142.991 105.313 142.606 107.042 141.678 108.318C141.582 108.452 141.479 108.58 141.368 108.702H132.978C132.959 108.692 132.94 108.684 132.921 108.675L132.586 108.69C132.599 108.631 132.615 108.569 132.628 108.51C132.636 108.475 132.645 108.441 132.653 108.406C132.659 108.383 132.664 108.36 132.668 108.339C132.67 108.331 132.672 108.324 132.674 108.318C132.678 108.297 132.684 108.278 132.687 108.258C132.772 107.915 132.858 107.571 132.948 107.228C132.948 107.226 132.948 107.226 132.95 107.224C133.637 104.609 134.548 102.028 135.821 99.6678C135.859 99.5968 135.897 99.5239 135.939 99.4529C136.519 98.3923 137.184 97.3809 137.928 96.4289C138.337 95.9089 138.772 95.41 139.232 94.9341C140.421 93.7068 141.795 92.6746 143.305 91.8755C146.314 90.2829 149.797 89.6727 153.013 90.6455C153.095 90.6705 153.176 90.6954 153.258 90.7223Z" fill="#DFE2E6"/>
<path d="M153.239 90.829C149.061 91.6608 145.252 93.791 142.35 96.9171C141.714 97.5789 141.185 98.3372 140.785 99.1641C140.42 99.9821 140.281 100.883 140.381 101.774C140.458 102.606 140.632 103.448 140.506 104.284C140.435 104.711 140.275 105.118 140.036 105.479C139.797 105.84 139.485 106.146 139.119 106.377C138.224 106.977 137.168 107.218 136.126 107.419C134.97 107.641 133.765 107.854 132.8 108.578C132.683 108.665 132.554 108.478 132.671 108.391C134.35 107.131 136.6 107.395 138.437 106.506C139.294 106.091 140.032 105.414 140.244 104.453C140.43 103.612 140.25 102.743 140.165 101.902C140.055 101.035 140.158 100.153 140.465 99.3354C140.823 98.4908 141.321 97.7134 141.939 97.0364C143.306 95.4901 144.907 94.1688 146.683 93.1209C148.703 91.9137 150.915 91.0619 153.222 90.6023C153.364 90.5739 153.381 90.8008 153.239 90.829V90.829Z" fill="white"/>
<path d="M143.224 95.8554C142.767 95.2963 142.523 94.5924 142.536 93.8696C142.548 93.1467 142.817 92.452 143.294 91.9094C143.39 91.8 143.565 91.9456 143.468 92.0552C143.023 92.5597 142.773 93.2068 142.762 93.88C142.752 94.5531 142.982 95.2078 143.41 95.726C143.503 95.8387 143.316 95.9675 143.224 95.8554V95.8554Z" fill="white"/>
<path d="M140.287 101.357C141.753 101.516 143.225 101.115 144.409 100.235C144.526 100.148 144.655 100.335 144.538 100.422C143.304 101.336 141.772 101.749 140.247 101.58C140.102 101.564 140.143 101.341 140.287 101.357V101.357Z" fill="white"/>
<path d="M148.74 92.2128C148.872 92.4661 149.065 92.6826 149.301 92.8428C149.537 93.0031 149.809 93.102 150.092 93.1309C150.238 93.1452 150.196 93.3688 150.052 93.3546C149.739 93.3213 149.438 93.2116 149.177 93.0351C148.916 92.8587 148.702 92.6208 148.554 92.3422C148.538 92.3172 148.532 92.2869 148.537 92.2575C148.542 92.2281 148.559 92.2018 148.583 92.1841C148.607 92.1671 148.638 92.1605 148.667 92.1659C148.697 92.1713 148.723 92.1881 148.74 92.2128Z" fill="white"/>
<path d="M102.649 67.5637C102.823 67.3839 102.955 67.1682 103.036 66.9317C103.117 66.6951 103.146 66.4436 103.12 66.1948C103.094 65.9459 103.014 65.7059 102.885 65.4914C102.757 65.277 102.583 65.0935 102.376 64.9538L103.927 59.074L100.938 60.0816L99.9237 65.5106C99.7126 65.8749 99.6421 66.3041 99.7256 66.7169C99.8091 67.1298 100.041 67.4976 100.377 67.7507C100.713 68.0037 101.129 68.1245 101.548 68.09C101.967 68.0556 102.359 67.8683 102.649 67.5637V67.5637Z" fill="#9E616A"/>
<path d="M116.474 107.058L114.392 107.057L113.402 99.0093L116.474 99.0095L116.474 107.058Z" fill="#9E616A"/>
<path d="M117.004 109.08L110.293 109.08V108.995C110.293 108.3 110.568 107.634 111.058 107.143C111.548 106.652 112.212 106.376 112.905 106.376H112.905L117.004 106.376L117.004 109.08Z" fill="#4F527D"/>
<path d="M106.626 107.058L104.545 107.057L103.555 99.0093L106.627 99.0095L106.626 107.058Z" fill="#9E616A"/>
<path d="M107.157 109.08L100.445 109.08V108.995C100.445 108.3 100.721 107.634 101.21 107.143C101.7 106.652 102.365 106.376 103.058 106.376H103.058L107.157 106.376L107.157 109.08Z" fill="#4F527D"/>
<path d="M105.47 58.5658L104.671 58.787C104.671 58.787 102.584 72.3516 102.414 79.4998C102.244 86.648 102.923 104.689 102.923 104.689H107.337L110.903 74.0535L112.6 104.689H117.354C117.354 104.689 120.749 64.5226 119.221 61.2889C117.694 58.0552 105.47 58.5658 105.47 58.5658Z" fill="#4F527D"/>
<path d="M111.836 34.6308C114.039 34.6308 115.825 32.8407 115.825 30.6324C115.825 28.4242 114.039 26.634 111.836 26.634C109.633 26.634 107.848 28.4242 107.848 30.6324C107.848 32.8407 109.633 34.6308 111.836 34.6308Z" fill="#9E616A"/>
<path d="M121.939 39.8443L115.748 35.7886L109.333 36.0418L103.094 39.5039L105.471 52.7792L104.452 60.4379C104.452 60.4379 113.62 59.4168 115.657 60.9485C116.847 61.8573 118.25 62.4435 119.731 62.6505L119.392 49.5454L121.939 39.8443Z" fill="#9499C7"/>
<path d="M104.279 39.3336L103.638 39.2002L103.091 39.5038C103.091 39.5038 101.563 41.5462 101.563 43.4183C101.563 45.2905 99.6953 63.3312 99.6953 63.3312L103.091 64.8629L105.807 50.7367L104.279 39.3336Z" fill="#9499C7"/>
<path d="M115.328 27.7007C115.328 27.7007 116.371 25.7015 114.076 25.5198C114.076 25.5198 112.12 23.7406 110.125 25.1945C110.125 25.1945 109.038 25.1945 108.443 26.4285C108.443 26.4285 107.587 26.1032 107.399 26.9737C107.399 26.9737 106.773 28.7912 107.399 30.4269C108.025 32.0626 108.233 32.2443 108.233 32.2443C108.233 32.2443 107.205 28.815 109.708 28.6332C112.212 28.4515 115.014 26.8829 115.223 28.882C115.432 30.8812 115.746 31.3738 115.746 31.3738C115.746 31.3738 117.727 28.5186 115.328 27.7007Z" fill="#4F527D"/>
<path d="M63.7906 51.2227H14.3867V14.1201H63.7906V51.2227Z" fill="white"/>
<path d="M63.7906 51.2227H14.3867V14.1201H63.7906V51.2227ZM14.896 14.6307V50.7121H63.2812V14.6307H14.896Z" fill="#DFE2E6"/>
<path d="M39.071 42.1712C44.2663 42.1712 48.4779 37.9491 48.4779 32.7409C48.4779 27.5327 44.2663 23.3105 39.071 23.3105C33.8757 23.3105 29.6641 27.5327 29.6641 32.7409C29.6641 37.9491 33.8757 42.1712 39.071 42.1712Z" fill="#63A650"/>
<path d="M42.9787 31.9491H39.7804V28.7428C39.7804 28.5427 39.7011 28.3508 39.5599 28.2093C39.4188 28.0678 39.2274 27.9883 39.0278 27.9883C38.8282 27.9883 38.6367 28.0678 38.4956 28.2093C38.3545 28.3508 38.2752 28.5427 38.2752 28.7428V31.9491H35.0768C34.8772 31.9491 34.6858 32.0286 34.5447 32.17C34.4035 32.3115 34.3242 32.5034 34.3242 32.7035C34.3242 32.9036 34.4035 33.0955 34.5447 33.237C34.6858 33.3785 34.8772 33.458 35.0768 33.458H38.2752V36.6643C38.2752 36.8644 38.3545 37.0563 38.4956 37.1978C38.6367 37.3393 38.8282 37.4188 39.0278 37.4188C39.2274 37.4188 39.4188 37.3393 39.5599 37.1978C39.7011 37.0563 39.7804 36.8644 39.7804 36.6643V33.458H42.9787C43.1783 33.458 43.3697 33.3785 43.5109 33.237C43.652 33.0955 43.7313 32.9036 43.7313 32.7035C43.7313 32.5034 43.652 32.3115 43.5109 32.17C43.3697 32.0286 43.1783 31.9491 42.9787 31.9491Z" fill="white"/>
<path d="M18.4609 13.9652H0V0H18.4609V13.9652Z" fill="white"/>
<path d="M18.4609 13.9652H0V0H18.4609V13.9652ZM0.339545 13.6248H18.1214V0.34039H0.339545V13.6248Z" fill="#DFE2E6"/>
<path d="M16.0246 3.80347H2.43359V4.7118H16.0246V3.80347Z" fill="#DFE2E6"/>
<path d="M16.0246 6.52832H2.43359V7.43665H16.0246V6.52832Z" fill="#DFE2E6"/>
<path d="M16.0246 9.25342H2.43359V10.1618H16.0246V9.25342Z" fill="#DFE2E6"/>
<path d="M141.207 109.104H122.746V95.1392H141.207V109.104Z" fill="white"/>
<path d="M141.207 109.104H122.746V95.1392H141.207V109.104ZM123.086 108.764H140.867V95.4796H123.086V108.764Z" fill="#DFE2E6"/>
<path d="M138.771 98.9426H125.18V99.851H138.771V98.9426Z" fill="#DFE2E6"/>
<path d="M138.771 101.667H125.18V102.576H138.771V101.667Z" fill="#DFE2E6"/>
<path d="M138.771 104.393H125.18V105.301H138.771V104.393Z" fill="#DFE2E6"/>
<path d="M129.996 84.0461L116.207 71.741L125.469 61.3098L139.259 73.6149L129.996 84.0461Z" fill="white"/>
<path d="M129.996 84.0461L116.207 71.741L125.469 61.3098L139.259 73.6149L129.996 84.0461ZM116.686 71.713L129.968 83.5655L138.779 73.6429L125.497 61.7904L116.686 71.713Z" fill="#DFE2E6"/>
<path d="M124.763 65.7737L124.16 66.4521L134.312 75.5112L134.914 74.8327L124.763 65.7737Z" fill="#DFE2E6"/>
<path d="M122.958 67.8091L122.355 68.4875L132.507 77.5466L133.11 76.8681L122.958 67.8091Z" fill="#DFE2E6"/>
<path d="M121.149 69.8445L120.547 70.5229L130.698 79.582L131.301 78.9036L121.149 69.8445Z" fill="#DFE2E6"/>
<path d="M28.9148 22.1347H8.32031V6.55542H28.9148V22.1347Z" fill="white"/>
<path d="M28.9148 22.1347H8.32031V6.55542H28.9148V22.1347ZM8.6991 21.7549H28.5361V6.93514H8.6991V21.7549Z" fill="#DFE2E6"/>
<path d="M26.1969 10.7986H11.0352V11.8119H26.1969V10.7986Z" fill="#AEB5BC"/>
<path d="M26.1969 13.8381H11.0352V14.8514H26.1969V13.8381Z" fill="#AEB5BC"/>
<path d="M26.1969 16.8782H11.0352V17.8915H26.1969V16.8782Z" fill="#AEB5BC"/>
<path d="M82.3613 62.9193H50.9336V39.145H82.3613V62.9193Z" fill="white"/>
<path d="M82.3613 62.9193H50.9336V39.145H82.3613V62.9193ZM51.5116 62.3399H81.7833V39.7245H51.5116V62.3399Z" fill="#DFE2E6"/>
<path d="M78.2153 45.6201H55.0781V47.1665H78.2153V45.6201Z" fill="#AEB5BC"/>
<path d="M78.2153 50.2588H55.0781V51.8051H78.2153V50.2588Z" fill="#AEB5BC"/>
<path d="M78.2153 54.8977H55.0781V56.444H78.2153V54.8977Z" fill="#AEB5BC"/>
<path d="M156.797 109.263H75.2563C75.2027 109.263 75.1515 109.242 75.1137 109.204C75.0759 109.166 75.0547 109.114 75.0547 109.061C75.0547 109.007 75.0759 108.956 75.1137 108.918C75.1515 108.88 75.2027 108.858 75.2563 108.858H156.797C156.851 108.858 156.902 108.88 156.94 108.918C156.978 108.956 156.999 109.007 156.999 109.061C156.999 109.115 156.978 109.166 156.94 109.204C156.902 109.242 156.851 109.263 156.797 109.263Z" fill="#DFE2E6"/>
<path d="M119.826 67.4353C119.704 67.2168 119.632 66.9743 119.614 66.7247C119.596 66.4751 119.633 66.2247 119.722 65.9909C119.811 65.7572 119.95 65.5459 120.129 65.3719C120.309 65.1979 120.524 65.0654 120.76 64.9837L120.77 58.9019L123.399 60.6462L122.986 66.1542C123.097 66.5607 123.055 66.9936 122.868 67.371C122.681 67.7484 122.363 68.0441 121.973 68.202C121.584 68.3599 121.15 68.3691 120.754 68.2278C120.358 68.0865 120.028 67.8045 119.826 67.4353V67.4353Z" fill="#9E616A"/>
<path d="M120.071 40.525L121.246 39.3901L122.108 40.0144C122.108 40.0144 122.957 41.0356 123.636 44.0991C124.316 47.1626 123.636 64.0119 123.636 64.0119L119.901 63.5014L120.411 54.6512L118.883 47.1626L120.071 40.525Z" fill="#9499C7"/>
</g>
<defs>
<clipPath id="clip0_1284_224114">
<rect width="157" height="109.264" fill="white"/>
</clipPath>
</defs>
</svg>
