<svg width="157" height="125" viewBox="0 0 157 125" fill="none" xmlns="http://www.w3.org/2000/svg">
<g clip-path="url(#clip0_1284_224043)">
<path d="M78.6942 3.49781C78.6871 3.90583 78.6004 4.30842 78.4393 4.68259C78.2782 5.05676 78.0457 5.39517 77.7551 5.67849C77.4646 5.96181 77.1217 6.1845 76.746 6.33382C76.3703 6.48314 75.9691 6.55618 75.5655 6.54876H61.0506C60.9981 6.54741 60.9455 6.54603 60.8929 6.54195C60.7569 6.53307 60.6217 6.51439 60.4883 6.48605V1.29207C60.4882 1.08425 60.5509 0.881356 60.6681 0.710567C60.7852 0.539777 60.9511 0.409239 61.1437 0.336426H75.6761C76.4907 0.351996 77.266 0.693585 77.8318 1.28625C78.3976 1.87892 78.7078 2.67427 78.6942 3.49781H78.6942Z" fill="#DFE2E6"/>
<path d="M155.324 7.13521e-06H61.7146C61.5129 -0.000595161 61.3129 0.0369384 61.1249 0.11067C60.8059 0.231294 60.5309 0.447548 60.3369 0.730483C60.1428 1.01342 60.0389 1.34953 60.0391 1.69381V104.903C60.0392 105.352 60.2158 105.783 60.53 106.1C60.8442 106.418 61.2703 106.596 61.7146 106.597H155.324C155.768 106.596 156.194 106.418 156.509 106.1C156.823 105.783 156.999 105.352 156.999 104.903V1.69381C156.999 1.24463 156.823 0.813904 156.509 0.49629C156.194 0.178676 155.768 0.000169947 155.324 7.13521e-06ZM156.329 104.903C156.329 105.172 156.223 105.43 156.034 105.621C155.846 105.811 155.59 105.919 155.324 105.919H61.7146C61.4481 105.919 61.1927 105.811 61.0042 105.621C60.8157 105.43 60.7097 105.172 60.7093 104.903V1.69381C60.7097 1.4244 60.8157 1.16614 61.0042 0.975638C61.1927 0.785136 61.4481 0.677932 61.7146 0.677528H155.324C155.59 0.677932 155.846 0.785136 156.034 0.975638C156.223 1.16614 156.329 1.4244 156.329 1.69381V104.903Z" fill="#DFE2E6"/>
<path d="M105.64 35.4618C106.855 35.4618 107.839 34.4665 107.839 33.2388C107.839 32.0111 106.855 31.0159 105.64 31.0159C104.426 31.0159 103.441 32.0111 103.441 33.2388C103.441 34.4665 104.426 35.4618 105.64 35.4618Z" fill="#47A4DD"/>
<path d="M114.805 35.4618C116.019 35.4618 117.004 34.4665 117.004 33.2388C117.004 32.0111 116.019 31.0159 114.805 31.0159C113.59 31.0159 112.605 32.0111 112.605 33.2388C112.605 34.4665 113.59 35.4618 114.805 35.4618Z" fill="#47A4DD"/>
<path d="M87.3162 53.8314C88.5307 53.8314 89.5153 52.8361 89.5153 51.6084C89.5153 50.3807 88.5307 49.3855 87.3162 49.3855C86.1017 49.3855 85.1172 50.3807 85.1172 51.6084C85.1172 52.8361 86.1017 53.8314 87.3162 53.8314Z" fill="#47A4DD"/>
<path d="M96.4803 53.8314C97.6948 53.8314 98.6793 52.8361 98.6793 51.6084C98.6793 50.3807 97.6948 49.3855 96.4803 49.3855C95.2658 49.3855 94.2812 50.3807 94.2812 51.6084C94.2812 52.8361 95.2658 53.8314 96.4803 53.8314Z" fill="#47A4DD"/>
<path d="M105.64 63.0162C106.855 63.0162 107.839 62.021 107.839 60.7933C107.839 59.5656 106.855 58.5703 105.64 58.5703C104.426 58.5703 103.441 59.5656 103.441 60.7933C103.441 62.021 104.426 63.0162 105.64 63.0162Z" fill="#47A4DD"/>
<path d="M114.805 63.0162C116.019 63.0162 117.004 62.021 117.004 60.7933C117.004 59.5656 116.019 58.5703 114.805 58.5703C113.59 58.5703 112.605 59.5656 112.605 60.7933C112.605 62.021 113.59 63.0162 114.805 63.0162Z" fill="#47A4DD"/>
<path d="M123.969 63.0162C125.183 63.0162 126.168 62.021 126.168 60.7933C126.168 59.5656 125.183 58.5703 123.969 58.5703C122.754 58.5703 121.77 59.5656 121.77 60.7933C121.77 62.021 122.754 63.0162 123.969 63.0162Z" fill="#47A4DD"/>
<path d="M68.8665 1.64233C68.8175 1.69188 68.79 1.75909 68.79 1.82916C68.79 1.89924 68.8175 1.96645 68.8665 2.01601L68.8665 2.01603L69.9887 3.1504H67.2216C67.1524 3.1506 67.0861 3.17854 67.0372 3.22807C66.9884 3.2776 66.9609 3.3447 66.9609 3.41465C66.9609 3.48459 66.9884 3.55169 67.0372 3.60122C67.0861 3.65075 67.1524 3.67869 67.2216 3.67889H69.9887L68.8665 4.81326C68.8175 4.86281 68.79 4.93003 68.79 5.00011C68.79 5.07019 68.8175 5.1374 68.8665 5.18695C68.9156 5.23651 68.9821 5.26435 69.0514 5.26435C69.1207 5.26435 69.1872 5.23652 69.2362 5.18696L70.8046 3.6015C70.8537 3.55194 70.8812 3.48473 70.8812 3.41465C70.8812 3.34456 70.8537 3.27735 70.8046 3.22779L69.2362 1.64233C69.1872 1.59278 69.1207 1.56494 69.0514 1.56494C68.9821 1.56494 68.9156 1.59278 68.8666 1.64233H68.8665Z" fill="white"/>
<path d="M135.14 37.9815H76.0934C75.8649 37.9815 75.6797 37.8803 75.6797 37.7556C75.6797 37.6309 75.8649 37.5298 76.0934 37.5298H135.14C135.368 37.5298 135.554 37.6309 135.554 37.7556C135.554 37.8803 135.368 37.9815 135.14 37.9815Z" fill="#DFE2E6"/>
<path d="M135.14 28.0042H76.0934C75.8649 28.0042 75.6797 27.903 75.6797 27.7783C75.6797 27.6536 75.8649 27.5525 76.0934 27.5525H135.14C135.368 27.5525 135.554 27.6536 135.554 27.7783C135.554 27.9031 135.368 28.0042 135.14 28.0042Z" fill="#DFE2E6"/>
<path d="M135.328 47.3001H75.9539C75.8946 47.3001 75.8378 47.2763 75.7959 47.2339C75.754 47.1916 75.7305 47.1341 75.7305 47.0742C75.7305 47.0143 75.754 46.9569 75.7959 46.9145C75.8378 46.8722 75.8946 46.8484 75.9539 46.8484H135.328C135.387 46.8484 135.444 46.8722 135.486 46.9145C135.528 46.9569 135.551 47.0143 135.551 47.0742C135.551 47.1341 135.528 47.1916 135.486 47.2339C135.444 47.2763 135.387 47.3001 135.328 47.3001Z" fill="#DFE2E6"/>
<path d="M135.328 56.3338H75.9539C75.8946 56.3338 75.8378 56.31 75.7959 56.2676C75.754 56.2253 75.7305 56.1678 75.7305 56.1079C75.7305 56.048 75.754 55.9906 75.7959 55.9482C75.8378 55.9059 75.8946 55.8821 75.9539 55.8821H135.328C135.387 55.8821 135.444 55.9059 135.486 55.9482C135.528 55.9906 135.551 56.048 135.551 56.1079C135.551 56.1678 135.528 56.2253 135.486 56.2676C135.444 56.31 135.387 56.3338 135.328 56.3338Z" fill="#DFE2E6"/>
<path d="M135.328 65.5933H75.9539C75.8946 65.5933 75.8378 65.5695 75.7959 65.5271C75.754 65.4848 75.7305 65.4273 75.7305 65.3674C75.7305 65.3075 75.754 65.2501 75.7959 65.2078C75.8378 65.1654 75.8946 65.1416 75.9539 65.1416H135.328C135.387 65.1416 135.444 65.1654 135.486 65.2078C135.528 65.2501 135.551 65.3075 135.551 65.3674C135.551 65.4273 135.528 65.4848 135.486 65.5271C135.444 65.5695 135.387 65.5933 135.328 65.5933Z" fill="#DFE2E6"/>
<path d="M128.402 65.1278V27.9183C128.402 27.841 128.502 27.7783 128.626 27.7783C128.749 27.7783 128.849 27.841 128.849 27.9183V65.1278C128.849 65.2051 128.749 65.2678 128.626 65.2678C128.502 65.2678 128.402 65.2051 128.402 65.1278Z" fill="#DFE2E6"/>
<path d="M119.242 65.1278V27.9183C119.242 27.841 119.342 27.7783 119.466 27.7783C119.589 27.7783 119.689 27.841 119.689 27.9183V65.1278C119.689 65.2051 119.589 65.2678 119.466 65.2678C119.342 65.2678 119.242 65.2051 119.242 65.1278Z" fill="#DFE2E6"/>
<path d="M110.082 65.1278V27.9183C110.082 27.841 110.182 27.7783 110.305 27.7783C110.429 27.7783 110.529 27.841 110.529 27.9183V65.1278C110.529 65.2051 110.429 65.2678 110.305 65.2678C110.182 65.2678 110.082 65.2051 110.082 65.1278Z" fill="#DFE2E6"/>
<path d="M101.148 65.1278V27.9183C101.148 27.841 101.248 27.7783 101.372 27.7783C101.495 27.7783 101.595 27.841 101.595 27.9183V65.1278C101.595 65.2051 101.495 65.2678 101.372 65.2678C101.248 65.2678 101.148 65.2051 101.148 65.1278Z" fill="#DFE2E6"/>
<path d="M91.7656 74.5777V27.9538C91.7783 27.9036 91.8071 27.8591 91.8476 27.8273C91.888 27.7956 91.9378 27.7783 91.989 27.7783C92.0403 27.7783 92.09 27.7956 92.1305 27.8273C92.1709 27.8591 92.1998 27.9036 92.2124 27.9538V74.5777C92.1998 74.6278 92.1709 74.6723 92.1305 74.7041C92.09 74.7358 92.0403 74.7531 91.989 74.7531C91.9378 74.7531 91.888 74.7358 91.8476 74.7041C91.8071 74.6723 91.7783 74.6278 91.7656 74.5777Z" fill="#DFE2E6"/>
<path d="M82.3789 74.5777V27.9538C82.3916 27.9036 82.4204 27.8591 82.4609 27.8273C82.5013 27.7956 82.5511 27.7783 82.6023 27.7783C82.6535 27.7783 82.7033 27.7956 82.7438 27.8273C82.7842 27.8591 82.8131 27.9036 82.8257 27.9538V74.5777C82.8131 74.6278 82.7842 74.6723 82.7438 74.7041C82.7033 74.7358 82.6535 74.7531 82.6023 74.7531C82.5511 74.7531 82.5013 74.7358 82.4609 74.7041C82.4204 74.6723 82.3916 74.6278 82.3789 74.5777Z" fill="#DFE2E6"/>
<path d="M75.9544 74.8529C75.8951 74.853 75.8383 74.8293 75.7963 74.7871C75.7543 74.7448 75.7306 74.6874 75.7305 74.6275C75.7303 74.5676 75.7538 74.5101 75.7956 74.4677C75.8374 74.4253 75.8941 74.4013 75.9534 74.4012L98.6883 74.3015C98.7471 74.3027 98.8032 74.3268 98.845 74.3686C98.8868 74.4105 98.911 74.467 98.9127 74.5265C98.9128 74.5561 98.9072 74.5855 98.8961 74.613C98.8849 74.6404 98.8686 74.6654 98.8479 74.6864C98.8273 74.7075 98.8027 74.7242 98.7757 74.7357C98.7486 74.7471 98.7196 74.7531 98.6903 74.7532L75.9554 74.8529H75.9544Z" fill="#DFE2E6"/>
<path d="M92.5751 18.1074C92.5159 18.1075 92.4591 18.0837 92.4171 18.0414C92.3752 17.9991 92.3516 17.9416 92.3516 17.8817C92.3515 17.8218 92.375 17.7644 92.4169 17.722C92.4588 17.6796 92.5156 17.6558 92.5748 17.6557L124.461 17.6155H124.462C124.521 17.6154 124.578 17.6392 124.62 17.6815C124.662 17.7238 124.685 17.7813 124.685 17.8412C124.685 17.901 124.662 17.9585 124.62 18.0009C124.578 18.0433 124.521 18.0671 124.462 18.0672L92.5755 18.1074H92.5751Z" fill="#DFE2E6"/>
<path d="M51.77 121.731L54.62 121.73L55.9759 110.618L51.7695 110.619L51.77 121.731Z" fill="#FFB6B6"/>
<path d="M51.0469 120.789V124.523H60.2358V124.405C60.2356 123.446 59.8587 122.527 59.188 121.849C58.5172 121.171 57.6075 120.79 56.659 120.789L54.9789 119.502L54.8918 119.538L51.8489 120.789H51.0469Z" fill="#4F527D"/>
<path d="M26.0195 117.985L28.5702 119.27L34.6874 109.936L30.9227 108.04L26.0195 117.985Z" fill="#FFB6B6"/>
<path d="M24.1367 120.157L32.3605 124.299L32.4119 124.195C32.6217 123.771 32.7466 123.308 32.7795 122.834C32.8125 122.361 32.7528 121.885 32.6038 121.435C32.4548 120.985 32.2195 120.568 31.9113 120.21C31.6032 119.852 31.2282 119.558 30.8078 119.347L29.8717 117.438L29.7734 117.431L26.5026 117.176L26.4356 117.142L25.7832 116.815L24.1367 120.157Z" fill="#4F527D"/>
<path d="M53.706 62.0034L37.991 62.5594L37.8815 62.3986C37.8815 62.3986 36.5411 65.5603 36.5411 68.2704C36.5411 69.1715 37.161 75.0648 36.8458 76.1798C36.8066 76.3185 37.0763 76.6583 36.9879 77.304C36.9305 77.723 36.6138 77.4007 36.5411 77.9816C36.4888 78.3984 37.0462 78.6285 36.9879 79.1108C36.9242 79.6376 36.1575 81.344 36.0885 81.9301C35.3537 88.1691 34.3755 97.2076 34.3755 97.2076C34.3755 97.2076 30.4465 107.845 29.6153 108.018C28.2202 108.308 27.2783 110.873 28.0514 111.406C28.4196 111.66 33.1775 113.368 33.1775 113.368C33.4389 113.416 34.2568 113.001 33.7358 112.021C33.6399 111.84 34.2119 112.3 34.3069 112.083C34.408 111.854 34.2096 110.939 34.3254 110.684C35.3652 108.393 36.9616 105.219 38.4745 103.589C40.7099 101.18 42.1256 98.1129 42.5149 94.8339L45.985 75.3834L47.1743 80.8378L48.1584 81.8208L47.8885 84.1129L47.935 86.3377L50.3925 95.5971C50.3925 95.5971 50.7611 112.889 50.1691 113.438C49.8485 113.736 48.4881 117.399 51.0628 117.729L55.7406 117.365C55.7406 117.365 56.3709 116.022 56.0558 115.544C55.7406 115.066 55.7595 115.197 56.144 114.415C56.5285 113.633 56.3709 112.308 56.3709 112.308C56.9837 106.08 57.2254 99.8212 57.0949 93.5645C56.8604 83.2881 55.4393 71.4825 55.4393 71.2419C55.4274 70.9961 55.4722 70.7507 55.5702 70.5253V69.8767L54.9666 67.5784L53.706 62.0034Z" fill="#4F527D"/>
<path d="M33.3576 67.7817C33.2259 67.5541 33.1451 67.3 33.1209 67.0374C33.0968 66.7748 33.1299 66.51 33.218 66.2618C33.306 66.0135 33.4468 65.7878 33.6305 65.6005C33.8142 65.4132 34.0363 65.2688 34.2811 65.1777L34.1682 53.7634L36.9533 55.5445L36.6331 66.3628C36.7574 66.7887 36.7227 67.2458 36.5358 67.6477C36.3489 68.0495 36.0226 68.368 35.6189 68.5429C35.2151 68.7178 34.7619 68.7369 34.3452 68.5966C33.9284 68.4563 33.577 68.1664 33.3576 67.7817Z" fill="#FFB8B8"/>
<path d="M33.9942 62.9966L34.2312 62.9851L34.2595 62.9858L35.1366 62.9827L36.5812 62.9796L36.6859 62.9781L36.733 62.9872L37.2262 63.0739L37.2466 62.9401L38.2079 61.0839L38.947 60.0562L38.6781 58.8453L38.1478 58.1775L39.0486 57.0741L39.1624 56.5291L39.9163 52.9449L42.4155 41.057L42.4156 41.0498L42.4681 40.7976L43.2809 36.9356L43.0305 35.9645L42.7515 34.8983C42.573 34.2215 42.1593 33.6322 41.5861 33.2385C41.3374 33.0684 41.0636 32.9391 40.7748 32.8555C40.4068 32.7453 40.0203 32.7132 39.6395 32.761L39.6352 32.7623C39.4191 32.7895 39.2067 32.8414 39.0022 32.917L38.9208 32.9491C38.8075 32.9956 38.6973 33.0492 38.5908 33.1097C38.2607 33.2953 37.9704 33.5454 37.7368 33.8454C37.5032 34.1455 37.331 34.4895 37.2301 34.8574L34.5822 37.8392L34.1164 39.5264L33.9666 40.0682L33.4866 42.9567L33.4937 54.3239L33.4083 54.8389L33.2868 57.6926L33.7617 58.3468L33.2251 59.1398L33.2067 59.5751L33.2031 59.6872L33.9197 60.4228L33.9654 62.0093L33.9942 62.9966Z" fill="#9499C7"/>
<path d="M36.582 65.7196C40.55 66.4133 43.2108 66.1491 44.8482 63.687C46.9845 60.9372 50.8694 64.1841 54.1472 65.3913L54.536 64.9668L55.1973 64.2463L54.5896 63.5507L55.1973 62.2092L54.6901 60.5538L54.0422 60.4341L54.2165 59.0091L54.4891 58.1757L53.6892 57.2882L53.0101 55.0727L53.4993 50.4362C54.1689 44.0809 52.8716 37.6721 49.7863 32.0935L47.9297 30.4087L47.1589 29.7086L46.1245 27.7573L45.0321 27.8861L42.0741 28.2316L41.9736 28.4755L41.2475 30.2461L38.6098 33.1103C38.2367 33.5154 37.9532 33.9961 37.7782 34.5205C37.6032 35.045 37.5407 35.601 37.5947 36.1518L37.6707 36.9242L37.7265 37.4797L37.9902 40.1537L39.0648 51.0776L39.1452 51.658L40.0098 57.9386C38.6045 59.3117 38.519 59.0121 37.9225 61.4286C37.8555 61.6974 37.078 62.2959 37.0288 62.5578C36.9596 62.9282 36.582 65.7196 36.582 65.7196Z" fill="#9499C7"/>
<path d="M44.6376 26.6062C47.475 26.6062 49.7752 24.281 49.7752 21.4127C49.7752 18.5444 47.475 16.2192 44.6376 16.2192C41.8002 16.2192 39.5 18.5444 39.5 21.4127C39.5 24.281 41.8002 26.6062 44.6376 26.6062Z" fill="#FFB6B6"/>
<path d="M39.2636 17.5031C39.9532 16.7773 41.0548 16.4193 41.9902 16.7637C42.1994 16.1586 42.5688 15.6232 43.0581 15.2156C43.5475 14.8081 44.1381 14.5441 44.7657 14.4523C45.3932 14.3606 46.0336 14.4447 46.6171 14.6954C47.2007 14.9461 47.705 15.3538 48.0752 15.8742C48.2445 15.7974 48.4305 15.766 48.6152 15.7832C48.8 15.8003 48.9773 15.8654 49.1298 15.9722C49.4328 16.1899 49.6768 16.481 49.8397 16.8188C50.2597 17.6255 50.4555 18.5322 50.4062 19.4424C50.3569 20.3526 50.0643 21.2323 49.5597 21.9877C49.7608 21.5774 49.1955 22.2842 48.6445 22.099C48.1712 21.9736 46.2272 20.7135 45.7421 20.7772C45.257 20.8409 45.0996 20.4454 44.625 20.3255C44.1602 20.1752 42.9736 22.1177 42.7358 23.4029C42.6908 23.6465 42.5813 23.9491 42.3363 23.9547C42.0345 23.9615 41.9441 23.5246 41.6895 23.3605C41.5695 23.2988 41.4305 23.2866 41.3018 23.3265C41.1731 23.3663 41.0648 23.4551 40.9996 23.5742C40.9401 23.6966 40.9103 23.8315 40.9128 23.9679C40.9154 24.1042 40.9501 24.2379 41.014 24.358C41.1441 24.5965 41.3115 24.8123 41.5096 24.997L41.3778 25.0702C41.2479 25.1642 41.0898 25.2096 40.9305 25.1987C40.7711 25.1878 40.6205 25.1211 40.5045 25.0103C40.0138 25.234 38.6792 23.972 38.8564 23.2085C38.4837 22.2726 38.28 21.2767 38.2547 20.2682C38.2342 19.2509 38.5945 18.2633 39.2636 17.5031Z" fill="#4F527D"/>
<path d="M76.9497 48.4601C76.7009 48.5394 76.4379 48.5625 76.1792 48.5279C75.9206 48.4934 75.6726 48.4019 75.4527 48.2599C75.2328 48.1179 75.0464 47.929 74.9066 47.7063C74.7668 47.4836 74.6769 47.2327 74.6434 46.9711L63.6094 44.5451L65.9463 42.196L76.3093 44.9164C76.7477 44.8886 77.1809 45.0244 77.5269 45.298C77.8729 45.5715 78.1076 45.9639 78.1866 46.4007C78.2655 46.8375 78.1832 47.2884 77.9552 47.668C77.7273 48.0475 77.3695 48.3294 76.9497 48.4601Z" fill="#FFB8B8"/>
<path d="M47.1303 32.3582C46.4907 32.3817 45.8772 32.6201 45.3866 33.0355C45.1152 33.263 44.8888 33.5404 44.7195 33.8531C44.5332 34.1922 44.4169 34.5661 44.3779 34.952L44.378 34.9543C44.3208 35.5226 44.4314 36.0954 44.6959 36.6003C44.9603 37.1051 45.3668 37.5195 45.864 37.7912L49.4989 39.7824L49.9592 40.034C53.0563 43.2249 58.2786 44.893 64.2863 45.9995L67.7402 46.9546L68.9013 46.519L69.1825 47.6349L70.3387 47.6732L70.9674 47.5411L72.2828 47.0196L72.5339 46.5089L72.5338 46.5067L73.0737 44.0856L73.0773 44.0696L73.0772 44.0674L73.2031 43.5135L72.4613 43.1665L71.816 42.2951L70.6491 42.3188L69.5849 42.4124L69.2732 41.6752L55.7885 35.3674L52.9964 34.0601L52.9894 34.056L52.8565 33.9929L49.214 32.2893L48.2223 32.3211L47.1303 32.3582Z" fill="#9499C7"/>
<path d="M76.5975 51.2706C77.812 51.2706 78.7965 50.2754 78.7965 49.0477C78.7965 47.82 77.812 46.8247 76.5975 46.8247C75.383 46.8247 74.3984 47.82 74.3984 49.0477C74.3984 50.2754 75.383 51.2706 76.5975 51.2706Z" fill="#47A4DD"/>
<path d="M13.5601 123.379C11.9468 123.523 10.322 123.3 8.80457 122.728C7.2871 122.156 5.91524 121.248 4.78919 120.071C3.31679 118.502 2.30638 116.482 1.32921 114.529C1.04476 113.961 0.750732 113.373 0.451602 112.809C0.118106 112.195 -0.0258261 111.494 0.0383485 110.796C0.102523 110.099 0.371863 109.437 0.811673 108.895C1.23315 108.354 1.80532 107.952 2.45449 107.743C3.10365 107.533 3.80004 107.525 4.45394 107.719L4.59653 107.76L5.87985 112.822C6.0713 112.067 6.48223 110.366 6.74172 108.699L6.76352 108.56L6.89132 108.617C8.23129 109.217 9.49128 109.984 10.6415 110.902C12.6792 112.554 14.3366 114.635 15.4983 117C16.6601 119.365 17.2984 121.958 17.3689 124.597L17.3723 124.755L13.5601 123.379Z" fill="#DFE2E6"/>
<path d="M62.5419 124.867L0.266013 124.937C0.195463 124.937 0.127799 124.908 0.0779123 124.858C0.0280255 124.807 0 124.739 0 124.668C0 124.596 0.0280255 124.528 0.0779123 124.478C0.127799 124.427 0.195463 124.399 0.266013 124.399L62.5419 124.329C62.6123 124.33 62.6797 124.358 62.7295 124.408C62.7792 124.459 62.8071 124.527 62.8071 124.598C62.8071 124.669 62.7792 124.738 62.7295 124.788C62.6797 124.839 62.6123 124.867 62.5419 124.867Z" fill="#CACACA"/>
<path d="M114.44 15.0907H102.599C102.332 15.0907 102.077 14.9836 101.888 14.793C101.7 14.6024 101.594 14.3439 101.594 14.0744C101.594 13.8049 101.7 13.5464 101.888 13.3558C102.077 13.1652 102.332 13.0581 102.599 13.0581H114.44C114.707 13.0581 114.962 13.1652 115.151 13.3558C115.339 13.5464 115.445 13.8049 115.445 14.0744C115.445 14.3439 115.339 14.6024 115.151 14.793C114.962 14.9836 114.707 15.0907 114.44 15.0907Z" fill="#DFE2E6"/>
<path d="M151.735 6.46061C151.248 6.46061 150.772 6.31468 150.367 6.04127C149.963 5.76785 149.647 5.37924 149.461 4.92458C149.275 4.46991 149.226 3.96961 149.321 3.48694C149.416 3.00427 149.65 2.56091 149.994 2.21292C150.339 1.86493 150.777 1.62795 151.255 1.53194C151.732 1.43593 152.227 1.48521 152.677 1.67354C153.127 1.86187 153.511 2.18079 153.782 2.58998C154.052 2.99917 154.196 3.48024 154.196 3.97237C154.196 4.63229 153.937 5.26519 153.475 5.73182C153.014 6.19846 152.388 6.46061 151.735 6.46061Z" fill="#DFE2E6"/>
</g>
<defs>
<clipPath id="clip0_1284_224043">
<rect width="157" height="124.937" fill="white"/>
</clipPath>
</defs>
</svg>
