<svg width="157" height="94" viewBox="0 0 157 94" fill="none" xmlns="http://www.w3.org/2000/svg">
<g clip-path="url(#clip0_1284_224088)">
<path d="M120.204 92.6057C118.194 90.9108 116.973 88.2335 117.293 85.627C117.613 83.0206 119.596 80.6245 122.169 80.071C124.741 79.5175 127.673 81.0497 128.455 83.5572C128.885 78.7228 129.38 73.6858 131.956 69.5689C134.288 65.8411 138.328 63.1737 142.706 62.6965C147.084 62.2193 151.693 64.0216 154.424 67.4698C157.154 70.9179 157.822 75.9307 155.91 79.8895C154.501 82.8057 151.906 84.9761 149.187 86.7417C140.4 92.3991 129.861 94.6998 119.51 93.2204L120.204 92.6057Z" fill="#DFE2E6"/>
<path d="M150.093 64.1216C146.481 67.0576 143.167 70.3414 140.199 73.9253C135.555 79.515 131.797 85.7821 129.056 92.5082C128.855 92.9988 129.653 93.2124 129.852 92.7272C134.337 81.7959 141.497 72.1612 150.677 64.7042C151.089 64.3692 150.502 63.7893 150.093 64.1216Z" fill="white"/>
<path d="M50.5408 92.1451C53.3016 89.8172 54.9785 86.1399 54.5388 82.5599C54.099 78.98 51.3752 75.689 47.842 74.9287C44.3088 74.1685 40.2812 76.2729 39.208 79.717C38.6174 73.077 37.9368 66.1587 34.3991 60.5041C31.1957 55.3839 25.6474 51.7203 19.6342 51.0649C13.6211 50.4094 7.29007 52.8849 3.53991 57.6209C-0.210253 62.3569 -1.12846 69.2421 1.49805 74.6794C3.43291 78.6849 6.99761 81.6658 10.7325 84.091C22.6482 91.828 37.4296 95.0548 51.4943 92.9894" fill="#DFE2E6"/>
<path d="M9.48696 53.0222C14.4485 57.0549 19.0002 61.5651 23.0763 66.4877C27.1529 71.4052 30.742 76.7057 33.7931 82.3147C35.4985 85.4611 37.0305 88.6981 38.3822 92.0112C38.6579 92.6851 37.5611 92.9785 37.2886 92.3121C34.8943 86.4711 31.9321 80.8784 28.4444 75.6141C24.9737 70.3689 21.0013 65.4719 16.583 60.9922C14.084 58.4596 11.4474 56.0661 8.685 53.8224C8.11879 53.3624 8.92543 52.5659 9.48696 53.0222L9.48696 53.0222Z" fill="white"/>
<path d="M112.696 93.4597H46.8281V26.0211C46.8281 11.673 58.5259 0 72.9045 0H86.6196C100.998 0 112.696 11.673 112.696 26.0211V93.4597Z" fill="#DFE2E6"/>
<path d="M98.9811 93.4598H46.8282V26.0211C46.8138 20.5232 48.5585 15.1643 51.8081 10.7246C51.9279 10.5617 52.0474 10.4009 52.1706 10.2418C53.7425 8.18461 55.613 6.37288 57.7205 4.86641C57.8396 4.77997 57.9591 4.69504 58.0804 4.6101C59.8439 3.39231 61.7515 2.3968 63.7598 1.64622C63.8791 1.60111 64.0005 1.55591 64.122 1.51256C65.9383 0.865743 67.8212 0.422673 69.7358 0.191536C69.8545 0.175357 69.9763 0.162696 70.0982 0.150034C71.964 -0.0490349 73.8457 -0.0490349 75.7115 0.150034C75.833 0.162696 75.9548 0.175355 76.0749 0.19171C77.989 0.422862 79.8714 0.865877 81.6873 1.51257C81.8088 1.55592 81.9302 1.60112 82.0498 1.64631C84.0334 2.38743 85.9186 3.36808 87.6633 4.5664C87.7845 4.64949 87.9058 4.73443 88.0253 4.81937C89.2067 5.66082 90.3163 6.59825 91.3428 7.62208C92.1661 8.44331 92.9332 9.31869 93.6391 10.2423C93.7619 10.4009 93.8814 10.5617 94.001 10.7244C97.2508 15.1641 98.9955 20.5231 98.9811 26.0211V93.4598Z" fill="#C22E49"/>
<path d="M94.7428 63.2969C96.3375 63.2969 97.6302 62.0069 97.6302 60.4156C97.6302 58.8244 96.3375 57.5344 94.7428 57.5344C93.1482 57.5344 91.8555 58.8244 91.8555 60.4156C91.8555 62.0069 93.1482 63.2969 94.7428 63.2969Z" fill="#47A4DD"/>
<path d="M107.3 91.4398H105.088L104.035 82.9243L107.301 82.9245L107.3 91.4398Z" fill="#FFB8B8"/>
<path d="M103.507 90.8091H107.774V93.4899H100.82C100.82 93.1378 100.89 92.7892 101.025 92.464C101.16 92.1387 101.358 91.8432 101.607 91.5943C101.857 91.3453 102.153 91.1479 102.479 91.0131C102.805 90.8784 103.154 90.8091 103.507 90.8091Z" fill="#4F527D"/>
<path d="M118.308 91.4398H116.096L115.043 82.9243L118.308 82.9245L118.308 91.4398Z" fill="#FFB8B8"/>
<path d="M114.515 90.8091H118.781V93.4899H111.828C111.828 93.1378 111.898 92.7892 112.033 92.464C112.168 92.1387 112.366 91.8432 112.615 91.5943C112.864 91.3453 113.161 91.1479 113.487 91.0131C113.812 90.8784 114.162 90.8091 114.515 90.8091Z" fill="#4F527D"/>
<path d="M96.2018 60.9865C96.0426 60.7525 95.9368 60.4865 95.8918 60.2073C95.8468 59.9281 95.8637 59.6424 95.9413 59.3704C96.0189 59.0984 96.1553 58.8467 96.3409 58.633C96.5266 58.4193 96.7569 58.2488 97.0157 58.1335L104.537 37.4487L108.237 39.464L99.6501 59.2312C99.8153 59.6779 99.8106 60.1695 99.6368 60.613C99.4631 61.0564 99.1323 61.4209 98.7073 61.6372C98.2822 61.8536 97.7924 61.9069 97.3306 61.7869C96.8688 61.667 96.4672 61.3822 96.2018 60.9865Z" fill="#FFB8B8"/>
<path d="M117.18 64.8733C116.934 64.7326 116.722 64.5398 116.559 64.3086C116.396 64.0773 116.286 63.8132 116.236 63.5348C116.186 63.2563 116.198 62.9704 116.271 62.6971C116.344 62.4238 116.476 62.1698 116.658 61.953L114.328 40.072L118.54 40.264L119.508 61.7869C119.853 62.116 120.065 62.56 120.103 63.0346C120.142 63.5091 120.005 63.9814 119.718 64.3618C119.431 64.7423 119.014 65.0044 118.546 65.0987C118.079 65.193 117.592 65.1127 117.18 64.8733Z" fill="#FFB8B8"/>
<path d="M110.46 33.6172C112.907 33.6172 114.892 31.637 114.892 29.1944C114.892 26.7517 112.907 24.7715 110.46 24.7715C108.012 24.7715 106.027 26.7517 106.027 29.1944C106.027 31.637 108.012 33.6172 110.46 33.6172Z" fill="#FFB8B8"/>
<path d="M117.152 59.8969H103.789L103.805 59.7931C103.829 59.638 106.187 44.2275 104.448 39.1859C104.273 38.6904 104.289 38.1481 104.491 37.6633C104.693 37.1784 105.068 36.7854 105.543 36.5597H105.543C108.028 35.3919 112.799 33.9538 116.826 37.4438C117.418 37.9658 117.881 38.6182 118.177 39.3494C118.473 40.0806 118.595 40.8706 118.533 41.6568L117.152 59.8969Z" fill="#9499C7"/>
<path d="M106.356 46.5049L100.34 45.287L103.16 38.6188C103.329 37.9729 103.747 37.4202 104.324 37.0819C104.9 36.7436 105.588 36.6473 106.235 36.8142C106.883 36.981 107.438 37.3973 107.778 37.9719C108.119 38.5464 108.217 39.2322 108.051 39.8789L106.356 46.5049Z" fill="#9499C7"/>
<path d="M114.06 48.7662L113.698 40.4933C113.424 38.9381 114.316 37.4679 115.688 37.2276C117.06 36.9882 118.401 38.0668 118.676 39.6334L120.035 47.3637L114.06 48.7662Z" fill="#9499C7"/>
<path d="M116.708 58.9065C118.858 67.0778 119.093 77.4669 118.513 88.7992L115.625 88.4391L110.392 66.8299L107.505 88.7992L104.256 88.6191C103.286 76.7287 102.341 66.521 103.895 59.8069L116.708 58.9065Z" fill="#4F527D"/>
<path d="M113.382 32.6125C112.556 33.4914 111.02 33.0196 110.912 31.8189C110.904 31.7256 110.904 31.6318 110.914 31.5387C110.97 31.0068 111.278 30.524 111.204 29.9624C111.187 29.8226 111.135 29.6894 111.052 29.5754C110.393 28.695 108.847 29.9692 108.225 29.1722C107.843 28.6835 108.292 27.914 107.999 27.3677C107.613 26.6468 106.469 27.0024 105.752 26.6076C104.954 26.1683 105.001 24.9463 105.527 24.2031C106.167 23.2966 107.291 22.813 108.4 22.7433C109.51 22.6736 110.611 22.9728 111.647 23.3756C112.824 23.8332 113.991 24.4657 114.715 25.4983C115.596 26.754 115.68 28.4421 115.24 29.9104C114.972 30.8036 114.058 31.8948 113.382 32.6125Z" fill="#4F527D"/>
<path d="M151.583 93.5756H18.351C18.2941 93.5754 18.2396 93.5527 18.1994 93.5125C18.1593 93.4723 18.1367 93.4179 18.1367 93.3611C18.1367 93.3044 18.1593 93.2499 18.1994 93.2098C18.2396 93.1696 18.2941 93.1469 18.351 93.1467H151.583C151.64 93.1469 151.695 93.1696 151.735 93.2098C151.775 93.2499 151.798 93.3044 151.798 93.3611C151.798 93.4179 151.775 93.4723 151.735 93.5125C151.695 93.5527 151.64 93.5754 151.583 93.5756Z" fill="#9499C7"/>
<path d="M84.6367 73.9214H61.1769C60.8679 73.923 60.5709 73.8023 60.351 73.5858C60.1311 73.3692 60.0063 73.0744 60.0039 72.7661V20.5134C60.0063 20.2051 60.1311 19.9103 60.351 19.6938C60.5709 19.4772 60.8679 19.3565 61.1769 19.3582H84.6367C84.9456 19.3565 85.2426 19.4772 85.4625 19.6938C85.6824 19.9103 85.8073 20.2051 85.8097 20.5134V72.7661C85.8073 73.0744 85.6824 73.3692 85.4625 73.5858C85.2426 73.8023 84.9456 73.923 84.6367 73.9214Z" fill="white"/>
<path d="M85.8097 36.2656H60.0039V36.6258H85.8097V36.2656Z" fill="#AEB5BC"/>
<path d="M85.8995 56.8142H60.0938V57.1744H85.8995V56.8142Z" fill="#AEB5BC"/>
<path d="M68.4859 19.3582H68.125V74.1014H68.4859V19.3582Z" fill="#AEB5BC"/>
<path d="M77.5094 19.3582H77.1484V74.1014H77.5094V19.3582Z" fill="#AEB5BC"/>
</g>
<defs>
<clipPath id="clip0_1284_224088">
<rect width="157" height="93.6648" fill="white"/>
</clipPath>
</defs>
</svg>
