<svg width="24" height="13" viewBox="0 0 24 13" fill="none" xmlns="http://www.w3.org/2000/svg">
<path d="M19.6478 9.05355C19.8431 9.24882 20.1597 9.24882 20.3549 9.05355L23.5369 5.87157C23.7322 5.67631 23.7322 5.35973 23.5369 5.16447C23.3416 4.9692 23.0251 4.9692 22.8298 5.16447L20.0014 7.99289L17.1729 5.16447C16.9777 4.9692 16.6611 4.9692 16.4658 5.16447C16.2706 5.35973 16.2706 5.67631 16.4658 5.87157L19.6478 9.05355ZM6.40137 1.5H15.0014V0.5H6.40137V1.5ZM19.5014 6V8.7H20.5014V6H19.5014ZM15.0014 1.5C17.4867 1.5 19.5014 3.51472 19.5014 6H20.5014C20.5014 2.96244 18.0389 0.5 15.0014 0.5V1.5Z" fill="black"/>
<path d="M4.35316 2.84645C4.1579 2.65118 3.84132 2.65118 3.64606 2.84645L0.464075 6.02843C0.268813 6.22369 0.268813 6.54027 0.464075 6.73553C0.659338 6.9308 0.97592 6.9308 1.17118 6.73553L3.99961 3.90711L6.82804 6.73553C7.0233 6.9308 7.33988 6.9308 7.53514 6.73553C7.73041 6.54027 7.73041 6.22369 7.53514 6.02843L4.35316 2.84645ZM17.5996 11.5L8.99961 11.5L8.99961 12.5L17.5996 12.5L17.5996 11.5ZM4.49961 7L4.49961 3.2L3.49961 3.2L3.49961 7L4.49961 7ZM8.99961 11.5C6.51433 11.5 4.49961 9.48528 4.49961 7L3.49961 7C3.49961 10.0376 5.96204 12.5 8.99961 12.5L8.99961 11.5Z" fill="black"/>
</svg>
