<svg width="15" height="20" viewBox="0 0 15 20" fill="none" xmlns="http://www.w3.org/2000/svg">
<path d="M5.65385 16.5455C5.42019 16.5455 5.23077 16.7286 5.23077 16.9545C5.23077 17.1805 5.42019 17.3636 5.65385 17.3636H7.34615C7.57981 17.3636 7.76923 17.1805 7.76923 16.9545C7.76923 16.7286 7.57981 16.5455 7.34615 16.5455H5.65385Z" fill="#2A2A2A"/>
<path fill-rule="evenodd" clip-rule="evenodd" d="M1 2.63636C1 1.73262 1.75767 1 2.69231 1H10.3077C11.2423 1 12 1.73263 12 2.63636V17.3636C12 18.2674 11.2423 19 10.3077 19H2.69231C1.75767 19 1 18.2674 1 17.3636V2.63636ZM1.84615 2.63636C1.84615 2.18449 2.22499 1.81818 2.69231 1.81818H10.3077C10.775 1.81818 11.1538 2.18449 11.1538 2.63636V17.3636C11.1538 17.8155 10.775 18.1818 10.3077 18.1818H2.69231C2.22499 18.1818 1.84615 17.8155 1.84615 17.3636V2.63636Z" fill="#2A2A2A"/>
<path d="M5.65385 16.5455C5.42019 16.5455 5.23077 16.7286 5.23077 16.9545C5.23077 17.1805 5.42019 17.3636 5.65385 17.3636H7.34615C7.57981 17.3636 7.76923 17.1805 7.76923 16.9545C7.76923 16.7286 7.57981 16.5455 7.34615 16.5455H5.65385Z" stroke="#2A2A2A" stroke-width="0.25" stroke-linecap="round"/>
<path fill-rule="evenodd" clip-rule="evenodd" d="M1 2.63636C1 1.73262 1.75767 1 2.69231 1H10.3077C11.2423 1 12 1.73263 12 2.63636V17.3636C12 18.2674 11.2423 19 10.3077 19H2.69231C1.75767 19 1 18.2674 1 17.3636V2.63636ZM1.84615 2.63636C1.84615 2.18449 2.22499 1.81818 2.69231 1.81818H10.3077C10.775 1.81818 11.1538 2.18449 11.1538 2.63636V17.3636C11.1538 17.8155 10.775 18.1818 10.3077 18.1818H2.69231C2.22499 18.1818 1.84615 17.8155 1.84615 17.3636V2.63636Z" stroke="#2A2A2A" stroke-width="0.25" stroke-linecap="round"/>
<circle cx="11.5" cy="8.5" r="3.25" fill="#AEDCC9" stroke="white" stroke-width="0.5"/>
<path d="M10 7.5L11.4277 9L14.4277 6" stroke="#2A2A2A" stroke-width="0.75" stroke-linecap="round" stroke-linejoin="round"/>
</svg>
