<svg width="16" height="18" viewBox="0 0 16 18" fill="none" xmlns="http://www.w3.org/2000/svg">
<path fill-rule="evenodd" clip-rule="evenodd" d="M13.625 7.875C13.625 5.38972 11.6103 3.375 9.125 3.375C6.63972 3.375 4.625 5.38972 4.625 7.875V12.471C4.44906 12.4088 4.25973 12.375 4.0625 12.375C3.13052 12.375 2.375 13.1305 2.375 14.0625C2.375 14.9945 3.13052 15.75 4.0625 15.75H4.625H8C8 16.3713 8.50368 16.875 9.125 16.875C9.74632 16.875 10.25 16.3713 10.25 15.75H13.625H14.1875C15.1195 15.75 15.875 14.9945 15.875 14.0625C15.875 13.1305 15.1195 12.375 14.1875 12.375C13.9903 12.375 13.8009 12.4088 13.625 12.471V7.875Z" fill="#E7BDBD"/>
<path d="M14.1227 12.1717H14.0622C14.0177 12.1722 13.9735 12.1637 13.9323 12.1466C13.891 12.1294 13.8535 12.1041 13.8219 12.072C13.7902 12.0399 13.7651 12.0016 13.748 11.9595C13.7308 11.9174 13.722 11.8722 13.722 11.8265V8.06793C13.7207 6.60521 13.1904 5.19508 12.2337 4.11081C11.2771 3.02655 9.96225 2.34536 8.54411 2.19929V0.581822C8.54411 0.427513 8.48438 0.279525 8.37807 0.170412C8.27175 0.0612992 8.12755 0 7.97719 0C7.82683 0 7.68263 0.0612992 7.57631 0.170412C7.46999 0.279525 7.41027 0.427513 7.41027 0.581822V2.19929C5.99213 2.34536 4.67732 3.02655 3.72068 4.11081C2.76403 5.19508 2.23366 6.60521 2.23236 8.06793V11.8265C2.23236 11.8722 2.22353 11.9174 2.20639 11.9595C2.18925 12.0016 2.16414 12.0399 2.1325 12.072C2.10086 12.1041 2.06334 12.1294 2.02209 12.1466C1.98084 12.1637 1.93669 12.1722 1.8922 12.1717C1.41627 12.1615 0.954733 12.3394 0.60301 12.6686C0.251287 12.9978 0.0362814 13.4531 0.00245217 13.9405C-0.010363 14.1937 0.0271487 14.4469 0.112705 14.6848C0.198262 14.9227 0.330075 15.1402 0.500128 15.3242C0.670181 15.5081 0.874918 15.6547 1.10189 15.7549C1.32886 15.8551 1.57331 15.9068 1.82039 15.907H5.43737C5.56436 16.5003 5.88503 17.0312 6.34625 17.4118C6.80747 17.7925 7.38156 18 7.97341 18C8.56526 18 9.13935 17.7925 9.60057 17.4118C10.0618 17.0312 10.3825 16.5003 10.5095 15.907H14.1793C14.4266 15.9062 14.6712 15.8543 14.8985 15.7543C15.1257 15.6543 15.3311 15.5084 15.5022 15.3252C15.6721 15.141 15.8036 14.9233 15.8887 14.6852C15.9739 14.4471 16.0108 14.1937 15.9973 13.9405C15.9636 13.4559 15.7507 13.0028 15.4022 12.674C15.0537 12.3452 14.596 12.1655 14.1227 12.1717ZM7.98853 16.8263C7.69944 16.8264 7.41677 16.7389 7.17603 16.5746C6.93529 16.4104 6.74723 16.1767 6.63547 15.9031H9.34159C9.23041 16.1775 9.04259 16.4119 8.80181 16.5769C8.56102 16.7418 8.27804 16.83 7.98853 16.8302V16.8263ZM14.6934 14.499C14.6295 14.5691 14.5522 14.6248 14.4663 14.6629C14.3805 14.7009 14.288 14.7204 14.1945 14.7201H1.83551C1.74206 14.7203 1.64958 14.7008 1.56375 14.6629C1.47792 14.625 1.40057 14.5694 1.33647 14.4996C1.27237 14.4298 1.22288 14.3473 1.19106 14.2571C1.15923 14.167 1.14574 14.0711 1.15142 13.9754C1.17314 13.7875 1.26297 13.615 1.40305 13.4921C1.54312 13.3692 1.72316 13.3049 1.90732 13.3121C2.29759 13.3121 2.67194 13.1532 2.94826 12.8704C3.22458 12.5875 3.38032 12.2038 3.38132 11.8032V8.06793C3.38132 6.81288 3.86712 5.60924 4.73185 4.72179C5.59658 3.83434 6.7694 3.33578 7.99231 3.33578C9.21522 3.33578 10.388 3.83434 11.2528 4.72179C12.1175 5.60924 12.6033 6.81288 12.6033 8.06793V11.8265C12.6043 12.2244 12.7579 12.6058 13.031 12.8882C13.304 13.1706 13.6745 13.3313 14.0622 13.3354H14.1113C14.2955 13.3282 14.4755 13.3925 14.6156 13.5154C14.7557 13.6383 14.8455 13.8108 14.8672 13.9986C14.8745 14.0935 14.8629 14.1888 14.833 14.2789C14.8031 14.3689 14.7556 14.4518 14.6934 14.5223V14.499Z" fill="#2A2A2A"/>
</svg>
