<svg width="24" height="21" viewBox="0 0 24 21" fill="none" xmlns="http://www.w3.org/2000/svg">
<path d="M22.8043 17.923L13.153 1.66307C12.9131 1.25353 12.4715 1 12.0012 1C11.5309 1 11.0893 1.25353 10.8446 1.66307L1.19333 17.923C0.943768 18.3472 0.934169 18.8737 1.17413 19.3028C1.41409 19.7318 1.86042 20 2.34994 20H21.6525C22.1372 20 22.5883 19.7318 22.8283 19.3028C23.0634 18.8737 23.0586 18.3472 22.8043 17.923Z" stroke="white" stroke-width="1.5"/>
<path d="M13.0055 15.7781C13.0055 16.3193 12.5544 16.7922 12.0217 16.7922C11.4506 16.7922 11.0234 16.3193 11.0234 15.7781C11.0234 15.2271 11.4506 14.764 12.0217 14.764C12.5544 14.764 13.0055 15.2223 13.0055 15.7781ZM12.7608 13.2818C12.7608 13.6914 12.3192 13.862 12.0121 13.862C11.5993 13.862 11.249 13.6914 11.249 13.2818C11.249 11.7168 11.0666 9.46914 11.0666 7.90896C11.0666 7.39703 11.4794 7.10938 12.0121 7.10938C12.516 7.10938 12.9431 7.39703 12.9431 7.90896C12.9431 9.46914 12.7608 11.7168 12.7608 13.2818Z" fill="white"/>
</svg>
