<svg width="24" height="24" viewBox="0 0 24 24" fill="none" xmlns="http://www.w3.org/2000/svg">
<path d="M4 19.0225L5.5 14.5225L17 3.52246L20 6.02246L8 18.0225L4 19.0225Z" fill="#E7BDBD"/>
<path d="M19.8717 5.30283C19.6017 4.90683 19.2957 4.52883 18.9177 4.16883C18.6657 3.91683 18.2877 3.61083 17.8017 3.26883C17.2077 2.85483 16.4157 2.92683 15.9117 3.43083L4.64365 14.6988C4.58965 14.7528 4.55365 14.8248 4.51765 14.8968L3.04165 19.0548C2.95165 19.3248 3.00565 19.6308 3.22165 19.8288C3.36565 19.9728 3.56365 20.0448 3.74365 20.0448C3.83365 20.0448 3.90565 20.0268 3.99565 20.0088L8.17165 18.5508C8.24365 18.5328 8.31565 18.4788 8.36965 18.4248L19.6737 7.12083C20.1597 6.63483 20.2497 5.86083 19.8717 5.30283ZM5.27365 15.9048C5.99365 16.4268 6.62365 17.0748 7.16365 17.7948L5.29165 18.4608C5.21965 18.3348 5.11165 18.1908 5.00365 18.0828C4.87765 17.9568 4.75165 17.8668 4.62565 17.7948L5.27365 15.9048ZM18.9357 6.38283L8.06365 17.2548C7.45165 16.3908 6.67765 15.6348 5.81365 15.0048L16.6497 4.16883C16.7937 4.02483 17.0277 4.00683 17.1897 4.13283C17.6217 4.43883 17.9637 4.69083 18.1617 4.90683C18.4857 5.23083 18.7557 5.55483 18.9897 5.89683C19.0977 6.02283 19.0617 6.25683 18.9357 6.38283Z" fill="#3B4141"/>
</svg>
