<svg width="15" height="18" viewBox="0 0 15 18" fill="none" xmlns="http://www.w3.org/2000/svg">
<rect x="6" y="4" width="9" height="6" rx="1" fill="#E7BDBD"/>
<path d="M0 2C0 0.89543 0.895431 0 2 0H9C10.1046 0 11 0.895431 11 2V16C11 17.1046 10.1046 18 9 18H2C0.895431 18 0 17.1046 0 16V2Z" fill="#E7BDBD"/>
<path d="M4.89004 4.82018V9.05822C4.89004 9.9198 5.58861 10.6417 6.47348 10.6417H6.9392V12.2251C6.9392 12.4114 7.03234 12.5511 7.19534 12.621C7.24191 12.6442 7.31177 12.6675 7.35834 12.6675C7.47477 12.6675 7.56791 12.621 7.66106 12.5511L9.64036 10.6417H13.3894C14.251 10.6417 14.9728 9.94308 14.9728 9.05822V4.82018C14.9728 3.9586 14.2743 3.23674 13.3894 3.23674H6.45019C5.6119 3.26003 4.89004 3.9586 4.89004 4.82018ZM14.1345 4.82018V9.05822C14.1345 9.45408 13.8085 9.75679 13.436 9.75679H9.50064C9.38422 9.75679 9.29107 9.80337 9.19793 9.87323L7.82406 11.2005V10.1992C7.82406 9.96637 7.63777 9.75679 7.38163 9.75679H6.49676C6.1009 9.75679 5.79819 9.43079 5.79819 9.05822V4.82018C5.79819 4.42432 6.12419 4.12161 6.49676 4.12161H13.436C13.8085 4.12161 14.1345 4.44761 14.1345 4.82018ZM6.82277 6.00776C6.82277 5.77491 7.00905 5.56533 7.2652 5.56533H12.4347C12.6675 5.56533 12.8771 5.75162 12.8771 6.00776C12.8771 6.24062 12.6908 6.4502 12.4347 6.4502H7.2652C7.03234 6.42691 6.82277 6.24062 6.82277 6.00776ZM6.82277 7.96378C6.82277 7.73092 7.00905 7.52135 7.2652 7.52135H12.4347C12.6675 7.52135 12.8771 7.70763 12.8771 7.96378C12.8771 8.19664 12.6908 8.40621 12.4347 8.40621H7.2652C7.03234 8.40621 6.82277 8.19664 6.82277 7.96378ZM0 16.6028V1.39715C0 0.628719 0.628719 0 1.39715 0H9.84993C10.6184 0 11.2471 0.628719 11.2471 1.39715V2.14231C11.2471 2.37516 11.0608 2.58474 10.8047 2.58474C10.5718 2.58474 10.3622 2.39845 10.3622 2.14231V1.39715C10.3622 1.11772 10.1294 0.884868 9.84993 0.884868H1.39715C1.11772 0.884868 0.884865 1.11772 0.884865 1.39715V16.6028C0.884865 16.8823 1.11772 17.1151 1.39715 17.1151H9.84993C10.1294 17.1151 10.3622 16.8823 10.3622 16.6028V11.7827C10.3622 11.5498 10.5485 11.3402 10.8047 11.3402C11.0375 11.3402 11.2471 11.5265 11.2471 11.7827V16.6028C11.2471 17.3713 10.6184 18 9.84993 18H1.39715C0.628719 18 0 17.3713 0 16.6028ZM7.12548 15.4153C7.12548 15.6481 6.9392 15.8577 6.68305 15.8577H4.51746C4.2846 15.8577 4.07503 15.6714 4.07503 15.4153C4.07503 15.1824 4.26132 14.9728 4.51746 14.9728H6.68305C6.9392 14.9728 7.12548 15.1591 7.12548 15.4153Z" fill="black"/>
</svg>
