<svg width="168" height="98" viewBox="0 0 168 98" fill="none" xmlns="http://www.w3.org/2000/svg">
<path d="M89.7058 39.1495C78.6466 32.5566 36.8455 16.1948 13.1959 34.2785C-4.02921 52.6097 41.9459 55.6083 45.2658 73.9604C49.1977 95.6951 117.168 96.8947 152.503 66.179C167.739 52.9345 163.186 39.1492 149.627 39.1492C147.053 39.1492 144.885 39.1492 127.264 45.4071C118.257 48.6061 113.817 53.5235 89.7058 39.1495Z" fill="#87D2EA"/>
<path d="M73.8594 83.7539H90.5052" stroke="black" stroke-linecap="round"/>
<rect x="68.7539" y="29.3223" width="25.1952" height="39.3003" rx="12.5976" stroke="black"/>
<line x1="68.2539" y1="42.4277" x2="80.344" y2="42.4277" stroke="black"/>
<line x1="68.2539" y1="48.4746" x2="80.344" y2="48.4746" stroke="black"/>
<line x1="68.2539" y1="54.5176" x2="80.344" y2="54.5176" stroke="black"/>
<path d="M82.1855 73.7676L82.1855 83.7551" stroke="black"/>
<path fill-rule="evenodd" clip-rule="evenodd" d="M62.707 44.9434C62.4309 44.9434 62.207 45.1672 62.207 45.4434V54.888C62.207 65.4602 70.7775 74.0307 81.3497 74.0307C91.9219 74.0307 100.492 65.4602 100.492 54.888V45.4434C100.492 45.1672 100.268 44.9434 99.9923 44.9434C99.7162 44.9434 99.4923 45.1672 99.4923 45.4434V54.888C99.4923 64.9079 91.3696 73.0307 81.3497 73.0307C71.3298 73.0307 63.207 64.9079 63.207 54.888V45.4434C63.207 45.1672 62.9832 44.9434 62.707 44.9434Z" fill="black"/>
<path d="M32.0957 13.5254L32.0957 15.8331" stroke="black"/>
<path d="M35.0957 12.6602L35.0957 16.6986" stroke="black"/>
<path d="M38.0957 10.9297V18.4297" stroke="black"/>
<path d="M41.0957 12.6602L41.0957 16.6986" stroke="black"/>
<path d="M44.0957 13.5254L44.0957 15.8331" stroke="black"/>
<path d="M0.564453 51.5469L0.564453 53.8546" stroke="black"/>
<path d="M3.56445 50.6816L3.56445 54.7201" stroke="black"/>
<path d="M6.56445 48.9512V56.4512" stroke="black"/>
<path d="M9.56445 50.6816L9.56445 54.7201" stroke="black"/>
<path d="M12.5645 51.5469L12.5645 53.8546" stroke="black"/>
<path d="M155.436 51.5469L155.436 53.8546" stroke="black"/>
<path d="M158.436 50.6816L158.436 54.7201" stroke="black"/>
<path d="M161.436 48.9512V56.4512" stroke="black"/>
<path d="M164.436 50.6816L164.436 54.7201" stroke="black"/>
<path d="M167.436 51.5469L167.436 53.8546" stroke="black"/>
<path d="M113.704 82.1504L113.704 84.4581" stroke="black"/>
<path d="M116.704 81.2852L116.704 85.3236" stroke="black"/>
<path d="M119.704 79.5547V87.0547" stroke="black"/>
<path d="M122.704 81.2852L122.704 85.3236" stroke="black"/>
<path d="M125.704 82.1504L125.704 84.4581" stroke="black"/>
<path d="M37.6602 92.3516L37.6602 94.6593" stroke="black"/>
<path d="M40.6602 91.4863L40.6602 95.5248" stroke="black"/>
<path d="M43.6602 89.7559V97.2559" stroke="black"/>
<path d="M46.6602 91.4863L46.6602 95.5248" stroke="black"/>
<path d="M49.6602 92.3516L49.6602 94.6593" stroke="black"/>
<path d="M83.1006 3.32422L83.1006 5.63191" stroke="black"/>
<path d="M86.1006 2.45898L86.1006 6.49745" stroke="black"/>
<path d="M89.1006 0.728516V8.22852" stroke="black"/>
<path d="M92.1006 2.45898L92.1006 6.49745" stroke="black"/>
<path d="M95.1006 3.32422L95.1006 5.63191" stroke="black"/>
<path d="M125.76 18.1641L125.76 20.4718" stroke="black"/>
<path d="M128.76 17.2988L128.76 21.3373" stroke="black"/>
<path d="M131.76 15.5684V23.0684" stroke="black"/>
<path d="M134.76 17.2988L134.76 21.3373" stroke="black"/>
<path d="M137.76 18.1641L137.76 20.4718" stroke="black"/>
<path d="M50.5209 67.3071C39.8556 61.2791 33.3639 42.7316 50.5209 30.6758" stroke="black" stroke-linecap="round"/>
<path d="M53.8601 59.4237C48.2466 56.0664 44.8299 45.7361 53.8601 39.0215" stroke="black" stroke-linecap="round"/>
<path d="M112.841 30.6754C123.507 36.7033 129.998 55.2508 112.841 67.3066" stroke="black" stroke-linecap="round"/>
<path d="M109.502 38.5587C115.116 41.916 118.532 52.2463 109.502 58.9609" stroke="black" stroke-linecap="round"/>
</svg>
