<svg width="161" height="90" viewBox="0 0 161 90" fill="none" xmlns="http://www.w3.org/2000/svg">
<path d="M41.6225 34.9519C18.8701 38.0254 12.2405 47.3163 13.0674 55.2563C19.8332 80.346 70.5175 77.5537 79.1279 72.9433C87.7383 68.333 109.395 64.2349 134.704 71.1504C160.014 78.0659 150.495 40.6576 141.623 31.437C124.828 13.9813 105.323 8.14433 88.9851 10.4973C67.4468 13.599 70.0629 31.1099 41.6225 34.9519Z" fill="#7DEABC"/>
<rect x="19.5" y="9.5" width="4" height="5" stroke="black"/>
<rect x="0.5" y="36.5" width="5" height="5" stroke="black"/>
<rect x="13.5" y="60.5" width="5" height="5" stroke="black"/>
<rect x="92.5" y="47.5" width="4" height="5" stroke="black"/>
<rect x="66.5" y="44.5" width="5" height="5" stroke="black"/>
<rect x="80.5" y="60.5" width="5" height="5" stroke="black"/>
<rect x="127.5" y="6.5" width="5" height="4" stroke="black"/>
<rect x="110.5" y="28.5" width="4" height="3" stroke="black"/>
<rect x="52.5" y="6.5" width="4" height="3" stroke="black"/>
<rect x="64.5" y="20.5" width="3" height="3" stroke="black"/>
<rect x="43.5" y="18.5" width="3" height="3" stroke="black"/>
<rect x="65.5" y="7.5" width="2" height="2" stroke="black"/>
<rect x="30.5" y="68.5" width="3" height="3" stroke="black"/>
<rect x="126.5" y="44.5" width="3" height="2" stroke="black"/>
<rect x="78.5" y="5.5" width="2" height="2" stroke="black"/>
<rect x="50.5" y="59.5" width="2" height="2" stroke="black"/>
<rect x="34.5" y="57.5" width="2" height="2" stroke="black"/>
<rect x="35.5" y="78.5" width="2" height="1" stroke="black"/>
<rect x="45.5" y="66.5" width="3" height="2" stroke="black"/>
<rect x="133.5" y="20.5" width="4" height="3" stroke="black"/>
<rect x="115.25" y="46.25" width="0.5" height="2.5" stroke="black" stroke-width="0.5"/>
<rect x="118.25" y="60.25" width="1.5" height="0.5" stroke="black" stroke-width="0.5"/>
<rect x="127.5" y="52.5" width="1" height="1" stroke="black"/>
<rect x="132.5" y="39.5" width="1" height="2" stroke="black"/>
<rect x="148.5" y="46.5" width="3" height="3" stroke="black"/>
<rect x="137.5" y="47.5" width="1" height="3" stroke="black"/>
<rect x="147.5" y="60.5" width="3" height="3" stroke="black"/>
<rect x="139.5" y="35.5" width="2" height="2" stroke="black"/>
<rect x="152.5" y="38.5" width="2" height="3" stroke="black"/>
<rect x="75.5" y="14.5" width="3" height="2" stroke="black"/>
<rect x="117.5" y="52.5" width="2" height="3" stroke="black"/>
<rect x="112.5" y="54.5" width="2" height="1" stroke="black"/>
<rect x="73.5" y="10.5" width="1" height="2" stroke="black"/>
<rect x="82.5" y="11.5" width="2" height="2" stroke="black"/>
<rect x="83.25" y="1.25" width="2.5" height="0.5" stroke="black" stroke-width="0.5"/>
<rect x="86.25" y="7.25" width="0.5" height="0.5" stroke="black" stroke-width="0.5"/>
<rect x="69.5" y="0.5" width="2" height="1" stroke="black"/>
<rect x="129.5" y="59.5" width="1" height="1" stroke="black"/>
<rect x="47.25" y="79.25" width="2.5" height="0.5" stroke="black" stroke-width="0.5"/>
<rect x="51.25" y="80.25" width="0.5" height="0.5" stroke="black" stroke-width="0.5"/>
<rect x="42.5" y="81.5" width="1" height="1" stroke="black"/>
<rect x="41.25" y="73.25" width="1.5" height="0.5" stroke="black" stroke-width="0.5"/>
<rect x="38.25" y="66.25" width="0.5" height="0.5" stroke="black" stroke-width="0.5"/>
<rect x="53.5" y="72.5" width="2" height="1" stroke="black"/>
<rect x="134.5" y="54.5" width="2" height="2" stroke="black"/>
<rect x="139.5" y="43.5" width="1" height="1" stroke="black"/>
<rect x="147.25" y="32.25" width="1.5" height="0.5" stroke="black" stroke-width="0.5"/>
<rect x="141.5" y="53.5" width="2" height="2" stroke="black"/>
<rect x="140.25" y="60.25" width="1.5" height="0.5" stroke="black" stroke-width="0.5"/>
<rect x="123.5" y="56.5" width="1" height="1" stroke="black"/>
<rect x="125.25" y="36.25" width="0.5" height="1.5" stroke="black" stroke-width="0.5"/>
<rect x="156.5" y="54.5" width="4" height="3" stroke="black"/>
<rect x="88.5" y="25.5" width="5" height="5" stroke="black"/>
<rect x="152.5" y="16.5" width="5" height="5" stroke="black"/>
<path d="M118 78V70.5484L125.179 67V70.5484L132.359 67V69.9806L138 67V77.6452" stroke="black"/>
<path d="M120 69V65H121H122V68" stroke="black"/>
<path d="M127 69V62H130V68.25" stroke="black"/>
<path d="M134 69V60H137V68.0357" stroke="black"/>
<path d="M111 80C115.645 76.9815 129.148 72.7556 146 80" stroke="black"/>
<path d="M50 89C54.6451 86.7361 68.1481 83.5667 85 89" stroke="black"/>
<rect x="134.5" y="73.5" width="2" height="1" stroke="black"/>
<rect x="129.5" y="73.5" width="1" height="1" stroke="black"/>
<rect x="122.25" y="73.25" width="0.5" height="1.5" stroke="black" stroke-width="0.5"/>
<mask id="path-65-inside-1" fill="white">
<path fill-rule="evenodd" clip-rule="evenodd" d="M23.3208 44.0902C18.6537 42.657 15.2607 38.3125 15.2607 33.1756C15.2607 26.8708 20.3718 21.7598 26.6766 21.7598C30.8537 21.7598 34.5068 24.0032 36.4967 27.351C37.9041 26.6936 39.4664 26.3277 41.1115 26.3277C45.3341 26.3277 49.0114 28.7387 50.9227 32.3002L50.9856 32.3C55.9971 32.3 60.0597 36.4951 60.0597 41.67C60.0597 46.7523 56.141 50.8896 51.2534 51.0359V51.0382H51.1614C51.1029 51.0393 51.0443 51.0399 50.9856 51.0399C50.9269 51.0399 50.8683 51.0393 50.8099 51.0382H29.4579V51.0225C26.0294 50.7864 23.3192 47.84 23.3192 44.2399C23.3192 44.1899 23.3198 44.14 23.3208 44.0902Z"/>
</mask>
<path d="M23.3208 44.0902L24.3206 44.1112L24.3364 43.356L23.6144 43.1343L23.3208 44.0902ZM36.4967 27.351L35.6371 27.8619L36.0997 28.6401L36.9199 28.257L36.4967 27.351ZM50.9227 32.3002L50.0415 32.7731L50.3256 33.3024L50.9262 33.3002L50.9227 32.3002ZM50.9856 32.3V31.3L50.9821 31.3L50.9856 32.3ZM51.2534 51.0359L51.2235 50.0363L50.2534 50.0654V51.0359H51.2534ZM51.2534 51.0382V52.0382H52.2534V51.0382H51.2534ZM51.1614 51.0382V50.0382H51.1516L51.1418 50.0384L51.1614 51.0382ZM50.8099 51.0382L50.8295 50.0384L50.8197 50.0382H50.8099V51.0382ZM29.4579 51.0382H28.4579V52.0382H29.4579V51.0382ZM29.4579 51.0225H30.4579V50.0889L29.5265 50.0248L29.4579 51.0225ZM23.6144 43.1343C19.3553 41.8264 16.2607 37.8611 16.2607 33.1756H14.2607C14.2607 38.764 17.9521 43.4877 23.0272 45.0462L23.6144 43.1343ZM16.2607 33.1756C16.2607 27.4231 20.9241 22.7598 26.6766 22.7598V20.7598C19.8195 20.7598 14.2607 26.3185 14.2607 33.1756H16.2607ZM26.6766 22.7598C30.4866 22.7598 33.82 24.8048 35.6371 27.8619L37.3563 26.84C35.1937 23.2016 31.2208 20.7598 26.6766 20.7598V22.7598ZM41.1115 25.3277C39.3165 25.3277 37.61 25.7273 36.0735 26.4449L36.9199 28.257C38.1982 27.66 39.6164 27.3277 41.1115 27.3277V25.3277ZM51.8038 31.8274C49.731 27.9648 45.7285 25.3277 41.1115 25.3277V27.3277C44.9397 27.3277 48.2918 29.5126 50.0415 32.7731L51.8038 31.8274ZM50.9821 31.3L50.9191 31.3003L50.9262 33.3002L50.9892 33.3L50.9821 31.3ZM61.0597 41.67C61.0597 35.9733 56.5794 31.3 50.9856 31.3V33.3C55.4148 33.3 59.0597 37.0169 59.0597 41.67H61.0597ZM51.2833 52.0354C56.7384 51.8722 61.0597 47.2654 61.0597 41.67H59.0597C59.0597 46.2392 55.5436 49.907 51.2235 50.0363L51.2833 52.0354ZM52.2534 51.0382V51.0359H50.2534V51.0382H52.2534ZM51.1614 52.0382H51.2534V50.0382H51.1614V52.0382ZM50.9856 52.0399C51.0509 52.0399 51.116 52.0392 51.181 52.038L51.1418 50.0384C51.0898 50.0394 51.0378 50.0399 50.9856 50.0399V52.0399ZM50.7903 52.038C50.8552 52.0392 50.9204 52.0399 50.9856 52.0399V50.0399C50.9334 50.0399 50.8814 50.0394 50.8295 50.0384L50.7903 52.038ZM29.4579 52.0382H50.8099V50.0382H29.4579V52.0382ZM28.4579 51.0225V51.0382H30.4579V51.0225H28.4579ZM22.3192 44.2399C22.3192 48.3418 25.4129 51.7463 29.3892 52.0201L29.5265 50.0248C26.6459 49.8265 24.3192 47.3382 24.3192 44.2399H22.3192ZM22.321 44.0693C22.3198 44.126 22.3192 44.1829 22.3192 44.2399H24.3192C24.3192 44.1969 24.3197 44.154 24.3206 44.1112L22.321 44.0693Z" fill="black" mask="url(#path-65-inside-1)"/>
<path fill-rule="evenodd" clip-rule="evenodd" d="M36.9704 28.2354C33.5221 29.8226 31.0669 33.3325 30.9099 37.4806L30.8734 38.4435L29.9098 38.4427L29.9019 38.4427L34.8529 41.1432C33.4827 42.5494 31.7528 43.6033 29.8118 44.1565L29.9011 38.4427C26.848 38.4432 24.3188 41.0083 24.3188 44.2405C24.3188 44.2767 24.3191 44.3129 24.3197 44.3489C23.9808 44.2778 23.6474 44.1916 23.3203 44.0912C23.3973 40.4058 26.3145 37.4427 29.9019 37.4427L29.9106 37.4427C30.0809 32.9462 32.7353 29.1083 36.4963 27.3516C36.6668 27.6383 36.8251 27.9331 36.9704 28.2354Z" fill="black"/>
<path d="M67 84H58V81H67V84Z" stroke="black"/>
<path d="M67 81H58V75H67V81Z" stroke="black"/>
<path d="M70.7641 84H68.0267C67.4744 84 67.0267 83.5523 67.0267 83V79.4776C67.0267 78.7876 67.6902 78.0021 68.3802 78C69.1029 77.9978 69.9088 78.09 70.2589 78.488C70.7605 79.0583 71.3748 81.3542 71.7234 82.797C71.8729 83.4154 71.4004 84 70.7641 84Z" stroke="black"/>
<path d="M62.5 84.5C62.5 84.7215 62.3814 84.9602 62.1142 85.1607C61.8468 85.3612 61.4546 85.5 61 85.5C60.5454 85.5 60.1532 85.3612 59.8858 85.1607C59.6186 84.9602 59.5 84.7215 59.5 84.5C59.5 84.2785 59.6186 84.0398 59.8858 83.8393C60.1532 83.6388 60.5454 83.5 61 83.5C61.4546 83.5 61.8468 83.6388 62.1142 83.8393C62.3814 84.0398 62.5 84.2785 62.5 84.5Z" fill="#F6F6F6" stroke="black"/>
<circle cx="69.5" cy="84.5" r="1" fill="#F6F6F6" stroke="black"/>
<path d="M67 80H71" stroke="black"/>
<path d="M103 9H99.325L96 2H97.575L103 9Z" stroke="black"/>
<path d="M101.971 7.43403C105.026 6.94314 109.546 6.51124 110.918 8.25566C111.375 8.49793 112.221 9.06968 111.946 9.41857C111.672 9.76745 99.3423 9.95154 93.0556 10L90 7.3834L92.1389 7.30016L93.9722 8.25566L98.7353 7.94717" stroke="black"/>
</svg>
