<svg width="230" height="176" viewBox="0 0 230 176" fill="none" xmlns="http://www.w3.org/2000/svg">
<g clip-path="url(#clip0_340_175928)">
<path d="M79.6953 171.407L81.9549 172.086L85.6409 163.664L82.3059 162.662L79.6953 171.407Z" fill="#FFB8B8"/>
<path d="M79.3399 170.494L83.7901 171.831L83.7903 171.831C84.5424 172.057 85.1742 172.574 85.5467 173.267C85.9192 173.961 86.002 174.774 85.7767 175.529L85.7491 175.622L78.4629 173.432L79.3399 170.494Z" fill="#4F527D"/>
<path d="M101.169 173.26L103.384 172.445L101.306 163.486L98.0371 164.688L101.169 173.26Z" fill="#FFB8B8"/>
<path d="M100.34 172.742L104.701 171.137L104.702 171.137C105.439 170.866 106.253 170.9 106.965 171.231C107.678 171.563 108.23 172.164 108.5 172.904L108.533 172.994L101.392 175.622L100.34 172.742Z" fill="#4F527D"/>
<path d="M83.4848 156.16L79.6367 168.902L84.2543 170.254L88.6798 158.477L83.4848 156.16Z" fill="#4F527D"/>
<path d="M95.6055 159.056L99.0689 171.026L103.879 168.709L100.416 157.512L95.6055 159.056Z" fill="#4F527D"/>
<path d="M93.8028 161.215C90.7227 161.201 87.6498 160.917 84.619 160.365L84.5418 160.349V157.405L82.7832 157.209L84.1559 152.29C83.5161 144.711 84.4253 135.114 84.7194 132.351C84.7868 131.703 84.8312 131.34 84.8312 131.34L86.3745 118.176L88.9569 115.785L90.13 116.551L92.3062 118.734C94.8357 124.98 96.8428 130.861 96.8555 131.239L105.338 158.515L105.281 158.556C102.336 160.642 97.8455 161.215 93.8028 161.215Z" fill="#9499C7"/>
<path opacity="0.2" d="M87.4701 124.015L86.877 127.73L90.8924 129.392L87.4701 124.015Z" fill="black"/>
<path d="M95.3479 115.765H86.0641C85.8731 115.765 85.69 115.689 85.555 115.553C85.4199 115.418 85.344 115.234 85.3438 115.042V111.027C85.3465 109.602 85.9127 108.236 86.918 107.229C87.9234 106.223 89.2857 105.657 90.706 105.657C92.1263 105.657 93.4887 106.223 94.494 107.229C95.4993 108.236 96.0655 109.602 96.0683 111.027V115.042C96.068 115.234 95.9921 115.418 95.8571 115.553C95.722 115.689 95.5389 115.765 95.3479 115.765Z" fill="#4F527D"/>
<path d="M91.7322 115.523C93.9035 115.523 95.6636 113.757 95.6636 111.579C95.6636 109.4 93.9035 107.634 91.7322 107.634C89.5609 107.634 87.8008 109.4 87.8008 111.579C87.8008 113.757 89.5609 115.523 91.7322 115.523Z" fill="#FFB8B8"/>
<path d="M97.3366 111.429H91.6598L91.6015 110.611L91.3105 111.429H90.4364L90.321 109.808L89.7441 111.429H88.0527V111.348C88.054 110.22 88.5013 109.138 89.2965 108.34C90.0917 107.542 91.1699 107.093 92.2945 107.092H93.0948C94.2194 107.093 95.2976 107.542 96.0928 108.34C96.8881 109.138 97.3354 110.22 97.3366 111.348V111.429Z" fill="#4F527D"/>
<path d="M91.6144 116.515C91.5717 116.515 91.529 116.511 91.4869 116.503L87.3301 115.767V108.874H91.906L91.7927 109.007C90.2165 110.851 91.404 113.842 92.2521 115.461C92.3146 115.579 92.3425 115.713 92.3325 115.847C92.3226 115.981 92.2751 116.109 92.1957 116.217C92.1292 116.309 92.0419 116.384 91.9408 116.436C91.8398 116.488 91.7279 116.515 91.6144 116.515Z" fill="#4F527D"/>
<path d="M98.9492 133.177H96.6706C96.5975 133.177 96.527 133.15 96.4728 133.101C96.4187 133.051 96.3848 132.984 96.378 132.91L95.9219 128.22H99.698L99.2419 132.91C99.235 132.983 99.2012 133.051 99.147 133.101C99.0929 133.15 99.0223 133.177 98.9492 133.177Z" fill="#47A4DD"/>
<path d="M99.6909 128.81H95.9269C95.8489 128.81 95.7742 128.779 95.719 128.723C95.6639 128.668 95.6329 128.593 95.6328 128.515V127.807C95.6329 127.728 95.6639 127.653 95.719 127.598C95.7742 127.543 95.8489 127.512 95.9269 127.511H99.6909C99.7689 127.512 99.8436 127.543 99.8987 127.598C99.9539 127.653 99.9849 127.728 99.985 127.807V128.515C99.9849 128.593 99.9539 128.668 99.8987 128.723C99.8436 128.779 99.7689 128.81 99.6909 128.81Z" fill="#3C8DBE"/>
<path opacity="0.2" d="M84.9277 131.158C85.9741 132.374 87.3933 133.206 88.9624 133.525C90.5315 133.843 92.1615 133.629 93.5963 132.917L94.4519 132.492L84.9277 131.158Z" fill="black"/>
<path d="M98.6077 130.25C98.4323 130.053 98.2159 129.896 97.9736 129.791C97.7314 129.687 97.4692 129.637 97.2056 129.645C96.9419 129.653 96.6832 129.718 96.4477 129.838C96.2122 129.957 96.0056 130.126 95.8424 130.334L91.873 129.216L90.6074 131.471L96.2352 132.971C96.6015 133.223 97.0472 133.331 97.4878 133.275C97.9283 133.219 98.3332 133.003 98.6257 132.668C98.9181 132.333 99.0778 131.901 99.0745 131.456C99.0712 131.01 98.9051 130.581 98.6077 130.25Z" fill="#FFB8B8"/>
<path d="M89.1353 132.753C87.248 132.753 84.6945 131.643 81.6632 129.492C81.4942 129.375 81.3514 129.223 81.2438 129.048C81.1362 128.872 81.0662 128.676 81.0381 128.471C80.8145 127.05 82.1963 125.128 82.3317 124.944L83.7843 120.942C83.801 120.877 84.2691 119.145 85.4443 118.529C85.6917 118.401 85.9637 118.329 86.2415 118.317C86.5193 118.306 86.7964 118.354 87.0537 118.46C89.2921 119.278 87.5443 125.593 87.3043 126.422L90.27 127.822L92.1533 129.027L94.7325 129.298L94.0322 132.549L90.1153 132.638C89.7946 132.717 89.4654 132.755 89.1353 132.753Z" fill="#9499C7"/>
<path d="M229.916 103.088C229.914 99.2882 229.069 95.5363 227.444 92.1043C225.818 88.6722 223.452 85.646 220.517 83.2448C217.581 80.8437 214.151 79.1278 210.473 78.2214C206.795 77.315 202.962 77.2409 199.253 78.0044C195.543 78.7679 192.049 80.3498 189.023 82.6357C185.998 84.9215 183.517 87.854 181.761 91.2207C180.005 94.5873 179.017 98.3038 178.869 102.101C178.721 105.898 179.417 109.68 180.906 113.174C180.881 113.147 180.855 113.119 180.83 113.091C181.964 115.744 183.536 118.185 185.48 120.312C185.486 120.318 185.492 120.325 185.498 120.331C185.655 120.503 185.813 120.673 185.974 120.84C188.307 123.282 191.101 125.235 194.192 126.585C197.284 127.934 200.612 128.654 203.983 128.703L203.12 175.725H205.785L205.246 144.69L209.102 142.653L208.514 141.532L205.221 143.271L204.968 128.701C211.637 128.547 217.981 125.782 222.643 120.995C227.305 116.208 229.915 109.781 229.916 103.088Z" fill="#EAECEE"/>
<path d="M154.134 90.6011C154.131 86.1479 153.142 81.751 151.237 77.7289C149.332 73.7068 146.559 70.1603 143.119 67.3464C139.679 64.5325 135.659 62.5216 131.349 61.4594C127.039 60.3972 122.547 60.3103 118.199 61.205C113.852 62.0998 109.757 63.9537 106.212 66.6325C102.666 69.3114 99.7593 72.748 97.7012 76.6934C95.643 80.6388 94.4853 84.9942 94.3119 89.444C94.1385 93.8939 94.9538 98.3267 96.6987 102.421C96.6694 102.389 96.6392 102.357 96.61 102.324C97.9391 105.432 99.7816 108.293 102.06 110.786C102.067 110.793 102.074 110.801 102.08 110.808C102.264 111.009 102.449 111.209 102.638 111.405C105.373 114.267 108.646 116.555 112.269 118.137C115.892 119.719 119.792 120.562 123.743 120.619L122.732 175.725H125.856L125.223 139.355L129.742 136.968L129.053 135.654L125.194 137.692L124.898 120.617C132.713 120.437 140.147 117.196 145.611 111.586C151.075 105.977 154.134 98.4447 154.134 90.6011Z" fill="#EAECEE"/>
<path d="M68.1862 78.8557C68.1835 73.788 67.0574 68.7844 64.8894 64.2073C62.7214 59.6303 59.5659 55.5945 55.6515 52.3923C51.7371 49.1901 47.1617 46.9017 42.257 45.693C37.3523 44.4842 32.2411 44.3853 27.2936 45.4035C22.3461 46.4217 17.6863 48.5315 13.6518 51.5799C9.61724 54.6284 6.30906 58.5392 3.96691 63.029C1.62477 67.5188 0.307307 72.4751 0.109985 77.5389C-0.0873365 82.6027 0.840425 87.6472 2.82605 92.3068C2.79275 92.2696 2.75835 92.2335 2.72521 92.1962C4.23766 95.7333 6.33436 98.9888 8.92692 101.826C8.93467 101.834 8.94262 101.842 8.95038 101.851C9.15956 102.08 9.36994 102.307 9.58519 102.53C12.6969 105.787 16.4223 108.391 20.5451 110.191C24.668 111.991 29.1061 112.951 33.6018 113.016L32.4512 175.725H36.006L35.2866 134.336L40.4287 131.62L39.6443 130.125L35.2537 132.444L34.9159 113.013C43.8091 112.808 52.2695 109.12 58.4872 102.736C64.7048 96.3529 68.1861 87.7815 68.1862 78.8557Z" fill="#EAECEE"/>
<path d="M195.989 44.6886C208.288 44.6886 218.258 34.6848 218.258 22.3443C218.258 10.0039 208.288 0 195.989 0C183.691 0 173.721 10.0039 173.721 22.3443C173.721 34.6848 183.691 44.6886 195.989 44.6886Z" fill="#C22E49"/>
<path d="M63.601 93.5421C88.2496 93.5421 108.231 73.4924 108.231 48.7598C108.231 24.0272 88.2496 3.97754 63.601 3.97754C38.9524 3.97754 18.9707 24.0272 18.9707 48.7598C18.9707 73.4924 38.9524 93.5421 63.601 93.5421Z" fill="#63A650"/>
<path opacity="0.2" d="M30.6487 18.8486C26.4857 28.6198 25.921 39.5579 29.0554 49.7084C32.1899 59.8589 38.8193 68.5604 47.7589 74.2579C56.6986 79.9554 67.3661 82.2777 77.8551 80.8098C88.3441 79.3418 97.9711 74.1794 105.016 66.2449C102.473 72.2146 98.6667 77.5583 93.8612 81.9055C89.0556 86.2528 83.3656 89.4997 77.1852 91.4213C71.0049 93.343 64.4821 93.8934 58.0688 93.0345C51.6554 92.1755 45.5048 89.9278 40.0432 86.4469C34.5815 82.966 29.9394 78.3353 26.4384 72.8756C22.9374 67.4158 20.6612 61.2576 19.7676 54.8275C18.874 48.3975 19.3843 41.8494 21.2631 35.6368C23.142 29.4243 26.3445 23.696 30.6487 18.8486Z" fill="black"/>
<path d="M63.7241 48.7598H63.8468L66.0538 175.725H61.3945L63.7241 48.7598Z" fill="#63A650"/>
<path d="M70.8228 115.957L63.4453 119.855L64.4735 121.814L71.851 117.917L70.8228 115.957Z" fill="#4F8540"/>
<path d="M130.933 171.316C131.846 171.316 132.586 170.573 132.586 169.658C132.586 168.742 131.846 168 130.933 168C130.021 168 129.281 168.742 129.281 169.658C129.281 170.573 130.021 171.316 130.933 171.316Z" fill="#47A4DD"/>
<path d="M16.4431 170.847C17.3556 170.847 18.0953 170.105 18.0953 169.19C18.0953 168.274 17.3556 167.532 16.4431 167.532C15.5307 167.532 14.791 168.274 14.791 169.19C14.791 170.105 15.5307 170.847 16.4431 170.847Z" fill="#47A4DD"/>
<path d="M43.492 171.082C44.4044 171.082 45.1441 170.339 45.1441 169.424C45.1441 168.508 44.4044 167.766 43.492 167.766C42.5795 167.766 41.8398 168.508 41.8398 169.424C41.8398 170.339 42.5795 171.082 43.492 171.082Z" fill="#47A4DD"/>
<path d="M116.358 21.6485L119.672 18.9889C117.098 18.7039 116.04 20.1128 115.607 21.2279C113.596 20.3899 111.406 21.4881 111.406 21.4881L118.037 23.9035C117.702 23.007 117.12 22.2247 116.358 21.6485Z" fill="#EAECEE"/>
<path d="M166.757 48.7398L170.071 46.0802C167.496 45.7952 166.438 47.2041 166.006 48.3192C163.994 47.4812 161.805 48.5794 161.805 48.5794L168.435 50.9948C168.101 50.0983 167.519 49.316 166.757 48.7398Z" fill="#EAECEE"/>
<path d="M112.397 71.858L115.711 69.1984C113.137 68.9134 112.079 70.3222 111.646 71.4373C109.635 70.5993 107.445 71.6976 107.445 71.6976L114.076 74.113C113.741 73.2164 113.159 72.4342 112.397 71.858Z" fill="white"/>
<path d="M131.865 174.537C131.865 174.537 132.026 171.152 135.327 171.545L131.865 174.537Z" fill="#63A650"/>
<path d="M131.13 172.449H130.664V175.725H131.13V172.449Z" fill="#63A650"/>
<path d="M17.375 174.069C17.375 174.069 17.536 170.684 20.837 171.077L17.375 174.069Z" fill="#63A650"/>
<path d="M16.6402 171.981H16.1738V175.257H16.6402V171.981Z" fill="#63A650"/>
<path d="M44.4238 174.303C44.4238 174.303 44.5849 170.918 47.8859 171.311L44.4238 174.303Z" fill="#63A650"/>
<path d="M43.689 172.215H43.2227V175.491H43.689V172.215Z" fill="#63A650"/>
<path d="M177.072 175.766C177.072 175.766 177.233 172.38 180.534 172.774L177.072 175.766Z" fill="#63A650"/>
<path d="M146.061 175.766C146.061 175.766 146.222 172.38 149.523 172.774L146.061 175.766Z" fill="#63A650"/>
<path d="M32.9688 175.766C32.9688 175.766 33.1298 172.38 36.4308 172.774L32.9688 175.766Z" fill="#63A650"/>
<path d="M191.064 175.766C191.064 175.766 191.225 172.38 194.526 172.774L191.064 175.766Z" fill="#63A650"/>
<path d="M184.535 175.766C184.535 175.766 184.696 172.38 187.997 172.774L184.535 175.766Z" fill="#63A650"/>
<path d="M171.066 175.766C171.066 175.766 170.905 172.38 167.604 172.774L171.066 175.766Z" fill="#63A650"/>
<path d="M117.435 175.766C117.435 175.766 117.274 172.38 113.973 172.774L117.435 175.766Z" fill="#63A650"/>
<path d="M72.8976 175.766C72.8976 175.766 72.7365 172.38 69.4355 172.774L72.8976 175.766Z" fill="#63A650"/>
<path d="M25.5636 175.766C25.5636 175.766 25.4026 172.38 22.1016 172.774L25.5636 175.766Z" fill="#63A650"/>
<path d="M205.11 175.766C205.11 175.766 204.949 172.38 201.648 172.774L205.11 175.766Z" fill="#63A650"/>
<path d="M185.058 176C185.058 176 184.897 172.614 181.596 173.008L185.058 176Z" fill="#63A650"/>
<path d="M230 175.323H0V175.843H230V175.323Z" fill="#63A650"/>
</g>
<defs>
<clipPath id="clip0_340_175928">
<rect width="230" height="176" fill="white"/>
</clipPath>
</defs>
</svg>
