<svg width="230" height="133" viewBox="0 0 230 133" fill="none" xmlns="http://www.w3.org/2000/svg">
<g clip-path="url(#clip0_340_175805)">
<path d="M149.601 119.387H76.3136C74.5765 119.385 72.9112 118.694 71.6829 117.466C70.4546 116.238 69.7637 114.572 69.7617 112.835V6.55185C69.7637 4.81479 70.4546 3.14944 71.6829 1.92116C72.9112 0.692873 74.5765 0.00196141 76.3136 0H149.601C151.338 0.00196019 153.004 0.692873 154.232 1.92116C155.46 3.14944 156.151 4.81479 156.153 6.55185V112.835C156.151 114.572 155.46 116.238 154.232 117.466C153.004 118.694 151.338 119.385 149.601 119.387Z" fill="#EAECEE"/>
<path d="M149.731 115.027H76.1857C75.6502 115.026 75.1369 114.813 74.7582 114.435C74.3796 114.056 74.1666 113.543 74.166 113.007V6.01968C74.1666 5.48422 74.3796 4.97086 74.7582 4.59222C75.1369 4.21359 75.6502 4.00061 76.1857 4H149.731C150.267 4.00061 150.78 4.21359 151.159 4.59222C151.537 4.97086 151.75 5.48422 151.751 6.01968V113.007C151.75 113.543 151.537 114.056 151.159 114.435C150.78 114.813 150.267 115.026 149.731 115.027Z" fill="white"/>
<path d="M112.678 2.56395C112.986 2.56395 113.236 2.31441 113.236 2.00658C113.236 1.69876 112.986 1.44922 112.678 1.44922C112.371 1.44922 112.121 1.69876 112.121 2.00658C112.121 2.31441 112.371 2.56395 112.678 2.56395Z" fill="white"/>
<path d="M112.955 65.2976C110.839 65.2952 108.81 64.4534 107.313 62.957C105.817 61.4605 104.975 59.4316 104.973 57.3153V39.9823C104.973 37.8653 105.814 35.8349 107.311 34.338C108.808 32.841 110.838 32 112.955 32C115.072 32 117.102 32.841 118.599 34.338C120.096 35.8349 120.937 37.8653 120.937 39.9823V57.3153C120.935 59.4316 120.093 61.4605 118.597 62.957C117.1 64.4534 115.071 65.2952 112.955 65.2976Z" fill="#C22E49"/>
<path d="M112.957 71.9115C108.482 71.9065 104.193 70.1267 101.029 66.9628C97.8649 63.7989 96.0851 59.5091 96.0801 55.0347C96.0801 54.6717 96.2242 54.3237 96.4809 54.0671C96.7375 53.8104 97.0856 53.6663 97.4485 53.6663C97.8114 53.6663 98.1594 53.8104 98.4161 54.0671C98.6727 54.3237 98.8169 54.6717 98.8169 55.0347C98.8169 58.7848 100.307 62.3814 102.958 65.0332C105.61 67.685 109.207 69.1747 112.957 69.1747C116.707 69.1747 120.304 67.685 122.955 65.0332C125.607 62.3814 127.097 58.7848 127.097 55.0347C127.097 54.6717 127.241 54.3237 127.498 54.0671C127.754 53.8104 128.102 53.6663 128.465 53.6663C128.828 53.6663 129.176 53.8104 129.433 54.0671C129.69 54.3237 129.834 54.6717 129.834 55.0347C129.829 59.5091 128.049 63.7989 124.885 66.9628C121.721 70.1267 117.431 71.9065 112.957 71.9115Z" fill="#C22E49"/>
<path d="M112.958 87.42C112.595 87.42 112.247 87.2758 111.991 87.0192C111.734 86.7626 111.59 86.4145 111.59 86.0516V70.9993C111.59 70.6363 111.734 70.2883 111.991 70.0317C112.247 69.775 112.595 69.6309 112.958 69.6309C113.321 69.6309 113.669 69.775 113.926 70.0317C114.182 70.2883 114.327 70.6363 114.327 70.9993V86.0516C114.327 86.4145 114.182 86.7626 113.926 87.0192C113.669 87.2758 113.321 87.42 112.958 87.42Z" fill="#C22E49"/>
<path d="M109.764 38.1578C110.268 38.1578 110.676 37.7493 110.676 37.2455C110.676 36.7417 110.268 36.3333 109.764 36.3333C109.26 36.3333 108.852 36.7417 108.852 37.2455C108.852 37.7493 109.26 38.1578 109.764 38.1578Z" fill="white"/>
<path d="M109.764 46.8243C110.268 46.8243 110.676 46.4158 110.676 45.912C110.676 45.4082 110.268 44.9998 109.764 44.9998C109.26 44.9998 108.852 45.4082 108.852 45.912C108.852 46.4158 109.26 46.8243 109.764 46.8243Z" fill="white"/>
<path d="M116.151 41.3506C116.654 41.3506 117.063 40.9422 117.063 40.4384C117.063 39.9346 116.654 39.5261 116.151 39.5261C115.647 39.5261 115.238 39.9346 115.238 40.4384C115.238 40.9422 115.647 41.3506 116.151 41.3506Z" fill="white"/>
<path d="M123.799 87.665H102.12C101.757 87.665 101.409 87.5208 101.153 87.2642C100.896 87.0076 100.752 86.6595 100.752 86.2966C100.752 85.9337 100.896 85.5856 101.153 85.329C101.409 85.0724 101.757 84.9282 102.12 84.9282H123.799C124.162 84.9282 124.51 85.0724 124.767 85.329C125.023 85.5856 125.167 85.9337 125.167 86.2966C125.167 86.6595 125.023 87.0076 124.767 87.2642C124.51 87.5208 124.162 87.665 123.799 87.665Z" fill="#C22E49"/>
<path d="M187.011 103.783C186.751 103.592 186.484 103.415 186.213 103.247C186.05 103.141 185.882 103.042 185.714 102.946C185.691 102.932 185.668 102.918 185.645 102.904C184.802 102.427 183.917 102.029 183 101.718C182.111 101.414 181.195 101.194 180.265 101.06C180.251 101.056 180.236 101.054 180.222 101.053C179.971 101.016 179.718 100.986 179.463 100.965C179.286 100.947 179.106 100.933 178.927 100.926C178.697 100.91 178.467 100.901 178.232 100.899C178.163 100.896 178.092 100.896 178.021 100.896C177.269 100.896 176.519 100.951 175.776 101.06C175.612 101.083 175.449 101.108 175.288 101.136C175.18 101.156 175.074 101.177 174.968 101.198C174.529 101.287 174.097 101.394 173.674 101.517C173.48 101.575 173.289 101.635 173.099 101.699C172.841 101.784 172.588 101.876 172.337 101.977C172.114 102.063 171.896 102.157 171.679 102.253C169.898 103.056 168.285 104.188 166.923 105.588C166.385 106.138 165.889 106.728 165.439 107.353C165.226 107.649 165.022 107.954 164.83 108.268C164.474 108.84 164.158 109.436 163.882 110.05C163.32 111.3 162.927 112.619 162.714 113.972C162.588 114.772 162.525 115.581 162.525 116.392C162.525 116.539 162.528 116.686 162.532 116.831C162.623 120.189 163.809 123.425 165.911 126.045C166.136 126.33 166.373 126.606 166.619 126.873C166.866 127.14 167.121 127.399 167.385 127.648C167.71 127.956 168.045 128.246 168.393 128.524C170.526 130.222 173.07 131.325 175.767 131.722C178.464 132.119 181.218 131.796 183.75 130.785C184.099 130.647 184.442 130.497 184.776 130.332C184.527 130.06 184.291 129.778 184.067 129.485C183.734 129.642 183.396 129.785 183.048 129.913C180.65 130.805 178.057 131.043 175.536 130.601C173.015 130.159 170.658 129.054 168.706 127.399C168.402 127.142 168.105 126.87 167.825 126.588C167.509 126.272 167.208 125.944 166.925 125.601C166.681 125.309 166.447 125.005 166.228 124.692C164.369 122.059 163.447 118.877 163.611 115.657C163.774 112.437 165.015 109.365 167.132 106.934C167.261 106.785 167.392 106.64 167.526 106.499C167.799 106.212 168.082 105.934 168.377 105.669C169.76 104.421 171.372 103.454 173.124 102.819C173.14 102.812 173.158 102.808 173.174 102.801C173.23 102.78 173.287 102.762 173.345 102.741C173.891 102.554 174.448 102.4 175.012 102.279C175.217 102.235 175.424 102.196 175.631 102.162C175.635 102.162 175.638 102.159 175.642 102.159C176.227 102.063 176.817 102.003 177.409 101.978C177.611 101.968 177.816 101.964 178.021 101.964C178.274 101.964 178.529 101.971 178.779 101.987C178.959 101.994 179.141 102.007 179.318 102.024C179.474 102.037 179.631 102.053 179.785 102.074C181.576 102.292 183.311 102.848 184.895 103.712C185.304 103.933 185.702 104.175 186.087 104.436C186.395 104.646 186.696 104.866 186.986 105.096C187.285 104.878 187.595 104.671 187.913 104.478C187.621 104.234 187.319 103.999 187.011 103.783Z" fill="#9499C7"/>
<path d="M180.162 80.6113L179.325 94.8382H162.886C161.46 94.8246 160.08 95.3463 159.019 96.3005C158.067 97.1698 157.476 98.3645 157.361 99.6488L159.237 100.317C159.234 100.101 159.256 99.886 159.303 99.6755C159.433 99.1109 159.792 98.0833 160.76 97.5062C161.185 97.2647 161.667 97.1417 162.156 97.15H180.789L181.836 82.2962H188.111V80.6113H180.162Z" fill="#9499C7"/>
<path d="M196.479 87.7312L196.475 87.8439L195.964 101.269L195.923 102.336C195.773 102.332 195.624 102.329 195.472 102.329C195.178 102.329 194.886 102.339 194.596 102.357C193.175 102.439 191.775 102.735 190.442 103.233C190.097 103.362 189.757 103.505 189.425 103.659C188.905 103.901 188.399 104.174 187.912 104.478C187.595 104.671 187.284 104.878 186.985 105.096C185.712 106.026 184.599 107.156 183.689 108.443C183.37 108.891 183.079 109.358 182.817 109.841L181.601 109.853L173.293 109.945L168.47 110H168.468L165.068 110.037L163.882 110.05H163.796L162.713 110.062L160.374 110.09L159.286 110.101L157.777 110.117L158.718 101.225L166.922 101.678L168.376 101.759L168.758 101.78L172.336 101.977L173.105 102.019L175.004 102.125L175.641 102.159L178.73 102.329L178.779 101.987L178.871 101.324L178.926 100.926L179.223 98.785L179.317 98.1134L179.45 97.1497V97.1428L179.462 97.0554L179.77 94.8382L180.021 93.0465L180.253 91.379V91.3721L180.623 88.6926L180.685 88.2533L181.417 88.228L184.26 88.136L185.515 88.0946L189.464 87.9635L194.973 87.7818H194.975L195.431 87.7657L195.539 87.7611H195.541L196.479 87.7312Z" fill="#4F527D"/>
<path d="M195.473 119.605C197.047 119.605 198.322 118.329 198.322 116.755C198.322 115.181 197.047 113.905 195.473 113.905C193.899 113.905 192.623 115.181 192.623 116.755C192.623 118.329 193.899 119.605 195.473 119.605Z" fill="#9499C7"/>
<path d="M176.483 118.78C177.565 118.78 178.442 117.903 178.442 116.821C178.442 115.739 177.565 114.862 176.483 114.862C175.401 114.862 174.523 115.739 174.523 116.821C174.523 117.903 175.401 118.78 176.483 118.78Z" fill="#9499C7"/>
<path d="M189.74 102.361C189.393 102.497 189.05 102.649 188.714 102.812C188.126 103.099 187.557 103.423 187.01 103.783C186.693 103.988 186.384 104.205 186.085 104.436C184.632 105.545 183.385 106.902 182.401 108.443H183.689C184.599 107.156 185.712 106.026 186.985 105.096C187.284 104.878 187.594 104.671 187.912 104.477C188.399 104.174 188.904 103.901 189.425 103.659C189.756 103.505 190.097 103.362 190.442 103.233C191.774 102.735 193.175 102.439 194.595 102.357V101.285C192.929 101.377 191.289 101.741 189.74 102.361ZM181.283 110.533H182.458C182.571 110.299 182.691 110.066 182.817 109.841L181.6 109.853C181.488 110.076 181.382 110.303 181.283 110.533ZM196.479 101.294C196.309 101.28 196.136 101.274 195.964 101.269C195.801 101.262 195.637 101.26 195.472 101.26C195.177 101.26 194.885 101.269 194.595 101.285C192.929 101.377 191.289 101.741 189.74 102.361C189.393 102.497 189.05 102.649 188.714 102.812C188.126 103.099 187.557 103.423 187.01 103.783C186.693 103.988 186.384 104.205 186.085 104.436C184.198 105.877 182.664 107.729 181.6 109.853C181.488 110.076 181.382 110.303 181.283 110.533C180.942 111.303 180.667 112.1 180.46 112.916C180.323 113.445 180.215 113.981 180.138 114.522C180.069 114.995 180.022 115.475 179.997 115.959C179.984 116.224 179.977 116.488 179.977 116.755C179.977 117.342 180.01 117.929 180.076 118.512C180.385 121.228 181.411 123.813 183.047 126.003C183.27 126.302 183.505 126.594 183.749 126.875C185.417 128.808 187.537 130.298 189.92 131.214C192.303 132.129 194.876 132.442 197.409 132.123C199.942 131.804 202.357 130.865 204.44 129.387C206.522 127.91 208.207 125.941 209.344 123.655C210.482 121.369 211.037 118.838 210.96 116.286C210.883 113.734 210.176 111.24 208.903 109.027C207.63 106.814 205.829 104.95 203.662 103.601C201.494 102.252 199.027 101.46 196.479 101.294H196.479ZM195.472 131.18C193.455 131.181 191.46 130.758 189.617 129.938C187.774 129.119 186.124 127.92 184.774 126.422C184.526 126.15 184.29 125.868 184.066 125.575C182.211 123.19 181.158 120.28 181.055 117.261C181.048 117.093 181.046 116.925 181.046 116.755C181.044 114.601 181.527 112.475 182.458 110.533C182.571 110.299 182.691 110.066 182.817 109.841C183.079 109.358 183.37 108.891 183.689 108.443C184.599 107.156 185.712 106.026 186.985 105.096C187.284 104.878 187.594 104.671 187.912 104.477C188.399 104.174 188.904 103.901 189.425 103.659C189.756 103.505 190.097 103.362 190.442 103.233C191.774 102.735 193.175 102.439 194.595 102.357C194.885 102.338 195.177 102.329 195.472 102.329C195.624 102.329 195.773 102.332 195.923 102.336C196.109 102.343 196.295 102.352 196.479 102.364C200.209 102.624 203.692 104.323 206.194 107.102C208.696 109.88 210.022 113.522 209.891 117.259C209.76 120.995 208.184 124.536 205.494 127.133C202.804 129.73 199.211 131.181 195.472 131.18ZM181.055 117.261C181.048 117.093 181.046 116.925 181.046 116.755C181.044 114.601 181.527 112.475 182.458 110.533H181.283C180.942 111.303 180.667 112.1 180.46 112.916C180.495 113.065 180.513 113.218 180.512 113.372C180.513 113.785 180.381 114.188 180.138 114.522C180.069 114.995 180.022 115.475 179.997 115.959C179.984 116.224 179.977 116.488 179.977 116.755C179.977 117.342 180.01 117.929 180.076 118.512C180.385 121.228 181.411 123.813 183.047 126.003C183.394 125.874 183.733 125.732 184.066 125.575C182.211 123.19 181.158 120.28 181.055 117.261Z" fill="#9499C7"/>
<path opacity="0.1" d="M186.619 95.0379C186.753 95.0379 186.861 94.9295 186.861 94.7957C186.861 94.6619 186.753 94.5535 186.619 94.5535C186.485 94.5535 186.377 94.6619 186.377 94.7957C186.377 94.9295 186.485 95.0379 186.619 95.0379Z" fill="black"/>
<path opacity="0.1" d="M185.797 99.0504C185.931 99.0504 186.039 98.9419 186.039 98.8081C186.039 98.6744 185.931 98.5659 185.797 98.5659C185.663 98.5659 185.555 98.6744 185.555 98.8081C185.555 98.9419 185.663 99.0504 185.797 99.0504Z" fill="black"/>
<path d="M155.041 124.203L152.857 124.203L151.818 115.781L155.041 115.781L155.041 124.203Z" fill="#FFB7B7"/>
<path d="M155.04 123.492L152.77 123.489H151.298C150.938 123.489 150.582 123.56 150.249 123.698C149.916 123.835 149.614 124.037 149.359 124.292C149.105 124.547 148.903 124.849 148.765 125.182C148.627 125.514 148.556 125.871 148.557 126.231V126.321H155.597V123.492H155.04Z" fill="#4F527D"/>
<path d="M162.27 125.253L160.087 125.208L159.221 116.767L162.443 116.833L162.27 125.253Z" fill="#FFB7B7"/>
<path d="M162.285 124.54L160.013 124.494L158.543 124.465C158.183 124.456 157.825 124.519 157.49 124.65C157.154 124.78 156.848 124.976 156.588 125.225C156.328 125.474 156.12 125.772 155.976 126.102C155.831 126.432 155.753 126.786 155.746 127.146L155.744 127.236L162.784 127.381L162.796 126.799L162.842 124.552L162.285 124.54Z" fill="#4F527D"/>
<path d="M169.875 95.083L157.26 99.2442C156.511 99.4288 155.83 99.8227 155.296 100.38C154.762 100.937 154.397 101.635 154.245 102.391L150.434 121.297L156.543 121.392L160.404 105.504L168.74 102.093L162.353 105.79C161.776 106.247 161.33 106.848 161.059 107.532L157.299 121.564H164.037L167.866 110.343L184.485 100.87L169.875 95.083Z" fill="#4F527D"/>
<path d="M182.602 75.3452L174.615 76.3145C174.615 76.3145 169.927 78.4172 169.927 79.4858C169.927 80.5544 168.062 95.872 168.062 95.872C168.062 95.872 166.401 96.8965 172.884 98.6992C179.367 100.502 180.53 102.991 180.53 102.991L181.024 105.07L188.45 102.461L189.697 84.6508L191.12 77.7156L186.313 75.0332L182.602 75.3452Z" fill="#47A4DD"/>
<path d="M179.176 73.7935C182.329 73.7935 184.885 71.2375 184.885 68.0845C184.885 64.9315 182.329 62.3755 179.176 62.3755C176.023 62.3755 173.467 64.9315 173.467 68.0845C173.467 71.2375 176.023 73.7935 179.176 73.7935Z" fill="#FFB7B7"/>
<path d="M183.089 62.2237L183.203 61.6121L181.674 61.3283C181.674 61.3283 179.511 59.3453 177.03 60.7827C174.549 62.2202 173.461 62.9672 173.461 62.9672L172.317 64.0201L173.177 64.4962L172.09 65.2433L173.007 65.4136L172.225 66.2174L173.514 68.829C173.514 68.829 173.754 66.5012 175.589 66.8418C177.424 67.1823 180.018 65.1333 180.018 65.1333L183.981 69.3484C183.981 69.3484 184.014 67.4655 185.085 67.6599C185.085 67.6598 186.396 63.1538 183.089 62.2237Z" fill="#4F527D"/>
<path d="M184.555 87.5289C184.749 87.2386 185.004 86.9944 185.303 86.8133C185.601 86.6323 185.936 86.5189 186.282 86.4811C186.629 86.4434 186.981 86.4821 187.311 86.5947C187.641 86.7073 187.943 86.8909 188.195 87.1327L195.753 83.2783L195.263 87.6599L188.16 90.6483C187.726 91.0443 187.162 91.2672 186.574 91.2749C185.987 91.2825 185.417 91.0744 184.972 90.6899C184.528 90.3054 184.24 89.7713 184.163 89.1887C184.086 88.6061 184.226 88.0155 184.555 87.5289Z" fill="#FFB7B7"/>
<path d="M189.265 78.0507L191.119 77.7156L201.012 82.1399L201.685 86.4754L195.752 88.0348L192.648 84.0424L188.104 85.3033L185.422 81.2668L189.265 78.0507Z" fill="#47A4DD"/>
<path d="M180.443 83.0152L180.214 93.0392C180.208 93.297 180.412 93.5106 180.67 93.5165L184.921 93.6138C185.179 93.6197 185.393 93.4155 185.399 93.1578L185.628 83.1338C185.634 82.8761 185.43 82.6624 185.172 82.6565L180.92 82.5593C180.663 82.5534 180.449 82.7575 180.443 83.0152Z" fill="#4F527D"/>
<path d="M183.048 86.6496C183.498 86.6496 183.863 86.2846 183.863 85.8342C183.863 85.3839 183.498 85.0188 183.048 85.0188C182.598 85.0188 182.232 85.3839 182.232 85.8342C182.232 86.2846 182.598 86.6496 183.048 86.6496Z" fill="white"/>
<path d="M180.594 88.6788C180.29 88.5444 179.959 88.4785 179.626 88.4856C179.293 88.4928 178.966 88.5728 178.667 88.7201C178.369 88.8674 178.106 89.0784 177.898 89.3382C177.69 89.598 177.541 89.9003 177.462 90.2239L169.404 90.9926L172.043 94.2683L179.29 93.0361C179.842 93.1324 180.411 93.0228 180.888 92.728C181.365 92.4333 181.717 91.9738 181.878 91.4367C182.038 90.8996 181.996 90.3222 181.76 89.8139C181.523 89.3056 181.109 88.9018 180.594 88.6788Z" fill="#FFB7B7"/>
<path d="M172.403 81.011L171.981 88.8545L173.564 89.3552L172.884 94.8229L168.818 95.4373L170.515 81.2815L172.403 81.011Z" fill="#47A4DD"/>
<path d="M195.852 80.6104L195.693 83.3083L195.631 84.3617V84.3755L195.438 87.63L195.431 87.7657L195.015 94.8382H178.517C177.11 94.8385 175.753 95.3596 174.708 96.301C174.536 96.458 174.375 96.6262 174.225 96.8047C174.132 96.9151 174.044 97.0303 173.963 97.1497C173.858 97.2966 173.761 97.4494 173.673 97.6074C173.467 97.98 173.308 98.3772 173.201 98.7896C173.19 98.8226 173.181 98.8564 173.174 98.8908C173.112 99.1401 173.07 99.3939 173.047 99.6498L173.098 101.699L173.105 102.019L173.123 102.819L173.229 107.286L173.293 109.945L173.353 112.449C171.842 112.412 169.245 113.213 167.743 118.576C167.412 119.759 167.145 120.791 166.925 121.691C166.812 122.148 166.71 122.572 166.619 122.963C166.465 123.63 166.338 124.202 166.228 124.692C166.106 125.244 166.005 125.688 165.91 126.045C165.582 127.254 165.319 127.408 164.489 127.096C163.935 126.944 163.369 126.845 162.796 126.799C161.092 126.597 158.454 126.41 155.912 126.261C155.806 126.256 155.703 126.249 155.597 126.242C151.97 126.031 148.633 125.897 148.633 125.897V127.986L164.489 129.412C164.489 129.412 166.124 130.145 167.385 127.648C167.557 127.306 167.704 126.951 167.824 126.587C167.905 126.36 167.98 126.114 168.052 125.849C168.164 125.44 168.278 125.028 168.392 124.614C168.496 124.239 168.601 123.862 168.705 123.489C169.388 121.033 170.046 118.726 170.432 117.399C170.579 116.862 170.843 116.364 171.203 115.941C171.564 115.517 172.014 115.178 172.521 114.947C172.874 114.781 173.261 114.697 173.652 114.701L175.524 114.618L175.336 110.533H182.459C182.572 110.299 182.691 110.066 182.818 109.841C183.079 109.358 183.37 108.89 183.689 108.443H175.255L175.166 106.182L175.012 102.279L175.005 102.125L174.968 101.198L174.933 100.317C174.928 100.099 174.95 99.8809 174.998 99.6682C175.016 99.5877 175.039 99.4957 175.069 99.3991C175.187 98.9865 175.377 98.598 175.63 98.2514C175.809 98.007 176.026 97.7928 176.272 97.6166C176.33 97.5743 176.391 97.5351 176.454 97.4993C176.812 97.2963 177.211 97.1768 177.622 97.1497C177.697 97.1427 177.772 97.1404 177.847 97.1428H194.596V102.357C194.886 102.338 195.178 102.329 195.472 102.329C195.624 102.329 195.774 102.332 195.923 102.336C196.109 102.343 196.296 102.352 196.48 102.364V97.0922L197.142 87.6691L197.522 82.2894H203.798L203.801 80.6104H195.852Z" fill="#9499C7"/>
<path d="M43.4022 86.6142C43.7256 86.4532 44.0098 86.2234 44.2347 85.9407C44.4597 85.6581 44.6199 85.3296 44.7041 84.9783C44.7884 84.6271 44.7946 84.2616 44.7223 83.9077C44.65 83.5538 44.501 83.22 44.2858 82.9299L46.1334 64.8657H42.1405L40.6722 82.5045C40.2088 82.8984 39.906 83.4485 39.8212 84.0507C39.7363 84.6529 39.8753 85.2653 40.2118 85.7719C40.5483 86.2785 41.059 86.644 41.647 86.7992C42.235 86.9545 42.8595 86.8886 43.4022 86.6142V86.6142Z" fill="#9F616A"/>
<path d="M47.069 54.8965C50.1888 54.8965 52.718 52.3673 52.718 49.2474C52.718 46.1275 50.1888 43.5984 47.069 43.5984C43.9491 43.5984 41.4199 46.1275 41.4199 49.2474C41.4199 52.3673 43.9491 54.8965 47.069 54.8965Z" fill="#9F616A"/>
<path d="M48.1315 75.3859C47.9054 75.3859 47.6855 75.3116 47.5057 75.1745C47.3258 75.0375 47.1959 74.8452 47.1358 74.6272C46.6833 72.9828 45.5057 70.2026 43.6361 66.3634C43.2142 65.4955 42.9806 64.5483 42.9506 63.5838C42.9206 62.6193 43.0948 61.6593 43.4618 60.7669C43.8289 59.8745 44.3805 59.0697 45.0805 58.4055C45.7804 57.7412 46.6129 57.2325 47.5233 56.9126C48.386 56.608 49.3011 56.4795 50.2144 56.5347C51.1277 56.5899 52.0206 56.8278 52.8403 57.2342C53.6601 57.6405 54.39 58.2072 54.9869 58.9006C55.5838 59.5941 56.0356 60.4002 56.3155 61.2712C57.7646 65.8146 57.6947 70.6815 57.5973 72.5628C57.5852 72.7894 57.4992 73.0058 57.3524 73.1788C57.2056 73.3518 57.0061 73.4719 56.7845 73.5208L48.3535 75.3619C48.2806 75.3779 48.2062 75.386 48.1315 75.3859Z" fill="#63A650"/>
<path d="M56.2973 129.028H59.1171L60.4585 118.152H56.2969L56.2973 129.028Z" fill="#9F616A"/>
<path d="M55.5783 131.762L55.5781 128.108L61.1312 128.107C62.0698 128.107 62.97 128.48 63.6337 129.144C64.2974 129.808 64.6703 130.708 64.6703 131.646V131.761L55.5783 131.762Z" fill="#4F527D"/>
<path d="M28.1016 125.374L30.5725 126.733L36.9883 117.848L33.3414 115.843L28.1016 125.374Z" fill="#9F616A"/>
<path d="M34.1217 131.803L26.1543 127.423L27.9147 124.221L32.7808 126.896C33.6025 127.349 34.211 128.109 34.4727 129.01C34.7345 129.911 34.6282 130.88 34.1771 131.702L34.1217 131.803Z" fill="#4F527D"/>
<path d="M56.1643 122.992C55.9131 122.991 55.6705 122.9 55.4818 122.734C55.2931 122.568 55.1712 122.339 55.1389 122.09L51.6125 94.9157C51.5969 94.7955 51.5438 94.6833 51.4606 94.5951C51.3774 94.5069 51.2685 94.4473 51.1495 94.4247C51.0304 94.4021 50.9072 94.4177 50.7975 94.4693C50.6879 94.5209 50.5973 94.6058 50.5388 94.712L35.8421 121.376C35.7208 121.594 35.5254 121.761 35.2915 121.847C35.0575 121.932 34.8005 121.931 34.5672 121.844L31.3638 120.623C31.235 120.574 31.1172 120.5 31.0175 120.405C30.9178 120.31 30.8381 120.195 30.7831 120.069C30.7281 119.942 30.699 119.806 30.6973 119.668C30.6957 119.531 30.7217 119.394 30.7736 119.266L40.9544 94.2565C40.9802 94.1929 40.9977 94.1263 41.0064 94.0584C42.3853 83.3856 45.8938 77.9581 46.9362 76.5489C47.0123 76.4453 47.0624 76.325 47.0823 76.198C47.1021 76.071 47.0911 75.941 47.0502 75.8192L46.9069 75.3893C46.8497 75.2186 46.838 75.036 46.8729 74.8595C46.9078 74.6829 46.9882 74.5185 47.1061 74.3826C50.8623 70.1042 57.4092 72.4388 57.4749 72.4628L57.5077 72.475L57.5283 72.503C64.8693 82.5707 62.1551 115.27 61.5364 121.723C61.5133 121.966 61.4052 122.192 61.2312 122.362C61.0572 122.533 60.8285 122.636 60.5856 122.654L56.2447 122.989C56.2177 122.991 56.1909 122.992 56.1643 122.992Z" fill="#4F527D"/>
<path d="M69.0298 55.8096C69.0015 55.9337 68.9831 56.0598 68.9747 56.1868L59.0945 61.8866L56.693 60.5041L54.1328 63.8557L58.1464 66.7164C58.4706 66.9475 58.8611 67.0672 59.2591 67.0575C59.6572 67.0478 60.0414 66.9092 60.354 66.6626L70.5422 58.6251C71.002 58.7953 71.5027 58.8214 71.9777 58.7001C72.4527 58.5788 72.8796 58.3157 73.2015 57.9459C73.5233 57.5761 73.725 57.117 73.7796 56.6298C73.8342 56.1426 73.7392 55.6503 73.5072 55.2184C73.2752 54.7864 72.9172 54.4354 72.4808 54.2119C72.0444 53.9885 71.5503 53.9031 71.0643 53.9673C70.5782 54.0315 70.1232 54.2421 69.7598 54.5712C69.3963 54.9003 69.1417 55.3322 69.0298 55.8096H69.0298Z" fill="#9F616A"/>
<path d="M58.764 62.1564L55.5708 66.295C55.4799 66.4128 55.3648 66.5096 55.2331 66.5788C55.1015 66.648 54.9565 66.6881 54.808 66.6962C54.6594 66.7044 54.5109 66.6804 54.3725 66.626C54.2341 66.5715 54.1091 66.4879 54.0059 66.3808L50.3909 62.6269C49.7903 62.1589 49.3999 61.4717 49.3054 60.7161C49.211 59.9606 49.4201 59.1984 49.887 58.597C50.3539 57.9955 51.0404 57.6038 51.7958 57.508C52.5512 57.4121 53.3137 57.6199 53.916 58.0857L58.45 60.621C58.5798 60.6936 58.6924 60.7933 58.7802 60.9134C58.868 61.0335 58.9288 61.1711 58.9586 61.3168C58.9884 61.4625 58.9865 61.6129 58.9529 61.7578C58.9193 61.9027 58.8549 62.0387 58.7641 62.1564L58.764 62.1564Z" fill="#63A650"/>
<path d="M46.3878 69.3468L41.2437 68.4179C41.0973 68.3915 40.9583 68.3338 40.8363 68.2489C40.7142 68.1639 40.6119 68.0536 40.5363 67.9255C40.4607 67.7975 40.4136 67.6546 40.3981 67.5066C40.3827 67.3587 40.3994 67.2092 40.447 67.0683L42.1146 62.1308C42.254 61.3827 42.6844 60.7203 43.3114 60.2891C43.9385 59.8578 44.7109 59.6928 45.4594 59.8302C46.2079 59.9676 46.8714 60.3963 47.3043 61.0222C47.7372 61.648 47.9043 62.42 47.7689 63.1689L47.6062 68.361C47.6015 68.5097 47.5648 68.6556 47.4986 68.7888C47.4324 68.922 47.3383 69.0393 47.2227 69.1329C47.1071 69.2264 46.9727 69.294 46.8286 69.3309C46.6845 69.3678 46.5342 69.3732 46.3878 69.3468Z" fill="#63A650"/>
<path d="M47.9627 47.9482C49.4146 48.9419 51.321 49.9634 52.8039 48.9052C53.7776 48.2103 54.0844 46.9236 53.6895 45.7945C52.9795 43.7639 51.0286 42.87 49.163 42.1847C46.7378 41.2939 44.0971 40.5852 41.5935 41.2232C39.0898 41.8611 36.8772 44.2852 37.3291 46.829C37.6926 48.8746 39.6222 50.5768 39.3483 52.6364C39.0726 54.7092 36.7415 55.8002 34.6836 56.1707C32.6256 56.5412 30.3227 56.6602 28.8437 58.1384C26.957 60.0241 27.4281 63.3946 29.2034 65.3856C30.9788 67.3765 33.6578 68.279 36.2538 68.8925C39.6934 69.7054 43.4135 70.1326 46.6802 68.7836C49.9469 67.4345 52.489 63.8031 51.5427 60.3978C51.143 58.9594 50.2013 57.7438 49.2913 56.5604C48.3813 55.3769 47.4598 54.1394 47.1127 52.6874C46.8234 51.4775 47.0375 50.0726 47.8399 49.165C47.9858 49.0062 48.0777 48.8051 48.1022 48.5908C48.1268 48.3765 48.0828 48.1599 47.9766 47.9721L47.9627 47.9482Z" fill="#4F527D"/>
<path d="M87.86 132.25H0.23C0.169 132.25 0.110499 132.226 0.0673653 132.183C0.0242319 132.14 0 132.081 0 132.02C0 131.959 0.0242319 131.901 0.0673653 131.857C0.110499 131.814 0.169 131.79 0.23 131.79H87.86C87.921 131.79 87.9795 131.814 88.0226 131.857C88.0658 131.901 88.09 131.959 88.09 132.02C88.09 132.081 88.0658 132.14 88.0226 132.183C87.9795 132.226 87.921 132.25 87.86 132.25Z" fill="#47A4DD"/>
<path d="M229.77 132.25H142.14C142.079 132.25 142.021 132.226 141.978 132.183C141.934 132.14 141.91 132.081 141.91 132.02C141.91 131.959 141.934 131.901 141.978 131.857C142.021 131.814 142.079 131.79 142.14 131.79H229.77C229.831 131.79 229.89 131.814 229.933 131.857C229.976 131.901 230 131.959 230 132.02C230 132.081 229.976 132.14 229.933 132.183C229.89 132.226 229.831 132.25 229.77 132.25Z" fill="#47A4DD"/>
</g>
<defs>
<clipPath id="clip0_340_175805">
<rect width="230" height="132.25" fill="white"/>
</clipPath>
</defs>
</svg>
