<svg width="180" height="100" viewBox="0 0 180 100" fill="none" xmlns="http://www.w3.org/2000/svg">
<circle cx="84.5382" cy="53.1066" r="28.132" stroke="black" stroke-width="2"/>
<ellipse cx="82.5628" cy="52.9875" rx="6.16142" ry="24.6457" fill="#E98686"/>
<ellipse cx="84.1029" cy="56.3777" rx="6.46949" ry="24.9537" transform="rotate(90 84.1029 56.3777)" fill="#E98686"/>
<ellipse rx="0.556345" ry="2.22538" transform="matrix(-1 0 0 1 86.7474 2.22538)" fill="black"/>
<ellipse rx="0.556345" ry="2.33665" transform="matrix(4.37114e-08 1 1 -4.37114e-08 86.7478 2.33564)" fill="black"/>
<ellipse rx="0.556345" ry="2.22538" transform="matrix(-1 0 0 1 25.7493 93.4148)" fill="black"/>
<ellipse rx="0.556345" ry="2.33665" transform="matrix(4.37114e-08 1 1 -4.37114e-08 25.7497 93.5251)" fill="black"/>
<ellipse rx="0.556345" ry="2.22538" transform="matrix(-0.569188 -0.822208 -0.822208 0.569188 176.296 33.9948)" fill="black"/>
<ellipse rx="0.556345" ry="2.33665" transform="matrix(-0.822208 0.569188 0.569188 0.822208 176.204 34.0582)" fill="black"/>
<ellipse rx="0.361619" ry="1.44648" transform="matrix(-0.599573 -0.80032 -0.80032 0.599573 33.4917 8.24583)" fill="black"/>
<ellipse rx="0.361619" ry="1.5188" transform="matrix(-0.80032 0.599573 0.599573 0.80032 33.4337 8.28781)" fill="black"/>
<ellipse rx="0.361619" ry="1.44648" transform="matrix(-0.869367 0.494168 0.494168 0.869367 157.303 89.4987)" fill="black"/>
<ellipse rx="0.361619" ry="1.5188" transform="matrix(0.494168 0.869367 0.869367 -0.494168 157.338 89.5619)" fill="black"/>
<ellipse rx="0.361619" ry="1.44648" transform="matrix(-0.869367 0.494168 0.494168 0.869367 125.88 97.5085)" fill="black"/>
<ellipse rx="0.361619" ry="1.5188" transform="matrix(0.494168 0.869367 0.869367 -0.494168 125.915 97.5716)" fill="black"/>
<ellipse rx="0.361619" ry="1.44648" transform="matrix(-0.580157 0.814505 0.814505 0.580157 141.307 5.77435)" fill="black"/>
<ellipse rx="0.361619" ry="1.5188" transform="matrix(0.814505 0.580156 0.580156 -0.814505 141.367 5.81647)" fill="black"/>
<ellipse rx="0.496106" ry="1.98442" transform="matrix(-0.580157 0.814505 0.814505 0.580157 142.074 57.0671)" fill="black"/>
<ellipse rx="0.496106" ry="2.08364" transform="matrix(0.814505 0.580156 0.580156 -0.814505 142.154 57.1239)" fill="black"/>
<ellipse rx="0.496106" ry="1.98442" transform="matrix(-0.0185223 0.999828 0.999828 0.0185223 5.72001 50.7945)" fill="black"/>
<ellipse rx="0.496106" ry="2.08364" transform="matrix(0.999828 0.0185222 0.0185222 -0.999828 5.81782 50.797)" fill="black"/>
<circle cx="84.5373" cy="21.2424" r="0.910375" fill="black"/>
<circle cx="56.0693" cy="87.4931" r="0.616142" fill="black"/>
<circle cx="168.207" cy="65.3115" r="0.616142" fill="black"/>
<circle cx="0.616142" cy="8.62591" r="0.616142" fill="black"/>
<circle cx="28.9589" cy="39.4325" r="0.616142" fill="black"/>
<circle cx="84.5373" cy="84.0588" r="0.910375" fill="black"/>
<circle cx="115.946" cy="52.6506" r="0.910375" transform="rotate(90 115.946 52.6506)" fill="black"/>
<circle cx="53.1297" cy="52.6506" r="0.910375" transform="rotate(90 53.1297 52.6506)" fill="black"/>
<rect x="86.1894" y="40.6932" width="14.5902" height="25.2004" rx="1.51944" transform="rotate(39.2886 86.1894 40.6932)" fill="#F7F7F7" stroke="black" stroke-width="1.01296"/>
<circle cx="77.1241" cy="62.6563" r="0.924213" transform="rotate(24.8023 77.1241 62.6563)" fill="#211F1F"/>
<path d="M83.3722 64.5509L74.1541 57.4693L86.3994 42.8683L95.3131 49.9207L83.3722 64.5509Z" fill="white"/>
<path fill-rule="evenodd" clip-rule="evenodd" d="M89.4523 63.767C89.1368 66.5729 88.6953 69.0962 88.1591 71.2218C87.5933 73.4648 86.9357 75.2088 86.2443 76.368C85.5145 77.5916 84.9351 77.8654 84.6226 77.8654C84.3102 77.8654 83.7308 77.5916 83.001 76.368C82.3096 75.2088 81.6519 73.4648 81.0861 71.2218C79.9584 66.7512 79.25 60.5218 79.25 53.6036C79.25 46.6854 79.9584 40.456 81.0861 35.9854C81.6519 33.7425 82.3096 31.9985 83.001 30.8392C83.7308 29.6156 84.3102 29.3418 84.6226 29.3418C84.9351 29.3418 85.5145 29.6156 86.2443 30.8392C86.9357 31.9985 87.5933 33.7425 88.1591 35.9854C88.5963 37.7183 88.9704 39.7154 89.2647 41.9145L90.183 41.2526C89.0915 33.5478 87.0104 28.3418 84.6226 28.3418C81.1031 28.3418 78.25 39.6519 78.25 53.6036C78.25 67.5553 81.1031 78.8654 84.6226 78.8654C87.2822 78.8654 89.5613 72.4068 90.5162 63.2302L89.4523 63.767Z" fill="black"/>
<path fill-rule="evenodd" clip-rule="evenodd" d="M97.9592 49.4558C99.4344 49.6967 100.799 49.9754 102.029 50.2859C104.272 50.8518 106.016 51.5094 107.176 52.2008C108.399 52.9306 108.673 53.51 108.673 53.8224C108.673 54.1349 108.399 54.7143 107.176 55.4441C106.016 56.1355 104.272 56.7931 102.029 57.3589C97.5588 58.4867 91.3294 59.1951 84.4112 59.1951C77.493 59.1951 71.2636 58.4867 66.793 57.3589C64.5501 56.7931 62.8061 56.1355 61.6468 55.4441C60.4232 54.7143 60.1494 54.1349 60.1494 53.8224C60.1494 53.51 60.4232 52.9306 61.6468 52.2008C62.8061 51.5094 64.5501 50.8518 66.793 50.2859C69.7329 49.5443 73.4333 48.9841 77.5899 48.6874L77.8627 47.666C67.0856 48.3937 59.1494 50.8743 59.1494 53.8224C59.1494 57.3419 70.4595 60.1951 84.4112 60.1951C98.3629 60.1951 109.673 57.3419 109.673 53.8224C109.673 51.601 105.167 49.645 98.3349 48.5043L97.9592 49.4558Z" fill="black"/>
</svg>
