<svg width="230" height="107" viewBox="0 0 230 107" fill="none" xmlns="http://www.w3.org/2000/svg">
<g clip-path="url(#clip0_340_175866)">
<path d="M217.375 106.151C215.424 106.07 213.646 105.283 212.841 104.062C212.804 104.005 212.768 103.947 212.735 103.889C212.441 103.369 212.35 102.771 212.671 102.259C212.992 101.747 213.794 101.357 214.599 101.438C215.405 101.519 216.034 102.161 215.7 102.67C215.626 101.642 215.565 100.563 216.394 99.6682C216.85 99.2007 217.444 98.8932 218.09 98.7916C219.759 98.498 220.867 99.4419 221.089 100.395C221.253 101.099 221.027 101.814 220.802 102.51C221.496 101.689 223.147 101.324 224.412 101.711C225.677 102.099 226.378 103.186 225.946 104.087C225.437 105.149 223.74 105.698 222.164 105.988C220.863 106.228 218.911 106.215 217.375 106.151Z" fill="#63A650"/>
<path d="M149.43 106.151C147.478 106.07 145.7 105.283 144.896 104.062C144.858 104.005 144.823 103.947 144.79 103.889C144.496 103.369 144.404 102.771 144.725 102.259C145.047 101.747 145.849 101.357 146.654 101.438C147.46 101.519 148.088 102.161 147.755 102.67C147.681 101.642 147.62 100.563 148.448 99.6682C148.904 99.2007 149.499 98.8932 150.144 98.7916C151.814 98.498 152.922 99.4419 153.144 100.395C153.308 101.099 153.082 101.814 152.856 102.51C153.551 101.689 155.202 101.324 156.467 101.711C157.731 102.099 158.433 103.186 158.001 104.087C157.492 105.149 155.795 105.698 154.219 105.988C152.917 106.228 150.965 106.215 149.43 106.151Z" fill="#63A650"/>
<path d="M86.9041 44.9153H72.9079C71.7946 44.914 70.7274 44.4712 69.9402 43.684C69.153 42.8969 68.7102 41.8296 68.709 40.7164V14.5053C68.7102 13.392 69.153 12.3248 69.9402 11.5376C70.7274 10.7504 71.7946 10.3077 72.9079 10.3064H86.9041C88.0173 10.3077 89.0846 10.7504 89.8717 11.5376C90.6589 12.3248 91.1017 13.392 91.1029 14.5053V40.7164C91.1017 41.8296 90.6589 42.8969 89.8717 43.684C89.0846 44.4712 88.0173 44.914 86.9041 44.9153Z" fill="#EAECEE"/>
<path d="M172.868 103.363H169.748L168.264 91.3289L172.868 91.3291L172.868 103.363Z" fill="#FFB8B8"/>
<path d="M173.663 106.387L163.604 106.387V106.259C163.604 105.745 163.705 105.236 163.902 104.761C164.098 104.286 164.387 103.854 164.75 103.491C165.114 103.127 165.546 102.839 166.021 102.642C166.496 102.445 167.005 102.344 167.519 102.344H167.519L173.663 102.344L173.663 106.387Z" fill="#4F527D"/>
<path d="M207.719 100.444L204.778 101.485L199.361 90.6376L203.702 89.1006L207.719 100.444Z" fill="#FFB8B8"/>
<path d="M209.48 103.029L199.998 106.387L199.955 106.267C199.783 105.782 199.709 105.269 199.736 104.755C199.763 104.242 199.89 103.739 200.112 103.274C200.333 102.81 200.644 102.394 201.026 102.05C201.408 101.706 201.854 101.441 202.339 101.269L202.339 101.269L208.131 99.218L209.48 103.029Z" fill="#4F527D"/>
<path d="M172.781 99.3223C172.711 99.3222 172.641 99.3159 172.572 99.3034L168.757 98.6098C168.498 98.5617 168.262 98.4258 168.091 98.2249C167.92 98.0239 167.823 97.7701 167.816 97.5061C167.262 71.8258 169.988 54.5686 175.92 42.1992C176.025 41.9803 176.198 41.8009 176.413 41.6873C176.628 41.5737 176.873 41.5318 177.114 41.5677L190.833 43.5483C191.083 43.5848 191.315 43.703 191.491 43.8847C191.667 44.0664 191.778 44.3013 191.807 44.5528L193.017 55.2162C193.023 55.2738 193.035 55.3305 193.053 55.3857L206.207 94.7963C206.296 95.0831 206.27 95.3936 206.134 95.6614C205.998 95.9292 205.762 96.133 205.477 96.2293L201.923 97.4142C201.661 97.5001 201.377 97.4894 201.123 97.384C200.868 97.2786 200.66 97.0856 200.536 96.8399L182.744 63.2904C182.708 63.2198 182.652 63.1619 182.582 63.1247C182.513 63.0874 182.433 63.0727 182.355 63.0824C182.277 63.0922 182.203 63.126 182.145 63.1791C182.087 63.2323 182.046 63.3023 182.029 63.3794L173.896 98.4222C173.841 98.677 173.7 98.9053 173.498 99.0691C173.295 99.2329 173.042 99.3222 172.781 99.3223Z" fill="#4F527D"/>
<path d="M161.938 21.4009C161.969 21.5382 161.99 21.6777 161.999 21.8183L172.931 28.1247L175.588 26.5951L178.42 30.3034L173.98 33.4684C173.621 33.7241 173.189 33.8565 172.748 33.8458C172.308 33.8351 171.883 33.6818 171.537 33.4089L160.265 24.516C159.756 24.7043 159.202 24.7333 158.676 24.5991C158.151 24.4648 157.678 24.1738 157.322 23.7646C156.966 23.3554 156.743 22.8475 156.683 22.3084C156.622 21.7694 156.727 21.2246 156.984 20.7468C157.241 20.2689 157.637 19.8805 158.12 19.6332C158.603 19.386 159.149 19.2916 159.687 19.3626C160.225 19.4336 160.728 19.6667 161.13 20.0308C161.532 20.3949 161.814 20.8728 161.938 21.4009Z" fill="#FFB8B8"/>
<path d="M173.082 27.4943C173.115 27.3331 173.182 27.1808 173.279 27.048C173.376 26.9151 173.501 26.8048 173.645 26.7245L178.661 23.9195C179.328 23.405 180.171 23.1757 181.006 23.2821C181.841 23.3884 182.6 23.8216 183.117 24.4868C183.633 25.1519 183.865 25.9946 183.76 26.8301C183.656 27.6657 183.225 28.4258 182.561 28.9439L178.562 33.0973C178.448 33.2158 178.309 33.3083 178.156 33.3686C178.003 33.4288 177.839 33.4553 177.674 33.4463C177.51 33.4373 177.35 33.393 177.204 33.3164C177.058 33.2398 176.931 33.1327 176.83 33.0024L173.297 28.4234C173.197 28.2931 173.125 28.1427 173.088 27.9824C173.051 27.822 173.049 27.6555 173.082 27.4943Z" fill="#9499C7"/>
<path d="M184.762 20.7722C188.214 20.7722 191.012 17.9738 191.012 14.5219C191.012 11.07 188.214 8.27173 184.762 8.27173C181.31 8.27173 178.512 11.07 178.512 14.5219C178.512 17.9738 181.31 20.7722 184.762 20.7722Z" fill="#FFB8B8"/>
<path d="M190.85 44.8817C190.788 44.8817 190.726 44.8766 190.664 44.8665L177.138 42.6491C176.985 42.624 176.839 42.5682 176.708 42.4851C176.578 42.4019 176.465 42.2932 176.378 42.1653C176.291 42.0375 176.23 41.8933 176.2 41.7413C176.17 41.5894 176.171 41.433 176.203 41.2815L176.861 38.1791C176.524 37.6766 173.781 33.307 177.122 29.2026C177.058 27.7445 177.566 26.3189 178.537 25.2295C179.508 24.14 180.866 23.4726 182.322 23.3695L189.312 22.8384C190.212 22.7702 191.114 22.9189 191.944 23.2722C192.774 23.6254 193.506 24.1727 194.08 24.8682C194.655 25.5636 195.053 26.3868 195.243 27.2684C195.433 28.1501 195.408 29.0644 195.171 29.9344L191.966 43.9911C191.908 44.2438 191.766 44.4695 191.563 44.6312C191.361 44.7929 191.109 44.8812 190.85 44.8817Z" fill="#9499C7"/>
<path d="M203.48 56.6361C203.709 56.3088 203.864 55.9352 203.933 55.5417C204.003 55.1481 203.985 54.7441 203.882 54.3581C203.778 53.9721 203.591 53.6135 203.334 53.3076C203.077 53.0017 202.755 52.7558 202.393 52.5875L194.692 28.9092L190.229 31.0269L198.655 54.0822C198.413 54.7099 198.409 55.4047 198.644 56.035C198.88 56.6653 199.338 57.1873 199.933 57.5021C200.528 57.8169 201.217 57.9026 201.871 57.743C202.525 57.5834 203.097 57.1895 203.48 56.6361Z" fill="#FFB8B8"/>
<path d="M196.395 32.8514L190.468 34.6416C190.3 34.6925 190.122 34.7065 189.948 34.6826C189.773 34.6587 189.606 34.5975 189.457 34.5031C189.308 34.4087 189.182 34.2834 189.086 34.1356C188.99 33.9879 188.927 33.8212 188.901 33.647L188.002 27.5408C187.746 26.6765 187.843 25.7459 188.272 24.9531C188.701 24.1603 189.427 23.5702 190.291 23.312C191.154 23.0539 192.085 23.1488 192.879 23.5761C193.673 24.0033 194.265 24.728 194.525 25.591L197.149 31.1554C197.224 31.3148 197.264 31.4884 197.266 31.6646C197.268 31.8407 197.232 32.0152 197.16 32.1761C197.089 32.3371 196.983 32.4807 196.851 32.5972C196.719 32.7137 196.563 32.8004 196.395 32.8514H196.395Z" fill="#9499C7"/>
<path d="M178.688 14.7634C180.075 15.2922 181.586 15.4111 183.039 15.1059C184.492 14.8007 185.827 14.0843 186.885 13.042C186.229 14.7741 186.412 22.1202 186.412 22.1202C186.412 22.1202 192.226 19.36 193.015 18.8773C197.674 16.0261 191.248 3.62319 185.903 5.57922C184.998 5.91052 184.242 6.30034 183.876 7.19207C183.078 6.20756 181.567 5.99402 180.405 6.4997C179.242 7.00538 178.416 8.10124 177.972 9.28822C177.621 10.2461 177.485 11.2692 177.573 12.2854C177.66 13.3017 177.97 14.2864 178.479 15.17L178.688 14.7634Z" fill="#4F527D"/>
<path d="M151.414 0H8.39774C6.17119 0.00218554 4.03646 0.887645 2.46206 2.46205C0.887649 4.03646 0.00218554 6.17119 0 8.39774V47.5872C0.00218554 49.8137 0.887649 51.9485 2.46206 53.5229C4.03646 55.0973 6.17119 55.9827 8.39774 55.9849H151.414C153.64 55.9827 155.775 55.0973 157.349 53.5229C158.924 51.9485 159.809 49.8137 159.811 47.5872V8.39774C159.809 6.17119 158.924 4.03646 157.349 2.46205C155.775 0.887645 153.64 0.00218554 151.414 0ZM159.303 47.5872C159.3 49.6786 158.468 51.6836 156.989 53.1624C155.51 54.6413 153.505 55.4733 151.414 55.476H8.39774C6.30632 55.4733 4.30133 54.6413 2.82247 53.1624C1.34362 51.6836 0.511623 49.6786 0.508954 47.5872V8.39774C0.511623 6.30632 1.34362 4.30133 2.82247 2.82247C4.30133 1.34362 6.30632 0.511623 8.39774 0.508954H151.414C153.505 0.511623 155.51 1.34362 156.989 2.82247C158.468 4.30133 159.3 6.30632 159.303 8.39774V47.5872Z" fill="#EAECEE"/>
<path d="M22.585 37.0264C21.981 37.0264 21.3906 36.8473 20.8884 36.5117C20.3862 36.1762 19.9948 35.6993 19.7637 35.1413C19.5326 34.5833 19.4721 33.9693 19.5899 33.3769C19.7078 32.7845 19.9986 32.2404 20.4257 31.8134C20.8527 31.3863 21.3969 31.0955 21.9892 30.9776C22.5816 30.8598 23.1956 30.9203 23.7536 31.1514C24.3116 31.3825 24.7885 31.7739 25.1241 32.2761C25.4596 32.7783 25.6387 33.3687 25.6387 33.9727C25.6378 34.7823 25.3157 35.5585 24.7433 36.131C24.1708 36.7034 23.3946 37.0255 22.585 37.0264ZM22.585 31.4279C22.0817 31.4279 21.5897 31.5771 21.1712 31.8568C20.7527 32.1364 20.4265 32.5338 20.2339 32.9988C20.0413 33.4638 19.9909 33.9755 20.0891 34.4691C20.1873 34.9628 20.4297 35.4162 20.7856 35.7721C21.1414 36.128 21.5949 36.3703 22.0885 36.4685C22.5822 36.5667 23.0938 36.5163 23.5588 36.3237C24.0238 36.1311 24.4212 35.8049 24.7009 35.3865C24.9805 34.968 25.1297 34.476 25.1297 33.9727C25.129 33.298 24.8606 32.6512 24.3836 32.1741C23.9065 31.697 23.2597 31.4287 22.585 31.4279Z" fill="#C22E49"/>
<path d="M22.4849 30.1557C22.4175 30.1557 22.3527 30.1288 22.305 30.0811C22.2573 30.0334 22.2305 29.9687 22.2305 29.9012V26.9747C22.2305 26.9072 22.2573 26.8425 22.305 26.7948C22.3527 26.747 22.4175 26.7202 22.4849 26.7202C22.5524 26.7202 22.6172 26.747 22.6649 26.7948C22.7126 26.8425 22.7394 26.9072 22.7394 26.9747V29.9012C22.7394 29.9687 22.7126 30.0334 22.6649 30.0811C22.6172 30.1288 22.5524 30.1557 22.4849 30.1557Z" fill="#C22E49"/>
<path d="M18.513 34.1271H15.5865C15.519 34.1271 15.4543 34.1003 15.4066 34.0526C15.3588 34.0049 15.332 33.9401 15.332 33.8726C15.332 33.8051 15.3588 33.7404 15.4066 33.6927C15.4543 33.645 15.519 33.6182 15.5865 33.6182H18.513C18.5805 33.6182 18.6452 33.645 18.6929 33.6927C18.7407 33.7404 18.7675 33.8051 18.7675 33.8726C18.7675 33.9401 18.7407 34.0049 18.6929 34.0526C18.6452 34.1003 18.5805 34.1271 18.513 34.1271Z" fill="#C22E49"/>
<path d="M29.2005 34.1271H26.274C26.2065 34.1271 26.1418 34.1003 26.0941 34.0526C26.0463 34.0049 26.0195 33.9401 26.0195 33.8726C26.0195 33.8051 26.0463 33.7404 26.0941 33.6927C26.1418 33.645 26.2065 33.6182 26.274 33.6182H29.2005C29.268 33.6182 29.3327 33.645 29.3804 33.6927C29.4282 33.7404 29.455 33.8051 29.455 33.8726C29.455 33.9401 29.4282 34.0049 29.3804 34.0526C29.3327 34.1003 29.268 34.1271 29.2005 34.1271Z" fill="#C22E49"/>
<path d="M26.1939 31.3447C26.1433 31.3447 26.0938 31.3296 26.0517 31.3013C26.0097 31.273 25.9771 31.2328 25.9581 31.1858C25.9391 31.1389 25.9345 31.0873 25.9449 31.0377C25.9554 30.9882 25.9804 30.9428 26.0167 30.9076L27.2423 29.7185C27.2907 29.6716 27.3559 29.6457 27.4233 29.6468C27.4908 29.6478 27.5551 29.6756 27.6021 29.724C27.6491 29.7725 27.6749 29.8376 27.6739 29.9051C27.6729 29.9726 27.6451 30.0369 27.5967 30.0839L26.3711 31.2729C26.3237 31.319 26.2601 31.3448 26.1939 31.3447Z" fill="#C22E49"/>
<path d="M18.7203 31.3447C18.6541 31.3448 18.5905 31.319 18.5431 31.2729L17.3175 30.0839C17.2935 30.0606 17.2744 30.0328 17.2611 30.0021C17.2479 29.9715 17.2408 29.9385 17.2403 29.9051C17.2398 29.8717 17.2458 29.8385 17.2582 29.8074C17.2705 29.7763 17.2888 29.748 17.3121 29.724C17.3353 29.7 17.3631 29.6809 17.3938 29.6676C17.4244 29.6543 17.4574 29.6473 17.4908 29.6468C17.5243 29.6463 17.5575 29.6523 17.5885 29.6646C17.6196 29.677 17.6479 29.6953 17.6719 29.7185L18.8974 30.9076C18.9338 30.9428 18.9588 30.9882 18.9693 31.0377C18.9797 31.0873 18.9751 31.1389 18.9561 31.1858C18.9371 31.2328 18.9045 31.273 18.8624 31.3013C18.8204 31.3296 18.7709 31.3447 18.7203 31.3447Z" fill="#C22E49"/>
<path d="M17.7505 38.2989C17.7005 38.2989 17.6516 38.2841 17.61 38.2565C17.5683 38.2289 17.5357 38.1896 17.5162 38.1435C17.4967 38.0974 17.4912 38.0467 17.5004 37.9975C17.5096 37.9484 17.5331 37.903 17.5679 37.8671L18.7935 36.605C18.8405 36.5566 18.9049 36.5288 18.9724 36.5279C19.0398 36.5269 19.105 36.5527 19.1534 36.5998C19.2018 36.6468 19.2296 36.7111 19.2306 36.7786C19.2316 36.8461 19.2057 36.9112 19.1587 36.9597L17.9331 38.2217C17.9094 38.2462 17.881 38.2656 17.8497 38.2789C17.8183 38.2921 17.7846 38.2989 17.7505 38.2989Z" fill="#C22E49"/>
<path d="M27.6739 38.5533C27.6399 38.5533 27.6063 38.5466 27.575 38.5334C27.5438 38.5202 27.5155 38.5008 27.4918 38.4765L26.0118 36.9599C25.9884 36.936 25.9701 36.9078 25.9576 36.8767C25.9452 36.8457 25.9391 36.8125 25.9395 36.7791C25.9399 36.7457 25.9469 36.7127 25.96 36.682C25.9732 36.6513 25.9923 36.6235 26.0162 36.6002C26.0401 36.5768 26.0684 36.5584 26.0994 36.546C26.1304 36.5336 26.1636 36.5274 26.197 36.5279C26.2304 36.5283 26.2634 36.5353 26.2941 36.5484C26.3248 36.5616 26.3526 36.5807 26.376 36.6046L27.856 38.1211C27.891 38.1569 27.9146 38.2023 27.9239 38.2515C27.9333 38.3007 27.9279 38.3515 27.9084 38.3977C27.889 38.4438 27.8564 38.4832 27.8146 38.5109C27.7729 38.5385 27.724 38.5533 27.6739 38.5533Z" fill="#C22E49"/>
<path d="M22.4849 41.098C22.4175 41.098 22.3527 41.0712 22.305 41.0235C22.2573 40.9758 22.2305 40.9111 22.2305 40.8436V37.9171C22.2305 37.8496 22.2573 37.7849 22.305 37.7371C22.3527 37.6894 22.4175 37.6626 22.4849 37.6626C22.5524 37.6626 22.6172 37.6894 22.6649 37.7371C22.7126 37.7849 22.7394 37.8496 22.7394 37.9171V40.8436C22.7394 40.9111 22.7126 40.9758 22.6649 41.0235C22.6172 41.0712 22.5524 41.098 22.4849 41.098Z" fill="#C22E49"/>
<path d="M55.773 38.8078H47.2781C46.4104 38.7931 45.5832 38.4381 44.9748 37.8193C44.3663 37.2005 44.0254 36.3674 44.0254 35.4996C44.0254 34.6318 44.3663 33.7987 44.9748 33.1799C45.5832 32.5611 46.4104 32.2061 47.2781 32.1914H47.9278C48.25 31.5089 48.759 30.9316 49.3957 30.5263C50.0324 30.121 50.7708 29.9042 51.5256 29.9011C52.5518 29.9105 53.536 30.3104 54.278 31.0194C55.02 31.7285 55.4641 32.6935 55.5201 33.7183H55.773C56.4407 33.7293 57.0772 34.0022 57.5455 34.4783C58.0137 34.9543 58.2761 35.5953 58.2761 36.263C58.2761 36.9308 58.0137 37.5718 57.5455 38.0478C57.0772 38.5239 56.4407 38.7968 55.773 38.8078ZM47.2781 32.7004C46.5454 32.7151 45.8477 33.0164 45.3347 33.5398C44.8217 34.0632 44.5344 34.7668 44.5344 35.4996C44.5344 36.2325 44.8217 36.9361 45.3347 37.4594C45.8477 37.9828 46.5454 38.2842 47.2781 38.2989H55.773C56.3056 38.2878 56.8128 38.0685 57.1856 37.6879C57.5584 37.3073 57.7672 36.7958 57.7672 36.263C57.7672 35.7303 57.5584 35.2187 57.1856 34.8382C56.8128 34.4576 56.3056 34.2382 55.773 34.2272H55.2733C55.2058 34.2272 55.1411 34.2004 55.0934 34.1527C55.0456 34.105 55.0188 34.0402 55.0188 33.9728C55.0269 33.0374 54.6636 32.1371 54.0088 31.4692C53.3539 30.8013 52.4609 30.4204 51.5256 30.4101C50.8416 30.4137 50.1738 30.6181 49.6049 30.9978C49.036 31.3776 48.5912 31.916 48.3256 32.5463C48.3059 32.592 48.2733 32.631 48.2317 32.6584C48.1902 32.6858 48.1415 32.7004 48.0917 32.7004H47.2781Z" fill="#47A4DD"/>
<path d="M84.1474 33.987L83.9491 33.5183C84.3341 33.3556 84.6731 33.1006 84.9361 32.7758C85.1992 32.451 85.3782 32.0664 85.4574 31.656C85.5365 31.2456 85.5134 30.822 85.3901 30.4227C85.2667 30.0233 85.0469 29.6605 84.7501 29.3663C84.4533 29.072 84.0886 28.8554 83.6882 28.7355C83.2878 28.6156 82.864 28.5962 82.4544 28.6789C82.0447 28.7617 81.6617 28.944 81.3392 29.2099C81.0166 29.4757 80.7646 29.8169 80.6052 30.2033L80.1348 30.0092C80.326 29.5456 80.6285 29.1362 81.0155 28.8171C81.4024 28.4981 81.862 28.2793 82.3536 28.1801C82.8452 28.0808 83.3537 28.1041 83.8341 28.2479C84.3146 28.3918 84.7522 28.6517 85.1084 29.0048C85.4646 29.3579 85.7283 29.7932 85.8763 30.2724C86.0244 30.7516 86.0521 31.2598 85.9571 31.7523C85.8621 32.2447 85.6474 32.7062 85.3317 33.0959C85.0161 33.4857 84.6094 33.7917 84.1474 33.987Z" fill="#C22E49"/>
<path d="M84.5289 38.8078H76.034C75.1663 38.7931 74.3391 38.4381 73.7306 37.8193C73.1222 37.2005 72.7812 36.3674 72.7813 35.4996C72.7812 34.6318 73.1222 33.7987 73.7306 33.1799C74.3391 32.5611 75.1663 32.2061 76.034 32.1914H76.6836C77.0059 31.5089 77.5148 30.9316 78.1515 30.5263C78.7882 30.121 79.5267 29.9042 80.2814 29.9011C81.3077 29.9105 82.2919 30.3104 83.0338 31.0194C83.7758 31.7285 84.22 32.6935 84.2759 33.7183H84.5289C85.1965 33.7293 85.8331 34.0022 86.3013 34.4783C86.7696 34.9543 87.032 35.5953 87.032 36.263C87.032 36.9308 86.7696 37.5718 86.3013 38.0478C85.8331 38.5239 85.1965 38.7968 84.5289 38.8078ZM76.034 32.7004C75.3013 32.7151 74.6035 33.0164 74.0906 33.5398C73.5776 34.0632 73.2903 34.7668 73.2903 35.4996C73.2903 36.2325 73.5776 36.9361 74.0906 37.4594C74.6035 37.9828 75.3013 38.2842 76.034 38.2989H84.5289C85.0615 38.2878 85.5686 38.0685 85.9414 37.6879C86.3142 37.3073 86.523 36.7958 86.523 36.263C86.523 35.7303 86.3142 35.2187 85.9414 34.8382C85.5686 34.4576 85.0615 34.2382 84.5289 34.2272H84.0292C83.9617 34.2272 83.8969 34.2004 83.8492 34.1527C83.8015 34.105 83.7747 34.0402 83.7747 33.9728C83.7828 33.0374 83.4195 32.1371 82.7646 31.4692C82.1098 30.8013 81.2167 30.4204 80.2814 30.4101C79.5975 30.4137 78.9296 30.6181 78.3608 30.9978C77.7919 31.3776 77.3471 31.916 77.0814 32.5463C77.0618 32.592 77.0292 32.631 76.9876 32.6584C76.946 32.6858 76.8974 32.7004 76.8476 32.7004H76.034Z" fill="#47A4DD"/>
<path d="M113.285 37.5354H112.263C112.196 37.5354 112.131 37.5085 112.083 37.4608C112.036 37.4131 112.009 37.3484 112.009 37.2809C112.009 37.2134 112.036 37.1487 112.083 37.1009C112.131 37.0532 112.196 37.0264 112.263 37.0264H113.285C113.817 37.0154 114.324 36.7961 114.697 36.4155C115.07 36.0349 115.279 35.5233 115.279 34.9906C115.279 34.4578 115.07 33.9463 114.697 33.5657C114.324 33.1851 113.817 32.9658 113.285 32.9548H112.785C112.718 32.9548 112.653 32.928 112.605 32.8802C112.557 32.8325 112.531 32.7678 112.531 32.7003C112.539 31.765 112.175 30.8646 111.52 30.1967C110.866 29.5288 109.973 29.148 109.037 29.1376C108.353 29.1412 107.685 29.3456 107.117 29.7254C106.548 30.1051 106.103 30.6435 105.837 31.2738C105.818 31.3196 105.785 31.3585 105.743 31.3859C105.702 31.4133 105.653 31.4279 105.603 31.4279H104.79C104.057 31.4426 103.359 31.744 102.846 32.2673C102.333 32.7907 102.046 33.4943 102.046 34.2272C102.046 34.96 102.333 35.6636 102.846 36.187C103.359 36.7103 104.057 37.0117 104.79 37.0264H105.579C105.646 37.0264 105.711 37.0532 105.759 37.1009C105.806 37.1487 105.833 37.2134 105.833 37.2809C105.833 37.3484 105.806 37.4131 105.759 37.4608C105.711 37.5085 105.646 37.5354 105.579 37.5354H104.79C103.922 37.5207 103.095 37.1657 102.486 36.5469C101.878 35.9281 101.537 35.095 101.537 34.2272C101.537 33.3593 101.878 32.5262 102.486 31.9074C103.095 31.2886 103.922 30.9336 104.79 30.919H105.439C105.762 30.2365 106.271 29.6592 106.907 29.2538C107.544 28.8485 108.283 28.6318 109.037 28.6287C110.064 28.6381 111.048 29.0379 111.79 29.747C112.532 30.456 112.976 31.421 113.032 32.4458H113.285C113.952 32.4568 114.589 32.7298 115.057 33.2058C115.525 33.6819 115.788 34.3228 115.788 34.9906C115.788 35.6583 115.525 36.2993 115.057 36.7754C114.589 37.2514 113.952 37.5243 113.285 37.5354Z" fill="#47A4DD"/>
<path d="M108.995 38.6339C108.927 38.6339 108.862 38.6071 108.815 38.5594C108.767 38.5117 108.74 38.4469 108.74 38.3794V35.453C108.74 35.3855 108.767 35.3207 108.815 35.273C108.862 35.2253 108.927 35.1985 108.995 35.1985C109.062 35.1985 109.127 35.2253 109.175 35.273C109.222 35.3207 109.249 35.3855 109.249 35.453V38.3794C109.249 38.4469 109.222 38.5117 109.175 38.5594C109.127 38.6071 109.062 38.6339 108.995 38.6339Z" fill="#47A4DD"/>
<path d="M107.213 40.1608C107.146 40.1608 107.081 40.134 107.034 40.0862C106.986 40.0385 106.959 39.9738 106.959 39.9063V36.9798C106.959 36.9123 106.986 36.8476 107.034 36.7999C107.081 36.7521 107.146 36.7253 107.213 36.7253C107.281 36.7253 107.346 36.7521 107.393 36.7999C107.441 36.8476 107.468 36.9123 107.468 36.9798V39.9063C107.468 39.9738 107.441 40.0385 107.393 40.0862C107.346 40.134 107.281 40.1608 107.213 40.1608Z" fill="#47A4DD"/>
<path d="M110.776 40.9242C110.708 40.9242 110.644 40.8974 110.596 40.8497C110.548 40.8019 110.521 40.7372 110.521 40.6697V37.7432C110.521 37.6758 110.548 37.611 110.596 37.5633C110.644 37.5156 110.708 37.4888 110.776 37.4888C110.843 37.4888 110.908 37.5156 110.956 37.5633C111.004 37.611 111.03 37.6758 111.03 37.7432V40.6697C111.03 40.7372 111.004 40.8019 110.956 40.8497C110.908 40.8974 110.843 40.9242 110.776 40.9242Z" fill="#47A4DD"/>
<path d="M142.041 37.5354H141.019C140.952 37.5354 140.887 37.5085 140.839 37.4608C140.791 37.4131 140.765 37.3484 140.765 37.2809C140.765 37.2134 140.791 37.1487 140.839 37.1009C140.887 37.0532 140.952 37.0264 141.019 37.0264H142.041C142.573 37.0154 143.08 36.7961 143.453 36.4155C143.826 36.0349 144.035 35.5233 144.035 34.9906C144.035 34.4578 143.826 33.9463 143.453 33.5657C143.08 33.1851 142.573 32.9658 142.041 32.9548H141.541C141.473 32.9548 141.409 32.928 141.361 32.8802C141.313 32.8325 141.286 32.7678 141.286 32.7003C141.294 31.765 140.931 30.8646 140.276 30.1967C139.621 29.5288 138.728 29.148 137.793 29.1376C137.109 29.1412 136.441 29.3456 135.872 29.7254C135.304 30.1051 134.859 30.6435 134.593 31.2738C134.574 31.3196 134.541 31.3585 134.499 31.3859C134.458 31.4133 134.409 31.4279 134.359 31.4279H133.546C132.813 31.4426 132.115 31.744 131.602 32.2673C131.089 32.7907 130.802 33.4943 130.802 34.2272C130.802 34.96 131.089 35.6636 131.602 36.187C132.115 36.7103 132.813 37.0117 133.546 37.0264H134.335C134.402 37.0264 134.467 37.0532 134.515 37.1009C134.562 37.1487 134.589 37.2134 134.589 37.2809C134.589 37.3484 134.562 37.4131 134.515 37.4608C134.467 37.5085 134.402 37.5354 134.335 37.5354H133.546C132.678 37.5207 131.851 37.1657 131.242 36.5469C130.634 35.9281 130.293 35.095 130.293 34.2272C130.293 33.3593 130.634 32.5262 131.242 31.9074C131.851 31.2886 132.678 30.9336 133.546 30.919H134.195C134.518 30.2365 135.027 29.6592 135.663 29.2538C136.3 28.8485 137.038 28.6318 137.793 28.6287C138.819 28.6381 139.804 29.0379 140.546 29.747C141.288 30.456 141.732 31.421 141.788 32.4458H142.041C142.708 32.4568 143.345 32.7298 143.813 33.2058C144.281 33.6819 144.544 34.3228 144.544 34.9906C144.544 35.6583 144.281 36.2993 143.813 36.7754C143.345 37.2514 142.708 37.5243 142.041 37.5354Z" fill="#47A4DD"/>
<path d="M137.354 36.8991C137.67 36.8991 137.926 36.6427 137.926 36.3265C137.926 36.0103 137.67 35.7539 137.354 35.7539C137.038 35.7539 136.781 36.0103 136.781 36.3265C136.781 36.6427 137.038 36.8991 137.354 36.8991Z" fill="#47A4DD"/>
<path d="M139.262 37.6625C139.578 37.6625 139.835 37.4061 139.835 37.0899C139.835 36.7737 139.578 36.5173 139.262 36.5173C138.946 36.5173 138.689 36.7737 138.689 37.0899C138.689 37.4061 138.946 37.6625 139.262 37.6625Z" fill="#47A4DD"/>
<path d="M136.082 38.5533C136.399 38.5533 136.655 38.297 136.655 37.9808C136.655 37.6646 136.399 37.4082 136.082 37.4082C135.766 37.4082 135.51 37.6646 135.51 37.9808C135.51 38.297 135.766 38.5533 136.082 38.5533Z" fill="#47A4DD"/>
<path d="M138.117 39.8256C138.434 39.8256 138.69 39.5692 138.69 39.253C138.69 38.9368 138.434 38.6804 138.117 38.6804C137.801 38.6804 137.545 38.9368 137.545 39.253C137.545 39.5692 137.801 39.8256 138.117 39.8256Z" fill="#47A4DD"/>
<path d="M29.774 18.1952H15.0143C14.4744 18.1952 13.9566 17.9807 13.5748 17.5989C13.193 17.2171 12.9785 16.6993 12.9785 16.1594C12.9785 15.6194 13.193 15.1016 13.5748 14.7198C13.9566 14.338 14.4744 14.1235 15.0143 14.1235H29.774C30.3139 14.1235 30.8317 14.338 31.2135 14.7198C31.5953 15.1016 31.8098 15.6194 31.8098 16.1594C31.8098 16.6993 31.5953 17.2171 31.2135 17.5989C30.8317 17.9807 30.3139 18.1952 29.774 18.1952Z" fill="#9499C7"/>
<path d="M58.5298 18.1952H43.7702C43.2303 18.1952 42.7124 17.9807 42.3306 17.5989C41.9489 17.2171 41.7344 16.6993 41.7344 16.1594C41.7344 15.6194 41.9489 15.1016 42.3306 14.7198C42.7124 14.338 43.2303 14.1235 43.7702 14.1235H58.5298C59.0698 14.1235 59.5876 14.338 59.9694 14.7198C60.3512 15.1016 60.5657 15.6194 60.5657 16.1594C60.5657 16.6993 60.3512 17.2171 59.9694 17.5989C59.5876 17.9807 59.0698 18.1952 58.5298 18.1952Z" fill="#9499C7"/>
<path d="M87.2857 18.1952H72.526C71.9861 18.1952 71.4683 17.9807 71.0865 17.5989C70.7047 17.2171 70.4902 16.6993 70.4902 16.1594C70.4902 15.6194 70.7047 15.1016 71.0865 14.7198C71.4683 14.338 71.9861 14.1235 72.526 14.1235H87.2857C87.8256 14.1235 88.3435 14.338 88.7252 14.7198C89.107 15.1016 89.3215 15.6194 89.3215 16.1594C89.3215 16.6993 89.107 17.2171 88.7252 17.5989C88.3435 17.9807 87.8256 18.1952 87.2857 18.1952Z" fill="#9499C7"/>
<path d="M116.042 18.1952H101.282C100.742 18.1952 100.224 17.9807 99.8424 17.5989C99.4606 17.2171 99.2461 16.6993 99.2461 16.1594C99.2461 15.6194 99.4606 15.1016 99.8424 14.7198C100.224 14.338 100.742 14.1235 101.282 14.1235H116.042C116.581 14.1235 117.099 14.338 117.481 14.7198C117.863 15.1016 118.077 15.6194 118.077 16.1594C118.077 16.6993 117.863 17.2171 117.481 17.5989C117.099 17.9807 116.581 18.1952 116.042 18.1952Z" fill="#9499C7"/>
<path d="M144.797 18.1952H130.038C129.498 18.1952 128.98 17.9807 128.598 17.5989C128.216 17.2171 128.002 16.6993 128.002 16.1594C128.002 15.6194 128.216 15.1016 128.598 14.7198C128.98 14.338 129.498 14.1235 130.038 14.1235H144.797C145.337 14.1235 145.855 14.338 146.237 14.7198C146.619 15.1016 146.833 15.6194 146.833 16.1594C146.833 16.6993 146.619 17.2171 146.237 17.5989C145.855 17.9807 145.337 18.1952 144.797 18.1952Z" fill="#9499C7"/>
<path d="M36.1353 42.116C36.0678 42.116 36.0031 42.0892 35.9554 42.0415C35.9077 41.9938 35.8809 41.9291 35.8809 41.8616V22.5213C35.8809 22.4538 35.9077 22.3891 35.9554 22.3414C36.0031 22.2937 36.0678 22.2668 36.1353 22.2668C36.2028 22.2668 36.2676 22.2937 36.3153 22.3414C36.363 22.3891 36.3898 22.4538 36.3898 22.5213V41.8616C36.3898 41.9291 36.363 41.9938 36.3153 42.0415C36.2676 42.0892 36.2028 42.116 36.1353 42.116Z" fill="#EAECEE"/>
<path d="M64.8912 41.8614C64.8237 41.8614 64.759 41.8346 64.7112 41.7869C64.6635 41.7391 64.6367 41.6744 64.6367 41.6069V22.2667C64.6367 22.1992 64.6635 22.1345 64.7112 22.0867C64.759 22.039 64.8237 22.0122 64.8912 22.0122C64.9587 22.0122 65.0234 22.039 65.0711 22.0867C65.1189 22.1345 65.1457 22.1992 65.1457 22.2667V41.6069C65.1457 41.6744 65.1189 41.7391 65.0711 41.7869C65.0234 41.8346 64.9587 41.8614 64.8912 41.8614Z" fill="#EAECEE"/>
<path d="M95.1744 41.8614C95.1069 41.8614 95.0422 41.8346 94.9945 41.7869C94.9467 41.7391 94.9199 41.6744 94.9199 41.6069V22.2667C94.9199 22.1992 94.9467 22.1345 94.9945 22.0867C95.0422 22.039 95.1069 22.0122 95.1744 22.0122C95.2419 22.0122 95.3066 22.039 95.3543 22.0867C95.4021 22.1345 95.4289 22.1992 95.4289 22.2667V41.6069C95.4289 41.6744 95.4021 41.7391 95.3543 41.7869C95.3066 41.8346 95.2419 41.8614 95.1744 41.8614Z" fill="#EAECEE"/>
<path d="M123.93 41.8614C123.863 41.8614 123.798 41.8346 123.75 41.7869C123.703 41.7391 123.676 41.6744 123.676 41.6069V22.2667C123.676 22.1992 123.703 22.1345 123.75 22.0867C123.798 22.039 123.863 22.0122 123.93 22.0122C123.998 22.0122 124.062 22.039 124.11 22.0867C124.158 22.1345 124.185 22.1992 124.185 22.2667V41.6069C124.185 41.6744 124.158 41.7391 124.11 41.7869C124.062 41.8346 123.998 41.8614 123.93 41.8614Z" fill="#EAECEE"/>
<path d="M229.745 106.626H132.79C132.722 106.626 132.657 106.599 132.61 106.551C132.562 106.504 132.535 106.439 132.535 106.371C132.535 106.304 132.562 106.239 132.61 106.191C132.657 106.144 132.722 106.117 132.79 106.117H229.745C229.813 106.117 229.878 106.144 229.925 106.191C229.973 106.239 230 106.304 230 106.371C230 106.439 229.973 106.504 229.925 106.551C229.878 106.599 229.813 106.626 229.745 106.626Z" fill="#63A650"/>
</g>
<defs>
<clipPath id="clip0_340_175866">
<rect width="230" height="106.626" fill="white"/>
</clipPath>
</defs>
</svg>
