<svg width="12" height="17" viewBox="0 0 12 17" fill="none" xmlns="http://www.w3.org/2000/svg">
<path fill-rule="evenodd" clip-rule="evenodd" d="M10.9492 3.86328H11.9492V4.86328V12.1966V15.3633C11.9492 15.9156 11.5015 16.3633 10.9492 16.3633H2.94922C2.39693 16.3633 1.94922 15.9156 1.94922 15.3633V12.1966V4.86328V3.86328H2.94922H10.9492Z" fill="#E8BEBE"/>
<path d="M1.09628 3.23562V14.0867C1.09628 14.4392 1.38598 14.725 1.74334 14.725H10.1551C10.5125 14.725 10.8022 14.4392 10.8022 14.0867V3.23562H1.09628ZM0.449219 2.59732H11.4492V14.0867C11.4492 14.7917 10.8698 15.3633 10.1551 15.3633H1.74334C1.02861 15.3633 0.449219 14.7917 0.449219 14.0867V8.342V2.59732ZM4.6551 1.00158H0.772748C0.594068 1.00158 0.449219 1.14447 0.449219 1.32073C0.449219 1.49699 0.594068 1.63988 0.772748 1.63988H11.1257C11.3044 1.63988 11.4492 1.49699 11.4492 1.32073C11.4492 1.14447 11.3044 1.00158 11.1257 1.00158H7.24334C7.24334 0.649057 6.95364 0.363281 6.59628 0.363281H5.30216C4.9448 0.363281 4.6551 0.649057 4.6551 1.00158ZM3.03745 5.78881C3.21613 5.78881 3.36098 5.9317 3.36098 6.10796V11.8526C3.36098 12.0289 3.21613 12.1718 3.03745 12.1718C2.85877 12.1718 2.71392 12.0289 2.71392 11.8526V6.10796C2.71392 5.9317 2.85877 5.78881 3.03745 5.78881ZM5.94922 5.78881C6.1279 5.78881 6.27275 5.9317 6.27275 6.10796V11.8526C6.27275 12.0289 6.1279 12.1718 5.94922 12.1718C5.77054 12.1718 5.62569 12.0289 5.62569 11.8526V6.10796C5.62569 5.9317 5.77054 5.78881 5.94922 5.78881ZM8.86098 5.78881C9.03966 5.78881 9.18451 5.9317 9.18451 6.10796V11.8526C9.18451 12.0289 9.03966 12.1718 8.86098 12.1718C8.6823 12.1718 8.53745 12.0289 8.53745 11.8526V6.10796C8.53745 5.9317 8.6823 5.78881 8.86098 5.78881Z" fill="#565656"/>
</svg>
