<svg width="17" height="14" viewBox="0 0 17 14" fill="none" xmlns="http://www.w3.org/2000/svg">
<path d="M3.64645 13.3536C3.84171 13.5488 4.15829 13.5488 4.35355 13.3536L7.53553 10.1716C7.7308 9.97631 7.7308 9.65973 7.53553 9.46447C7.34027 9.2692 7.02369 9.2692 6.82843 9.46447L4 12.2929L1.17157 9.46447C0.976311 9.2692 0.659729 9.2692 0.464467 9.46447C0.269205 9.65973 0.269205 9.97631 0.464467 10.1716L3.64645 13.3536ZM4.5 1C4.5 0.723858 4.27614 0.5 4 0.5C3.72386 0.5 3.5 0.723858 3.5 1L4.5 1ZM4.5 13L4.5 1L3.5 1L3.5 13L4.5 13Z" fill="black"/>
<path d="M9 2H16" stroke="black" stroke-linecap="round"/>
<path d="M9 4H15" stroke="black" stroke-linecap="round"/>
<path d="M9 6H12" stroke="black" stroke-linecap="round"/>
</svg>
