<svg width="17" height="16" viewBox="0 0 17 16" fill="none" xmlns="http://www.w3.org/2000/svg">
<path d="M10.4722 1.58076C10.7476 1.60043 10.9869 1.3931 11.0065 1.11765C11.0262 0.842215 10.8189 0.602976 10.5434 0.583302L10.4722 1.58076ZM3.65419 9.39457C3.84945 9.58983 4.16604 9.58983 4.3613 9.39457L7.54328 6.21259C7.73854 6.01733 7.73854 5.70074 7.54328 5.50548C7.34802 5.31022 7.03143 5.31022 6.83617 5.50548L4.00774 8.33391L1.17932 5.50548C0.984055 5.31022 0.667473 5.31022 0.47221 5.50548C0.276948 5.70074 0.276948 6.01733 0.47221 6.21259L3.65419 9.39457ZM10.5434 0.583302C8.78643 0.457802 7.44749 0.462583 6.439 0.668547C5.40915 0.878874 4.67611 1.30992 4.20856 2.05938C3.76265 2.77415 3.60306 3.71284 3.5398 4.8301C3.47623 5.95289 3.50774 7.35987 3.50774 9.04102L4.50774 9.04102C4.50774 7.32216 4.47677 5.97177 4.53821 4.88663C4.59996 3.79594 4.75289 3.07615 5.057 2.58867C5.33947 2.13588 5.79394 1.82093 6.6391 1.64832C7.50563 1.47135 8.72919 1.45626 10.4722 1.58076L10.5434 0.583302Z" fill="black"/>
<path d="M6.04344 14.0423C5.768 14.0226 5.52876 14.23 5.50908 14.5054C5.48941 14.7808 5.69675 15.0201 5.97219 15.0397L6.04344 14.0423ZM12.8614 6.22848C12.6662 6.03322 12.3496 6.03322 12.1543 6.22848L8.97235 9.41046C8.77708 9.60572 8.77708 9.9223 8.97235 10.1176C9.16761 10.3128 9.48419 10.3128 9.67945 10.1176L12.5079 7.28914L15.3363 10.1176C15.5316 10.3128 15.8482 10.3128 16.0434 10.1176C16.2387 9.9223 16.2387 9.60572 16.0434 9.41046L12.8614 6.22848ZM5.97219 15.0397C7.72919 15.1652 9.06814 15.1605 10.0766 14.9545C11.1065 14.7442 11.8395 14.3131 12.3071 13.5637C12.753 12.8489 12.9126 11.9102 12.9758 10.7929C13.0394 9.67015 13.0079 8.26318 13.0079 6.58203H12.0079C12.0079 8.30089 12.0389 9.65128 11.9774 10.7364C11.9157 11.8271 11.7627 12.5469 11.4586 13.0344C11.1762 13.4872 10.7217 13.8021 9.87652 13.9747C9.01 14.1517 7.78643 14.1668 6.04344 14.0423L5.97219 15.0397Z" fill="black"/>
</svg>
