<svg width="22" height="24" viewBox="0 0 22 24" fill="none" xmlns="http://www.w3.org/2000/svg">
<line x1="2.7793" y1="5.83813" x2="10.7793" y2="5.83813" stroke="#3A3A3A"/>
<line x1="2.7793" y1="8.83813" x2="10.7793" y2="8.83813" stroke="#3A3A3A"/>
<line x1="2.7793" y1="11.8381" x2="8.33812" y2="11.8381" stroke="#3A3A3A"/>
<rect x="2.7793" width="8.33823" height="2.77941" fill="#3A3A3A"/>
<path fill-rule="evenodd" clip-rule="evenodd" d="M1 1.69482H12.8971V7.99081C12.8995 7.99081 12.9019 7.99081 12.9043 7.99081C13.2414 7.99081 13.5728 8.01601 13.8971 8.06471V1.69482C13.8971 1.14254 13.4493 0.694824 12.8971 0.694824H1C0.447715 0.694824 0 1.14254 0 1.69482V17.4136C0 17.9659 0.447715 18.4136 1 18.4136H6.62443C6.47915 18.0925 6.35555 17.7584 6.25562 17.4136H1L1 1.69482Z" fill="#3A3A3A"/>
<circle cx="14.9485" cy="16.9485" r="6.44853" fill="#EE6352" stroke="#3A3A3A"/>
<path d="M12 16.6L14.25 19L18 15" stroke="white"/>
</svg>
