<svg width="757" height="621" viewBox="0 0 757 621" fill="none" xmlns="http://www.w3.org/2000/svg">
<ellipse rx="1.8" ry="1.8" transform="matrix(-1 0 0 1 226.8 81.8)" fill="#F9F9F9"/>
<ellipse rx="1.8" ry="1.8" transform="matrix(-1 0 0 1 711.8 219.8)" fill="#F9F9F9"/>
<path d="M22.8716 174.012L6.51333 163.523" stroke="#F9F9F9" stroke-width="5" stroke-linecap="round"/>
<path d="M669.66 506.156L657.498 491.001" stroke="#F9F9F9" stroke-width="5" stroke-linecap="round"/>
<path d="M352.847 597.711L354.326 617.087" stroke="#F9F9F9" stroke-width="5" stroke-linecap="round"/>
<path d="M123.559 545.949L113.001 562.263" stroke="#F9F9F9" stroke-width="5" stroke-linecap="round"/>
<path d="M723.195 342L742.235 345.887" stroke="#F9F9F9" stroke-width="5" stroke-linecap="round"/>
<path d="M602.42 283.922L591.001 284.451" stroke="#F9F9F9" stroke-width="5" stroke-linecap="round"/>
<path d="M565.418 407.246L558.816 398.999" stroke="#F9F9F9" stroke-width="5" stroke-linecap="round"/>
<path d="M701.266 158.816L693 165.396" stroke="#F9F9F9" stroke-width="5" stroke-linecap="round"/>
<path d="M509.529 124.785L502.65 137.186" stroke="#F9F9F9" stroke-width="5" stroke-linecap="round"/>
<path d="M165.855 4L172.018 12.581" stroke="#F9F9F9" stroke-width="5" stroke-linecap="round"/>
<path d="M401.053 84L404.256 94.0672" stroke="#F9F9F9" stroke-width="5" stroke-linecap="round"/>
<path d="M12.4487 395.258L22.8825 393.601" stroke="#F9F9F9" stroke-width="5" stroke-linecap="round"/>
<path d="M483 521.56L487.5 533.499" stroke="#F9F9F9" stroke-width="5" stroke-linecap="round"/>
<path d="M593.975 130.897C598.529 139.614 603.567 156.514 587.287 154.382C566.937 151.716 565.822 157.308 568.064 164.014" stroke="#F9F9F9" stroke-width="5"/>
<path d="M228.049 121.93C233.878 121.704 244.736 124.344 241.534 136.718C238.333 149.091 246.767 152.893 251.384 153.247" stroke="#F9F9F9" stroke-width="5"/>
<path d="M101.673 386.007C100.245 391.663 94.6468 401.334 83.6802 394.769C72.7137 388.204 66.6855 395.222 65.0422 399.552" stroke="#F9F9F9" stroke-width="5"/>
<path d="M599.26 585.519C593.539 586.659 582.402 585.758 583.618 573.035C584.835 560.312 575.908 557.883 571.293 558.259" stroke="#F9F9F9" stroke-width="5"/>
<circle cx="137" cy="310" r="7" fill="#F9F9F9"/>
<circle cx="115" cy="130" r="7" fill="#F9F9F9"/>
<circle cx="401" cy="556" r="7" fill="#F9F9F9"/>
<circle cx="687" cy="392" r="7" fill="#F9F9F9"/>
<circle cx="327" cy="61" r="7" fill="#F9F9F9"/>
<circle r="5" transform="matrix(-1 0 0 1 645 217)" fill="#FFE500"/>
<circle r="5" transform="matrix(-1 0 0 1 498 217)" fill="#FFE500"/>
<circle r="5" transform="matrix(-1 0 0 1 527 49)" fill="#FFE500"/>
<circle r="5" transform="matrix(-1 0 0 1 617 319)" fill="#FFE500"/>
<circle r="5" transform="matrix(-1 0 0 1 604 504)" fill="#FFE500"/>
<circle r="5" transform="matrix(-1 0 0 1 209 214.051)" fill="#FFE500"/>
<circle r="5" transform="matrix(-1 0 0 1 73 307.957)" fill="#FFE500"/>
<circle r="5" transform="matrix(-1 0 0 1 267 593)" fill="#FFE500"/>
<circle r="5" transform="matrix(-1 0 0 1 190 457)" fill="#FFE500"/>
<circle r="5" transform="matrix(-1 0 0 1 194 111.051)" fill="#FFE500"/>
<circle r="5" transform="matrix(-1 0 0 1 380 112.051)" fill="#FFE500"/>
<circle r="3" transform="matrix(-1 0 0 1 210 551)" fill="#F9F9F9"/>
<circle r="3" transform="matrix(-1 0 0 1 56 453)" fill="#F9F9F9"/>
<circle r="3" transform="matrix(-1 0 0 1 363 10)" fill="#F9F9F9"/>
<circle r="3" transform="matrix(-1 0 0 1 3 290)" fill="#F9F9F9"/>
<circle r="3" transform="matrix(-1 0 0 1 687 310)" fill="#F9F9F9"/>
<circle r="3" transform="matrix(-1 0 0 1 537 578)" fill="#F9F9F9"/>
<circle r="3" transform="matrix(-1 0 0 1 538 143)" fill="#F9F9F9"/>
<circle r="3" transform="matrix(-1 0 0 1 640 163)" fill="#F9F9F9"/>
<circle r="3" transform="matrix(-1 0 0 1 617 432)" fill="#F9F9F9"/>
<circle r="3" transform="matrix(-1 0 0 1 509 85)" fill="#F9F9F9"/>
<circle r="3" transform="matrix(-1 0 0 1 171 162)" fill="#F9F9F9"/>
<circle r="3" transform="matrix(-1 0 0 1 642 88)" fill="#F9F9F9"/>
<circle r="3" transform="matrix(-1 0 0 1 141 60)" fill="#F9F9F9"/>
<circle r="3" transform="matrix(-1 0 0 1 754 279)" fill="#F9F9F9"/>
<circle r="3" transform="matrix(-1 0 0 1 248 28)" fill="#F9F9F9"/>
<circle r="3" transform="matrix(-1 0 0 1 645 359)" fill="#F9F9F9"/>
<circle r="3" transform="matrix(-1 0 0 1 640 567)" fill="#F9F9F9"/>
<circle r="3" transform="matrix(-1 0 0 1 462 46)" fill="#F9F9F9"/>
<circle r="3" transform="matrix(-1 0 0 1 242 468)" fill="#F9F9F9"/>
<circle r="3" transform="matrix(-1 0 0 1 544 496)" fill="#F9F9F9"/>
<circle r="3" transform="matrix(-1 0 0 1 45 217)" fill="#F9F9F9"/>
<path d="M140.261 506.674L153.73 503.419L149.814 516.711L140.261 506.674Z" fill="#54A2DB"/>
<path d="M325.834 573.148L329.309 559.734L339.188 569.451L325.834 573.148Z" fill="#54A2DB"/>
<path d="M696.261 442.674L709.73 439.419L705.814 452.711L696.261 442.674Z" fill="#54A2DB"/>
<path d="M77.2609 346.674L90.7298 343.419L86.8137 356.711L77.2609 346.674Z" fill="#54A2DB"/>
<path d="M151.894 246.809L165.25 250.499L155.377 260.22L151.894 246.809Z" fill="#54A2DB"/>
<path d="M265.004 90.9902L278.86 90.9783L271.942 102.984L265.004 90.9902Z" fill="#54A2DB"/>
<path d="M413.053 47.9902L426.909 47.9783L419.991 59.9843L413.053 47.9902Z" fill="#54A2DB"/>
<path d="M471.053 167.99L484.909 167.978L477.991 179.984L471.053 167.99Z" fill="#54A2DB"/>
<path d="M557.219 93.3466L560.624 106.778L547.29 103.011L557.219 93.3466Z" fill="#54A2DB"/>
<path d="M556.339 245.435L562.476 233.012L570.166 244.539L556.339 245.435Z" fill="#54A2DB"/>
<path d="M560.387 342.653L569.267 332.016L574.039 345.025L560.387 342.653Z" fill="#54A2DB"/>
<path d="M129.937 177.568L140.858 186.096L128.012 191.29L129.937 177.568Z" fill="#54A2DB"/>
<rect x="585" y="434.156" width="9" height="9" fill="#E98686"/>
<rect x="652" y="255" width="9" height="9" fill="#E98686"/>
<rect x="551" y="288" width="9" height="9" fill="#E98686"/>
<rect x="444" y="171" width="9" height="9" fill="#E98686"/>
<rect x="451" y="119" width="9" height="9" fill="#E98686"/>
<rect x="210" y="152.051" width="9" height="9" fill="#E98686"/>
<rect x="320" y="123" width="9" height="9" fill="#E98686"/>
<rect x="146" y="392" width="9" height="9" fill="#E98686"/>
<rect x="59" y="254.957" width="9" height="9" fill="#E98686"/>
<rect x="448" y="603" width="9" height="9" fill="#E98686"/>
<rect x="119" y="443" width="9" height="9" fill="#E98686"/>
<rect x="525" y="531" width="9" height="9" fill="#E98686"/>
<circle r="5" transform="matrix(-1 0 0 1 527 457)" fill="#FFE500"/>
<path d="M382.244 166.698C382.274 166.252 382.107 165.814 381.791 165.5C381.475 165.184 381.026 165.024 380.591 165.05C379.796 165.099 364.33 166.259 352.556 178.55C349.536 177.896 340.278 176.825 335.446 186.675C335.236 187.102 335.234 187.6 335.442 188.031C335.648 188.46 336.038 188.77 336.501 188.874L345.885 190.969L356.346 201.43L358.441 210.81C358.545 211.273 358.855 211.665 359.288 211.869C359.498 211.973 359.728 212.025 359.958 212.025C360.194 212.025 360.428 211.973 360.642 211.865C370.533 207.011 369.411 197.695 368.761 194.716C381.033 182.946 382.192 167.494 382.244 166.698ZM376.799 176.353L370.936 170.494C374.284 169.285 377.137 168.681 378.896 168.393C378.61 170.154 378.004 173.008 376.799 176.353ZM350.16 181.287C348.611 183.213 347.163 185.373 345.857 187.782L339.231 186.302C342.503 181.399 347.298 181.001 350.16 181.287ZM367.81 171.76L375.529 179.477C372.613 186.023 367.391 193.619 358.025 198.72L348.572 189.264C353.668 179.898 361.268 174.676 367.81 171.76ZM361.015 208.084L359.526 201.424C361.942 200.113 364.107 198.659 366.035 197.103C366.345 199.952 365.981 204.78 361.015 208.084Z" fill="#F9F9F9"/>
<path d="M344.943 194.504C342.902 194.504 340.982 195.299 339.539 196.742C337.188 199.095 332.003 208.111 335.49 211.595C336.27 212.377 337.37 212.773 338.759 212.773C342.581 212.773 348.262 209.625 350.344 207.543C351.789 206.104 352.585 204.185 352.585 202.141C352.585 200.105 351.789 198.185 350.344 196.742C348.901 195.299 346.984 194.504 344.943 194.504ZM348.149 205.35C346.442 207.055 341.558 209.671 338.759 209.671C338.248 209.671 337.856 209.571 337.684 209.4C336.428 208.145 339.299 201.374 341.736 198.937C342.592 198.081 343.732 197.613 344.943 197.613C346.154 197.613 347.291 198.083 348.149 198.937C349.005 199.795 349.475 200.935 349.475 202.141C349.475 203.355 349.005 204.492 348.149 205.35Z" fill="#F9F9F9"/>
<path d="M366.061 190.333C367.276 189.117 367.944 187.501 367.944 185.785C367.942 184.067 367.274 182.448 366.057 181.233C364.841 180.017 363.227 179.348 361.507 179.348C359.791 179.348 358.174 180.017 356.959 181.233C355.743 182.448 355.074 184.064 355.074 185.785C355.072 187.501 355.743 189.117 356.957 190.333C358.174 191.548 359.788 192.22 361.507 192.22C363.227 192.22 364.843 191.548 366.061 190.333ZM358.181 185.785C358.181 184.894 358.525 184.058 359.156 183.43C359.788 182.799 360.62 182.452 361.509 182.452C362.399 182.452 363.236 182.801 363.864 183.43C364.492 184.058 364.841 184.894 364.841 185.785C364.841 186.673 364.492 187.507 363.864 188.133C362.605 189.392 360.415 189.392 359.156 188.136C358.525 187.509 358.181 186.673 358.181 185.785Z" fill="#F9F9F9"/>
</svg>
