<svg width="20" height="20" viewBox="0 0 20 20" fill="none" xmlns="http://www.w3.org/2000/svg">
<path d="M5.60289 9.3355C5.40227 9.13675 5.10414 9.078 4.84539 9.18675C4.59352 9.2905 4.41602 9.553 4.41602 9.82737V14.8043C4.41539 14.9911 4.48727 15.1655 4.61977 15.2961C4.75102 15.428 4.92539 15.4993 5.11102 15.4993L10.0873 15.4999C10.2741 15.4999 10.4485 15.4274 10.5798 15.2961C10.6448 15.2311 10.6948 15.1555 10.7298 15.0718C10.8379 14.8105 10.7785 14.5118 10.5791 14.3124L5.60289 9.3355ZM10.1466 14.863C10.1316 14.8786 10.1091 14.8874 10.0866 14.8874L5.11102 14.8868C5.07164 14.8868 5.02727 14.8436 5.02727 14.8043L5.02789 9.828C5.02789 9.80675 5.03727 9.7855 5.05227 9.76987L5.07977 9.75175C5.11102 9.73862 5.14602 9.7455 5.17039 9.76862L10.146 14.7455C10.1698 14.7693 10.1773 14.8049 10.1466 14.863Z" fill="black"/>
<path d="M3.26668 3.70134C3.0648 3.50322 2.76793 3.44572 2.51293 3.55384C2.25668 3.65822 2.08355 3.91572 2.08105 4.19634V12.5757C2.08105 12.5763 2.08105 12.577 2.08105 12.5776C2.08105 12.5782 2.08105 12.5788 2.08105 12.5795L2.08168 17.142C2.08168 17.3282 2.15355 17.502 2.28418 17.6332C2.41668 17.7657 2.59105 17.8382 2.77793 17.8376H15.7236C15.9086 17.8376 16.0842 17.7651 16.2154 17.6332C16.2804 17.5682 16.3311 17.4926 16.3661 17.4076C16.4729 17.1482 16.4142 16.852 16.2154 16.6501L3.26668 3.70134ZM15.7236 17.2257H2.77668C2.7373 17.2257 2.69355 17.1807 2.69355 17.1413V15.5251H3.3698C3.45418 15.5251 3.53043 15.4907 3.58668 15.4345C3.6423 15.3795 3.67668 15.3026 3.67668 15.2182C3.67668 15.0488 3.53918 14.912 3.37043 14.912H2.69418L2.69355 12.8832H3.3698C3.4548 12.8832 3.53105 12.8488 3.58668 12.7938C3.6423 12.7382 3.67668 12.662 3.67668 12.5763C3.67668 12.4076 3.53918 12.2707 3.37043 12.2707H2.69355V10.2413H3.37105C3.45543 10.2413 3.53168 10.207 3.5873 10.152C3.64355 10.0957 3.6773 10.0195 3.6773 9.93447C3.6773 9.76509 3.54043 9.62884 3.37168 9.62884L2.69418 9.62822V7.59947L3.37043 7.60009C3.45543 7.60009 3.53168 7.56634 3.5873 7.51009C3.64293 7.45509 3.6773 7.37822 3.6773 7.29384C3.67793 7.12447 3.5398 6.98759 3.37105 6.98759L2.6948 6.98697V4.19947C2.6948 4.18134 2.70043 4.16384 2.7223 4.14197C2.7298 4.13447 2.73855 4.12759 2.7498 4.11884C2.77668 4.10634 2.81293 4.11384 2.83543 4.13634L15.7811 17.0813C15.8054 17.1057 15.8129 17.1438 15.8004 17.1726C15.7879 17.2045 15.7561 17.2245 15.7236 17.2257Z" fill="black"/>
<path d="M17.8297 13.1845L17.4197 12.7751L17.0578 10.5551C17.0472 10.492 17.0178 10.4338 16.9722 10.3876L9.04781 2.46195C8.64844 2.06508 8.00094 2.06445 7.60344 2.46195L6.67469 3.39008C6.27719 3.7882 6.27781 4.43633 6.67594 4.83508L14.6009 12.7595C14.6466 12.8045 14.7053 12.8345 14.7684 12.8457L16.9872 13.2076L17.3978 13.6176C17.5172 13.737 17.7109 13.737 17.8303 13.6176C17.9497 13.4982 17.9497 13.3038 17.8297 13.1845ZM16.3997 10.682C16.3822 10.722 16.3603 10.7601 16.3297 10.7913C16.3291 10.792 16.3284 10.792 16.3284 10.792C16.1716 10.9495 16.0503 10.9826 15.9159 11.0188C15.8547 11.0345 15.7934 11.052 15.7278 11.0813L8.94656 4.30133L9.48281 3.76508L16.3997 10.682ZM7.10906 4.40195C6.94906 4.24258 6.94844 3.9832 7.10844 3.82383L8.03656 2.89508C8.19469 2.73758 8.45531 2.73758 8.61469 2.89633L9.05031 3.33133L8.29719 4.08383L7.54469 4.83695L7.10906 4.40195ZM15.2278 11.7057C15.1934 11.8351 15.1622 11.957 15.0028 12.1176C14.9709 12.1488 14.9347 12.1701 14.8947 12.1876L7.97844 5.2707L8.51406 4.73508L15.2934 11.5132C15.2634 11.5795 15.2453 11.6426 15.2278 11.7057ZM15.5966 12.3601C15.7403 12.1601 15.7884 11.9851 15.8203 11.8601C15.8472 11.762 15.8497 11.7495 15.9059 11.6938C15.9603 11.6395 15.9703 11.637 16.0816 11.6076C16.2053 11.5738 16.3778 11.5257 16.5722 11.3857L16.7622 12.5495L15.5966 12.3601Z" fill="black"/>
</svg>
