<svg width="10" height="15" viewBox="0 0 10 15" fill="none" xmlns="http://www.w3.org/2000/svg">
<path fill-rule="evenodd" clip-rule="evenodd" d="M5.18626 10.1719C5.22666 10.1057 5.24994 10.0278 5.24994 9.94453V8.34896C5.24994 8.10734 5.05406 7.91147 4.81244 7.91147C4.57082 7.91147 4.37495 8.10734 4.37495 8.34896V9.94453C4.37495 10.0278 4.39823 10.1057 4.43864 10.172C4.55985 10.1942 4.68476 10.2058 4.81238 10.2058C4.94005 10.2058 5.06501 10.1942 5.18626 10.1719ZM6.87484 3.56246V5.87615C6.24976 5.59668 5.5505 5.44031 4.81244 5.44031C4.07433 5.44031 3.37504 5.5967 2.74992 5.8762V3.56246C2.74992 2.4234 3.67331 1.5 4.81238 1.5C5.95145 1.5 6.87484 2.4234 6.87484 3.56246ZM7.87484 6.47556C8.94368 7.30632 9.62488 8.56312 9.62488 9.96966C9.62488 12.4712 7.47028 14.499 4.81244 14.499C2.1546 14.499 0 12.4712 0 9.96966C0 8.56317 0.681151 7.30641 1.74992 6.47565V3.56246C1.74992 1.87111 3.12103 0.5 4.81238 0.5C6.50373 0.5 7.87484 1.87111 7.87484 3.56246V6.47556Z" fill="white"/>
</svg>
