<svg width="18" height="18" viewBox="0 0 18 18" fill="none" xmlns="http://www.w3.org/2000/svg">
<path d="M17.5108 0.603456C17.5219 0.440373 17.4609 0.280456 17.3454 0.165665C17.2298 0.0500814 17.0659 -0.00850202 16.9068 0.000997982C16.6162 0.0192063 10.9653 0.442748 6.6634 4.93387C5.55982 4.69479 2.17702 4.30371 0.411608 7.90262C0.334816 8.05858 0.334024 8.24067 0.410024 8.39821C0.485233 8.55496 0.627733 8.66817 0.797149 8.70617L4.22586 9.47171L8.04802 13.2939L8.81357 16.721C8.85157 16.8904 8.96477 17.0337 9.12311 17.1081C9.1999 17.1461 9.28382 17.1651 9.36773 17.1651C9.45402 17.1651 9.53952 17.1461 9.6179 17.1065C13.2319 15.3332 12.8218 11.929 12.5843 10.8405C17.0683 6.54016 17.4918 0.893998 17.5108 0.603456ZM15.5214 4.13112L13.3791 1.99046C14.6022 1.54871 15.6449 1.32783 16.2877 1.22254C16.1832 1.86616 15.9615 2.90879 15.5214 4.13112ZM5.78782 5.93375C5.22177 6.63754 4.69294 7.42683 4.21557 8.30717L1.79465 7.76646C2.99007 5.97492 4.74202 5.82925 5.78782 5.93375ZM12.2367 2.45279L15.0574 5.27271C13.9919 7.66433 12.0839 10.4399 8.66157 12.3035L5.20752 8.84866C7.06952 5.42629 9.84669 3.51837 12.2367 2.45279ZM9.75407 15.7251L9.21019 13.2915C10.0929 12.8125 10.8838 12.2813 11.5884 11.7129C11.7016 12.754 11.5686 14.5178 9.75407 15.7251Z" fill="black"/>
<path d="M3.88182 10.7656C3.13607 10.7656 2.43465 11.0562 1.9074 11.5834C1.04844 12.4432 -0.846014 15.7373 0.427777 17.0103C0.712777 17.2961 1.11494 17.441 1.6224 17.441C3.0189 17.441 5.09465 16.2907 5.85544 15.5299C6.38349 15.0042 6.67403 14.3028 6.67403 13.5562C6.67403 12.8121 6.38349 12.1107 5.85544 11.5834C5.32819 11.0562 4.62757 10.7656 3.88182 10.7656ZM5.05349 14.7287C4.42965 15.3517 2.64524 16.3073 1.6224 16.3073C1.43557 16.3073 1.29228 16.2709 1.22974 16.2083C0.770569 15.75 1.81953 13.276 2.71015 12.3854C3.02286 12.0727 3.43928 11.9017 3.88182 11.9017C4.32436 11.9017 4.73999 12.0735 5.05349 12.3854C5.36619 12.6989 5.53799 13.1153 5.53799 13.5562C5.53799 13.9996 5.36619 14.4152 5.05349 14.7287Z" fill="black"/>
<path d="M11.5985 9.24031C12.0427 8.79619 12.2865 8.2056 12.2865 7.5786C12.2857 6.95081 12.0419 6.35944 11.5969 5.91531C11.1528 5.47119 10.563 5.22656 9.93444 5.22656C9.30744 5.22656 8.71686 5.47119 8.27274 5.91531C7.82861 6.35944 7.58399 6.95002 7.58399 7.5786C7.58319 8.2056 7.82861 8.79619 8.27194 9.24031C8.71686 9.68444 9.30665 9.92985 9.93444 9.92985C10.563 9.92985 11.1536 9.68444 11.5985 9.24031ZM8.71924 7.5786C8.71924 7.25323 8.84511 6.94765 9.07549 6.71806C9.30665 6.48769 9.61065 6.36102 9.93524 6.36102C10.2606 6.36102 10.5662 6.48848 10.7958 6.71806C11.0254 6.94765 11.1528 7.25323 11.1528 7.5786C11.1528 7.90319 11.0254 8.20798 10.7958 8.43677C10.3358 8.89673 9.53544 8.89673 9.07549 8.43756C8.84511 8.20877 8.71924 7.90319 8.71924 7.5786Z" fill="black"/>
</svg>
