<svg width="20" height="20" viewBox="0 0 20 20" fill="none" xmlns="http://www.w3.org/2000/svg">
<path d="M1.65434 9.15058L3.23293 11.3656C3.5541 11.8163 4.04765 12.1137 4.59615 12.1872L14.1896 13.4721C15.2103 13.6088 16.1679 12.9481 16.4025 11.9454L17.1133 8.90753C17.3718 7.80253 16.6601 6.70406 15.546 6.48837L6.55146 4.74712C6.15032 4.66946 5.73502 4.71653 5.36143 4.88198L2.47315 6.16118C1.31555 6.67387 0.919567 8.11956 1.65434 9.15058Z" stroke="black"/>
<circle cx="6.18862" cy="8.80439" r="0.5" transform="rotate(-20.5367 6.18862 8.80439)" fill="none" stroke="black"/>
<path d="M0.748734 9.14285L1.59979 12.2492C1.74435 12.7769 2.09878 13.2223 2.5805 13.4817L11.4432 18.254C12.3801 18.7584 13.5479 18.441 14.1005 17.5317L15.9528 14.4839C16.5235 13.5449 16.2298 12.3213 15.295 11.7437L7.0439 6.64542C6.68129 6.42136 6.25657 6.31901 5.8317 6.35331L2.51675 6.62087C1.2673 6.72172 0.417518 7.93389 0.748734 9.14285Z" fill="#FFE500" stroke="black"/>
<circle cx="5.17899" cy="10.3246" r="0.5" transform="rotate(-1.08936 5.17899 10.3246)" fill="none" stroke="black"/>
</svg>
