<svg width="16" height="16" viewBox="0 0 16 16" fill="none" xmlns="http://www.w3.org/2000/svg">
<circle cx="7.98019" cy="8.02176" r="7.4548" transform="rotate(-90 7.98019 8.02176)" stroke="#3A3A3A"/>
<mask id="path-2-inside-1_846_7080" fill="white">
<path d="M11.2378 12.7625C12.2644 12.0647 13.038 11.0538 13.4434 9.88045C13.8487 8.70713 13.8641 7.43425 13.4872 6.2515C13.1103 5.06874 12.3612 4.03944 11.3518 3.31699C10.3423 2.59454 9.1264 2.21763 7.88529 2.24242L8.0003 8L11.2378 12.7625Z"/>
</mask>
<path d="M11.2378 12.7625C12.2644 12.0647 13.038 11.0538 13.4434 9.88045C13.8487 8.70713 13.8641 7.43425 13.4872 6.2515C13.1103 5.06874 12.3612 4.03944 11.3518 3.31699C10.3423 2.59454 9.1264 2.21763 7.88529 2.24242L8.0003 8L11.2378 12.7625Z" fill="#3A3A3A" stroke="#3A3A3A" stroke-width="2" mask="url(#path-2-inside-1_846_7080)"/>
</svg>
