<svg width="48" height="48" viewBox="0 0 48 48" fill="none" xmlns="http://www.w3.org/2000/svg">
<circle cx="23.9802" cy="24.0218" r="7.4548" transform="rotate(-90 23.9802 24.0218)" stroke="#3A3A3A"/>
<mask id="path-2-inside-1_207_36049" fill="white">
<path d="M27.2378 28.7625C28.2644 28.0647 29.038 27.0538 29.4434 25.8804C29.8487 24.7071 29.8641 23.4343 29.4872 22.2515C29.1103 21.0687 28.3612 20.0394 27.3518 19.317C26.3423 18.5945 25.1264 18.2176 23.8853 18.2424L24.0003 24L27.2378 28.7625Z"/>
</mask>
<path d="M27.2378 28.7625C28.2644 28.0647 29.038 27.0538 29.4434 25.8804C29.8487 24.7071 29.8641 23.4343 29.4872 22.2515C29.1103 21.0687 28.3612 20.0394 27.3518 19.317C26.3423 18.5945 25.1264 18.2176 23.8853 18.2424L24.0003 24L27.2378 28.7625Z" fill="#3A3A3A" stroke="#3A3A3A" stroke-width="2" mask="url(#path-2-inside-1_207_36049)"/>
</svg>
