<svg width="48" height="48" viewBox="0 0 48 48" fill="none" xmlns="http://www.w3.org/2000/svg">
<path d="M10.5 19C10.5 18.7239 10.7239 18.5 11 18.5H36C36.2761 18.5 36.5 18.7239 36.5 19V29C36.5 29.2761 36.2761 29.5 36 29.5H11C10.7239 29.5 10.5 29.2761 10.5 29V19Z" stroke="#F2F2F2"/>
<path d="M15 21V27" stroke="#F2F2F2" stroke-linecap="round"/>
<path d="M10.5 19C10.5 18.7239 10.7239 18.5 11 18.5H36C36.2761 18.5 36.5 18.7239 36.5 19V29C36.5 29.2761 36.2761 29.5 36 29.5H11C10.7239 29.5 10.5 29.2761 10.5 29V19Z" stroke="#3A3A3A"/>
<path d="M15 21V27" stroke="#3A3A3A" stroke-linecap="round"/>
</svg>
