<svg width="48" height="48" viewBox="0 0 48 48" fill="none" xmlns="http://www.w3.org/2000/svg">
<circle cx="14" cy="24" r="4" fill="#F2F2F2"/>
<path d="M10 24H21" stroke="#F2F2F2"/>
<path d="M27 24L31 24" stroke="#F2F2F2"/>
<circle cx="34" cy="24" r="3.5" stroke="#F2F2F2"/>
<circle cx="24" cy="24" r="3.5" stroke="#F2F2F2"/>
<circle cx="14" cy="24" r="4" fill="#3A3A3A"/>
<mask id="path-7-inside-1_212_50604" fill="white">
<path fill-rule="evenodd" clip-rule="evenodd" d="M27 24C27 25.6569 25.6569 27 24 27C22.3431 27 21 25.6569 21 24C21 22.3431 22.3431 21 24 21C25.6569 21 27 22.3431 27 24ZM27.9691 24.5C27.723 26.4732 26.0398 28 24 28C21.9602 28 20.277 26.4732 20.0309 24.5H10V23.5H20.0309C20.277 21.5268 21.9602 20 24 20C26.0398 20 27.723 21.5268 27.9691 23.5L30.0309 23.5C30.277 21.5268 31.9602 20 34 20C36.2091 20 38 21.7909 38 24C38 26.2091 36.2091 28 34 28C31.9602 28 30.277 26.4732 30.0309 24.5L27.9691 24.5ZM31 24C31 25.6569 32.3431 27 34 27C35.6569 27 37 25.6569 37 24C37 22.3431 35.6569 21 34 21C32.3431 21 31 22.3431 31 24Z"/>
</mask>
<path fill-rule="evenodd" clip-rule="evenodd" d="M27 24C27 25.6569 25.6569 27 24 27C22.3431 27 21 25.6569 21 24C21 22.3431 22.3431 21 24 21C25.6569 21 27 22.3431 27 24ZM27.9691 24.5C27.723 26.4732 26.0398 28 24 28C21.9602 28 20.277 26.4732 20.0309 24.5H10V23.5H20.0309C20.277 21.5268 21.9602 20 24 20C26.0398 20 27.723 21.5268 27.9691 23.5L30.0309 23.5C30.277 21.5268 31.9602 20 34 20C36.2091 20 38 21.7909 38 24C38 26.2091 36.2091 28 34 28C31.9602 28 30.277 26.4732 30.0309 24.5L27.9691 24.5ZM31 24C31 25.6569 32.3431 27 34 27C35.6569 27 37 25.6569 37 24C37 22.3431 35.6569 21 34 21C32.3431 21 31 22.3431 31 24Z" fill="#F2F2F2"/>
<path d="M27.9691 24.5V23.5L27.086 23.5L26.9767 24.3763L27.9691 24.5ZM20.0309 24.5L21.0233 24.3763L20.914 23.5H20.0309V24.5ZM10 24.5H9V25.5H10V24.5ZM10 23.5V22.5H9V23.5H10ZM20.0309 23.5V24.5H20.914L21.0233 23.6237L20.0309 23.5ZM27.9691 23.5L26.9767 23.6237L27.086 24.5H27.9691V23.5ZM30.0309 23.5V24.5L30.914 24.5L31.0233 23.6237L30.0309 23.5ZM30.0309 24.5L31.0233 24.3763L30.914 23.5L30.0309 23.5V24.5ZM24 28C26.2091 28 28 26.2091 28 24H26C26 25.1046 25.1046 26 24 26V28ZM20 24C20 26.2091 21.7909 28 24 28V26C22.8954 26 22 25.1046 22 24H20ZM24 20C21.7909 20 20 21.7909 20 24H22C22 22.8954 22.8954 22 24 22V20ZM28 24C28 21.7909 26.2091 20 24 20V22C25.1046 22 26 22.8954 26 24H28ZM26.9767 24.3763C26.7923 25.8551 25.5291 27 24 27V29C26.5505 29 28.6537 27.0912 28.9614 24.6237L26.9767 24.3763ZM24 27C22.4709 27 21.2077 25.8551 21.0233 24.3763L19.0386 24.6237C19.3463 27.0912 21.4495 29 24 29V27ZM10 25.5H20.0309V23.5H10V25.5ZM9 23.5V24.5H11V23.5H9ZM20.0309 22.5H10V24.5H20.0309V22.5ZM21.0233 23.6237C21.2077 22.1449 22.4709 21 24 21V19C21.4495 19 19.3463 20.9088 19.0386 23.3763L21.0233 23.6237ZM24 21C25.5291 21 26.7923 22.1449 26.9767 23.6237L28.9614 23.3763C28.6537 20.9088 26.5505 19 24 19V21ZM30.0309 22.5L27.9691 22.5V24.5H30.0309V22.5ZM31.0233 23.6237C31.2077 22.1449 32.4709 21 34 21V19C31.4495 19 29.3463 20.9088 29.0386 23.3763L31.0233 23.6237ZM34 21C35.6569 21 37 22.3431 37 24H39C39 21.2386 36.7614 19 34 19V21ZM37 24C37 25.6569 35.6569 27 34 27V29C36.7614 29 39 26.7614 39 24H37ZM34 27C32.4709 27 31.2077 25.8551 31.0233 24.3763L29.0386 24.6237C29.3463 27.0912 31.4495 29 34 29V27ZM27.9691 25.5L30.0309 25.5V23.5L27.9691 23.5V25.5ZM30 24C30 26.2091 31.7909 28 34 28V26C32.8954 26 32 25.1046 32 24H30ZM34 28C36.2091 28 38 26.2091 38 24H36C36 25.1046 35.1046 26 34 26V28ZM38 24C38 21.7909 36.2091 20 34 20V22C35.1046 22 36 22.8954 36 24H38ZM34 20C31.7909 20 30 21.7909 30 24H32C32 22.8954 32.8954 22 34 22V20Z" fill="#3A3A3A" mask="url(#path-7-inside-1_212_50604)"/>
</svg>
