<svg width="28" height="8" viewBox="0 0 28 8" fill="none" xmlns="http://www.w3.org/2000/svg">
<mask id="path-1-inside-1_846_33058" fill="white">
<path fill-rule="evenodd" clip-rule="evenodd" d="M17 4C17 5.65685 15.6569 7 14 7C12.3431 7 11 5.65685 11 4C11 2.34315 12.3431 1 14 1C15.6569 1 17 2.34315 17 4ZM17.9691 4.5C17.723 6.47316 16.0398 8 14 8C11.9602 8 10.277 6.47316 10.0309 4.5H0V3.5H10.0309C10.277 1.52684 11.9602 0 14 0C16.0398 0 17.723 1.52684 17.9691 3.5L20.0309 3.5C20.277 1.52684 21.9602 0 24 0C26.2091 0 28 1.79086 28 4C28 6.20914 26.2091 8 24 8C21.9602 8 20.277 6.47316 20.0309 4.5L17.9691 4.5ZM21 4C21 5.65685 22.3431 7 24 7C25.6569 7 27 5.65685 27 4C27 2.34315 25.6569 1 24 1C22.3431 1 21 2.34315 21 4Z"/>
</mask>
<path fill-rule="evenodd" clip-rule="evenodd" d="M17 4C17 5.65685 15.6569 7 14 7C12.3431 7 11 5.65685 11 4C11 2.34315 12.3431 1 14 1C15.6569 1 17 2.34315 17 4ZM17.9691 4.5C17.723 6.47316 16.0398 8 14 8C11.9602 8 10.277 6.47316 10.0309 4.5H0V3.5H10.0309C10.277 1.52684 11.9602 0 14 0C16.0398 0 17.723 1.52684 17.9691 3.5L20.0309 3.5C20.277 1.52684 21.9602 0 24 0C26.2091 0 28 1.79086 28 4C28 6.20914 26.2091 8 24 8C21.9602 8 20.277 6.47316 20.0309 4.5L17.9691 4.5ZM21 4C21 5.65685 22.3431 7 24 7C25.6569 7 27 5.65685 27 4C27 2.34315 25.6569 1 24 1C22.3431 1 21 2.34315 21 4Z" fill="#F2F2F2"/>
<path d="M17.9691 4.5V3.5L17.086 3.5L16.9767 4.37626L17.9691 4.5ZM10.0309 4.5L11.0233 4.37626L10.914 3.5H10.0309V4.5ZM0 4.5H-1V5.5H0V4.5ZM0 3.5V2.5H-1V3.5H0ZM10.0309 3.5V4.5H10.914L11.0233 3.62374L10.0309 3.5ZM17.9691 3.5L16.9767 3.62374L17.086 4.5H17.9691V3.5ZM20.0309 3.5V4.5L20.914 4.5L21.0233 3.62374L20.0309 3.5ZM20.0309 4.5L21.0233 4.37626L20.914 3.5L20.0309 3.5V4.5ZM14 8C16.2091 8 18 6.20914 18 4H16C16 5.10457 15.1046 6 14 6V8ZM10 4C10 6.20914 11.7909 8 14 8V6C12.8954 6 12 5.10457 12 4H10ZM14 0C11.7909 0 10 1.79086 10 4H12C12 2.89543 12.8954 2 14 2V0ZM18 4C18 1.79086 16.2091 0 14 0V2C15.1046 2 16 2.89543 16 4H18ZM16.9767 4.37626C16.7923 5.8551 15.5291 7 14 7V9C16.5505 9 18.6537 7.09121 18.9614 4.62374L16.9767 4.37626ZM14 7C12.4709 7 11.2077 5.8551 11.0233 4.37626L9.03863 4.62374C9.34632 7.09121 11.4495 9 14 9V7ZM0 5.5H10.0309V3.5H0V5.5ZM-1 3.5V4.5H1V3.5H-1ZM10.0309 2.5H0V4.5H10.0309V2.5ZM11.0233 3.62374C11.2077 2.1449 12.4709 1 14 1V-1C11.4495 -1 9.34632 0.908792 9.03863 3.37626L11.0233 3.62374ZM14 1C15.5291 1 16.7923 2.1449 16.9767 3.62374L18.9614 3.37626C18.6537 0.908792 16.5505 -1 14 -1V1ZM20.0309 2.5L17.9691 2.5V4.5H20.0309V2.5ZM21.0233 3.62374C21.2077 2.1449 22.4709 1 24 1V-1C21.4495 -1 19.3463 0.908792 19.0386 3.37626L21.0233 3.62374ZM24 1C25.6569 1 27 2.34315 27 4H29C29 1.23858 26.7614 -1 24 -1V1ZM27 4C27 5.65685 25.6569 7 24 7V9C26.7614 9 29 6.76142 29 4H27ZM24 7C22.4709 7 21.2077 5.8551 21.0233 4.37626L19.0386 4.62374C19.3463 7.09121 21.4495 9 24 9V7ZM17.9691 5.5L20.0309 5.5V3.5L17.9691 3.5V5.5ZM20 4C20 6.20914 21.7909 8 24 8V6C22.8954 6 22 5.10457 22 4H20ZM24 8C26.2091 8 28 6.20914 28 4H26C26 5.10457 25.1046 6 24 6V8ZM28 4C28 1.79086 26.2091 0 24 0V2C25.1046 2 26 2.89543 26 4H28ZM24 0C21.7909 0 20 1.79086 20 4H22C22 2.89543 22.8954 2 24 2V0Z" fill="#3A3A3A" mask="url(#path-1-inside-1_846_33058)"/>
</svg>
