<svg width="48" height="48" viewBox="0 0 48 48" fill="none" xmlns="http://www.w3.org/2000/svg">
<path d="M12 18.5H37C37.2761 18.5 37.5 18.7239 37.5 19V29C37.5 29.2761 37.2761 29.5 37 29.5H12C11.7239 29.5 11.5 29.2761 11.5 29V19C11.5 18.7239 11.7239 18.5 12 18.5Z" stroke="#3A3A3A"/>
<path d="M34.3964 23H31.6036C31.3808 23 31.2693 22.7307 31.4268 22.5732L32.8232 21.1768C32.9209 21.0791 33.0791 21.0791 33.1768 21.1768L34.5732 22.5732C34.7307 22.7307 34.6192 23 34.3964 23Z" fill="#3A3A3A"/>
<path d="M31.6036 25L34.3964 25C34.6192 25 34.7307 25.2693 34.5732 25.4268L33.1768 26.8232C33.0791 26.9209 32.9209 26.9209 32.8232 26.8232L31.4268 25.4268C31.2693 25.2693 31.3808 25 31.6036 25Z" fill="#3A3A3A"/>
</svg>
