<svg width="27" height="12" viewBox="0 0 27 12" fill="none" xmlns="http://www.w3.org/2000/svg">
<path d="M0.5 1C0.5 0.723858 0.723858 0.5 1 0.5H26C26.2761 0.5 26.5 0.723857 26.5 1V11C26.5 11.2761 26.2761 11.5 26 11.5H0.999999C0.723858 11.5 0.5 11.2761 0.5 11V1Z" stroke="#3A3A3A"/>
<path d="M23.3964 5H20.6036C20.3808 5 20.2693 4.73071 20.4268 4.57322L21.8232 3.17678C21.9209 3.07915 22.0791 3.07915 22.1768 3.17678L23.5732 4.57322C23.7307 4.73071 23.6192 5 23.3964 5Z" fill="#3A3A3A"/>
<path d="M20.6036 7L23.3964 7C23.6192 7 23.7307 7.26929 23.5732 7.42678L22.1768 8.82322C22.0791 8.92085 21.9209 8.92085 21.8232 8.82322L20.4268 7.42678C20.2693 7.26929 20.3808 7 20.6036 7Z" fill="#3A3A3A"/>
</svg>
