<svg width="48" height="48" viewBox="0 0 48 48" fill="none" xmlns="http://www.w3.org/2000/svg">
<path d="M35 16H21.5C16.8056 16 13 19.8056 13 24.5V24.5C13 29.1944 16.8056 33 21.5 33H35" stroke="#3A3A3A"/>
<path fill-rule="evenodd" clip-rule="evenodd" d="M22.5008 27.2008C23.9919 27.2008 25.2008 25.9919 25.2008 24.5008C25.2008 23.0096 23.9919 21.8008 22.5008 21.8008C21.0096 21.8008 19.8008 23.0096 19.8008 24.5008C19.8008 25.9919 21.0096 27.2008 22.5008 27.2008Z" fill="#3A3A3A"/>
<path fill-rule="evenodd" clip-rule="evenodd" d="M22.5 20C20.016 20 18 22.016 18 24.5C18 26.984 20.016 29 22.5 29C24.984 29 27 26.984 27 24.5C27 22.016 24.984 20 22.5 20ZM22.5001 28.1001C20.5111 28.1001 18.9001 26.4891 18.9001 24.5001C18.9001 22.5111 20.5111 20.9001 22.5001 20.9001C24.4891 20.9001 26.1001 22.5111 26.1001 24.5001C26.1001 26.4891 24.4891 28.1001 22.5001 28.1001Z" fill="#3A3A3A"/>
</svg>
