<svg width="48" height="48" viewBox="0 0 48 48" fill="none" xmlns="http://www.w3.org/2000/svg">
<path d="M35 15.998H21.5C16.8056 15.998 13 19.8036 13 24.498V24.498C13 29.1925 16.8056 32.998 21.5 32.998H35" stroke="#F9F9F9"/>
<path fill-rule="evenodd" clip-rule="evenodd" d="M22.5008 27.1988C23.992 27.1988 25.2008 25.99 25.2008 24.4988C25.2008 23.0077 23.992 21.7988 22.5008 21.7988C21.0096 21.7988 19.8008 23.0077 19.8008 24.4988C19.8008 25.99 21.0096 27.1988 22.5008 27.1988Z" fill="#F9F9F9"/>
<path fill-rule="evenodd" clip-rule="evenodd" d="M22.5 19.998C20.016 19.998 18 22.014 18 24.498C18 26.982 20.016 28.998 22.5 28.998C24.984 28.998 27 26.982 27 24.498C27 22.014 24.984 19.998 22.5 19.998ZM22.5001 28.0982C20.5111 28.0982 18.9001 26.4872 18.9001 24.4982C18.9001 22.5092 20.5111 20.8982 22.5001 20.8982C24.4891 20.8982 26.1001 22.5092 26.1001 24.4982C26.1001 26.4872 24.4891 28.0982 22.5001 28.0982Z" fill="#F9F9F9"/>
<path d="M35 16H21.5C16.8056 16 13 19.8056 13 24.5V24.5C13 29.1944 16.8056 33 21.5 33H35" stroke="#3A3A3A"/>
<path fill-rule="evenodd" clip-rule="evenodd" d="M22.5008 27.2008C23.992 27.2008 25.2008 25.992 25.2008 24.5008C25.2008 23.0096 23.992 21.8008 22.5008 21.8008C21.0096 21.8008 19.8008 23.0096 19.8008 24.5008C19.8008 25.992 21.0096 27.2008 22.5008 27.2008Z" fill="#3A3A3A"/>
<path fill-rule="evenodd" clip-rule="evenodd" d="M22.5 20C20.016 20 18 22.016 18 24.5C18 26.984 20.016 29 22.5 29C24.984 29 27 26.984 27 24.5C27 22.016 24.984 20 22.5 20ZM22.5001 28.1001C20.5111 28.1001 18.9001 26.4891 18.9001 24.5001C18.9001 22.5111 20.5111 20.9001 22.5001 20.9001C24.4891 20.9001 26.1001 22.5111 26.1001 24.5001C26.1001 26.4891 24.4891 28.1001 22.5001 28.1001Z" fill="#3A3A3A"/>
</svg>
