<svg width="23" height="19" viewBox="0 0 23 19" fill="none" xmlns="http://www.w3.org/2000/svg">
<path d="M23 1H9.5C4.80558 1 1 4.80558 1 9.5V9.5C1 14.1944 4.80558 18 9.5 18H23" stroke="#3A3A3A"/>
<path fill-rule="evenodd" clip-rule="evenodd" d="M10.5008 12.2008C11.992 12.2008 13.2008 10.992 13.2008 9.50078C13.2008 8.00961 11.992 6.80078 10.5008 6.80078C9.00961 6.80078 7.80078 8.00961 7.80078 9.50078C7.80078 10.992 9.00961 12.2008 10.5008 12.2008Z" fill="#3A3A3A"/>
<path fill-rule="evenodd" clip-rule="evenodd" d="M10.5 5C8.016 5 6 7.016 6 9.5C6 11.984 8.016 14 10.5 14C12.984 14 15 11.984 15 9.5C15 7.016 12.984 5 10.5 5ZM10.5001 13.1001C8.51105 13.1001 6.90005 11.4891 6.90005 9.50011C6.90005 7.51111 8.51105 5.90011 10.5001 5.90011C12.4891 5.90011 14.1001 7.51111 14.1001 9.50011C14.1001 11.4891 12.4891 13.1001 10.5001 13.1001Z" fill="#3A3A3A"/>
</svg>
