<svg width="17" height="16" viewBox="0 0 17 16" fill="none" xmlns="http://www.w3.org/2000/svg">
<path d="M16.8 3.2V14.4C16.8 15.28 16.08 16 15.2 16H1.6C0.72 16 0 15.28 0 14.4V3.2C0 2.32 0.72 1.6 1.6 1.6H2V1.4C2 0.62 2.62 0 3.4 0C4.18 0 4.8 0.62 4.8 1.4V1.6H7V1.4C7 0.62 7.62 0 8.4 0C9.18 0 9.8 0.62 9.8 1.4V1.6H12V1.4C12 0.62 12.62 0 13.4 0C14.18 0 14.8 0.62 14.8 1.4V1.6H15.2C16.08 1.6 16.8 2.32 16.8 3.2ZM12.8 2.6C12.8 2.92 13.06 3.2 13.4 3.2C13.74 3.2 14 2.92 14 2.6V1.4C14 1.06 13.74 0.8 13.4 0.8C13.06 0.8 12.8 1.06 12.8 1.4V2.6ZM7.8 2.6C7.8 2.92 8.06 3.2 8.4 3.2C8.74 3.2 9 2.92 9 2.6V1.4C9 1.06 8.74 0.8 8.4 0.8C8.06 0.8 7.8 1.06 7.8 1.4V2.6ZM2.8 2.6C2.8 2.92 3.06 3.2 3.4 3.2C3.74 3.2 4 2.92 4 2.6V1.4C4 1.06 3.74 0.8 3.4 0.8C3.06 0.8 2.8 1.06 2.8 1.4V2.6ZM16 6H0.8V14.4C0.8 14.84 1.16 15.2 1.6 15.2H15.2C15.64 15.2 16 14.84 16 14.4V6ZM16 3.2C16 2.76 15.64 2.4 15.2 2.4H14.8V2.6C14.8 3.38 14.18 4 13.4 4C12.62 4 12 3.38 12 2.6V2.4H9.8V2.6C9.8 3.38 9.18 4 8.4 4C7.62 4 7 3.38 7 2.6V2.4H4.8V2.6C4.8 3.38 4.18 4 3.4 4C2.62 4 2 3.38 2 2.6V2.4H1.6C1.16 2.4 0.8 2.76 0.8 3.2V5.2H16V3.2Z" fill="#3A3A3A"/>
<path d="M3.36 7.78C3.3 7.78 3.26 7.78 3.2 7.74C3.16 7.74 3.12 7.7 3.12 7.66C3.04 7.58 3 7.48 3 7.38V7.3C3 7.26 3 7.24 3.02 7.22C3.04 7.2 3.04 7.18 3.06 7.16C3.06 7.14 3.08 7.12 3.1 7.1C3.12 7.1 3.14 7.08 3.16 7.06C3.18 7.04 3.2 7.04 3.22 7.02C3.24 7.02 3.28 7 3.3 7H3.46C3.5 7 3.52 7.02 3.54 7.02C3.56 7.04 3.58 7.06 3.6 7.06C3.62 7.06 3.64 7.08 3.66 7.1C3.68 7.12 3.68 7.14 3.7 7.16C3.72 7.18 3.74 7.2 3.74 7.22C3.74 7.24 3.76 7.28 3.76 7.3V7.38C3.76 7.48 3.72 7.58 3.64 7.66L3.58 7.72C3.56 7.74 3.54 7.76 3.52 7.76C3.5 7.76 3.46 7.78 3.44 7.78H3.36Z" fill="#3A3A3A"/>
<path d="M6.11976 7.78C6.05976 7.78 6.01976 7.78 5.95977 7.74C5.91977 7.74 5.87977 7.7 5.87977 7.66C5.79977 7.58 5.75977 7.48 5.75977 7.38V7.3C5.75977 7.26 5.75977 7.24 5.77977 7.22C5.79977 7.2 5.79977 7.18 5.81977 7.16C5.81977 7.14 5.83977 7.12 5.85977 7.1C5.87977 7.1 5.89977 7.08 5.91977 7.06C5.93977 7.04 5.95977 7.04 5.97977 7.02C5.99977 7.02 6.03976 7 6.05976 7H6.21977C6.25977 7 6.27977 7.02 6.29977 7.02C6.31977 7.04 6.33977 7.06 6.35977 7.06C6.37977 7.06 6.39977 7.08 6.41977 7.1C6.43977 7.12 6.43977 7.14 6.45977 7.16C6.47977 7.18 6.49977 7.2 6.49977 7.22C6.49977 7.24 6.51977 7.28 6.51977 7.3V7.38C6.51977 7.48 6.47977 7.58 6.39977 7.66L6.33976 7.72C6.31976 7.74 6.29976 7.76 6.27977 7.76C6.25977 7.76 6.21977 7.78 6.19977 7.78H6.11976Z" fill="#3A3A3A"/>
<path d="M8.87953 7.78C8.81953 7.78 8.77953 7.78 8.71953 7.74C8.67953 7.74 8.63953 7.7 8.63953 7.66C8.55953 7.58 8.51953 7.48 8.51953 7.38V7.3C8.51953 7.26 8.51953 7.24 8.53953 7.22C8.55953 7.2 8.55953 7.18 8.57953 7.16C8.57953 7.14 8.59953 7.12 8.61953 7.1C8.63953 7.1 8.65953 7.08 8.67953 7.06C8.69953 7.04 8.71953 7.04 8.73953 7.02C8.75953 7.02 8.79953 7 8.81953 7H8.97953C9.01953 7 9.03954 7.02 9.05954 7.02C9.07953 7.04 9.09953 7.06 9.11953 7.06C9.13953 7.06 9.15953 7.08 9.17953 7.1C9.19953 7.12 9.19954 7.14 9.21954 7.16C9.23953 7.18 9.25953 7.2 9.25953 7.22C9.25953 7.24 9.27953 7.28 9.27953 7.3V7.38C9.27953 7.48 9.23953 7.58 9.15953 7.66L9.09953 7.72C9.07953 7.74 9.05953 7.76 9.03953 7.76C9.01953 7.76 8.97953 7.78 8.95953 7.78H8.87953Z" fill="#3A3A3A"/>
<path d="M11.6393 7.78C11.5793 7.78 11.5393 7.78 11.4793 7.74C11.4393 7.74 11.3993 7.7 11.3993 7.66C11.3193 7.58 11.2793 7.48 11.2793 7.38V7.3C11.2793 7.26 11.2793 7.24 11.2993 7.22C11.3193 7.2 11.3193 7.18 11.3393 7.16C11.3393 7.14 11.3593 7.12 11.3793 7.1C11.3993 7.1 11.4193 7.08 11.4393 7.06C11.4593 7.04 11.4793 7.04 11.4993 7.02C11.5193 7.02 11.5593 7 11.5793 7H11.7393C11.7793 7 11.7993 7.02 11.8193 7.02C11.8393 7.04 11.8593 7.06 11.8793 7.06C11.8993 7.06 11.9193 7.08 11.9393 7.1C11.9593 7.12 11.9593 7.14 11.9793 7.16C11.9993 7.18 12.0193 7.2 12.0193 7.22C12.0193 7.24 12.0393 7.28 12.0393 7.3V7.38C12.0393 7.48 11.9993 7.58 11.9193 7.66L11.8593 7.72C11.8393 7.74 11.8193 7.76 11.7993 7.76C11.7793 7.76 11.7393 7.78 11.7193 7.78H11.6393Z" fill="#3A3A3A"/>
<path d="M14.3991 7.78C14.3391 7.78 14.2991 7.78 14.2391 7.74C14.1991 7.74 14.1591 7.7 14.1591 7.66C14.0791 7.58 14.0391 7.48 14.0391 7.38V7.3C14.0391 7.26 14.0391 7.24 14.0591 7.22C14.0791 7.2 14.0791 7.18 14.0991 7.16C14.0991 7.14 14.1191 7.12 14.1391 7.1C14.1591 7.1 14.1791 7.08 14.1991 7.06C14.2191 7.04 14.2391 7.04 14.2591 7.02C14.2791 7.02 14.3191 7 14.3391 7H14.4991C14.5391 7 14.5591 7.02 14.5791 7.02C14.5991 7.04 14.6191 7.06 14.6391 7.06C14.6591 7.06 14.6791 7.08 14.6991 7.1C14.7191 7.12 14.7191 7.14 14.7391 7.16C14.7591 7.18 14.7791 7.2 14.7791 7.22C14.7791 7.24 14.7991 7.28 14.7991 7.3V7.38C14.7991 7.48 14.7591 7.58 14.6791 7.66L14.6191 7.72C14.5991 7.74 14.5791 7.76 14.5591 7.76C14.5391 7.76 14.4991 7.78 14.4791 7.78H14.3991Z" fill="#3A3A3A"/>
<path d="M3.36 9.78C3.3 9.78 3.26 9.78 3.2 9.74C3.16 9.74 3.12 9.7 3.12 9.66C3.04 9.58 3 9.48 3 9.38V9.3C3 9.26 3 9.24 3.02 9.22C3.04 9.2 3.04 9.18 3.06 9.16C3.06 9.14 3.08 9.12 3.1 9.1C3.12 9.1 3.14 9.08 3.16 9.06C3.18 9.04 3.2 9.04 3.22 9.02C3.24 9.02 3.28 9 3.3 9H3.46C3.5 9 3.52 9.02 3.54 9.02C3.56 9.04 3.58 9.06 3.6 9.06C3.62 9.06 3.64 9.08 3.66 9.1C3.68 9.12 3.68 9.14 3.7 9.16C3.72 9.18 3.74 9.2 3.74 9.22C3.74 9.24 3.76 9.28 3.76 9.3V9.38C3.76 9.48 3.72 9.58 3.64 9.66L3.58 9.72C3.56 9.74 3.54 9.76 3.52 9.76C3.5 9.76 3.46 9.78 3.44 9.78H3.36Z" fill="#3A3A3A"/>
<path d="M6.11976 9.78C6.05976 9.78 6.01976 9.78 5.95977 9.74C5.91977 9.74 5.87977 9.7 5.87977 9.66C5.79977 9.58 5.75977 9.48 5.75977 9.38V9.3C5.75977 9.26 5.75977 9.24 5.77977 9.22C5.79977 9.2 5.79977 9.18 5.81977 9.16C5.81977 9.14 5.83977 9.12 5.85977 9.1C5.87977 9.1 5.89977 9.08 5.91977 9.06C5.93977 9.04 5.95977 9.04 5.97977 9.02C5.99977 9.02 6.03976 9 6.05976 9H6.21977C6.25977 9 6.27977 9.02 6.29977 9.02C6.31977 9.04 6.33977 9.06 6.35977 9.06C6.37977 9.06 6.39977 9.08 6.41977 9.1C6.43977 9.12 6.43977 9.14 6.45977 9.16C6.47977 9.18 6.49977 9.2 6.49977 9.22C6.49977 9.24 6.51977 9.28 6.51977 9.3V9.38C6.51977 9.48 6.47977 9.58 6.39977 9.66L6.33976 9.72C6.31976 9.74 6.29976 9.76 6.27977 9.76C6.25977 9.76 6.21977 9.78 6.19977 9.78H6.11976Z" fill="#3A3A3A"/>
<path d="M8.87953 9.78C8.81953 9.78 8.77953 9.78 8.71953 9.74C8.67953 9.74 8.63953 9.7 8.63953 9.66C8.55953 9.58 8.51953 9.48 8.51953 9.38V9.3C8.51953 9.26 8.51953 9.24 8.53953 9.22C8.55953 9.2 8.55953 9.18 8.57953 9.16C8.57953 9.14 8.59953 9.12 8.61953 9.1C8.63953 9.1 8.65953 9.08 8.67953 9.06C8.69953 9.04 8.71953 9.04 8.73953 9.02C8.75953 9.02 8.79953 9 8.81953 9H8.97953C9.01953 9 9.03954 9.02 9.05954 9.02C9.07953 9.04 9.09953 9.06 9.11953 9.06C9.13953 9.06 9.15953 9.08 9.17953 9.1C9.19953 9.12 9.19954 9.14 9.21954 9.16C9.23953 9.18 9.25953 9.2 9.25953 9.22C9.25953 9.24 9.27953 9.28 9.27953 9.3V9.38C9.27953 9.48 9.23953 9.58 9.15953 9.66L9.09953 9.72C9.07953 9.74 9.05953 9.76 9.03953 9.76C9.01953 9.76 8.97953 9.78 8.95953 9.78H8.87953Z" fill="#3A3A3A"/>
<path d="M11.6393 9.78C11.5793 9.78 11.5393 9.78 11.4793 9.74C11.4393 9.74 11.3993 9.7 11.3993 9.66C11.3193 9.58 11.2793 9.48 11.2793 9.38V9.3C11.2793 9.26 11.2793 9.24 11.2993 9.22C11.3193 9.2 11.3193 9.18 11.3393 9.16C11.3393 9.14 11.3593 9.12 11.3793 9.1C11.3993 9.1 11.4193 9.08 11.4393 9.06C11.4593 9.04 11.4793 9.04 11.4993 9.02C11.5193 9.02 11.5593 9 11.5793 9H11.7393C11.7793 9 11.7993 9.02 11.8193 9.02C11.8393 9.04 11.8593 9.06 11.8793 9.06C11.8993 9.06 11.9193 9.08 11.9393 9.1C11.9593 9.12 11.9593 9.14 11.9793 9.16C11.9993 9.18 12.0193 9.2 12.0193 9.22C12.0193 9.24 12.0393 9.28 12.0393 9.3V9.38C12.0393 9.48 11.9993 9.58 11.9193 9.66L11.8593 9.72C11.8393 9.74 11.8193 9.76 11.7993 9.76C11.7793 9.76 11.7393 9.78 11.7193 9.78H11.6393Z" fill="#3A3A3A"/>
<path d="M14.3991 9.78C14.3391 9.78 14.2991 9.78 14.2391 9.74C14.1991 9.74 14.1591 9.7 14.1591 9.66C14.0791 9.58 14.0391 9.48 14.0391 9.38V9.3C14.0391 9.26 14.0391 9.24 14.0591 9.22C14.0791 9.2 14.0791 9.18 14.0991 9.16C14.0991 9.14 14.1191 9.12 14.1391 9.1C14.1591 9.1 14.1791 9.08 14.1991 9.06C14.2191 9.04 14.2391 9.04 14.2591 9.02C14.2791 9.02 14.3191 9 14.3391 9H14.4991C14.5391 9 14.5591 9.02 14.5791 9.02C14.5991 9.04 14.6191 9.06 14.6391 9.06C14.6591 9.06 14.6791 9.08 14.6991 9.1C14.7191 9.12 14.7191 9.14 14.7391 9.16C14.7591 9.18 14.7791 9.2 14.7791 9.22C14.7791 9.24 14.7991 9.28 14.7991 9.3V9.38C14.7991 9.48 14.7591 9.58 14.6791 9.66L14.6191 9.72C14.5991 9.74 14.5791 9.76 14.5591 9.76C14.5391 9.76 14.4991 9.78 14.4791 9.78H14.3991Z" fill="#3A3A3A"/>
<path d="M3.36 11.78C3.3 11.78 3.26 11.78 3.2 11.74C3.16 11.74 3.12 11.7 3.12 11.66C3.04 11.58 3 11.48 3 11.38V11.3C3 11.26 3 11.24 3.02 11.22C3.04 11.2 3.04 11.18 3.06 11.16C3.06 11.14 3.08 11.12 3.1 11.1C3.12 11.1 3.14 11.08 3.16 11.06C3.18 11.04 3.2 11.04 3.22 11.02C3.24 11.02 3.28 11 3.3 11H3.46C3.5 11 3.52 11.02 3.54 11.02C3.56 11.04 3.58 11.06 3.6 11.06C3.62 11.06 3.64 11.08 3.66 11.1C3.68 11.12 3.68 11.14 3.7 11.16C3.72 11.18 3.74 11.2 3.74 11.22C3.74 11.24 3.76 11.28 3.76 11.3V11.38C3.76 11.48 3.72 11.58 3.64 11.66L3.58 11.72C3.56 11.74 3.54 11.76 3.52 11.76C3.5 11.76 3.46 11.78 3.44 11.78H3.36Z" fill="#3A3A3A"/>
<path d="M6.11976 11.78C6.05976 11.78 6.01976 11.78 5.95977 11.74C5.91977 11.74 5.87977 11.7 5.87977 11.66C5.79977 11.58 5.75977 11.48 5.75977 11.38V11.3C5.75977 11.26 5.75977 11.24 5.77977 11.22C5.79977 11.2 5.79977 11.18 5.81977 11.16C5.81977 11.14 5.83977 11.12 5.85977 11.1C5.87977 11.1 5.89977 11.08 5.91977 11.06C5.93977 11.04 5.95977 11.04 5.97977 11.02C5.99977 11.02 6.03976 11 6.05976 11H6.21977C6.25977 11 6.27977 11.02 6.29977 11.02C6.31977 11.04 6.33977 11.06 6.35977 11.06C6.37977 11.06 6.39977 11.08 6.41977 11.1C6.43977 11.12 6.43977 11.14 6.45977 11.16C6.47977 11.18 6.49977 11.2 6.49977 11.22C6.49977 11.24 6.51977 11.28 6.51977 11.3V11.38C6.51977 11.48 6.47977 11.58 6.39977 11.66L6.33976 11.72C6.31976 11.74 6.29976 11.76 6.27977 11.76C6.25977 11.76 6.21977 11.78 6.19977 11.78H6.11976Z" fill="#3A3A3A"/>
<path d="M8.87953 11.78C8.81953 11.78 8.77953 11.78 8.71953 11.74C8.67953 11.74 8.63953 11.7 8.63953 11.66C8.55953 11.58 8.51953 11.48 8.51953 11.38V11.3C8.51953 11.26 8.51953 11.24 8.53953 11.22C8.55953 11.2 8.55953 11.18 8.57953 11.16C8.57953 11.14 8.59953 11.12 8.61953 11.1C8.63953 11.1 8.65953 11.08 8.67953 11.06C8.69953 11.04 8.71953 11.04 8.73953 11.02C8.75953 11.02 8.79953 11 8.81953 11H8.97953C9.01953 11 9.03954 11.02 9.05954 11.02C9.07953 11.04 9.09953 11.06 9.11953 11.06C9.13953 11.06 9.15953 11.08 9.17953 11.1C9.19953 11.12 9.19954 11.14 9.21954 11.16C9.23953 11.18 9.25953 11.2 9.25953 11.22C9.25953 11.24 9.27953 11.28 9.27953 11.3V11.38C9.27953 11.48 9.23953 11.58 9.15953 11.66L9.09953 11.72C9.07953 11.74 9.05953 11.76 9.03953 11.76C9.01953 11.76 8.97953 11.78 8.95953 11.78H8.87953Z" fill="#3A3A3A"/>
<path d="M11.6393 11.78C11.5793 11.78 11.5393 11.78 11.4793 11.74C11.4393 11.74 11.3993 11.7 11.3993 11.66C11.3193 11.58 11.2793 11.48 11.2793 11.38V11.3C11.2793 11.26 11.2793 11.24 11.2993 11.22C11.3193 11.2 11.3193 11.18 11.3393 11.16C11.3393 11.14 11.3593 11.12 11.3793 11.1C11.3993 11.1 11.4193 11.08 11.4393 11.06C11.4593 11.04 11.4793 11.04 11.4993 11.02C11.5193 11.02 11.5593 11 11.5793 11H11.7393C11.7793 11 11.7993 11.02 11.8193 11.02C11.8393 11.04 11.8593 11.06 11.8793 11.06C11.8993 11.06 11.9193 11.08 11.9393 11.1C11.9593 11.12 11.9593 11.14 11.9793 11.16C11.9993 11.18 12.0193 11.2 12.0193 11.22C12.0193 11.24 12.0393 11.28 12.0393 11.3V11.38C12.0393 11.48 11.9993 11.58 11.9193 11.66L11.8593 11.72C11.8393 11.74 11.8193 11.76 11.7993 11.76C11.7793 11.76 11.7393 11.78 11.7193 11.78H11.6393Z" fill="#3A3A3A"/>
<path d="M14.3991 11.78C14.3391 11.78 14.2991 11.78 14.2391 11.74C14.1991 11.74 14.1591 11.7 14.1591 11.66C14.0791 11.58 14.0391 11.48 14.0391 11.38V11.3C14.0391 11.26 14.0391 11.24 14.0591 11.22C14.0791 11.2 14.0791 11.18 14.0991 11.16C14.0991 11.14 14.1191 11.12 14.1391 11.1C14.1591 11.1 14.1791 11.08 14.1991 11.06C14.2191 11.04 14.2391 11.04 14.2591 11.02C14.2791 11.02 14.3191 11 14.3391 11H14.4991C14.5391 11 14.5591 11.02 14.5791 11.02C14.5991 11.04 14.6191 11.06 14.6391 11.06C14.6591 11.06 14.6791 11.08 14.6991 11.1C14.7191 11.12 14.7191 11.14 14.7391 11.16C14.7591 11.18 14.7791 11.2 14.7791 11.22C14.7791 11.24 14.7991 11.28 14.7991 11.3V11.38C14.7991 11.48 14.7591 11.58 14.6791 11.66L14.6191 11.72C14.5991 11.74 14.5791 11.76 14.5591 11.76C14.5391 11.76 14.4991 11.78 14.4791 11.78H14.3991Z" fill="#3A3A3A"/>
<path d="M3.36 13.78C3.3 13.78 3.26 13.78 3.2 13.74C3.16 13.74 3.12 13.7 3.12 13.66C3.04 13.58 3 13.48 3 13.38V13.3C3 13.26 3 13.24 3.02 13.22C3.04 13.2 3.04 13.18 3.06 13.16C3.06 13.14 3.08 13.12 3.1 13.1C3.12 13.1 3.14 13.08 3.16 13.06C3.18 13.04 3.2 13.04 3.22 13.02C3.24 13.02 3.28 13 3.3 13H3.46C3.5 13 3.52 13.02 3.54 13.02C3.56 13.04 3.58 13.06 3.6 13.06C3.62 13.06 3.64 13.08 3.66 13.1C3.68 13.12 3.68 13.14 3.7 13.16C3.72 13.18 3.74 13.2 3.74 13.22C3.74 13.24 3.76 13.28 3.76 13.3V13.38C3.76 13.48 3.72 13.58 3.64 13.66L3.58 13.72C3.56 13.74 3.54 13.76 3.52 13.76C3.5 13.76 3.46 13.78 3.44 13.78H3.36Z" fill="#3A3A3A"/>
<path d="M6.11976 13.78C6.05976 13.78 6.01976 13.78 5.95977 13.74C5.91977 13.74 5.87977 13.7 5.87977 13.66C5.79977 13.58 5.75977 13.48 5.75977 13.38V13.3C5.75977 13.26 5.75977 13.24 5.77977 13.22C5.79977 13.2 5.79977 13.18 5.81977 13.16C5.81977 13.14 5.83977 13.12 5.85977 13.1C5.87977 13.1 5.89977 13.08 5.91977 13.06C5.93977 13.04 5.95977 13.04 5.97977 13.02C5.99977 13.02 6.03976 13 6.05976 13H6.21977C6.25977 13 6.27977 13.02 6.29977 13.02C6.31977 13.04 6.33977 13.06 6.35977 13.06C6.37977 13.06 6.39977 13.08 6.41977 13.1C6.43977 13.12 6.43977 13.14 6.45977 13.16C6.47977 13.18 6.49977 13.2 6.49977 13.22C6.49977 13.24 6.51977 13.28 6.51977 13.3V13.38C6.51977 13.48 6.47977 13.58 6.39977 13.66L6.33976 13.72C6.31976 13.74 6.29976 13.76 6.27977 13.76C6.25977 13.76 6.21977 13.78 6.19977 13.78H6.11976Z" fill="#3A3A3A"/>
<path d="M8.87953 13.78C8.81953 13.78 8.77953 13.78 8.71953 13.74C8.67953 13.74 8.63953 13.7 8.63953 13.66C8.55953 13.58 8.51953 13.48 8.51953 13.38V13.3C8.51953 13.26 8.51953 13.24 8.53953 13.22C8.55953 13.2 8.55953 13.18 8.57953 13.16C8.57953 13.14 8.59953 13.12 8.61953 13.1C8.63953 13.1 8.65953 13.08 8.67953 13.06C8.69953 13.04 8.71953 13.04 8.73953 13.02C8.75953 13.02 8.79953 13 8.81953 13H8.97953C9.01953 13 9.03954 13.02 9.05954 13.02C9.07953 13.04 9.09953 13.06 9.11953 13.06C9.13953 13.06 9.15953 13.08 9.17953 13.1C9.19953 13.12 9.19954 13.14 9.21954 13.16C9.23953 13.18 9.25953 13.2 9.25953 13.22C9.25953 13.24 9.27953 13.28 9.27953 13.3V13.38C9.27953 13.48 9.23953 13.58 9.15953 13.66L9.09953 13.72C9.07953 13.74 9.05953 13.76 9.03953 13.76C9.01953 13.76 8.97953 13.78 8.95953 13.78H8.87953Z" fill="#3A3A3A"/>
<path d="M11.6393 13.78C11.5793 13.78 11.5393 13.78 11.4793 13.74C11.4393 13.74 11.3993 13.7 11.3993 13.66C11.3193 13.58 11.2793 13.48 11.2793 13.38V13.3C11.2793 13.26 11.2793 13.24 11.2993 13.22C11.3193 13.2 11.3193 13.18 11.3393 13.16C11.3393 13.14 11.3593 13.12 11.3793 13.1C11.3993 13.1 11.4193 13.08 11.4393 13.06C11.4593 13.04 11.4793 13.04 11.4993 13.02C11.5193 13.02 11.5593 13 11.5793 13H11.7393C11.7793 13 11.7993 13.02 11.8193 13.02C11.8393 13.04 11.8593 13.06 11.8793 13.06C11.8993 13.06 11.9193 13.08 11.9393 13.1C11.9593 13.12 11.9593 13.14 11.9793 13.16C11.9993 13.18 12.0193 13.2 12.0193 13.22C12.0193 13.24 12.0393 13.28 12.0393 13.3V13.38C12.0393 13.48 11.9993 13.58 11.9193 13.66L11.8593 13.72C11.8393 13.74 11.8193 13.76 11.7993 13.76C11.7793 13.76 11.7393 13.78 11.7193 13.78H11.6393Z" fill="#3A3A3A"/>
<path d="M14.3991 13.78C14.3391 13.78 14.2991 13.78 14.2391 13.74C14.1991 13.74 14.1591 13.7 14.1591 13.66C14.0791 13.58 14.0391 13.48 14.0391 13.38V13.3C14.0391 13.26 14.0391 13.24 14.0591 13.22C14.0791 13.2 14.0791 13.18 14.0991 13.16C14.0991 13.14 14.1191 13.12 14.1391 13.1C14.1591 13.1 14.1791 13.08 14.1991 13.06C14.2191 13.04 14.2391 13.04 14.2591 13.02C14.2791 13.02 14.3191 13 14.3391 13H14.4991C14.5391 13 14.5591 13.02 14.5791 13.02C14.5991 13.04 14.6191 13.06 14.6391 13.06C14.6591 13.06 14.6791 13.08 14.6991 13.1C14.7191 13.12 14.7191 13.14 14.7391 13.16C14.7591 13.18 14.7791 13.2 14.7791 13.22C14.7791 13.24 14.7991 13.28 14.7991 13.3V13.38C14.7991 13.48 14.7591 13.58 14.6791 13.66L14.6191 13.72C14.5991 13.74 14.5791 13.76 14.5591 13.76C14.5391 13.76 14.4991 13.78 14.4791 13.78H14.3991Z" fill="#3A3A3A"/>
</svg>
