<svg width="48" height="48" viewBox="0 0 48 48" fill="none" xmlns="http://www.w3.org/2000/svg">
<path d="M32.8 19.2V30.4C32.8 31.28 32.08 32 31.2 32H17.6C16.72 32 16 31.28 16 30.4V19.2C16 18.32 16.72 17.6 17.6 17.6H18V17.4C18 16.62 18.62 16 19.4 16C20.18 16 20.8 16.62 20.8 17.4V17.6H23V17.4C23 16.62 23.62 16 24.4 16C25.18 16 25.8 16.62 25.8 17.4V17.6H28V17.4C28 16.62 28.62 16 29.4 16C30.18 16 30.8 16.62 30.8 17.4V17.6H31.2C32.08 17.6 32.8 18.32 32.8 19.2ZM28.8 18.6C28.8 18.92 29.06 19.2 29.4 19.2C29.74 19.2 30 18.92 30 18.6V17.4C30 17.06 29.74 16.8 29.4 16.8C29.06 16.8 28.8 17.06 28.8 17.4V18.6ZM23.8 18.6C23.8 18.92 24.06 19.2 24.4 19.2C24.74 19.2 25 18.92 25 18.6V17.4C25 17.06 24.74 16.8 24.4 16.8C24.06 16.8 23.8 17.06 23.8 17.4V18.6ZM18.8 18.6C18.8 18.92 19.06 19.2 19.4 19.2C19.74 19.2 20 18.92 20 18.6V17.4C20 17.06 19.74 16.8 19.4 16.8C19.06 16.8 18.8 17.06 18.8 17.4V18.6ZM32 22H16.8V30.4C16.8 30.84 17.16 31.2 17.6 31.2H31.2C31.64 31.2 32 30.84 32 30.4V22ZM32 19.2C32 18.76 31.64 18.4 31.2 18.4H30.8V18.6C30.8 19.38 30.18 20 29.4 20C28.62 20 28 19.38 28 18.6V18.4H25.8V18.6C25.8 19.38 25.18 20 24.4 20C23.62 20 23 19.38 23 18.6V18.4H20.8V18.6C20.8 19.38 20.18 20 19.4 20C18.62 20 18 19.38 18 18.6V18.4H17.6C17.16 18.4 16.8 18.76 16.8 19.2V21.2H32V19.2Z" fill="#3A3A3A"/>
<path d="M19.36 23.78C19.3 23.78 19.26 23.78 19.2 23.74C19.16 23.74 19.12 23.7 19.12 23.66C19.04 23.58 19 23.48 19 23.38V23.3C19 23.26 19 23.24 19.02 23.22C19.04 23.2 19.04 23.18 19.06 23.16C19.06 23.14 19.08 23.12 19.1 23.1C19.12 23.1 19.14 23.08 19.16 23.06C19.18 23.04 19.2 23.04 19.22 23.02C19.24 23.02 19.28 23 19.3 23H19.46C19.5 23 19.52 23.02 19.54 23.02C19.56 23.04 19.58 23.06 19.6 23.06C19.62 23.06 19.64 23.08 19.66 23.1C19.68 23.12 19.68 23.14 19.7 23.16C19.72 23.18 19.74 23.2 19.74 23.22C19.74 23.24 19.76 23.28 19.76 23.3V23.38C19.76 23.48 19.72 23.58 19.64 23.66L19.58 23.72C19.56 23.74 19.54 23.76 19.52 23.76C19.5 23.76 19.46 23.78 19.44 23.78H19.36Z" fill="#3A3A3A"/>
<path d="M22.1198 23.78C22.0598 23.78 22.0198 23.78 21.9598 23.74C21.9198 23.74 21.8798 23.7 21.8798 23.66C21.7998 23.58 21.7598 23.48 21.7598 23.38V23.3C21.7598 23.26 21.7598 23.24 21.7798 23.22C21.7998 23.2 21.7998 23.18 21.8198 23.16C21.8198 23.14 21.8398 23.12 21.8598 23.1C21.8798 23.1 21.8998 23.08 21.9198 23.06C21.9398 23.04 21.9598 23.04 21.9798 23.02C21.9998 23.02 22.0398 23 22.0598 23H22.2198C22.2598 23 22.2798 23.02 22.2998 23.02C22.3198 23.04 22.3398 23.06 22.3598 23.06C22.3798 23.06 22.3998 23.08 22.4198 23.1C22.4398 23.12 22.4398 23.14 22.4598 23.16C22.4798 23.18 22.4998 23.2 22.4998 23.22C22.4998 23.24 22.5198 23.28 22.5198 23.3V23.38C22.5198 23.48 22.4798 23.58 22.3998 23.66L22.3398 23.72C22.3198 23.74 22.2998 23.76 22.2798 23.76C22.2598 23.76 22.2198 23.78 22.1998 23.78H22.1198Z" fill="#3A3A3A"/>
<path d="M24.8795 23.78C24.8195 23.78 24.7795 23.78 24.7195 23.74C24.6795 23.74 24.6395 23.7 24.6395 23.66C24.5595 23.58 24.5195 23.48 24.5195 23.38V23.3C24.5195 23.26 24.5195 23.24 24.5395 23.22C24.5595 23.2 24.5595 23.18 24.5795 23.16C24.5795 23.14 24.5995 23.12 24.6195 23.1C24.6395 23.1 24.6595 23.08 24.6795 23.06C24.6995 23.04 24.7195 23.04 24.7395 23.02C24.7595 23.02 24.7995 23 24.8195 23H24.9795C25.0195 23 25.0395 23.02 25.0595 23.02C25.0795 23.04 25.0995 23.06 25.1195 23.06C25.1395 23.06 25.1595 23.08 25.1795 23.1C25.1995 23.12 25.1995 23.14 25.2195 23.16C25.2395 23.18 25.2595 23.2 25.2595 23.22C25.2595 23.24 25.2795 23.28 25.2795 23.3V23.38C25.2795 23.48 25.2395 23.58 25.1595 23.66L25.0995 23.72C25.0795 23.74 25.0595 23.76 25.0395 23.76C25.0195 23.76 24.9795 23.78 24.9595 23.78H24.8795Z" fill="#3A3A3A"/>
<path d="M27.6393 23.78C27.5793 23.78 27.5393 23.78 27.4793 23.74C27.4393 23.74 27.3993 23.7 27.3993 23.66C27.3193 23.58 27.2793 23.48 27.2793 23.38V23.3C27.2793 23.26 27.2793 23.24 27.2993 23.22C27.3193 23.2 27.3193 23.18 27.3393 23.16C27.3393 23.14 27.3593 23.12 27.3793 23.1C27.3993 23.1 27.4193 23.08 27.4393 23.06C27.4593 23.04 27.4793 23.04 27.4993 23.02C27.5193 23.02 27.5593 23 27.5793 23H27.7393C27.7793 23 27.7993 23.02 27.8193 23.02C27.8393 23.04 27.8593 23.06 27.8793 23.06C27.8993 23.06 27.9193 23.08 27.9393 23.1C27.9593 23.12 27.9593 23.14 27.9793 23.16C27.9993 23.18 28.0193 23.2 28.0193 23.22C28.0193 23.24 28.0393 23.28 28.0393 23.3V23.38C28.0393 23.48 27.9993 23.58 27.9193 23.66L27.8593 23.72C27.8393 23.74 27.8193 23.76 27.7993 23.76C27.7793 23.76 27.7393 23.78 27.7193 23.78H27.6393Z" fill="#3A3A3A"/>
<path d="M30.3991 23.78C30.3391 23.78 30.2991 23.78 30.2391 23.74C30.1991 23.74 30.1591 23.7 30.1591 23.66C30.0791 23.58 30.0391 23.48 30.0391 23.38V23.3C30.0391 23.26 30.0391 23.24 30.0591 23.22C30.0791 23.2 30.0791 23.18 30.0991 23.16C30.0991 23.14 30.1191 23.12 30.1391 23.1C30.1591 23.1 30.1791 23.08 30.1991 23.06C30.2191 23.04 30.2391 23.04 30.2591 23.02C30.2791 23.02 30.3191 23 30.3391 23H30.4991C30.5391 23 30.5591 23.02 30.5791 23.02C30.5991 23.04 30.6191 23.06 30.6391 23.06C30.6591 23.06 30.6791 23.08 30.6991 23.1C30.7191 23.12 30.7191 23.14 30.7391 23.16C30.7591 23.18 30.7791 23.2 30.7791 23.22C30.7791 23.24 30.7991 23.28 30.7991 23.3V23.38C30.7991 23.48 30.7591 23.58 30.6791 23.66L30.6191 23.72C30.5991 23.74 30.5791 23.76 30.5591 23.76C30.5391 23.76 30.4991 23.78 30.4791 23.78H30.3991Z" fill="#3A3A3A"/>
<path d="M19.36 25.78C19.3 25.78 19.26 25.78 19.2 25.74C19.16 25.74 19.12 25.7 19.12 25.66C19.04 25.58 19 25.48 19 25.38V25.3C19 25.26 19 25.24 19.02 25.22C19.04 25.2 19.04 25.18 19.06 25.16C19.06 25.14 19.08 25.12 19.1 25.1C19.12 25.1 19.14 25.08 19.16 25.06C19.18 25.04 19.2 25.04 19.22 25.02C19.24 25.02 19.28 25 19.3 25H19.46C19.5 25 19.52 25.02 19.54 25.02C19.56 25.04 19.58 25.06 19.6 25.06C19.62 25.06 19.64 25.08 19.66 25.1C19.68 25.12 19.68 25.14 19.7 25.16C19.72 25.18 19.74 25.2 19.74 25.22C19.74 25.24 19.76 25.28 19.76 25.3V25.38C19.76 25.48 19.72 25.58 19.64 25.66L19.58 25.72C19.56 25.74 19.54 25.76 19.52 25.76C19.5 25.76 19.46 25.78 19.44 25.78H19.36Z" fill="#3A3A3A"/>
<path d="M22.1198 25.78C22.0598 25.78 22.0198 25.78 21.9598 25.74C21.9198 25.74 21.8798 25.7 21.8798 25.66C21.7998 25.58 21.7598 25.48 21.7598 25.38V25.3C21.7598 25.26 21.7598 25.24 21.7798 25.22C21.7998 25.2 21.7998 25.18 21.8198 25.16C21.8198 25.14 21.8398 25.12 21.8598 25.1C21.8798 25.1 21.8998 25.08 21.9198 25.06C21.9398 25.04 21.9598 25.04 21.9798 25.02C21.9998 25.02 22.0398 25 22.0598 25H22.2198C22.2598 25 22.2798 25.02 22.2998 25.02C22.3198 25.04 22.3398 25.06 22.3598 25.06C22.3798 25.06 22.3998 25.08 22.4198 25.1C22.4398 25.12 22.4398 25.14 22.4598 25.16C22.4798 25.18 22.4998 25.2 22.4998 25.22C22.4998 25.24 22.5198 25.28 22.5198 25.3V25.38C22.5198 25.48 22.4798 25.58 22.3998 25.66L22.3398 25.72C22.3198 25.74 22.2998 25.76 22.2798 25.76C22.2598 25.76 22.2198 25.78 22.1998 25.78H22.1198Z" fill="#3A3A3A"/>
<path d="M24.8795 25.78C24.8195 25.78 24.7795 25.78 24.7195 25.74C24.6795 25.74 24.6395 25.7 24.6395 25.66C24.5595 25.58 24.5195 25.48 24.5195 25.38V25.3C24.5195 25.26 24.5195 25.24 24.5395 25.22C24.5595 25.2 24.5595 25.18 24.5795 25.16C24.5795 25.14 24.5995 25.12 24.6195 25.1C24.6395 25.1 24.6595 25.08 24.6795 25.06C24.6995 25.04 24.7195 25.04 24.7395 25.02C24.7595 25.02 24.7995 25 24.8195 25H24.9795C25.0195 25 25.0395 25.02 25.0595 25.02C25.0795 25.04 25.0995 25.06 25.1195 25.06C25.1395 25.06 25.1595 25.08 25.1795 25.1C25.1995 25.12 25.1995 25.14 25.2195 25.16C25.2395 25.18 25.2595 25.2 25.2595 25.22C25.2595 25.24 25.2795 25.28 25.2795 25.3V25.38C25.2795 25.48 25.2395 25.58 25.1595 25.66L25.0995 25.72C25.0795 25.74 25.0595 25.76 25.0395 25.76C25.0195 25.76 24.9795 25.78 24.9595 25.78H24.8795Z" fill="#3A3A3A"/>
<path d="M27.6393 25.78C27.5793 25.78 27.5393 25.78 27.4793 25.74C27.4393 25.74 27.3993 25.7 27.3993 25.66C27.3193 25.58 27.2793 25.48 27.2793 25.38V25.3C27.2793 25.26 27.2793 25.24 27.2993 25.22C27.3193 25.2 27.3193 25.18 27.3393 25.16C27.3393 25.14 27.3593 25.12 27.3793 25.1C27.3993 25.1 27.4193 25.08 27.4393 25.06C27.4593 25.04 27.4793 25.04 27.4993 25.02C27.5193 25.02 27.5593 25 27.5793 25H27.7393C27.7793 25 27.7993 25.02 27.8193 25.02C27.8393 25.04 27.8593 25.06 27.8793 25.06C27.8993 25.06 27.9193 25.08 27.9393 25.1C27.9593 25.12 27.9593 25.14 27.9793 25.16C27.9993 25.18 28.0193 25.2 28.0193 25.22C28.0193 25.24 28.0393 25.28 28.0393 25.3V25.38C28.0393 25.48 27.9993 25.58 27.9193 25.66L27.8593 25.72C27.8393 25.74 27.8193 25.76 27.7993 25.76C27.7793 25.76 27.7393 25.78 27.7193 25.78H27.6393Z" fill="#3A3A3A"/>
<path d="M30.3991 25.78C30.3391 25.78 30.2991 25.78 30.2391 25.74C30.1991 25.74 30.1591 25.7 30.1591 25.66C30.0791 25.58 30.0391 25.48 30.0391 25.38V25.3C30.0391 25.26 30.0391 25.24 30.0591 25.22C30.0791 25.2 30.0791 25.18 30.0991 25.16C30.0991 25.14 30.1191 25.12 30.1391 25.1C30.1591 25.1 30.1791 25.08 30.1991 25.06C30.2191 25.04 30.2391 25.04 30.2591 25.02C30.2791 25.02 30.3191 25 30.3391 25H30.4991C30.5391 25 30.5591 25.02 30.5791 25.02C30.5991 25.04 30.6191 25.06 30.6391 25.06C30.6591 25.06 30.6791 25.08 30.6991 25.1C30.7191 25.12 30.7191 25.14 30.7391 25.16C30.7591 25.18 30.7791 25.2 30.7791 25.22C30.7791 25.24 30.7991 25.28 30.7991 25.3V25.38C30.7991 25.48 30.7591 25.58 30.6791 25.66L30.6191 25.72C30.5991 25.74 30.5791 25.76 30.5591 25.76C30.5391 25.76 30.4991 25.78 30.4791 25.78H30.3991Z" fill="#3A3A3A"/>
<path d="M19.36 27.78C19.3 27.78 19.26 27.78 19.2 27.74C19.16 27.74 19.12 27.7 19.12 27.66C19.04 27.58 19 27.48 19 27.38V27.3C19 27.26 19 27.24 19.02 27.22C19.04 27.2 19.04 27.18 19.06 27.16C19.06 27.14 19.08 27.12 19.1 27.1C19.12 27.1 19.14 27.08 19.16 27.06C19.18 27.04 19.2 27.04 19.22 27.02C19.24 27.02 19.28 27 19.3 27H19.46C19.5 27 19.52 27.02 19.54 27.02C19.56 27.04 19.58 27.06 19.6 27.06C19.62 27.06 19.64 27.08 19.66 27.1C19.68 27.12 19.68 27.14 19.7 27.16C19.72 27.18 19.74 27.2 19.74 27.22C19.74 27.24 19.76 27.28 19.76 27.3V27.38C19.76 27.48 19.72 27.58 19.64 27.66L19.58 27.72C19.56 27.74 19.54 27.76 19.52 27.76C19.5 27.76 19.46 27.78 19.44 27.78H19.36Z" fill="#3A3A3A"/>
<path d="M22.1198 27.78C22.0598 27.78 22.0198 27.78 21.9598 27.74C21.9198 27.74 21.8798 27.7 21.8798 27.66C21.7998 27.58 21.7598 27.48 21.7598 27.38V27.3C21.7598 27.26 21.7598 27.24 21.7798 27.22C21.7998 27.2 21.7998 27.18 21.8198 27.16C21.8198 27.14 21.8398 27.12 21.8598 27.1C21.8798 27.1 21.8998 27.08 21.9198 27.06C21.9398 27.04 21.9598 27.04 21.9798 27.02C21.9998 27.02 22.0398 27 22.0598 27H22.2198C22.2598 27 22.2798 27.02 22.2998 27.02C22.3198 27.04 22.3398 27.06 22.3598 27.06C22.3798 27.06 22.3998 27.08 22.4198 27.1C22.4398 27.12 22.4398 27.14 22.4598 27.16C22.4798 27.18 22.4998 27.2 22.4998 27.22C22.4998 27.24 22.5198 27.28 22.5198 27.3V27.38C22.5198 27.48 22.4798 27.58 22.3998 27.66L22.3398 27.72C22.3198 27.74 22.2998 27.76 22.2798 27.76C22.2598 27.76 22.2198 27.78 22.1998 27.78H22.1198Z" fill="#3A3A3A"/>
<path d="M24.8795 27.78C24.8195 27.78 24.7795 27.78 24.7195 27.74C24.6795 27.74 24.6395 27.7 24.6395 27.66C24.5595 27.58 24.5195 27.48 24.5195 27.38V27.3C24.5195 27.26 24.5195 27.24 24.5395 27.22C24.5595 27.2 24.5595 27.18 24.5795 27.16C24.5795 27.14 24.5995 27.12 24.6195 27.1C24.6395 27.1 24.6595 27.08 24.6795 27.06C24.6995 27.04 24.7195 27.04 24.7395 27.02C24.7595 27.02 24.7995 27 24.8195 27H24.9795C25.0195 27 25.0395 27.02 25.0595 27.02C25.0795 27.04 25.0995 27.06 25.1195 27.06C25.1395 27.06 25.1595 27.08 25.1795 27.1C25.1995 27.12 25.1995 27.14 25.2195 27.16C25.2395 27.18 25.2595 27.2 25.2595 27.22C25.2595 27.24 25.2795 27.28 25.2795 27.3V27.38C25.2795 27.48 25.2395 27.58 25.1595 27.66L25.0995 27.72C25.0795 27.74 25.0595 27.76 25.0395 27.76C25.0195 27.76 24.9795 27.78 24.9595 27.78H24.8795Z" fill="#3A3A3A"/>
<path d="M27.6393 27.78C27.5793 27.78 27.5393 27.78 27.4793 27.74C27.4393 27.74 27.3993 27.7 27.3993 27.66C27.3193 27.58 27.2793 27.48 27.2793 27.38V27.3C27.2793 27.26 27.2793 27.24 27.2993 27.22C27.3193 27.2 27.3193 27.18 27.3393 27.16C27.3393 27.14 27.3593 27.12 27.3793 27.1C27.3993 27.1 27.4193 27.08 27.4393 27.06C27.4593 27.04 27.4793 27.04 27.4993 27.02C27.5193 27.02 27.5593 27 27.5793 27H27.7393C27.7793 27 27.7993 27.02 27.8193 27.02C27.8393 27.04 27.8593 27.06 27.8793 27.06C27.8993 27.06 27.9193 27.08 27.9393 27.1C27.9593 27.12 27.9593 27.14 27.9793 27.16C27.9993 27.18 28.0193 27.2 28.0193 27.22C28.0193 27.24 28.0393 27.28 28.0393 27.3V27.38C28.0393 27.48 27.9993 27.58 27.9193 27.66L27.8593 27.72C27.8393 27.74 27.8193 27.76 27.7993 27.76C27.7793 27.76 27.7393 27.78 27.7193 27.78H27.6393Z" fill="#3A3A3A"/>
<path d="M30.3991 27.78C30.3391 27.78 30.2991 27.78 30.2391 27.74C30.1991 27.74 30.1591 27.7 30.1591 27.66C30.0791 27.58 30.0391 27.48 30.0391 27.38V27.3C30.0391 27.26 30.0391 27.24 30.0591 27.22C30.0791 27.2 30.0791 27.18 30.0991 27.16C30.0991 27.14 30.1191 27.12 30.1391 27.1C30.1591 27.1 30.1791 27.08 30.1991 27.06C30.2191 27.04 30.2391 27.04 30.2591 27.02C30.2791 27.02 30.3191 27 30.3391 27H30.4991C30.5391 27 30.5591 27.02 30.5791 27.02C30.5991 27.04 30.6191 27.06 30.6391 27.06C30.6591 27.06 30.6791 27.08 30.6991 27.1C30.7191 27.12 30.7191 27.14 30.7391 27.16C30.7591 27.18 30.7791 27.2 30.7791 27.22C30.7791 27.24 30.7991 27.28 30.7991 27.3V27.38C30.7991 27.48 30.7591 27.58 30.6791 27.66L30.6191 27.72C30.5991 27.74 30.5791 27.76 30.5591 27.76C30.5391 27.76 30.4991 27.78 30.4791 27.78H30.3991Z" fill="#3A3A3A"/>
<path d="M19.36 29.78C19.3 29.78 19.26 29.78 19.2 29.74C19.16 29.74 19.12 29.7 19.12 29.66C19.04 29.58 19 29.48 19 29.38V29.3C19 29.26 19 29.24 19.02 29.22C19.04 29.2 19.04 29.18 19.06 29.16C19.06 29.14 19.08 29.12 19.1 29.1C19.12 29.1 19.14 29.08 19.16 29.06C19.18 29.04 19.2 29.04 19.22 29.02C19.24 29.02 19.28 29 19.3 29H19.46C19.5 29 19.52 29.02 19.54 29.02C19.56 29.04 19.58 29.06 19.6 29.06C19.62 29.06 19.64 29.08 19.66 29.1C19.68 29.12 19.68 29.14 19.7 29.16C19.72 29.18 19.74 29.2 19.74 29.22C19.74 29.24 19.76 29.28 19.76 29.3V29.38C19.76 29.48 19.72 29.58 19.64 29.66L19.58 29.72C19.56 29.74 19.54 29.76 19.52 29.76C19.5 29.76 19.46 29.78 19.44 29.78H19.36Z" fill="#3A3A3A"/>
<path d="M22.1198 29.78C22.0598 29.78 22.0198 29.78 21.9598 29.74C21.9198 29.74 21.8798 29.7 21.8798 29.66C21.7998 29.58 21.7598 29.48 21.7598 29.38V29.3C21.7598 29.26 21.7598 29.24 21.7798 29.22C21.7998 29.2 21.7998 29.18 21.8198 29.16C21.8198 29.14 21.8398 29.12 21.8598 29.1C21.8798 29.1 21.8998 29.08 21.9198 29.06C21.9398 29.04 21.9598 29.04 21.9798 29.02C21.9998 29.02 22.0398 29 22.0598 29H22.2198C22.2598 29 22.2798 29.02 22.2998 29.02C22.3198 29.04 22.3398 29.06 22.3598 29.06C22.3798 29.06 22.3998 29.08 22.4198 29.1C22.4398 29.12 22.4398 29.14 22.4598 29.16C22.4798 29.18 22.4998 29.2 22.4998 29.22C22.4998 29.24 22.5198 29.28 22.5198 29.3V29.38C22.5198 29.48 22.4798 29.58 22.3998 29.66L22.3398 29.72C22.3198 29.74 22.2998 29.76 22.2798 29.76C22.2598 29.76 22.2198 29.78 22.1998 29.78H22.1198Z" fill="#3A3A3A"/>
<path d="M24.8795 29.78C24.8195 29.78 24.7795 29.78 24.7195 29.74C24.6795 29.74 24.6395 29.7 24.6395 29.66C24.5595 29.58 24.5195 29.48 24.5195 29.38V29.3C24.5195 29.26 24.5195 29.24 24.5395 29.22C24.5595 29.2 24.5595 29.18 24.5795 29.16C24.5795 29.14 24.5995 29.12 24.6195 29.1C24.6395 29.1 24.6595 29.08 24.6795 29.06C24.6995 29.04 24.7195 29.04 24.7395 29.02C24.7595 29.02 24.7995 29 24.8195 29H24.9795C25.0195 29 25.0395 29.02 25.0595 29.02C25.0795 29.04 25.0995 29.06 25.1195 29.06C25.1395 29.06 25.1595 29.08 25.1795 29.1C25.1995 29.12 25.1995 29.14 25.2195 29.16C25.2395 29.18 25.2595 29.2 25.2595 29.22C25.2595 29.24 25.2795 29.28 25.2795 29.3V29.38C25.2795 29.48 25.2395 29.58 25.1595 29.66L25.0995 29.72C25.0795 29.74 25.0595 29.76 25.0395 29.76C25.0195 29.76 24.9795 29.78 24.9595 29.78H24.8795Z" fill="#3A3A3A"/>
<path d="M27.6393 29.78C27.5793 29.78 27.5393 29.78 27.4793 29.74C27.4393 29.74 27.3993 29.7 27.3993 29.66C27.3193 29.58 27.2793 29.48 27.2793 29.38V29.3C27.2793 29.26 27.2793 29.24 27.2993 29.22C27.3193 29.2 27.3193 29.18 27.3393 29.16C27.3393 29.14 27.3593 29.12 27.3793 29.1C27.3993 29.1 27.4193 29.08 27.4393 29.06C27.4593 29.04 27.4793 29.04 27.4993 29.02C27.5193 29.02 27.5593 29 27.5793 29H27.7393C27.7793 29 27.7993 29.02 27.8193 29.02C27.8393 29.04 27.8593 29.06 27.8793 29.06C27.8993 29.06 27.9193 29.08 27.9393 29.1C27.9593 29.12 27.9593 29.14 27.9793 29.16C27.9993 29.18 28.0193 29.2 28.0193 29.22C28.0193 29.24 28.0393 29.28 28.0393 29.3V29.38C28.0393 29.48 27.9993 29.58 27.9193 29.66L27.8593 29.72C27.8393 29.74 27.8193 29.76 27.7993 29.76C27.7793 29.76 27.7393 29.78 27.7193 29.78H27.6393Z" fill="#3A3A3A"/>
<path d="M30.3991 29.78C30.3391 29.78 30.2991 29.78 30.2391 29.74C30.1991 29.74 30.1591 29.7 30.1591 29.66C30.0791 29.58 30.0391 29.48 30.0391 29.38V29.3C30.0391 29.26 30.0391 29.24 30.0591 29.22C30.0791 29.2 30.0791 29.18 30.0991 29.16C30.0991 29.14 30.1191 29.12 30.1391 29.1C30.1591 29.1 30.1791 29.08 30.1991 29.06C30.2191 29.04 30.2391 29.04 30.2591 29.02C30.2791 29.02 30.3191 29 30.3391 29H30.4991C30.5391 29 30.5591 29.02 30.5791 29.02C30.5991 29.04 30.6191 29.06 30.6391 29.06C30.6591 29.06 30.6791 29.08 30.6991 29.1C30.7191 29.12 30.7191 29.14 30.7391 29.16C30.7591 29.18 30.7791 29.2 30.7791 29.22C30.7791 29.24 30.7991 29.28 30.7991 29.3V29.38C30.7991 29.48 30.7591 29.58 30.6791 29.66L30.6191 29.72C30.5991 29.74 30.5791 29.76 30.5591 29.76C30.5391 29.76 30.4991 29.78 30.4791 29.78H30.3991Z" fill="#3A3A3A"/>
</svg>
