<svg width="1416" height="503" viewBox="0 0 1416 503" fill="none" xmlns="http://www.w3.org/2000/svg">
<path d="M1002.25 362.512L933.508 243.014L1002.25 123.5L1071 243.014L1002.25 362.512Z" fill="#154078"/>
<path d="M1002.26 123.5L933.51 243.014H796L864.763 123.5H1002.26Z" fill="#2E84F6"/>
<path d="M1002.26 362.511L933.51 243.014H796L864.763 362.511H1002.26Z" fill="#2E84F6"/>
<path d="M1209.25 478.512L1140.51 359.014L1209.25 239.5L1278 359.014L1209.25 478.512Z" fill="#154078"/>
<path d="M1209.26 239.5L1140.51 359.014H1003L1071.76 239.5H1209.26Z" fill="#2E84F6"/>
<path d="M1209.26 478.511L1140.51 359.014H1003L1071.76 478.511H1209.26Z" fill="#2E84F6"/>
<path d="M1347.25 239.512L1278.51 120.014L1347.25 0.5L1416 120.014L1347.25 239.512Z" fill="#154078"/>
<path d="M1347.26 0.5L1278.51 120.014H1141L1209.76 0.5H1347.26Z" fill="#2E84F6"/>
<path d="M1347.26 239.511L1278.51 120.014H1141L1209.76 239.511H1347.26Z" fill="#2E84F6"/>
<path d="M110.254 502.512L41.5078 383.014L110.254 263.5L179.001 383.014L110.254 502.512Z" fill="#154078"/>
<path d="M110.256 263.5L41.5096 383.014H-96L-27.2369 263.5H110.256Z" fill="#2E84F6"/>
<path d="M110.256 502.511L41.5096 383.014H-96L-27.2369 502.511H110.256Z" fill="#2E84F6"/>
</svg>
