<svg width="1440" height="1046" viewBox="0 0 1440 1046" fill="none" xmlns="http://www.w3.org/2000/svg">
<path d="M1077.25 239.561L1008.51 120.063L1077.25 0.548828L1146 120.063L1077.25 239.561Z" fill="#154078"/>
<path d="M1077.26 0.548828L1008.51 120.063H871L939.763 0.548828H1077.26Z" fill="#5CB4D3"/>
<path d="M1077.26 239.56L1008.51 120.062H871L939.763 239.56H1077.26Z" fill="#154078"/>
<path d="M1437.25 391.561L1368.51 272.063L1437.25 152.549L1506 272.063L1437.25 391.561Z" fill="#154078"/>
<path d="M1437.26 152.549L1368.51 272.063H1231L1299.76 152.549H1437.26Z" fill="#5CB4D3"/>
<path d="M1437.26 391.56L1368.51 272.062H1231L1299.76 391.56H1437.26Z" fill="#154078"/>
<path d="M68.2543 1045.56L-0.492188 926.063L68.2543 806.549L137.001 926.063L68.2543 1045.56Z" fill="#154078"/>
<path d="M68.2561 806.549L-0.490372 926.063H-138L-69.2369 806.549H68.2561Z" fill="#5CB4D3"/>
<path d="M68.2561 1045.56L-0.490372 926.062H-138L-69.2369 1045.56H68.2561Z" fill="#154078"/>
</svg>
