<svg width="620" height="479" viewBox="0 0 620 479" fill="none" xmlns="http://www.w3.org/2000/svg">
<path d="M206.254 362.789L137.508 243.291L206.254 123.777L275.001 243.291L206.254 362.789Z" fill="#154078"/>
<path d="M206.256 123.777L137.51 243.291H0L68.7631 123.777H206.256Z" fill="#2E84F6"/>
<path d="M206.256 362.789L137.51 243.291H0L68.7631 362.789H206.256Z" fill="#2E84F6"/>
<path d="M413.254 478.789L344.508 359.291L413.254 239.777L482.001 359.291L413.254 478.789Z" fill="#154078"/>
<path d="M413.256 239.777L344.51 359.291H207L275.763 239.777H413.256Z" fill="#2E84F6"/>
<path d="M413.256 478.789L344.51 359.291H207L275.763 478.789H413.256Z" fill="#2E84F6"/>
<path d="M551.254 239.789L482.508 120.291L551.254 0.777344L620.001 120.291L551.254 239.789Z" fill="#154078"/>
<path d="M551.256 0.777344L482.51 120.291H345L413.763 0.777344H551.256Z" fill="#2E84F6"/>
<path d="M551.256 239.789L482.51 120.291H345L413.763 239.789H551.256Z" fill="#2E84F6"/>
</svg>
