<svg width="735" height="662" viewBox="0 0 735 662" fill="none" xmlns="http://www.w3.org/2000/svg">
<path d="M371.077 602.765L646.7 445.041" stroke="url(#paint0_linear_2_1060)" stroke-width="8"/>
<path d="M356.54 600.869L80.9169 443.144" stroke="url(#paint1_linear_2_1060)" stroke-width="8"/>
<path d="M371.077 261.862L646.7 419.587" stroke="url(#paint2_linear_2_1060)" stroke-width="8"/>
<path d="M356.539 261.303L80.9164 419.028" stroke="url(#paint3_linear_2_1060)" stroke-width="8"/>
<rect width="58.5955" height="105.472" rx="8" transform="matrix(0.866025 0.5 -2.20305e-08 1 83.2104 249.703)" fill="#2840F1"/>
<rect width="58.5955" height="105.472" rx="8" transform="matrix(0.866025 0.5 -2.20305e-08 1 79.6934 252.047)" fill="#2208F5"/>
<rect width="58.5955" height="105.472" rx="8" transform="matrix(0.866025 0.5 -2.20305e-08 1 79.6929 254.391)" fill="white"/>
<rect width="41.0169" height="2.34382" rx="1.17191" transform="matrix(0.866025 0.5 -2.20305e-08 1 87.3027 275.778)" fill="#DAE7EB"/>
<rect width="17.5787" height="2.34382" rx="1.17191" transform="matrix(0.866025 0.5 -2.20305e-08 1 97.4546 276.95)" fill="#DAE7EB"/>
<rect width="46.8764" height="17.5787" rx="4" transform="matrix(0.866025 0.5 -2.20305e-08 1 84.769 289.547)" fill="white"/>
<rect width="11.7191" height="11.7191" rx="4" transform="matrix(0.866025 0.5 -2.20305e-08 1 112.679 308.591)" fill="#34BCF0"/>
<rect width="23.4382" height="2.34382" rx="1.17191" transform="matrix(0.866025 0.5 -2.20305e-08 1 87.3027 293.943)" fill="#DAE7EB"/>
<rect width="17.5787" height="1.17191" rx="0.585955" transform="matrix(0.866025 0.5 -2.20305e-08 1 87.3027 297.459)" fill="#DAE7EB"/>
<rect width="14.6489" height="1.17191" rx="0.585955" transform="matrix(0.866025 0.5 -2.20305e-08 1 87.3027 299.802)" fill="#DAE7EB"/>
<rect width="11.7191" height="1.17191" rx="0.585955" transform="matrix(0.866025 0.5 -2.20305e-08 1 87.3027 305.662)" fill="#DAE7EB"/>
<rect width="46.8764" height="17.5787" rx="4" transform="matrix(0.866025 0.5 -2.20305e-08 1 84.769 310.057)" fill="white"/>
<rect width="11.7191" height="11.7191" rx="4" transform="matrix(0.866025 0.5 -2.20305e-08 1 112.679 329.101)" fill="#38E6E6"/>
<rect width="23.4382" height="2.34382" rx="1.17191" transform="matrix(0.866025 0.5 -2.20305e-08 1 87.3027 314.451)" fill="#DAE7EB"/>
<rect width="17.5787" height="1.17191" rx="0.585955" transform="matrix(0.866025 0.5 -2.20305e-08 1 87.3027 317.967)" fill="#DAE7EB"/>
<rect width="14.6489" height="1.17191" rx="0.585955" transform="matrix(0.866025 0.5 -2.20305e-08 1 87.3027 320.311)" fill="#DAE7EB"/>
<rect width="11.7191" height="1.17191" rx="0.585955" transform="matrix(0.866025 0.5 -2.20305e-08 1 87.3027 326.17)" fill="#DAE7EB"/>
<rect width="46.8764" height="17.5787" rx="4" transform="matrix(0.866025 0.5 -2.20305e-08 1 84.769 330.565)" fill="white"/>
<rect width="11.7191" height="11.7191" rx="4" transform="matrix(0.866025 0.5 -2.20305e-08 1 112.679 349.608)" fill="#2C2A8A"/>
<rect width="23.4382" height="2.34382" rx="1.17191" transform="matrix(0.866025 0.5 -2.20305e-08 1 87.3027 334.959)" fill="#DAE7EB"/>
<rect width="17.5787" height="1.17191" rx="0.585955" transform="matrix(0.866025 0.5 -2.20305e-08 1 87.3027 338.475)" fill="#DAE7EB"/>
<rect width="14.6489" height="1.17191" rx="0.585955" transform="matrix(0.866025 0.5 -2.20305e-08 1 87.3027 340.819)" fill="#DAE7EB"/>
<rect width="11.7191" height="1.17191" rx="0.585955" transform="matrix(0.866025 0.5 -2.20305e-08 1 87.3027 346.679)" fill="#DAE7EB"/>
<rect width="93.7528" height="93.7528" rx="8" transform="matrix(0.866025 -0.5 0.866025 0.5 0 443.656)" fill="#6D6D6D"/>
<path fill-rule="evenodd" clip-rule="evenodd" d="M6.92835 439.655C3.10201 441.864 3.10201 445.446 6.92835 447.655L74.331 486.57C78.1573 488.779 84.361 488.779 88.1874 486.57L155.59 447.655C159.416 445.446 159.416 441.864 155.59 439.655L137.33 429.112L154.495 426.229C158.853 425.498 158.853 424.311 154.495 423.579L116.773 417.244L88.1874 400.74C84.361 398.531 78.1573 398.531 74.331 400.74L45.8005 417.212L7.88964 423.579C3.53239 424.311 3.53238 425.498 7.88963 426.229L25.1581 429.13L6.92835 439.655Z" fill="#DEE8F3"/>
<rect width="93.6842" height="93.6842" rx="8" transform="matrix(0.866025 -0.5 0.866025 0.5 0 424.905)" fill="white"/>
<path opacity="0.4" d="M80.697 433.599C88.6957 433.599 95.18 429.855 95.18 425.236C95.18 420.617 88.6957 416.873 80.697 416.873C72.6982 416.873 66.2139 420.617 66.2139 425.236C66.2139 429.855 72.6982 433.599 80.697 433.599Z" fill="#D6D8E5"/>
<path d="M70.3793 363.228C70.2183 364.636 68.5374 370.712 68.8976 372.794C69.2578 374.876 75.0001 378.358 75.0001 378.358L75.7966 374.794L72.6165 371.69L73.4745 365.79L70.3793 363.228Z" fill="#FFCEA9"/>
<path d="M74.8213 357.24C74.0014 356.886 72.4787 356.807 71.6236 358.206C70.7686 359.606 69.9018 364.402 69.8228 365.234C69.8228 365.234 71.0087 366.871 72.7861 366.599L74.8213 357.24Z" fill="#EDEDED"/>
<path d="M81.3796 424.985C82.6294 425.329 83.9643 425.167 85.0956 424.534C85.9887 424.56 90.8466 422.484 91.5084 424.226C92.0941 425.758 89.9828 427.172 88.8584 427.447C86.4045 428.033 84.589 429.266 83.6022 429.474C82.8701 429.629 81.9184 429.731 81.3328 429.155C80.6329 428.464 80.6915 425.901 81.3796 424.985Z" fill="#38226D"/>
<path d="M83.6008 429.052C84.5876 428.847 86.4031 427.623 88.857 427.029C89.7999 426.8 91.4221 425.769 91.5861 424.54C91.8028 425.948 89.9053 427.198 88.857 427.45C86.4031 428.036 84.5876 429.269 83.6008 429.477C82.8687 429.632 81.917 429.734 81.3314 429.157C81.1803 428.99 81.0701 428.789 81.0093 428.572C81.8643 429.28 82.8687 429.207 83.6008 429.052Z" fill="#9C73FF"/>
<path d="M73.4949 421.45C74.7441 421.797 76.0798 421.636 77.2108 421.002C78.1068 421.029 82.9619 418.953 83.6237 420.71C84.2093 422.241 82.098 423.655 80.9736 423.931C78.5197 424.516 76.7042 425.749 75.7203 425.957C74.9853 426.112 74.0337 426.215 73.4509 425.635C72.7482 424.926 72.8097 422.364 73.4949 421.45Z" fill="#38226D"/>
<path d="M75.7253 425.515C76.7092 425.307 78.5247 424.086 80.9785 423.491C81.9214 423.263 83.5437 422.229 83.7077 421.002C83.9273 422.411 82.0269 423.661 80.9785 423.913C78.5247 424.499 76.7092 425.732 75.7253 425.939C74.9903 426.095 74.0386 426.197 73.4559 425.617C73.3026 425.451 73.1921 425.25 73.1338 425.032C73.9859 425.74 74.9903 425.67 75.7253 425.515Z" fill="#9C73FF"/>
<path d="M73.3985 408.253C73.6088 406.448 73.9842 404.667 74.52 402.932C74.52 402.932 74.1862 398.338 74.0193 393.986C73.829 389.046 72.1159 384.698 73.4659 380.756L88.7103 384.147C88.7103 384.147 87.7879 403.843 87.5829 406.226C87.4727 408.081 87.2458 409.928 86.9036 411.755C86.2066 415.579 85.0763 424.674 85.0763 424.674C83.4629 425.611 81.3487 425.093 81.3487 425.093C81.3487 425.093 81.4658 413.591 81.5683 410.835C81.6942 407.471 81.7967 407.728 81.7967 407.728L81.2931 399.351L80.9651 395.181C80.9651 395.181 80.5434 398.241 80.2682 400.973C80.0281 403.357 79.4541 405.512 78.8041 409.945C78.2477 413.793 77.3399 421.523 77.3399 421.523C75.7294 422.46 73.5332 421.684 73.5332 421.684C73.5332 421.684 72.9622 411.591 73.3985 408.253Z" fill="#154078"/>
<path d="M75.6241 357.322C76.7954 357.38 77.6504 357.679 77.7968 357.322C77.9208 356.722 78.0088 356.116 78.0604 355.506C77.9257 355.169 77.8115 354.809 77.8115 354.809C76.3473 353.91 75.8935 352.335 75.7002 350.502C75.3752 347.366 77.0677 344.619 80.2038 344.291C83.1526 343.998 85.3224 346.048 85.8993 348.903C86.2126 350.306 86.8334 352.962 85.993 355.272C85.5244 356.563 84.9212 357.588 84.3151 357.787C83.7318 357.77 83.1501 357.72 82.5728 357.635C82.5728 357.635 82.4176 358.513 82.3092 359.064C82.2009 359.615 82.2448 359.919 83.3575 360.607C84.4703 361.295 81.6738 362.701 79.8437 362.563C78.0135 362.426 75.9637 361.322 75.3986 360.139C74.7749 358.836 74.8276 357.284 75.6241 357.322Z" fill="#FFCEA9"/>
<path d="M77.305 357.495C76.9829 358.297 77.7999 359.278 79.9814 359.963C82.163 360.648 82.3562 359.767 82.3562 359.767C82.3562 359.767 85.5539 361.231 86.5934 361.949C87.9023 362.865 88.4821 365.512 88.6607 369.981C88.8628 375.152 88.8803 382.824 88.7105 384.148C88.7105 384.148 86.2654 386.584 83.1469 386.326C80.0283 386.068 74.7516 383.301 73.4837 381.161C73.5188 376.628 74.0488 375.89 73.3138 373.278C71.633 367.298 70.7487 364.85 71.5569 360.877C72.2304 357.6 73.1733 357.193 74.4675 357.225C75.4175 357.265 76.3646 357.355 77.305 357.495Z" fill="#F4F4F4"/>
<path d="M93.5787 374.257C91.0106 374.904 90.4074 373.284 90.0648 371.943C89.2478 368.696 88.8086 365.765 88.1995 363.923C87.4821 361.75 86.7354 361.402 85.6754 360.98C84.4338 360.482 83.3679 361.53 83.7808 364.295C84.2698 367.568 84.9111 369.858 86.1234 373.738C86.4426 374.748 87.1571 376.546 88.2317 377.413C89.5553 378.485 91.5524 378.438 94.5714 377.688C95.8598 377.366 97.2712 376.596 99.7075 375.46C100.361 375.167 100.879 374.953 102.123 374.368C103.368 373.782 104.686 372.807 105.344 371.855C106.003 370.904 106.088 370.456 105.953 370.239C105.787 369.967 105.488 370.025 105.136 370.426C104.629 371.104 104.003 371.683 103.289 372.136C103.289 372.136 104.1 371.299 104.539 370.754C104.933 370.272 105.26 369.738 105.511 369.167C105.743 368.611 105.265 367.858 104.902 368.254C104.539 368.649 104.366 369.053 103.702 369.85C103.351 370.273 102.951 370.653 102.51 370.983C102.922 370.427 103.289 369.84 103.608 369.226C104.03 368.365 104.024 367.923 104.006 367.633C103.989 367.343 103.579 366.997 103.195 367.545C102.847 368.04 102.609 368.813 101.816 369.653C101.23 370.262 100.729 370.614 100.715 370.444C100.7 370.274 101.069 369.94 101.28 369.232C101.491 368.523 101.28 367.768 100.888 367.691C100.495 367.615 100.571 367.633 100.255 368.295C99.9389 368.956 99.4586 369.448 99.0838 370.418C98.7588 371.27 98.6124 371.615 98.0267 372.236C97.4147 372.898 96.0209 373.642 93.5787 374.257Z" fill="#FFCEA9"/>
<path d="M84.7293 360.534C86.4453 360.282 87.6576 361.056 88.4131 363.653C89.1686 366.25 89.7015 368.385 89.7015 368.385C89.0223 369.364 87.9946 370.046 86.8289 370.291C84.7791 370.789 84.0383 369.808 84.0383 369.808C84.0383 369.808 83.4526 367.085 83.113 365.231C82.7733 363.378 82.6064 360.856 84.7293 360.534Z" fill="#EDEDED"/>
<path d="M85.8021 348.502C85.8021 348.502 88.5136 344.382 82.6425 343.542C78.4083 342.938 75.685 345.659 75.3717 348.61C75.0788 351.43 76.8094 354.359 78.0627 355.521C78.6747 355.741 79.9924 355.867 81.723 355.079C81.7923 354.311 81.8187 353.54 81.8021 352.769C81.8021 352.769 79.7377 348.426 85.8021 348.502Z" fill="#3A2C6D"/>
<rect width="180.765" height="93.904" rx="8" transform="matrix(0.866025 -0.5 2.20305e-08 1 513.339 336.924)" fill="#2840F1"/>
<rect width="180.765" height="93.904" rx="8" transform="matrix(0.866025 -0.5 2.20305e-08 1 522.729 344.554)" fill="white"/>
<rect width="0.5869" height="45.1913" transform="matrix(0.866025 -0.5 2.20305e-08 1 532.897 374.486)" fill="#E1ECEF"/>
<rect width="0.5869" height="45.1913" transform="matrix(0.866025 -0.5 2.20305e-08 1 554.244 362.161)" fill="#E1ECEF"/>
<rect width="0.5869" height="45.1913" transform="matrix(0.866025 -0.5 2.20305e-08 1 575.591 349.836)" fill="#E1ECEF"/>
<rect width="0.5869" height="45.1913" transform="matrix(0.866025 -0.5 2.20305e-08 1 596.938 337.511)" fill="#E1ECEF"/>
<rect width="0.5869" height="45.1913" transform="matrix(0.866025 -0.5 2.20305e-08 1 618.285 325.186)" fill="#E1ECEF"/>
<path d="M532.897 414.983L546.165 392.231L553.309 396.233L564.875 376.398L575.081 370.506L588.348 347.754L596.683 352.423L601.616 343.964L611.481 349.49L618.795 336.947" stroke="#60EBEB" stroke-width="4" stroke-linecap="round" stroke-linejoin="round"/>
<path d="M532.897 414.982L546.165 399.776L553.309 399.715L564.875 386.458L575.081 380.566L588.348 365.36L596.683 365.289L601.616 359.635L611.481 359.551L618.795 351.168" stroke="#2208F5" stroke-width="4" stroke-linecap="round" stroke-linejoin="round"/>
<path d="M532.897 414.983L546.165 404.557L553.309 401.922L564.875 392.832L575.081 386.94L588.348 376.513L596.683 373.439L601.616 369.562C601.616 369.562 607.628 367.345 611.481 365.924L618.795 360.176" stroke="#8C50FF" stroke-width="4" stroke-linecap="round" stroke-linejoin="round"/>
<rect width="99.1861" height="7.0428" rx="2" transform="matrix(0.866025 -0.5 2.20305e-08 1 532.894 350.423)" fill="#E1ECEF"/>
<rect width="74.5363" height="4.6952" rx="2" transform="matrix(0.866025 -0.5 2.20305e-08 1 532.894 360.988)" fill="#E1ECEF"/>
<rect width="37.5616" height="4.6952" rx="2" transform="matrix(0.866025 -0.5 2.20305e-08 1 634.04 296.722)" fill="#E1ECEF"/>
<rect width="16.4332" height="2.3476" rx="1.1738" transform="matrix(0.866025 -0.5 2.20305e-08 1 535.439 373.019)" fill="#E1ECEF"/>
<rect width="16.4332" height="2.3476" rx="1.1738" transform="matrix(0.866025 -0.5 2.20305e-08 1 556.786 360.694)" fill="#E1ECEF"/>
<rect width="16.4332" height="2.3476" rx="1.1738" transform="matrix(0.866025 -0.5 2.20305e-08 1 578.133 348.369)" fill="#E1ECEF"/>
<rect width="16.4332" height="2.3476" rx="1.1738" transform="matrix(0.866025 -0.5 2.20305e-08 1 599.476 336.044)" fill="#E1ECEF"/>
<rect width="9.3904" height="2.3476" rx="1.1738" transform="matrix(0.866025 -0.5 2.20305e-08 1 535.439 375.954)" fill="#E1ECEF"/>
<rect width="9.3904" height="2.3476" rx="1.1738" transform="matrix(0.866025 -0.5 2.20305e-08 1 556.786 363.628)" fill="#E1ECEF"/>
<rect width="9.3904" height="2.3476" rx="1.1738" transform="matrix(0.866025 -0.5 2.20305e-08 1 578.133 351.304)" fill="#E1ECEF"/>
<rect width="9.3904" height="2.3476" rx="1.1738" transform="matrix(0.866025 -0.5 2.20305e-08 1 599.476 338.979)" fill="#E1ECEF"/>
<rect width="31.6926" height="2.3476" rx="1.1738" transform="matrix(0.866025 -0.5 2.20305e-08 1 634.04 304.939)" fill="#E1ECEF"/>
<rect width="21.1284" height="2.3476" rx="1.1738" transform="matrix(0.866025 -0.5 2.20305e-08 1 638.616 348.663)" fill="#E1ECEF"/>
<path d="M660.473 315.503C660.473 323.606 654.784 333.46 647.766 337.512C640.748 341.563 635.059 338.279 635.059 330.175C635.059 322.072 640.748 312.218 647.766 308.167C654.784 304.115 660.473 307.4 660.473 315.503ZM638.871 327.975C638.871 333.647 642.853 335.946 647.766 333.11C652.678 330.274 656.661 323.376 656.661 317.704C656.661 312.031 652.678 309.732 647.766 312.568C642.853 315.405 638.871 322.302 638.871 327.975Z" fill="#60EBEB"/>
<path d="M660.473 315.503C660.473 318.405 659.727 321.672 658.331 324.891C656.935 328.11 654.95 331.136 652.629 333.587C650.307 336.038 647.752 337.804 645.287 338.661C642.822 339.518 640.558 339.428 638.781 338.402C637.004 337.376 635.794 335.46 635.303 332.897C634.813 330.334 635.065 327.238 636.026 324.002C636.988 320.766 638.617 317.534 640.706 314.715C642.796 311.897 645.253 309.618 647.766 308.167L647.766 312.568C646.007 313.584 644.287 315.179 642.824 317.152C641.361 319.125 640.221 321.388 639.548 323.653C638.875 325.919 638.699 328.085 639.042 329.88C639.385 331.674 640.232 333.015 641.476 333.733C642.72 334.451 644.305 334.514 646.031 333.914C647.756 333.315 649.544 332.079 651.17 330.363C652.795 328.647 654.184 326.529 655.162 324.275C656.139 322.022 656.661 319.735 656.661 317.704L660.473 315.503Z" fill="#2208F5"/>
<path d="M660.473 315.503C660.473 317.754 660.024 320.233 659.162 322.749C658.3 325.265 657.048 327.751 655.501 330.014C653.955 332.276 652.156 334.256 650.245 335.799C648.333 337.341 646.36 338.406 644.477 338.91L645.464 334.089C646.782 333.736 648.163 332.991 649.501 331.911C650.839 330.831 652.098 329.445 653.181 327.861C654.263 326.277 655.14 324.537 655.743 322.776C656.347 321.015 656.661 319.279 656.661 317.704L660.473 315.503Z" fill="#8C50FF"/>
<rect width="93.7521" height="93.7521" rx="8" transform="matrix(0.866025 -0.5 0.866025 0.5 572.617 445.337)" fill="#6D6D6D"/>
<path fill-rule="evenodd" clip-rule="evenodd" d="M579.545 441.338C575.719 443.547 575.719 447.129 579.545 449.338L646.88 488.214C650.707 490.423 656.91 490.423 660.737 488.214L728.072 449.338C731.898 447.129 731.898 443.547 728.072 441.338L709.841 430.812L727.111 427.912C731.468 427.18 731.468 425.993 727.111 425.262L689.198 418.894L660.737 402.462C656.91 400.253 650.707 400.253 646.88 402.462L618.42 418.894L580.506 425.262C576.149 425.994 576.149 427.18 580.506 427.912L597.776 430.812L579.545 441.338Z" fill="#DEE8F3"/>
<rect width="93.7521" height="93.7521" rx="8" transform="matrix(0.866025 -0.5 0.866025 0.5 572.617 426.586)" fill="#FDFDFD"/>
<path opacity="0.4" d="M655.237 434.11C663.043 434.11 669.371 430.455 669.371 425.947C669.371 421.439 663.043 417.785 655.237 417.785C647.431 417.785 641.103 421.439 641.103 425.947C641.103 430.455 647.431 434.11 655.237 434.11Z" fill="#D6D8E5"/>
<path d="M666.922 363.786C667.085 365.196 668.768 371.29 668.407 373.376C668.046 375.461 662.31 378.953 662.31 378.953L661.533 375.377L664.718 372.276L663.858 366.354L666.922 363.786Z" fill="#FFCEA9"/>
<path d="M662.469 357.785C663.029 357.525 663.665 357.479 664.256 357.657C664.847 357.835 665.352 358.224 665.676 358.75C666.515 360.156 667.405 364.957 667.48 365.784C667.48 365.784 666.292 367.429 664.513 367.152L662.469 357.785Z" fill="#EDEDED"/>
<path d="M655.902 425.717C654.649 426.062 653.311 425.901 652.176 425.268C651.278 425.293 646.409 423.212 645.746 424.962C645.167 426.514 647.274 427.899 648.403 428.185C650.862 428.785 652.671 430.01 653.67 430.216C654.408 430.371 655.348 430.476 655.948 429.897C656.649 429.183 656.591 426.615 655.902 425.717Z" fill="#38226D"/>
<path d="M653.668 429.775C652.682 429.565 650.86 428.34 648.401 427.744C647.457 427.517 645.828 426.485 645.665 425.251C645.447 426.661 647.343 427.916 648.401 428.168C650.86 428.768 652.669 429.993 653.668 430.199C654.406 430.354 655.346 430.459 655.947 429.88C656.098 429.71 656.209 429.508 656.27 429.288C655.904 429.565 655.478 429.754 655.026 429.838C654.575 429.923 654.11 429.901 653.668 429.775Z" fill="#9C73FF"/>
<path d="M663.799 422.154C662.546 422.502 661.206 422.34 660.072 421.705C659.174 421.731 654.306 419.645 653.647 421.395C653.064 422.931 655.174 424.333 656.299 424.622C658.758 425.218 660.567 426.448 661.566 426.657C662.305 426.813 663.245 426.913 663.845 426.334C664.546 425.638 664.504 423.069 663.799 422.154Z" fill="#38226D"/>
<path d="M661.57 426.228C660.583 426.018 658.762 424.793 656.303 424.197C655.359 423.97 653.73 422.938 653.588 421.704C653.369 423.114 655.266 424.369 656.303 424.621C658.762 425.217 660.571 426.446 661.57 426.656C662.308 426.811 663.248 426.912 663.848 426.333C663.999 426.162 664.109 425.96 664.172 425.741C663.805 426.019 663.38 426.207 662.928 426.291C662.476 426.376 662.011 426.354 661.57 426.228Z" fill="#9C73FF"/>
<path d="M663.897 408.929C663.687 407.122 663.31 405.338 662.772 403.599C662.772 403.599 663.108 398.983 663.276 394.627C663.465 389.675 665.185 385.315 663.826 381.37L648.558 384.756C648.558 384.756 649.481 404.502 649.691 406.877C649.801 408.736 650.03 410.586 650.375 412.417C651.072 416.252 652.205 425.368 652.205 425.368C653.821 426.308 655.94 425.787 655.94 425.787C655.94 425.787 655.827 414.259 655.722 411.493C655.596 408.136 655.491 408.392 655.491 408.392L655.995 399.999L656.326 395.823C656.326 395.823 656.746 398.891 657.023 401.644C657.266 404.032 657.841 406.193 658.487 410.637C659.046 414.494 659.952 422.245 659.952 422.245C661.568 423.185 663.763 422.405 663.763 422.405C663.763 422.405 664.329 412.287 663.897 408.929Z" fill="#8C50FF"/>
<path d="M661.662 357.865C660.5 357.923 659.631 358.221 659.484 357.865C659.362 357.263 659.274 356.655 659.22 356.043C659.354 355.707 659.472 355.347 659.472 355.347C660.932 354.444 661.411 352.866 661.57 351.028C661.897 347.881 660.198 345.153 657.054 344.817C654.096 344.511 651.926 346.588 651.347 349.433C651.032 350.844 650.411 353.5 651.255 355.821C651.72 357.113 652.329 358.146 652.933 358.339C653.519 358.322 654.103 358.272 654.683 358.188C654.683 358.188 654.843 359.061 654.948 359.619C655.053 360.177 655.015 360.458 653.898 361.172C652.782 361.885 655.577 363.27 657.415 363.136C659.253 363.001 661.297 361.877 661.876 360.706C662.518 359.384 662.464 357.827 661.662 357.865Z" fill="#FFCEA9"/>
<path d="M659.983 358.041C660.306 358.843 659.484 359.825 657.301 360.513C655.119 361.201 654.918 360.316 654.918 360.316C654.918 360.316 651.711 361.776 650.666 362.502C649.357 363.421 648.778 366.073 648.597 370.555C648.392 375.738 648.379 383.427 648.547 384.757C648.547 384.757 651.002 387.199 654.137 386.939C657.272 386.679 662.53 383.909 663.84 381.765C663.802 377.22 663.273 376.477 664.008 373.862C665.686 367.865 666.58 365.415 665.762 361.445C665.086 358.159 664.138 357.751 662.824 357.785C661.873 357.818 660.925 357.904 659.983 358.041Z" fill="#F4F4F4"/>
<path d="M643.681 375.709C646.257 376.359 646.858 374.735 647.202 373.38C648.041 370.127 648.461 367.173 649.069 365.343C649.787 363.161 650.542 362.825 651.587 362.405C652.846 361.91 653.916 362.959 653.484 365.733C652.997 369.011 652.351 371.319 651.126 375.197C650.807 376.213 650.089 378.013 649.027 378.882C647.701 379.956 645.703 379.91 642.673 379.159C641.381 378.835 639.958 378.067 637.524 376.926C636.869 376.62 636.362 376.418 635.103 375.831C633.839 375.264 632.732 374.4 631.875 373.313C631.212 372.356 631.128 371.907 631.263 371.689C631.397 371.47 631.729 371.474 632.102 371.882C632.613 372.558 633.241 373.136 633.957 373.59C633.957 373.59 633.143 372.75 632.698 372.205C632.302 371.721 631.975 371.186 631.724 370.614C631.489 370.06 631.968 369.305 632.333 369.699C632.698 370.094 632.874 370.501 633.541 371.298C633.884 371.718 634.275 372.094 634.708 372.419C634.295 371.859 633.927 371.266 633.609 370.648C633.332 370.161 633.197 369.608 633.218 369.049C633.218 368.759 633.638 368.411 634.058 368.965C634.477 369.519 634.628 370.224 635.443 371.063C636.026 371.676 636.529 372.024 636.542 371.856C636.555 371.689 636.185 371.353 635.976 370.644C635.766 369.934 635.976 369.179 636.366 369.091C636.756 369.003 636.685 369.028 637 369.695C637.314 370.362 637.797 370.862 638.162 371.823C638.36 372.507 638.724 373.133 639.22 373.644C639.82 374.345 641.217 375.092 643.681 375.709Z" fill="#FFCEA9"/>
<path d="M652.54 361.965C650.819 361.705 649.602 362.481 648.847 365.066C648.091 367.652 647.562 369.821 647.562 369.821C648.244 370.804 649.276 371.488 650.446 371.735C652.502 372.23 653.236 371.252 653.236 371.252C653.236 371.252 653.807 368.533 654.164 366.661C654.521 364.789 654.667 362.271 652.54 361.965Z" fill="#EDEDED"/>
<path d="M651.46 349.022C651.46 349.022 648.745 344.893 654.628 344.054C658.876 343.445 661.616 346.152 661.918 349.132C662.22 351.956 660.479 354.898 659.22 356.06C658.607 356.283 657.281 356.404 655.556 355.641C655.482 354.867 655.454 354.089 655.472 353.311C655.472 353.311 657.541 348.951 651.46 349.022Z" fill="#3A2C6D"/>
<path d="M665.373 367.325L648.557 383.003L647.575 413.152C647.575 413.152 652.292 415.456 657.647 414.21L658.629 402.636L660.114 413.127L659.938 413.446C662.478 412.308 664.656 410.493 666.233 408.2L665.373 367.325Z" fill="#F4F4F4"/>
<path d="M647.562 369.821L646.723 373.459C646.723 373.459 646.018 376.007 644.205 375.36C642.498 374.642 640.835 373.825 639.224 372.914L637.05 377.375L641.544 379.473C641.544 379.473 647.785 381.697 649.518 379.473C651.251 377.249 653.199 371.243 653.199 371.243L647.562 369.821Z" fill="#EDEDED"/>
<rect width="93.7521" height="93.7521" rx="8" transform="matrix(0.866025 -0.5 0.866025 0.5 280.186 614.902)" fill="#6D6D6D"/>
<path fill-rule="evenodd" clip-rule="evenodd" d="M287.11 610.904C283.284 613.113 283.284 616.694 287.11 618.904L354.445 657.78C358.272 659.989 364.475 659.989 368.302 657.78L435.637 618.904C439.463 616.694 439.463 613.113 435.637 610.904L417.406 600.378L434.676 597.477C439.033 596.745 439.033 595.559 434.676 594.827L396.762 588.459L368.302 572.027C364.475 569.818 358.272 569.818 354.445 572.027L325.985 588.459L288.071 594.827C283.714 595.559 283.714 596.745 288.071 597.477L305.341 600.378L287.11 610.904Z" fill="#DEE8F3"/>
<rect width="93.7521" height="93.7521" rx="8" transform="matrix(0.866025 -0.5 0.866025 0.5 280.186 596.151)" fill="#FDFDFD"/>
<path opacity="0.4" d="M361.347 576.134C367.983 576.134 373.364 573.028 373.364 569.196C373.364 565.365 367.983 562.258 361.347 562.258C354.71 562.258 349.33 565.365 349.33 569.196C349.33 573.028 354.71 576.134 361.347 576.134Z" fill="#D6D8E5"/>
<path d="M360.819 504.319C361.301 503.545 364.982 503.037 366.195 506.156C366.65 507.338 366.581 510.362 366.968 512.258C367.355 514.154 368.255 515.234 368.557 516.775C368.859 518.316 368.356 520.896 364.643 521.356C360.93 521.817 358.076 520.509 357.197 519.323C356.317 518.136 356.302 515.615 357.197 514.276C358.092 512.936 358.785 511.823 358.785 510.039L360.819 504.319Z" fill="#3A2C6D"/>
<path d="M356.409 517.368C356.409 517.368 355.535 523.549 357.188 527.897C358.84 532.245 358.379 526.769 358.379 526.769L357.982 525.466C357.982 525.466 357.654 520.435 357.791 519.201C357.929 517.967 357.897 516.908 357.982 516.807C358.067 516.706 357.659 516.51 357.484 516.484C357.309 516.457 356.409 517.368 356.409 517.368Z" fill="#FFCEA9"/>
<path d="M363.245 503.783C363.245 503.783 360.475 502.984 358.796 504.483C358.242 504.993 357.838 505.645 357.629 506.369C357.419 507.093 357.413 507.86 357.61 508.587C357.832 509.461 358.282 510.658 358.976 510.706C359.67 510.753 363.245 503.783 363.245 503.783Z" fill="#3A2C6D"/>
<path d="M364.307 511.368C364.307 511.368 364.127 514.455 364.185 514.683C364.243 514.911 365.393 515.128 365.721 515.398C366.049 515.668 364.042 518.798 363.02 519.264C361.998 519.73 358.846 518.544 358.629 516.971C358.428 515.53 359.53 514.408 359.959 514.016C360.248 513.997 360.538 513.997 360.827 514.016L360.917 512.522C362.3 512.03 364.307 511.368 364.307 511.368Z" fill="#FFCEA9"/>
<path d="M364.729 514.953C365.597 515.091 366.588 515.551 366.725 516.012C367.084 517.723 366.998 519.497 366.476 521.165C365.724 523.151 365.221 524.417 364.787 525.275C364.787 525.275 361.032 526.864 358.008 525.005C358.008 525.005 357.796 522.887 357.785 521.737C354.989 519.301 357.377 516.293 359.745 513.957C360.029 513.936 360.314 513.936 360.598 513.957C360.598 513.957 358.479 516.457 359.957 517.876C363.097 516.928 363.722 515.52 364.729 514.953Z" fill="#F4F4F4"/>
<path d="M358.541 507.513C358.853 505.527 360.283 504.028 362.333 504.15C363.163 504.189 363.959 504.49 364.607 505.009C365.255 505.529 365.723 506.24 365.942 507.041C366.161 507.843 366.121 508.693 365.828 509.47C365.534 510.247 365.002 510.912 364.308 511.368C364.238 511.667 364.133 511.957 363.996 512.231C363.27 513.079 361.348 513.614 360.707 513.619C360.177 513.619 359.685 513.116 359.171 512.263C358.096 510.463 358.371 508.492 358.541 507.513Z" fill="#FFCEA9"/>
<path d="M362.962 504.185C364.398 504.466 365.579 504.869 365.971 506.277C366.236 507.252 366.585 509.1 366.251 509.879L366.05 510.445L364.308 511.367C364.308 511.367 363.497 510.689 363.752 508.719C363.74 508.451 363.656 508.191 363.508 507.967C363.398 507.781 363.315 507.579 363.264 507.368C363.059 506.834 362.657 506.399 362.142 506.15C360.844 505.425 358.964 506.05 358.688 506.314C359.045 505.52 359.666 504.874 360.445 504.486C361.224 504.098 362.114 503.992 362.962 504.185Z" fill="#3A2C6D"/>
<path d="M366.826 529.374C367.149 527.361 367.752 526.058 367.472 524.952C366.846 522.713 366.027 520.534 365.025 518.437C364.389 517.187 364.585 516.319 365.242 515.821C365.984 515.291 366.688 515.508 367.361 516.88C368.203 518.623 369.145 520.413 369.606 523.008C369.902 524.686 369.88 526.406 369.543 528.076C369.257 529.882 368.685 530.899 368.001 532.594C367.811 533.081 366.55 531.09 366.826 529.374Z" fill="#FFCEA9"/>
<path d="M365.573 566.887C364.848 567.475 363.714 567.067 363.661 567.12C362.818 567.848 361.934 568.527 361.013 569.154C360.558 569.509 359.853 569.986 359.98 570.674C360.208 571.898 362.168 571.521 362.909 571.145C363.651 570.769 364.249 570.15 364.948 569.716C365.451 569.403 365.939 569.244 366.007 568.614C366.055 568.233 365.7 566.871 365.573 566.887Z" fill="#38226D"/>
<path d="M365.998 568.36C365.902 568.964 365.42 569.134 364.938 569.42C364.229 569.859 363.604 570.479 362.862 570.871C362.121 571.263 360.474 571.559 359.997 570.685C360.257 571.866 362.184 571.496 362.915 571.125C363.646 570.754 364.255 570.129 364.954 569.695C365.457 569.383 365.945 569.224 366.014 568.593C366.014 568.515 366.009 568.438 365.998 568.36Z" fill="#9C73FF"/>
<path d="M360.473 565.865C359.811 566.394 358.805 566.103 358.757 566.156C357.981 566.818 357.17 567.437 356.326 568.01C355.908 568.333 355.267 568.772 355.378 569.397C355.59 570.52 357.385 570.176 358.063 569.832C358.741 569.487 359.292 568.921 359.933 568.523C360.388 568.238 360.838 568.089 360.913 567.512C360.955 567.162 360.595 565.854 360.473 565.865Z" fill="#38226D"/>
<path d="M360.896 567.28C360.806 567.836 360.366 567.984 359.911 568.27C359.259 568.673 358.687 569.255 358.009 569.6C357.332 569.944 355.822 570.23 355.361 569.43C355.6 570.489 357.363 570.171 358.009 569.833C358.656 569.494 359.238 568.922 359.879 568.524C360.334 568.238 360.785 568.09 360.859 567.513C360.878 567.436 360.891 567.358 360.896 567.28Z" fill="#9C73FF"/>
<path d="M356.557 532.076C356.88 529.571 357.802 525.932 357.802 525.932C358.675 526.342 359.619 526.578 360.582 526.626C361.992 526.617 363.398 526.479 364.782 526.213C365.235 527.003 365.73 527.769 366.265 528.506C366.985 529.507 368.384 531.684 368.05 535.545C367.833 538.05 366.424 548.7 366.424 548.7C366.971 550.492 367.262 552.351 367.287 554.224C367.16 556.448 366.866 558.659 366.408 560.839L365.571 566.887C365.571 566.887 364.454 567.692 363.659 567.12L363.76 561.205C363.665 559.759 363.522 557.624 363.426 556.258C363.278 554.039 362.897 550.512 362.764 549.627C362.632 548.743 362.367 547.207 362.235 545.48C362.102 543.754 361.451 534.994 361.451 534.994L361.361 536.636C361.361 536.636 361.271 539.284 360.89 542.589C360.508 545.893 360.36 547.355 360.36 547.355C360.722 548.017 360.976 548.732 361.112 549.474C361.181 550.183 361.991 555.829 361.504 558.668L360.519 565.918C360.27 566.089 359.985 566.199 359.686 566.239C359.386 566.278 359.082 566.247 358.798 566.146L358.21 558.816C357.818 556.025 356.986 550.114 356.859 549.347C356.576 547.799 356.41 546.232 356.361 544.659C356.165 541.487 356.24 534.581 356.557 532.076Z" fill="#FFCEA9"/>
<path d="M364.79 525.291L366.945 529.623C366.945 529.623 370.239 534.442 366.829 546.825L367.47 550.643C367.47 550.643 361.013 554.79 356.692 550.643C356.692 550.643 355.193 539.198 355.993 533.923C356.433 530.888 357.106 527.89 358.005 524.957C358.005 524.957 359.064 526.127 364.504 525.354" fill="#F9A72E"/>
<path d="M368.663 519.339C368.663 519.339 367.164 520.832 365.385 520.647L364.532 517.723C364.532 517.723 364.003 516.203 365.274 515.536C366.545 514.869 367.917 516.362 368.663 519.339Z" fill="#EDEDED"/>
<path d="M359.746 513.973C359.746 513.973 358.03 513.444 356.214 517.251L356.892 517.659C357.742 516.356 358.697 515.123 359.746 513.973Z" fill="#EDEDED"/>
<path opacity="0.4" d="M314.578 602.963C321.921 602.963 327.873 599.527 327.873 595.287C327.873 591.048 321.921 587.611 314.578 587.611C307.235 587.611 301.283 591.048 301.283 595.287C301.283 599.527 307.235 602.963 314.578 602.963Z" fill="#D6D8E5"/>
<path d="M308.316 593.36C309.224 594.098 310.56 593.424 310.624 593.494C311.691 594.479 312.808 595.408 313.97 596.278C314.556 596.723 315.418 597.315 315.253 598.17C314.972 599.694 312.529 599.225 311.603 598.756C310.677 598.287 309.927 597.52 309.054 596.998C308.433 596.612 307.824 596.412 307.724 595.627C307.642 595.129 308.134 593.342 308.316 593.36Z" fill="#2B2A30"/>
<path d="M307.729 595.287C307.852 596.037 308.455 596.248 309.071 596.628C309.961 597.179 310.741 597.976 311.661 598.439C312.58 598.902 314.637 599.3 315.235 598.211C314.913 599.681 312.51 599.218 311.596 598.755C310.682 598.293 309.92 597.519 309.047 596.998C308.426 596.611 307.817 596.412 307.717 595.626C307.712 595.513 307.716 595.399 307.729 595.287Z" fill="#BF4B4B"/>
<path d="M316.157 590.436C317.065 591.174 318.647 590.371 318.717 590.436C319.659 591.392 320.655 592.294 321.7 593.137C322.286 593.577 323.147 594.174 322.989 595.03C322.702 596.553 320.259 596.084 319.339 595.616C318.419 595.147 317.663 594.373 316.79 593.858C316.169 593.471 315.553 593.272 315.46 592.487C315.401 591.989 315.999 590.418 316.157 590.436Z" fill="#2B2A30"/>
<path d="M315.481 592.252C315.604 593.002 316.208 593.213 316.823 593.594C317.713 594.145 318.493 594.941 319.413 595.41C320.333 595.879 322.389 596.266 322.987 595.176C322.665 596.647 320.262 596.19 319.348 595.727C318.434 595.264 317.678 594.484 316.805 593.939C316.178 593.553 315.569 593.354 315.469 592.568C315.465 592.463 315.469 592.357 315.481 592.252Z" fill="#BF4B4B"/>
<path d="M308.236 559.913C308.283 561.284 308.705 567.238 308.898 570.384C309.091 573.531 309.132 577.416 309.132 577.416C309.132 577.416 308.587 579.707 308.236 582.408C307.884 585.109 308.236 593.617 308.236 593.617C308.585 593.844 308.992 593.964 309.408 593.964C309.824 593.964 310.231 593.844 310.58 593.617C310.58 593.617 312.033 586.802 312.701 583.732C313.369 580.662 313.492 578.892 313.838 576.994C314.259 574.691 315.168 563.95 315.168 563.95H315.531L316.504 576.074C316.203 576.968 315.997 577.891 315.888 578.828C315.625 580.802 316.17 590.74 316.17 590.74C316.557 590.955 316.996 591.059 317.438 591.041C317.881 591.022 318.31 590.882 318.677 590.635C318.677 590.635 321.097 577.474 321.097 575.476C321.097 574.146 320.875 556.685 320.875 556.685L308.236 559.913Z" fill="#4696F5"/>
<path d="M311.528 533.435C311.528 533.435 311.68 536.423 311.616 536.687C311.551 536.95 310.244 537.823 309.858 538.14C309.471 538.456 311.926 540.847 313.116 541.433C314.305 542.019 318.073 540.542 318.137 538.691C318.202 536.839 317.493 535.286 316.918 535.204C316.344 535.122 311.528 533.435 311.528 533.435Z" fill="#FFCEA9"/>
<path d="M319.702 538.977C319.878 537.659 319.011 536.405 319.848 535.356C322.778 538.251 322.427 545.903 323.095 550.796C325.286 553.081 329.687 555.337 330.923 555.894C331.146 555.999 331.345 556.11 331.298 556.351C331.132 557.165 330.781 557.931 330.272 558.589C327.343 557.335 325.263 556.614 321.624 553.157C321.279 552.783 320.971 552.377 320.704 551.944C319.667 548.827 319.403 541.251 319.702 538.977Z" fill="#FFCEA9"/>
<path d="M311.192 537.202C311.192 537.202 313.36 540.43 316.383 540.717C317.338 539.78 317.42 536.434 316.102 535.362C316.102 535.362 317.315 534.383 318.147 534.571C319.048 535.114 319.719 535.969 320.034 536.973C320.8 539.196 321.161 541.537 321.1 543.887C321.047 547.057 321.1 556.743 321.1 556.743C321.1 556.743 320.678 558.788 317.942 560.312C315.205 561.835 313.172 561.987 311.315 561.554C309.785 561.196 308.52 560.657 307.992 559.55C308.133 557.323 309.123 551.528 308.754 548.733C308.385 545.938 307.793 543.858 307.641 541.596C307.488 539.335 307.934 539.381 309.07 538.579C309.743 538.069 310.452 537.608 311.192 537.202Z" fill="#F4F4F4"/>
<path d="M318.276 528.981C317.919 526.637 316.249 524.879 313.852 525.037C312.891 525.088 311.97 525.439 311.218 526.042C310.467 526.644 309.924 527.467 309.665 528.394C309.406 529.321 309.445 530.306 309.776 531.211C310.106 532.115 310.712 532.892 311.509 533.434C311.591 533.785 311.715 534.125 311.878 534.448C312.721 535.438 315.282 536.047 316.014 535.942C316.452 535.907 316.87 535.742 317.212 535.467C317.555 535.192 317.807 534.821 317.936 534.401C318.733 532.561 318.481 530.123 318.276 528.981Z" fill="#FFCEA9"/>
<path d="M311.527 533.434L311.744 531.407C311.744 531.407 310.074 527.13 314 527.956C316.578 528.501 317.222 528.735 318.007 527.006C318.793 525.278 316.027 523.719 312.734 524.153C311.602 524.272 310.557 524.811 309.804 525.664C309.05 526.516 308.645 527.621 308.667 528.758C308.761 530.024 309.101 532.602 311.527 533.434Z" fill="#2B2A30"/>
<path d="M306.946 540.26C308.077 539.938 307.215 540.202 308.077 539.938C311.007 542.827 310.661 547.784 311.329 552.677C312.958 555.378 318.999 559.011 318.999 559.011C319.075 559.532 318.893 559.685 318.237 560.769C314.874 559.479 311.816 557.506 309.255 554.973C309.108 554.839 308.897 554.798 308.839 554.616C307.801 551.475 306.647 542.54 306.946 540.26Z" fill="#FFCEA9"/>
<path d="M333.83 546.302L329.441 561.314L319.802 565.164L323.318 550.538L333.83 546.302Z" fill="#F4F4F4"/>
<path d="M317.482 559.134C317.622 558.618 317.991 558.747 318.413 558.876C318.865 559.059 319.361 559.102 319.837 558.999C320.208 558.817 320.551 558.585 320.857 558.308C321.051 558.19 321.274 558.127 321.501 558.126C321.501 558.255 321.278 559.017 321.278 559.017C321.278 559.017 323.394 559.017 323.622 559.017C323.695 559.003 323.77 559.013 323.837 559.044C323.904 559.076 323.96 559.127 323.997 559.191C324.034 559.256 324.049 559.33 324.042 559.403C324.035 559.477 324.005 559.547 323.956 559.603H324.103C324.531 559.509 324.689 560.189 324.284 560.271L323.933 560.323C324.214 560.435 324.284 560.909 323.933 560.968H323.822C323.771 560.976 323.72 560.976 323.669 560.968H323.546C323.557 561.018 323.557 561.07 323.547 561.12C323.537 561.171 323.516 561.219 323.486 561.26C323.457 561.302 323.418 561.338 323.374 561.364C323.33 561.39 323.281 561.407 323.23 561.413C322.198 561.548 320.681 561.958 319.749 561.108C319.102 561.047 318.47 560.876 317.88 560.605C317.323 560.323 317.306 559.743 317.482 559.134Z" fill="#FFCEA9"/>
<path d="M328.017 557.904H328.163C328.102 557.86 328.056 557.799 328.033 557.728C328.009 557.657 328.008 557.58 328.031 557.509C328.054 557.438 328.099 557.376 328.16 557.332C328.22 557.288 328.293 557.265 328.368 557.265C328.585 557.265 330.758 556.808 330.758 556.808L331.022 555.918C331.022 555.865 331.397 556.093 331.409 556.105C331.593 556.224 331.748 556.383 331.862 556.571C331.976 556.759 332.045 556.97 332.065 557.189C332.076 557.497 332.026 557.803 331.919 558.092C331.811 558.38 331.648 558.645 331.438 558.87C331.052 559.253 330.535 559.475 329.991 559.491C329.727 559.491 329.475 559.521 329.247 559.544C329.195 559.547 329.144 559.54 329.095 559.522C329.047 559.505 329.002 559.478 328.964 559.443C328.927 559.408 328.896 559.366 328.875 559.319C328.854 559.271 328.843 559.221 328.843 559.169H328.772C328.723 559.183 328.67 559.183 328.62 559.169H328.509C328.14 559.169 328.11 558.712 328.362 558.548H328.005C327.536 558.589 327.577 557.898 328.017 557.904Z" fill="#FFCEA9"/>
<path d="M320.934 540.934C321.527 540.907 322.089 540.656 322.504 540.231C322.422 539.118 321.004 534.905 318.145 534.588C318.911 535.139 319.518 535.883 319.902 536.745C320.352 538.113 320.697 539.514 320.934 540.934Z" fill="#EDEDED"/>
<path d="M306.433 546.501C306.433 546.501 309.275 547.485 311.279 545.833C311.501 545.458 310.107 540.618 310.107 540.618C310.107 540.618 308.935 538.145 307.048 539.13C305.161 540.114 306.433 546.501 306.433 546.501Z" fill="#EDEDED"/>
<path opacity="0.4" d="M361.409 631.225C367.826 631.225 373.029 628.221 373.029 624.516C373.029 620.812 367.826 617.808 361.409 617.808C354.992 617.808 349.79 620.812 349.79 624.516C349.79 628.221 354.992 631.225 361.409 631.225Z" fill="#D6D8E5"/>
<path d="M368.112 572.965C369.137 573.257 369.71 574.379 370.601 576.78C371.343 578.959 371.705 581.249 371.671 583.55C371.385 585.814 370.447 587.575 368.184 589.408L367.104 587.427C367.104 587.427 369.321 585.471 369.546 583.207C369.674 581.937 368.184 577.656 368.184 577.538C368.184 577.42 368.112 572.965 368.112 572.965Z" fill="#FFCEA9"/>
<path d="M359.247 625.127C358.906 625.231 358.546 625.26 358.192 625.212C357.839 625.165 357.5 625.041 357.198 624.851C356.645 624.851 353.394 623.576 352.984 624.656C352.626 625.604 353.931 626.484 354.623 626.653C356.159 627.017 357.265 627.775 357.88 627.903C358.112 627.985 358.361 628.011 358.605 627.977C358.849 627.943 359.082 627.851 359.283 627.708C359.708 627.278 359.672 625.691 359.247 625.127Z" fill="#38226D"/>
<path d="M357.868 627.641C357.253 627.513 356.132 626.755 354.611 626.386C354.032 626.248 353.023 625.608 352.926 624.85C352.788 625.721 353.95 626.494 354.611 626.653C356.147 627.016 357.253 627.774 357.868 627.902C358.1 627.985 358.349 628.01 358.593 627.976C358.837 627.942 359.07 627.85 359.271 627.708C359.362 627.602 359.431 627.478 359.47 627.344C359.245 627.514 358.982 627.63 358.704 627.682C358.426 627.733 358.139 627.719 357.868 627.641Z" fill="#9C73FF"/>
<path d="M367.505 620.835C367.207 620.937 366.889 620.966 366.578 620.919C366.267 620.872 365.972 620.75 365.718 620.564C365.206 620.564 361.862 619.345 361.467 620.385C361.124 621.296 362.379 622.136 363.045 622.3C364.509 622.653 365.605 623.385 366.179 623.508C366.403 623.587 366.642 623.611 366.878 623.578C367.113 623.545 367.337 623.456 367.531 623.319C367.951 622.904 367.915 621.378 367.505 620.835Z" fill="#38226D"/>
<path d="M366.176 623.257C365.587 623.129 364.507 622.402 363.042 622.049C362.484 621.91 361.506 621.296 361.419 620.563C361.291 621.403 362.443 622.151 363.042 622.299C364.507 622.653 365.603 623.385 366.176 623.508C366.4 623.587 366.64 623.611 366.875 623.578C367.111 623.545 367.334 623.456 367.528 623.319C367.618 623.217 367.683 623.096 367.718 622.965C367.502 623.131 367.249 623.244 366.982 623.295C366.714 623.345 366.438 623.332 366.176 623.257Z" fill="#9C73FF"/>
<path d="M368.595 612.586C368.596 611.338 368.381 610.099 367.96 608.924C367.96 608.924 368.379 603.911 368.702 600.618C369.173 595.764 369.921 595.282 369.726 592.333C369.532 589.598 367.975 587.826 367.57 585.973L359.648 586.597C359.648 586.597 358.957 588.845 358.066 593.321C357.175 597.797 357.114 603.117 357.185 610.164C357.185 611.982 356.878 613.559 356.98 618.086C357.052 621.127 357.226 624.855 357.226 624.855C358.383 625.849 359.187 625.117 359.187 625.117C359.187 625.117 361.236 616.104 361.517 614.035C361.732 612.891 361.637 611.709 361.241 610.614C361.241 610.614 361.835 607.782 362.265 605.555C362.777 602.836 364.134 596.967 364.134 596.967C364.134 596.967 363.904 605.985 364.298 607.762C364.692 609.539 364.759 611.085 365.097 613.502C365.502 616.421 365.686 620.697 365.686 620.697C366.894 621.465 367.432 620.877 367.432 620.877C367.432 620.877 368.595 615.141 368.595 612.586Z" fill="#FFCEA9"/>
<path d="M367.551 585.973C368.38 586.823 369.753 589.409 369.753 593.321C369.753 597.725 369.113 596.834 368.805 601.683L368.498 606.533C368.498 606.533 361.877 609.693 357.155 606.763C356.736 605.847 357.314 595.646 358.144 592.02C358.973 588.395 359.542 586.618 359.542 586.618C359.542 586.618 365.631 588.262 367.551 585.973Z" fill="#8C50FF"/>
<path d="M367.645 572.919C365.955 572.816 365.791 573.098 365.658 572.499C365.612 572.284 365.514 570.799 365.514 570.799C365.67 570.6 365.812 570.392 365.939 570.174C366.506 569.832 366.986 569.363 367.342 568.804C367.697 568.245 367.918 567.611 367.988 566.953C368.107 565.809 367.767 564.665 367.043 563.772C366.319 562.879 365.27 562.31 364.127 562.19C361.889 561.96 360.24 563.532 359.799 565.693C359.564 566.758 359.318 568.935 359.984 570.681C360.358 571.669 360.706 572.36 361.597 572.325C361.894 572.298 362.189 572.247 362.478 572.171C362.525 572.581 362.543 572.993 362.529 573.405C362.529 573.84 362.58 574.055 361.73 574.578C360.88 575.1 363.01 576.165 364.398 576.063C365.786 575.96 367.342 575.121 367.773 574.224C368.244 573.221 368.438 572.965 367.645 572.919Z" fill="#FFCEA9"/>
<path d="M368.889 580.401C368.889 580.401 370.799 579.971 371.674 579.121C371.674 579.121 370.537 575.537 369.81 574.646C369.083 573.755 368.376 579.505 368.376 579.505L368.889 580.401Z" fill="#EDEDED"/>
<path d="M365.968 572.884C366.28 573.273 366.316 573.759 365.113 574.066C364.237 574.315 363.302 574.243 362.475 573.862C361.527 574.263 360.615 574.746 359.751 575.306C358.727 578.685 359.551 579.121 359.121 581.543C359.29 582.762 359.49 585.906 359.541 586.618C361.84 588.226 366.505 587.678 367.55 585.972C367.569 585.405 367.622 584.839 367.709 584.277C368.805 580.211 369.66 579.157 369.358 576.084C369.184 574.333 369.045 573.452 368.113 572.981C367.405 572.855 366.684 572.822 365.968 572.884Z" fill="#F4F4F4"/>
<path d="M344.859 586.106C345.38 586.218 345.893 586.365 346.395 586.546C346.865 586.794 347.372 586.966 347.895 587.058C348.459 587.145 349.339 586.853 350.86 586.136C352.526 585.283 354.033 584.15 355.315 582.787C356.773 581.053 358.075 579.194 359.207 577.231C359.868 576.028 360.703 575.726 361.43 575.961C362.3 576.248 362.408 577.113 361.43 578.732C360.181 580.845 358.686 582.803 356.975 584.564C355.625 585.914 354.054 587.022 352.33 587.842C351.1 588.481 349.784 588.938 348.423 589.199C347.947 589.301 347.624 589.501 346.743 589.808C345.867 590.127 344.928 590.23 344.003 590.11C343.24 589.962 342.979 589.788 342.949 589.598C342.918 589.409 343.071 589.275 343.43 589.301C343.994 589.391 344.571 589.377 345.13 589.26C345.13 589.26 344.341 589.234 343.875 589.178C343.457 589.133 343.047 589.029 342.657 588.871C342.283 588.712 342.145 588.123 342.524 588.144C342.902 588.164 343.159 588.277 343.855 588.349C344.222 588.393 344.594 588.393 344.961 588.349C344.5 588.273 344.047 588.16 343.604 588.011C343.238 587.913 342.908 587.71 342.657 587.427C342.529 587.278 342.564 586.915 343.01 587.007C343.547 587.194 344.104 587.316 344.669 587.37C345.238 587.37 345.642 587.324 345.57 587.237C345.499 587.15 345.161 587.161 344.731 586.92C344.3 586.679 344.044 586.213 344.219 585.988C344.393 585.763 344.393 585.932 344.859 586.106Z" fill="#FFCEA9"/>
<path d="M360.514 580.687C359.183 580.494 357.953 579.87 357.011 578.91L359.131 575.971C359.131 575.971 360.324 574.465 361.902 575.315C361.902 575.315 363.09 575.443 361.902 577.932C361.497 578.879 361.034 579.799 360.514 580.687Z" fill="#EDEDED"/>
<path d="M359.393 564.419C359.477 563.914 359.756 563.462 360.169 563.159C360.583 562.857 361.098 562.728 361.605 562.801C362.345 562.304 363.239 562.088 364.124 562.191C366.137 562.401 367.453 563.728 368.062 565.725C368.361 566.727 368.56 567.756 368.656 568.797C369.261 573.278 370.889 576.832 369.368 578.163C367.847 579.495 363.679 580.34 361.938 579.505C360.197 578.67 363.372 570.948 359.925 566.657C359.116 565.638 359.039 564.926 359.393 564.419Z" fill="#3A2C6D"/>
<path d="M410.294 595.862C409.388 596.599 408.049 595.922 407.981 595.99C406.916 596.981 405.797 597.912 404.63 598.78C404.064 599.227 403.198 599.822 403.341 600.677C403.627 602.21 406.076 601.751 407 601.268C407.924 600.785 408.679 600.026 409.553 599.478C410.176 599.091 410.792 598.891 410.889 598.103C410.946 597.63 410.455 595.84 410.294 595.862Z" fill="#38226D"/>
<path d="M410.872 597.789C410.75 598.544 410.156 598.752 409.525 599.135C408.637 599.69 407.853 600.485 406.93 600.954C406.077 601.383 403.947 601.813 403.349 600.721C403.675 602.196 406.081 601.734 406.994 601.269C407.907 600.803 408.673 600.026 409.547 599.479C410.17 599.092 410.786 598.891 410.882 598.104C410.89 597.999 410.887 597.893 410.872 597.789Z" fill="#9C73FF"/>
<path d="M402.414 592.93C401.505 593.671 399.908 592.862 399.85 592.93C398.906 593.889 397.907 594.791 396.857 595.633C396.291 596.081 395.407 596.675 395.568 597.531C395.851 599.06 398.304 598.605 399.227 598.122C400.151 597.638 400.903 596.879 401.78 596.331C402.403 595.945 403.016 595.744 403.112 594.956C403.173 594.484 402.575 592.912 402.414 592.93Z" fill="#38226D"/>
<path d="M403.087 594.749C402.965 595.504 402.371 595.712 401.741 596.095C400.853 596.65 400.069 597.445 399.145 597.914C398.293 598.343 396.162 598.773 395.564 597.681C395.89 599.156 398.296 598.694 399.209 598.229C400.122 597.763 400.889 596.986 401.762 596.439C402.385 596.052 403.001 595.851 403.098 595.064C403.106 594.959 403.102 594.853 403.087 594.749Z" fill="#9C73FF"/>
<path d="M410.347 562.345C410.304 563.716 409.874 569.681 409.684 572.836C409.495 575.99 409.452 579.861 409.452 579.861C409.452 579.861 409.996 582.159 410.347 584.873C410.698 587.587 410.347 596.105 410.347 596.105C410 596.328 409.597 596.447 409.185 596.447C408.773 596.447 408.37 596.328 408.023 596.105C408.023 596.105 406.569 589.277 405.896 586.202C405.223 583.126 405.105 581.354 404.758 579.445C404.335 577.14 403.426 566.377 403.426 566.377L403.068 566.398L402.094 578.547C402.395 579.442 402.601 580.366 402.71 581.304C402.971 583.284 402.43 593.241 402.43 593.241C402.043 593.455 401.605 593.559 401.163 593.54C400.721 593.522 400.292 593.383 399.924 593.137C399.924 593.137 397.5 579.95 397.5 577.942C397.5 576.617 397.726 559.112 397.726 559.112L410.347 562.345Z" fill="#DD7A7A"/>
<path d="M399.851 563.269C399.457 562.932 399.21 562.51 398.612 562.08C398.089 561.701 397.706 561.511 397.391 561.006C397.076 560.501 397.094 558.535 396.972 556.767C396.826 554.683 397.209 551.944 397.599 550.841C398.394 548.603 398.147 544.862 398.673 543.598C399.199 542.334 400.75 542.609 400.256 541.972C399.679 541.22 397.431 540.751 396.439 542.47C395.447 544.188 395.469 547.962 394.763 550.58C394.405 551.843 394.369 553.179 394.545 555.857C394.667 557.73 394.699 559.563 395.239 561.36C395.386 561.851 395.372 562.388 395.54 563.355C395.708 564.321 395.945 565.478 396.475 566.105C397.005 566.731 397.298 566.871 397.47 566.821C397.642 566.771 397.703 566.538 397.492 566.226C397.124 565.753 396.842 565.218 396.661 564.647C396.661 564.647 397.087 565.363 397.377 565.757C397.637 566.115 397.942 566.436 398.286 566.713C398.623 566.975 399.228 566.785 399.024 566.463C398.82 566.14 398.576 565.947 398.15 565.349C397.925 565.031 397.737 564.687 397.592 564.325C397.899 564.709 398.235 565.068 398.598 565.399C398.876 565.683 399.231 565.879 399.618 565.965C399.819 566.008 400.13 565.789 399.826 565.424C399.522 565.059 399.063 564.801 398.637 564.092C398.326 563.58 398.179 563.172 398.297 563.194C398.415 563.215 398.576 563.53 399.013 563.802C399.45 564.074 400.016 564.067 400.141 563.802C400.266 563.537 400.249 563.605 399.851 563.269Z" fill="#FFCEA9"/>
<path d="M407.054 535.806C407.054 535.806 406.9 538.799 406.964 539.064C407.029 539.329 408.339 540.207 408.722 540.522C409.106 540.837 406.649 543.254 405.461 543.801C404.272 544.349 400.491 542.906 400.426 541.052C400.362 539.197 401.071 537.643 401.651 537.561C402.231 537.478 407.054 535.806 407.054 535.806Z" fill="#FFCEA9"/>
<path d="M407.386 539.583C407.386 539.583 405.216 542.806 402.183 543.124C401.227 542.183 401.141 538.828 402.463 537.754C402.463 537.754 401.249 536.773 400.415 536.962C399.522 537.505 398.858 538.354 398.546 539.351C397.772 541.577 397.408 543.926 397.471 546.282C397.522 549.458 397.471 559.172 397.471 559.172C397.471 559.172 397.898 561.224 400.64 562.753C403.383 564.281 405.417 564.428 407.275 563.995C408.811 563.637 410.078 563.096 410.608 561.983C410.469 559.756 409.477 553.948 409.846 551.148C410.214 548.348 410.809 546.257 410.963 543.987C411.117 541.717 410.666 541.771 409.531 540.965C408.85 540.453 408.134 539.991 407.386 539.583Z" fill="#EDEDED"/>
<path d="M405.568 564.751C406.055 564.468 406.399 564.063 407.119 563.72C407.752 563.415 408.193 563.286 408.63 562.799C409.067 562.312 409.614 560.336 410.083 558.474C410.536 556.378 410.627 554.22 410.352 552.094C409.929 549.552 408.769 546.036 408.436 544.575C408.103 543.114 408.54 542.498 409.188 541.911C409.947 541.22 411.079 541.427 411.809 543.45C412.763 546.253 413.403 549.153 413.718 552.097C413.889 554.287 413.696 556.49 413.148 558.617C412.661 560.594 411.949 562.04 411.029 563.856C410.778 564.35 410.717 564.779 410.348 565.778C409.998 566.781 409.409 567.684 408.633 568.41C407.946 568.979 407.609 569.072 407.434 568.986C407.258 568.9 407.24 568.628 407.527 568.346C408.012 567.912 408.415 567.394 408.716 566.817C408.716 566.817 408.125 567.493 407.738 567.866C407.394 568.199 407.006 568.484 406.585 568.714C406.173 568.929 405.565 568.61 405.844 568.306C406.123 568.002 406.421 567.844 406.99 567.282C407.291 566.986 407.557 566.656 407.781 566.297C407.38 566.65 406.951 566.969 406.499 567.253C406.148 567.502 405.733 567.643 405.303 567.662C405.081 567.662 404.791 567.375 405.185 567.046C405.579 566.716 406.12 566.523 406.711 565.85C407.14 565.359 407.377 564.955 407.244 564.955C407.112 564.955 406.886 565.259 406.353 565.467C405.819 565.674 405.235 565.56 405.146 565.266C405.056 564.973 405.081 565.037 405.568 564.751Z" fill="#FFCEA9"/>
<path d="M400.28 531.345C400.638 529.021 402.314 527.26 404.709 527.406C405.673 527.457 406.597 527.808 407.35 528.412C408.103 529.015 408.648 529.84 408.908 530.769C409.167 531.699 409.128 532.687 408.796 533.593C408.464 534.499 407.856 535.278 407.058 535.821C406.977 536.172 406.857 536.513 406.7 536.837C405.855 537.829 403.291 538.442 402.554 538.334C401.608 538.198 401.096 537.804 400.645 536.773C399.825 534.933 400.087 532.494 400.28 531.345Z" fill="#FFCEA9"/>
<path d="M407.055 535.806L406.833 533.78C406.833 533.78 408.49 529.483 404.577 530.314C401.992 530.858 401.354 531.091 400.56 529.358C399.765 527.625 402.543 526.067 405.837 526.493C406.971 526.613 408.019 527.153 408.773 528.007C409.528 528.862 409.934 529.969 409.912 531.109C409.822 532.39 409.489 534.972 407.055 535.806Z" fill="#3A4151"/>
<path d="M413.756 547.443C413.756 547.443 411.608 549.569 409.102 548.957C408.744 548.71 407.87 543.744 407.87 543.744C407.87 543.744 407.87 540.994 409.983 541.066C412.095 541.137 413.756 547.443 413.756 547.443Z" fill="#D5D7E2"/>
<path d="M397.623 543.325C397.623 543.325 396.506 543.268 396.044 542.609C396.13 541.499 397.555 537.274 400.416 536.959C399.638 537.502 399.02 538.244 398.626 539.107C398.107 540.4 397.623 543.325 397.623 543.325Z" fill="#D5D7E2"/>
<path d="M400.701 554.493C400.681 554.555 400.679 554.621 400.694 554.684C400.709 554.747 400.741 554.805 400.786 554.851C400.828 554.876 400.876 554.89 400.924 554.89C400.973 554.89 401.021 554.876 401.062 554.851C401.142 554.799 401.212 554.734 401.27 554.658C401.378 554.536 401.47 554.401 401.545 554.257C401.664 554.006 401.646 553.487 401.248 553.584C400.851 553.68 400.754 554.189 400.701 554.493Z" fill="#FFCEA9"/>
<rect width="93.7528" height="93.7528" rx="8" transform="matrix(0.866025 -0.5 0.866025 0.5 281.55 258.541)" fill="#6D6D6D"/>
<path fill-rule="evenodd" clip-rule="evenodd" d="M288.478 254.541C284.652 256.75 284.652 260.332 288.478 262.541L355.881 301.456C359.707 303.665 365.911 303.665 369.737 301.456L437.14 262.541C440.966 260.332 440.966 256.75 437.14 254.541L418.879 243.998L436.045 241.115C440.402 240.383 440.402 239.196 436.045 238.465L398.32 232.128L369.737 215.626C365.911 213.417 359.707 213.417 355.881 215.626L327.353 232.097L289.439 238.465C285.082 239.196 285.082 240.383 289.439 241.115L306.709 244.015L288.478 254.541Z" fill="#DEE8F3"/>
<rect width="93.6842" height="93.6842" rx="8" transform="matrix(0.866025 -0.5 0.866025 0.5 281.55 239.79)" fill="white"/>
<path fill-rule="evenodd" clip-rule="evenodd" d="M411.339 0H314.432V186.892H314.716L314.187 187.195L362.643 214.884L411.099 187.195L410.57 186.892H411.339V0Z" fill="url(#paint4_linear_2_1060)"/>
<path d="M411.099 187.196L362.643 159.506L314.187 187.196L362.643 214.885L411.099 187.196Z" fill="#154078"/>
<path d="M362.643 214.886L314.187 187.196V242.142L362.643 269.832V214.886Z" fill="#2E84F6"/>
<path d="M362.641 214.886L411.098 187.196V242.142L362.641 269.832V214.886Z" fill="#38E6E6"/>
<path d="M340.145 96.8343L327.166 89.4175L314.187 96.8343L327.166 104.251L340.145 96.8343Z" fill="#154078"/>
<path d="M327.166 104.251L314.187 96.8345V111.552L327.166 118.969V104.251Z" fill="#2E84F6"/>
<path d="M327.166 104.251L340.145 96.8345V111.552L327.166 118.969V104.251Z" fill="#38E6E6"/>
<path d="M403.502 161.713L398.123 158.64L392.745 161.713L398.123 164.786L403.502 161.713Z" fill="#154078"/>
<path d="M398.123 164.786L392.745 161.713V167.812L398.123 170.885V164.786Z" fill="#2E84F6"/>
<path d="M398.126 164.786L403.504 161.713V167.812L398.126 170.885V164.786Z" fill="#38E6E6"/>
<path d="M371.295 137.627L362.642 132.682L353.989 137.627L362.642 142.571L371.295 137.627Z" fill="#154078"/>
<path d="M362.642 142.572L353.989 137.627V147.439L362.642 152.384V142.572Z" fill="#2E84F6"/>
<path d="M362.642 142.572L371.295 137.627V147.439L362.642 152.384V142.572Z" fill="#38E6E6"/>
<path d="M398.118 114.263L389.465 109.319L380.812 114.263L389.465 119.208L398.118 114.263Z" fill="#154078"/>
<path d="M389.465 119.209L380.812 114.264V124.076L389.465 129.02V119.209Z" fill="#2E84F6"/>
<path d="M389.465 119.209L398.118 114.264V124.076L389.465 129.02V119.209Z" fill="#38E6E6"/>
<path d="M353.987 158.91L340.143 150.999L326.298 158.91L340.143 166.821L353.987 158.91Z" fill="#154078"/>
<path d="M340.143 166.821L326.298 158.91V174.609L340.143 182.52V166.821Z" fill="#2E84F6"/>
<path d="M340.141 166.821L353.986 158.91V174.609L340.141 182.52V166.821Z" fill="#38E6E6"/>
<defs>
<linearGradient id="paint0_linear_2_1060" x1="508.888" y1="602.765" x2="508.888" y2="445.041" gradientUnits="userSpaceOnUse">
<stop stop-color="#38E6E6"/>
<stop offset="1" stop-color="#2E84F6"/>
</linearGradient>
<linearGradient id="paint1_linear_2_1060" x1="218.728" y1="600.869" x2="218.728" y2="443.144" gradientUnits="userSpaceOnUse">
<stop stop-color="#38E6E6"/>
<stop offset="1" stop-color="#2E84F6"/>
</linearGradient>
<linearGradient id="paint2_linear_2_1060" x1="508.888" y1="261.862" x2="508.888" y2="419.587" gradientUnits="userSpaceOnUse">
<stop stop-color="#38E6E6"/>
<stop offset="1" stop-color="#2E84F6"/>
</linearGradient>
<linearGradient id="paint3_linear_2_1060" x1="218.728" y1="261.303" x2="218.728" y2="419.028" gradientUnits="userSpaceOnUse">
<stop stop-color="#38E6E6"/>
<stop offset="1" stop-color="#2E84F6"/>
</linearGradient>
<linearGradient id="paint4_linear_2_1060" x1="362.644" y1="33.1733" x2="362.644" y2="214.884" gradientUnits="userSpaceOnUse">
<stop stop-color="#154078"/>
<stop offset="1" stop-color="#38E6E6" stop-opacity="0.4"/>
</linearGradient>
</defs>
</svg>
