<svg width="742" height="669" viewBox="0 0 742 669" fill="none" xmlns="http://www.w3.org/2000/svg">
<path d="M374.611 608.506L652.859 449.28" stroke="url(#paint0_linear_2_598)" stroke-width="8"/>
<g opacity="0.6">
<rect width="59.1536" height="106.476" rx="8" transform="matrix(0.866025 0.5 -2.20305e-08 1 83.9985 252.08)" fill="#2840F1"/>
<rect width="59.1536" height="106.476" rx="8" transform="matrix(0.866025 0.5 -2.20305e-08 1 80.4478 254.446)" fill="#2208F5"/>
<rect width="59.1536" height="106.476" rx="8" transform="matrix(0.866025 0.5 -2.20305e-08 1 80.4478 256.812)" fill="white"/>
<rect width="41.4075" height="2.36614" rx="1.18307" transform="matrix(0.866025 0.5 -2.20305e-08 1 88.1304 278.403)" fill="#DAE7EB"/>
<rect width="17.7461" height="2.36614" rx="1.18307" transform="matrix(0.866025 0.5 -2.20305e-08 1 98.3789 279.586)" fill="#DAE7EB"/>
<rect width="47.3229" height="17.7461" rx="4" transform="matrix(0.866025 0.5 -2.20305e-08 1 85.5679 292.304)" fill="white"/>
<rect width="11.8307" height="11.8307" rx="4" transform="matrix(0.866025 0.5 -2.20305e-08 1 113.748 311.53)" fill="#34BCF0"/>
<rect width="23.6614" height="2.36614" rx="1.18307" transform="matrix(0.866025 0.5 -2.20305e-08 1 88.1304 296.741)" fill="#DAE7EB"/>
<rect width="17.7461" height="1.18307" rx="0.591536" transform="matrix(0.866025 0.5 -2.20305e-08 1 88.1304 300.291)" fill="#DAE7EB"/>
<rect width="14.7884" height="1.18307" rx="0.591536" transform="matrix(0.866025 0.5 -2.20305e-08 1 88.1304 302.657)" fill="#DAE7EB"/>
<rect width="11.8307" height="1.18307" rx="0.591536" transform="matrix(0.866025 0.5 -2.20305e-08 1 88.1304 308.571)" fill="#DAE7EB"/>
<rect width="47.3229" height="17.7461" rx="4" transform="matrix(0.866025 0.5 -2.20305e-08 1 85.5679 313.008)" fill="white"/>
<rect width="11.8307" height="11.8307" rx="4" transform="matrix(0.866025 0.5 -2.20305e-08 1 113.748 332.233)" fill="#38E6E6"/>
<rect width="23.6614" height="2.36614" rx="1.18307" transform="matrix(0.866025 0.5 -2.20305e-08 1 88.1304 317.445)" fill="#DAE7EB"/>
<rect width="17.7461" height="1.18307" rx="0.591536" transform="matrix(0.866025 0.5 -2.20305e-08 1 88.1304 320.994)" fill="#DAE7EB"/>
<rect width="14.7884" height="1.18307" rx="0.591536" transform="matrix(0.866025 0.5 -2.20305e-08 1 88.1304 323.36)" fill="#DAE7EB"/>
<rect width="11.8307" height="1.18307" rx="0.591536" transform="matrix(0.866025 0.5 -2.20305e-08 1 88.1304 329.275)" fill="#DAE7EB"/>
<rect width="47.3229" height="17.7461" rx="4" transform="matrix(0.866025 0.5 -2.20305e-08 1 85.5679 333.712)" fill="white"/>
<rect width="11.8307" height="11.8307" rx="4" transform="matrix(0.866025 0.5 -2.20305e-08 1 113.748 352.937)" fill="#2C2A8A"/>
<rect width="23.6614" height="2.36614" rx="1.18307" transform="matrix(0.866025 0.5 -2.20305e-08 1 88.1304 338.148)" fill="#DAE7EB"/>
<rect width="17.7461" height="1.18307" rx="0.591536" transform="matrix(0.866025 0.5 -2.20305e-08 1 88.1304 341.698)" fill="#DAE7EB"/>
<rect width="14.7884" height="1.18307" rx="0.591536" transform="matrix(0.866025 0.5 -2.20305e-08 1 88.1304 344.064)" fill="#DAE7EB"/>
<rect width="11.8307" height="1.18307" rx="0.591536" transform="matrix(0.866025 0.5 -2.20305e-08 1 88.1304 349.979)" fill="#DAE7EB"/>
<rect width="94.6457" height="94.6457" rx="8" transform="matrix(0.866025 -0.5 0.866025 0.5 0 447.878)" fill="#6D6D6D"/>
<path fill-rule="evenodd" clip-rule="evenodd" d="M6.92835 443.878C3.10201 446.087 3.10201 449.669 6.92835 451.878L75.1049 491.24C78.9312 493.449 85.1349 493.449 88.9613 491.24L157.138 451.878C160.964 449.669 160.964 446.087 157.138 443.878L138.638 433.197L156.042 430.274C160.399 429.542 160.399 428.356 156.042 427.624L117.885 421.215L88.9613 404.516C85.1349 402.307 78.9312 402.307 75.1049 404.516L46.2363 421.184L7.88964 427.624C3.53239 428.356 3.53238 429.542 7.88963 430.274L25.3975 433.215L6.92835 443.878Z" fill="#DEE8F3"/>
<rect width="94.5764" height="94.5764" rx="8" transform="matrix(0.866025 -0.5 0.866025 0.5 0 428.949)" fill="white"/>
<path opacity="0.4" d="M81.4653 437.727C89.5402 437.727 96.0863 433.947 96.0863 429.285C96.0863 424.622 89.5402 420.842 81.4653 420.842C73.3903 420.842 66.8442 424.622 66.8442 429.285C66.8442 433.947 73.3903 437.727 81.4653 437.727Z" fill="#D6D8E5"/>
<path d="M71.0492 366.686C70.8866 368.107 69.1898 374.241 69.5534 376.343C69.917 378.445 75.7139 381.96 75.7139 381.96L76.518 378.362L73.3077 375.229L74.1738 369.272L71.0492 366.686Z" fill="#FFCEA9"/>
<path d="M75.5334 360.64C74.7057 360.282 73.1685 360.203 72.3053 361.616C71.4421 363.029 70.5671 367.871 70.4873 368.71C70.4873 368.71 71.6845 370.363 73.4789 370.088L75.5334 360.64Z" fill="#EDEDED"/>
<path d="M82.1543 429.03C83.416 429.378 84.7637 429.214 85.9057 428.575C86.8073 428.602 91.7115 426.506 92.3796 428.265C92.9708 429.811 90.8395 431.239 89.7043 431.516C87.2271 432.108 85.3943 433.352 84.3981 433.562C83.659 433.719 82.6983 433.822 82.1071 433.24C81.4005 432.542 81.4597 429.956 82.1543 429.03Z" fill="#38226D"/>
<path d="M84.3969 433.136C85.3932 432.929 87.226 431.693 89.7032 431.093C90.6551 430.863 92.2928 429.822 92.4583 428.581C92.6771 430.002 90.7615 431.265 89.7032 431.519C87.226 432.11 85.3932 433.355 84.3969 433.565C83.6579 433.721 82.6972 433.825 82.1059 433.242C81.9534 433.073 81.8421 432.871 81.7808 432.651C82.644 433.367 83.6579 433.293 84.3969 433.136Z" fill="#9C73FF"/>
<path d="M74.1944 425.462C75.4555 425.812 76.8039 425.65 77.9457 425.01C78.8503 425.037 83.7515 422.941 84.4196 424.714C85.0109 426.26 82.8795 427.688 81.7443 427.966C79.2671 428.557 77.4343 429.802 76.441 430.012C75.699 430.168 74.7383 430.272 74.15 429.687C73.4406 428.971 73.5026 426.385 74.1944 425.462Z" fill="#38226D"/>
<path d="M76.4423 429.565C77.4356 429.355 79.2684 428.123 81.7456 427.522C82.6975 427.292 84.3352 426.248 84.5008 425.01C84.7225 426.432 82.8039 427.694 81.7456 427.948C79.2684 428.539 77.4356 429.784 76.4423 429.994C75.7004 430.15 74.7396 430.254 74.1513 429.669C73.9966 429.501 73.885 429.298 73.8262 429.077C74.6864 429.793 75.7004 429.722 76.4423 429.565Z" fill="#9C73FF"/>
<path d="M74.0971 412.139C74.3093 410.318 74.6883 408.52 75.2293 406.768C75.2293 406.768 74.8923 402.129 74.7238 397.737C74.5317 392.75 72.8023 388.36 74.1651 384.381L89.5547 387.804C89.5547 387.804 88.6235 407.687 88.4166 410.093C88.3054 411.966 88.0763 413.83 87.7308 415.674C87.0272 419.535 85.8862 428.717 85.8862 428.717C84.2573 429.663 82.123 429.14 82.123 429.14C82.123 429.14 82.2412 417.528 82.3447 414.746C82.4718 411.35 82.5753 411.61 82.5753 411.61L82.0668 403.152L81.7357 398.943C81.7357 398.943 81.3101 402.032 81.0322 404.79C80.7898 407.196 80.2104 409.372 79.5541 413.848C78.9925 417.732 78.0761 425.536 78.0761 425.536C76.4502 426.482 74.2331 425.699 74.2331 425.699C74.2331 425.699 73.6566 415.509 74.0971 412.139Z" fill="#154078"/>
<path d="M76.3441 360.722C77.5266 360.782 78.3898 361.083 78.5376 360.722C78.6627 360.117 78.7516 359.505 78.8036 358.89C78.6676 358.55 78.5524 358.186 78.5524 358.186C77.0743 357.279 76.6161 355.688 76.421 353.838C76.0929 350.672 77.8015 347.899 80.9675 347.568C83.9443 347.272 86.1348 349.341 86.7172 352.224C87.0335 353.64 87.6602 356.321 86.8118 358.653C86.3388 359.957 85.7298 360.991 85.1179 361.192C84.5291 361.175 83.9418 361.124 83.359 361.039C83.359 361.039 83.2023 361.926 83.093 362.481C82.9836 363.037 83.0279 363.345 84.1513 364.039C85.2746 364.734 82.4515 366.153 80.6039 366.014C78.7563 365.875 76.687 364.761 76.1165 363.566C75.4868 362.251 75.5401 360.684 76.3441 360.722Z" fill="#FFCEA9"/>
<path d="M78.0414 360.897C77.7162 361.707 78.5409 362.697 80.7433 363.389C82.9456 364.081 83.1407 363.191 83.1407 363.191C83.1407 363.191 86.3688 364.669 87.4182 365.393C88.7396 366.319 89.3249 368.991 89.5052 373.502C89.7092 378.723 89.7269 386.468 89.5555 387.804C89.5555 387.804 87.0871 390.263 83.9388 390.003C80.7906 389.743 75.4636 386.95 74.1836 384.789C74.2191 380.213 74.7541 379.468 74.0121 376.831C72.3153 370.794 71.4226 368.323 72.2385 364.312C72.9184 361.004 73.8703 360.593 75.1769 360.625C76.1358 360.665 77.092 360.756 78.0414 360.897Z" fill="#F4F4F4"/>
<path d="M94.4698 377.819C91.8772 378.472 91.2683 376.837 90.9224 375.483C90.0976 372.205 89.6542 369.246 89.0393 367.386C88.3151 365.193 87.5613 364.841 86.4912 364.416C85.2378 363.913 84.1617 364.971 84.5785 367.762C85.0722 371.067 85.7196 373.379 86.9434 377.295C87.2657 378.315 87.987 380.13 89.0719 381.005C90.408 382.087 92.4241 382.04 95.4719 381.283C96.7726 380.958 98.1974 380.181 100.657 379.034C101.316 378.738 101.839 378.522 103.096 377.931C104.352 377.34 105.682 376.355 106.347 375.395C107.013 374.434 107.098 373.982 106.962 373.763C106.794 373.488 106.492 373.547 106.138 373.952C105.626 374.636 104.994 375.221 104.272 375.678C104.272 375.678 105.091 374.833 105.535 374.283C105.933 373.796 106.263 373.257 106.516 372.681C106.75 372.119 106.268 371.36 105.901 371.759C105.535 372.158 105.36 372.566 104.689 373.37C104.335 373.797 103.931 374.181 103.486 374.514C103.902 373.953 104.273 373.36 104.595 372.74C105.02 371.871 105.014 371.425 104.997 371.132C104.979 370.839 104.565 370.49 104.178 371.043C103.826 371.543 103.586 372.323 102.785 373.172C102.194 373.787 101.689 374.141 101.674 373.97C101.659 373.798 102.032 373.461 102.244 372.746C102.457 372.031 102.244 371.268 101.848 371.191C101.452 371.114 101.529 371.132 101.21 371.8C100.89 372.468 100.406 372.965 100.027 373.943C99.6992 374.803 99.5513 375.152 98.9601 375.779C98.3423 376.447 96.9352 377.198 94.4698 377.819Z" fill="#FFCEA9"/>
<path d="M85.5357 363.966C87.268 363.712 88.4919 364.492 89.2545 367.114C90.0172 369.736 90.5553 371.891 90.5553 371.891C89.8696 372.879 88.8321 373.568 87.6553 373.816C85.586 374.318 84.8381 373.328 84.8381 373.328C84.8381 373.328 84.2469 370.579 83.904 368.707C83.561 366.836 83.3925 364.291 85.5357 363.966Z" fill="#EDEDED"/>
<path d="M86.619 351.819C86.619 351.819 89.3564 347.66 83.4293 346.811C79.1548 346.202 76.4056 348.949 76.0893 351.929C75.7937 354.775 77.5407 357.731 78.8059 358.905C79.4238 359.127 80.754 359.254 82.5011 358.459C82.571 357.683 82.5977 356.905 82.5809 356.126C82.5809 356.126 80.4969 351.742 86.619 351.819Z" fill="#3A2C6D"/>
</g>
<rect width="182.487" height="94.7983" rx="8" transform="matrix(0.866025 -0.5 2.20305e-08 1 518.228 340.132)" fill="#2840F1"/>
<rect width="182.487" height="94.7983" rx="8" transform="matrix(0.866025 -0.5 2.20305e-08 1 527.708 347.834)" fill="white"/>
<rect width="0.592489" height="45.6217" transform="matrix(0.866025 -0.5 2.20305e-08 1 537.972 378.051)" fill="#E1ECEF"/>
<rect width="0.592489" height="45.6217" transform="matrix(0.866025 -0.5 2.20305e-08 1 559.522 365.609)" fill="#E1ECEF"/>
<rect width="0.592489" height="45.6217" transform="matrix(0.866025 -0.5 2.20305e-08 1 581.072 353.167)" fill="#E1ECEF"/>
<rect width="0.592489" height="45.6217" transform="matrix(0.866025 -0.5 2.20305e-08 1 602.623 340.725)" fill="#E1ECEF"/>
<rect width="0.592489" height="45.6217" transform="matrix(0.866025 -0.5 2.20305e-08 1 624.173 328.283)" fill="#E1ECEF"/>
<path d="M537.972 418.933L551.366 395.965L558.578 400.005L570.254 379.981L580.557 374.033L593.951 351.064L602.365 355.778L607.345 347.238L617.304 352.817L624.688 340.155" stroke="#60EBEB" stroke-width="2" stroke-linecap="round" stroke-linejoin="round"/>
<path d="M537.972 418.933L551.366 403.582L558.578 403.52L570.254 390.138L580.557 384.189L593.951 368.839L602.365 368.766L607.345 363.059L617.304 362.974L624.688 354.511" stroke="#2208F5" stroke-width="2" stroke-linecap="round" stroke-linejoin="round"/>
<path d="M537.972 418.933L551.366 408.407L558.578 405.747L570.254 396.57L580.557 390.622L593.951 380.096L602.365 376.993L607.345 373.079C607.345 373.079 613.415 370.841 617.304 369.406L624.688 363.604" stroke="#8C50FF" stroke-width="2" stroke-linecap="round" stroke-linejoin="round"/>
<rect width="100.131" height="7.10987" rx="2" transform="matrix(0.866025 -0.5 2.20305e-08 1 537.968 353.759)" fill="#E1ECEF"/>
<rect width="75.2462" height="4.73992" rx="2" transform="matrix(0.866025 -0.5 2.20305e-08 1 537.968 364.424)" fill="#E1ECEF"/>
<rect width="37.9193" height="4.73992" rx="2" transform="matrix(0.866025 -0.5 2.20305e-08 1 640.078 299.546)" fill="#E1ECEF"/>
<rect width="16.5897" height="2.36996" rx="1.18498" transform="matrix(0.866025 -0.5 2.20305e-08 1 540.538 376.57)" fill="#E1ECEF"/>
<rect width="16.5897" height="2.36996" rx="1.18498" transform="matrix(0.866025 -0.5 2.20305e-08 1 562.088 364.128)" fill="#E1ECEF"/>
<rect width="16.5897" height="2.36996" rx="1.18498" transform="matrix(0.866025 -0.5 2.20305e-08 1 583.639 351.686)" fill="#E1ECEF"/>
<rect width="16.5897" height="2.36996" rx="1.18498" transform="matrix(0.866025 -0.5 2.20305e-08 1 605.185 339.243)" fill="#E1ECEF"/>
<rect width="9.47983" height="2.36996" rx="1.18498" transform="matrix(0.866025 -0.5 2.20305e-08 1 540.538 379.533)" fill="#E1ECEF"/>
<rect width="9.47983" height="2.36996" rx="1.18498" transform="matrix(0.866025 -0.5 2.20305e-08 1 562.088 367.091)" fill="#E1ECEF"/>
<rect width="9.47983" height="2.36996" rx="1.18498" transform="matrix(0.866025 -0.5 2.20305e-08 1 583.639 354.648)" fill="#E1ECEF"/>
<rect width="9.47983" height="2.36996" rx="1.18498" transform="matrix(0.866025 -0.5 2.20305e-08 1 605.185 342.206)" fill="#E1ECEF"/>
<rect width="31.9944" height="2.36996" rx="1.18498" transform="matrix(0.866025 -0.5 2.20305e-08 1 640.078 307.841)" fill="#E1ECEF"/>
<rect width="21.3296" height="2.36996" rx="1.18498" transform="matrix(0.866025 -0.5 2.20305e-08 1 644.698 351.982)" fill="#E1ECEF"/>
<path d="M666.762 318.506C666.762 326.687 661.019 336.634 653.935 340.725C646.85 344.815 641.107 341.499 641.107 333.319C641.107 325.138 646.85 315.191 653.935 311.1C661.019 307.01 666.762 310.326 666.762 318.506ZM644.955 331.097C644.955 336.823 648.975 339.144 653.935 336.281C658.894 333.418 662.914 326.455 662.914 320.728C662.914 315.002 658.894 312.681 653.935 315.544C648.975 318.407 644.955 325.37 644.955 331.097Z" fill="#60EBEB"/>
<path d="M666.762 318.506C666.762 321.436 666.01 324.734 664.601 327.984C663.191 331.233 661.188 334.289 658.844 336.763C656.5 339.237 653.92 341.02 651.432 341.885C648.944 342.75 646.658 342.659 644.864 341.623C643.07 340.587 641.848 338.654 641.353 336.066C640.858 333.478 641.112 330.354 642.083 327.086C643.054 323.819 644.698 320.557 646.808 317.711C648.917 314.866 651.398 312.565 653.935 311.1L653.935 315.544C652.159 316.569 650.423 318.18 648.946 320.172C647.469 322.163 646.318 324.447 645.639 326.734C644.959 329.021 644.781 331.209 645.128 333.02C645.474 334.831 646.329 336.185 647.585 336.91C648.841 337.635 650.441 337.699 652.183 337.093C653.925 336.488 655.73 335.24 657.371 333.508C659.012 331.776 660.414 329.637 661.401 327.362C662.388 325.088 662.914 322.779 662.914 320.728L666.762 318.506Z" fill="#2208F5"/>
<path d="M666.762 318.506C666.762 320.778 666.31 323.281 665.44 325.821C664.569 328.362 663.305 330.871 661.744 333.155C660.183 335.44 658.367 337.438 656.437 338.995C654.507 340.553 652.515 341.628 650.615 342.137L651.611 337.27C652.941 336.913 654.336 336.161 655.687 335.07C657.037 333.98 658.308 332.581 659.401 330.982C660.494 329.383 661.379 327.627 661.988 325.849C662.597 324.071 662.914 322.319 662.914 320.728L666.762 318.506Z" fill="#8C50FF"/>
<rect width="94.645" height="94.645" rx="8" transform="matrix(0.866025 -0.5 0.866025 0.5 578.07 449.578)" fill="#6D6D6D"/>
<path fill-rule="evenodd" clip-rule="evenodd" d="M584.998 445.577C581.172 447.786 581.172 451.368 584.998 453.577L653.107 492.9C656.933 495.109 663.137 495.109 666.963 492.9L735.072 453.577C738.898 451.368 738.898 447.786 735.072 445.577L716.602 434.914L734.11 431.973C738.468 431.241 738.468 430.054 734.11 429.323L695.763 422.882L666.963 406.255C663.137 404.045 656.933 404.045 653.107 406.255L624.307 422.882L585.959 429.323C581.602 430.054 581.602 431.241 585.959 431.973L603.468 434.913L584.998 445.577Z" fill="#DEE8F3"/>
<rect width="94.645" height="94.645" rx="8" transform="matrix(0.866025 -0.5 0.866025 0.5 578.07 430.648)" fill="#FDFDFD"/>
<path opacity="0.4" d="M661.477 438.243C669.358 438.243 675.746 434.554 675.746 430.003C675.746 425.452 669.358 421.763 661.477 421.763C653.596 421.763 647.208 425.452 647.208 430.003C647.208 434.554 653.596 438.243 661.477 438.243Z" fill="#D6D8E5"/>
<path d="M673.273 367.25C673.439 368.674 675.137 374.825 674.773 376.931C674.409 379.036 668.617 382.561 668.617 382.561L667.833 378.952L671.049 375.821L670.181 369.843L673.273 367.25Z" fill="#FFCEA9"/>
<path d="M668.778 361.192C669.343 360.929 669.985 360.883 670.582 361.063C671.179 361.243 671.689 361.635 672.015 362.166C672.862 363.585 673.761 368.432 673.837 369.267C673.837 369.267 672.638 370.928 670.842 370.648L668.778 361.192Z" fill="#EDEDED"/>
<path d="M662.148 429.77C660.883 430.118 659.532 429.956 658.386 429.317C657.48 429.342 652.565 427.241 651.896 429.007C651.311 430.575 653.438 431.973 654.577 432.261C657.06 432.867 658.886 434.104 659.894 434.312C660.64 434.468 661.589 434.574 662.195 433.99C662.902 433.269 662.843 430.677 662.148 429.77Z" fill="#38226D"/>
<path d="M659.893 433.867C658.897 433.655 657.058 432.418 654.576 431.816C653.622 431.588 651.979 430.545 651.813 429.3C651.593 430.723 653.508 431.99 654.576 432.244C657.058 432.85 658.884 434.087 659.893 434.295C660.638 434.452 661.587 434.557 662.193 433.973C662.346 433.801 662.458 433.597 662.519 433.375C662.15 433.655 661.72 433.846 661.264 433.931C660.808 434.016 660.339 433.994 659.893 433.867Z" fill="#9C73FF"/>
<path d="M670.12 426.173C668.855 426.524 667.503 426.361 666.358 425.72C665.451 425.745 660.537 423.64 659.871 425.406C659.283 426.957 661.414 428.372 662.549 428.664C665.032 429.266 666.858 430.507 667.866 430.719C668.612 430.876 669.561 430.978 670.166 430.393C670.874 429.69 670.832 427.097 670.12 426.173Z" fill="#38226D"/>
<path d="M667.87 430.287C666.875 430.075 665.036 428.838 662.554 428.236C661.6 428.008 659.956 426.965 659.812 425.72C659.592 427.143 661.507 428.41 662.554 428.664C665.036 429.266 666.862 430.507 667.87 430.719C668.616 430.876 669.565 430.977 670.171 430.393C670.323 430.22 670.434 430.016 670.497 429.795C670.127 430.075 669.698 430.265 669.242 430.351C668.786 430.436 668.316 430.414 667.87 430.287Z" fill="#9C73FF"/>
<path d="M670.219 412.823C670.007 410.999 669.627 409.198 669.084 407.443C669.084 407.443 669.423 402.783 669.592 398.385C669.783 393.386 671.52 388.984 670.147 385.001L654.734 388.42C654.734 388.42 655.666 408.354 655.878 410.752C655.99 412.629 656.22 414.497 656.569 416.344C657.272 420.216 658.416 429.418 658.416 429.418C660.047 430.367 662.187 429.842 662.187 429.842C662.187 429.842 662.072 418.204 661.966 415.412C661.839 412.023 661.733 412.281 661.733 412.281L662.242 403.808L662.576 399.592C662.576 399.592 663 402.689 663.28 405.469C663.525 407.879 664.106 410.061 664.758 414.548C665.322 418.441 666.237 426.266 666.237 426.266C667.868 427.215 670.084 426.427 670.084 426.427C670.084 426.427 670.656 416.213 670.219 412.823Z" fill="#8C50FF"/>
<path d="M667.964 361.272C666.79 361.332 665.913 361.632 665.765 361.272C665.642 360.665 665.553 360.051 665.498 359.434C665.634 359.095 665.752 358.73 665.752 358.73C667.227 357.819 667.71 356.226 667.871 354.371C668.201 351.193 666.485 348.44 663.312 348.101C660.325 347.791 658.135 349.888 657.55 352.761C657.232 354.184 656.605 356.866 657.457 359.209C657.927 360.514 658.541 361.556 659.152 361.751C659.743 361.734 660.333 361.683 660.918 361.599C660.918 361.599 661.079 362.48 661.185 363.043C661.291 363.607 661.253 363.891 660.126 364.611C658.999 365.331 661.821 366.729 663.676 366.594C665.532 366.458 667.595 365.323 668.18 364.14C668.828 362.806 668.773 361.234 667.964 361.272Z" fill="#FFCEA9"/>
<path d="M666.268 361.45C666.594 362.259 665.764 363.251 663.561 363.946C661.358 364.64 661.155 363.746 661.155 363.746C661.155 363.746 657.918 365.221 656.863 365.954C655.541 366.882 654.956 369.559 654.774 374.084C654.567 379.316 654.554 387.078 654.723 388.421C654.723 388.421 657.202 390.886 660.367 390.624C663.531 390.361 668.84 387.565 670.162 385.4C670.124 380.812 669.59 380.062 670.331 377.422C672.026 371.368 672.928 368.894 672.102 364.886C671.42 361.569 670.463 361.158 669.136 361.192C668.176 361.226 667.219 361.312 666.268 361.45Z" fill="#F4F4F4"/>
<path d="M649.811 379.286C652.412 379.943 653.018 378.303 653.365 376.935C654.213 373.651 654.636 370.669 655.25 368.821C655.975 366.618 656.738 366.279 657.792 365.856C659.063 365.356 660.144 366.415 659.707 369.215C659.216 372.524 658.564 374.854 657.326 378.769C657.004 379.794 656.28 381.612 655.208 382.489C653.869 383.573 651.853 383.527 648.794 382.768C647.489 382.442 646.053 381.667 643.595 380.515C642.935 380.205 642.422 380.002 641.151 379.409C639.876 378.837 638.758 377.965 637.893 376.867C637.224 375.901 637.139 375.448 637.274 375.227C637.41 375.007 637.745 375.011 638.122 375.422C638.637 376.105 639.272 376.689 639.994 377.146C639.994 377.146 639.172 376.299 638.723 375.748C638.324 375.26 637.993 374.72 637.74 374.143C637.503 373.583 637.986 372.821 638.355 373.219C638.723 373.617 638.901 374.028 639.575 374.833C639.92 375.257 640.316 375.636 640.753 375.964C640.336 375.399 639.965 374.801 639.643 374.177C639.364 373.686 639.227 373.127 639.249 372.562C639.249 372.27 639.672 371.918 640.096 372.478C640.52 373.037 640.672 373.749 641.494 374.596C642.083 375.215 642.591 375.566 642.604 375.397C642.617 375.227 642.244 374.888 642.032 374.172C641.82 373.456 642.032 372.694 642.426 372.605C642.82 372.516 642.748 372.541 643.066 373.215C643.384 373.888 643.871 374.393 644.239 375.363C644.44 376.054 644.806 376.685 645.307 377.202C645.913 377.909 647.324 378.663 649.811 379.286Z" fill="#FFCEA9"/>
<path d="M658.754 365.411C657.017 365.149 655.788 365.932 655.026 368.542C654.263 371.152 653.729 373.342 653.729 373.342C654.417 374.334 655.459 375.025 656.64 375.274C658.716 375.774 659.457 374.787 659.457 374.787C659.457 374.787 660.034 372.042 660.394 370.152C660.754 368.263 660.902 365.721 658.754 365.411Z" fill="#EDEDED"/>
<path d="M657.664 352.345C657.664 352.345 654.923 348.177 660.862 347.329C665.15 346.715 667.916 349.448 668.221 352.456C668.526 355.307 666.768 358.277 665.497 359.45C664.879 359.675 663.54 359.798 661.799 359.027C661.724 358.245 661.696 357.46 661.714 356.675C661.714 356.675 663.803 352.273 657.664 352.345Z" fill="#3A2C6D"/>
<path d="M671.709 370.821L654.733 386.649L653.742 417.085C653.742 417.085 658.504 419.411 663.91 418.153L664.901 406.468L666.401 417.06L666.223 417.382C668.787 416.233 670.986 414.401 672.578 412.086L671.709 370.821Z" fill="#F4F4F4"/>
<path d="M653.729 373.342L652.882 377.015C652.882 377.015 652.17 379.587 650.34 378.935C648.617 378.21 646.938 377.385 645.311 376.465L643.117 380.968L647.654 383.087C647.654 383.087 653.954 385.332 655.704 383.087C657.454 380.841 659.419 374.779 659.419 374.779L653.729 373.342Z" fill="#EDEDED"/>
<rect width="94.645" height="94.645" rx="8" transform="matrix(0.866025 -0.5 0.866025 0.5 282.85 620.758)" fill="#6D6D6D"/>
<path fill-rule="evenodd" clip-rule="evenodd" d="M289.778 616.758C285.952 618.967 285.952 622.549 289.778 624.758L357.887 664.08C361.713 666.289 367.917 666.289 371.743 664.08L439.852 624.758C443.678 622.549 443.678 618.967 439.852 616.758L421.383 606.095L438.891 603.154C443.248 602.422 443.248 601.236 438.891 600.504L400.544 594.063L371.743 577.435C367.917 575.226 361.713 575.226 357.887 577.435L329.086 594.063L290.74 600.504C286.383 601.236 286.383 602.422 290.74 603.154L308.248 606.095L289.778 616.758Z" fill="#DEE8F3"/>
<rect width="94.645" height="94.645" rx="8" transform="matrix(0.866025 -0.5 0.866025 0.5 282.85 601.828)" fill="#FDFDFD"/>
<path opacity="0.4" d="M364.78 581.622C371.48 581.622 376.912 578.486 376.912 574.618C376.912 570.75 371.48 567.614 364.78 567.614C358.08 567.614 352.649 570.75 352.649 574.618C352.649 578.486 358.08 581.622 364.78 581.622Z" fill="#D6D8E5"/>
<path d="M364.248 509.122C364.734 508.341 368.45 507.828 369.675 510.977C370.134 512.169 370.065 515.222 370.455 517.136C370.845 519.05 371.754 520.141 372.059 521.697C372.364 523.253 371.856 525.857 368.108 526.322C364.36 526.787 361.478 525.466 360.591 524.269C359.703 523.071 359.687 520.526 360.591 519.173C361.494 517.821 362.195 516.698 362.195 514.896L364.248 509.122Z" fill="#3A2C6D"/>
<path d="M359.796 522.296C359.796 522.296 358.914 528.535 360.582 532.925C362.25 537.314 361.785 531.786 361.785 531.786L361.384 530.471C361.384 530.471 361.053 525.391 361.192 524.146C361.331 522.9 361.298 521.831 361.384 521.729C361.47 521.627 361.058 521.43 360.881 521.403C360.705 521.376 359.796 522.296 359.796 522.296Z" fill="#FFCEA9"/>
<path d="M366.701 508.582C366.701 508.582 363.905 507.775 362.21 509.288C361.65 509.802 361.242 510.461 361.031 511.192C360.82 511.922 360.813 512.697 361.012 513.431C361.237 514.313 361.691 515.522 362.392 515.57C363.092 515.618 366.701 508.582 366.701 508.582Z" fill="#3A2C6D"/>
<path d="M367.769 516.239C367.769 516.239 367.587 519.356 367.646 519.586C367.705 519.816 368.865 520.035 369.196 520.308C369.528 520.58 367.501 523.74 366.47 524.211C365.438 524.681 362.256 523.483 362.037 521.895C361.834 520.441 362.946 519.308 363.379 518.912C363.671 518.893 363.964 518.893 364.256 518.912L364.347 517.404C365.742 516.907 367.769 516.239 367.769 516.239Z" fill="#FFCEA9"/>
<path d="M368.195 519.858C369.072 519.997 370.072 520.462 370.211 520.927C370.572 522.654 370.486 524.445 369.959 526.13C369.2 528.135 368.692 529.412 368.254 530.279C368.254 530.279 364.463 531.883 361.41 530.006C361.41 530.006 361.196 527.867 361.185 526.707C358.362 524.248 360.774 521.211 363.164 518.853C363.45 518.832 363.738 518.832 364.025 518.853C364.025 518.853 361.886 521.377 363.378 522.809C366.548 521.852 367.179 520.43 368.195 519.858Z" fill="#F4F4F4"/>
<path d="M361.948 512.346C362.263 510.341 363.707 508.828 365.776 508.951C366.614 508.991 367.418 509.294 368.072 509.819C368.727 510.343 369.198 511.061 369.42 511.87C369.641 512.679 369.601 513.538 369.304 514.322C369.008 515.107 368.471 515.778 367.77 516.238C367.699 516.54 367.593 516.832 367.455 517.11C366.722 517.965 364.782 518.505 364.135 518.511C363.6 518.511 363.103 518.003 362.584 517.142C361.499 515.324 361.777 513.335 361.948 512.346Z" fill="#FFCEA9"/>
<path d="M366.411 508.989C367.86 509.272 369.053 509.678 369.448 511.1C369.716 512.084 370.068 513.95 369.732 514.736L369.528 515.308L367.769 516.239C367.769 516.239 366.951 515.554 367.208 513.565C367.196 513.295 367.111 513.032 366.962 512.806C366.851 512.618 366.768 512.414 366.716 512.202C366.508 511.663 366.103 511.223 365.583 510.972C364.273 510.24 362.375 510.871 362.097 511.138C362.457 510.336 363.083 509.684 363.87 509.292C364.656 508.9 365.555 508.793 366.411 508.989Z" fill="#3A2C6D"/>
<path d="M370.312 534.417C370.638 532.385 371.247 531.07 370.964 529.952C370.333 527.693 369.506 525.492 368.494 523.376C367.852 522.114 368.05 521.237 368.713 520.735C369.462 520.2 370.173 520.419 370.852 521.804C371.702 523.563 372.654 525.37 373.119 527.99C373.417 529.685 373.395 531.42 373.055 533.107C372.766 534.93 372.188 535.956 371.499 537.667C371.306 538.159 370.034 536.149 370.312 534.417Z" fill="#FFCEA9"/>
<path d="M369.047 572.287C368.315 572.881 367.17 572.469 367.117 572.523C366.265 573.257 365.373 573.942 364.444 574.576C363.984 574.934 363.273 575.415 363.401 576.11C363.631 577.345 365.609 576.966 366.358 576.586C367.106 576.206 367.71 575.581 368.416 575.142C368.924 574.827 369.416 574.666 369.485 574.03C369.534 573.645 369.175 572.271 369.047 572.287Z" fill="#38226D"/>
<path d="M369.476 573.773C369.379 574.382 368.893 574.554 368.406 574.842C367.69 575.286 367.059 575.912 366.31 576.307C365.562 576.703 363.899 577.002 363.418 576.12C363.68 577.312 365.626 576.938 366.364 576.564C367.102 576.19 367.717 575.559 368.422 575.12C368.93 574.805 369.422 574.644 369.492 574.008C369.492 573.929 369.487 573.851 369.476 573.773Z" fill="#9C73FF"/>
<path d="M363.899 571.255C363.23 571.79 362.214 571.496 362.166 571.549C361.383 572.217 360.564 572.842 359.712 573.42C359.29 573.746 358.643 574.19 358.755 574.821C358.969 575.955 360.781 575.607 361.466 575.26C362.15 574.912 362.706 574.34 363.353 573.939C363.813 573.65 364.267 573.501 364.342 572.918C364.385 572.565 364.021 571.244 363.899 571.255Z" fill="#38226D"/>
<path d="M364.325 572.683C364.235 573.244 363.791 573.394 363.331 573.682C362.673 574.089 362.096 574.677 361.412 575.024C360.727 575.372 359.203 575.661 358.738 574.853C358.979 575.923 360.759 575.602 361.412 575.26C362.064 574.918 362.652 574.34 363.299 573.939C363.759 573.65 364.213 573.501 364.288 572.918C364.308 572.841 364.32 572.762 364.325 572.683Z" fill="#9C73FF"/>
<path d="M359.95 537.144C360.276 534.615 361.206 530.942 361.206 530.942C362.088 531.356 363.041 531.594 364.013 531.642C365.436 531.633 366.856 531.494 368.253 531.225C368.71 532.023 369.21 532.796 369.75 533.54C370.477 534.551 371.889 536.748 371.552 540.646C371.333 543.175 369.911 553.927 369.911 553.927C370.463 555.735 370.756 557.613 370.782 559.504C370.654 561.749 370.357 563.981 369.895 566.181L369.05 572.287C369.05 572.287 367.922 573.1 367.12 572.522L367.221 566.55C367.125 565.091 366.981 562.936 366.884 561.557C366.735 559.316 366.35 555.756 366.216 554.863C366.082 553.97 365.815 552.419 365.681 550.676C365.548 548.933 364.89 540.09 364.89 540.09L364.799 541.747C364.799 541.747 364.708 544.421 364.323 547.757C363.938 551.093 363.789 552.569 363.789 552.569C364.154 553.237 364.411 553.959 364.548 554.708C364.617 555.424 365.435 561.124 364.944 563.989L363.949 571.309C363.698 571.482 363.41 571.592 363.108 571.632C362.806 571.672 362.499 571.64 362.211 571.539L361.618 564.139C361.222 561.321 360.383 555.355 360.255 554.579C359.969 553.017 359.801 551.435 359.752 549.848C359.554 546.645 359.629 539.673 359.95 537.144Z" fill="#FFCEA9"/>
<path d="M368.256 530.294L370.432 534.668C370.432 534.668 373.758 539.533 370.314 552.034L370.961 555.889C370.961 555.889 364.444 560.075 360.081 555.889C360.081 555.889 358.568 544.335 359.375 539.009C359.82 535.945 360.499 532.918 361.407 529.958C361.407 529.958 362.476 531.139 367.967 530.359" fill="#F9A72E"/>
<path d="M372.163 524.285C372.163 524.285 370.65 525.793 368.853 525.606L367.992 522.654C367.992 522.654 367.458 521.12 368.741 520.446C370.024 519.773 371.409 521.28 372.163 524.285Z" fill="#EDEDED"/>
<path d="M363.164 518.869C363.164 518.869 361.432 518.334 359.599 522.178L360.283 522.589C361.142 521.274 362.105 520.029 363.164 518.869Z" fill="#EDEDED"/>
<path opacity="0.4" d="M317.566 608.705C324.979 608.705 330.988 605.236 330.988 600.956C330.988 596.676 324.979 593.207 317.566 593.207C310.153 593.207 304.144 596.676 304.144 600.956C304.144 605.236 310.153 608.705 317.566 608.705Z" fill="#D6D8E5"/>
<path d="M311.244 599.01C312.161 599.756 313.51 599.075 313.575 599.146C314.652 600.14 315.779 601.078 316.953 601.956C317.544 602.406 318.414 603.003 318.248 603.867C317.964 605.405 315.497 604.932 314.563 604.458C313.628 603.985 312.871 603.21 311.99 602.684C311.363 602.293 310.747 602.092 310.647 601.3C310.564 600.797 311.061 598.993 311.244 599.01Z" fill="#2B2A30"/>
<path d="M310.652 600.956C310.776 601.713 311.385 601.926 312.006 602.311C312.906 602.867 313.692 603.671 314.621 604.138C315.55 604.606 317.626 605.008 318.229 603.908C317.904 605.393 315.479 604.925 314.556 604.458C313.633 603.991 312.864 603.21 311.983 602.683C311.356 602.293 310.741 602.092 310.64 601.299C310.635 601.185 310.639 601.07 310.652 600.956Z" fill="#BF4B4B"/>
<path d="M319.16 596.058C320.077 596.804 321.674 595.993 321.745 596.058C322.696 597.024 323.701 597.935 324.756 598.785C325.348 599.229 326.217 599.832 326.057 600.696C325.768 602.234 323.301 601.761 322.372 601.288C321.443 600.814 320.68 600.034 319.799 599.513C319.172 599.123 318.551 598.921 318.456 598.129C318.397 597.626 319 596.041 319.16 596.058Z" fill="#2B2A30"/>
<path d="M318.478 597.892C318.602 598.649 319.211 598.862 319.832 599.247C320.731 599.803 321.518 600.607 322.447 601.08C323.376 601.554 325.452 601.944 326.055 600.844C325.73 602.329 323.305 601.867 322.382 601.4C321.459 600.933 320.696 600.146 319.815 599.596C319.182 599.205 318.566 599.004 318.466 598.212C318.462 598.105 318.466 597.998 318.478 597.892Z" fill="#BF4B4B"/>
<path d="M311.164 565.245C311.211 566.629 311.637 572.639 311.832 575.816C312.027 578.992 312.069 582.914 312.069 582.914C312.069 582.914 311.519 585.227 311.164 587.954C310.809 590.681 311.164 599.27 311.164 599.27C311.516 599.499 311.927 599.621 312.347 599.621C312.767 599.621 313.178 599.499 313.53 599.27C313.53 599.27 314.997 592.391 315.671 589.291C316.345 586.191 316.47 584.405 316.819 582.488C317.245 580.164 318.161 569.321 318.161 569.321H318.528L319.51 581.56C319.207 582.462 318.999 583.394 318.889 584.34C318.623 586.333 319.173 596.366 319.173 596.366C319.564 596.583 320.007 596.688 320.454 596.669C320.901 596.651 321.334 596.509 321.705 596.259C321.705 596.259 324.148 582.973 324.148 580.956C324.148 579.613 323.923 561.986 323.923 561.986L311.164 565.245Z" fill="#4696F5"/>
<path d="M314.486 538.514C314.486 538.514 314.64 541.531 314.575 541.797C314.51 542.063 313.191 542.945 312.801 543.264C312.41 543.584 314.889 545.997 316.089 546.589C317.29 547.18 321.094 545.689 321.159 543.82C321.224 541.951 320.508 540.383 319.928 540.301C319.349 540.218 314.486 538.514 314.486 538.514Z" fill="#FFCEA9"/>
<path d="M322.739 544.11C322.916 542.779 322.041 541.513 322.887 540.455C325.844 543.377 325.489 551.102 326.164 556.041C328.376 558.348 332.818 560.626 334.067 561.188C334.291 561.294 334.492 561.407 334.445 561.649C334.278 562.472 333.924 563.245 333.41 563.909C330.452 562.643 328.352 561.915 324.679 558.425C324.331 558.048 324.02 557.638 323.75 557.201C322.703 554.054 322.437 546.405 322.739 544.11Z" fill="#FFCEA9"/>
<path d="M314.147 542.318C314.147 542.318 316.336 545.577 319.388 545.867C320.352 544.921 320.435 541.543 319.104 540.46C319.104 540.46 320.329 539.473 321.169 539.662C322.078 540.21 322.756 541.073 323.073 542.087C323.847 544.331 324.212 546.695 324.15 549.067C324.097 552.267 324.15 562.045 324.15 562.045C324.15 562.045 323.724 564.11 320.962 565.648C318.199 567.186 316.146 567.34 314.271 566.902C312.727 566.541 311.45 565.997 310.917 564.879C311.059 562.631 312.059 556.781 311.686 553.959C311.314 551.137 310.716 549.038 310.562 546.754C310.409 544.471 310.858 544.518 312.006 543.708C312.685 543.193 313.4 542.728 314.147 542.318Z" fill="#F4F4F4"/>
<path d="M321.299 534.018C320.938 531.652 319.253 529.877 316.833 530.037C315.863 530.088 314.933 530.443 314.174 531.051C313.416 531.659 312.867 532.489 312.606 533.425C312.345 534.362 312.384 535.356 312.718 536.269C313.052 537.182 313.663 537.967 314.467 538.513C314.551 538.868 314.676 539.212 314.84 539.537C315.692 540.537 318.277 541.152 319.016 541.045C319.458 541.01 319.879 540.843 320.225 540.566C320.571 540.288 320.826 539.913 320.956 539.49C321.761 537.632 321.506 535.171 321.299 534.018Z" fill="#FFCEA9"/>
<path d="M314.486 538.514L314.705 536.467C314.705 536.467 313.019 532.149 316.982 532.983C319.585 533.533 320.235 533.77 321.028 532.025C321.821 530.28 319.029 528.707 315.704 529.144C314.562 529.264 313.506 529.808 312.746 530.669C311.986 531.53 311.576 532.645 311.599 533.794C311.694 535.071 312.037 537.674 314.486 538.514Z" fill="#2B2A30"/>
<path d="M309.861 545.405C311.003 545.08 310.134 545.346 311.003 545.08C313.961 547.996 313.612 553.001 314.286 557.94C315.931 560.667 322.029 564.334 322.029 564.334C322.106 564.861 321.923 565.015 321.26 566.109C317.865 564.807 314.778 562.815 312.192 560.259C312.044 560.123 311.831 560.081 311.772 559.898C310.725 556.727 309.56 547.706 309.861 545.405Z" fill="#FFCEA9"/>
<path d="M337.001 551.504L332.571 566.659L322.84 570.545L326.389 555.781L337.001 551.504Z" fill="#F4F4F4"/>
<path d="M320.497 564.459C320.639 563.938 321.012 564.068 321.438 564.199C321.893 564.384 322.394 564.427 322.875 564.323C323.249 564.139 323.596 563.904 323.904 563.625C324.101 563.506 324.326 563.443 324.555 563.441C324.555 563.572 324.33 564.341 324.33 564.341C324.33 564.341 326.466 564.341 326.696 564.341C326.77 564.327 326.846 564.337 326.914 564.368C326.981 564.4 327.038 564.452 327.075 564.517C327.112 564.582 327.127 564.657 327.12 564.731C327.113 564.805 327.083 564.876 327.034 564.932H327.181C327.613 564.837 327.773 565.524 327.365 565.606L327.01 565.66C327.294 565.772 327.365 566.251 327.01 566.31H326.897C326.847 566.319 326.795 566.319 326.744 566.31H326.619C326.631 566.361 326.631 566.414 326.621 566.464C326.61 566.515 326.589 566.563 326.559 566.606C326.529 566.648 326.491 566.684 326.446 566.71C326.401 566.737 326.352 566.754 326.3 566.76C325.259 566.896 323.727 567.31 322.786 566.452C322.133 566.39 321.495 566.218 320.899 565.944C320.337 565.66 320.32 565.074 320.497 564.459Z" fill="#FFCEA9"/>
<path d="M331.137 563.216H331.284C331.223 563.172 331.177 563.11 331.153 563.039C331.129 562.967 331.128 562.89 331.151 562.818C331.174 562.746 331.22 562.683 331.281 562.639C331.342 562.595 331.416 562.571 331.491 562.571C331.71 562.571 333.904 562.11 333.904 562.11L334.171 561.211C334.171 561.158 334.549 561.389 334.561 561.4C334.747 561.52 334.904 561.681 335.019 561.871C335.134 562.06 335.204 562.274 335.223 562.494C335.235 562.805 335.184 563.115 335.076 563.406C334.967 563.697 334.802 563.964 334.591 564.192C334.201 564.579 333.679 564.803 333.13 564.819C332.864 564.819 332.609 564.848 332.379 564.872C332.327 564.875 332.275 564.868 332.226 564.85C332.177 564.833 332.132 564.806 332.093 564.77C332.055 564.735 332.025 564.692 332.004 564.644C331.982 564.597 331.971 564.546 331.971 564.494H331.9C331.849 564.508 331.796 564.508 331.746 564.494H331.633C331.261 564.494 331.231 564.032 331.486 563.867H331.125C330.652 563.908 330.693 563.21 331.137 563.216Z" fill="#FFCEA9"/>
<path d="M323.982 546.085C324.582 546.058 325.148 545.805 325.567 545.376C325.485 544.252 324.053 539.999 321.167 539.679C321.94 540.235 322.553 540.986 322.941 541.856C323.395 543.237 323.743 544.651 323.982 546.085Z" fill="#EDEDED"/>
<path d="M309.343 551.705C309.343 551.705 312.212 552.699 314.235 551.031C314.46 550.652 313.052 545.766 313.052 545.766C313.052 545.766 311.869 543.27 309.964 544.264C308.059 545.257 309.343 551.705 309.343 551.705Z" fill="#EDEDED"/>
<path opacity="0.4" d="M364.843 637.238C371.321 637.238 376.573 634.206 376.573 630.466C376.573 626.725 371.321 623.693 364.843 623.693C358.365 623.693 353.113 626.725 353.113 630.466C353.113 634.206 358.365 637.238 364.843 637.238Z" fill="#D6D8E5"/>
<path d="M371.61 578.423C372.644 578.718 373.223 579.85 374.123 582.274C374.871 584.474 375.237 586.785 375.203 589.109C374.914 591.393 373.968 593.172 371.683 595.023L370.592 593.022C370.592 593.022 372.83 591.047 373.058 588.762C373.187 587.48 371.683 583.158 371.683 583.039C371.683 582.92 371.61 578.423 371.61 578.423Z" fill="#FFCEA9"/>
<path d="M362.66 631.08C362.316 631.185 361.953 631.214 361.596 631.166C361.239 631.118 360.897 630.993 360.592 630.801C360.034 630.801 356.751 629.514 356.338 630.605C355.976 631.561 357.294 632.45 357.992 632.621C359.543 632.988 360.659 633.753 361.28 633.882C361.514 633.966 361.765 633.991 362.012 633.957C362.259 633.923 362.493 633.83 362.696 633.686C363.125 633.252 363.089 631.649 362.66 631.08Z" fill="#38226D"/>
<path d="M361.268 633.619C360.647 633.489 359.515 632.724 357.98 632.352C357.396 632.213 356.377 631.566 356.279 630.801C356.139 631.68 357.313 632.461 357.98 632.621C359.531 632.988 360.647 633.753 361.268 633.882C361.502 633.966 361.753 633.991 362 633.957C362.246 633.923 362.481 633.83 362.684 633.686C362.777 633.579 362.846 633.454 362.886 633.319C362.658 633.491 362.393 633.608 362.112 633.66C361.831 633.712 361.542 633.698 361.268 633.619Z" fill="#9C73FF"/>
<path d="M370.997 626.748C370.696 626.852 370.375 626.881 370.061 626.833C369.747 626.785 369.449 626.662 369.192 626.474C368.675 626.474 365.3 625.244 364.902 626.293C364.555 627.214 365.822 628.061 366.494 628.227C367.972 628.584 369.079 629.323 369.658 629.447C369.884 629.526 370.126 629.551 370.363 629.517C370.601 629.484 370.827 629.394 371.023 629.256C371.446 628.837 371.41 627.296 370.997 626.748Z" fill="#38226D"/>
<path d="M369.655 629.193C369.061 629.064 367.97 628.33 366.491 627.973C365.928 627.834 364.941 627.213 364.853 626.474C364.723 627.322 365.887 628.077 366.491 628.227C367.97 628.583 369.076 629.323 369.655 629.447C369.882 629.526 370.124 629.55 370.361 629.517C370.598 629.484 370.824 629.394 371.02 629.255C371.111 629.153 371.177 629.031 371.211 628.899C370.993 629.066 370.739 629.18 370.468 629.231C370.198 629.282 369.92 629.269 369.655 629.193Z" fill="#9C73FF"/>
<path d="M372.097 618.42C372.098 617.16 371.882 615.91 371.456 614.724C371.456 614.724 371.88 609.663 372.205 606.339C372.681 601.438 373.436 600.952 373.239 597.974C373.043 595.214 371.471 593.425 371.063 591.554L363.066 592.184C363.066 592.184 362.368 594.454 361.468 598.972C360.569 603.49 360.507 608.862 360.579 615.975C360.579 617.81 360.269 619.403 360.372 623.973C360.445 627.043 360.62 630.807 360.62 630.807C361.789 631.81 362.6 631.07 362.6 631.07C362.6 631.07 364.668 621.972 364.952 619.883C365.17 618.728 365.073 617.536 364.673 616.43C364.673 616.43 365.273 613.571 365.707 611.322C366.224 608.577 367.594 602.653 367.594 602.653C367.594 602.653 367.362 611.757 367.76 613.551C368.158 615.344 368.225 616.906 368.566 619.346C368.974 622.292 369.161 626.609 369.161 626.609C370.381 627.385 370.923 626.79 370.923 626.79C370.923 626.79 372.097 621 372.097 618.42Z" fill="#FFCEA9"/>
<path d="M371.043 591.554C371.881 592.412 373.266 595.023 373.266 598.972C373.266 603.418 372.62 602.519 372.31 607.414L372 612.31C372 612.31 365.315 615.5 360.549 612.542C360.125 611.617 360.709 601.319 361.547 597.659C362.384 593.999 362.958 592.205 362.958 592.205C362.958 592.205 369.105 593.865 371.043 591.554Z" fill="#8C50FF"/>
<path d="M371.142 578.376C369.436 578.273 369.271 578.557 369.136 577.952C369.09 577.735 368.991 576.236 368.991 576.236C369.149 576.036 369.292 575.825 369.421 575.605C369.993 575.26 370.478 574.786 370.836 574.222C371.195 573.658 371.418 573.018 371.488 572.353C371.609 571.199 371.265 570.044 370.535 569.143C369.804 568.241 368.745 567.667 367.591 567.546C365.331 567.313 363.667 568.9 363.222 571.082C362.984 572.157 362.736 574.354 363.408 576.117C363.786 577.115 364.137 577.813 365.037 577.776C365.337 577.749 365.634 577.698 365.926 577.621C365.974 578.035 365.991 578.451 365.978 578.867C365.978 579.307 366.029 579.524 365.171 580.051C364.313 580.578 366.464 581.654 367.865 581.55C369.265 581.447 370.837 580.599 371.271 579.694C371.747 578.681 371.943 578.423 371.142 578.376Z" fill="#FFCEA9"/>
<path d="M372.394 585.929C372.394 585.929 374.322 585.495 375.206 584.636C375.206 584.636 374.059 581.018 373.324 580.118C372.59 579.219 371.877 585.024 371.877 585.024L372.394 585.929Z" fill="#EDEDED"/>
<path d="M369.445 578.339C369.76 578.732 369.797 579.223 368.582 579.534C367.698 579.785 366.754 579.711 365.919 579.327C364.962 579.732 364.042 580.219 363.169 580.785C362.135 584.197 362.967 584.636 362.533 587.081C362.704 588.312 362.905 591.486 362.957 592.204C365.278 593.828 369.988 593.274 371.042 591.553C371.061 590.98 371.115 590.408 371.203 589.842C372.309 585.737 373.172 584.672 372.867 581.57C372.692 579.802 372.552 578.913 371.611 578.438C370.896 578.311 370.168 578.278 369.445 578.339Z" fill="#F4F4F4"/>
<path d="M348.135 591.688C348.661 591.801 349.18 591.949 349.686 592.132C350.161 592.382 350.672 592.557 351.201 592.649C351.769 592.737 352.658 592.443 354.194 591.719C355.875 590.857 357.396 589.713 358.691 588.338C360.163 586.587 361.478 584.71 362.62 582.729C363.287 581.514 364.13 581.209 364.864 581.447C365.743 581.736 365.851 582.61 364.864 584.244C363.603 586.378 362.094 588.354 360.366 590.132C359.004 591.494 357.418 592.613 355.677 593.44C354.436 594.086 353.107 594.548 351.733 594.81C351.252 594.914 350.927 595.115 350.037 595.425C349.153 595.747 348.205 595.852 347.272 595.73C346.501 595.581 346.238 595.405 346.207 595.213C346.176 595.022 346.331 594.888 346.693 594.914C347.263 595.004 347.844 594.99 348.409 594.872C348.409 594.872 347.613 594.846 347.142 594.79C346.72 594.744 346.306 594.639 345.912 594.479C345.535 594.319 345.395 593.725 345.778 593.745C346.16 593.766 346.419 593.88 347.122 593.952C347.493 593.997 347.868 593.997 348.238 593.952C347.773 593.875 347.315 593.761 346.868 593.611C346.499 593.513 346.166 593.308 345.912 593.022C345.783 592.872 345.819 592.505 346.269 592.598C346.81 592.786 347.373 592.91 347.944 592.965C348.518 592.965 348.926 592.918 348.854 592.83C348.781 592.742 348.44 592.753 348.006 592.51C347.571 592.267 347.313 591.796 347.489 591.569C347.665 591.341 347.665 591.512 348.135 591.688Z" fill="#FFCEA9"/>
<path d="M363.939 586.218C362.596 586.023 361.354 585.393 360.403 584.424L362.544 581.457C362.544 581.457 363.748 579.937 365.34 580.795C365.34 580.795 366.54 580.925 365.34 583.437C364.932 584.393 364.464 585.322 363.939 586.218Z" fill="#EDEDED"/>
<path d="M362.807 569.794C362.892 569.284 363.174 568.828 363.591 568.523C364.008 568.217 364.529 568.087 365.04 568.161C365.788 567.659 366.69 567.441 367.584 567.546C369.616 567.757 370.944 569.096 371.559 571.113C371.861 572.124 372.062 573.163 372.159 574.214C372.769 578.738 374.413 582.326 372.878 583.67C371.342 585.014 367.134 585.867 365.376 585.024C363.619 584.181 366.824 576.386 363.345 572.053C362.528 571.025 362.45 570.306 362.807 569.794Z" fill="#3A2C6D"/>
<path d="M414.202 601.537C413.288 602.282 411.936 601.599 411.867 601.667C410.792 602.667 409.663 603.607 408.484 604.483C407.913 604.935 407.038 605.535 407.183 606.399C407.472 607.946 409.944 607.483 410.877 606.995C411.81 606.507 412.572 605.741 413.454 605.188C414.083 604.798 414.705 604.595 414.802 603.8C414.86 603.323 414.365 601.516 414.202 601.537Z" fill="#38226D"/>
<path d="M414.785 603.482C414.662 604.245 414.062 604.454 413.426 604.841C412.53 605.401 411.738 606.204 410.806 606.677C409.945 607.111 407.795 607.545 407.191 606.442C407.52 607.931 409.949 607.465 410.871 606.995C411.792 606.525 412.566 605.741 413.448 605.188C414.077 604.798 414.698 604.595 414.796 603.8C414.804 603.694 414.8 603.587 414.785 603.482Z" fill="#9C73FF"/>
<path d="M406.247 598.576C405.329 599.325 403.717 598.508 403.659 598.576C402.706 599.544 401.697 600.456 400.637 601.305C400.066 601.757 399.173 602.357 399.336 603.221C399.621 604.765 402.097 604.306 403.03 603.818C403.963 603.33 404.722 602.563 405.607 602.01C406.236 601.62 406.854 601.417 406.952 600.622C407.013 600.145 406.41 598.558 406.247 598.576Z" fill="#38226D"/>
<path d="M406.926 600.413C406.803 601.176 406.203 601.385 405.567 601.772C404.671 602.332 403.879 603.135 402.947 603.608C402.086 604.042 399.936 604.476 399.332 603.373C399.661 604.863 402.09 604.396 403.012 603.926C403.933 603.457 404.707 602.672 405.589 602.119C406.218 601.729 406.84 601.526 406.937 600.731C406.945 600.625 406.942 600.518 406.926 600.413Z" fill="#9C73FF"/>
<path d="M414.255 567.701C414.211 569.086 413.778 575.108 413.586 578.292C413.394 581.477 413.351 585.384 413.351 585.384C413.351 585.384 413.901 587.705 414.255 590.444C414.609 593.184 414.255 601.783 414.255 601.783C413.905 602.008 413.498 602.128 413.082 602.128C412.666 602.128 412.259 602.008 411.909 601.783C411.909 601.783 410.441 594.89 409.762 591.785C409.082 588.681 408.963 586.891 408.612 584.965C408.186 582.637 407.268 571.771 407.268 571.771L406.906 571.793L405.923 584.057C406.227 584.961 406.436 585.894 406.545 586.841C406.809 588.84 406.263 598.892 406.263 598.892C405.872 599.108 405.429 599.212 404.983 599.194C404.537 599.175 404.104 599.035 403.733 598.787C403.733 598.787 401.286 585.474 401.286 583.447C401.286 582.109 401.513 564.438 401.513 564.438L414.255 567.701Z" fill="#DD7A7A"/>
<path d="M403.659 568.634C403.262 568.294 403.012 567.868 402.409 567.434C401.881 567.051 401.494 566.859 401.176 566.349C400.858 565.84 400.876 563.855 400.753 562.07C400.605 559.966 400.992 557.201 401.386 556.088C402.188 553.828 401.939 550.051 402.47 548.775C403.002 547.499 404.567 547.778 404.068 547.134C403.486 546.375 401.216 545.902 400.215 547.637C399.213 549.372 399.235 553.181 398.523 555.824C398.162 557.1 398.125 558.448 398.303 561.152C398.425 563.042 398.458 564.893 399.004 566.707C399.152 567.202 399.138 567.745 399.307 568.721C399.477 569.697 399.716 570.864 400.251 571.497C400.786 572.129 401.082 572.27 401.256 572.219C401.429 572.169 401.491 571.934 401.277 571.619C400.906 571.142 400.622 570.602 400.439 570.025C400.439 570.025 400.869 570.748 401.162 571.146C401.424 571.507 401.733 571.831 402.08 572.111C402.42 572.375 403.03 572.183 402.824 571.858C402.618 571.533 402.373 571.338 401.942 570.734C401.715 570.412 401.526 570.065 401.379 569.7C401.688 570.088 402.028 570.45 402.394 570.785C402.675 571.071 403.033 571.269 403.424 571.356C403.627 571.399 403.941 571.179 403.634 570.81C403.327 570.441 402.864 570.181 402.434 569.465C402.12 568.948 401.971 568.536 402.091 568.558C402.21 568.58 402.373 568.898 402.814 569.172C403.255 569.447 403.826 569.44 403.952 569.172C404.079 568.905 404.061 568.974 403.659 568.634Z" fill="#FFCEA9"/>
<path d="M410.931 540.91C410.931 540.91 410.776 543.931 410.841 544.199C410.906 544.466 412.229 545.352 412.615 545.67C413.002 545.988 410.523 548.428 409.323 548.981C408.123 549.534 404.306 548.077 404.24 546.205C404.175 544.333 404.891 542.764 405.477 542.681C406.062 542.598 410.931 540.91 410.931 540.91Z" fill="#FFCEA9"/>
<path d="M411.266 544.723C411.266 544.723 409.076 547.976 406.014 548.298C405.049 547.347 404.962 543.961 406.296 542.876C406.296 542.876 405.071 541.886 404.228 542.077C403.327 542.625 402.657 543.482 402.342 544.488C401.56 546.736 401.193 549.107 401.257 551.486C401.308 554.692 401.257 564.499 401.257 564.499C401.257 564.499 401.687 566.57 404.456 568.113C407.225 569.657 409.278 569.805 411.154 569.367C412.705 569.006 413.984 568.46 414.519 567.336C414.378 565.088 413.377 559.225 413.749 556.398C414.121 553.572 414.722 551.461 414.877 549.169C415.032 546.877 414.577 546.932 413.431 546.118C412.744 545.601 412.021 545.135 411.266 544.723Z" fill="#EDEDED"/>
<path d="M409.431 570.13C409.923 569.845 410.27 569.436 410.996 569.089C411.636 568.782 412.081 568.652 412.522 568.16C412.963 567.669 413.516 565.674 413.989 563.794C414.446 561.678 414.538 559.5 414.26 557.353C413.834 554.786 412.663 551.237 412.327 549.762C411.99 548.287 412.431 547.666 413.086 547.073C413.852 546.375 414.994 546.585 415.732 548.627C416.694 551.457 417.341 554.384 417.658 557.356C417.831 559.567 417.637 561.791 417.083 563.939C416.592 565.934 415.873 567.394 414.944 569.227C414.691 569.725 414.629 570.159 414.257 571.168C413.903 572.18 413.309 573.092 412.525 573.824C411.831 574.399 411.492 574.493 411.315 574.406C411.137 574.32 411.119 574.045 411.408 573.759C411.898 573.321 412.305 572.798 412.609 572.216C412.609 572.216 412.012 572.899 411.622 573.275C411.274 573.611 410.882 573.9 410.458 574.132C410.042 574.349 409.428 574.027 409.71 573.72C409.992 573.412 410.292 573.253 410.866 572.686C411.171 572.387 411.439 572.053 411.665 571.692C411.26 572.047 410.827 572.37 410.371 572.657C410.017 572.908 409.598 573.051 409.164 573.069C408.94 573.069 408.647 572.78 409.045 572.447C409.442 572.115 409.988 571.92 410.584 571.24C411.018 570.745 411.257 570.336 411.123 570.336C410.989 570.336 410.761 570.644 410.223 570.853C409.684 571.063 409.095 570.947 409.005 570.651C408.914 570.354 408.94 570.419 409.431 570.13Z" fill="#FFCEA9"/>
<path d="M404.092 536.406C404.454 534.06 406.145 532.282 408.564 532.43C409.537 532.481 410.469 532.836 411.23 533.445C411.99 534.054 412.54 534.886 412.802 535.825C413.064 536.763 413.025 537.76 412.69 538.675C412.355 539.59 411.741 540.377 410.935 540.924C410.853 541.279 410.732 541.623 410.573 541.951C409.72 542.952 407.132 543.57 406.388 543.462C405.433 543.324 404.916 542.927 404.461 541.886C403.633 540.028 403.897 537.566 404.092 536.406Z" fill="#FFCEA9"/>
<path d="M410.932 540.91L410.708 538.864C410.708 538.864 412.381 534.526 408.43 535.365C405.821 535.914 405.177 536.149 404.375 534.4C403.572 532.65 406.377 531.078 409.703 531.508C410.847 531.628 411.905 532.174 412.667 533.037C413.429 533.9 413.839 535.017 413.816 536.167C413.726 537.461 413.39 540.068 410.932 540.91Z" fill="#3A4151"/>
<path d="M417.693 552.657C417.693 552.657 415.524 554.804 412.994 554.186C412.632 553.937 411.75 548.923 411.75 548.923C411.75 548.923 411.75 546.147 413.883 546.22C416.016 546.292 417.693 552.657 417.693 552.657Z" fill="#D5D7E2"/>
<path d="M401.41 548.501C401.41 548.501 400.283 548.443 399.816 547.778C399.903 546.658 401.342 542.392 404.23 542.074C403.445 542.623 402.821 543.372 402.423 544.243C401.898 545.548 401.41 548.501 401.41 548.501Z" fill="#D5D7E2"/>
<path d="M404.521 559.774C404.501 559.837 404.499 559.903 404.514 559.967C404.53 560.03 404.562 560.089 404.608 560.136C404.65 560.161 404.698 560.175 404.747 560.175C404.796 560.175 404.844 560.161 404.886 560.136C404.967 560.083 405.038 560.017 405.096 559.94C405.205 559.817 405.298 559.681 405.374 559.536C405.493 559.283 405.475 558.759 405.074 558.856C404.673 558.954 404.575 559.467 404.521 559.774Z" fill="#FFCEA9"/>
<g opacity="0.6">
<rect width="94.6457" height="94.6457" rx="8" transform="matrix(0.866025 -0.5 0.866025 0.5 284.227 261.004)" fill="#6D6D6D"/>
<path fill-rule="evenodd" clip-rule="evenodd" d="M291.155 257.004C287.329 259.213 287.329 262.795 291.155 265.004L359.331 304.366C363.158 306.575 369.361 306.575 373.188 304.366L441.364 265.004C445.191 262.795 445.191 259.213 441.364 257.004L422.865 246.323L440.272 243.4C444.63 242.668 444.63 241.481 440.272 240.75L402.109 234.34L373.188 217.642C369.361 215.433 363.158 215.433 359.331 217.642L330.462 234.31L292.12 240.75C287.763 241.481 287.763 242.668 292.12 243.4L309.625 246.34L291.155 257.004Z" fill="#DEE8F3"/>
<rect width="94.5764" height="94.5764" rx="8" transform="matrix(0.866025 -0.5 0.866025 0.5 284.227 242.075)" fill="white"/>
<path fill-rule="evenodd" clip-rule="evenodd" d="M415.249 0H317.419V188.672H317.709L317.174 188.978L366.092 216.931L415.01 188.978L414.475 188.672H415.249V0Z" fill="url(#paint1_linear_2_598)"/>
<path d="M415.01 188.978L366.092 161.025L317.174 188.978L366.092 216.931L415.01 188.978Z" fill="#154078"/>
<path d="M366.092 216.931L317.174 188.978V244.447L366.092 272.4V216.931Z" fill="#2E84F6"/>
<path d="M366.091 216.931L415.009 188.978V244.447L366.091 272.4V216.931Z" fill="#38E6E6"/>
<path d="M343.38 97.7565L330.277 90.269L317.174 97.7565L330.277 105.244L343.38 97.7565Z" fill="#154078"/>
<path d="M330.277 105.244L317.174 97.7563V112.614L330.277 120.102V105.244Z" fill="#2E84F6"/>
<path d="M330.277 105.244L343.38 97.7563V112.614L330.277 120.102V105.244Z" fill="#38E6E6"/>
<path d="M407.336 163.254L401.907 160.152L396.477 163.254L401.907 166.357L407.336 163.254Z" fill="#154078"/>
<path d="M401.907 166.357L396.477 163.254V169.411L401.907 172.514V166.357Z" fill="#2E84F6"/>
<path d="M401.909 166.357L407.338 163.254V169.411L401.909 172.514V166.357Z" fill="#38E6E6"/>
<path d="M374.827 138.937L366.091 133.946L357.356 138.937L366.091 143.929L374.827 138.937Z" fill="#154078"/>
<path d="M366.091 143.929L357.356 138.937V148.842L366.091 153.834V143.929Z" fill="#2E84F6"/>
<path d="M366.091 143.929L374.827 138.938V148.843L366.091 153.834V143.929Z" fill="#38E6E6"/>
<path d="M401.905 115.352L393.17 110.36L384.435 115.352L393.17 120.344L401.905 115.352Z" fill="#154078"/>
<path d="M393.17 120.344L384.435 115.352V125.257L393.17 130.249V120.344Z" fill="#2E84F6"/>
<path d="M393.17 120.344L401.905 115.352V125.257L393.17 130.249V120.344Z" fill="#38E6E6"/>
<path d="M357.358 160.425L343.381 152.438L329.405 160.425L343.381 168.411L357.358 160.425Z" fill="#154078"/>
<path d="M343.381 168.411L329.405 160.424V176.273L343.381 184.259V168.411Z" fill="#2E84F6"/>
<path d="M343.38 168.411L357.356 160.425V176.273L343.38 184.26V168.411Z" fill="#38E6E6"/>
</g>
<defs>
<linearGradient id="paint0_linear_2_598" x1="513.735" y1="608.506" x2="513.735" y2="449.28" gradientUnits="userSpaceOnUse">
<stop stop-color="#38E6E6"/>
<stop offset="1" stop-color="#2E84F6"/>
</linearGradient>
<linearGradient id="paint1_linear_2_598" x1="366.091" y1="33.4893" x2="366.091" y2="216.931" gradientUnits="userSpaceOnUse">
<stop stop-color="#154078"/>
<stop offset="1" stop-color="#38E6E6" stop-opacity="0.4"/>
</linearGradient>
</defs>
</svg>
