<svg width="752" height="665" viewBox="0 0 752 665" fill="none" xmlns="http://www.w3.org/2000/svg">
<g opacity="0.6">
<rect width="59.9131" height="107.844" rx="8" transform="matrix(0.866025 0.5 -2.20305e-08 1 85.0767 242.508)" fill="#2840F1"/>
<rect width="59.9131" height="107.844" rx="8" transform="matrix(0.866025 0.5 -2.20305e-08 1 81.4819 244.904)" fill="#2208F5"/>
<rect width="59.9131" height="107.844" rx="8" transform="matrix(0.866025 0.5 -2.20305e-08 1 81.4819 247.301)" fill="white"/>
<rect width="41.9392" height="2.39653" rx="1.19826" transform="matrix(0.866025 0.5 -2.20305e-08 1 89.2637 269.169)" fill="#DAE7EB"/>
<rect width="17.9739" height="2.39653" rx="1.19826" transform="matrix(0.866025 0.5 -2.20305e-08 1 99.6436 270.367)" fill="#DAE7EB"/>
<rect width="47.9305" height="17.9739" rx="4" transform="matrix(0.866025 0.5 -2.20305e-08 1 86.6719 283.249)" fill="white"/>
<rect width="11.9826" height="11.9826" rx="4" transform="matrix(0.866025 0.5 -2.20305e-08 1 115.208 302.721)" fill="#34BCF0"/>
<rect width="23.9653" height="2.39653" rx="1.19826" transform="matrix(0.866025 0.5 -2.20305e-08 1 89.2637 287.742)" fill="#DAE7EB"/>
<rect width="17.9739" height="1.19826" rx="0.599131" transform="matrix(0.866025 0.5 -2.20305e-08 1 89.2637 291.337)" fill="#DAE7EB"/>
<rect width="14.9783" height="1.19826" rx="0.599131" transform="matrix(0.866025 0.5 -2.20305e-08 1 89.2637 293.733)" fill="#DAE7EB"/>
<rect width="11.9826" height="1.19826" rx="0.599131" transform="matrix(0.866025 0.5 -2.20305e-08 1 89.2637 299.725)" fill="#DAE7EB"/>
<rect width="47.9305" height="17.9739" rx="4" transform="matrix(0.866025 0.5 -2.20305e-08 1 86.6719 304.218)" fill="white"/>
<rect width="11.9826" height="11.9826" rx="4" transform="matrix(0.866025 0.5 -2.20305e-08 1 115.208 323.69)" fill="#37E7E7"/>
<rect width="23.9653" height="2.39653" rx="1.19826" transform="matrix(0.866025 0.5 -2.20305e-08 1 89.2637 308.712)" fill="#DAE7EB"/>
<rect width="17.9739" height="1.19826" rx="0.599131" transform="matrix(0.866025 0.5 -2.20305e-08 1 89.2637 312.307)" fill="#DAE7EB"/>
<rect width="14.9783" height="1.19826" rx="0.599131" transform="matrix(0.866025 0.5 -2.20305e-08 1 89.2637 314.703)" fill="#DAE7EB"/>
<rect width="11.9826" height="1.19826" rx="0.599131" transform="matrix(0.866025 0.5 -2.20305e-08 1 89.2637 320.694)" fill="#DAE7EB"/>
<rect width="47.9305" height="17.9739" rx="4" transform="matrix(0.866025 0.5 -2.20305e-08 1 86.6719 325.188)" fill="white"/>
<rect width="11.9826" height="11.9826" rx="4" transform="matrix(0.866025 0.5 -2.20305e-08 1 115.208 344.66)" fill="#2C2A8A"/>
<rect width="23.9653" height="2.39653" rx="1.19826" transform="matrix(0.866025 0.5 -2.20305e-08 1 89.2637 329.681)" fill="#DAE7EB"/>
<rect width="17.9739" height="1.19826" rx="0.599131" transform="matrix(0.866025 0.5 -2.20305e-08 1 89.2637 333.276)" fill="#DAE7EB"/>
<rect width="14.9783" height="1.19826" rx="0.599131" transform="matrix(0.866025 0.5 -2.20305e-08 1 89.2637 335.673)" fill="#DAE7EB"/>
<rect width="11.9826" height="1.19826" rx="0.599131" transform="matrix(0.866025 0.5 -2.20305e-08 1 89.2637 341.664)" fill="#DAE7EB"/>
<rect width="95.861" height="95.861" rx="8" transform="matrix(0.866025 -0.5 0.866025 0.5 0 440.82)" fill="#6D6D6D"/>
<path fill-rule="evenodd" clip-rule="evenodd" d="M6.92835 436.82C3.10201 439.029 3.10201 442.611 6.92835 444.82L76.1582 484.79C79.9846 486.999 86.1883 486.999 90.0146 484.79L159.244 444.82C163.071 442.611 163.071 439.029 159.244 436.82L140.418 425.951L158.147 422.973C162.504 422.242 162.504 421.055 158.147 420.323L119.399 413.815L90.0146 396.85C86.1883 394.641 79.9846 394.641 76.1582 396.85L46.8301 413.783L7.88942 420.323C3.53217 421.055 3.53217 422.242 7.88942 422.973L25.7235 425.969L6.92835 436.82Z" fill="#DEE8F3"/>
<rect width="95.7908" height="95.7908" rx="8" transform="matrix(0.866025 -0.5 0.866025 0.5 0 421.648)" fill="white"/>
<path opacity="0.4" d="M82.5109 430.538C90.6896 430.538 97.3197 426.71 97.3197 421.987C97.3197 417.264 90.6896 413.436 82.5109 413.436C74.3323 413.436 67.7021 417.264 67.7021 421.987C67.7021 426.71 74.3323 430.538 82.5109 430.538Z" fill="#D6D8E5"/>
<path d="M71.9592 358.584C71.7945 360.025 70.0759 366.237 70.4442 368.366C70.8124 370.495 76.6838 374.055 76.6838 374.055L77.4982 370.411L74.2467 367.237L75.1239 361.204L71.9592 358.584Z" fill="#FFCEA9"/>
<path d="M76.502 352.461C75.6637 352.099 74.1068 352.018 73.2325 353.449C72.3582 354.88 71.472 359.785 71.3911 360.635C71.3911 360.635 72.6037 362.309 74.4211 362.03L76.502 352.461Z" fill="#EDEDED"/>
<path d="M83.2058 421.73C84.4837 422.082 85.8487 421.916 87.0053 421.269C87.9185 421.296 92.8857 419.173 93.5624 420.954C94.1612 422.52 92.0025 423.966 90.8527 424.248C88.3437 424.847 86.4874 426.107 85.4784 426.32C84.7298 426.479 83.7568 426.583 83.1579 425.993C82.4424 425.287 82.5022 422.667 83.2058 421.73Z" fill="#38226D"/>
<path d="M85.4779 425.888C86.4869 425.679 88.3432 424.427 90.8523 423.819C91.8164 423.586 93.4751 422.532 93.6428 421.274C93.8643 422.715 91.9242 423.993 90.8523 424.251C88.3432 424.849 86.4869 426.11 85.4779 426.322C84.7294 426.481 83.7563 426.586 83.1575 425.996C83.003 425.825 82.8903 425.62 82.8281 425.397C83.7024 426.122 84.7294 426.047 85.4779 425.888Z" fill="#2E84F6"/>
<path d="M75.1472 418.116C76.4246 418.47 77.7902 418.306 78.9467 417.658C79.8629 417.685 84.8271 415.562 85.5038 417.358C86.1026 418.924 83.9439 420.37 82.7941 420.652C80.2851 421.251 78.4287 422.511 77.4227 422.724C76.6712 422.882 75.6981 422.987 75.1023 422.394C74.3837 421.67 74.4466 419.05 75.1472 418.116Z" fill="#38226D"/>
<path d="M77.4247 422.272C78.4307 422.059 80.287 420.81 82.7961 420.203C83.7602 419.969 85.4189 418.912 85.5866 417.658C85.8111 419.098 83.8679 420.376 82.7961 420.634C80.287 421.233 78.4307 422.493 77.4247 422.706C76.6732 422.864 75.7001 422.969 75.1042 422.376C74.9475 422.206 74.8345 422.001 74.7749 421.778C75.6462 422.502 76.6732 422.43 77.4247 422.272Z" fill="#2E84F6"/>
<path d="M75.0487 404.621C75.2637 402.777 75.6475 400.956 76.1954 399.181C76.1954 399.181 75.8541 394.483 75.6834 390.034C75.4888 384.983 73.7373 380.537 75.1176 376.507L90.7048 379.974C90.7048 379.974 89.7617 400.112 89.5521 402.549C89.4394 404.446 89.2074 406.334 88.8574 408.202C88.1448 412.113 86.9891 421.412 86.9891 421.412C85.3394 422.37 83.1777 421.84 83.1777 421.84C83.1777 421.84 83.2974 410.08 83.4022 407.262C83.531 403.822 83.6357 404.085 83.6357 404.085L83.1208 395.519L82.7854 391.256C82.7854 391.256 82.3543 394.385 82.0728 397.178C81.8273 399.615 81.2405 401.819 80.5758 406.352C80.0069 410.286 79.0787 418.191 79.0787 418.191C77.432 419.149 75.1864 418.355 75.1864 418.355C75.1864 418.355 74.6026 408.035 75.0487 404.621Z" fill="#154078"/>
<path d="M77.3247 352.545C78.5224 352.605 79.3966 352.91 79.5463 352.545C79.6731 351.932 79.7631 351.312 79.8158 350.689C79.6781 350.344 79.5613 349.976 79.5613 349.976C78.0643 349.057 77.6002 347.446 77.4026 345.572C77.0702 342.365 78.8008 339.557 82.0075 339.221C85.0225 338.922 87.2411 341.018 87.831 343.937C88.1514 345.371 88.7861 348.087 87.9268 350.449C87.4477 351.77 86.831 352.817 86.2112 353.021C85.6148 353.004 85.02 352.952 84.4297 352.865C84.4297 352.865 84.271 353.764 84.1602 354.327C84.0494 354.889 84.0944 355.201 85.2321 355.904C86.3699 356.608 83.5105 358.045 81.6392 357.904C79.7679 357.764 77.672 356.635 77.0942 355.425C76.4564 354.093 76.5103 352.506 77.3247 352.545Z" fill="#FFCEA9"/>
<path d="M79.0431 352.722C78.7138 353.542 79.5491 354.545 81.7797 355.246C84.0103 355.947 84.2079 355.045 84.2079 355.045C84.2079 355.045 87.4775 356.542 88.5404 357.276C89.8787 358.213 90.4716 360.92 90.6542 365.489C90.8608 370.776 90.8788 378.621 90.7051 379.974C90.7051 379.974 88.205 382.465 85.0163 382.202C81.8276 381.938 76.4323 379.109 75.1358 376.92C75.1718 372.285 75.7137 371.531 74.9622 368.86C73.2436 362.746 72.3394 360.243 73.1657 356.18C73.8544 352.83 74.8185 352.414 76.1419 352.447C77.1131 352.487 78.0816 352.579 79.0431 352.722Z" fill="#F4F4F4"/>
<path d="M95.6853 369.86C93.0595 370.522 92.4427 368.866 92.0924 367.495C91.2571 364.174 90.808 361.177 90.1852 359.294C89.4516 357.072 88.6882 356.716 87.6043 356.285C86.3348 355.776 85.245 356.848 85.6671 359.674C86.1671 363.021 86.8228 365.363 88.0624 369.33C88.3887 370.363 89.1193 372.201 90.2181 373.088C91.5715 374.183 93.6134 374.136 96.7003 373.369C98.0177 373.04 99.4609 372.252 101.952 371.091C102.62 370.791 103.15 370.573 104.422 369.974C105.695 369.375 107.042 368.378 107.716 367.405C108.389 366.432 108.476 365.974 108.338 365.752C108.168 365.474 107.862 365.534 107.503 365.944C106.985 366.636 106.344 367.229 105.614 367.692C105.614 367.692 106.443 366.836 106.892 366.279C107.295 365.785 107.63 365.24 107.886 364.656C108.123 364.087 107.635 363.318 107.263 363.722C106.892 364.126 106.716 364.539 106.036 365.354C105.677 365.787 105.268 366.176 104.817 366.513C105.239 365.944 105.614 365.344 105.94 364.716C106.371 363.836 106.365 363.384 106.347 363.087C106.329 362.791 105.91 362.438 105.518 362.998C105.162 363.504 104.919 364.294 104.108 365.153C103.509 365.776 102.997 366.135 102.982 365.962C102.967 365.788 103.344 365.447 103.56 364.722C103.775 363.998 103.56 363.225 103.159 363.147C102.757 363.069 102.835 363.087 102.512 363.764C102.189 364.441 101.697 364.944 101.314 365.935C100.982 366.806 100.832 367.159 100.233 367.794C99.6076 368.471 98.1824 369.231 95.6853 369.86Z" fill="#FFCEA9"/>
<path d="M86.6321 355.83C88.3866 355.572 89.6262 356.363 90.3987 359.018C91.1711 361.674 91.7161 363.857 91.7161 363.857C91.0216 364.858 89.9708 365.555 88.7789 365.806C86.683 366.315 85.9255 365.312 85.9255 365.312C85.9255 365.312 85.3267 362.528 84.9794 360.632C84.632 358.737 84.4614 356.159 86.6321 355.83Z" fill="#EDEDED"/>
<path d="M87.7297 343.527C87.7297 343.527 90.5023 339.314 84.4991 338.455C80.1697 337.838 77.3852 340.62 77.0648 343.638C76.7654 346.521 78.5349 349.515 79.8164 350.704C80.4421 350.929 81.7895 351.057 83.559 350.252C83.6298 349.467 83.6568 348.678 83.6398 347.89C83.6398 347.89 81.529 343.449 87.7297 343.527Z" fill="#3A2C6D"/>
</g>
<rect width="184.83" height="96.0156" rx="8" transform="matrix(0.866025 -0.5 2.20305e-08 1 524.882 331.691)" fill="#2840F1"/>
<rect width="184.83" height="96.0156" rx="8" transform="matrix(0.866025 -0.5 2.20305e-08 1 534.484 339.492)" fill="white"/>
<rect width="0.600097" height="46.2075" transform="matrix(0.866025 -0.5 2.20305e-08 1 544.878 370.097)" fill="#E1ECEF"/>
<rect width="0.600097" height="46.2075" transform="matrix(0.866025 -0.5 2.20305e-08 1 566.707 357.495)" fill="#E1ECEF"/>
<rect width="0.600097" height="46.2075" transform="matrix(0.866025 -0.5 2.20305e-08 1 588.532 344.893)" fill="#E1ECEF"/>
<rect width="0.600097" height="46.2075" transform="matrix(0.866025 -0.5 2.20305e-08 1 610.36 332.291)" fill="#E1ECEF"/>
<rect width="0.600097" height="46.2075" transform="matrix(0.866025 -0.5 2.20305e-08 1 632.189 319.689)" fill="#E1ECEF"/>
<path d="M544.878 411.504L558.444 388.241L565.749 392.332L577.575 372.052L588.01 366.027L601.576 342.764L610.098 347.537L615.142 338.888L625.229 344.539L632.708 331.714" stroke="#60EBEB" stroke-width="4" stroke-linecap="round" stroke-linejoin="round"/>
<path d="M544.878 411.504L558.444 395.956L565.749 395.893L577.575 382.339L588.01 376.314L601.576 360.767L610.098 360.693L615.142 354.913L625.229 354.826L632.708 346.255" stroke="#2208F5" stroke-width="4" stroke-linecap="round" stroke-linejoin="round"/>
<path d="M544.571 409.713C543.629 410.453 543.004 411.855 543.174 412.843C543.344 413.832 544.245 414.034 545.186 413.294L544.571 409.713ZM558.444 400.843L558.752 398.697C558.548 398.772 558.34 398.892 558.136 399.052L558.444 400.843ZM565.749 398.149L565.441 400.295C565.644 400.22 565.853 400.099 566.057 399.939L565.749 398.149ZM577.575 388.854L577.575 386.854C577.472 386.914 577.369 386.984 577.267 387.064L577.575 388.854ZM588.01 382.83L588.01 384.83C588.114 384.77 588.217 384.7 588.318 384.62L588.01 382.83ZM601.576 372.168L601.884 370.023C601.68 370.098 601.472 370.218 601.268 370.378L601.576 372.168ZM610.098 369.025L609.79 371.171C609.994 371.096 610.202 370.976 610.406 370.816L610.098 369.025ZM615.142 365.062L615.45 362.916C615.246 362.991 615.038 363.111 614.834 363.271L615.142 365.062ZM625.229 361.341L624.921 363.487C625.125 363.412 625.333 363.292 625.537 363.132L625.229 361.341ZM633.015 357.254C633.957 356.515 634.582 355.113 634.412 354.124C634.242 353.136 633.341 352.934 632.4 353.674L633.015 357.254ZM545.186 413.294L558.752 402.633L558.136 399.052L544.571 409.713L545.186 413.294ZM558.136 402.989L565.441 400.295L566.057 396.003L558.752 398.697L558.136 402.989ZM566.057 399.939L577.883 390.645L577.267 387.064L565.441 396.358L566.057 399.939ZM577.575 390.854L588.01 384.83L588.01 380.83L577.575 386.854L577.575 390.854ZM588.318 384.62L601.884 373.959L601.268 370.378L587.703 381.039L588.318 384.62ZM601.268 374.314L609.79 371.171L610.406 366.88L601.884 370.023L601.268 374.314ZM610.406 370.816L615.45 366.852L614.834 363.271L609.79 367.235L610.406 370.816ZM615.142 365.062C614.834 367.208 614.834 367.208 614.834 367.207C614.834 367.207 614.834 367.207 614.834 367.207C614.834 367.207 614.834 367.207 614.835 367.207C614.835 367.207 614.835 367.207 614.835 367.207C614.836 367.207 614.837 367.206 614.838 367.206C614.841 367.205 614.846 367.203 614.852 367.201C614.863 367.197 614.881 367.19 614.904 367.182C614.95 367.165 615.018 367.14 615.106 367.107C615.282 367.042 615.537 366.948 615.856 366.831C616.494 366.595 617.386 366.266 618.4 365.892C620.43 365.144 622.952 364.214 624.921 363.487L625.537 359.195C623.567 359.922 621.045 360.852 619.016 361.6C618.001 361.975 617.11 362.303 616.472 362.539C616.153 362.656 615.897 362.751 615.722 362.815C615.634 362.848 615.566 362.873 615.52 362.89C615.497 362.898 615.479 362.905 615.467 362.909C615.462 362.911 615.457 362.913 615.454 362.914C615.453 362.915 615.451 362.915 615.451 362.915C615.451 362.915 615.45 362.915 615.45 362.916C615.45 362.916 615.45 362.916 615.45 362.916C615.45 362.916 615.45 362.916 615.45 362.916C615.45 362.916 615.45 362.916 615.142 365.062ZM625.537 363.132L633.015 357.254L632.4 353.674L624.921 359.551L625.537 363.132Z" fill="#2E84F6"/>
<rect width="101.416" height="7.20117" rx="2" transform="matrix(0.866025 -0.5 2.20305e-08 1 544.878 345.493)" fill="#E1ECEF"/>
<rect width="76.2124" height="4.80078" rx="2" transform="matrix(0.866025 -0.5 2.20305e-08 1 544.878 356.295)" fill="#E1ECEF"/>
<rect width="38.4062" height="4.80078" rx="2" transform="matrix(0.866025 -0.5 2.20305e-08 1 648.299 290.584)" fill="#E1ECEF"/>
<rect width="16.8027" height="2.40039" rx="1.20019" transform="matrix(0.866025 -0.5 2.20305e-08 1 547.476 368.597)" fill="#E1ECEF"/>
<rect width="16.8027" height="2.40039" rx="1.20019" transform="matrix(0.866025 -0.5 2.20305e-08 1 569.305 355.995)" fill="#E1ECEF"/>
<rect width="16.8027" height="2.40039" rx="1.20019" transform="matrix(0.866025 -0.5 2.20305e-08 1 591.132 343.393)" fill="#E1ECEF"/>
<rect width="16.8027" height="2.40039" rx="1.20019" transform="matrix(0.866025 -0.5 2.20305e-08 1 612.96 330.791)" fill="#E1ECEF"/>
<rect width="9.60156" height="2.40039" rx="1.20019" transform="matrix(0.866025 -0.5 2.20305e-08 1 547.476 371.598)" fill="#E1ECEF"/>
<rect width="9.60156" height="2.40039" rx="1.20019" transform="matrix(0.866025 -0.5 2.20305e-08 1 569.305 358.995)" fill="#E1ECEF"/>
<rect width="9.60156" height="2.40039" rx="1.20019" transform="matrix(0.866025 -0.5 2.20305e-08 1 591.132 346.393)" fill="#E1ECEF"/>
<rect width="9.60156" height="2.40039" rx="1.20019" transform="matrix(0.866025 -0.5 2.20305e-08 1 612.96 333.791)" fill="#E1ECEF"/>
<rect width="32.4053" height="2.40039" rx="1.20019" transform="matrix(0.866025 -0.5 2.20305e-08 1 648.299 298.986)" fill="#E1ECEF"/>
<rect width="21.6035" height="2.40039" rx="1.20019" transform="matrix(0.866025 -0.5 2.20305e-08 1 652.975 343.693)" fill="#E1ECEF"/>
<path d="M675.321 309.787C675.321 318.073 669.504 328.148 662.329 332.291C655.153 336.434 649.336 333.075 649.336 324.79C649.336 316.504 655.153 306.429 662.329 302.286C669.504 298.143 675.321 301.501 675.321 309.787ZM653.234 322.539C653.234 328.339 657.306 330.69 662.329 327.79C667.352 324.89 671.424 317.837 671.424 312.037C671.424 306.238 667.352 303.887 662.329 306.787C657.306 309.687 653.234 316.739 653.234 322.539Z" fill="#60EBEB"/>
<path d="M675.321 309.787C675.321 312.754 674.559 316.095 673.132 319.386C671.704 322.678 669.675 325.772 667.301 328.278C664.927 330.784 662.315 332.59 659.794 333.466C657.274 334.342 654.959 334.25 653.142 333.201C651.325 332.152 650.087 330.193 649.586 327.572C649.085 324.951 649.342 321.786 650.325 318.477C651.309 315.168 652.974 311.864 655.111 308.982C657.247 306.1 659.759 303.769 662.329 302.286L662.329 306.787C660.53 307.825 658.772 309.456 657.276 311.474C655.781 313.491 654.615 315.804 653.926 318.121C653.238 320.437 653.058 322.653 653.409 324.487C653.76 326.322 654.626 327.693 655.898 328.427C657.17 329.161 658.79 329.226 660.555 328.613C662.319 327.999 664.147 326.736 665.809 324.981C667.471 323.227 668.892 321.061 669.891 318.757C670.89 316.453 671.424 314.115 671.424 312.037L675.321 309.787Z" fill="#2208F5"/>
<path d="M675.321 309.787C675.321 312.088 674.863 314.623 673.982 317.196C673.1 319.769 671.819 322.31 670.238 324.624C668.657 326.938 666.818 328.962 664.864 330.539C662.909 332.117 660.891 333.205 658.966 333.721L659.975 328.791C661.323 328.43 662.735 327.668 664.103 326.564C665.471 325.46 666.759 324.043 667.865 322.423C668.972 320.804 669.869 319.025 670.486 317.224C671.103 315.423 671.424 313.648 671.424 312.037L675.321 309.787Z" fill="#2E84F6"/>
<rect width="95.8603" height="95.8603" rx="8" transform="matrix(0.866025 -0.5 0.866025 0.5 585.492 442.541)" fill="#6D6D6D"/>
<path fill-rule="evenodd" clip-rule="evenodd" d="M592.42 438.541C588.594 440.75 588.594 444.332 592.42 446.541L661.581 486.471C665.407 488.68 671.611 488.68 675.438 486.471L744.599 446.541C748.425 444.332 748.425 440.75 744.599 438.541L725.803 427.689L743.637 424.694C747.994 423.962 747.994 422.776 743.637 422.044L704.696 415.504L675.438 398.611C671.611 396.402 665.407 396.402 661.581 398.611L632.322 415.503L593.381 422.044C589.024 422.776 589.024 423.962 593.381 424.694L611.216 427.69L592.42 438.541Z" fill="#DEE8F3"/>
<rect width="95.8603" height="95.8603" rx="8" transform="matrix(0.866025 -0.5 0.866025 0.5 585.492 423.369)" fill="#FDFDFD"/>
<path opacity="0.4" d="M669.973 431.062C677.954 431.062 684.425 427.325 684.425 422.716C684.425 418.106 677.954 414.37 669.973 414.37C661.991 414.37 655.521 418.106 655.521 422.716C655.521 427.325 661.991 431.062 669.973 431.062Z" fill="#D6D8E5"/>
<path d="M681.92 359.157C682.088 360.599 683.808 366.829 683.439 368.962C683.07 371.094 677.204 374.665 677.204 374.665L676.411 371.009L679.668 367.838L678.788 361.783L681.92 359.157Z" fill="#FFCEA9"/>
<path d="M677.367 353.02C677.94 352.755 678.59 352.708 679.194 352.89C679.799 353.072 680.315 353.47 680.646 354.007C681.504 355.445 682.413 360.354 682.491 361.199C682.491 361.199 681.276 362.881 679.457 362.598L677.367 353.02Z" fill="#EDEDED"/>
<path d="M670.651 422.48C669.37 422.833 668.002 422.668 666.841 422.021C665.923 422.046 660.945 419.918 660.267 421.707C659.675 423.295 661.829 424.711 662.983 425.003C665.498 425.617 667.347 426.87 668.369 427.08C669.124 427.239 670.085 427.346 670.699 426.754C671.415 426.024 671.355 423.398 670.651 422.48Z" fill="#38226D"/>
<path d="M668.369 426.629C667.36 426.415 665.498 425.162 662.983 424.552C662.018 424.321 660.353 423.265 660.186 422.003C659.963 423.445 661.902 424.728 662.983 424.986C665.498 425.599 667.347 426.852 668.369 427.063C669.124 427.221 670.085 427.329 670.699 426.736C670.854 426.563 670.967 426.356 671.029 426.131C670.655 426.415 670.219 426.608 669.758 426.694C669.296 426.78 668.82 426.758 668.369 426.629Z" fill="#2E84F6"/>
<path d="M678.727 418.837C677.446 419.192 676.077 419.027 674.917 418.378C673.999 418.403 669.021 416.271 668.347 418.06C667.751 419.631 669.909 421.064 671.059 421.36C673.574 421.969 675.423 423.226 676.445 423.441C677.2 423.6 678.161 423.703 678.775 423.111C679.491 422.398 679.448 419.772 678.727 418.837Z" fill="#38226D"/>
<path d="M676.446 423.003C675.438 422.789 673.576 421.536 671.061 420.926C670.096 420.695 668.431 419.639 668.285 418.377C668.062 419.819 670.001 421.102 671.061 421.36C673.576 421.969 675.425 423.226 676.446 423.441C677.202 423.6 678.163 423.703 678.776 423.11C678.93 422.936 679.043 422.729 679.107 422.505C678.732 422.789 678.297 422.982 677.835 423.068C677.374 423.154 676.898 423.132 676.446 423.003Z" fill="#2E84F6"/>
<path d="M678.827 405.316C678.612 403.467 678.227 401.643 677.677 399.866C677.677 399.866 678.021 395.146 678.192 390.692C678.385 385.628 680.145 381.17 678.754 377.136L663.144 380.599C663.144 380.599 664.088 400.788 664.302 403.217C664.415 405.118 664.648 407.01 665.002 408.881C665.714 412.803 666.872 422.124 666.872 422.124C668.525 423.085 670.691 422.553 670.691 422.553C670.691 422.553 670.576 410.765 670.468 407.937C670.34 404.504 670.232 404.766 670.232 404.766L670.747 396.184L671.086 391.915C671.086 391.915 671.515 395.051 671.799 397.866C672.047 400.308 672.635 402.518 673.296 407.062C673.867 411.005 674.794 418.931 674.794 418.931C676.446 419.892 678.69 419.094 678.69 419.094C678.69 419.094 679.269 408.748 678.827 405.316Z" fill="#2E84F6"/>
<path d="M676.542 353.102C675.354 353.163 674.465 353.467 674.315 353.102C674.191 352.487 674.1 351.865 674.045 351.24C674.182 350.897 674.302 350.528 674.302 350.528C675.796 349.605 676.285 347.992 676.448 346.112C676.782 342.894 675.045 340.105 671.831 339.762C668.805 339.448 666.587 341.572 665.995 344.482C665.673 345.924 665.038 348.64 665.9 351.013C666.377 352.334 666.999 353.39 667.617 353.587C668.216 353.57 668.813 353.519 669.406 353.433C669.406 353.433 669.569 354.325 669.676 354.896C669.784 355.467 669.745 355.754 668.604 356.484C667.462 357.213 670.32 358.629 672.2 358.492C674.079 358.355 676.169 357.205 676.761 356.007C677.418 354.656 677.362 353.064 676.542 353.102Z" fill="#FFCEA9"/>
<path d="M674.822 353.282C675.153 354.102 674.312 355.106 672.08 355.81C669.849 356.513 669.643 355.608 669.643 355.608C669.643 355.608 666.365 357.101 665.296 357.844C663.957 358.783 663.365 361.495 663.181 366.078C662.97 371.377 662.958 379.239 663.129 380.599C663.129 380.599 665.639 383.096 668.845 382.83C672.05 382.564 677.427 379.732 678.766 377.539C678.727 372.892 678.186 372.133 678.937 369.459C680.654 363.327 681.568 360.822 680.731 356.762C680.04 353.402 679.07 352.986 677.727 353.02C676.755 353.055 675.785 353.142 674.822 353.282Z" fill="#F4F4F4"/>
<path d="M658.156 371.348C660.791 372.013 661.405 370.352 661.757 368.966C662.615 365.641 663.044 362.62 663.666 360.749C664.4 358.517 665.172 358.174 666.241 357.745C667.528 357.239 668.622 358.311 668.18 361.148C667.683 364.499 667.022 366.859 665.769 370.824C665.443 371.863 664.709 373.703 663.623 374.592C662.267 375.69 660.225 375.643 657.127 374.875C655.805 374.544 654.35 373.759 651.861 372.592C651.192 372.279 650.673 372.073 649.386 371.472C648.094 370.893 646.962 370.009 646.086 368.897C645.408 367.919 645.322 367.46 645.459 367.237C645.597 367.014 645.936 367.018 646.317 367.434C646.84 368.126 647.482 368.717 648.214 369.181C648.214 369.181 647.382 368.322 646.927 367.765C646.522 367.27 646.187 366.723 645.931 366.138C645.691 365.572 646.18 364.8 646.553 365.203C646.927 365.606 647.107 366.022 647.789 366.838C648.139 367.267 648.54 367.651 648.982 367.983C648.56 367.411 648.184 366.805 647.858 366.173C647.575 365.675 647.437 365.109 647.459 364.538C647.459 364.242 647.888 363.886 648.317 364.452C648.746 365.018 648.901 365.739 649.733 366.597C650.33 367.224 650.844 367.58 650.857 367.408C650.87 367.237 650.493 366.894 650.278 366.168C650.063 365.443 650.278 364.671 650.677 364.581C651.076 364.491 651.003 364.516 651.325 365.199C651.647 365.881 652.14 366.391 652.514 367.374C652.717 368.074 653.088 368.713 653.595 369.236C654.209 369.953 655.638 370.717 658.156 371.348Z" fill="#FFCEA9"/>
<path d="M667.216 357.295C665.457 357.029 664.212 357.823 663.44 360.466C662.668 363.109 662.127 365.328 662.127 365.328C662.824 366.332 663.878 367.032 665.075 367.284C667.178 367.791 667.928 366.791 667.928 366.791C667.928 366.791 668.512 364.01 668.877 362.096C669.241 360.183 669.392 357.608 667.216 357.295Z" fill="#EDEDED"/>
<path d="M666.112 344.061C666.112 344.061 663.335 339.839 669.351 338.98C673.694 338.358 676.496 341.126 676.805 344.172C677.114 347.06 675.333 350.068 674.046 351.257C673.419 351.484 672.063 351.609 670.3 350.828C670.224 350.036 670.195 349.241 670.214 348.446C670.214 348.446 672.329 343.988 666.112 344.061Z" fill="#3A2C6D"/>
<path d="M680.337 362.774L663.143 378.805L662.139 409.632C662.139 409.632 666.962 411.988 672.438 410.713L673.442 398.879L674.961 409.606L674.781 409.932C677.378 408.769 679.604 406.913 681.217 404.569L680.337 362.774Z" fill="#F4F4F4"/>
<path d="M662.127 365.327L661.268 369.047C661.268 369.047 660.547 371.652 658.694 370.991C656.949 370.257 655.248 369.422 653.6 368.49L651.377 373.051L655.973 375.197C655.973 375.197 662.354 377.471 664.126 375.197C665.898 372.922 667.889 366.782 667.889 366.782L662.127 365.327Z" fill="#EDEDED"/>
<g opacity="0.6">
<rect width="95.8603" height="95.8603" rx="8" transform="matrix(0.866025 -0.5 0.866025 0.5 286.482 615.918)" fill="#6D6D6D"/>
<path fill-rule="evenodd" clip-rule="evenodd" d="M293.41 611.919C289.584 614.128 289.584 617.709 293.41 619.919L362.571 659.849C366.398 662.058 372.601 662.058 376.428 659.849L445.589 619.919C449.415 617.709 449.415 614.128 445.589 611.919L426.793 601.067L444.625 598.072C448.983 597.34 448.983 596.153 444.625 595.421L405.687 588.881L376.428 571.988C372.601 569.779 366.398 569.779 362.571 571.988L333.314 588.88L294.369 595.421C290.012 596.153 290.012 597.34 294.369 598.072L312.205 601.067L293.41 611.919Z" fill="#DEE8F3"/>
<rect width="95.8603" height="95.8603" rx="8" transform="matrix(0.866025 -0.5 0.866025 0.5 286.482 596.747)" fill="#FDFDFD"/>
<path opacity="0.4" d="M369.467 576.28C376.253 576.28 381.755 573.104 381.755 569.186C381.755 565.268 376.253 562.092 369.467 562.092C362.681 562.092 357.18 565.268 357.18 569.186C357.18 573.104 362.681 576.28 369.467 576.28Z" fill="#D6D8E5"/>
<path d="M368.926 502.849C369.419 502.059 373.183 501.539 374.423 504.729C374.889 505.936 374.818 509.028 375.213 510.967C375.609 512.906 376.529 514.01 376.838 515.586C377.147 517.162 376.632 519.799 372.836 520.27C369.04 520.741 366.121 519.404 365.222 518.191C364.323 516.978 364.307 514.4 365.222 513.03C366.137 511.66 366.847 510.523 366.847 508.698L368.926 502.849Z" fill="#3A2C6D"/>
<path d="M364.421 516.193C364.421 516.193 363.527 522.512 365.217 526.958C366.906 531.404 366.435 525.805 366.435 525.805L366.029 524.472C366.029 524.472 365.693 519.328 365.834 518.066C365.975 516.804 365.942 515.721 366.029 515.619C366.116 515.516 365.699 515.315 365.52 515.288C365.341 515.261 364.421 516.193 364.421 516.193Z" fill="#FFCEA9"/>
<path d="M371.413 502.302C371.413 502.302 368.58 501.485 366.864 503.017C366.297 503.539 365.884 504.206 365.67 504.946C365.456 505.686 365.449 506.47 365.651 507.214C365.878 508.108 366.338 509.331 367.048 509.38C367.757 509.429 371.413 502.302 371.413 502.302Z" fill="#3A2C6D"/>
<path d="M372.494 510.057C372.494 510.057 372.31 513.214 372.37 513.447C372.429 513.68 373.604 513.902 373.94 514.178C374.276 514.454 372.223 517.655 371.178 518.131C370.133 518.608 366.911 517.395 366.689 515.786C366.483 514.314 367.61 513.165 368.048 512.765C368.344 512.745 368.641 512.745 368.936 512.765L369.028 511.238C370.442 510.734 372.494 510.057 372.494 510.057Z" fill="#FFCEA9"/>
<path d="M372.928 513.723C373.816 513.864 374.829 514.335 374.97 514.806C375.336 516.556 375.249 518.37 374.715 520.075C373.946 522.106 373.432 523.4 372.988 524.278C372.988 524.278 369.148 525.902 366.056 524.001C366.056 524.001 365.84 521.835 365.829 520.66C362.97 518.169 365.412 515.093 367.832 512.705C368.123 512.684 368.414 512.684 368.704 512.705C368.704 512.705 366.538 515.261 368.049 516.712C371.26 515.743 371.899 514.303 372.928 513.723Z" fill="#F4F4F4"/>
<path d="M366.598 506.115C366.917 504.084 368.38 502.551 370.475 502.676C371.324 502.716 372.138 503.024 372.801 503.555C373.464 504.086 373.941 504.814 374.166 505.633C374.39 506.452 374.349 507.322 374.049 508.116C373.749 508.911 373.205 509.59 372.495 510.057C372.423 510.363 372.316 510.659 372.176 510.94C371.434 511.806 369.468 512.353 368.813 512.359C368.271 512.359 367.768 511.844 367.242 510.972C366.143 509.131 366.425 507.117 366.598 506.115Z" fill="#FFCEA9"/>
<path d="M371.119 502.714C372.586 503.001 373.794 503.412 374.195 504.853C374.465 505.849 374.823 507.739 374.482 508.535L374.276 509.115L372.494 510.057C372.494 510.057 371.666 509.364 371.926 507.349C371.914 507.075 371.828 506.809 371.676 506.58C371.563 506.39 371.48 506.184 371.427 505.968C371.217 505.422 370.806 504.977 370.279 504.723C368.953 503.981 367.03 504.62 366.749 504.891C367.113 504.079 367.748 503.418 368.544 503.021C369.341 502.624 370.251 502.516 371.119 502.714Z" fill="#3A2C6D"/>
<path d="M375.073 528.469C375.403 526.411 376.02 525.079 375.733 523.947C375.094 521.659 374.256 519.43 373.231 517.287C372.582 516.009 372.782 515.121 373.453 514.612C374.212 514.07 374.932 514.292 375.62 515.695C376.481 517.476 377.445 519.307 377.916 521.96C378.218 523.676 378.196 525.434 377.851 527.142C377.558 528.989 376.973 530.029 376.275 531.762C376.08 532.26 374.791 530.224 375.073 528.469Z" fill="#FFCEA9"/>
<path d="M373.788 566.825C373.046 567.426 371.887 567.009 371.833 567.064C370.971 567.808 370.067 568.502 369.126 569.143C368.66 569.506 367.94 569.993 368.07 570.697C368.302 571.948 370.306 571.564 371.064 571.179C371.822 570.795 372.434 570.161 373.149 569.717C373.664 569.398 374.162 569.235 374.232 568.591C374.281 568.201 373.918 566.809 373.788 566.825Z" fill="#38226D"/>
<path d="M374.222 568.331C374.124 568.948 373.632 569.122 373.139 569.414C372.413 569.864 371.774 570.497 371.016 570.898C370.258 571.299 368.574 571.602 368.086 570.708C368.352 571.916 370.323 571.537 371.07 571.158C371.818 570.779 372.44 570.14 373.155 569.696C373.67 569.376 374.168 569.214 374.238 568.569C374.239 568.49 374.233 568.41 374.222 568.331Z" fill="#2E84F6"/>
<path d="M368.575 565.78C367.898 566.322 366.869 566.024 366.821 566.078C366.027 566.755 365.198 567.388 364.335 567.974C363.907 568.304 363.252 568.753 363.366 569.392C363.582 570.54 365.418 570.188 366.111 569.836C366.804 569.484 367.367 568.905 368.023 568.499C368.488 568.206 368.949 568.055 369.025 567.464C369.068 567.107 368.7 565.77 368.575 565.78Z" fill="#38226D"/>
<path d="M369.008 567.226C368.916 567.795 368.466 567.946 368 568.239C367.334 568.65 366.749 569.246 366.056 569.598C365.363 569.95 363.82 570.242 363.349 569.425C363.592 570.508 365.396 570.183 366.056 569.836C366.717 569.49 367.313 568.905 367.968 568.499C368.434 568.206 368.894 568.055 368.97 567.464C368.99 567.386 369.002 567.306 369.008 567.226Z" fill="#2E84F6"/>
<path d="M364.571 531.231C364.902 528.67 365.844 524.949 365.844 524.949C366.737 525.368 367.702 525.609 368.687 525.659C370.128 525.649 371.566 525.508 372.981 525.236C373.444 526.045 373.95 526.827 374.498 527.581C375.234 528.605 376.664 530.83 376.323 534.778C376.101 537.339 374.66 548.229 374.66 548.229C375.219 550.061 375.517 551.963 375.543 553.878C375.413 556.151 375.112 558.412 374.644 560.641L373.788 566.825C373.788 566.825 372.646 567.649 371.833 567.064L371.936 561.015C371.839 559.537 371.693 557.354 371.595 555.957C371.443 553.688 371.054 550.081 370.918 549.177C370.783 548.273 370.512 546.702 370.377 544.937C370.241 543.172 369.575 534.215 369.575 534.215L369.483 535.893C369.483 535.893 369.391 538.601 369.001 541.98C368.611 545.359 368.46 546.854 368.46 546.854C368.83 547.53 369.09 548.262 369.229 549.02C369.299 549.746 370.128 555.518 369.629 558.421L368.622 565.834C368.368 566.009 368.076 566.122 367.77 566.162C367.464 566.203 367.153 566.17 366.862 566.067L366.261 558.573C365.86 555.719 365.01 549.675 364.88 548.89C364.591 547.308 364.421 545.706 364.371 544.098C364.171 540.854 364.247 533.792 364.571 531.231Z" fill="#FFCEA9"/>
<path d="M372.987 524.294L375.191 528.723C375.191 528.723 378.56 533.651 375.072 546.312L375.728 550.217C375.728 550.217 369.126 554.457 364.707 550.217C364.707 550.217 363.175 538.514 363.993 533.121C364.443 530.017 365.131 526.952 366.05 523.953C366.05 523.953 367.133 525.149 372.695 524.359" fill="#F9A72E"/>
<path d="M376.947 518.207C376.947 518.207 375.415 519.734 373.595 519.545L372.723 516.555C372.723 516.555 372.182 515.001 373.481 514.319C374.781 513.637 376.184 515.164 376.947 518.207Z" fill="#EDEDED"/>
<path d="M367.832 512.721C367.832 512.721 366.078 512.18 364.221 516.073L364.914 516.49C365.784 515.157 366.76 513.897 367.832 512.721Z" fill="#EDEDED"/>
<path opacity="0.4" d="M321.646 603.712C329.154 603.712 335.24 600.198 335.24 595.863C335.24 591.529 329.154 588.015 321.646 588.015C314.138 588.015 308.052 591.529 308.052 595.863C308.052 600.198 314.138 603.712 321.646 603.712Z" fill="#D6D8E5"/>
<path d="M315.24 593.892C316.169 594.647 317.535 593.958 317.601 594.03C318.692 595.037 319.834 595.987 321.022 596.876C321.621 597.331 322.502 597.936 322.334 598.811C322.047 600.369 319.548 599.889 318.602 599.41C317.655 598.931 316.888 598.146 315.995 597.613C315.36 597.217 314.737 597.014 314.635 596.211C314.551 595.702 315.055 593.874 315.24 593.892Z" fill="#2B2A30"/>
<path d="M314.642 595.863C314.768 596.63 315.385 596.846 316.014 597.235C316.925 597.798 317.722 598.613 318.662 599.087C319.603 599.56 321.706 599.967 322.317 598.853C321.988 600.357 319.531 599.883 318.596 599.41C317.662 598.937 316.883 598.146 315.99 597.613C315.355 597.217 314.732 597.014 314.63 596.211C314.625 596.095 314.629 595.979 314.642 595.863Z" fill="#BF4B4B"/>
<path d="M323.258 590.902C324.186 591.657 325.804 590.836 325.876 590.902C326.839 591.88 327.857 592.803 328.925 593.664C329.524 594.114 330.405 594.725 330.243 595.599C329.95 597.157 327.451 596.678 326.511 596.199C325.57 595.719 324.797 594.928 323.905 594.401C323.27 594.006 322.641 593.802 322.545 592.999C322.485 592.49 323.096 590.884 323.258 590.902Z" fill="#2B2A30"/>
<path d="M322.568 592.76C322.694 593.527 323.311 593.742 323.94 594.132C324.851 594.695 325.648 595.51 326.588 595.989C327.529 596.468 329.632 596.864 330.243 595.749C329.914 597.253 327.457 596.786 326.522 596.313C325.588 595.839 324.815 595.042 323.922 594.485C323.281 594.09 322.658 593.886 322.556 593.083C322.552 592.975 322.556 592.867 322.568 592.76Z" fill="#BF4B4B"/>
<path d="M315.162 559.694C315.21 561.096 315.641 567.183 315.839 570.4C316.036 573.617 316.078 577.59 316.078 577.59C316.078 577.59 315.521 579.932 315.162 582.694C314.802 585.456 315.162 594.156 315.162 594.156C315.518 594.387 315.935 594.511 316.36 594.511C316.785 594.511 317.202 594.387 317.558 594.156C317.558 594.156 319.044 587.188 319.727 584.048C320.41 580.909 320.536 579.099 320.889 577.158C321.321 574.804 322.249 563.822 322.249 563.822H322.621L323.615 576.218C323.308 577.132 323.098 578.076 322.986 579.034C322.717 581.053 323.274 591.214 323.274 591.214C323.67 591.434 324.119 591.54 324.571 591.521C325.024 591.502 325.462 591.359 325.838 591.106C325.838 591.106 328.313 577.65 328.313 575.607C328.313 574.247 328.085 556.393 328.085 556.393L315.162 559.694Z" fill="#4696F5"/>
<path d="M318.523 532.619C318.523 532.619 318.679 535.675 318.613 535.944C318.547 536.214 317.211 537.107 316.816 537.43C316.42 537.754 318.931 540.198 320.147 540.797C321.363 541.396 325.215 539.887 325.281 537.993C325.347 536.1 324.622 534.512 324.035 534.428C323.448 534.345 318.523 532.619 318.523 532.619Z" fill="#FFCEA9"/>
<path d="M326.888 538.287C327.067 536.939 326.181 535.657 327.037 534.584C330.033 537.544 329.674 545.369 330.357 550.371C332.597 552.708 337.097 555.015 338.361 555.584C338.589 555.692 338.792 555.806 338.744 556.051C338.575 556.884 338.216 557.667 337.696 558.34C334.7 557.058 332.573 556.321 328.853 552.786C328.5 552.404 328.185 551.988 327.912 551.546C326.852 548.358 326.582 540.612 326.888 538.287Z" fill="#FFCEA9"/>
<path d="M318.184 536.472C318.184 536.472 320.401 539.773 323.492 540.067C324.469 539.108 324.552 535.687 323.204 534.591C323.204 534.591 324.445 533.59 325.295 533.782C326.217 534.337 326.903 535.211 327.225 536.238C328.008 538.51 328.378 540.905 328.315 543.308C328.261 546.549 328.315 556.453 328.315 556.453C328.315 556.453 327.884 558.544 325.086 560.101C322.288 561.659 320.209 561.815 318.31 561.372C316.746 561.006 315.452 560.455 314.912 559.323C315.056 557.046 316.069 551.12 315.691 548.263C315.314 545.405 314.709 543.278 314.553 540.965C314.397 538.653 314.853 538.701 316.015 537.88C316.703 537.358 317.428 536.888 318.184 536.472Z" fill="#F4F4F4"/>
<path d="M325.426 528.066C325.061 525.669 323.353 523.872 320.903 524.034C319.92 524.086 318.978 524.445 318.21 525.06C317.442 525.676 316.886 526.517 316.621 527.466C316.357 528.414 316.396 529.421 316.734 530.346C317.073 531.27 317.692 532.065 318.506 532.619C318.591 532.978 318.718 533.326 318.884 533.656C319.747 534.668 322.365 535.291 323.114 535.183C323.561 535.148 323.988 534.979 324.339 534.698C324.689 534.417 324.947 534.037 325.079 533.608C325.894 531.726 325.636 529.234 325.426 528.066Z" fill="#FFCEA9"/>
<path d="M318.525 532.619L318.747 530.546C318.747 530.546 317.039 526.173 321.054 527.017C323.69 527.575 324.349 527.814 325.152 526.047C325.954 524.279 323.127 522.686 319.759 523.129C318.602 523.251 317.533 523.802 316.763 524.674C315.993 525.546 315.579 526.675 315.601 527.838C315.697 529.132 316.045 531.769 318.525 532.619Z" fill="#2B2A30"/>
<path d="M313.845 539.599C315.002 539.27 314.121 539.539 315.002 539.27C317.997 542.223 317.644 547.292 318.327 552.295C319.992 555.057 326.169 558.771 326.169 558.771C326.247 559.304 326.062 559.46 325.391 560.568C321.952 559.25 318.825 557.232 316.206 554.643C316.056 554.505 315.841 554.463 315.781 554.278C314.72 551.066 313.54 541.93 313.845 539.599Z" fill="#FFCEA9"/>
<path d="M341.332 545.776L336.845 561.126L326.989 565.062L330.584 550.108L341.332 545.776Z" fill="#F4F4F4"/>
<path d="M324.618 558.897C324.762 558.37 325.14 558.502 325.571 558.634C326.033 558.821 326.54 558.865 327.027 558.759C327.406 558.574 327.757 558.336 328.069 558.052C328.268 557.932 328.496 557.868 328.729 557.867C328.729 557.999 328.501 558.777 328.501 558.777C328.501 558.777 330.664 558.777 330.897 558.777C330.972 558.764 331.049 558.774 331.117 558.806C331.186 558.838 331.243 558.89 331.28 558.956C331.318 559.022 331.334 559.097 331.327 559.173C331.319 559.248 331.288 559.319 331.239 559.377H331.389C331.826 559.281 331.988 559.976 331.574 560.06L331.215 560.113C331.502 560.227 331.574 560.713 331.215 560.772H331.101C331.049 560.781 330.997 560.781 330.945 560.772H330.819C330.831 560.824 330.831 560.877 330.821 560.929C330.81 560.98 330.789 561.029 330.758 561.072C330.728 561.115 330.689 561.151 330.644 561.177C330.598 561.204 330.548 561.222 330.496 561.228C329.441 561.366 327.89 561.785 326.937 560.916C326.276 560.853 325.63 560.679 325.026 560.401C324.457 560.113 324.439 559.52 324.618 558.897Z" fill="#FFCEA9"/>
<path d="M335.389 557.638H335.538C335.476 557.594 335.429 557.531 335.405 557.459C335.381 557.386 335.38 557.308 335.404 557.235C335.427 557.162 335.473 557.099 335.535 557.054C335.597 557.009 335.672 556.985 335.748 556.985C335.97 556.985 338.192 556.518 338.192 556.518L338.462 555.608C338.462 555.554 338.845 555.787 338.857 555.799C339.046 555.921 339.204 556.084 339.321 556.276C339.437 556.468 339.508 556.684 339.528 556.908C339.539 557.222 339.488 557.536 339.378 557.831C339.269 558.126 339.101 558.396 338.887 558.627C338.492 559.018 337.963 559.245 337.407 559.262C337.138 559.262 336.88 559.292 336.647 559.316C336.594 559.319 336.541 559.311 336.492 559.294C336.442 559.276 336.396 559.248 336.358 559.212C336.319 559.177 336.288 559.133 336.267 559.085C336.245 559.037 336.234 558.985 336.233 558.932H336.161C336.111 558.947 336.057 558.947 336.006 558.932H335.892C335.514 558.932 335.484 558.465 335.742 558.297H335.377C334.897 558.339 334.939 557.632 335.389 557.638Z" fill="#FFCEA9"/>
<path d="M328.145 540.288C328.752 540.26 329.326 540.003 329.751 539.569C329.667 538.431 328.217 534.123 325.293 533.799C326.077 534.362 326.698 535.123 327.091 536.004C327.55 537.403 327.903 538.835 328.145 540.288Z" fill="#EDEDED"/>
<path d="M313.319 545.98C313.319 545.98 316.224 546.986 318.273 545.297C318.501 544.913 317.075 539.965 317.075 539.965C317.075 539.965 315.877 537.436 313.948 538.443C312.018 539.449 313.319 545.98 313.319 545.98Z" fill="#EDEDED"/>
<path opacity="0.4" d="M369.531 632.61C376.092 632.61 381.411 629.54 381.411 625.751C381.411 621.963 376.092 618.892 369.531 618.892C362.969 618.892 357.65 621.963 357.65 625.751C357.65 629.54 362.969 632.61 369.531 632.61Z" fill="#D6D8E5"/>
<path d="M376.384 573.04C377.431 573.338 378.017 574.485 378.928 576.941C379.687 579.169 380.057 581.51 380.023 583.863C379.729 586.177 378.771 587.978 376.457 589.853L375.352 587.827C375.352 587.827 377.619 585.826 377.85 583.512C377.981 582.214 376.457 577.836 376.457 577.716C376.457 577.595 376.384 573.04 376.384 573.04Z" fill="#FFCEA9"/>
<path d="M367.322 626.374C366.973 626.48 366.605 626.51 366.244 626.461C365.882 626.412 365.536 626.286 365.227 626.091C364.662 626.091 361.337 624.788 360.918 625.893C360.551 626.861 361.887 627.762 362.593 627.935C364.164 628.306 365.295 629.081 365.924 629.212C366.161 629.297 366.416 629.323 366.665 629.288C366.915 629.253 367.153 629.159 367.358 629.013C367.793 628.573 367.756 626.95 367.322 626.374Z" fill="#38226D"/>
<path d="M365.913 628.945C365.285 628.814 364.138 628.039 362.583 627.662C361.992 627.521 360.96 626.866 360.861 626.091C360.719 626.981 361.908 627.772 362.583 627.934C364.154 628.306 365.285 629.081 365.913 629.212C366.151 629.296 366.405 629.322 366.655 629.288C366.905 629.253 367.143 629.159 367.348 629.013C367.442 628.905 367.512 628.778 367.552 628.641C367.321 628.816 367.053 628.934 366.769 628.986C366.484 629.039 366.191 629.025 365.913 628.945Z" fill="#2E84F6"/>
<path d="M375.762 621.987C375.458 622.091 375.133 622.121 374.814 622.072C374.496 622.024 374.194 621.899 373.935 621.709C373.411 621.709 369.992 620.463 369.589 621.526C369.238 622.458 370.521 623.317 371.202 623.484C372.699 623.845 373.82 624.594 374.406 624.72C374.635 624.8 374.88 624.825 375.121 624.791C375.361 624.757 375.59 624.667 375.788 624.526C376.218 624.102 376.181 622.542 375.762 621.987Z" fill="#38226D"/>
<path d="M374.406 624.463C373.803 624.332 372.699 623.589 371.201 623.227C370.63 623.086 369.63 622.458 369.541 621.709C369.41 622.568 370.589 623.332 371.201 623.484C372.699 623.845 373.819 624.594 374.406 624.72C374.635 624.8 374.88 624.825 375.12 624.791C375.361 624.757 375.59 624.666 375.788 624.526C375.88 624.423 375.947 624.299 375.982 624.165C375.761 624.334 375.503 624.45 375.229 624.501C374.955 624.553 374.673 624.54 374.406 624.463Z" fill="#2E84F6"/>
<path d="M376.877 613.551C376.879 612.275 376.659 611.008 376.228 609.807C376.228 609.807 376.657 604.681 376.987 601.314C377.469 596.351 378.233 595.858 378.034 592.842C377.835 590.046 376.244 588.235 375.83 586.339L367.73 586.978C367.73 586.978 367.023 589.277 366.112 593.853C365.201 598.429 365.138 603.87 365.211 611.074C365.211 612.933 364.897 614.546 365.002 619.174C365.075 622.285 365.253 626.097 365.253 626.097C366.437 627.112 367.259 626.364 367.259 626.364C367.259 626.364 369.353 617.148 369.641 615.033C369.861 613.863 369.763 612.655 369.358 611.535C369.358 611.535 369.966 608.64 370.405 606.362C370.929 603.582 372.317 597.581 372.317 597.581C372.317 597.581 372.081 606.802 372.484 608.619C372.887 610.436 372.955 612.017 373.301 614.488C373.715 617.473 373.903 621.845 373.903 621.845C375.139 622.63 375.689 622.028 375.689 622.028C375.689 622.028 376.877 616.164 376.877 613.551Z" fill="#FFCEA9"/>
<path d="M375.809 586.339C376.658 587.209 378.061 589.853 378.061 593.853C378.061 598.356 377.406 597.445 377.092 602.403L376.778 607.362C376.778 607.362 370.008 610.593 365.18 607.598C364.751 606.66 365.342 596.23 366.191 592.523C367.039 588.816 367.62 586.999 367.62 586.999C367.62 586.999 373.846 588.68 375.809 586.339Z" fill="#2E84F6"/>
<path d="M375.91 572.993C374.182 572.888 374.015 573.176 373.878 572.564C373.831 572.344 373.732 570.825 373.732 570.825C373.891 570.623 374.037 570.409 374.166 570.186C374.746 569.837 375.237 569.357 375.601 568.786C375.964 568.214 376.19 567.566 376.261 566.893C376.382 565.724 376.035 564.554 375.295 563.641C374.554 562.728 373.482 562.146 372.313 562.023C370.025 561.788 368.339 563.395 367.888 565.605C367.648 566.694 367.396 568.919 368.077 570.705C368.459 571.715 368.815 572.422 369.726 572.386C370.03 572.358 370.332 572.306 370.627 572.228C370.676 572.647 370.693 573.069 370.679 573.49C370.679 573.935 370.732 574.155 369.862 574.689C368.993 575.223 371.171 576.313 372.59 576.208C374.009 576.103 375.601 575.244 376.041 574.328C376.523 573.302 376.722 573.04 375.91 572.993Z" fill="#FFCEA9"/>
<path d="M377.182 580.643C377.182 580.643 379.135 580.203 380.03 579.334C380.03 579.334 378.868 575.669 378.124 574.758C377.381 573.846 376.658 579.727 376.658 579.727L377.182 580.643Z" fill="#EDEDED"/>
<path d="M374.191 572.956C374.51 573.354 374.547 573.851 373.317 574.165C372.422 574.42 371.465 574.346 370.62 573.956C369.65 574.366 368.718 574.86 367.834 575.433C366.787 578.888 367.63 579.333 367.19 581.81C367.363 583.056 367.567 586.271 367.62 586.999C369.971 588.643 374.741 588.083 375.809 586.339C375.828 585.759 375.882 585.18 375.971 584.606C377.092 580.449 377.966 579.37 377.657 576.228C377.479 574.438 377.338 573.537 376.385 573.055C375.661 572.927 374.924 572.893 374.191 572.956Z" fill="#F4F4F4"/>
<path d="M352.609 586.476C353.142 586.59 353.667 586.74 354.179 586.926C354.66 587.179 355.178 587.356 355.714 587.449C356.29 587.538 357.19 587.24 358.745 586.507C360.448 585.634 361.989 584.476 363.301 583.083C364.791 581.309 366.123 579.408 367.28 577.401C367.955 576.171 368.809 575.862 369.552 576.103C370.442 576.396 370.552 577.281 369.552 578.936C368.276 581.097 366.746 583.099 364.997 584.899C363.617 586.28 362.011 587.413 360.248 588.251C358.991 588.905 357.645 589.372 356.253 589.638C355.766 589.743 355.436 589.947 354.535 590.261C353.64 590.587 352.679 590.693 351.734 590.57C350.954 590.418 350.687 590.24 350.656 590.046C350.624 589.853 350.781 589.717 351.148 589.743C351.725 589.835 352.314 589.82 352.886 589.701C352.886 589.701 352.08 589.675 351.603 589.617C351.175 589.571 350.756 589.465 350.357 589.303C349.975 589.141 349.833 588.539 350.221 588.559C350.608 588.58 350.87 588.696 351.582 588.769C351.958 588.814 352.338 588.814 352.713 588.769C352.242 588.691 351.778 588.576 351.326 588.423C350.951 588.324 350.614 588.116 350.357 587.826C350.226 587.675 350.263 587.303 350.718 587.397C351.267 587.588 351.837 587.713 352.415 587.769C352.996 587.769 353.41 587.722 353.336 587.633C353.263 587.544 352.918 587.554 352.478 587.308C352.038 587.062 351.776 586.585 351.954 586.355C352.132 586.125 352.132 586.298 352.609 586.476Z" fill="#FFCEA9"/>
<path d="M368.616 580.936C367.256 580.738 365.998 580.1 365.035 579.119L367.202 576.113C367.202 576.113 368.422 574.574 370.035 575.443C370.035 575.443 371.25 575.574 370.035 578.119C369.622 579.087 369.148 580.028 368.616 580.936Z" fill="#EDEDED"/>
<path d="M367.467 564.301C367.554 563.785 367.839 563.322 368.261 563.013C368.684 562.704 369.211 562.572 369.729 562.646C370.487 562.139 371.4 561.918 372.306 562.023C374.363 562.238 375.709 563.594 376.332 565.636C376.638 566.661 376.841 567.713 376.939 568.778C377.557 573.359 379.222 576.993 377.667 578.355C376.112 579.716 371.85 580.58 370.07 579.726C368.29 578.873 371.536 570.977 368.012 566.589C367.185 565.547 367.106 564.819 367.467 564.301Z" fill="#3A2C6D"/>
<path d="M419.519 596.451C418.593 597.206 417.223 596.514 417.154 596.583C416.065 597.596 414.921 598.548 413.727 599.435C413.149 599.893 412.263 600.5 412.409 601.375C412.702 602.942 415.206 602.474 416.151 601.979C417.095 601.485 417.868 600.709 418.761 600.149C419.398 599.754 420.028 599.549 420.127 598.743C420.185 598.26 419.684 596.429 419.519 596.451Z" fill="#38226D"/>
<path d="M420.115 598.421C419.99 599.193 419.382 599.406 418.738 599.797C417.83 600.365 417.028 601.178 416.084 601.657C415.213 602.097 413.034 602.536 412.423 601.419C412.756 602.928 415.216 602.455 416.15 601.979C417.083 601.503 417.867 600.709 418.76 600.149C419.397 599.754 420.027 599.548 420.126 598.743C420.134 598.636 420.13 598.528 420.115 598.421Z" fill="#2E84F6"/>
<path d="M411.466 593.453C410.536 594.211 408.903 593.383 408.845 593.453C407.879 594.433 406.857 595.356 405.784 596.217C405.206 596.675 404.301 597.282 404.466 598.157C404.755 599.721 407.263 599.256 408.208 598.761C409.152 598.267 409.921 597.491 410.818 596.931C411.455 596.535 412.081 596.33 412.18 595.525C412.242 595.042 411.631 593.435 411.466 593.453Z" fill="#38226D"/>
<path d="M412.152 595.313C412.028 596.085 411.42 596.298 410.776 596.69C409.868 597.257 409.066 598.07 408.121 598.549C407.25 598.989 405.072 599.428 404.46 598.311C404.794 599.82 407.254 599.347 408.187 598.871C409.121 598.396 409.904 597.601 410.798 597.041C411.435 596.646 412.064 596.441 412.163 595.635C412.171 595.528 412.168 595.42 412.152 595.313Z" fill="#2E84F6"/>
<path d="M419.575 562.181C419.531 563.583 419.092 569.682 418.898 572.908C418.704 576.133 418.66 580.09 418.66 580.09C418.66 580.09 419.216 582.441 419.575 585.216C419.934 587.991 419.575 596.7 419.575 596.7C419.221 596.928 418.808 597.049 418.387 597.049C417.966 597.049 417.553 596.928 417.199 596.7C417.199 596.7 415.713 589.719 415.024 586.574C414.336 583.429 414.215 581.617 413.86 579.666C413.428 577.308 412.498 566.303 412.498 566.303L412.132 566.325L411.137 578.747C411.444 579.662 411.655 580.607 411.766 581.566C412.033 583.59 411.481 593.772 411.481 593.772C411.085 593.991 410.636 594.096 410.184 594.078C409.732 594.059 409.294 593.916 408.918 593.665C408.918 593.665 406.439 580.182 406.439 578.128C406.439 576.774 406.67 558.875 406.67 558.875L419.575 562.181Z" fill="#DD7A7A"/>
<path d="M408.843 563.126C408.441 562.782 408.188 562.35 407.577 561.91C407.042 561.522 406.65 561.328 406.328 560.812C406.006 560.296 406.024 558.286 405.9 556.477C405.75 554.347 406.141 551.546 406.541 550.418C407.353 548.13 407.101 544.305 407.639 543.012C408.177 541.72 409.762 542.002 409.257 541.35C408.668 540.581 406.368 540.102 405.354 541.859C404.34 543.616 404.362 547.475 403.641 550.151C403.275 551.443 403.238 552.809 403.418 555.547C403.542 557.462 403.575 559.337 404.128 561.174C404.278 561.676 404.263 562.225 404.435 563.214C404.608 564.202 404.849 565.385 405.391 566.025C405.933 566.666 406.233 566.809 406.409 566.757C406.584 566.706 406.647 566.468 406.431 566.15C406.055 565.666 405.767 565.119 405.581 564.535C405.581 564.535 406.017 565.267 406.314 565.67C406.579 566.035 406.892 566.364 407.243 566.648C407.588 566.915 408.206 566.721 407.998 566.391C407.789 566.062 407.54 565.864 407.104 565.253C406.874 564.927 406.682 564.576 406.533 564.206C406.847 564.598 407.191 564.965 407.562 565.304C407.846 565.594 408.209 565.795 408.605 565.882C408.81 565.926 409.129 565.703 408.818 565.33C408.506 564.956 408.038 564.693 407.602 563.968C407.284 563.444 407.134 563.027 407.254 563.049C407.375 563.071 407.54 563.393 407.987 563.671C408.433 563.949 409.012 563.942 409.14 563.671C409.268 563.4 409.25 563.47 408.843 563.126Z" fill="#FFCEA9"/>
<path d="M416.208 535.045C416.208 535.045 416.051 538.106 416.116 538.377C416.182 538.648 417.522 539.545 417.914 539.867C418.306 540.189 415.794 542.66 414.579 543.22C413.363 543.781 409.497 542.305 409.431 540.409C409.366 538.512 410.09 536.924 410.683 536.839C411.277 536.755 416.208 535.045 416.208 535.045Z" fill="#FFCEA9"/>
<path d="M416.55 538.908C416.55 538.908 414.331 542.203 411.23 542.529C410.253 541.566 410.165 538.135 411.516 537.037C411.516 537.037 410.275 536.034 409.422 536.228C408.509 536.783 407.83 537.651 407.511 538.67C406.72 540.947 406.347 543.348 406.413 545.758C406.464 549.005 406.413 558.937 406.413 558.937C406.413 558.937 406.848 561.035 409.653 562.598C412.457 564.161 414.536 564.312 416.436 563.869C418.007 563.502 419.303 562.95 419.845 561.811C419.702 559.534 418.688 553.596 419.065 550.733C419.442 547.87 420.05 545.732 420.207 543.411C420.365 541.09 419.903 541.145 418.743 540.321C418.047 539.797 417.314 539.325 416.55 538.908Z" fill="#EDEDED"/>
<path d="M414.689 564.641C415.187 564.352 415.539 563.938 416.275 563.587C416.923 563.275 417.373 563.144 417.819 562.646C418.266 562.148 418.826 560.127 419.306 558.223C419.769 556.08 419.861 553.874 419.58 551.699C419.148 549.1 417.962 545.505 417.622 544.011C417.281 542.518 417.728 541.888 418.391 541.287C419.167 540.581 420.324 540.793 421.07 542.862C422.046 545.728 422.7 548.693 423.022 551.703C423.197 553.942 423 556.195 422.44 558.37C421.942 560.391 421.213 561.87 420.272 563.726C420.016 564.231 419.954 564.67 419.577 565.692C419.218 566.717 418.616 567.64 417.823 568.383C417.12 568.965 416.776 569.06 416.597 568.972C416.417 568.884 416.399 568.606 416.692 568.317C417.188 567.873 417.599 567.343 417.907 566.753C417.907 566.753 417.303 567.445 416.908 567.826C416.556 568.167 416.159 568.459 415.729 568.694C415.308 568.913 414.686 568.588 414.971 568.276C415.257 567.965 415.561 567.804 416.143 567.229C416.451 566.927 416.723 566.589 416.952 566.223C416.541 566.583 416.103 566.909 415.641 567.2C415.282 567.454 414.858 567.599 414.418 567.617C414.191 567.617 413.895 567.325 414.298 566.988C414.7 566.651 415.253 566.453 415.857 565.765C416.296 565.263 416.538 564.85 416.403 564.85C416.267 564.85 416.037 565.161 415.491 565.373C414.946 565.586 414.349 565.468 414.257 565.168C414.166 564.868 414.191 564.934 414.689 564.641Z" fill="#FFCEA9"/>
<path d="M409.279 530.484C409.645 528.108 411.358 526.307 413.807 526.457C414.793 526.508 415.737 526.868 416.508 527.485C417.278 528.102 417.835 528.945 418.1 529.895C418.366 530.846 418.326 531.856 417.986 532.783C417.647 533.709 417.025 534.506 416.209 535.06C416.126 535.42 416.003 535.768 415.843 536.1C414.979 537.114 412.357 537.74 411.603 537.63C410.637 537.491 410.113 537.089 409.652 536.034C408.814 534.152 409.081 531.659 409.279 530.484Z" fill="#FFCEA9"/>
<path d="M416.209 535.046L415.982 532.973C415.982 532.973 417.677 528.58 413.675 529.43C411.032 529.986 410.38 530.224 409.567 528.452C408.755 526.68 411.596 525.088 414.964 525.523C416.123 525.645 417.195 526.198 417.966 527.071C418.737 527.945 419.153 529.077 419.13 530.242C419.038 531.553 418.698 534.193 416.209 535.046Z" fill="#3A4151"/>
<path d="M423.059 546.944C423.059 546.944 420.863 549.119 418.3 548.493C417.934 548.24 417.041 543.162 417.041 543.162C417.041 543.162 417.041 540.351 419.201 540.424C421.361 540.497 423.059 546.944 423.059 546.944Z" fill="#D5D7E2"/>
<path d="M406.567 542.734C406.567 542.734 405.425 542.675 404.953 542.002C405.041 540.867 406.498 536.547 409.423 536.225C408.627 536.78 407.995 537.539 407.592 538.421C407.061 539.743 406.567 542.734 406.567 542.734Z" fill="#D5D7E2"/>
<path d="M409.716 554.152C409.696 554.216 409.693 554.283 409.709 554.347C409.724 554.412 409.757 554.471 409.803 554.518C409.846 554.544 409.895 554.558 409.944 554.558C409.994 554.558 410.043 554.544 410.085 554.518C410.167 554.465 410.239 554.398 410.298 554.321C410.408 554.196 410.503 554.058 410.579 553.911C410.7 553.654 410.682 553.124 410.276 553.223C409.869 553.321 409.77 553.841 409.716 554.152Z" fill="#FFCEA9"/>
</g>
<g opacity="0.6">
<rect width="95.861" height="95.861" rx="8" transform="matrix(0.866025 -0.5 0.866025 0.5 287.88 251.546)" fill="#6D6D6D"/>
<path fill-rule="evenodd" clip-rule="evenodd" d="M294.809 247.546C290.982 249.755 290.982 253.337 294.809 255.546L364.039 295.516C367.865 297.725 374.069 297.725 377.895 295.516L447.125 255.546C450.951 253.337 450.951 249.755 447.125 247.546L428.299 236.676L446.027 233.699C450.384 232.967 450.384 231.78 446.027 231.048L407.279 224.54L377.895 207.576C374.069 205.367 367.865 205.367 364.039 207.576L334.711 224.508L295.77 231.048C291.413 231.78 291.413 232.967 295.77 233.699L313.604 236.694L294.809 247.546Z" fill="#DEE8F3"/>
<rect width="95.7908" height="95.7908" rx="8" transform="matrix(0.866025 -0.5 0.866025 0.5 287.88 232.374)" fill="white"/>
<path fill-rule="evenodd" clip-rule="evenodd" d="M420.271 0H321.512V184.086H322.338L321.25 184.552L370.796 205.749L420.342 184.552L419.255 184.086H420.271V0Z" fill="url(#paint0_linear_2_366)"/>
<path d="M420.342 178.595L370.796 150.283L321.25 178.595L370.796 206.907L420.342 178.595Z" fill="#154078"/>
<path d="M370.796 206.907L321.25 178.595V234.776L370.796 263.088V206.907Z" fill="#2E84F6"/>
<path d="M370.796 206.907L420.342 178.595V234.776L370.796 263.088V206.907Z" fill="#37E7E7"/>
<path d="M347.793 86.2017L334.522 78.6182L321.25 86.2017L334.522 93.7853L347.793 86.2017Z" fill="#154078"/>
<path d="M334.522 93.7852L321.25 86.2017V101.25L334.522 108.834V93.7852Z" fill="#2E84F6"/>
<path d="M334.522 93.7852L347.793 86.2017V101.25L334.522 108.834V93.7852Z" fill="#37E7E7"/>
<path d="M412.569 152.54L407.07 149.398L401.571 152.54L407.07 155.683L412.569 152.54Z" fill="#154078"/>
<path d="M407.07 155.683L401.571 152.541V158.776L407.07 161.919V155.683Z" fill="#2E84F6"/>
<path d="M407.07 155.683L412.569 152.541V158.776L407.07 161.919V155.683Z" fill="#37E7E7"/>
<path d="M379.643 127.911L370.796 122.855L361.948 127.911L370.796 132.967L379.643 127.911Z" fill="#154078"/>
<path d="M370.796 132.967L361.948 127.911V137.944L370.796 142.999V132.967Z" fill="#2E84F6"/>
<path d="M370.797 132.967L379.644 127.911V137.944L370.797 142.999V132.967Z" fill="#37E7E7"/>
<path d="M407.072 104.023L398.224 98.9673L389.377 104.023L398.224 109.079L407.072 104.023Z" fill="#154078"/>
<path d="M398.224 109.079L389.377 104.023V114.055L398.224 119.111V109.079Z" fill="#2E84F6"/>
<path d="M398.223 109.079L407.071 104.023V114.055L398.223 119.111V109.079Z" fill="#37E7E7"/>
<path d="M361.948 149.675L347.792 141.585L333.636 149.675L347.792 157.764L361.948 149.675Z" fill="#154078"/>
<path d="M347.792 157.763L333.636 149.674V165.726L347.792 173.815V157.763Z" fill="#2E84F6"/>
<path d="M347.79 157.763L361.946 149.674V165.726L347.79 173.815V157.763Z" fill="#37E7E7"/>
</g>
<defs>
<linearGradient id="paint0_linear_2_366" x1="370.797" y1="66.6405" x2="370.797" y2="205.749" gradientUnits="userSpaceOnUse">
<stop stop-color="#154078"/>
<stop offset="1" stop-color="#38E6E6" stop-opacity="0.4"/>
</linearGradient>
</defs>
</svg>
