<svg width="735" height="662" viewBox="0 0 735 662" fill="none" xmlns="http://www.w3.org/2000/svg">
<path d="M371.078 602.764L646.7 445.04" stroke="url(#paint0_linear_2_829)" stroke-width="8"/>
<path d="M356.538 600.867L80.9159 443.143" stroke="url(#paint1_linear_2_829)" stroke-width="8"/>
<rect width="58.5954" height="105.472" rx="8" transform="matrix(0.866025 0.5 -2.20305e-08 1 83.2065 249.702)" fill="#2840F1"/>
<rect width="58.5954" height="105.472" rx="8" transform="matrix(0.866025 0.5 -2.20305e-08 1 79.6904 252.046)" fill="#2208F5"/>
<rect width="58.5954" height="105.472" rx="8" transform="matrix(0.866025 0.5 -2.20305e-08 1 79.6904 254.39)" fill="white"/>
<rect width="41.0168" height="2.34382" rx="1.17191" transform="matrix(0.866025 0.5 -2.20305e-08 1 87.3008 275.777)" fill="#DAE7EB"/>
<rect width="17.5786" height="2.34382" rx="1.17191" transform="matrix(0.866025 0.5 -2.20305e-08 1 97.4517 276.949)" fill="#DAE7EB"/>
<rect width="46.8763" height="17.5786" rx="4" transform="matrix(0.866025 0.5 -2.20305e-08 1 84.7642 289.547)" fill="white"/>
<rect width="11.7191" height="11.7191" rx="4" transform="matrix(0.866025 0.5 -2.20305e-08 1 112.672 308.591)" fill="#34BCF0"/>
<rect width="23.4382" height="2.34382" rx="1.17191" transform="matrix(0.866025 0.5 -2.20305e-08 1 87.3008 293.942)" fill="#DAE7EB"/>
<rect width="17.5786" height="1.17191" rx="0.585954" transform="matrix(0.866025 0.5 -2.20305e-08 1 87.3008 297.458)" fill="#DAE7EB"/>
<rect width="14.6488" height="1.17191" rx="0.585954" transform="matrix(0.866025 0.5 -2.20305e-08 1 87.3008 299.801)" fill="#DAE7EB"/>
<rect width="11.7191" height="1.17191" rx="0.585954" transform="matrix(0.866025 0.5 -2.20305e-08 1 87.3008 305.661)" fill="#DAE7EB"/>
<rect width="46.8763" height="17.5786" rx="4" transform="matrix(0.866025 0.5 -2.20305e-08 1 84.7642 310.056)" fill="white"/>
<rect width="11.7191" height="11.7191" rx="4" transform="matrix(0.866025 0.5 -2.20305e-08 1 112.672 329.099)" fill="#38E6E6"/>
<rect width="23.4382" height="2.34382" rx="1.17191" transform="matrix(0.866025 0.5 -2.20305e-08 1 87.3008 314.45)" fill="#DAE7EB"/>
<rect width="17.5786" height="1.17191" rx="0.585954" transform="matrix(0.866025 0.5 -2.20305e-08 1 87.3008 317.966)" fill="#DAE7EB"/>
<rect width="14.6488" height="1.17191" rx="0.585954" transform="matrix(0.866025 0.5 -2.20305e-08 1 87.3008 320.31)" fill="#DAE7EB"/>
<rect width="11.7191" height="1.17191" rx="0.585954" transform="matrix(0.866025 0.5 -2.20305e-08 1 87.3008 326.169)" fill="#DAE7EB"/>
<rect width="46.8763" height="17.5786" rx="4" transform="matrix(0.866025 0.5 -2.20305e-08 1 84.7642 330.563)" fill="white"/>
<rect width="11.7191" height="11.7191" rx="4" transform="matrix(0.866025 0.5 -2.20305e-08 1 112.672 349.607)" fill="#2C2A8A"/>
<rect width="23.4382" height="2.34382" rx="1.17191" transform="matrix(0.866025 0.5 -2.20305e-08 1 87.3008 334.959)" fill="#DAE7EB"/>
<rect width="17.5786" height="1.17191" rx="0.585954" transform="matrix(0.866025 0.5 -2.20305e-08 1 87.3008 338.475)" fill="#DAE7EB"/>
<rect width="14.6488" height="1.17191" rx="0.585954" transform="matrix(0.866025 0.5 -2.20305e-08 1 87.3008 340.818)" fill="#DAE7EB"/>
<rect width="11.7191" height="1.17191" rx="0.585954" transform="matrix(0.866025 0.5 -2.20305e-08 1 87.3008 346.678)" fill="#DAE7EB"/>
<rect width="93.7527" height="93.7527" rx="8" transform="matrix(0.866025 -0.5 0.866025 0.5 0 443.652)" fill="#6D6D6D"/>
<path fill-rule="evenodd" clip-rule="evenodd" d="M6.92835 439.653C3.10201 441.862 3.10201 445.444 6.92835 447.653L74.3308 486.568C78.1572 488.777 84.3609 488.777 88.1872 486.568L155.59 447.653C159.416 445.444 159.416 441.862 155.59 439.653L137.33 429.11L154.495 426.227C158.852 425.496 158.852 424.309 154.495 423.577L116.772 417.242L88.1872 400.738C84.3609 398.529 78.1572 398.529 74.3308 400.738L45.8005 417.21L7.88965 423.577C3.53241 424.309 3.53241 425.496 7.88966 426.227L25.1581 429.128L6.92835 439.653Z" fill="#DEE8F3"/>
<rect width="93.684" height="93.684" rx="8" transform="matrix(0.866025 -0.5 0.866025 0.5 0 424.902)" fill="white"/>
<path opacity="0.4" d="M80.695 433.596C88.6937 433.596 95.178 429.852 95.178 425.233C95.178 420.614 88.6937 416.87 80.695 416.87C72.6962 416.87 66.2119 420.614 66.2119 425.233C66.2119 429.852 72.6962 433.596 80.695 433.596Z" fill="#D6D8E5"/>
<path d="M70.3754 363.226C70.2143 364.634 68.5335 370.71 68.8937 372.792C69.2539 374.874 74.9962 378.356 74.9962 378.356L75.7926 374.792L72.6126 371.688L73.4705 365.788L70.3754 363.226Z" fill="#FFCEA9"/>
<path d="M74.8169 357.237C73.997 356.883 72.4743 356.804 71.6192 358.203C70.7642 359.603 69.8974 364.4 69.8184 365.231C69.8184 365.231 71.0043 366.868 72.7817 366.596L74.8169 357.237Z" fill="#EDEDED"/>
<path d="M81.3757 424.982C82.6255 425.326 83.9604 425.164 85.0917 424.531C85.9848 424.557 90.8427 422.481 91.5045 424.223C92.0901 425.755 89.9789 427.169 88.8544 427.444C86.4006 428.03 84.5851 429.263 83.5983 429.471C82.8662 429.626 81.9145 429.729 81.3289 429.152C80.629 428.461 80.6876 425.898 81.3757 424.982Z" fill="#38226D"/>
<path d="M83.5993 429.049C84.5861 428.844 86.4016 427.62 88.8555 427.026C89.7984 426.797 91.4206 425.766 91.5846 424.537C91.8013 425.945 89.9038 427.195 88.8555 427.447C86.4016 428.033 84.5861 429.266 83.5993 429.474C82.8672 429.629 81.9156 429.731 81.3299 429.154C81.1788 428.987 81.0686 428.786 81.0078 428.569C81.8629 429.277 82.8672 429.204 83.5993 429.049Z" fill="#9C73FF"/>
<path d="M73.4963 421.447C74.7456 421.794 76.0812 421.633 77.2123 420.999C78.1083 421.026 82.9633 418.95 83.6251 420.707C84.2107 422.238 82.0995 423.652 80.975 423.928C78.5212 424.513 76.7057 425.746 75.7218 425.954C74.9868 426.109 74.0351 426.212 73.4524 425.632C72.7496 424.923 72.8111 422.361 73.4963 421.447Z" fill="#38226D"/>
<path d="M75.7214 425.512C76.7053 425.304 78.5208 424.083 80.9746 423.489C81.9175 423.26 83.5398 422.226 83.7037 421C83.9234 422.408 82.0229 423.658 80.9746 423.91C78.5208 424.496 76.7053 425.729 75.7214 425.937C74.9864 426.092 74.0347 426.194 73.452 425.614C73.2987 425.448 73.1882 425.247 73.1299 425.029C73.982 425.737 74.9864 425.667 75.7214 425.512Z" fill="#9C73FF"/>
<path d="M73.4 408.25C73.6102 406.446 73.9856 404.665 74.5215 402.929C74.5215 402.929 74.1877 398.335 74.0208 393.984C73.8304 389.044 72.1174 384.695 73.4673 380.754L88.7117 384.145C88.7117 384.145 87.7893 403.84 87.5844 406.224C87.4742 408.079 87.2473 409.925 86.905 411.752C86.2081 415.576 85.0778 424.672 85.0778 424.672C83.4643 425.609 81.3501 425.09 81.3501 425.09C81.3501 425.09 81.4673 413.588 81.5698 410.833C81.6957 407.468 81.7982 407.726 81.7982 407.726L81.2945 399.348L80.9665 395.178C80.9665 395.178 80.5449 398.238 80.2696 400.97C80.0295 403.354 79.4556 405.509 78.8055 409.943C78.2491 413.79 77.3414 421.521 77.3414 421.521C75.7309 422.458 73.5347 421.682 73.5347 421.682C73.5347 421.682 72.9637 411.588 73.4 408.25Z" fill="#154078"/>
<path d="M75.6211 357.319C76.7924 357.377 77.6475 357.676 77.7939 357.319C77.9179 356.719 78.0059 356.113 78.0574 355.503C77.9227 355.166 77.8085 354.806 77.8085 354.806C76.3444 353.907 75.8905 352.332 75.6973 350.499C75.3722 347.363 77.0647 344.616 80.2009 344.288C83.1496 343.995 85.3195 346.045 85.8963 348.9C86.2096 350.303 86.8304 352.959 85.99 355.269C85.5215 356.56 84.9183 357.585 84.3121 357.784C83.7289 357.768 83.1471 357.717 82.5698 357.632C82.5698 357.632 82.4146 358.511 82.3063 359.061C82.1979 359.612 82.2419 359.916 83.3546 360.604C84.4673 361.292 81.6709 362.698 79.8407 362.56C78.0106 362.423 75.9608 361.319 75.3957 360.136C74.7719 358.833 74.8246 357.281 75.6211 357.319Z" fill="#FFCEA9"/>
<path d="M77.305 357.492C76.9829 358.294 77.7999 359.275 79.9814 359.96C82.1629 360.645 82.3562 359.764 82.3562 359.764C82.3562 359.764 85.5538 361.228 86.5934 361.946C87.9023 362.862 88.4821 365.509 88.6607 369.978C88.8627 375.149 88.8803 382.821 88.7105 384.145C88.7105 384.145 86.2654 386.581 83.1468 386.323C80.0283 386.066 74.7516 383.298 73.4836 381.158C73.5188 376.625 74.0488 375.887 73.3138 373.275C71.633 367.296 70.7487 364.847 71.5569 360.874C72.2304 357.597 73.1733 357.19 74.4675 357.222C75.4174 357.262 76.3646 357.352 77.305 357.492Z" fill="#F4F4F4"/>
<path d="M93.5821 374.254C91.014 374.901 90.4108 373.281 90.0682 371.94C89.2512 368.693 88.812 365.762 88.2029 363.92C87.4855 361.747 86.7388 361.399 85.6788 360.977C84.4372 360.479 83.3713 361.527 83.7842 364.292C84.2732 367.565 84.9145 369.855 86.1268 373.735C86.446 374.745 87.1605 376.543 88.2351 377.41C89.5587 378.482 91.5558 378.435 94.5748 377.685C95.8632 377.363 97.2746 376.593 99.7109 375.457C100.364 375.164 100.882 374.95 102.127 374.365C103.371 373.779 104.689 372.804 105.348 371.852C106.007 370.901 106.092 370.453 105.957 370.236C105.79 369.964 105.491 370.022 105.14 370.423C104.633 371.101 104.007 371.68 103.292 372.134C103.292 372.134 104.103 371.296 104.542 370.751C104.937 370.269 105.264 369.735 105.515 369.164C105.746 368.608 105.269 367.855 104.906 368.251C104.542 368.646 104.37 369.05 103.705 369.847C103.354 370.27 102.954 370.651 102.513 370.98C102.925 370.424 103.292 369.837 103.611 369.223C104.033 368.362 104.027 367.92 104.01 367.63C103.992 367.34 103.582 366.994 103.198 367.542C102.85 368.037 102.613 368.81 101.819 369.65C101.234 370.259 100.733 370.611 100.718 370.441C100.704 370.271 101.073 369.937 101.283 369.229C101.494 368.52 101.283 367.765 100.891 367.688C100.499 367.612 100.575 367.63 100.258 368.292C99.9422 368.953 99.462 369.445 99.0872 370.415C98.7622 371.267 98.6157 371.612 98.0301 372.233C97.4181 372.895 96.0243 373.639 93.5821 374.254Z" fill="#FFCEA9"/>
<path d="M84.7274 360.532C86.4433 360.28 87.6556 361.053 88.4111 363.65C89.1666 366.248 89.6995 368.382 89.6995 368.382C89.0204 369.361 87.9926 370.043 86.8269 370.289C84.7772 370.787 84.0363 369.806 84.0363 369.806C84.0363 369.806 83.4507 367.082 83.111 365.229C82.7713 363.375 82.6044 360.854 84.7274 360.532Z" fill="#EDEDED"/>
<path d="M85.7996 348.499C85.7996 348.499 88.5112 344.379 82.64 343.539C78.4058 342.935 75.6825 345.656 75.3692 348.607C75.0764 351.427 76.807 354.356 78.0603 355.518C78.6723 355.738 79.99 355.864 81.7206 355.076C81.7898 354.308 81.8162 353.537 81.7996 352.766C81.7996 352.766 79.7352 348.423 85.7996 348.499Z" fill="#3A2C6D"/>
<rect width="180.765" height="93.9038" rx="8" transform="matrix(0.866025 -0.5 2.20305e-08 1 513.339 336.924)" fill="#2840F1"/>
<rect width="180.765" height="93.9038" rx="8" transform="matrix(0.866025 -0.5 2.20305e-08 1 522.731 344.554)" fill="white"/>
<rect width="0.586899" height="45.1912" transform="matrix(0.866025 -0.5 2.20305e-08 1 532.894 374.486)" fill="#E1ECEF"/>
<rect width="0.586899" height="45.1912" transform="matrix(0.866025 -0.5 2.20305e-08 1 554.242 362.161)" fill="#E1ECEF"/>
<rect width="0.586899" height="45.1912" transform="matrix(0.866025 -0.5 2.20305e-08 1 575.59 349.836)" fill="#E1ECEF"/>
<rect width="0.586899" height="45.1912" transform="matrix(0.866025 -0.5 2.20305e-08 1 596.935 337.511)" fill="#E1ECEF"/>
<rect width="0.586899" height="45.1912" transform="matrix(0.866025 -0.5 2.20305e-08 1 618.287 325.186)" fill="#E1ECEF"/>
<path d="M532.898 414.982L546.165 392.23L553.309 396.232L564.876 376.397L575.081 370.505L588.349 347.754L596.683 352.422L601.616 343.963L611.481 349.49L618.795 336.947" stroke="#60EBEB" stroke-width="4" stroke-linecap="round" stroke-linejoin="round"/>
<path d="M532.898 414.982L546.165 399.776L553.309 399.715L564.876 386.459L575.081 380.566L588.349 365.361L596.683 365.289L601.616 359.635L611.481 359.551L618.795 351.168" stroke="#2208F5" stroke-width="4" stroke-linecap="round" stroke-linejoin="round"/>
<path d="M532.898 414.982L546.165 404.556L553.309 401.921L564.876 392.831L575.081 386.939L588.349 376.512L596.683 373.438L601.616 369.561C601.616 369.561 607.629 367.344 611.481 365.923L618.795 360.175" stroke="#8C50FF" stroke-width="4" stroke-linecap="round" stroke-linejoin="round"/>
<rect width="99.1859" height="7.04279" rx="2" transform="matrix(0.866025 -0.5 2.20305e-08 1 532.894 350.423)" fill="#E1ECEF"/>
<rect width="74.5361" height="4.69519" rx="2" transform="matrix(0.866025 -0.5 2.20305e-08 1 532.898 360.987)" fill="#E1ECEF"/>
<rect width="37.5615" height="4.69519" rx="2" transform="matrix(0.866025 -0.5 2.20305e-08 1 634.042 296.722)" fill="#E1ECEF"/>
<rect width="16.4332" height="2.34759" rx="1.1738" transform="matrix(0.866025 -0.5 2.20305e-08 1 535.438 373.019)" fill="#E1ECEF"/>
<rect width="16.4332" height="2.34759" rx="1.1738" transform="matrix(0.866025 -0.5 2.20305e-08 1 556.787 360.694)" fill="#E1ECEF"/>
<rect width="16.4332" height="2.34759" rx="1.1738" transform="matrix(0.866025 -0.5 2.20305e-08 1 578.135 348.369)" fill="#E1ECEF"/>
<rect width="16.4332" height="2.34759" rx="1.1738" transform="matrix(0.866025 -0.5 2.20305e-08 1 599.479 336.044)" fill="#E1ECEF"/>
<rect width="9.39038" height="2.34759" rx="1.1738" transform="matrix(0.866025 -0.5 2.20305e-08 1 535.438 375.953)" fill="#E1ECEF"/>
<rect width="9.39038" height="2.34759" rx="1.1738" transform="matrix(0.866025 -0.5 2.20305e-08 1 556.787 363.628)" fill="#E1ECEF"/>
<rect width="9.39038" height="2.34759" rx="1.1738" transform="matrix(0.866025 -0.5 2.20305e-08 1 578.135 351.304)" fill="#E1ECEF"/>
<rect width="9.39038" height="2.34759" rx="1.1738" transform="matrix(0.866025 -0.5 2.20305e-08 1 599.479 338.979)" fill="#E1ECEF"/>
<rect width="31.6925" height="2.34759" rx="1.1738" transform="matrix(0.866025 -0.5 2.20305e-08 1 634.042 304.938)" fill="#E1ECEF"/>
<rect width="21.1284" height="2.34759" rx="1.1738" transform="matrix(0.866025 -0.5 2.20305e-08 1 638.617 348.662)" fill="#E1ECEF"/>
<path d="M660.471 315.502C660.471 323.606 654.782 333.459 647.764 337.511C640.746 341.563 635.057 338.278 635.057 330.175C635.057 322.072 640.746 312.218 647.764 308.166C654.782 304.115 660.471 307.399 660.471 315.502ZM638.869 327.974C638.869 333.646 642.851 335.946 647.764 333.109C652.676 330.273 656.659 323.376 656.659 317.703C656.659 312.031 652.676 309.732 647.764 312.568C642.851 315.404 638.869 322.302 638.869 327.974Z" fill="#60EBEB"/>
<path d="M660.471 315.502C660.471 318.404 659.725 321.671 658.329 324.89C656.933 328.109 654.948 331.136 652.627 333.587C650.305 336.038 647.75 337.803 645.285 338.66C642.82 339.517 640.556 339.427 638.779 338.401C637.002 337.375 635.792 335.46 635.301 332.896C634.811 330.333 635.063 327.238 636.024 324.002C636.986 320.765 638.615 317.533 640.704 314.715C642.794 311.896 645.251 309.617 647.764 308.166L647.764 312.568C646.005 313.584 644.285 315.179 642.822 317.152C641.359 319.125 640.219 321.387 639.546 323.653C638.873 325.918 638.697 328.085 639.04 329.879C639.383 331.673 640.23 333.014 641.474 333.732C642.718 334.451 644.303 334.514 646.029 333.914C647.754 333.314 649.542 332.078 651.168 330.362C652.793 328.647 654.182 326.528 655.16 324.275C656.137 322.022 656.659 319.735 656.659 317.703L660.471 315.502Z" fill="#2208F5"/>
<path d="M660.471 315.502C660.471 317.753 660.022 320.232 659.16 322.748C658.298 325.265 657.046 327.75 655.499 330.013C653.953 332.276 652.154 334.255 650.243 335.798C648.331 337.341 646.358 338.405 644.475 338.91L645.462 334.089C646.78 333.735 648.161 332.99 649.499 331.91C650.837 330.83 652.096 329.445 653.179 327.861C654.261 326.277 655.138 324.537 655.741 322.776C656.345 321.014 656.659 319.279 656.659 317.703L660.471 315.502Z" fill="#8C50FF"/>
<rect width="93.752" height="93.752" rx="8" transform="matrix(0.866025 -0.5 0.866025 0.5 572.617 445.337)" fill="#6D6D6D"/>
<path fill-rule="evenodd" clip-rule="evenodd" d="M579.542 441.337C575.715 443.546 575.715 447.128 579.542 449.337L646.877 488.213C650.703 490.422 656.907 490.422 660.733 488.213L728.068 449.337C731.895 447.128 731.895 443.546 728.068 441.337L709.837 430.811L727.107 427.911C731.464 427.179 731.464 425.992 727.107 425.261L689.194 418.893L660.733 402.461C656.907 400.252 650.703 400.252 646.877 402.461L618.416 418.893L580.503 425.261C576.146 425.992 576.146 427.179 580.503 427.911L597.773 430.811L579.542 441.337Z" fill="#DEE8F3"/>
<rect width="93.752" height="93.752" rx="8" transform="matrix(0.866025 -0.5 0.866025 0.5 572.617 426.586)" fill="#FDFDFD"/>
<path opacity="0.4" d="M655.241 434.11C663.047 434.11 669.375 430.456 669.375 425.948C669.375 421.44 663.047 417.785 655.241 417.785C647.435 417.785 641.106 421.44 641.106 425.948C641.106 430.456 647.435 434.11 655.241 434.11Z" fill="#D6D8E5"/>
<path d="M666.923 363.787C667.086 365.197 668.769 371.291 668.408 373.376C668.047 375.462 662.311 378.954 662.311 378.954L661.534 375.378L664.719 372.277L663.859 366.355L666.923 363.787Z" fill="#FFCEA9"/>
<path d="M662.474 357.786C663.034 357.526 663.67 357.481 664.261 357.659C664.852 357.837 665.357 358.225 665.68 358.751C666.52 360.157 667.409 364.958 667.485 365.785C667.485 365.785 666.297 367.43 664.518 367.153L662.474 357.786Z" fill="#EDEDED"/>
<path d="M655.904 425.717C654.651 426.062 653.312 425.901 652.177 425.268C651.279 425.293 646.411 423.212 645.748 424.962C645.169 426.514 647.275 427.899 648.404 428.185C650.864 428.785 652.672 430.01 653.671 430.216C654.41 430.371 655.35 430.476 655.95 429.897C656.651 429.183 656.592 426.615 655.904 425.717Z" fill="#38226D"/>
<path d="M653.669 429.775C652.683 429.565 650.862 428.34 648.402 427.744C647.458 427.517 645.83 426.485 645.666 425.251C645.448 426.661 647.345 427.916 648.402 428.168C650.862 428.768 652.67 429.993 653.669 430.199C654.408 430.354 655.348 430.459 655.948 429.88C656.1 429.71 656.21 429.508 656.271 429.288C655.905 429.565 655.479 429.754 655.028 429.838C654.576 429.923 654.111 429.901 653.669 429.775Z" fill="#9C73FF"/>
<path d="M663.802 422.154C662.549 422.502 661.21 422.34 660.075 421.705C659.177 421.731 654.309 419.645 653.65 421.395C653.067 422.931 655.178 424.333 656.303 424.622C658.762 425.218 660.571 426.448 661.569 426.657C662.308 426.813 663.248 426.913 663.848 426.334C664.549 425.638 664.507 423.069 663.802 422.154Z" fill="#38226D"/>
<path d="M661.569 426.23C660.583 426.02 658.762 424.794 656.302 424.198C655.358 423.972 653.73 422.939 653.587 421.706C653.369 423.116 655.266 424.37 656.302 424.622C658.762 425.218 660.57 426.448 661.569 426.658C662.308 426.813 663.248 426.914 663.848 426.334C663.998 426.164 664.108 425.961 664.171 425.743C663.805 426.02 663.379 426.208 662.928 426.293C662.476 426.377 662.011 426.356 661.569 426.23Z" fill="#9C73FF"/>
<path d="M663.898 408.931C663.688 407.123 663.312 405.339 662.774 403.601C662.774 403.601 663.109 398.985 663.277 394.628C663.466 389.676 665.187 385.316 663.827 381.371L648.56 384.758C648.56 384.758 649.483 404.503 649.693 406.878C649.803 408.738 650.031 410.588 650.377 412.418C651.073 416.254 652.206 425.369 652.206 425.369C653.822 426.309 655.942 425.789 655.942 425.789C655.942 425.789 655.828 414.26 655.723 411.495C655.597 408.137 655.492 408.393 655.492 408.393L655.996 400L656.328 395.824C656.328 395.824 656.747 398.892 657.024 401.645C657.268 404.033 657.843 406.194 658.489 410.639C659.047 414.495 659.954 422.247 659.954 422.247C661.569 423.187 663.764 422.406 663.764 422.406C663.764 422.406 664.331 412.288 663.898 408.931Z" fill="#8C50FF"/>
<path d="M661.665 357.865C660.502 357.924 659.634 358.222 659.487 357.865C659.365 357.263 659.277 356.655 659.222 356.044C659.357 355.708 659.474 355.347 659.474 355.347C660.935 354.445 661.413 352.867 661.572 351.029C661.9 347.881 660.2 345.153 657.057 344.818C654.098 344.511 651.928 346.589 651.349 349.434C651.035 350.844 650.413 353.5 651.257 355.821C651.723 357.114 652.331 358.146 652.936 358.339C653.521 358.323 654.106 358.272 654.686 358.188C654.686 358.188 654.845 359.061 654.95 359.619C655.055 360.177 655.017 360.459 653.901 361.172C652.785 361.885 655.58 363.27 657.418 363.136C659.256 363.002 661.3 361.877 661.879 360.706C662.521 359.384 662.466 357.827 661.665 357.865Z" fill="#FFCEA9"/>
<path d="M659.985 358.042C660.309 358.844 659.486 359.826 657.304 360.514C655.121 361.202 654.92 360.317 654.92 360.317C654.92 360.317 651.714 361.777 650.669 362.503C649.359 363.422 648.78 366.074 648.6 370.556C648.394 375.739 648.382 383.428 648.549 384.758C648.549 384.758 651.005 387.2 654.139 386.94C657.274 386.68 662.533 383.91 663.842 381.766C663.804 377.221 663.276 376.478 664.01 373.863C665.689 367.866 666.583 365.416 665.764 361.445C665.089 358.159 664.14 357.752 662.827 357.786C661.876 357.819 660.927 357.905 659.985 358.042Z" fill="#F4F4F4"/>
<path d="M643.683 375.71C646.26 376.36 646.86 374.736 647.204 373.381C648.043 370.128 648.463 367.174 649.072 365.344C649.789 363.162 650.545 362.826 651.59 362.406C652.849 361.911 653.919 362.96 653.486 365.734C653 369.012 652.353 371.32 651.128 375.198C650.809 376.213 650.091 378.014 649.03 378.883C647.703 379.957 645.706 379.911 642.676 379.16C641.383 378.836 639.961 378.068 637.527 376.927C636.872 376.621 636.364 376.419 635.105 375.832C633.842 375.265 632.735 374.401 631.878 373.314C631.215 372.357 631.131 371.908 631.265 371.689C631.399 371.471 631.731 371.475 632.104 371.883C632.615 372.559 633.244 373.137 633.959 373.591C633.959 373.591 633.145 372.751 632.7 372.206C632.305 371.722 631.977 371.187 631.727 370.615C631.492 370.061 631.97 369.306 632.335 369.7C632.7 370.095 632.877 370.502 633.544 371.299C633.886 371.719 634.278 372.095 634.711 372.42C634.298 371.859 633.93 371.267 633.611 370.649C633.335 370.162 633.2 369.609 633.221 369.05C633.221 368.76 633.64 368.412 634.06 368.966C634.48 369.52 634.631 370.225 635.445 371.064C636.028 371.677 636.532 372.025 636.545 371.857C636.557 371.689 636.188 371.354 635.978 370.644C635.768 369.935 635.978 369.18 636.368 369.092C636.759 369.004 636.687 369.029 637.002 369.696C637.317 370.363 637.799 370.863 638.164 371.824C638.363 372.508 638.726 373.134 639.222 373.645C639.822 374.346 641.22 375.093 643.683 375.71Z" fill="#FFCEA9"/>
<path d="M652.546 361.966C650.825 361.705 649.608 362.482 648.853 365.067C648.097 367.652 647.568 369.822 647.568 369.822C648.25 370.804 649.281 371.489 650.451 371.735C652.508 372.231 653.242 371.253 653.242 371.253C653.242 371.253 653.813 368.533 654.17 366.662C654.526 364.79 654.673 362.272 652.546 361.966Z" fill="#EDEDED"/>
<path d="M651.462 349.023C651.462 349.023 648.747 344.893 654.63 344.054C658.877 343.446 661.618 346.152 661.92 349.132C662.222 351.956 660.481 354.898 659.222 356.061C658.609 356.283 657.283 356.405 655.558 355.641C655.484 354.867 655.456 354.089 655.474 353.312C655.474 353.312 657.543 348.952 651.462 349.023Z" fill="#3A2C6D"/>
<path d="M665.378 367.325L648.562 383.003L647.58 413.152C647.58 413.152 652.297 415.456 657.652 414.21L658.634 402.635L660.12 413.127L659.943 413.446C662.483 412.308 664.661 410.493 666.238 408.2L665.378 367.325Z" fill="#F4F4F4"/>
<path d="M647.564 369.822L646.725 373.46C646.725 373.46 646.02 376.008 644.207 375.361C642.5 374.643 640.837 373.826 639.225 372.915L637.051 377.376L641.546 379.474C641.546 379.474 647.786 381.698 649.52 379.474C651.253 377.25 653.2 371.244 653.2 371.244L647.564 369.822Z" fill="#EDEDED"/>
<rect width="93.752" height="93.752" rx="8" transform="matrix(0.866025 -0.5 0.866025 0.5 280.179 614.899)" fill="#6D6D6D"/>
<path fill-rule="evenodd" clip-rule="evenodd" d="M287.107 610.9C283.281 613.109 283.281 616.691 287.107 618.9L354.442 657.776C358.269 659.985 364.472 659.985 368.299 657.776L435.634 618.9C439.46 616.691 439.46 613.109 435.634 610.9L417.404 600.375L434.673 597.474C439.03 596.743 439.03 595.556 434.673 594.824L396.761 588.457L368.299 572.024C364.472 569.815 358.269 569.815 354.442 572.024L325.98 588.457L288.068 594.824C283.711 595.556 283.711 596.743 288.068 597.474L305.337 600.375L287.107 610.9Z" fill="#DEE8F3"/>
<rect width="93.752" height="93.752" rx="8" transform="matrix(0.866025 -0.5 0.866025 0.5 280.179 596.149)" fill="#FDFDFD"/>
<path opacity="0.4" d="M361.338 576.134C367.975 576.134 373.355 573.028 373.355 569.196C373.355 565.364 367.975 562.258 361.338 562.258C354.701 562.258 349.321 565.364 349.321 569.196C349.321 573.028 354.701 576.134 361.338 576.134Z" fill="#D6D8E5"/>
<path d="M360.806 504.317C361.288 503.544 364.969 503.036 366.182 506.155C366.637 507.336 366.568 510.36 366.955 512.256C367.341 514.152 368.242 515.233 368.544 516.774C368.846 518.315 368.342 520.894 364.63 521.355C360.917 521.816 358.063 520.508 357.183 519.321C356.304 518.135 356.288 515.614 357.183 514.274C358.078 512.934 358.772 511.822 358.772 510.037L360.806 504.317Z" fill="#3A2C6D"/>
<path d="M356.403 517.367C356.403 517.367 355.529 523.548 357.181 527.896C358.834 532.244 358.373 526.768 358.373 526.768L357.976 525.465C357.976 525.465 357.647 520.434 357.785 519.2C357.923 517.966 357.891 516.907 357.976 516.806C358.06 516.705 357.653 516.509 357.478 516.483C357.303 516.457 356.403 517.367 356.403 517.367Z" fill="#FFCEA9"/>
<path d="M363.24 503.782C363.24 503.782 360.47 502.983 358.791 504.482C358.237 504.992 357.833 505.644 357.624 506.368C357.415 507.092 357.408 507.859 357.605 508.586C357.827 509.46 358.278 510.657 358.971 510.705C359.665 510.752 363.24 503.782 363.24 503.782Z" fill="#3A2C6D"/>
<path d="M364.3 511.367C364.3 511.367 364.12 514.454 364.179 514.682C364.237 514.91 365.386 515.127 365.715 515.397C366.043 515.667 364.036 518.797 363.013 519.263C361.991 519.729 358.84 518.543 358.623 516.97C358.422 515.529 359.523 514.407 359.952 514.015C360.241 513.996 360.532 513.996 360.821 514.015L360.911 512.521C362.293 512.029 364.3 511.367 364.3 511.367Z" fill="#FFCEA9"/>
<path d="M364.724 514.952C365.592 515.09 366.583 515.551 366.72 516.012C367.079 517.722 366.993 519.497 366.471 521.165C365.719 523.151 365.216 524.417 364.782 525.275C364.782 525.275 361.027 526.864 358.003 525.005C358.003 525.005 357.791 522.886 357.78 521.737C354.984 519.301 357.373 516.292 359.74 513.957C360.024 513.936 360.309 513.936 360.593 513.957C360.593 513.957 358.474 516.457 359.952 517.876C363.092 516.928 363.717 515.519 364.724 514.952Z" fill="#F4F4F4"/>
<path d="M358.528 507.511C358.841 505.525 360.271 504.026 362.32 504.148C363.15 504.187 363.946 504.488 364.595 505.008C365.243 505.527 365.71 506.239 365.93 507.04C366.149 507.841 366.109 508.691 365.815 509.469C365.522 510.246 364.99 510.91 364.296 511.367C364.225 511.666 364.12 511.955 363.983 512.23C363.258 513.077 361.335 513.612 360.695 513.618C360.165 513.618 359.672 513.114 359.159 512.262C358.084 510.461 358.359 508.491 358.528 507.511Z" fill="#FFCEA9"/>
<path d="M362.955 504.185C364.39 504.466 365.571 504.869 365.963 506.277C366.228 507.252 366.578 509.1 366.244 509.879L366.043 510.445L364.3 511.367C364.3 511.367 363.49 510.689 363.744 508.719C363.733 508.451 363.648 508.191 363.501 507.967C363.39 507.781 363.308 507.579 363.257 507.368C363.051 506.834 362.65 506.399 362.134 506.15C360.837 505.425 358.957 506.05 358.681 506.314C359.038 505.52 359.658 504.874 360.438 504.486C361.217 504.098 362.106 503.992 362.955 504.185Z" fill="#3A2C6D"/>
<path d="M366.817 529.373C367.14 527.361 367.744 526.058 367.463 524.951C366.837 522.713 366.019 520.533 365.016 518.437C364.381 517.187 364.577 516.318 365.233 515.82C365.975 515.291 366.679 515.508 367.352 516.88C368.194 518.622 369.137 520.412 369.597 523.007C369.893 524.686 369.871 526.405 369.534 528.076C369.248 529.882 368.676 530.899 367.993 532.593C367.802 533.081 366.541 531.089 366.817 529.373Z" fill="#FFCEA9"/>
<path d="M365.563 566.886C364.838 567.474 363.704 567.066 363.652 567.119C362.808 567.847 361.924 568.526 361.003 569.153C360.548 569.508 359.844 569.985 359.971 570.673C360.198 571.897 362.158 571.521 362.899 571.144C363.641 570.768 364.239 570.149 364.938 569.715C365.442 569.402 365.929 569.243 365.998 568.613C366.045 568.232 365.691 566.87 365.563 566.886Z" fill="#38226D"/>
<path d="M365.988 568.359C365.893 568.963 365.411 569.132 364.929 569.418C364.219 569.858 363.594 570.477 362.853 570.869C362.111 571.261 360.464 571.558 359.987 570.684C360.247 571.865 362.175 571.494 362.905 571.123C363.636 570.753 364.245 570.128 364.945 569.694C365.448 569.381 365.935 569.222 366.004 568.592C366.004 568.514 365.999 568.436 365.988 568.359Z" fill="#9C73FF"/>
<path d="M360.462 565.864C359.8 566.394 358.793 566.103 358.746 566.156C357.97 566.818 357.159 567.437 356.315 568.009C355.896 568.332 355.256 568.772 355.367 569.397C355.579 570.52 357.374 570.175 358.052 569.831C358.73 569.487 359.281 568.92 359.921 568.523C360.377 568.237 360.827 568.089 360.901 567.511C360.944 567.162 360.583 565.854 360.462 565.864Z" fill="#38226D"/>
<path d="M360.889 567.279C360.798 567.835 360.359 567.983 359.903 568.269C359.252 568.672 358.68 569.254 358.002 569.599C357.324 569.943 355.815 570.229 355.354 569.429C355.592 570.488 357.356 570.171 358.002 569.832C358.648 569.493 359.231 568.921 359.872 568.523C360.327 568.237 360.777 568.089 360.851 567.512C360.871 567.435 360.883 567.357 360.889 567.279Z" fill="#9C73FF"/>
<path d="M356.547 532.075C356.87 529.57 357.791 525.931 357.791 525.931C358.664 526.341 359.609 526.577 360.572 526.625C361.981 526.616 363.387 526.478 364.771 526.212C365.224 527.002 365.719 527.768 366.254 528.505C366.975 529.506 368.373 531.683 368.039 535.544C367.822 538.049 366.413 548.699 366.413 548.699C366.96 550.491 367.251 552.35 367.277 554.223C367.15 556.447 366.856 558.658 366.397 560.838L365.561 566.886C365.561 566.886 364.443 567.691 363.649 567.119L363.749 561.204C363.654 559.758 363.511 557.623 363.416 556.257C363.267 554.038 362.886 550.511 362.754 549.626C362.621 548.742 362.356 547.206 362.224 545.479C362.092 543.753 361.44 534.993 361.44 534.993L361.35 536.635C361.35 536.635 361.26 539.283 360.879 542.588C360.497 545.892 360.349 547.354 360.349 547.354C360.711 548.016 360.965 548.731 361.101 549.473C361.17 550.182 361.98 555.828 361.493 558.667L360.508 565.917C360.26 566.088 359.974 566.198 359.675 566.238C359.376 566.277 359.071 566.245 358.787 566.145L358.199 558.815C357.807 556.024 356.976 550.113 356.848 549.345C356.566 547.798 356.399 546.231 356.351 544.658C356.155 541.486 356.229 534.58 356.547 532.075Z" fill="#FFCEA9"/>
<path d="M364.779 525.29L366.934 529.622C366.934 529.622 370.229 534.442 366.818 546.824L367.459 550.643C367.459 550.643 361.003 554.79 356.681 550.643C356.681 550.643 355.182 539.198 355.982 533.923C356.423 530.887 357.095 527.889 357.995 524.957C357.995 524.957 359.054 526.127 364.493 525.354" fill="#F9A72E"/>
<path d="M368.652 519.338C368.652 519.338 367.153 520.831 365.374 520.646L364.521 517.722C364.521 517.722 363.991 516.202 365.263 515.535C366.534 514.868 367.905 516.361 368.652 519.338Z" fill="#EDEDED"/>
<path d="M359.736 513.972C359.736 513.972 358.02 513.443 356.204 517.25L356.881 517.658C357.732 516.355 358.687 515.122 359.736 513.972Z" fill="#EDEDED"/>
<path opacity="0.4" d="M314.571 602.962C321.913 602.962 327.866 599.525 327.866 595.286C327.866 591.047 321.913 587.61 314.571 587.61C307.228 587.61 301.275 591.047 301.275 595.286C301.275 599.525 307.228 602.962 314.571 602.962Z" fill="#D6D8E5"/>
<path d="M308.307 593.358C309.215 594.096 310.551 593.422 310.616 593.493C311.682 594.477 312.799 595.406 313.961 596.276C314.547 596.721 315.409 597.313 315.245 598.169C314.963 599.692 312.52 599.223 311.594 598.755C310.668 598.286 309.918 597.518 309.045 596.997C308.424 596.61 307.815 596.411 307.715 595.626C307.633 595.128 308.125 593.34 308.307 593.358Z" fill="#2B2A30"/>
<path d="M307.724 595.286C307.847 596.036 308.451 596.247 309.066 596.627C309.956 597.178 310.736 597.975 311.656 598.438C312.576 598.901 314.632 599.299 315.23 598.21C314.908 599.68 312.505 599.217 311.591 598.754C310.677 598.292 309.915 597.518 309.042 596.997C308.421 596.61 307.812 596.411 307.712 595.625C307.707 595.512 307.711 595.398 307.724 595.286Z" fill="#BF4B4B"/>
<path d="M316.147 590.434C317.055 591.172 318.637 590.369 318.708 590.434C319.649 591.391 320.645 592.292 321.69 593.135C322.276 593.575 323.137 594.172 322.979 595.028C322.692 596.551 320.249 596.082 319.329 595.614C318.409 595.145 317.653 594.371 316.78 593.856C316.159 593.469 315.544 593.27 315.45 592.485C315.391 591.987 315.989 590.416 316.147 590.434Z" fill="#2B2A30"/>
<path d="M315.471 592.25C315.594 593 316.198 593.211 316.813 593.592C317.704 594.143 318.483 594.939 319.403 595.408C320.323 595.877 322.38 596.264 322.977 595.174C322.655 596.645 320.253 596.188 319.339 595.725C318.424 595.262 317.669 594.482 316.796 593.938C316.169 593.551 315.559 593.352 315.46 592.566C315.456 592.461 315.459 592.355 315.471 592.25Z" fill="#BF4B4B"/>
<path d="M308.232 559.912C308.279 561.283 308.701 567.237 308.894 570.383C309.087 573.53 309.128 577.414 309.128 577.414C309.128 577.414 308.584 579.706 308.232 582.407C307.88 585.108 308.232 593.616 308.232 593.616C308.581 593.843 308.988 593.963 309.404 593.963C309.82 593.963 310.227 593.843 310.576 593.616C310.576 593.616 312.029 586.801 312.697 583.731C313.365 580.661 313.488 578.891 313.834 576.993C314.255 574.69 315.164 563.949 315.164 563.949H315.527L316.5 576.073C316.199 576.967 315.993 577.89 315.884 578.827C315.621 580.801 316.166 590.739 316.166 590.739C316.553 590.954 316.992 591.058 317.434 591.04C317.877 591.021 318.306 590.881 318.674 590.634C318.674 590.634 321.094 577.473 321.094 575.475C321.094 574.145 320.871 556.684 320.871 556.684L308.232 559.912Z" fill="#4696F5"/>
<path d="M311.517 533.433C311.517 533.433 311.669 536.421 311.605 536.685C311.54 536.948 310.234 537.821 309.847 538.138C309.46 538.454 311.915 540.845 313.105 541.431C314.294 542.017 318.062 540.54 318.126 538.689C318.191 536.837 317.482 535.284 316.908 535.202C316.333 535.12 311.517 533.433 311.517 533.433Z" fill="#FFCEA9"/>
<path d="M319.698 538.976C319.874 537.657 319.007 536.403 319.845 535.354C322.774 538.249 322.423 545.902 323.091 550.794C325.282 553.079 329.683 555.335 330.919 555.892C331.142 555.997 331.341 556.109 331.294 556.349C331.128 557.164 330.777 557.93 330.269 558.587C327.339 557.333 325.259 556.613 321.62 553.156C321.275 552.782 320.967 552.375 320.7 551.943C319.663 548.825 319.399 541.249 319.698 538.976Z" fill="#FFCEA9"/>
<path d="M311.183 537.201C311.183 537.201 313.351 540.429 316.375 540.716C317.33 539.779 317.412 536.433 316.094 535.361C316.094 535.361 317.306 534.382 318.139 534.57C319.04 535.113 319.711 535.968 320.025 536.972C320.792 539.195 321.153 541.536 321.092 543.886C321.039 547.056 321.092 556.742 321.092 556.742C321.092 556.742 320.67 558.787 317.933 560.311C315.197 561.834 313.164 561.986 311.306 561.553C309.777 561.195 308.511 560.656 307.984 559.549C308.125 557.322 309.115 551.527 308.746 548.732C308.377 545.937 307.785 543.857 307.632 541.595C307.48 539.334 307.925 539.38 309.062 538.578C309.735 538.068 310.444 537.607 311.183 537.201Z" fill="#F4F4F4"/>
<path d="M318.268 528.98C317.91 526.636 316.241 524.878 313.844 525.036C312.883 525.087 311.961 525.438 311.21 526.041C310.459 526.643 309.916 527.466 309.657 528.393C309.398 529.32 309.436 530.305 309.767 531.21C310.098 532.114 310.704 532.891 311.5 533.433C311.583 533.784 311.707 534.124 311.869 534.447C312.713 535.437 315.274 536.046 316.006 535.941C316.444 535.906 316.861 535.741 317.204 535.466C317.547 535.191 317.799 534.82 317.928 534.4C318.725 532.56 318.473 530.122 318.268 528.98Z" fill="#FFCEA9"/>
<path d="M311.518 533.433L311.735 531.406C311.735 531.406 310.065 527.128 313.991 527.954C316.569 528.499 317.213 528.734 317.999 527.005C318.784 525.276 316.018 523.718 312.725 524.151C311.594 524.27 310.548 524.809 309.795 525.662C309.042 526.515 308.636 527.619 308.659 528.757C308.752 530.023 309.092 532.601 311.518 533.433Z" fill="#2B2A30"/>
<path d="M306.94 540.259C308.07 539.937 307.209 540.201 308.07 539.937C311 542.826 310.654 547.783 311.322 552.676C312.951 555.377 318.993 559.01 318.993 559.01C319.069 559.531 318.887 559.684 318.231 560.768C314.868 559.478 311.809 557.505 309.248 554.972C309.102 554.838 308.891 554.797 308.832 554.615C307.795 551.474 306.641 542.539 306.94 540.259Z" fill="#FFCEA9"/>
<path d="M333.827 546.3L329.439 561.312L319.8 565.162L323.316 550.536L333.827 546.3Z" fill="#F4F4F4"/>
<path d="M317.476 559.133C317.616 558.617 317.985 558.746 318.407 558.875C318.859 559.058 319.355 559.101 319.831 558.998C320.202 558.816 320.545 558.584 320.851 558.307C321.045 558.189 321.268 558.126 321.495 558.125C321.495 558.254 321.273 559.016 321.273 559.016C321.273 559.016 323.388 559.016 323.616 559.016C323.689 559.002 323.764 559.012 323.832 559.043C323.899 559.075 323.954 559.126 323.991 559.19C324.028 559.255 324.043 559.329 324.036 559.402C324.029 559.476 323.999 559.546 323.95 559.602H324.097C324.525 559.508 324.683 560.188 324.279 560.27L323.927 560.322C324.208 560.434 324.279 560.908 323.927 560.967H323.816C323.765 560.975 323.714 560.975 323.663 560.967H323.54C323.551 561.017 323.552 561.069 323.541 561.119C323.531 561.17 323.51 561.218 323.481 561.26C323.451 561.301 323.413 561.337 323.368 561.363C323.324 561.389 323.275 561.406 323.224 561.412C322.193 561.547 320.675 561.957 319.743 561.107C319.096 561.046 318.464 560.875 317.874 560.604C317.317 560.322 317.3 559.742 317.476 559.133Z" fill="#FFCEA9"/>
<path d="M328.013 557.902H328.159C328.098 557.858 328.052 557.797 328.029 557.726C328.005 557.655 328.004 557.578 328.027 557.507C328.05 557.436 328.095 557.374 328.156 557.33C328.216 557.286 328.289 557.263 328.364 557.263C328.581 557.263 330.754 556.806 330.754 556.806L331.018 555.916C331.018 555.863 331.393 556.091 331.405 556.103C331.589 556.222 331.745 556.381 331.858 556.569C331.972 556.757 332.041 556.968 332.061 557.187C332.072 557.495 332.022 557.801 331.915 558.09C331.807 558.378 331.644 558.643 331.434 558.868C331.048 559.251 330.531 559.473 329.987 559.489C329.723 559.489 329.471 559.519 329.243 559.542C329.192 559.545 329.14 559.538 329.091 559.521C329.043 559.503 328.998 559.476 328.961 559.441C328.923 559.406 328.892 559.364 328.872 559.317C328.851 559.269 328.839 559.219 328.839 559.167H328.768C328.719 559.181 328.666 559.181 328.616 559.167H328.505C328.136 559.167 328.106 558.71 328.358 558.546H328.001C327.532 558.587 327.573 557.896 328.013 557.902Z" fill="#FFCEA9"/>
<path d="M320.929 540.933C321.523 540.906 322.084 540.655 322.5 540.23C322.418 539.116 321 534.903 318.14 534.587C318.907 535.137 319.513 535.881 319.898 536.743C320.347 538.112 320.692 539.512 320.929 540.933Z" fill="#EDEDED"/>
<path d="M306.426 546.499C306.426 546.499 309.268 547.484 311.272 545.831C311.494 545.456 310.1 540.616 310.1 540.616C310.1 540.616 308.928 538.144 307.041 539.128C305.154 540.112 306.426 546.499 306.426 546.499Z" fill="#EDEDED"/>
<path opacity="0.4" d="M361.4 631.223C367.817 631.223 373.019 628.22 373.019 624.515C373.019 620.81 367.817 617.807 361.4 617.807C354.983 617.807 349.781 620.81 349.781 624.515C349.781 628.22 354.983 631.223 361.4 631.223Z" fill="#D6D8E5"/>
<path d="M368.099 572.964C369.123 573.256 369.696 574.377 370.587 576.779C371.329 578.958 371.691 581.247 371.658 583.549C371.371 585.812 370.434 587.574 368.17 589.407L367.09 587.425C367.09 587.425 369.307 585.469 369.532 583.206C369.661 581.936 368.17 577.655 368.17 577.537C368.17 577.419 368.099 572.964 368.099 572.964Z" fill="#FFCEA9"/>
<path d="M359.239 625.125C358.898 625.229 358.539 625.258 358.185 625.21C357.832 625.163 357.493 625.039 357.191 624.849C356.638 624.849 353.386 623.574 352.977 624.654C352.618 625.602 353.924 626.482 354.615 626.651C356.152 627.015 357.258 627.773 357.872 627.901C358.105 627.983 358.353 628.009 358.598 627.975C358.842 627.941 359.074 627.849 359.275 627.706C359.7 627.276 359.664 625.689 359.239 625.125Z" fill="#38226D"/>
<path d="M357.861 627.64C357.246 627.511 356.125 626.754 354.604 626.385C354.025 626.247 353.016 625.607 352.919 624.849C352.781 625.719 353.943 626.492 354.604 626.651C356.14 627.015 357.246 627.773 357.861 627.901C358.093 627.983 358.342 628.009 358.586 627.975C358.83 627.941 359.063 627.849 359.264 627.706C359.356 627.601 359.424 627.477 359.463 627.343C359.238 627.513 358.975 627.629 358.697 627.68C358.419 627.732 358.133 627.718 357.861 627.64Z" fill="#9C73FF"/>
<path d="M367.491 620.834C367.193 620.936 366.875 620.965 366.564 620.918C366.253 620.87 365.958 620.748 365.704 620.562C365.192 620.562 361.848 619.344 361.453 620.383C361.11 621.295 362.365 622.134 363.031 622.298C364.495 622.652 365.591 623.384 366.165 623.507C366.389 623.586 366.628 623.61 366.864 623.577C367.099 623.544 367.323 623.455 367.516 623.317C367.936 622.903 367.901 621.377 367.491 620.834Z" fill="#38226D"/>
<path d="M366.166 623.255C365.577 623.127 364.497 622.4 363.032 622.047C362.474 621.908 361.496 621.294 361.409 620.562C361.281 621.401 362.433 622.149 363.032 622.298C364.497 622.651 365.593 623.383 366.166 623.506C366.39 623.585 366.63 623.609 366.865 623.576C367.1 623.543 367.324 623.454 367.518 623.317C367.608 623.215 367.673 623.094 367.707 622.963C367.491 623.129 367.239 623.242 366.971 623.293C366.704 623.343 366.428 623.33 366.166 623.255Z" fill="#9C73FF"/>
<path d="M368.586 612.584C368.587 611.336 368.372 610.097 367.951 608.922C367.951 608.922 368.371 603.909 368.693 600.616C369.164 595.762 369.912 595.28 369.717 592.331C369.523 589.596 367.966 587.824 367.562 585.971L359.64 586.595C359.64 586.595 358.948 588.844 358.057 593.319C357.166 597.795 357.105 603.115 357.176 610.162C357.176 611.98 356.869 613.557 356.972 618.084C357.043 621.125 357.217 624.853 357.217 624.853C358.375 625.847 359.179 625.115 359.179 625.115C359.179 625.115 361.227 616.102 361.509 614.033C361.724 612.889 361.628 611.707 361.232 610.612C361.232 610.612 361.826 607.78 362.256 605.553C362.768 602.834 364.125 596.965 364.125 596.965C364.125 596.965 363.895 605.983 364.289 607.76C364.684 609.537 364.75 611.083 365.088 613.5C365.493 616.419 365.677 620.695 365.677 620.695C366.886 621.463 367.423 620.875 367.423 620.875C367.423 620.875 368.586 615.139 368.586 612.584Z" fill="#FFCEA9"/>
<path d="M367.542 585.971C368.371 586.821 369.744 589.407 369.744 593.319C369.744 597.723 369.103 596.832 368.796 601.682L368.489 606.531C368.489 606.531 361.868 609.691 357.146 606.761C356.726 605.845 357.305 595.644 358.135 592.018C358.964 588.393 359.533 586.616 359.533 586.616C359.533 586.616 365.621 588.26 367.542 585.971Z" fill="#8C50FF"/>
<path d="M367.638 572.918C365.948 572.815 365.784 573.097 365.651 572.498C365.605 572.283 365.507 570.798 365.507 570.798C365.663 570.599 365.805 570.391 365.932 570.173C366.5 569.831 366.98 569.362 367.335 568.803C367.69 568.244 367.911 567.61 367.981 566.952C368.1 565.808 367.76 564.664 367.036 563.771C366.312 562.879 365.263 562.309 364.12 562.189C361.882 561.959 360.233 563.531 359.793 565.692C359.557 566.757 359.311 568.934 359.977 570.68C360.351 571.668 360.699 572.359 361.59 572.324C361.887 572.297 362.182 572.246 362.471 572.17C362.519 572.58 362.536 572.992 362.522 573.404C362.522 573.839 362.573 574.054 361.723 574.577C360.873 575.099 363.003 576.164 364.391 576.062C365.779 575.959 367.336 575.12 367.766 574.223C368.237 573.22 368.431 572.964 367.638 572.918Z" fill="#FFCEA9"/>
<path d="M368.88 580.399C368.88 580.399 370.79 579.969 371.666 579.119C371.666 579.119 370.529 575.535 369.802 574.644C369.075 573.753 368.368 579.503 368.368 579.503L368.88 580.399Z" fill="#EDEDED"/>
<path d="M365.956 572.882C366.269 573.271 366.305 573.757 365.101 574.064C364.226 574.313 363.29 574.241 362.464 573.86C361.516 574.261 360.604 574.744 359.74 575.304C358.716 578.683 359.54 579.119 359.11 581.541C359.279 582.76 359.479 585.904 359.53 586.616C361.829 588.224 366.494 587.676 367.539 585.97C367.558 585.403 367.611 584.837 367.698 584.275C368.793 580.21 369.649 579.155 369.346 576.082C369.172 574.331 369.034 573.45 368.102 572.979C367.394 572.853 366.673 572.82 365.956 572.882Z" fill="#F4F4F4"/>
<path d="M344.848 586.104C345.37 586.216 345.883 586.363 346.385 586.545C346.855 586.792 347.361 586.965 347.885 587.057C348.448 587.144 349.329 586.852 350.85 586.135C352.515 585.281 354.022 584.148 355.305 582.786C356.763 581.051 358.065 579.192 359.197 577.23C359.858 576.026 360.692 575.724 361.42 575.96C362.29 576.246 362.398 577.112 361.42 578.73C360.171 580.844 358.675 582.802 356.964 584.563C355.615 585.912 354.044 587.021 352.32 587.84C351.09 588.48 349.774 588.937 348.413 589.197C347.936 589.3 347.614 589.499 346.733 589.807C345.857 590.125 344.917 590.229 343.993 590.109C343.23 589.96 342.969 589.786 342.938 589.597C342.908 589.407 343.061 589.274 343.42 589.3C343.984 589.389 344.56 589.375 345.12 589.259C345.12 589.259 344.331 589.233 343.865 589.177C343.447 589.131 343.036 589.028 342.646 588.869C342.273 588.711 342.134 588.122 342.513 588.142C342.892 588.163 343.148 588.275 343.845 588.347C344.212 588.391 344.583 588.391 344.951 588.347C344.49 588.271 344.036 588.158 343.594 588.009C343.227 587.912 342.898 587.709 342.646 587.425C342.518 587.277 342.554 586.913 343 587.005C343.536 587.192 344.093 587.314 344.659 587.369C345.227 587.369 345.632 587.323 345.56 587.236C345.488 587.149 345.151 587.159 344.72 586.918C344.29 586.678 344.034 586.212 344.208 585.986C344.382 585.761 344.382 585.93 344.848 586.104Z" fill="#FFCEA9"/>
<path d="M360.501 580.686C359.17 580.493 357.94 579.869 356.998 578.909L359.118 575.97C359.118 575.97 360.311 574.464 361.888 575.314C361.888 575.314 363.077 575.442 361.888 577.931C361.484 578.878 361.021 579.798 360.501 580.686Z" fill="#EDEDED"/>
<path d="M359.381 564.417C359.465 563.912 359.744 563.46 360.157 563.157C360.571 562.855 361.086 562.726 361.593 562.799C362.334 562.302 363.227 562.086 364.113 562.189C366.125 562.399 367.441 563.726 368.051 565.723C368.349 566.725 368.548 567.754 368.645 568.795C369.249 573.276 370.877 576.83 369.356 578.161C367.836 579.493 363.667 580.338 361.926 579.503C360.185 578.668 363.36 570.946 359.914 566.655C359.104 565.636 359.028 564.924 359.381 564.417Z" fill="#3A2C6D"/>
<path d="M410.29 595.861C409.384 596.598 408.045 595.921 407.977 595.989C406.912 596.98 405.793 597.911 404.626 598.779C404.06 599.226 403.193 599.821 403.337 600.676C403.623 602.209 406.072 601.75 406.996 601.267C407.92 600.784 408.675 600.025 409.549 599.477C410.172 599.09 410.788 598.89 410.884 598.102C410.941 597.629 410.451 595.839 410.29 595.861Z" fill="#38226D"/>
<path d="M410.875 597.787C410.753 598.543 410.159 598.75 409.528 599.133C408.64 599.688 407.856 600.483 406.933 600.952C406.08 601.382 403.95 601.812 403.352 600.72C403.678 602.195 406.084 601.733 406.997 601.267C407.91 600.802 408.676 600.025 409.55 599.477C410.173 599.09 410.789 598.89 410.885 598.102C410.893 597.997 410.89 597.891 410.875 597.787Z" fill="#9C73FF"/>
<path d="M402.414 592.928C401.505 593.669 399.908 592.86 399.85 592.928C398.906 593.887 397.907 594.789 396.857 595.631C396.291 596.079 395.407 596.673 395.568 597.529C395.851 599.058 398.304 598.603 399.227 598.12C400.151 597.636 400.903 596.877 401.78 596.329C402.403 595.943 403.016 595.742 403.112 594.954C403.173 594.482 402.575 592.91 402.414 592.928Z" fill="#38226D"/>
<path d="M403.088 594.747C402.966 595.503 402.371 595.71 401.741 596.093C400.853 596.648 400.069 597.443 399.145 597.912C398.293 598.342 396.163 598.772 395.565 597.679C395.891 599.155 398.297 598.693 399.21 598.227C400.123 597.762 400.889 596.985 401.763 596.437C402.386 596.05 403.002 595.85 403.098 595.062C403.106 594.957 403.103 594.851 403.088 594.747Z" fill="#9C73FF"/>
<path d="M410.343 562.344C410.3 563.715 409.87 569.68 409.68 572.835C409.491 575.989 409.448 579.86 409.448 579.86C409.448 579.86 409.992 582.158 410.343 584.872C410.694 587.586 410.343 596.104 410.343 596.104C409.996 596.327 409.593 596.446 409.181 596.446C408.769 596.446 408.366 596.327 408.019 596.104C408.019 596.104 406.565 589.276 405.892 586.201C405.219 583.125 405.101 581.353 404.754 579.444C404.331 577.139 403.422 566.376 403.422 566.376L403.064 566.397L402.09 578.546C402.391 579.441 402.597 580.365 402.706 581.303C402.967 583.283 402.426 593.24 402.426 593.24C402.039 593.454 401.601 593.558 401.159 593.539C400.717 593.521 400.288 593.381 399.92 593.136C399.92 593.136 397.496 579.949 397.496 577.941C397.496 576.616 397.722 559.111 397.722 559.111L410.343 562.344Z" fill="#DD7A7A"/>
<path d="M399.849 563.268C399.455 562.931 399.208 562.509 398.61 562.079C398.087 561.7 397.704 561.51 397.389 561.005C397.074 560.5 397.092 558.534 396.97 556.766C396.823 554.682 397.206 551.943 397.596 550.84C398.391 548.602 398.144 544.861 398.671 543.597C399.197 542.333 400.747 542.608 400.253 541.971C399.677 541.219 397.428 540.75 396.436 542.469C395.445 544.187 395.466 547.961 394.761 550.579C394.403 551.842 394.367 553.178 394.542 555.856C394.664 557.729 394.696 559.562 395.237 561.359C395.384 561.85 395.369 562.387 395.538 563.354C395.706 564.32 395.942 565.477 396.472 566.104C397.002 566.73 397.296 566.87 397.468 566.82C397.639 566.769 397.7 566.537 397.489 566.225C397.121 565.752 396.84 565.217 396.658 564.646C396.658 564.646 397.084 565.362 397.375 565.756C397.634 566.114 397.94 566.435 398.284 566.712C398.621 566.974 399.226 566.784 399.022 566.462C398.817 566.139 398.574 565.946 398.148 565.348C397.922 565.03 397.735 564.686 397.589 564.324C397.896 564.708 398.233 565.067 398.595 565.398C398.874 565.682 399.228 565.878 399.616 565.964C399.816 566.007 400.128 565.788 399.824 565.423C399.519 565.058 399.061 564.8 398.635 564.091C398.323 563.579 398.177 563.171 398.295 563.193C398.413 563.214 398.574 563.529 399.011 563.801C399.448 564.073 400.013 564.066 400.139 563.801C400.264 563.536 400.246 563.604 399.849 563.268Z" fill="#FFCEA9"/>
<path d="M407.05 535.805C407.05 535.805 406.896 538.798 406.96 539.063C407.024 539.328 408.335 540.206 408.718 540.521C409.101 540.836 406.645 543.253 405.456 543.8C404.267 544.348 400.487 542.905 400.422 541.051C400.358 539.196 401.067 537.642 401.647 537.56C402.227 537.477 407.05 535.805 407.05 535.805Z" fill="#FFCEA9"/>
<path d="M407.386 539.583C407.386 539.583 405.216 542.805 402.183 543.124C401.227 542.182 401.141 538.827 402.463 537.753C402.463 537.753 401.249 536.772 400.415 536.962C399.522 537.504 398.858 538.353 398.546 539.35C397.772 541.577 397.408 543.925 397.471 546.282C397.522 549.458 397.471 559.172 397.471 559.172C397.471 559.172 397.898 561.223 400.64 562.752C403.383 564.281 405.417 564.428 407.275 563.994C408.811 563.636 410.078 563.096 410.608 561.982C410.469 559.755 409.477 553.948 409.846 551.148C410.214 548.348 410.809 546.257 410.963 543.987C411.117 541.717 410.666 541.77 409.531 540.965C408.85 540.452 408.134 539.99 407.386 539.583Z" fill="#EDEDED"/>
<path d="M405.566 564.75C406.053 564.467 406.397 564.062 407.116 563.719C407.75 563.414 408.19 563.285 408.627 562.798C409.064 562.311 409.612 560.335 410.081 558.473C410.533 556.377 410.624 554.219 410.349 552.093C409.927 549.551 408.767 546.035 408.434 544.574C408.101 543.113 408.538 542.497 409.186 541.91C409.945 541.219 411.076 541.426 411.807 543.449C412.76 546.252 413.401 549.152 413.715 552.096C413.886 554.286 413.694 556.489 413.146 558.616C412.659 560.593 411.946 562.039 411.026 563.855C410.776 564.349 410.715 564.778 410.346 565.777C409.995 566.78 409.407 567.683 408.631 568.409C407.943 568.978 407.607 569.071 407.431 568.985C407.256 568.899 407.238 568.627 407.524 568.344C408.009 567.911 408.412 567.393 408.713 566.816C408.713 566.816 408.122 567.492 407.736 567.865C407.391 568.198 407.003 568.483 406.583 568.713C406.171 568.928 405.562 568.609 405.842 568.305C406.121 568.001 406.418 567.843 406.987 567.281C407.289 566.985 407.555 566.655 407.779 566.296C407.377 566.649 406.949 566.968 406.497 567.252C406.146 567.501 405.731 567.642 405.301 567.661C405.079 567.661 404.789 567.374 405.183 567.045C405.577 566.715 406.117 566.522 406.708 565.849C407.138 565.358 407.374 564.954 407.242 564.954C407.109 564.954 406.884 565.258 406.35 565.466C405.817 565.673 405.233 565.559 405.143 565.265C405.054 564.972 405.079 565.036 405.566 564.75Z" fill="#FFCEA9"/>
<path d="M400.275 531.345C400.633 529.021 402.308 527.259 404.704 527.406C405.667 527.456 406.591 527.808 407.345 528.411C408.098 529.015 408.643 529.839 408.902 530.769C409.162 531.698 409.123 532.686 408.791 533.592C408.459 534.499 407.851 535.278 407.052 535.82C406.972 536.171 406.851 536.513 406.694 536.837C405.849 537.829 403.286 538.441 402.548 538.334C401.603 538.198 401.091 537.804 400.64 536.773C399.82 534.932 400.081 532.494 400.275 531.345Z" fill="#FFCEA9"/>
<path d="M407.05 535.805L406.828 533.779C406.828 533.779 408.486 529.482 404.572 530.313C401.987 530.857 401.35 531.09 400.555 529.357C399.76 527.624 402.539 526.066 405.833 526.492C406.967 526.612 408.014 527.152 408.769 528.006C409.523 528.861 409.93 529.968 409.907 531.108C409.818 532.389 409.485 534.971 407.05 535.805Z" fill="#3A4151"/>
<path d="M413.753 547.442C413.753 547.442 411.605 549.569 409.099 548.957C408.741 548.71 407.867 543.744 407.867 543.744C407.867 543.744 407.867 540.994 409.98 541.065C412.092 541.137 413.753 547.442 413.753 547.442Z" fill="#D5D7E2"/>
<path d="M397.62 543.325C397.62 543.325 396.502 543.267 396.041 542.608C396.126 541.499 397.551 537.274 400.412 536.958C399.634 537.502 399.016 538.244 398.622 539.107C398.103 540.399 397.62 543.325 397.62 543.325Z" fill="#D5D7E2"/>
<path d="M400.702 554.492C400.683 554.554 400.68 554.62 400.695 554.683C400.711 554.746 400.743 554.804 400.788 554.85C400.829 554.875 400.877 554.889 400.926 554.889C400.974 554.889 401.022 554.875 401.064 554.85C401.144 554.798 401.214 554.733 401.271 554.657C401.379 554.535 401.472 554.4 401.547 554.256C401.665 554.005 401.647 553.486 401.25 553.583C400.852 553.679 400.756 554.188 400.702 554.492Z" fill="#FFCEA9"/>
<g opacity="0.6">
<rect width="93.7527" height="93.7527" rx="8" transform="matrix(0.866025 -0.5 0.866025 0.5 281.547 258.541)" fill="#6D6D6D"/>
<path fill-rule="evenodd" clip-rule="evenodd" d="M288.475 254.541C284.649 256.75 284.649 260.332 288.475 262.541L355.878 301.456C359.704 303.665 365.908 303.665 369.734 301.456L437.137 262.541C440.963 260.332 440.963 256.75 437.137 254.541L418.877 243.999L436.042 241.115C440.399 240.384 440.399 239.197 436.042 238.465L398.319 232.129L369.734 215.626C365.908 213.417 359.704 213.417 355.878 215.626L327.348 232.098L289.437 238.465C285.079 239.197 285.079 240.384 289.437 241.115L306.705 244.016L288.475 254.541Z" fill="#DEE8F3"/>
<rect width="93.684" height="93.684" rx="8" transform="matrix(0.866025 -0.5 0.866025 0.5 281.547 239.79)" fill="white"/>
<path fill-rule="evenodd" clip-rule="evenodd" d="M411.334 0H314.427V186.892H314.713L314.184 187.195L362.64 214.884L411.096 187.195L410.566 186.892H411.334V0Z" fill="url(#paint2_linear_2_829)"/>
<path d="M411.096 187.194L362.64 159.505L314.184 187.194L362.64 214.883L411.096 187.194Z" fill="#154078"/>
<path d="M362.64 214.883L314.184 187.194V242.14L362.64 269.829V214.883Z" fill="#2E84F6"/>
<path d="M362.637 214.883L411.093 187.194V242.14L362.637 269.829V214.883Z" fill="#38E6E6"/>
<path d="M340.142 96.8338L327.163 89.417L314.184 96.8338L327.163 104.251L340.142 96.8338Z" fill="#154078"/>
<path d="M327.163 104.251L314.184 96.834V111.552L327.163 118.968V104.251Z" fill="#2E84F6"/>
<path d="M327.162 104.251L340.142 96.834V111.552L327.162 118.968V104.251Z" fill="#38E6E6"/>
<path d="M403.498 161.713L398.12 158.64L392.741 161.713L398.12 164.787L403.498 161.713Z" fill="#154078"/>
<path d="M398.12 164.787L392.741 161.713V167.812L398.12 170.885V164.787Z" fill="#2E84F6"/>
<path d="M398.124 164.787L403.502 161.713V167.812L398.124 170.885V164.787Z" fill="#38E6E6"/>
<path d="M371.291 137.626L362.638 132.682L353.985 137.626L362.638 142.571L371.291 137.626Z" fill="#154078"/>
<path d="M362.638 142.57L353.985 137.626V147.438L362.638 152.382V142.57Z" fill="#2E84F6"/>
<path d="M362.638 142.57L371.291 137.626V147.438L362.638 152.382V142.57Z" fill="#38E6E6"/>
<path d="M398.114 114.263L389.461 109.319L380.809 114.263L389.461 119.208L398.114 114.263Z" fill="#154078"/>
<path d="M389.461 119.208L380.809 114.263V124.075L389.461 129.019V119.208Z" fill="#2E84F6"/>
<path d="M389.461 119.208L398.114 114.263V124.075L389.461 129.019V119.208Z" fill="#38E6E6"/>
<path d="M353.986 158.91L340.142 150.999L326.297 158.91L340.142 166.821L353.986 158.91Z" fill="#154078"/>
<path d="M340.142 166.821L326.297 158.91V174.609L340.142 182.52V166.821Z" fill="#2E84F6"/>
<path d="M340.141 166.821L353.985 158.91V174.609L340.141 182.52V166.821Z" fill="#38E6E6"/>
</g>
<defs>
<linearGradient id="paint0_linear_2_829" x1="508.889" y1="602.764" x2="508.889" y2="445.04" gradientUnits="userSpaceOnUse">
<stop stop-color="#38E6E6"/>
<stop offset="1" stop-color="#2E84F6"/>
</linearGradient>
<linearGradient id="paint1_linear_2_829" x1="218.727" y1="600.867" x2="218.727" y2="443.143" gradientUnits="userSpaceOnUse">
<stop stop-color="#38E6E6"/>
<stop offset="1" stop-color="#2E84F6"/>
</linearGradient>
<linearGradient id="paint2_linear_2_829" x1="362.64" y1="33.1733" x2="362.64" y2="214.884" gradientUnits="userSpaceOnUse">
<stop stop-color="#154078"/>
<stop offset="1" stop-color="#38E6E6" stop-opacity="0.4"/>
</linearGradient>
</defs>
</svg>
