<svg width="157" height="70" viewBox="0 0 157 70" fill="none" xmlns="http://www.w3.org/2000/svg">
<g clip-path="url(#clip0_134_9203)">
<path d="M20.099 11.5264L13.3994 23.223H0L6.69968 11.5264H20.099Z" fill="#37E7E7"/>
<path d="M20.099 34.9198L13.3994 23.2231H0L6.69968 34.9198H20.099Z" fill="#154078"/>
<path d="M20.1007 34.9197L13.3994 23.223L20.1007 11.5264L26.8004 23.223L20.1007 34.9197Z" fill="#2E84F6"/>
<path d="M60.3008 11.5264L53.5995 23.223H40.2002L46.8999 11.5264H60.3008Z" fill="#37E7E7"/>
<path d="M60.3898 35.0001L53.6787 23.2329H40.2598L46.9692 35.0001H60.3898Z" fill="#154078"/>
<path d="M60.3009 34.9197L53.5996 23.223L60.3009 11.5264L67.0006 23.223L60.3009 34.9197Z" fill="#2E84F6"/>
<path d="M40.2003 0L33.5006 11.6967H20.0996L26.8009 0H40.2003Z" fill="#37E7E7"/>
<path d="M40.2003 23.3935L33.5006 11.6968H20.0996L26.8009 23.3935H40.2003Z" fill="#154078"/>
<path d="M40.1997 23.3934L33.5 11.6967L40.1997 0L46.8994 11.6967L40.1997 23.3934Z" fill="#2E84F6"/>
<path d="M20.099 34.8257L13.3994 46.5224H0L6.69968 34.8257H20.099Z" fill="#37E7E7"/>
<path d="M20.099 58.2191L13.3994 46.5225H0L6.69968 58.2191H20.099Z" fill="#154078"/>
<path d="M20.0991 58.219L13.3994 46.5224L20.0991 34.8257L26.8004 46.5224L20.0991 58.219Z" fill="#2E84F6"/>
<path d="M40.2003 23.2231L33.5006 34.9198H20.0996L26.8009 23.2231H40.2003Z" fill="#37E7E7"/>
<path d="M40.2003 46.615L33.5006 34.9199H20.0996L26.8009 46.615H40.2003Z" fill="#154078"/>
<path d="M40.1997 46.6149L33.5 34.9198L40.1997 23.2231L46.8994 34.9198L40.1997 46.6149Z" fill="#2E84F6"/>
<path d="M40.2003 46.6064L33.5006 58.3031H20.0996L26.8009 46.6064H40.2003Z" fill="#37E7E7"/>
<path d="M40.2003 69.9999L33.5006 58.3032H20.0996L26.8009 69.9999H40.2003Z" fill="#154078"/>
<path d="M40.1997 69.9998L33.5 58.3031L40.1997 46.6064L46.8994 58.3031L40.1997 69.9998Z" fill="#2E84F6"/>
<path d="M60.2999 35.0039L53.5986 46.7006H40.1992L46.8989 35.0039H60.2999Z" fill="#37E7E7"/>
<path d="M60.3008 58.3957L53.5995 46.7007H40.2002L46.8999 58.3957H60.3008Z" fill="#154078"/>
<path d="M60.3009 58.3956L53.5996 46.7006L60.3009 35.0039L67.0006 46.7006L60.3009 58.3956Z" fill="#2E84F6"/>
</g>
<path d="M90.5774 60.588V63H89.7089V56.5515H91.6124C92.0204 56.5515 92.3744 56.5995 92.6744 56.6955C92.9774 56.7885 93.2279 56.922 93.4259 57.096C93.6239 57.27 93.7709 57.48 93.8669 57.726C93.9659 57.972 94.0154 58.2465 94.0154 58.5495C94.0154 58.8495 93.9629 59.124 93.8579 59.373C93.7529 59.622 93.5984 59.8365 93.3944 60.0165C93.1934 60.1965 92.9429 60.3375 92.6429 60.4395C92.3429 60.5385 91.9994 60.588 91.6124 60.588H90.5774ZM90.5774 59.895H91.6124C91.8614 59.895 92.0804 59.862 92.2694 59.796C92.4614 59.73 92.6219 59.6385 92.7509 59.5215C92.8799 59.4015 92.9774 59.259 93.0434 59.094C93.1094 58.929 93.1424 58.7475 93.1424 58.5495C93.1424 58.1385 93.0149 57.8175 92.7599 57.5865C92.5079 57.3555 92.1254 57.24 91.6124 57.24H90.5774V59.895ZM96.4831 58.3695C96.8161 58.3695 97.1161 58.425 97.3831 58.536C97.6531 58.647 97.8811 58.8045 98.0671 59.0085C98.2561 59.2125 98.4001 59.46 98.4991 59.751C98.6011 60.039 98.6521 60.3615 98.6521 60.7185C98.6521 61.0785 98.6011 61.4025 98.4991 61.6905C98.4001 61.9785 98.2561 62.2245 98.0671 62.4285C97.8811 62.6325 97.6531 62.79 97.3831 62.901C97.1161 63.009 96.8161 63.063 96.4831 63.063C96.1501 63.063 95.8486 63.009 95.5786 62.901C95.3116 62.79 95.0836 62.6325 94.8946 62.4285C94.7056 62.2245 94.5601 61.9785 94.4581 61.6905C94.3561 61.4025 94.3051 61.0785 94.3051 60.7185C94.3051 60.3615 94.3561 60.039 94.4581 59.751C94.5601 59.46 94.7056 59.2125 94.8946 59.0085C95.0836 58.8045 95.3116 58.647 95.5786 58.536C95.8486 58.425 96.1501 58.3695 96.4831 58.3695ZM96.4831 62.4375C96.9331 62.4375 97.2691 62.2875 97.4911 61.9875C97.7131 61.6845 97.8241 61.263 97.8241 60.723C97.8241 60.18 97.7131 59.757 97.4911 59.454C97.2691 59.151 96.9331 58.9995 96.4831 58.9995C96.2551 58.9995 96.0571 59.0385 95.8891 59.1165C95.7211 59.1945 95.5801 59.307 95.4661 59.454C95.3551 59.601 95.2711 59.7825 95.2141 59.9985C95.1601 60.2115 95.1331 60.453 95.1331 60.723C95.1331 60.993 95.1601 61.2345 95.2141 61.4475C95.2711 61.6605 95.3551 61.8405 95.4661 61.9875C95.5801 62.1315 95.7211 62.2425 95.8891 62.3205C96.0571 62.3985 96.2551 62.4375 96.4831 62.4375ZM98.82 58.4415H99.45C99.516 58.4415 99.57 58.458 99.612 58.491C99.654 58.524 99.6825 58.563 99.6975 58.608L100.571 61.542C100.595 61.65 100.617 61.755 100.638 61.857C100.659 61.956 100.677 62.0565 100.692 62.1585C100.716 62.0565 100.743 61.956 100.773 61.857C100.803 61.755 100.835 61.65 100.868 61.542L101.831 58.59C101.846 58.545 101.871 58.5075 101.907 58.4775C101.946 58.4475 101.994 58.4325 102.051 58.4325H102.398C102.458 58.4325 102.507 58.4475 102.546 58.4775C102.585 58.5075 102.612 58.545 102.627 58.59L103.568 61.542C103.601 61.647 103.629 61.7505 103.653 61.8525C103.68 61.9545 103.706 62.055 103.73 62.154C103.745 62.055 103.764 61.9515 103.788 61.8435C103.812 61.7355 103.838 61.635 103.865 61.542L104.756 58.608C104.771 58.56 104.799 58.521 104.841 58.491C104.883 58.458 104.933 58.4415 104.99 58.4415H105.593L104.117 63H103.482C103.404 63 103.35 62.949 103.32 62.847L102.312 59.7555C102.288 59.6865 102.269 59.6175 102.254 59.5485C102.239 59.4765 102.224 59.406 102.209 59.337C102.194 59.406 102.179 59.4765 102.164 59.5485C102.149 59.6205 102.129 59.691 102.105 59.76L101.084 62.847C101.051 62.949 100.989 63 100.899 63H100.296L98.82 58.4415ZM107.884 58.3695C108.157 58.3695 108.409 58.416 108.64 58.509C108.871 58.599 109.071 58.731 109.239 58.905C109.407 59.076 109.537 59.289 109.63 59.544C109.726 59.796 109.774 60.084 109.774 60.408C109.774 60.534 109.761 60.618 109.734 60.66C109.707 60.702 109.656 60.723 109.581 60.723H106.548C106.554 61.011 106.593 61.2615 106.665 61.4745C106.737 61.6875 106.836 61.866 106.962 62.01C107.088 62.151 107.238 62.2575 107.412 62.3295C107.586 62.3985 107.781 62.433 107.997 62.433C108.198 62.433 108.37 62.4105 108.514 62.3655C108.661 62.3175 108.787 62.2665 108.892 62.2125C108.997 62.1585 109.084 62.109 109.153 62.064C109.225 62.016 109.287 61.992 109.338 61.992C109.404 61.992 109.455 62.0175 109.491 62.0685L109.716 62.361C109.617 62.481 109.498 62.586 109.36 62.676C109.222 62.763 109.074 62.835 108.915 62.892C108.759 62.949 108.597 62.991 108.429 63.018C108.261 63.048 108.094 63.063 107.929 63.063C107.614 63.063 107.323 63.0105 107.056 62.9055C106.792 62.7975 106.563 62.6415 106.368 62.4375C106.176 62.2305 106.026 61.9755 105.918 61.6725C105.81 61.3695 105.756 61.0215 105.756 60.6285C105.756 60.3105 105.804 60.0135 105.9 59.7375C105.999 59.4615 106.14 59.223 106.323 59.022C106.506 58.818 106.729 58.659 106.993 58.545C107.257 58.428 107.554 58.3695 107.884 58.3695ZM107.902 58.959C107.515 58.959 107.211 59.0715 106.989 59.2965C106.767 59.5185 106.629 59.8275 106.575 60.2235H109.054C109.054 60.0375 109.029 59.868 108.978 59.715C108.927 59.559 108.852 59.4255 108.753 59.3145C108.654 59.2005 108.532 59.1135 108.388 59.0535C108.247 58.9905 108.085 58.959 107.902 58.959ZM110.574 63V58.4415H111.033C111.12 58.4415 111.18 58.458 111.213 58.491C111.246 58.524 111.269 58.581 111.281 58.662L111.335 59.373C111.491 59.055 111.683 58.8075 111.911 58.6305C112.142 58.4505 112.412 58.3605 112.721 58.3605C112.847 58.3605 112.961 58.3755 113.063 58.4055C113.165 58.4325 113.259 58.4715 113.346 58.5225L113.243 59.121C113.222 59.196 113.175 59.2335 113.103 59.2335C113.061 59.2335 112.997 59.22 112.91 59.193C112.823 59.163 112.701 59.148 112.545 59.148C112.266 59.148 112.032 59.229 111.843 59.391C111.657 59.553 111.501 59.7885 111.375 60.0975V63H110.574ZM115.784 58.3695C116.057 58.3695 116.309 58.416 116.54 58.509C116.771 58.599 116.97 58.731 117.138 58.905C117.306 59.076 117.437 59.289 117.53 59.544C117.626 59.796 117.674 60.084 117.674 60.408C117.674 60.534 117.66 60.618 117.633 60.66C117.606 60.702 117.555 60.723 117.48 60.723H114.447C114.453 61.011 114.492 61.2615 114.564 61.4745C114.636 61.6875 114.735 61.866 114.861 62.01C114.987 62.151 115.137 62.2575 115.311 62.3295C115.485 62.3985 115.68 62.433 115.896 62.433C116.097 62.433 116.27 62.4105 116.414 62.3655C116.561 62.3175 116.687 62.2665 116.792 62.2125C116.897 62.1585 116.984 62.109 117.053 62.064C117.125 62.016 117.186 61.992 117.237 61.992C117.303 61.992 117.354 62.0175 117.39 62.0685L117.615 62.361C117.516 62.481 117.398 62.586 117.26 62.676C117.122 62.763 116.973 62.835 116.814 62.892C116.658 62.949 116.496 62.991 116.328 63.018C116.16 63.048 115.994 63.063 115.829 63.063C115.514 63.063 115.223 63.0105 114.956 62.9055C114.692 62.7975 114.462 62.6415 114.267 62.4375C114.075 62.2305 113.925 61.9755 113.817 61.6725C113.709 61.3695 113.655 61.0215 113.655 60.6285C113.655 60.3105 113.703 60.0135 113.799 59.7375C113.898 59.4615 114.039 59.223 114.222 59.022C114.405 58.818 114.629 58.659 114.893 58.545C115.157 58.428 115.454 58.3695 115.784 58.3695ZM115.802 58.959C115.415 58.959 115.11 59.0715 114.888 59.2965C114.666 59.5185 114.528 59.8275 114.474 60.2235H116.954C116.954 60.0375 116.928 59.868 116.877 59.715C116.826 59.559 116.751 59.4255 116.652 59.3145C116.553 59.2005 116.432 59.1135 116.288 59.0535C116.147 58.9905 115.985 58.959 115.802 58.959ZM121.682 63C121.568 63 121.496 62.9445 121.466 62.8335L121.394 62.28C121.199 62.517 120.976 62.7075 120.724 62.8515C120.475 62.9925 120.188 63.063 119.864 63.063C119.603 63.063 119.366 63.0135 119.153 62.9145C118.94 62.8125 118.759 62.664 118.609 62.469C118.459 62.274 118.343 62.031 118.262 61.74C118.181 61.449 118.141 61.1145 118.141 60.7365C118.141 60.4005 118.186 60.0885 118.276 59.8005C118.366 59.5095 118.495 59.2575 118.663 59.0445C118.834 58.8315 119.041 58.665 119.284 58.545C119.527 58.422 119.803 58.3605 120.112 58.3605C120.391 58.3605 120.629 58.4085 120.827 58.5045C121.025 58.5975 121.202 58.7295 121.358 58.9005V56.3715H122.159V63H121.682ZM120.13 62.415C120.391 62.415 120.619 62.355 120.814 62.235C121.012 62.115 121.193 61.9455 121.358 61.7265V59.5215C121.211 59.3235 121.049 59.1855 120.872 59.1075C120.698 59.0265 120.505 58.986 120.292 58.986C119.866 58.986 119.539 59.1375 119.311 59.4405C119.083 59.7435 118.969 60.1755 118.969 60.7365C118.969 61.0335 118.994 61.2885 119.045 61.5015C119.096 61.7115 119.171 61.8855 119.27 62.0235C119.369 62.1585 119.491 62.2575 119.635 62.3205C119.779 62.3835 119.944 62.415 120.13 62.415ZM124.819 63V56.3715H125.624V59.0985C125.813 58.8795 126.029 58.704 126.272 58.572C126.518 58.437 126.799 58.3695 127.114 58.3695C127.378 58.3695 127.616 58.419 127.829 58.518C128.042 58.617 128.224 58.7655 128.374 58.9635C128.524 59.1585 128.639 59.4015 128.72 59.6925C128.801 59.9805 128.842 60.3135 128.842 60.6915C128.842 61.0275 128.797 61.341 128.707 61.632C128.617 61.92 128.486 62.1705 128.315 62.3835C128.147 62.5935 127.94 62.76 127.694 62.883C127.451 63.003 127.177 63.063 126.871 63.063C126.577 63.063 126.326 63.006 126.119 62.892C125.915 62.778 125.737 62.619 125.584 62.415L125.543 62.829C125.519 62.943 125.45 63 125.336 63H124.819ZM126.853 59.0085C126.592 59.0085 126.362 59.0685 126.164 59.1885C125.969 59.3085 125.789 59.478 125.624 59.697V61.902C125.768 62.1 125.927 62.2395 126.101 62.3205C126.278 62.4015 126.475 62.442 126.691 62.442C127.117 62.442 127.444 62.2905 127.672 61.9875C127.9 61.6845 128.014 61.2525 128.014 60.6915C128.014 60.3945 127.987 60.1395 127.933 59.9265C127.882 59.7135 127.807 59.5395 127.708 59.4045C127.609 59.2665 127.487 59.166 127.343 59.103C127.199 59.04 127.036 59.0085 126.853 59.0085ZM130.816 64.3455C130.789 64.4055 130.755 64.4535 130.713 64.4895C130.674 64.5255 130.612 64.5435 130.528 64.5435H129.934L130.767 62.7345L128.886 58.4415H129.579C129.648 58.4415 129.702 58.4595 129.741 58.4955C129.78 58.5285 129.808 58.566 129.826 58.608L131.046 61.479C131.073 61.545 131.095 61.611 131.113 61.677C131.134 61.743 131.152 61.8105 131.167 61.8795C131.188 61.8105 131.209 61.743 131.23 61.677C131.251 61.611 131.275 61.5435 131.302 61.4745L132.486 58.608C132.504 58.56 132.534 58.521 132.576 58.491C132.621 58.458 132.669 58.4415 132.72 58.4415H133.359L130.816 64.3455ZM138.804 57.5595C138.777 57.6045 138.749 57.639 138.719 57.663C138.689 57.684 138.65 57.6945 138.602 57.6945C138.551 57.6945 138.491 57.669 138.422 57.618C138.356 57.567 138.27 57.5115 138.165 57.4515C138.063 57.3885 137.939 57.3315 137.792 57.2805C137.648 57.2295 137.472 57.204 137.265 57.204C137.07 57.204 136.898 57.231 136.748 57.285C136.598 57.336 136.472 57.4065 136.37 57.4965C136.271 57.5865 136.196 57.693 136.145 57.816C136.094 57.936 136.068 58.0665 136.068 58.2075C136.068 58.3875 136.112 58.5375 136.199 58.6575C136.289 58.7745 136.406 58.875 136.55 58.959C136.697 59.043 136.862 59.1165 137.045 59.1795C137.231 59.2395 137.42 59.3025 137.612 59.3685C137.807 59.4345 137.996 59.5095 138.179 59.5935C138.365 59.6745 138.53 59.778 138.674 59.904C138.821 60.03 138.938 60.1845 139.025 60.3675C139.115 60.5505 139.16 60.7755 139.16 61.0425C139.16 61.3245 139.112 61.59 139.016 61.839C138.92 62.085 138.779 62.2995 138.593 62.4825C138.41 62.6655 138.183 62.8095 137.913 62.9145C137.646 63.0195 137.342 63.072 137 63.072C136.583 63.072 136.202 62.997 135.857 62.847C135.515 62.694 135.222 62.4885 134.979 62.2305L135.231 61.8165C135.255 61.7835 135.284 61.7565 135.317 61.7355C135.353 61.7115 135.392 61.6995 135.434 61.6995C135.497 61.6995 135.569 61.734 135.65 61.803C135.731 61.869 135.831 61.9425 135.951 62.0235C136.074 62.1045 136.221 62.1795 136.392 62.2485C136.566 62.3145 136.778 62.3475 137.027 62.3475C137.234 62.3475 137.418 62.319 137.58 62.262C137.742 62.205 137.879 62.1255 137.99 62.0235C138.104 61.9185 138.191 61.794 138.251 61.65C138.311 61.506 138.341 61.3455 138.341 61.1685C138.341 60.9735 138.296 60.8145 138.206 60.6915C138.119 60.5655 138.003 60.4605 137.859 60.3765C137.715 60.2925 137.55 60.222 137.364 60.165C137.181 60.105 136.992 60.045 136.797 59.985C136.605 59.922 136.416 59.85 136.23 59.769C136.047 59.688 135.884 59.583 135.74 59.454C135.596 59.325 135.479 59.1645 135.389 58.9725C135.302 58.7775 135.258 58.5375 135.258 58.2525C135.258 58.0245 135.302 57.804 135.389 57.591C135.479 57.378 135.608 57.189 135.776 57.024C135.944 56.859 136.151 56.727 136.397 56.628C136.646 56.529 136.931 56.4795 137.252 56.4795C137.612 56.4795 137.94 56.5365 138.237 56.6505C138.534 56.7645 138.794 56.9295 139.016 57.1455L138.804 57.5595ZM145.354 63H144.679C144.601 63 144.538 62.9805 144.49 62.9415C144.442 62.9025 144.406 62.853 144.382 62.793L143.779 61.236H140.886L140.283 62.793C140.262 62.847 140.226 62.895 140.175 62.937C140.124 62.979 140.061 63 139.986 63H139.311L141.889 56.5515H142.776L145.354 63ZM141.129 60.606H143.536L142.524 57.9825C142.458 57.8205 142.393 57.618 142.33 57.375C142.297 57.498 142.264 57.612 142.231 57.717C142.201 57.819 142.171 57.909 142.141 57.987L141.129 60.606ZM148.623 62.3655C148.797 62.3655 148.956 62.358 149.1 62.343C149.247 62.325 149.385 62.2995 149.514 62.2665C149.643 62.2335 149.765 62.1945 149.879 62.1495C149.993 62.1015 150.107 62.0475 150.221 61.9875V60.5655H149.222C149.165 60.5655 149.118 60.549 149.082 60.516C149.049 60.483 149.033 60.4425 149.033 60.3945V59.8995H151.013V62.3745C150.851 62.4915 150.681 62.5935 150.504 62.6805C150.33 62.7675 150.143 62.841 149.942 62.901C149.744 62.958 149.531 63 149.303 63.027C149.075 63.057 148.827 63.072 148.56 63.072C148.092 63.072 147.663 62.9925 147.273 62.8335C146.883 62.6715 146.547 62.4465 146.265 62.1585C145.983 61.8675 145.763 61.5195 145.604 61.1145C145.448 60.7095 145.37 60.264 145.37 59.778C145.37 59.286 145.446 58.8375 145.599 58.4325C145.755 58.0275 145.976 57.681 146.261 57.393C146.549 57.102 146.895 56.877 147.3 56.718C147.708 56.559 148.164 56.4795 148.668 56.4795C148.923 56.4795 149.16 56.499 149.379 56.538C149.598 56.574 149.801 56.628 149.987 56.7C150.176 56.769 150.35 56.8545 150.509 56.9565C150.668 57.0555 150.816 57.168 150.954 57.294L150.707 57.69C150.656 57.771 150.59 57.8115 150.509 57.8115C150.461 57.8115 150.408 57.795 150.351 57.762C150.276 57.72 150.192 57.669 150.099 57.609C150.006 57.549 149.892 57.492 149.757 57.438C149.625 57.381 149.468 57.333 149.285 57.294C149.105 57.255 148.89 57.2355 148.641 57.2355C148.278 57.2355 147.95 57.2955 147.656 57.4155C147.362 57.5325 147.111 57.702 146.904 57.924C146.697 58.143 146.538 58.41 146.427 58.725C146.316 59.037 146.261 59.388 146.261 59.778C146.261 60.186 146.318 60.5505 146.432 60.8715C146.549 61.1895 146.712 61.4595 146.922 61.6815C147.132 61.9035 147.381 62.073 147.669 62.19C147.957 62.307 148.275 62.3655 148.623 62.3655ZM156.106 56.5515V57.2625H153.01V59.4045H155.516V60.0885H153.01V62.289H156.106V63H152.132V56.5515H156.106Z" fill="white"/>
<path d="M103.87 9.64V24H102.01V13.78C102.01 13.6267 102.013 13.4633 102.02 13.29C102.033 13.1167 102.047 12.94 102.06 12.76L97.28 21.53C97.1133 21.8567 96.8567 22.02 96.51 22.02H96.21C95.8633 22.02 95.61 21.8567 95.45 21.53L90.58 12.73C90.62 13.1033 90.64 13.4533 90.64 13.78V24H88.77V9.64H90.35C90.5367 9.64 90.68 9.66 90.78 9.7C90.8867 9.73333 90.9867 9.83333 91.08 10L95.88 18.6C95.9733 18.7733 96.06 18.9567 96.14 19.15C96.22 19.3433 96.2967 19.5367 96.37 19.73C96.51 19.3367 96.6733 18.9567 96.86 18.59L101.57 10C101.657 9.83333 101.75 9.73333 101.85 9.7C101.957 9.66 102.103 9.64 102.29 9.64H103.87ZM111.04 13.68C111.787 13.68 112.46 13.8033 113.06 14.05C113.667 14.29 114.18 14.64 114.6 15.1C115.027 15.5533 115.353 16.1033 115.58 16.75C115.807 17.39 115.92 18.11 115.92 18.91C115.92 19.71 115.807 20.4333 115.58 21.08C115.353 21.7267 115.027 22.2767 114.6 22.73C114.18 23.1833 113.667 23.5333 113.06 23.78C112.46 24.02 111.787 24.14 111.04 24.14C110.287 24.14 109.607 24.02 109 23.78C108.4 23.5333 107.887 23.1833 107.46 22.73C107.033 22.2767 106.703 21.7267 106.47 21.08C106.243 20.4333 106.13 19.71 106.13 18.91C106.13 18.11 106.243 17.39 106.47 16.75C106.703 16.1033 107.033 15.5533 107.46 15.1C107.887 14.64 108.4 14.29 109 14.05C109.607 13.8033 110.287 13.68 111.04 13.68ZM111.04 22.62C112 22.62 112.717 22.2967 113.19 21.65C113.663 21.0033 113.9 20.0933 113.9 18.92C113.9 17.7467 113.663 16.8367 113.19 16.19C112.717 15.5367 112 15.21 111.04 15.21C110.067 15.21 109.34 15.5367 108.86 16.19C108.387 16.8367 108.15 17.7467 108.15 18.92C108.15 20.0933 108.387 21.0033 108.86 21.65C109.34 22.2967 110.067 22.62 111.04 22.62ZM120.047 21.5C120.367 21.92 120.713 22.2133 121.087 22.38C121.46 22.5467 121.867 22.63 122.307 22.63C123.213 22.63 123.91 22.3067 124.397 21.66C124.89 21.0133 125.137 20.0367 125.137 18.73C125.137 17.5233 124.92 16.64 124.487 16.08C124.053 15.5133 123.44 15.23 122.647 15.23C122.087 15.23 121.6 15.3567 121.187 15.61C120.78 15.8633 120.4 16.2233 120.047 16.69V21.5ZM120.047 15.24C120.467 14.7733 120.943 14.3967 121.477 14.11C122.01 13.8233 122.617 13.68 123.297 13.68C123.89 13.68 124.423 13.7967 124.897 14.03C125.377 14.2567 125.783 14.5867 126.117 15.02C126.45 15.4467 126.707 15.9667 126.887 16.58C127.067 17.1933 127.157 17.8867 127.157 18.66C127.157 19.48 127.053 20.2267 126.847 20.9C126.647 21.5733 126.357 22.15 125.977 22.63C125.603 23.11 125.147 23.4833 124.607 23.75C124.067 24.01 123.46 24.14 122.787 24.14C122.46 24.14 122.16 24.1067 121.887 24.04C121.613 23.98 121.36 23.89 121.127 23.77C120.9 23.65 120.69 23.5033 120.497 23.33C120.303 23.1567 120.12 22.96 119.947 22.74L119.857 23.59C119.803 23.8633 119.637 24 119.357 24H118.097V9.24H120.047V15.24ZM131.367 13.84V24H129.417V13.84H131.367ZM131.737 10.7C131.737 10.88 131.7 11.0533 131.627 11.22C131.554 11.38 131.454 11.5233 131.327 11.65C131.207 11.77 131.064 11.8667 130.897 11.94C130.73 12.0067 130.557 12.04 130.377 12.04C130.197 12.04 130.027 12.0067 129.867 11.94C129.707 11.8667 129.564 11.77 129.437 11.65C129.317 11.5233 129.22 11.38 129.147 11.22C129.08 11.0533 129.047 10.88 129.047 10.7C129.047 10.5133 129.08 10.34 129.147 10.18C129.22 10.0133 129.317 9.87 129.437 9.75C129.564 9.62333 129.707 9.52667 129.867 9.46C130.027 9.38667 130.197 9.35 130.377 9.35C130.557 9.35 130.73 9.38667 130.897 9.46C131.064 9.52667 131.207 9.62333 131.327 9.75C131.454 9.87 131.554 10.0133 131.627 10.18C131.7 10.34 131.737 10.5133 131.737 10.7ZM136.19 9.24V24H134.23V9.24H136.19ZM145.705 17.79C145.705 17.4033 145.649 17.0467 145.535 16.72C145.429 16.3933 145.269 16.11 145.055 15.87C144.842 15.63 144.582 15.4433 144.275 15.31C143.969 15.1767 143.615 15.11 143.215 15.11C142.395 15.11 141.749 15.3467 141.275 15.82C140.809 16.2933 140.512 16.95 140.385 17.79H145.705ZM147.315 22.55C147.075 22.83 146.799 23.0733 146.485 23.28C146.172 23.48 145.839 23.6433 145.485 23.77C145.132 23.8967 144.765 23.99 144.385 24.05C144.012 24.11 143.642 24.14 143.275 24.14C142.575 24.14 141.925 24.0233 141.325 23.79C140.732 23.55 140.215 23.2033 139.775 22.75C139.342 22.29 139.002 21.7233 138.755 21.05C138.515 20.37 138.395 19.59 138.395 18.71C138.395 18.0033 138.505 17.3467 138.725 16.74C138.945 16.1267 139.259 15.5933 139.665 15.14C140.079 14.6867 140.582 14.33 141.175 14.07C141.769 13.81 142.435 13.68 143.175 13.68C143.795 13.68 144.365 13.7833 144.885 13.99C145.412 14.19 145.865 14.4833 146.245 14.87C146.625 15.2567 146.922 15.7333 147.135 16.3C147.355 16.8667 147.465 17.5133 147.465 18.24C147.465 18.54 147.432 18.7433 147.365 18.85C147.299 18.95 147.175 19 146.995 19H140.335C140.355 19.6067 140.442 20.1367 140.595 20.59C140.749 21.0367 140.959 21.41 141.225 21.71C141.499 22.01 141.822 22.2333 142.195 22.38C142.569 22.5267 142.985 22.6 143.445 22.6C143.879 22.6 144.252 22.55 144.565 22.45C144.885 22.35 145.159 22.2433 145.385 22.13C145.619 22.01 145.812 21.9 145.965 21.8C146.125 21.7 146.265 21.65 146.385 21.65C146.545 21.65 146.669 21.71 146.755 21.83L147.315 22.55ZM98.56 33.42H94V46H91.88V33.42H87.3V31.64H98.56V33.42ZM102.134 35.68C102.88 35.68 103.554 35.8033 104.154 36.05C104.76 36.29 105.274 36.64 105.694 37.1C106.12 37.5533 106.447 38.1033 106.674 38.75C106.9 39.39 107.014 40.11 107.014 40.91C107.014 41.71 106.9 42.4333 106.674 43.08C106.447 43.7267 106.12 44.2767 105.694 44.73C105.274 45.1833 104.76 45.5333 104.154 45.78C103.554 46.02 102.88 46.14 102.134 46.14C101.38 46.14 100.7 46.02 100.094 45.78C99.4936 45.5333 98.9803 45.1833 98.5536 44.73C98.1269 44.2767 97.7969 43.7267 97.5636 43.08C97.3369 42.4333 97.2236 41.71 97.2236 40.91C97.2236 40.11 97.3369 39.39 97.5636 38.75C97.7969 38.1033 98.1269 37.5533 98.5536 37.1C98.9803 36.64 99.4936 36.29 100.094 36.05C100.7 35.8033 101.38 35.68 102.134 35.68ZM102.134 44.62C103.094 44.62 103.81 44.2967 104.284 43.65C104.757 43.0033 104.994 42.0933 104.994 40.92C104.994 39.7467 104.757 38.8367 104.284 38.19C103.81 37.5367 103.094 37.21 102.134 37.21C101.16 37.21 100.434 37.5367 99.9536 38.19C99.4803 38.8367 99.2436 39.7467 99.2436 40.92C99.2436 42.0933 99.4803 43.0033 99.9536 43.65C100.434 44.2967 101.16 44.62 102.134 44.62ZM113.52 35.68C114.267 35.68 114.94 35.8033 115.54 36.05C116.147 36.29 116.66 36.64 117.08 37.1C117.507 37.5533 117.834 38.1033 118.06 38.75C118.287 39.39 118.4 40.11 118.4 40.91C118.4 41.71 118.287 42.4333 118.06 43.08C117.834 43.7267 117.507 44.2767 117.08 44.73C116.66 45.1833 116.147 45.5333 115.54 45.78C114.94 46.02 114.267 46.14 113.52 46.14C112.767 46.14 112.087 46.02 111.48 45.78C110.88 45.5333 110.367 45.1833 109.94 44.73C109.514 44.2767 109.184 43.7267 108.95 43.08C108.724 42.4333 108.61 41.71 108.61 40.91C108.61 40.11 108.724 39.39 108.95 38.75C109.184 38.1033 109.514 37.5533 109.94 37.1C110.367 36.64 110.88 36.29 111.48 36.05C112.087 35.8033 112.767 35.68 113.52 35.68ZM113.52 44.62C114.48 44.62 115.197 44.2967 115.67 43.65C116.144 43.0033 116.38 42.0933 116.38 40.92C116.38 39.7467 116.144 38.8367 115.67 38.19C115.197 37.5367 114.48 37.21 113.52 37.21C112.547 37.21 111.82 37.5367 111.34 38.19C110.867 38.8367 110.63 39.7467 110.63 40.92C110.63 42.0933 110.867 43.0033 111.34 43.65C111.82 44.2967 112.547 44.62 113.52 44.62ZM122.577 31.24V46H120.617V31.24H122.577ZM127.312 43.5C127.632 43.92 127.979 44.2133 128.352 44.38C128.726 44.5467 129.132 44.63 129.572 44.63C130.479 44.63 131.176 44.3067 131.662 43.66C132.156 43.0133 132.402 42.0367 132.402 40.73C132.402 39.5233 132.186 38.64 131.752 38.08C131.319 37.5133 130.706 37.23 129.912 37.23C129.352 37.23 128.866 37.3567 128.452 37.61C128.046 37.8633 127.666 38.2233 127.312 38.69V43.5ZM127.312 37.24C127.732 36.7733 128.209 36.3967 128.742 36.11C129.276 35.8233 129.882 35.68 130.562 35.68C131.156 35.68 131.689 35.7967 132.162 36.03C132.642 36.2567 133.049 36.5867 133.382 37.02C133.716 37.4467 133.972 37.9667 134.152 38.58C134.332 39.1933 134.422 39.8867 134.422 40.66C134.422 41.48 134.319 42.2267 134.112 42.9C133.912 43.5733 133.622 44.15 133.242 44.63C132.869 45.11 132.412 45.4833 131.872 45.75C131.332 46.01 130.726 46.14 130.052 46.14C129.726 46.14 129.426 46.1067 129.152 46.04C128.879 45.98 128.626 45.89 128.392 45.77C128.166 45.65 127.956 45.5033 127.762 45.33C127.569 45.1567 127.386 44.96 127.212 44.74L127.122 45.59C127.069 45.8633 126.902 46 126.622 46H125.362V31.24H127.312V37.24ZM140.923 35.68C141.669 35.68 142.343 35.8033 142.943 36.05C143.549 36.29 144.063 36.64 144.483 37.1C144.909 37.5533 145.236 38.1033 145.463 38.75C145.689 39.39 145.803 40.11 145.803 40.91C145.803 41.71 145.689 42.4333 145.463 43.08C145.236 43.7267 144.909 44.2767 144.483 44.73C144.063 45.1833 143.549 45.5333 142.943 45.78C142.343 46.02 141.669 46.14 140.923 46.14C140.169 46.14 139.489 46.02 138.883 45.78C138.283 45.5333 137.769 45.1833 137.343 44.73C136.916 44.2767 136.586 43.7267 136.353 43.08C136.126 42.4333 136.013 41.71 136.013 40.91C136.013 40.11 136.126 39.39 136.353 38.75C136.586 38.1033 136.916 37.5533 137.343 37.1C137.769 36.64 138.283 36.29 138.883 36.05C139.489 35.8033 140.169 35.68 140.923 35.68ZM140.923 44.62C141.883 44.62 142.599 44.2967 143.073 43.65C143.546 43.0033 143.783 42.0933 143.783 40.92C143.783 39.7467 143.546 38.8367 143.073 38.19C142.599 37.5367 141.883 37.21 140.923 37.21C139.949 37.21 139.223 37.5367 138.743 38.19C138.269 38.8367 138.033 39.7467 138.033 40.92C138.033 42.0933 138.269 43.0033 138.743 43.65C139.223 44.2967 139.949 44.62 140.923 44.62ZM156.05 46H154.17C154.017 46 153.893 45.96 153.8 45.88C153.713 45.7933 153.643 45.7033 153.59 45.61L151.14 41.74C151.107 41.84 151.073 41.9367 151.04 42.03C151.007 42.1233 150.963 42.21 150.91 42.29L148.66 45.61C148.593 45.7033 148.517 45.7933 148.43 45.88C148.343 45.96 148.23 46 148.09 46H146.35L149.89 40.77L146.49 35.84H148.37C148.523 35.84 148.633 35.8633 148.7 35.91C148.773 35.9567 148.837 36.0267 148.89 36.12L151.3 39.83C151.333 39.73 151.37 39.6333 151.41 39.54C151.45 39.44 151.503 39.3367 151.57 39.23L153.64 36.16C153.76 35.9467 153.92 35.84 154.12 35.84H155.91L152.51 40.68L156.05 46Z" fill="white"/>
<defs>
<clipPath id="clip0_134_9203">
<rect width="67" height="70" fill="white"/>
</clipPath>
</defs>
</svg>
