<svg width="157" height="70" viewBox="0 0 157 70" fill="none" xmlns="http://www.w3.org/2000/svg">
<g clip-path="url(#clip0_453_26863)">
<path d="M20.0993 11.5264L13.3996 23.223H0.000244141L6.69992 11.5264H20.0993Z" fill="#37E7E7"/>
<path d="M20.0993 34.9198L13.3996 23.2231H0.000244141L6.69992 34.9198H20.0993Z" fill="#154078"/>
<path d="M20.1007 34.9197L13.3994 23.223L20.1007 11.5264L26.8004 23.223L20.1007 34.9197Z" fill="#2E84F6"/>
<path d="M60.3003 11.5264L53.5991 23.223H40.1997L46.8994 11.5264H60.3003Z" fill="#37E7E7"/>
<path d="M60.3903 35.0001L53.6792 23.2329H40.2603L46.9697 35.0001H60.3903Z" fill="#154078"/>
<path d="M60.3007 34.9197L53.5994 23.223L60.3007 11.5264L67.0003 23.223L60.3007 34.9197Z" fill="#2E84F6"/>
<path d="M40.2 0L33.5003 11.6967H20.0994L26.8007 0H40.2Z" fill="#37E7E7"/>
<path d="M40.2 23.3935L33.5003 11.6968H20.0994L26.8007 23.3935H40.2Z" fill="#154078"/>
<path d="M40.1999 23.3934L33.5002 11.6967L40.1999 0L46.8996 11.6967L40.1999 23.3934Z" fill="#2E84F6"/>
<path d="M20.0993 34.8257L13.3996 46.5224H0.000244141L6.69992 34.8257H20.0993Z" fill="#37E7E7"/>
<path d="M20.0993 58.2191L13.3996 46.5225H0.000244141L6.69992 58.2191H20.0993Z" fill="#154078"/>
<path d="M20.0991 58.219L13.3994 46.5224L20.0991 34.8257L26.8004 46.5224L20.0991 58.219Z" fill="#2E84F6"/>
<path d="M40.2 23.2231L33.5003 34.9198H20.0994L26.8007 23.2231H40.2Z" fill="#37E7E7"/>
<path d="M40.2 46.615L33.5003 34.9199H20.0994L26.8007 46.615H40.2Z" fill="#154078"/>
<path d="M40.1999 46.6149L33.5002 34.9198L40.1999 23.2231L46.8996 34.9198L40.1999 46.6149Z" fill="#2E84F6"/>
<path d="M40.2 46.6064L33.5003 58.3031H20.0994L26.8007 46.6064H40.2Z" fill="#37E7E7"/>
<path d="M40.2 69.9999L33.5003 58.3032H20.0994L26.8007 69.9999H40.2Z" fill="#154078"/>
<path d="M40.1999 69.9998L33.5002 58.3031L40.1999 46.6064L46.8996 58.3031L40.1999 69.9998Z" fill="#2E84F6"/>
<path d="M60.3003 35.0039L53.5991 46.7006H40.1997L46.8994 35.0039H60.3003Z" fill="#37E7E7"/>
<path d="M60.3003 58.3957L53.5991 46.7007H40.1997L46.8994 58.3957H60.3003Z" fill="#154078"/>
<path d="M60.3007 58.3956L53.5994 46.7006L60.3007 35.0039L67.0003 46.7006L60.3007 58.3956Z" fill="#2E84F6"/>
</g>
<path d="M103.87 17.64V32H102.01V21.78C102.01 21.6267 102.013 21.4633 102.02 21.29C102.033 21.1167 102.047 20.94 102.06 20.76L97.28 29.53C97.1133 29.8567 96.8567 30.02 96.51 30.02H96.21C95.8633 30.02 95.61 29.8567 95.45 29.53L90.58 20.73C90.62 21.1033 90.64 21.4533 90.64 21.78V32H88.77V17.64H90.35C90.5367 17.64 90.68 17.66 90.78 17.7C90.8867 17.7333 90.9867 17.8333 91.08 18L95.88 26.6C95.9733 26.7733 96.06 26.9567 96.14 27.15C96.22 27.3433 96.2967 27.5367 96.37 27.73C96.51 27.3367 96.6733 26.9567 96.86 26.59L101.57 18C101.657 17.8333 101.75 17.7333 101.85 17.7C101.957 17.66 102.103 17.64 102.29 17.64H103.87ZM111.04 21.68C111.787 21.68 112.46 21.8033 113.06 22.05C113.667 22.29 114.18 22.64 114.6 23.1C115.027 23.5533 115.353 24.1033 115.58 24.75C115.807 25.39 115.92 26.11 115.92 26.91C115.92 27.71 115.807 28.4333 115.58 29.08C115.353 29.7267 115.027 30.2767 114.6 30.73C114.18 31.1833 113.667 31.5333 113.06 31.78C112.46 32.02 111.787 32.14 111.04 32.14C110.287 32.14 109.607 32.02 109 31.78C108.4 31.5333 107.887 31.1833 107.46 30.73C107.033 30.2767 106.703 29.7267 106.47 29.08C106.243 28.4333 106.13 27.71 106.13 26.91C106.13 26.11 106.243 25.39 106.47 24.75C106.703 24.1033 107.033 23.5533 107.46 23.1C107.887 22.64 108.4 22.29 109 22.05C109.607 21.8033 110.287 21.68 111.04 21.68ZM111.04 30.62C112 30.62 112.717 30.2967 113.19 29.65C113.663 29.0033 113.9 28.0933 113.9 26.92C113.9 25.7467 113.663 24.8367 113.19 24.19C112.717 23.5367 112 23.21 111.04 23.21C110.067 23.21 109.34 23.5367 108.86 24.19C108.387 24.8367 108.15 25.7467 108.15 26.92C108.15 28.0933 108.387 29.0033 108.86 29.65C109.34 30.2967 110.067 30.62 111.04 30.62ZM120.047 29.5C120.367 29.92 120.713 30.2133 121.087 30.38C121.46 30.5467 121.867 30.63 122.307 30.63C123.213 30.63 123.91 30.3067 124.397 29.66C124.89 29.0133 125.137 28.0367 125.137 26.73C125.137 25.5233 124.92 24.64 124.487 24.08C124.053 23.5133 123.44 23.23 122.647 23.23C122.087 23.23 121.6 23.3567 121.187 23.61C120.78 23.8633 120.4 24.2233 120.047 24.69V29.5ZM120.047 23.24C120.467 22.7733 120.943 22.3967 121.477 22.11C122.01 21.8233 122.617 21.68 123.297 21.68C123.89 21.68 124.423 21.7967 124.897 22.03C125.377 22.2567 125.783 22.5867 126.117 23.02C126.45 23.4467 126.707 23.9667 126.887 24.58C127.067 25.1933 127.157 25.8867 127.157 26.66C127.157 27.48 127.053 28.2267 126.847 28.9C126.647 29.5733 126.357 30.15 125.977 30.63C125.603 31.11 125.147 31.4833 124.607 31.75C124.067 32.01 123.46 32.14 122.787 32.14C122.46 32.14 122.16 32.1067 121.887 32.04C121.613 31.98 121.36 31.89 121.127 31.77C120.9 31.65 120.69 31.5033 120.497 31.33C120.303 31.1567 120.12 30.96 119.947 30.74L119.857 31.59C119.803 31.8633 119.637 32 119.357 32H118.097V17.24H120.047V23.24ZM131.367 21.84V32H129.417V21.84H131.367ZM131.737 18.7C131.737 18.88 131.7 19.0533 131.627 19.22C131.554 19.38 131.454 19.5233 131.327 19.65C131.207 19.77 131.064 19.8667 130.897 19.94C130.73 20.0067 130.557 20.04 130.377 20.04C130.197 20.04 130.027 20.0067 129.867 19.94C129.707 19.8667 129.564 19.77 129.437 19.65C129.317 19.5233 129.22 19.38 129.147 19.22C129.08 19.0533 129.047 18.88 129.047 18.7C129.047 18.5133 129.08 18.34 129.147 18.18C129.22 18.0133 129.317 17.87 129.437 17.75C129.564 17.6233 129.707 17.5267 129.867 17.46C130.027 17.3867 130.197 17.35 130.377 17.35C130.557 17.35 130.73 17.3867 130.897 17.46C131.064 17.5267 131.207 17.6233 131.327 17.75C131.454 17.87 131.554 18.0133 131.627 18.18C131.7 18.34 131.737 18.5133 131.737 18.7ZM136.19 17.24V32H134.23V17.24H136.19ZM145.705 25.79C145.705 25.4033 145.649 25.0467 145.535 24.72C145.429 24.3933 145.269 24.11 145.055 23.87C144.842 23.63 144.582 23.4433 144.275 23.31C143.969 23.1767 143.615 23.11 143.215 23.11C142.395 23.11 141.749 23.3467 141.275 23.82C140.809 24.2933 140.512 24.95 140.385 25.79H145.705ZM147.315 30.55C147.075 30.83 146.799 31.0733 146.485 31.28C146.172 31.48 145.839 31.6433 145.485 31.77C145.132 31.8967 144.765 31.99 144.385 32.05C144.012 32.11 143.642 32.14 143.275 32.14C142.575 32.14 141.925 32.0233 141.325 31.79C140.732 31.55 140.215 31.2033 139.775 30.75C139.342 30.29 139.002 29.7233 138.755 29.05C138.515 28.37 138.395 27.59 138.395 26.71C138.395 26.0033 138.505 25.3467 138.725 24.74C138.945 24.1267 139.259 23.5933 139.665 23.14C140.079 22.6867 140.582 22.33 141.175 22.07C141.769 21.81 142.435 21.68 143.175 21.68C143.795 21.68 144.365 21.7833 144.885 21.99C145.412 22.19 145.865 22.4833 146.245 22.87C146.625 23.2567 146.922 23.7333 147.135 24.3C147.355 24.8667 147.465 25.5133 147.465 26.24C147.465 26.54 147.432 26.7433 147.365 26.85C147.299 26.95 147.175 27 146.995 27H140.335C140.355 27.6067 140.442 28.1367 140.595 28.59C140.749 29.0367 140.959 29.41 141.225 29.71C141.499 30.01 141.822 30.2333 142.195 30.38C142.569 30.5267 142.985 30.6 143.445 30.6C143.879 30.6 144.252 30.55 144.565 30.45C144.885 30.35 145.159 30.2433 145.385 30.13C145.619 30.01 145.812 29.9 145.965 29.8C146.125 29.7 146.265 29.65 146.385 29.65C146.545 29.65 146.669 29.71 146.755 29.83L147.315 30.55ZM98.56 41.42H94V54H91.88V41.42H87.3V39.64H98.56V41.42ZM102.134 43.68C102.88 43.68 103.554 43.8033 104.154 44.05C104.76 44.29 105.274 44.64 105.694 45.1C106.12 45.5533 106.447 46.1033 106.674 46.75C106.9 47.39 107.014 48.11 107.014 48.91C107.014 49.71 106.9 50.4333 106.674 51.08C106.447 51.7267 106.12 52.2767 105.694 52.73C105.274 53.1833 104.76 53.5333 104.154 53.78C103.554 54.02 102.88 54.14 102.134 54.14C101.38 54.14 100.7 54.02 100.094 53.78C99.4936 53.5333 98.9803 53.1833 98.5536 52.73C98.1269 52.2767 97.7969 51.7267 97.5636 51.08C97.3369 50.4333 97.2236 49.71 97.2236 48.91C97.2236 48.11 97.3369 47.39 97.5636 46.75C97.7969 46.1033 98.1269 45.5533 98.5536 45.1C98.9803 44.64 99.4936 44.29 100.094 44.05C100.7 43.8033 101.38 43.68 102.134 43.68ZM102.134 52.62C103.094 52.62 103.81 52.2967 104.284 51.65C104.757 51.0033 104.994 50.0933 104.994 48.92C104.994 47.7467 104.757 46.8367 104.284 46.19C103.81 45.5367 103.094 45.21 102.134 45.21C101.16 45.21 100.434 45.5367 99.9536 46.19C99.4803 46.8367 99.2436 47.7467 99.2436 48.92C99.2436 50.0933 99.4803 51.0033 99.9536 51.65C100.434 52.2967 101.16 52.62 102.134 52.62ZM113.52 43.68C114.267 43.68 114.94 43.8033 115.54 44.05C116.147 44.29 116.66 44.64 117.08 45.1C117.507 45.5533 117.834 46.1033 118.06 46.75C118.287 47.39 118.4 48.11 118.4 48.91C118.4 49.71 118.287 50.4333 118.06 51.08C117.834 51.7267 117.507 52.2767 117.08 52.73C116.66 53.1833 116.147 53.5333 115.54 53.78C114.94 54.02 114.267 54.14 113.52 54.14C112.767 54.14 112.087 54.02 111.48 53.78C110.88 53.5333 110.367 53.1833 109.94 52.73C109.514 52.2767 109.184 51.7267 108.95 51.08C108.724 50.4333 108.61 49.71 108.61 48.91C108.61 48.11 108.724 47.39 108.95 46.75C109.184 46.1033 109.514 45.5533 109.94 45.1C110.367 44.64 110.88 44.29 111.48 44.05C112.087 43.8033 112.767 43.68 113.52 43.68ZM113.52 52.62C114.48 52.62 115.197 52.2967 115.67 51.65C116.144 51.0033 116.38 50.0933 116.38 48.92C116.38 47.7467 116.144 46.8367 115.67 46.19C115.197 45.5367 114.48 45.21 113.52 45.21C112.547 45.21 111.82 45.5367 111.34 46.19C110.867 46.8367 110.63 47.7467 110.63 48.92C110.63 50.0933 110.867 51.0033 111.34 51.65C111.82 52.2967 112.547 52.62 113.52 52.62ZM122.577 39.24V54H120.617V39.24H122.577ZM127.312 51.5C127.632 51.92 127.979 52.2133 128.352 52.38C128.726 52.5467 129.132 52.63 129.572 52.63C130.479 52.63 131.176 52.3067 131.662 51.66C132.156 51.0133 132.402 50.0367 132.402 48.73C132.402 47.5233 132.186 46.64 131.752 46.08C131.319 45.5133 130.706 45.23 129.912 45.23C129.352 45.23 128.866 45.3567 128.452 45.61C128.046 45.8633 127.666 46.2233 127.312 46.69V51.5ZM127.312 45.24C127.732 44.7733 128.209 44.3967 128.742 44.11C129.276 43.8233 129.882 43.68 130.562 43.68C131.156 43.68 131.689 43.7967 132.162 44.03C132.642 44.2567 133.049 44.5867 133.382 45.02C133.716 45.4467 133.972 45.9667 134.152 46.58C134.332 47.1933 134.422 47.8867 134.422 48.66C134.422 49.48 134.319 50.2267 134.112 50.9C133.912 51.5733 133.622 52.15 133.242 52.63C132.869 53.11 132.412 53.4833 131.872 53.75C131.332 54.01 130.726 54.14 130.052 54.14C129.726 54.14 129.426 54.1067 129.152 54.04C128.879 53.98 128.626 53.89 128.392 53.77C128.166 53.65 127.956 53.5033 127.762 53.33C127.569 53.1567 127.386 52.96 127.212 52.74L127.122 53.59C127.069 53.8633 126.902 54 126.622 54H125.362V39.24H127.312V45.24ZM140.923 43.68C141.669 43.68 142.343 43.8033 142.943 44.05C143.549 44.29 144.063 44.64 144.483 45.1C144.909 45.5533 145.236 46.1033 145.463 46.75C145.689 47.39 145.803 48.11 145.803 48.91C145.803 49.71 145.689 50.4333 145.463 51.08C145.236 51.7267 144.909 52.2767 144.483 52.73C144.063 53.1833 143.549 53.5333 142.943 53.78C142.343 54.02 141.669 54.14 140.923 54.14C140.169 54.14 139.489 54.02 138.883 53.78C138.283 53.5333 137.769 53.1833 137.343 52.73C136.916 52.2767 136.586 51.7267 136.353 51.08C136.126 50.4333 136.013 49.71 136.013 48.91C136.013 48.11 136.126 47.39 136.353 46.75C136.586 46.1033 136.916 45.5533 137.343 45.1C137.769 44.64 138.283 44.29 138.883 44.05C139.489 43.8033 140.169 43.68 140.923 43.68ZM140.923 52.62C141.883 52.62 142.599 52.2967 143.073 51.65C143.546 51.0033 143.783 50.0933 143.783 48.92C143.783 47.7467 143.546 46.8367 143.073 46.19C142.599 45.5367 141.883 45.21 140.923 45.21C139.949 45.21 139.223 45.5367 138.743 46.19C138.269 46.8367 138.033 47.7467 138.033 48.92C138.033 50.0933 138.269 51.0033 138.743 51.65C139.223 52.2967 139.949 52.62 140.923 52.62ZM156.05 54H154.17C154.017 54 153.893 53.96 153.8 53.88C153.713 53.7933 153.643 53.7033 153.59 53.61L151.14 49.74C151.107 49.84 151.073 49.9367 151.04 50.03C151.007 50.1233 150.963 50.21 150.91 50.29L148.66 53.61C148.593 53.7033 148.517 53.7933 148.43 53.88C148.343 53.96 148.23 54 148.09 54H146.35L149.89 48.77L146.49 43.84H148.37C148.523 43.84 148.633 43.8633 148.7 43.91C148.773 43.9567 148.837 44.0267 148.89 44.12L151.3 47.83C151.333 47.73 151.37 47.6333 151.41 47.54C151.45 47.44 151.503 47.3367 151.57 47.23L153.64 44.16C153.76 43.9467 153.92 43.84 154.12 43.84H155.91L152.51 48.68L156.05 54Z" fill="#154078"/>
<defs>
<clipPath id="clip0_453_26863">
<rect width="67" height="70" fill="white"/>
</clipPath>
</defs>
</svg>
