<svg width="159" height="50" viewBox="0 0 159 50" fill="none" xmlns="http://www.w3.org/2000/svg">
<path d="M22.8322 50C12.7963 44.0026 0.188965 35.3736 0.188965 20.0732V3.91666C4.77878 2.20347 11.9389 0 22.8322 0C33.8485 0 41.3758 2.38675 45.4764 3.91666V20.0732C45.4764 35.496 32.3798 44.3698 22.8322 50Z" fill="white"/>
<path d="M29.6256 29.0692C29.6256 28.7019 29.9316 28.2124 29.9316 27.7229C29.9316 27.172 29.2581 26.9885 28.7077 26.9273C27.6061 26.7443 27.1775 26.8049 27.1775 26.5601C27.1775 26.3764 27.3001 26.1928 27.5449 25.8869C27.851 25.4586 28.5857 25.275 28.9522 25.2134C29.4414 25.1522 30.0534 25.0908 30.7269 25.0908C31.4616 25.0908 32.1341 25.2134 32.4402 25.2743C33.1136 25.3967 33.2357 25.7026 33.2357 26.0093C33.2357 26.0705 33.2357 26.2535 33.2357 26.3153C33.2357 26.6214 32.9909 26.8042 32.5007 26.9273C32.3782 26.9273 32.1946 26.9886 32.1334 26.9886C31.7662 27.0498 31.3383 27.1109 31.2154 27.6006C30.9094 28.5797 30.2975 29.3134 29.8688 29.2529C29.748 29.2534 29.6256 29.1922 29.6256 29.0692ZM30.666 13.7088C30.6048 13.7088 30.4827 13.6472 30.4827 13.4643C30.4827 13.2808 30.6054 13.0968 30.8503 12.7908C31.4007 12.0561 32.197 11.0776 32.5029 11.0776C32.6257 11.0776 32.7474 11.2 32.9317 11.506C33.0541 11.6896 33.1149 11.9955 33.1149 12.3016C33.1149 13.342 32.7473 14.0148 32.1969 14.8107C31.89 14.6883 31.4 14.1375 30.666 13.7088ZM14.0202 15.6063C14.265 15.6063 14.4488 15.4226 14.8769 14.9943C15.7334 14.0148 16.5902 13.8927 16.5902 13.5256C16.5902 13.3423 16.4675 13.1583 16.3454 12.9747C15.4273 11.5675 15.0602 10.7716 14.5095 9.73161C14.3262 9.36405 14.0808 9.11928 13.8362 9.11928C13.5303 9.11928 13.1627 9.48684 12.9794 9.79279C12.7351 10.2214 12.4287 10.7723 12.4287 11.2C12.4287 11.8734 12.6119 13.159 12.8574 13.9542C13.1627 14.8716 13.5915 15.6063 14.0202 15.6063ZM24.3626 18.9109C24.3626 18.299 23.6894 17.4416 22.5266 17.4416C21.4863 17.4416 20.6907 18.2368 20.5074 18.8495C20.7523 19.3387 20.9967 19.8289 21.9762 20.135C22.0989 20.1961 22.2207 20.1961 22.2207 20.3182C22.2207 20.5015 22.0375 20.5627 21.7314 20.5627C20.6302 20.5627 19.9567 20.1343 19.6508 19.7063C19.3447 19.7675 19.0387 19.8896 18.61 19.8896C18.2428 19.8896 18.1207 19.6448 18.1207 19.3387C18.1207 19.1554 18.1823 18.9104 18.304 18.6656C18.3656 18.5428 18.4268 18.4208 18.4875 18.2983C18.6708 17.9309 18.916 17.1968 19.956 16.5849C20.0787 16.5237 20.3847 16.3401 20.5683 16.2177C21.1188 15.8502 21.6087 15.789 22.2815 15.789C22.3428 15.789 22.7103 15.789 22.7709 15.789C23.6283 15.789 23.9948 16.0334 24.362 16.3394C25.097 16.9514 25.5247 17.3189 25.5247 17.747C25.5247 18.2363 25.5247 18.6649 25.0964 19.2163C24.7288 19.7056 24.2396 20.0116 23.8721 20.0116C23.7494 20.0116 23.7494 19.95 23.7494 19.8888C23.7494 19.8277 23.811 19.7662 23.933 19.7056C24.1181 19.5229 24.2402 19.1554 24.3626 18.9109ZM29.3196 34.8231C29.1361 34.8843 28.7688 34.9455 27.0553 34.9455C24.4856 34.9455 24.0565 34.3335 24.0565 33.844C24.0565 32.9871 27.7288 32.437 29.1975 32.437C30.6048 32.437 31.2168 32.8654 31.2168 33.2319C31.2168 33.5992 30.5436 34.517 29.3196 34.8231ZM14.5094 42.3504C17.2021 44.4311 20.0176 46.2671 22.832 47.98C22.832 45.4707 22.7708 44.0021 24.4851 42.1662C25.1582 41.4312 25.8923 40.6974 26.5042 40.0243C26.9934 39.5347 27.3607 39.1675 27.6055 39.1675C27.7887 39.1675 27.8502 39.2287 27.8502 39.4735C27.8502 39.7182 27.9727 40.5145 28.4623 41.493C29.0742 42.717 30.0534 42.9 30.3594 42.9611C37.6429 37.4546 43.7631 30.2932 43.7631 20.0734C43.7631 14.4429 43.7631 5.14079 43.7631 5.14079C41.9883 4.52876 34.5826 1.71338 22.8321 1.71338C11.0814 1.71338 3.67678 4.5287 1.90234 5.14079C1.90234 5.14079 1.90234 14.4436 1.90234 20.0734C1.90234 24.5409 3.06486 28.4572 5.0234 31.9468C5.20703 29.8654 6.61495 28.8863 6.61495 26.8667C6.61495 25.4599 6.18621 24.5414 6.18621 23.3787C6.18621 21.2369 9.06214 16.8303 10.5922 14.9944C10.6537 14.9329 10.7148 14.8108 10.8369 14.8108C10.959 14.8108 11.0202 14.8723 11.0814 14.9944C11.265 15.2388 11.3262 15.3615 11.4489 15.3615C11.6328 15.3615 11.6941 15.2388 11.6941 15.1167C11.6941 14.7496 11.2657 14.1376 11.2657 11.6897C11.2657 9.97614 11.6329 9.60893 12.7351 8.56827C12.918 8.38498 13.5303 7.83356 14.0815 7.83356C14.6934 7.83356 14.9994 8.20083 15.4281 8.62888C16.1016 9.30239 17.0196 10.4651 17.1416 10.6483C17.2029 10.7096 17.2029 10.7711 17.3249 10.7711C17.631 10.7711 17.8757 10.7096 19.2221 10.7096C21.6088 10.7096 25.2202 11.0771 27.0554 11.6891C28.0348 11.995 28.2182 12.2395 28.463 12.2395C28.5857 12.2395 28.5857 12.1783 28.5857 12.1168C28.5857 11.9943 28.3409 11.8108 28.3409 11.6275C28.3409 11.5048 28.4025 11.4443 28.5241 11.383C29.9317 10.6483 31.0941 10.0976 32.1959 10.0976C32.8083 10.0976 33.1142 10.6483 33.4203 11.1989C33.6034 11.6275 33.8489 12.1783 33.8489 12.7902C33.8489 14.2587 33.2982 15.1769 32.8694 15.789C33.0527 16.0334 33.3587 16.3394 33.5429 16.5842C33.8489 16.9514 34.2773 17.5021 34.2773 17.9918C34.2773 18.2363 34.1548 18.6037 34.0941 18.8489C34.0941 18.9716 33.9713 19.2164 33.7268 19.2164C33.5435 19.2164 33.482 18.9716 33.482 18.7878C33.482 18.7262 33.482 18.665 33.482 18.665C33.482 18.2363 33.3594 17.6855 32.9928 17.2567C32.5641 16.7675 32.136 16.4615 31.5856 16.4615C31.524 16.4615 31.4629 16.4615 31.4024 16.4615C30.5455 16.4615 30.1781 16.8291 29.9336 17.0736C29.6888 17.3183 29.5048 17.6855 29.5048 18.1142C29.5048 18.359 29.6881 18.6657 29.9336 19.155C30.056 19.4609 30.4228 20.0729 30.6068 20.4404C30.79 20.7465 30.974 20.8688 31.2188 20.8688C31.8308 20.8688 32.3203 20.8077 32.3203 20.6244C32.3203 20.5628 32.3203 20.5628 32.1976 20.5628C32.1361 20.5628 32.0749 20.5628 32.0144 20.5628C31.2188 20.5628 30.79 19.5837 30.4229 18.6657C30.7288 18.3596 31.0348 18.0537 31.6468 18.0537C32.4421 18.0537 32.9322 18.6051 32.9322 19.2776C32.9322 19.6449 32.8096 19.8897 32.7487 20.0124C32.6874 20.0736 32.6874 20.1352 32.6874 20.1352C32.6874 20.2576 32.8102 20.2576 33.0546 20.3184C33.1162 20.3184 33.2995 20.3795 33.3607 20.3795C33.6055 20.4411 33.8502 20.6244 33.9114 20.9304C33.9726 21.1136 34.1563 21.5423 34.1563 21.6651C34.2787 22.0322 34.4623 22.5831 34.4623 23.2562C34.4623 23.9297 34.4007 24.1742 34.2174 24.8477C33.9726 25.7048 33.8502 26.0719 33.8502 26.5609C33.9114 26.6839 33.9114 26.7444 33.9726 26.8669C34.0954 27.173 34.2787 27.6625 34.2787 28.2139C34.2787 28.3363 34.2787 28.6422 34.2787 28.6422C34.2787 29.5602 33.9114 30.2335 33.5443 30.723C33.2383 31.1514 32.8096 31.7021 32.5649 32.0095C32.3816 32.1925 32.1976 32.3154 31.9528 32.3154C31.8302 32.3154 31.7084 32.2536 31.5853 32.2536C31.4629 32.1924 31.0964 32.1312 30.9733 32.1312C30.4229 32.0081 30.239 31.6409 30.1169 31.2125C30.1169 31.1514 29.9941 30.9678 29.9941 30.9066C29.8715 30.6005 29.811 30.3558 29.6269 30.3558C29.5043 30.3558 29.321 30.4782 29.1982 30.6617C28.6475 31.4574 28.403 31.7021 27.485 31.9476C27.1788 32.0095 26.5055 32.1924 26.138 32.2536C25.5875 32.3767 24.6081 32.6214 24.0574 32.6214C23.9349 32.6214 23.8129 32.6214 23.69 32.6214C22.9553 32.4984 22.4049 32.4379 21.4869 31.335C20.2015 29.8049 20.3242 29.5602 20.263 27.4794C20.263 27.2347 20.2014 26.9287 19.9567 26.9287C19.7122 26.9287 19.6507 27.3577 19.5894 27.9697C19.4667 28.7047 19.3446 29.4384 18.9774 29.4384C18.7327 29.4384 18.5488 29.3766 18.1822 29.2549C17.6926 29.1324 16.5292 28.7047 15.9179 28.5206C15.0614 28.2145 14.2654 28.0309 13.9595 27.2959C13.8368 26.9287 13.5307 26.3167 13.4088 25.9496C13.286 25.7048 13.2255 25.5824 13.1027 25.5824C12.8579 25.5824 12.8579 25.8271 12.7967 26.0719C12.7967 26.3167 12.7355 26.8668 12.6741 27.1729C12.5513 28.6416 12.2453 29.2535 11.6333 30.0491C11.3273 30.4163 11.0819 30.7835 10.7759 31.2113C10.1639 32.0693 9.73554 32.926 9.79673 34.5784C9.79673 34.7009 9.79673 35.3127 9.79673 35.5575C9.73566 37.8218 10.3476 39.0457 14.5094 42.3504Z" fill="#203D7C"/>
<path d="M33.9708 20.6245C34.0323 20.8078 34.2156 21.2365 34.2156 21.3592C34.3383 21.7263 34.5215 22.2772 34.5215 22.9503C34.5215 23.6238 34.4603 23.8683 34.2768 24.5418C34.0323 25.3982 33.9096 25.7655 33.9096 26.255C33.8484 26.1326 32.5628 23.9297 32.5023 23.7459C32.3797 23.5624 32.3191 23.3783 32.3191 23.1952C32.3191 22.9503 32.4415 22.8279 32.6863 22.6443C32.8695 22.5219 33.0536 22.3998 33.1755 22.3384C33.849 22.0324 33.9708 21.6039 33.9708 21.1759C34.0323 20.9913 33.9708 20.8078 33.9708 20.6245ZM28.463 24.1124C28.5241 24.2957 28.5857 24.4796 28.5857 24.6017C28.5857 24.908 28.5241 25.0304 28.3409 25.214C28.2182 25.3364 28.0964 25.397 27.9734 25.52C27.7901 25.6424 27.6061 25.703 27.5449 25.8872C27.3614 26.1932 27.1775 26.3761 27.1775 26.5604C27.1775 26.6223 27.1775 26.6835 27.2389 26.6835C26.9942 26.4999 26.8714 26.1939 26.8714 25.9485C26.8714 25.703 26.933 25.5812 26.933 25.3983C26.933 25.2147 26.8714 25.0305 26.8714 24.9087C26.5042 23.7459 25.9535 22.3385 25.5863 21.4204C25.2188 20.4412 24.9127 19.9517 24.4851 19.9517C24.2402 19.9517 24.0561 20.0744 23.8116 20.0744C24.1175 20.0744 24.668 19.7684 25.0355 19.2792C25.4642 18.7284 25.4642 18.3612 25.4642 17.8098C25.4642 17.5653 25.403 17.3813 25.2194 17.1978C25.7702 17.7486 26.0762 18.4217 26.4433 19.1564C27.239 20.8689 27.9122 22.7052 28.463 24.1124ZM9.67423 35.3735C9.67423 35.0675 9.67423 34.4555 9.67423 34.3943C9.67423 32.742 10.0417 31.8852 10.6537 31.0278C10.9597 30.5988 11.2041 30.233 11.5108 29.8651C12.1228 29.0702 12.4288 28.4581 12.5514 26.9894C12.5514 26.6222 12.6127 26.1326 12.6742 25.8878C12.6742 25.7043 12.7358 25.3982 12.9802 25.3982C13.1635 25.3982 13.225 25.5213 13.2861 25.7655C13.4089 26.1333 13.7149 26.7452 13.837 27.1124C14.143 27.8476 14.9382 28.0916 15.7957 28.3364C16.4077 28.52 17.5704 28.9484 18.0597 29.0714C18.4269 29.1939 18.6101 29.2544 18.8549 29.2544C19.2221 29.2544 19.4056 28.5201 19.4669 27.7856C19.5281 27.1737 19.6501 26.7452 19.8342 26.7452C20.0789 26.7452 20.1401 27.0512 20.1401 27.2954C20.2016 29.3761 20.0789 29.6209 21.3643 31.1509C22.2824 32.2531 22.8328 32.3149 23.5675 32.4374C23.2615 32.3762 22.9554 32.0083 22.9554 31.3351C22.9554 31.212 22.9554 30.662 22.9554 30.6001C22.9554 30.2329 23.0171 29.8657 23.201 29.4379C23.2621 29.2544 23.3842 28.8872 23.5069 28.6424C23.6901 28.2751 23.5685 28.1535 23.5685 27.9081C23.5685 27.6013 23.4454 27.3573 23.2622 26.6835C23.1395 26.3162 23.0171 25.8273 22.8335 25.3983C22.3442 24.1131 22.1603 23.8071 20.6304 23.5624C20.1407 23.5012 17.9377 23.1952 17.5089 23.1341C15.7342 22.8892 14.3875 22.828 13.6538 21.6041C12.797 20.1965 12.8582 18.4827 12.0623 18.4827C11.6948 18.4827 11.4503 18.9114 11.4503 19.5233C11.4503 20.1965 11.6955 21.2981 11.6955 23.1341C11.6955 24.7868 11.573 25.2148 10.5936 26.3775C10.3491 26.6836 10.0431 27.1725 9.7983 27.4179C9.12513 28.2747 8.75758 28.8255 8.81918 29.8046C9.0629 32.3747 9.49094 34.3331 9.67423 35.3735ZM27.545 41.6157C27.6062 40.9425 27.9123 39.9021 27.9123 39.4126C27.9123 39.1678 27.851 39.1065 27.6674 39.1065C27.4229 39.1065 27.0554 39.4738 26.5663 39.9633C25.893 40.6366 25.2195 41.3709 24.5469 42.1053C22.8328 43.8799 22.8944 45.3488 22.8944 47.919C24.7917 46.7563 26.5056 45.6547 27.7905 44.7979C27.545 43.7576 27.4229 43.0233 27.545 41.6157Z" fill="#BCC5D8"/>
<path d="M151.289 20.5015H159C158.938 16.5236 157.041 14.2589 153.737 14.2589C150.432 14.2589 148.29 16.5229 148.29 20.0115C148.29 21.3582 148.718 25.6414 154.287 25.6414C156.551 25.6414 157.775 25.1523 158.265 24.9682V22.8875C157.714 23.1324 156.612 23.5607 154.961 23.5607C152.757 23.5613 151.351 22.3373 151.289 20.5015ZM140.334 16.462H141.864V22.6434C141.864 24.4793 143.211 25.642 145.352 25.642C146.393 25.642 147.433 25.3979 147.678 25.3361V23.4389C147.188 23.5613 146.76 23.5613 146.454 23.5613C145.107 23.5613 144.618 23.0109 144.618 21.481V16.462H147.555V14.5033H144.618V12.1166H141.864V14.5033H140.334V16.462H140.334ZM132.073 16.5841C132.195 16.5229 133.052 16.217 133.908 16.217C135.561 16.217 136.234 16.8901 136.234 18.4201V19.032H134.765C131.093 19.032 129.196 20.1948 129.196 22.4594C129.196 24.3569 130.603 25.5808 132.806 25.5808C135.071 25.5808 136.111 24.2342 136.417 23.8062H136.479L136.54 25.3361H139.906V23.3774H138.743V18.4816C138.743 15.6661 137.091 14.2589 133.786 14.2589C131.827 14.2589 130.052 15.1769 129.686 15.3602V17.9916H132.011V16.5841H132.073ZM120.935 16.462H122.465V22.6434C122.465 24.4793 123.811 25.642 125.953 25.642C126.993 25.642 128.033 25.3979 128.278 25.3361V23.4389C127.972 23.5001 127.483 23.5613 127.054 23.5613C125.707 23.5613 125.218 23.0109 125.218 21.481V16.462H128.155V14.5033H125.218V12.1166H122.464V14.5033H120.934V16.462H120.935ZM111.755 23.0109V21.1134H109.123V24.8468C110.714 25.3979 112.245 25.642 114.081 25.642C117.754 25.642 119.772 23.9894 119.772 21.0522C119.772 18.0528 117.569 17.1961 115.489 16.6453L114.02 16.2782C112.796 15.9721 112.184 15.3602 112.184 14.381C112.184 13.4627 112.979 12.4836 114.693 12.4836C115.428 12.4836 116.224 12.728 116.53 12.8507V14.6255H119.099V11.2596C117.875 10.7704 116.224 10.5249 114.571 10.5249C111.082 10.5249 109.123 11.9936 109.123 14.6248C109.123 17.0116 110.225 18.2355 112.918 18.9702L114.203 19.3374C115.977 19.827 116.713 20.439 116.713 21.5409C116.713 22.7648 115.856 23.4383 114.265 23.4383C113.53 23.4389 112.244 23.1329 111.755 23.0109ZM71.1179 20.5015H78.8291C78.7679 16.5236 76.8704 14.2589 73.5658 14.2589C70.2604 14.2589 68.1191 16.5229 68.1191 20.0115C68.1191 21.3582 68.5478 25.6414 74.1172 25.6414C76.3812 25.6414 77.6051 25.1523 78.0954 24.9682V22.8875C77.5445 23.1324 76.4423 23.5607 74.7906 23.5607C72.5865 23.5613 71.1794 22.3373 71.1179 20.5015ZM87.8251 25.3979H93.027V23.439H91.7419V18.6043C91.7419 15.9722 90.0896 14.3202 87.5804 14.3202C85.4997 14.3202 84.3981 15.5441 84.0921 16.0333H84.0309L83.9697 14.5649H80.1142V16.5236H81.583V23.5002H80.3591V25.4593H85.561V23.5002H84.2758V19.1548C84.2758 17.5634 85.1325 16.6454 86.6013 16.6454C88.1312 16.6454 88.9879 17.5634 88.9879 19.1548V23.5002H87.764V25.398H87.8251V25.3979ZM55.3896 25.3979H61.2037V23.439H59.7353V19.6447H62.1227C65.4886 19.6447 67.4465 17.9924 67.4465 15.177C67.4465 12.4226 65.427 10.7095 62.1227 10.7095H55.3896V12.6682H56.8584V23.3781H55.3896V25.3979ZM133.725 23.6834C132.44 23.6834 132.012 22.8882 132.012 22.215C132.012 21.1134 132.991 20.6236 135.316 20.6236H136.235V20.8069C136.173 22.7655 134.888 23.6834 133.725 23.6834ZM151.229 18.7267C151.351 17.1355 152.269 16.0949 153.616 16.0949C155.084 16.0949 155.94 17.0128 155.94 18.6043V18.7267H151.229ZM71.1179 18.7267C71.2405 17.0744 72.0973 16.0949 73.5052 16.0949C74.9739 16.0949 75.8304 17.0128 75.8304 18.6043V18.7267H71.1179ZM61.7546 17.7475H59.7348V12.7293H61.7546C63.4072 12.7293 64.4473 13.7088 64.4473 15.2387C64.4473 16.769 63.4072 17.7475 61.7546 17.7475ZM101.963 25.3979H107.164V23.439H105.879V18.6043C105.879 15.9722 104.226 14.3202 101.718 14.3202C99.637 14.3202 98.5361 15.5441 98.2289 16.0333H98.1675L98.1064 14.5649H94.2509V16.5236H95.7196V23.5002H94.4957V25.4593H99.6988V23.5002H98.4124V19.1548C98.4124 17.5634 99.2698 16.6454 100.739 16.6454C102.269 16.6454 103.125 17.5634 103.125 19.1548V23.5002H101.901V25.398H101.963V25.3979Z" fill="#203D7C"/>
</svg>
