<svg width="212" height="40" viewBox="0 0 212 40" fill="none" xmlns="http://www.w3.org/2000/svg">
<path d="M55.9255 14.242C55.8656 14.3784 55.7691 14.4955 55.6466 14.5803C55.5321 14.6487 55.4005 14.6833 55.2672 14.6801C55.0913 14.6708 54.9214 14.6133 54.7761 14.5137C54.5938 14.4029 54.3781 14.2773 54.1287 14.1372C53.8503 13.9859 53.559 13.8599 53.2582 13.7606C52.8773 13.6417 52.4797 13.5856 52.0808 13.5943C51.7198 13.5866 51.3598 13.6352 51.0138 13.7383C50.7353 13.8238 50.4762 13.9629 50.251 14.1478C50.0509 14.3098 49.8922 14.5169 49.7878 14.7522C49.6847 15.0056 49.6335 15.277 49.6372 15.5506C49.6258 15.887 49.7374 16.2161 49.951 16.4763C50.181 16.7403 50.4619 16.9553 50.7769 17.1083C51.1541 17.2952 51.546 17.451 51.9487 17.574C52.388 17.7108 52.8343 17.8572 53.2877 18.0133C53.744 18.1731 54.191 18.3582 54.6267 18.5678C55.0548 18.7671 55.45 19.0307 55.7984 19.3495C56.1493 19.6758 56.4302 20.07 56.6241 20.5081C56.8464 21.0337 56.9534 21.6008 56.9379 22.1713C56.9426 22.8538 56.8177 23.5311 56.5698 24.1671C56.3311 24.7764 55.9652 25.3279 55.4966 25.7847C55.0036 26.269 54.4161 26.6465 53.7706 26.8934C53.0249 27.1707 52.2339 27.3061 51.4384 27.2926C50.9383 27.2939 50.4393 27.2456 49.9488 27.1485C49.468 27.0521 48.9972 26.911 48.5426 26.7271C48.1025 26.5501 47.6805 26.3309 47.2827 26.0725C46.9052 25.8287 46.5553 25.5447 46.2393 25.2252L47.0928 23.8225C47.174 23.7212 47.2722 23.6349 47.3831 23.5674C47.4971 23.4973 47.6286 23.4607 47.7625 23.4619C47.9777 23.4736 48.1842 23.551 48.354 23.6838C48.5661 23.8317 48.8154 23.9961 49.1018 24.1771C49.4234 24.3743 49.7635 24.5396 50.1173 24.6704C50.5686 24.8294 51.0451 24.9045 51.5235 24.8923C52.2199 24.9323 52.9074 24.7197 53.4596 24.2935C53.6949 24.0797 53.8791 23.8157 53.9986 23.5211C54.1181 23.2265 54.1698 22.9088 54.15 22.5914C54.1649 22.229 54.054 21.8726 53.8362 21.5826C53.6107 21.3068 53.3292 21.0822 53.0103 20.9236C52.6359 20.7347 52.2433 20.5842 51.8385 20.4745C51.3992 20.3525 50.9546 20.2176 50.5048 20.0697C50.0499 19.9238 49.6045 19.7497 49.1712 19.5485C48.7397 19.3503 48.3438 19.0825 47.9994 18.7558C47.6455 18.4061 47.3677 17.9871 47.1835 17.525C46.959 16.9477 46.8523 16.3313 46.8697 15.7122C46.8716 15.1277 46.9922 14.5496 47.2241 14.0131C47.4561 13.4766 47.7946 12.9928 48.2191 12.591C48.6914 12.1521 49.2447 11.8092 49.848 11.5815C50.5505 11.316 51.2969 11.1859 52.0478 11.198C52.9277 11.1878 53.8025 11.3343 54.6311 11.6305C55.3785 11.8959 56.0639 12.3109 56.6454 12.8502L55.9255 14.242Z" fill="#3C4A63"/>
<path d="M67.9699 27.1029H66.7533C66.5461 27.112 66.3396 27.0721 66.1508 26.9865C66.0681 26.9354 65.9965 26.8685 65.94 26.7895C65.8834 26.7105 65.8432 26.6211 65.8216 26.5264L65.5815 25.7337C65.3159 25.9735 65.0364 26.1976 64.7446 26.4047C64.4783 26.5923 64.1946 26.7538 63.8973 26.887C63.5987 27.0195 63.2862 27.118 62.9656 27.1807C62.5979 27.2511 62.2241 27.2845 61.8497 27.2805C61.4056 27.2852 60.9634 27.2217 60.5386 27.0922C60.1597 26.9813 59.8082 26.7924 59.5065 26.5377C59.2121 26.277 58.9809 25.9527 58.8303 25.5894C58.6621 25.1703 58.5803 24.7216 58.5896 24.2701C58.5944 23.8328 58.7096 23.4038 58.9244 23.0228C59.1962 22.5645 59.5802 22.1829 60.0403 21.9141C60.6829 21.5315 61.3819 21.2528 62.1114 21.0881C63.1637 20.8494 64.241 20.7396 65.3198 20.7612V20.0733C65.3665 19.48 65.1982 18.8896 64.8456 18.4101C64.6702 18.2213 64.4551 18.0737 64.2158 17.9778C63.9766 17.8819 63.719 17.8402 63.4617 17.8556C63.084 17.8425 62.7068 17.8932 62.3458 18.0053C62.0822 18.0952 61.8281 18.2108 61.5871 18.3505L60.9908 18.6957C60.8063 18.7968 60.5987 18.8484 60.3883 18.8454C60.2213 18.8503 60.057 18.8017 59.9195 18.7067C59.789 18.6138 59.6801 18.4938 59.6004 18.3549L59.1149 17.5233C60.3873 16.3574 62.0595 15.7257 63.785 15.7591C64.3863 15.749 64.9836 15.8583 65.5423 16.0807C66.0376 16.2795 66.4847 16.582 66.8534 16.9679C67.2182 17.36 67.4962 17.8247 67.6693 18.3317C67.8605 18.8918 67.9549 19.4805 67.9482 20.0724L67.9699 27.1029ZM62.7193 25.4397C62.9765 25.4405 63.2332 25.4143 63.485 25.3616C63.7146 25.3125 63.9375 25.2363 64.149 25.1344C64.3618 25.031 64.5636 24.9065 64.7515 24.7628C64.9495 24.6024 65.1359 24.4282 65.3094 24.2416V22.3741C64.6479 22.3647 63.9869 22.4148 63.3343 22.5238C62.8942 22.5946 62.4648 22.7212 62.0565 22.9004C61.7814 23.019 61.544 23.2108 61.3702 23.4549C61.2373 23.6532 61.1673 23.887 61.1694 24.1258C61.1512 24.3176 61.1804 24.5108 61.2543 24.6887C61.3282 24.8666 61.4446 25.0236 61.5933 25.146C61.9201 25.3546 62.3048 25.4535 62.6917 25.4284L62.7193 25.4397Z" fill="#3C4A63"/>
<path d="M74.5957 15.7571C75.0515 15.7535 75.5062 15.8018 75.951 15.9012C76.3554 15.991 76.7459 16.1345 77.1121 16.3279H80.3428V17.3258C80.3511 17.4695 80.303 17.6107 80.2088 17.7194C80.0846 17.8301 79.9282 17.898 79.7625 17.9133L78.7584 18.0962C78.8321 18.2904 78.8881 18.4908 78.9256 18.695C78.9676 18.9143 78.9886 19.137 78.9884 19.3603C78.9956 19.8786 78.8809 20.3913 78.6535 20.8571C78.4307 21.2895 78.1159 21.6678 77.7313 21.9655C77.3165 22.2895 76.8456 22.5341 76.342 22.6872C75.7766 22.8618 75.1875 22.9478 74.5957 22.9424C74.1798 22.9424 73.765 22.9016 73.3571 22.8203C73.0075 23.031 72.8327 23.2675 72.8327 23.5298C72.8328 23.6341 72.8622 23.7362 72.9178 23.8245C72.9733 23.9128 73.0526 23.9836 73.1465 24.0288C73.4056 24.1482 73.6829 24.2231 73.9668 24.2506C74.3501 24.2973 74.7359 24.3195 75.122 24.3172C75.5535 24.3172 75.9943 24.3357 76.4443 24.3727C76.8887 24.4072 77.3304 24.4701 77.7667 24.561C78.1724 24.6426 78.5624 24.7885 78.9218 24.9934C79.2663 25.1991 79.551 25.4911 79.7478 25.8407C79.9713 26.2375 80.0799 26.6886 80.0616 27.1436C80.0584 27.648 79.9307 28.1437 79.6897 28.5868C79.4282 29.0711 79.0669 29.4943 78.6297 29.8285C78.117 30.2161 77.5413 30.5124 76.9279 30.7044C76.1843 30.9373 75.4081 31.0496 74.629 31.037C73.8777 31.0502 73.1278 30.9682 72.3972 30.7932C71.8445 30.6614 71.3171 30.4401 70.836 30.138C70.4579 29.8919 70.1439 29.5592 69.92 29.1677C69.7211 28.8318 69.6149 28.4493 69.6121 28.059C69.598 27.5758 69.7698 27.1055 70.0919 26.7451C70.4615 26.359 70.9191 26.0683 71.4256 25.8978C71.1554 25.7531 70.9253 25.5436 70.756 25.2881C70.5768 24.991 70.4895 24.6477 70.5049 24.3011C70.5074 24.1256 70.5378 23.9516 70.595 23.7856C70.656 23.5884 70.7463 23.4015 70.8627 23.2311C70.9914 23.0479 71.1433 22.8821 71.3145 22.7378C71.5121 22.571 71.7295 22.4295 71.9619 22.3163C71.4172 22.0329 70.9557 21.6125 70.6229 21.0966C70.2905 20.5613 70.1217 19.9406 70.1374 19.3107C70.1279 18.8031 70.2369 18.3002 70.4558 17.8421C70.6746 17.384 70.9974 16.9833 71.3983 16.6719C71.8196 16.3448 72.2986 16.1 72.8105 15.9501C73.3926 15.7973 73.9943 15.7322 74.5957 15.7571ZM77.5584 27.5767C77.5642 27.4759 77.5499 27.375 77.5164 27.2798C77.4829 27.1846 77.4308 27.0971 77.3632 27.0222C77.2078 26.8678 77.0159 26.7553 76.8052 26.6952C76.5477 26.6106 76.2822 26.553 76.0129 26.5232C75.6925 26.4852 75.3702 26.4666 75.0476 26.4677H73.9985C73.6471 26.468 73.2969 26.427 72.9551 26.3456C72.6783 26.4986 72.4339 26.7039 72.2352 26.95C72.0521 27.1712 71.9533 27.4502 71.9563 27.7373C71.9549 27.9317 72.0049 28.123 72.1013 28.2918C72.2158 28.4772 72.3776 28.6288 72.5701 28.7312C72.832 28.8711 73.1145 28.9684 73.407 29.0196C73.821 29.0952 74.2414 29.1305 74.6622 29.125C75.0984 29.131 75.5341 29.092 75.9623 29.0086C76.2784 28.9488 76.5833 28.8403 76.8661 28.6869C77.0787 28.5724 77.2576 28.4042 77.3848 28.1989C77.4981 28.0111 77.5581 27.796 77.5584 27.5767ZM74.5957 21.2566C74.8936 21.2618 75.1901 21.2149 75.4719 21.1179C75.7027 21.0378 75.9139 20.9094 76.0913 20.7413C76.255 20.5861 76.3826 20.3968 76.4651 20.1868C76.5519 19.9507 76.5954 19.7009 76.5934 19.4494C76.6057 19.2088 76.5679 18.9683 76.4825 18.7431C76.397 18.5179 76.2657 18.3129 76.097 18.1411C75.6627 17.8269 75.1403 17.6578 74.6043 17.6578C74.0683 17.6578 73.546 17.8269 73.1117 18.1411C72.9429 18.3129 72.8116 18.5179 72.7262 18.7431C72.6407 18.9683 72.603 19.2088 72.6153 19.4494C72.6137 19.6976 72.6571 19.944 72.7433 20.1768C72.8272 20.386 72.9546 20.575 73.117 20.7313C73.2945 20.9033 73.5079 21.0339 73.7418 21.1138C74.0163 21.2094 74.305 21.2577 74.5957 21.2566Z" fill="#3C4A63"/>
<path d="M86.7892 15.774C87.4553 15.7672 88.117 15.8818 88.742 16.1123C89.3219 16.3242 89.8491 16.6589 90.2875 17.0935C90.7299 17.5457 91.072 18.086 91.2917 18.6792C91.543 19.3657 91.666 20.0925 91.6545 20.8235C91.6655 20.9915 91.6655 21.16 91.6545 21.3281C91.6431 21.4392 91.6089 21.5468 91.554 21.6441C91.5098 21.7161 91.4439 21.7723 91.3658 21.8047C91.2676 21.8408 91.1634 21.8577 91.0589 21.8546H84.0829C84.0783 22.7804 84.4093 23.6765 85.0146 24.377C85.2989 24.6488 85.6354 24.8602 86.0036 24.9983C86.3719 25.1365 86.7644 25.1987 87.1573 25.181C87.5347 25.1878 87.9109 25.1373 88.2732 25.0313C88.5594 24.9423 88.8375 24.8291 89.1045 24.693L89.7296 24.3547C89.8864 24.2604 90.0653 24.2088 90.2483 24.205C90.3474 24.2017 90.4456 24.2246 90.5329 24.2716C90.6145 24.3164 90.6851 24.3789 90.7394 24.4545L91.5261 25.4301C91.2367 25.7703 90.8982 26.0654 90.5219 26.306C90.1556 26.5346 89.7644 26.7207 89.3558 26.8605C88.9539 27.001 88.539 27.1013 88.1172 27.1598C87.7124 27.2174 87.3041 27.2471 86.8953 27.2487C86.1522 27.2544 85.4145 27.1228 84.7193 26.8605C84.0596 26.611 83.4618 26.2215 82.967 25.7188C82.451 25.1843 82.0519 24.5481 81.7953 23.8508C81.4949 23.0235 81.3488 22.1481 81.3644 21.2681C81.3612 20.5362 81.4887 19.8097 81.741 19.1226C81.9751 18.4737 82.3369 17.8783 82.8051 17.3716C83.2759 16.8668 83.8457 16.4645 84.4789 16.1898C85.2111 15.8899 85.9984 15.7482 86.7892 15.774ZM86.8451 17.6976C86.5083 17.6788 86.1713 17.728 85.854 17.8423C85.5367 17.9566 85.2457 18.1336 84.9983 18.3629C84.5201 18.8813 84.2228 19.5407 84.151 20.2423H89.2284C89.2298 19.9079 89.181 19.5752 89.0834 19.2554C88.9951 18.9587 88.847 18.6833 88.6482 18.4461C88.4456 18.2078 88.192 18.0183 87.906 17.8916C87.5701 17.7522 87.2083 17.6862 86.8447 17.6979L86.8451 17.6976Z" fill="#3C4A63"/>
<path d="M94.8047 27.101V11.7157H99.2683C100.041 11.7023 100.812 11.7899 101.562 11.9761C102.142 12.1188 102.687 12.3792 103.162 12.7412C103.577 13.0669 103.904 13.4922 104.111 13.9776C104.328 14.5046 104.435 15.0707 104.424 15.6408C104.426 16.0421 104.354 16.4404 104.212 16.816C104.067 17.197 103.857 17.5501 103.591 17.8597C103.308 18.1895 102.972 18.4704 102.598 18.6913C102.183 18.9437 101.732 19.1311 101.26 19.2471C102.293 19.353 103.267 19.775 104.05 20.4555C104.379 20.7742 104.636 21.1587 104.805 21.584C104.975 22.0092 105.052 22.4654 105.032 22.9227C105.041 23.5286 104.922 24.1296 104.681 24.6856C104.451 25.1902 104.108 25.6344 103.677 25.9829C103.191 26.3665 102.633 26.6492 102.036 26.8145C101.31 27.0182 100.558 27.1153 99.8043 27.1029L94.8047 27.101ZM95.9206 18.9128H99.2683C99.8912 18.9277 100.512 18.8358 101.104 18.6411C101.564 18.4886 101.989 18.2454 102.354 17.9259C102.665 17.6477 102.909 17.3028 103.068 16.917C103.22 16.5476 103.297 16.1521 103.297 15.7528C103.327 15.3099 103.252 14.8662 103.08 14.4571C102.908 14.048 102.642 13.6849 102.305 13.3967C101.646 12.8645 100.626 12.5984 99.246 12.5984H95.8983L95.9206 18.9128ZM95.9206 19.7287V26.2086H99.8256C100.925 26.2882 102.018 25.9781 102.911 25.3327C103.26 25.0285 103.535 24.6487 103.715 24.2221C103.895 23.7955 103.975 23.3334 103.949 22.8712C103.956 22.4197 103.861 21.9724 103.67 21.563C103.484 21.1736 103.209 20.8336 102.867 20.5707C102.481 20.2808 102.044 20.0677 101.578 19.9431C101.01 19.7913 100.425 19.7186 99.8372 19.7269L95.9206 19.7287Z" fill="#3C4A63"/>
<path d="M110.229 12.5359C110.229 12.6628 110.2 12.7881 110.144 12.9018C110.09 13.0127 110.019 13.1139 109.932 13.2012C109.843 13.2883 109.739 13.3579 109.625 13.4064C109.508 13.4563 109.381 13.482 109.254 13.482C109.126 13.482 109 13.4563 108.883 13.4064C108.768 13.358 108.664 13.2884 108.576 13.2012C108.489 13.1147 108.42 13.0133 108.369 12.9018C108.318 12.7868 108.292 12.662 108.293 12.5359C108.293 12.4064 108.319 12.2783 108.371 12.1594C108.468 11.9271 108.652 11.7421 108.884 11.6435C109.001 11.5936 109.128 11.5679 109.255 11.5679C109.383 11.5679 109.509 11.5936 109.626 11.6435C109.74 11.6921 109.845 11.7617 109.933 11.8487C110.022 11.9384 110.094 12.0436 110.145 12.159C110.2 12.277 110.229 12.4057 110.229 12.5359ZM109.771 16.2671V27.105H108.732V16.2891L109.771 16.2671Z" fill="#3C4A63"/>
<path d="M117.88 16.1096C118.599 16.0979 119.313 16.2337 119.978 16.5087C120.575 16.7557 121.109 17.135 121.538 17.6181C121.978 18.1319 122.308 18.7298 122.509 19.3754C122.954 20.875 122.954 22.4715 122.509 23.9711C122.307 24.6191 121.975 25.2191 121.533 25.734C121.104 26.2181 120.57 26.5971 119.972 26.8418C118.624 27.3634 117.13 27.3634 115.782 26.8418C115.181 26.5964 114.645 26.2172 114.213 25.7331C113.773 25.2216 113.443 24.6253 113.242 23.9811C112.796 22.4816 112.796 20.8849 113.242 19.3854C113.442 18.7393 113.772 18.1412 114.213 17.6281C114.646 17.1455 115.182 16.7666 115.782 16.5194C116.446 16.2408 117.16 16.1013 117.88 16.1096ZM117.88 26.4266C118.455 26.4353 119.025 26.3219 119.554 26.094C120.031 25.8799 120.448 25.5525 120.77 25.1403C121.109 24.6949 121.356 24.1859 121.495 23.6435C121.826 22.3651 121.839 21.0254 121.534 19.7406C121.395 19.1948 121.149 18.6822 120.809 18.2328C120.488 17.8177 120.07 17.4868 119.593 17.2688C118.502 16.8222 117.28 16.8222 116.189 17.2688C115.712 17.4871 115.294 17.8181 114.973 18.2334C114.629 18.6824 114.376 19.1948 114.23 19.7413C113.902 21.0272 113.902 22.3748 114.23 23.6607C114.373 24.203 114.621 24.7117 114.961 25.1576C115.283 25.5696 115.701 25.8969 116.178 26.1112C116.715 26.3397 117.296 26.4498 117.88 26.4338V26.4266Z" fill="#3C4A63"/>
<path d="M125.677 27.106V16.29H126.235C126.274 16.2854 126.315 16.2889 126.353 16.3002C126.391 16.3115 126.427 16.3305 126.458 16.3559C126.489 16.3812 126.514 16.4125 126.532 16.4479C126.55 16.4833 126.561 16.522 126.564 16.5617L126.664 18.1917C127.142 17.584 127.731 17.0724 128.4 16.6838C129.08 16.3009 129.851 16.1088 130.631 16.1277C131.171 16.1173 131.708 16.2133 132.211 16.4102C132.643 16.5882 133.026 16.8681 133.326 17.2261C133.638 17.6024 133.869 18.0381 134.007 18.5067C134.167 19.0577 134.244 19.6295 134.236 20.2032V27.106H133.198V20.1928C133.248 19.3389 133 18.4942 132.495 17.8035C132.229 17.5038 131.897 17.2697 131.525 17.1197C131.154 16.9696 130.752 16.9077 130.352 16.9386C129.65 16.9366 128.961 17.1284 128.36 17.4928C127.721 17.8842 127.164 18.3964 126.72 19.0006V27.106H125.677Z" fill="#3C4A63"/>
<path d="M141.73 16.1096C142.313 16.1035 142.891 16.2109 143.432 16.4256C143.945 16.6309 144.408 16.9449 144.788 17.346C145.187 17.7737 145.493 18.2797 145.686 18.8319C145.912 19.4821 146.022 20.1671 146.01 20.8553C146.02 20.9692 145.995 21.0834 145.937 21.1823C145.909 21.213 145.875 21.237 145.836 21.2524C145.797 21.2678 145.756 21.2742 145.714 21.2711H137.858V21.4757C137.846 22.1992 137.942 22.9204 138.142 23.6155C138.305 24.1821 138.58 24.7101 138.951 25.1679C139.294 25.579 139.73 25.9018 140.224 26.1094C140.754 26.3274 141.324 26.4349 141.897 26.4254C142.378 26.4346 142.857 26.3749 143.32 26.2481C143.67 26.1478 144.008 26.0122 144.33 25.8433C144.557 25.7234 144.775 25.5882 144.983 25.4384C145.082 25.3486 145.203 25.2873 145.334 25.2611C145.377 25.2596 145.419 25.2689 145.457 25.2883C145.495 25.3077 145.528 25.3365 145.552 25.3719L145.836 25.7212C145.637 25.9596 145.402 26.1654 145.139 26.3309C144.836 26.5264 144.512 26.6881 144.174 26.8132C143.811 26.9511 143.438 27.0587 143.058 27.1349C142.655 27.2151 142.246 27.256 141.836 27.257C141.138 27.2651 140.445 27.1331 139.799 26.8688C139.196 26.6225 138.656 26.2436 138.22 25.7601C137.74 25.2278 137.376 24.6008 137.153 23.9196C136.903 23.1281 136.782 22.3013 136.797 21.4713C136.789 20.7425 136.903 20.0176 137.132 19.3258C137.336 18.7018 137.662 18.125 138.092 17.6294C138.52 17.1514 139.048 16.773 139.638 16.5207C140.298 16.2377 141.012 16.0976 141.73 16.1096ZM141.73 16.8803C141.216 16.872 140.705 16.9603 140.224 17.1408C139.79 17.3063 139.397 17.5615 139.069 17.8898C138.735 18.2292 138.469 18.6278 138.282 19.065C138.074 19.5543 137.94 20.072 137.886 20.6008H145.056C145.063 20.0718 144.982 19.5452 144.816 19.0431C144.673 18.6109 144.443 18.2127 144.14 17.8732C143.848 17.5552 143.49 17.3054 143.092 17.1414C142.665 16.9683 142.208 16.8815 141.747 16.8863L141.73 16.8803Z" fill="#3C4A63"/>
<path d="M151.888 27.281C151.575 27.3001 151.262 27.2559 150.967 27.1512C150.672 27.0464 150.401 26.8832 150.17 26.6713C149.947 26.4146 149.779 26.1162 149.673 25.7935C149.568 25.4708 149.528 25.1302 149.556 24.7919V17.3964H147.994C147.923 17.3982 147.853 17.3746 147.798 17.3298C147.773 17.3071 147.752 17.2788 147.739 17.2472C147.725 17.2156 147.719 17.1813 147.72 17.1469V16.7421L149.578 16.609L149.84 12.7298C149.848 12.6644 149.878 12.6034 149.924 12.5565C149.948 12.5307 149.978 12.5104 150.01 12.497C150.043 12.4835 150.078 12.4773 150.114 12.4787H150.599V16.609H154.025V17.3797H150.599V24.7307C150.594 24.9905 150.634 25.2492 150.716 25.4957C150.779 25.7024 150.887 25.8921 151.034 26.0502C151.167 26.187 151.329 26.2913 151.508 26.3553C151.698 26.4224 151.899 26.4561 152.1 26.455C152.332 26.4599 152.563 26.4204 152.781 26.3386C152.952 26.2717 153.117 26.1881 153.272 26.0891C153.391 26.0136 153.504 25.9303 153.612 25.8397C153.667 25.7795 153.739 25.7386 153.819 25.7232C153.854 25.7278 153.888 25.7401 153.918 25.7592C153.948 25.7784 153.973 25.8039 153.992 25.834L154.276 26.2887C153.981 26.605 153.621 26.8545 153.222 27.0205C152.8 27.1985 152.346 27.2872 151.888 27.281Z" fill="#3C4A63"/>
<path d="M155.301 16.2892H156.127C156.218 16.2861 156.307 16.3156 156.378 16.3724C156.438 16.4178 156.485 16.4792 156.512 16.5497L159.257 25.088C159.306 25.2445 159.347 25.4034 159.38 25.5641L159.469 26.0188C159.508 25.8691 159.548 25.7138 159.592 25.5641C159.637 25.4144 159.686 25.2537 159.743 25.0874L162.666 16.4775C162.68 16.4076 162.719 16.3452 162.775 16.3014C162.832 16.258 162.902 16.2357 162.973 16.2387H163.381C163.454 16.2349 163.525 16.2572 163.583 16.3014C163.642 16.345 163.682 16.4078 163.698 16.4787L166.577 25.088C166.682 25.399 166.77 25.7155 166.839 26.0361C166.869 25.8846 166.901 25.7312 166.934 25.576C166.97 25.4125 167.017 25.2514 167.073 25.0937L169.83 16.5553C169.852 16.4752 169.901 16.4054 169.97 16.3579C170.038 16.3104 170.121 16.2882 170.204 16.2952H170.969L167.286 27.1052H166.522C166.405 27.1052 166.321 27.0277 166.271 26.878L163.303 18.0798C163.266 17.9727 163.232 17.8637 163.202 17.7528C163.173 17.6419 163.147 17.5329 163.124 17.4258C163.102 17.5329 163.078 17.6419 163.052 17.7528C163.026 17.8634 162.995 17.9725 162.958 18.0798L159.939 26.8664C159.93 26.9291 159.898 26.9865 159.85 27.028C159.802 27.0697 159.741 27.093 159.677 27.0936H158.944L155.301 16.2892Z" fill="#3C4A63"/>
<path d="M177.225 16.1096C177.944 16.0979 178.659 16.2337 179.323 16.5087C179.921 16.7553 180.455 17.1344 180.885 17.6174C181.325 18.1312 181.655 18.7291 181.856 19.3747C182.301 20.8743 182.301 22.4709 181.856 23.9705C181.655 24.6142 181.324 25.2102 180.885 25.7224C180.457 26.207 179.922 26.5864 179.323 26.8311C177.975 27.3528 176.481 27.3528 175.133 26.8311C174.532 26.5858 173.996 26.2066 173.564 25.7224C173.124 25.2109 172.794 24.6147 172.593 23.9705C172.147 22.471 172.147 20.8742 172.593 19.3747C172.793 18.7286 173.123 18.1305 173.564 17.6174C173.997 17.1349 174.533 16.756 175.133 16.5087C175.796 16.2345 176.508 16.0987 177.225 16.1096ZM177.225 26.4266C177.8 26.4353 178.371 26.322 178.899 26.094C179.377 25.8826 179.797 25.5576 180.121 25.1472C180.46 24.7018 180.707 24.1928 180.846 23.6504C181.167 22.3636 181.167 21.0177 180.846 19.7309C180.707 19.1851 180.461 18.6725 180.121 18.2231C179.8 17.8077 179.382 17.4766 178.905 17.2584C177.814 16.8118 176.592 16.8118 175.501 17.2584C175.024 17.4766 174.606 17.8074 174.285 18.2224C173.951 18.6775 173.711 19.1937 173.576 19.7416C173.248 21.0275 173.248 22.3751 173.576 23.661C173.719 24.2033 173.967 24.712 174.307 25.1579C174.629 25.5698 175.047 25.897 175.523 26.1112C176.061 26.3397 176.641 26.4497 177.225 26.4338V26.4266Z" fill="#3C4A63"/>
<path d="M185.023 27.1033V16.2873H185.581C185.677 16.279 185.773 16.3066 185.849 16.3648C185.912 16.4365 185.946 16.5296 185.943 16.6253L186.032 18.9095C186.323 18.1176 186.805 17.4094 187.434 16.8474C188.04 16.3388 188.814 16.0722 189.605 16.099C189.912 16.0971 190.217 16.1325 190.515 16.2044C190.788 16.2729 191.051 16.3738 191.3 16.5051L191.155 17.2202C191.152 17.2458 191.144 17.2706 191.132 17.2931C191.119 17.3156 191.102 17.3355 191.082 17.3514C191.062 17.3674 191.039 17.3793 191.014 17.3863C190.989 17.3933 190.963 17.3953 190.937 17.3922C190.874 17.3872 190.812 17.3723 190.753 17.348L190.452 17.2482C190.307 17.206 190.161 17.1726 190.012 17.1484C189.813 17.1174 189.612 17.1026 189.41 17.1041C189.036 17.0901 188.663 17.151 188.314 17.2834C187.964 17.4158 187.644 17.6169 187.373 17.8748C186.775 18.5007 186.336 19.2602 186.09 20.0903V27.1033H185.023Z" fill="#3C4A63"/>
<path d="M194.973 11.2788V20.9249H195.475C195.573 20.9252 195.671 20.9102 195.765 20.8807C195.88 20.8361 195.983 20.7659 196.066 20.6754L200.435 16.5564C200.509 16.4823 200.591 16.4172 200.681 16.3625C200.779 16.3075 200.891 16.2807 201.004 16.285H201.925L197.121 20.8185L196.915 21.0181C196.849 21.079 196.776 21.1312 196.697 21.1735C196.806 21.2259 196.906 21.2951 196.993 21.3787L197.244 21.6392L202.265 27.0994H201.355C201.26 27.1007 201.166 27.0799 201.081 27.0385C200.991 26.9909 200.909 26.9271 200.842 26.8502L196.301 21.9561C196.204 21.8473 196.089 21.7571 195.96 21.69C195.807 21.6341 195.643 21.6096 195.48 21.6178H194.989V27.0781H193.952V11.2788H194.973Z" fill="#3C4A63"/>
<path d="M210.698 17.6321C210.678 17.6783 210.644 17.7172 210.602 17.7439C210.559 17.7706 210.509 17.7838 210.458 17.7818C210.342 17.7674 210.233 17.7192 210.145 17.6431C209.983 17.5317 209.816 17.4298 209.643 17.338C209.399 17.211 209.142 17.1088 208.878 17.033C208.515 16.9337 208.139 16.8872 207.762 16.8949C207.396 16.8901 207.032 16.9463 206.685 17.0613C206.384 17.1607 206.103 17.3128 205.855 17.5103C205.625 17.686 205.434 17.909 205.297 18.1643C205.172 18.4077 205.107 18.6778 205.109 18.9516C205.097 19.2557 205.189 19.5548 205.371 19.7989C205.562 20.0281 205.797 20.2166 206.062 20.3534C206.371 20.5221 206.696 20.6595 207.033 20.7635L208.148 21.1128C208.52 21.2275 208.892 21.3569 209.264 21.501C209.611 21.6418 209.938 21.8283 210.235 22.0555C210.516 22.2617 210.751 22.5242 210.926 22.8262C211.109 23.1664 211.199 23.5487 211.188 23.9349C211.192 24.3854 211.105 24.832 210.932 25.2479C210.764 25.6488 210.511 26.0083 210.189 26.3013C209.84 26.6121 209.433 26.8513 208.991 27.0052C208.471 27.1865 207.924 27.2746 207.373 27.2656C206.695 27.2817 206.02 27.1571 205.392 26.8997C204.848 26.6636 204.345 26.3423 203.902 25.948L204.153 25.5764C204.184 25.5237 204.226 25.4783 204.276 25.4434C204.332 25.4113 204.396 25.3959 204.46 25.3991C204.593 25.4159 204.717 25.4764 204.812 25.5711C204.988 25.7108 205.174 25.8366 205.37 25.9476C205.633 26.1012 205.912 26.2273 206.201 26.3242C206.6 26.4496 207.016 26.5077 207.434 26.4962C207.848 26.5047 208.259 26.441 208.651 26.3079C208.975 26.1972 209.273 26.0218 209.527 25.7923C209.767 25.5821 209.957 25.3211 210.084 25.0282C210.205 24.7325 210.265 24.416 210.263 24.0968C210.275 23.7751 210.183 23.458 210.001 23.193C209.815 22.9439 209.58 22.7363 209.31 22.5833C209.003 22.4061 208.677 22.263 208.339 22.1565L207.223 21.8073C206.85 21.6922 206.478 21.5645 206.106 21.4241C205.76 21.2956 205.434 21.1202 205.135 20.9029C204.855 20.6981 204.62 20.4376 204.445 20.1378C204.261 19.7977 204.171 19.4154 204.181 19.0291C204.181 18.6454 204.267 18.2666 204.432 17.9205C204.59 17.5585 204.822 17.2336 205.113 16.9668C205.443 16.6859 205.821 16.4679 206.229 16.3238C206.712 16.1581 207.22 16.0772 207.731 16.0847C208.333 16.0747 208.932 16.1723 209.499 16.3731C210.024 16.5708 210.505 16.8684 210.916 17.2495L210.698 17.6321Z" fill="#3C4A63"/>
<path d="M9.94032 23.1249L9.62181 23.6515C9.71488 23.7078 9.82121 23.7384 9.92996 23.7402C10.0387 23.7421 10.146 23.715 10.2409 23.6619C10.3358 23.6088 10.415 23.5314 10.4703 23.4378C10.5256 23.3441 10.555 23.2374 10.5557 23.1287L9.94032 23.1249ZM10.0031 12.5527L10.6185 12.5562C10.6191 12.4472 10.5908 12.34 10.5364 12.2456C10.4821 12.1511 10.4036 12.0728 10.309 12.0186L10.0031 12.5527ZM0.73354 7.24188L1.0395 6.70841C0.945889 6.65476 0.839817 6.62667 0.731924 6.62696C0.624031 6.62724 0.518108 6.65588 0.424778 6.71002C0.331449 6.76415 0.253992 6.84188 0.200177 6.93539C0.146361 7.0289 0.118078 7.13492 0.118164 7.24282L0.73354 7.24188ZM0.750172 17.5646H0.134796C0.134822 17.6705 0.162191 17.7746 0.214252 17.8669C0.266314 17.9591 0.341306 18.0364 0.431971 18.0911L0.750172 17.5646ZM10.5554 23.1284L10.6181 12.5562L9.3874 12.549L9.32464 23.1211L10.5554 23.1284ZM10.3075 12.0196L1.0395 6.70809L0.427578 7.77504L9.69524 13.0868L10.3075 12.0196ZM0.118164 7.24282L0.134796 17.5655L1.36555 17.5636L1.34892 7.24094L0.118164 7.24282ZM0.431971 18.0911L9.6215 23.6515L10.2585 22.5987L1.06869 17.038L0.431971 18.0911Z" fill="#679EC1"/>
<path d="M9.69958 22.5926C9.55731 22.6726 9.45263 22.8058 9.40858 22.963C9.36453 23.1201 9.38472 23.2883 9.4647 23.4306C9.54468 23.5729 9.6779 23.6776 9.83506 23.7216C9.99222 23.7657 10.1604 23.7455 10.3027 23.6655L9.69958 22.5926ZM18.0861 18.5831L18.3883 19.1191C18.5276 19.0375 18.6292 18.9045 18.6713 18.7487C18.7135 18.5929 18.6927 18.4267 18.6135 18.2861C18.5343 18.1455 18.4031 18.0416 18.248 17.9968C18.0929 17.952 17.9265 17.97 17.7845 18.0468L18.0861 18.5831ZM15.0387 19.5935C14.9682 19.6332 14.9063 19.6864 14.8564 19.75C14.8065 19.8136 14.7696 19.8865 14.7479 19.9643C14.7261 20.0422 14.7199 20.1236 14.7296 20.2039C14.7393 20.2842 14.7648 20.3617 14.8044 20.4322C14.8441 20.5026 14.8973 20.5646 14.9609 20.6145C15.0245 20.6644 15.0974 20.7012 15.1752 20.723C15.2531 20.7448 15.3345 20.751 15.4148 20.7412C15.4951 20.7315 15.5726 20.7061 15.6431 20.6664L15.0387 19.5935ZM10.3027 23.6655L18.3876 19.1194L17.7845 18.0468L9.69958 22.5926L10.3027 23.6655ZM17.7839 18.0483L15.039 19.5938L15.6431 20.6664L18.3883 19.1194L17.7839 18.0483Z" fill="#679EC1"/>
<path d="M19.1957 39.2787L18.8769 39.8053C18.9699 39.8617 19.0763 39.8923 19.185 39.8942C19.2938 39.8961 19.4011 39.8691 19.4961 39.816C19.591 39.7629 19.6702 39.6856 19.7256 39.5919C19.7809 39.4983 19.8104 39.3916 19.8111 39.2828L19.1957 39.2787ZM19.2625 28.7066L19.8779 28.7103C19.8786 28.6013 19.8503 28.494 19.796 28.3995C19.7416 28.305 19.6631 28.2267 19.5685 28.1725L19.2625 28.7066ZM9.98891 23.3957L10.2949 22.8622C10.2012 22.8086 10.0951 22.7805 9.98722 22.7808C9.8793 22.7811 9.77335 22.8097 9.68001 22.8639C9.58667 22.9181 9.50922 22.9958 9.45543 23.0894C9.40164 23.183 9.37339 23.289 9.37354 23.3969L9.98891 23.3957ZM10.0112 33.7184H9.39582C9.39605 33.824 9.42345 33.9277 9.47538 34.0197C9.52732 34.1116 9.60204 34.1887 9.69236 34.2434L10.0112 33.7184ZM19.8108 39.2828L19.8776 28.7106L18.6468 28.7028L18.58 39.275L19.8108 39.2828ZM19.5682 28.174L10.2949 22.8616L9.68326 23.9285L18.9566 29.2407L19.5682 28.174ZM9.37354 23.3969L9.39582 33.7196L10.6266 33.7171L10.6043 23.3944L9.37354 23.3969ZM9.69236 34.2446L18.8766 39.8053L19.5142 38.7531L10.33 33.1918L9.69236 34.2446Z" fill="#679EC1"/>
<path d="M30.3969 23.5251L31.012 23.5399C31.0146 23.4311 30.9883 23.3235 30.9358 23.2282C30.8833 23.1329 30.8065 23.0532 30.7132 22.9972C30.6198 22.9413 30.5133 22.9111 30.4045 22.9097C30.2957 22.9083 30.1885 22.9359 30.0938 22.9894L30.3969 23.5251ZM21.1515 28.7585L20.8484 28.2228C20.7535 28.2765 20.6746 28.3544 20.6198 28.4486C20.5649 28.5427 20.5361 28.6498 20.5361 28.7588L21.1515 28.7585ZM21.1572 39.3846H20.5418C20.5418 39.4926 20.5701 39.5986 20.6241 39.6921C20.678 39.7856 20.7556 39.8633 20.849 39.9174C20.9425 39.9714 21.0485 39.9999 21.1565 40.0001C21.2644 40.0002 21.3705 39.9719 21.4641 39.9181L21.1572 39.3846ZM30.1402 34.2137L30.4474 34.7472C30.539 34.6945 30.6154 34.6191 30.6694 34.5283C30.7234 34.4375 30.753 34.3343 30.7556 34.2288L30.1402 34.2137ZM30.0938 22.9894L20.8484 28.2228L21.4546 29.2938L30.7 24.0608L30.0938 22.9894ZM20.5361 28.7588L20.5418 39.3862H21.7725L21.7669 28.7582L20.5361 28.7588ZM21.4641 39.9181L30.4474 34.7468L29.8333 33.6799L20.8499 38.8527L21.4641 39.9181ZM30.7556 34.2284L31.0123 23.5399L29.7818 23.5104L29.5251 34.1989L30.7556 34.2284Z" fill="#6DB56D"/>
<path d="M30.0836 23.8046C30.2244 23.8871 30.3922 23.9103 30.5501 23.8691C30.7081 23.8279 30.8431 23.7256 30.9257 23.5848C31.0082 23.444 31.0314 23.2761 30.9902 23.1182C30.9489 22.9603 30.8467 22.8252 30.7058 22.7427L30.0836 23.8046ZM22.3934 18.5832L22.7044 18.0522C22.5636 17.9697 22.3957 17.9465 22.2378 17.9877C22.0799 18.029 21.9448 18.1312 21.8623 18.272C21.7798 18.4129 21.7566 18.5807 21.7978 18.7386C21.839 18.8965 21.9413 19.0316 22.0821 19.1141L22.3934 18.5832ZM24.7997 20.7055C24.9404 20.7856 25.107 20.807 25.2634 20.7651C25.4197 20.7232 25.5533 20.6214 25.6352 20.4817C25.717 20.342 25.7405 20.1757 25.7005 20.0188C25.6605 19.8619 25.5603 19.7271 25.4216 19.6435L24.7997 20.7055ZM30.7058 22.7424L22.7047 18.0522L22.0821 19.1141L30.0836 23.8046L30.7058 22.7424ZM22.0824 19.1141L24.7997 20.7051L25.4216 19.6432L22.7044 18.0522L22.0824 19.1141Z" fill="#6DB56D"/>
<path d="M39.8427 7.48195L40.4578 7.4967C40.4603 7.38796 40.4341 7.28048 40.3816 7.1852C40.3291 7.08992 40.2523 7.01025 40.159 6.95432C40.0657 6.89838 39.9593 6.86816 39.8505 6.86675C39.7418 6.86534 39.6346 6.89278 39.5399 6.94629L39.8427 7.48195ZM30.5973 12.7097L30.2957 12.174C30.2006 12.2275 30.1214 12.3053 30.0663 12.3995C30.0111 12.4937 29.982 12.6008 29.9819 12.71L30.5973 12.7097ZM30.603 23.3415H29.9876C29.9875 23.4495 30.0159 23.5556 30.0699 23.6491C30.1238 23.7427 30.2014 23.8204 30.2949 23.8745C30.3884 23.9285 30.4945 23.957 30.6025 23.9571C30.7105 23.9572 30.8166 23.9288 30.9102 23.8749L30.603 23.3415ZM39.586 18.1636L39.8932 18.6971C39.9847 18.6444 40.0611 18.569 40.115 18.4782C40.1689 18.3874 40.1985 18.2843 40.2011 18.1787L39.586 18.1636ZM39.5399 6.94629L30.2957 12.174L30.9014 13.2453L40.1455 8.01762L39.5399 6.94629ZM29.9819 12.71L29.9876 23.343H31.2183L31.2127 12.7094L29.9819 12.71ZM30.9102 23.8749L39.8935 18.6971L39.2788 17.6302L30.2957 22.8096L30.9102 23.8749ZM40.2014 18.1796L40.4581 7.4967L39.2276 7.46721L38.9709 18.1501L40.2014 18.1796Z" fill="#6DB56D"/>
<path d="M20.5606 5.84211L20.2672 5.3011C20.1712 5.35318 20.0908 5.42986 20.0343 5.52326C19.9777 5.61667 19.947 5.72344 19.9454 5.83263C19.9437 5.94181 19.9711 6.04947 20.0248 6.14455C20.0785 6.23964 20.1565 6.31872 20.2509 6.3737L20.5606 5.84211ZM29.7392 11.1862L29.4294 11.7181C29.5229 11.7726 29.6291 11.8015 29.7373 11.8018C29.8455 11.8021 29.9519 11.7739 30.0458 11.72L29.7392 11.1862ZM39.0015 5.86407L39.3081 6.39755C39.4019 6.34361 39.4798 6.26589 39.534 6.17223C39.5882 6.07857 39.6167 5.97228 39.6167 5.86407C39.6167 5.75587 39.5882 5.64958 39.534 5.55592C39.4798 5.46226 39.4019 5.38454 39.3081 5.3306L39.0015 5.86407ZM30.0015 0.719519L30.3068 0.186047C30.2159 0.134062 30.1131 0.106171 30.0083 0.105018C29.9035 0.103864 29.8002 0.129487 29.7081 0.179457L30.0015 0.719519ZM20.2509 6.3737L29.4294 11.7181L30.0498 10.6543L20.8703 5.3102L20.2509 6.3737ZM30.0458 11.7197L39.3071 6.39786L38.694 5.33091L29.4326 10.6528L30.0458 11.7197ZM39.3071 5.32997L30.3068 0.18542L29.6962 1.25236L38.6962 6.39692L39.3071 5.32997ZM29.7081 0.178516L20.2672 5.3011L20.8553 6.3828L30.2949 1.26052L29.7081 0.178516Z" fill="#EB8231"/>
<path d="M20.9518 5.96089C20.9525 5.88008 20.9373 5.79991 20.9071 5.72497C20.8768 5.65003 20.8321 5.58177 20.7755 5.5241C20.6612 5.40764 20.5053 5.34137 20.342 5.33987C20.2612 5.33913 20.1811 5.35431 20.1061 5.38455C20.0312 5.41479 19.9629 5.4595 19.9053 5.51611C19.7888 5.63046 19.7225 5.78639 19.721 5.9496L20.9518 5.96089ZM20.2526 15.1856L19.6372 15.1802C19.6358 15.3434 19.6992 15.5005 19.8136 15.617C19.928 15.7334 20.0839 15.7996 20.2471 15.8011C20.4103 15.8026 20.5674 15.7391 20.6839 15.6247C20.8003 15.5104 20.8665 15.3544 20.868 15.1912L20.2526 15.1856ZM20.8959 12.0588C20.8974 11.8956 20.8339 11.7385 20.7196 11.622C20.6052 11.5056 20.4492 11.4394 20.286 11.4379C20.1228 11.4365 19.9657 11.4999 19.8493 11.6143C19.7328 11.7287 19.6666 11.8846 19.6652 12.0478L20.8959 12.0588ZM19.721 5.9496L19.6372 15.1802L20.868 15.1915L20.9518 5.96089L19.721 5.9496ZM20.868 15.1912L20.8959 12.0591L19.6652 12.0481L19.6372 15.1802L20.868 15.1912Z" fill="#EB8231"/>
<path d="M1.84736 5.73713L1.55395 5.19612C1.45791 5.2482 1.37747 5.32491 1.32089 5.41837C1.26431 5.51182 1.23363 5.61866 1.232 5.72789C1.23037 5.83713 1.25785 5.94483 1.31162 6.03993C1.36539 6.13503 1.4435 6.21411 1.53794 6.26903L1.84736 5.73713ZM11.0315 11.0813L10.7221 11.6132C10.8156 11.6675 10.9218 11.6963 11.0299 11.6966C11.1381 11.6969 11.2444 11.6686 11.3381 11.6147L11.0315 11.0813ZM20.2939 5.75909L20.6005 6.29257C20.6943 6.23863 20.7722 6.16091 20.8264 6.06725C20.8806 5.97359 20.9091 5.8673 20.9091 5.75909C20.9091 5.65089 20.8806 5.5446 20.8264 5.45094C20.7722 5.35728 20.6943 5.27956 20.6005 5.22562L20.2939 5.75909ZM11.2882 0.614539L11.5936 0.0810669C11.5026 0.0290815 11.3998 0.00119053 11.2951 3.72779e-05C11.1903 -0.00111598 11.0869 0.0245067 10.9948 0.074477L11.2882 0.614539ZM1.53794 6.26903L10.7218 11.6132L11.341 10.5494L2.15677 5.20522L1.53794 6.26903ZM11.3366 11.6147L20.6002 6.29288L19.987 5.22593L10.725 10.5478L11.3366 11.6147ZM20.5989 5.22499L11.5933 0.0801255L10.9829 1.14895L19.9892 6.29351L20.5989 5.22499ZM10.9948 0.0735355L1.55395 5.19612L2.14202 6.27782L11.5817 1.15554L10.9948 0.0735355Z" fill="#EB8231"/>
</svg>
