<svg width="48" height="48" viewBox="0 0 48 48" fill="none" xmlns="http://www.w3.org/2000/svg">
<rect x="48" y="48" width="48" height="48" transform="rotate(-180 48 48)" fill="#BCD5E4"/>
<path d="M25.6001 29.9988L25.6002 29.9988C25.6704 29.8634 25.7483 29.7375 25.8189 29.627L25.8262 29.6157L25.8263 29.6158C25.909 29.4939 25.9805 29.3911 26.053 29.2914L26.059 29.2832L26.0654 29.2751L26.1423 29.178L26.1511 29.1662L26.1558 29.1599L26.1607 29.1538C26.1656 29.1477 26.1707 29.1413 26.176 29.1347C26.2198 29.0798 26.2739 29.012 26.3329 28.9481L26.7003 29.2872L26.3329 28.9481L26.4352 28.8373L26.4362 28.8362L26.4455 28.8261C26.495 28.7727 26.5554 28.7076 26.6223 28.6456L26.7092 28.5629L26.7101 28.562C26.7997 28.4771 26.8705 28.416 26.9431 28.3589C26.9461 28.3565 26.9506 28.3527 26.9564 28.3479C26.9823 28.3265 27.0327 28.2849 27.0777 28.2522C27.1338 28.2082 27.1992 28.1569 27.2662 28.109L27.2674 28.1081L27.3995 28.0144L27.4055 28.0102L27.4116 28.0061C27.4656 27.9701 27.5231 27.9346 27.573 27.9037C27.589 27.8938 27.6043 27.8843 27.6184 27.8755C27.679 27.8371 27.7377 27.805 27.7817 27.7811L27.7834 27.7801C27.8613 27.7365 27.9376 27.6983 28.0025 27.6659L28.0065 27.6638L28.0078 27.6632C27.2155 26.6371 26.1654 25.7897 25.0062 25.2439C23.9674 25.8489 22.7891 26.165 21.5866 26.165C20.3849 26.165 19.2025 25.8492 18.1663 25.2438C15.5848 26.4501 13.798 28.9934 13.5332 31.8256H25.0086C25.0115 31.8062 25.0146 31.7866 25.018 31.7672L25.018 31.7671L25.018 31.7667L25.0181 31.7664L25.0181 31.7661L25.0182 31.7658L25.0182 31.7654L25.0183 31.7651L25.0183 31.7648L25.0184 31.7645L25.0184 31.7641L25.0185 31.7638L25.0185 31.7635L25.0186 31.7632L25.0186 31.7628L25.0187 31.7625L25.0187 31.7622L25.0188 31.7619L25.0188 31.7615L25.0189 31.7612L25.0189 31.7609L25.019 31.7606L25.019 31.7602L25.0191 31.7599L25.0191 31.7596L25.0192 31.7593L25.0192 31.7589L25.0193 31.7586L25.0193 31.7583L25.0194 31.758L25.0194 31.7576L25.0195 31.7573L25.0195 31.757L25.0196 31.7567L25.0196 31.7563L25.0197 31.756L25.0197 31.7557L25.0198 31.7554L25.0198 31.755L25.0199 31.7547L25.0199 31.7544L25.02 31.7541L25.02 31.7537L25.0201 31.7534L25.0201 31.7531L25.0202 31.7528L25.0202 31.7524L25.0203 31.7521L25.0203 31.7518L25.0204 31.7515L25.0204 31.7511L25.0205 31.7508L25.0205 31.7505L25.0206 31.7502L25.0206 31.7498L25.0207 31.7495L25.0207 31.7492L25.0208 31.7489L25.0208 31.7486L25.0209 31.7482L25.0209 31.7479L25.021 31.7476L25.021 31.7473L25.0211 31.7469L25.0211 31.7466L25.0212 31.7463L25.0212 31.746L25.0213 31.7456L25.0213 31.7453L25.0214 31.745L25.0214 31.7447L25.0215 31.7443L25.0215 31.744L25.0216 31.7437L25.0216 31.7434L25.0217 31.743L25.0217 31.7427L25.0218 31.7424L25.0218 31.7421L25.0219 31.7417L25.0219 31.7414L25.022 31.7411L25.022 31.7408L25.0221 31.7404L25.0221 31.7401L25.0222 31.7398L25.0222 31.7395L25.0223 31.7391L25.0223 31.7388L25.0224 31.7385L25.0224 31.7382L25.0225 31.7378L25.0225 31.7375L25.0226 31.7372L25.0226 31.7369L25.0227 31.7365L25.0227 31.7362L25.0228 31.7359L25.0228 31.7356L25.0229 31.7352L25.0229 31.7349L25.023 31.7346L25.023 31.7343L25.0231 31.7339L25.0231 31.7336L25.0232 31.7333L25.0232 31.733L25.0233 31.7326L25.0233 31.7323L25.0234 31.732L25.0234 31.7317L25.0235 31.7313L25.0235 31.731L25.0236 31.7307L25.0236 31.7304L25.0237 31.73L25.0237 31.7297L25.0238 31.7294L25.0238 31.7291L25.0239 31.7288L25.0239 31.7284L25.024 31.7281L25.024 31.7278L25.0241 31.7275L25.0241 31.7271L25.0242 31.7268L25.0242 31.7265L25.0243 31.7262L25.0243 31.7258L25.0244 31.7255L25.0244 31.7252L25.0245 31.7249L25.0245 31.7245L25.0246 31.7242L25.0246 31.7239L25.0247 31.7236L25.0247 31.7232L25.0248 31.7229L25.0248 31.7226L25.0249 31.7223L25.0249 31.7219L25.025 31.7216L25.025 31.7213L25.0251 31.721L25.0251 31.7206L25.0252 31.7203L25.0252 31.72L25.0253 31.7197L25.0253 31.7193L25.0254 31.719L25.0254 31.7187L25.0255 31.7184L25.0255 31.718L25.0256 31.7177L25.0256 31.7174L25.0257 31.7171L25.0257 31.7167L25.0258 31.7164L25.0258 31.7161L25.0259 31.7158L25.0259 31.7154L25.026 31.7151L25.026 31.7148L25.0261 31.7145L25.0261 31.7141L25.0262 31.7138L25.0262 31.7135L25.0263 31.7132L25.0263 31.7128L25.0264 31.7125L25.0264 31.7122L25.0265 31.7119L25.0265 31.7115L25.0266 31.7112L25.0266 31.7109L25.0267 31.7106L25.0267 31.7102L25.0268 31.7099L25.0268 31.7096L25.0269 31.7093L25.0269 31.709L25.027 31.7086L25.027 31.7083L25.0271 31.708L25.0271 31.7077L25.0272 31.7073L25.0272 31.707L25.0273 31.7067L25.0273 31.7064L25.0274 31.706L25.0274 31.7057L25.0275 31.7054L25.0275 31.7051L25.0276 31.7047L25.0276 31.7044L25.0277 31.7041L25.0277 31.7038L25.0278 31.7034L25.0278 31.7031L25.0279 31.7028L25.0279 31.7025L25.028 31.7021L25.028 31.7018L25.0281 31.7015L25.0281 31.7012L25.0282 31.7008L25.0282 31.7005L25.0283 31.7002L25.0283 31.6999L25.0284 31.6995L25.0284 31.6992L25.0285 31.6989L25.0285 31.6986L25.0286 31.6982L25.0286 31.6979L25.0287 31.6976L25.0287 31.6973L25.0288 31.6969L25.0288 31.6966L25.0289 31.6963L25.0289 31.696L25.029 31.6956L25.029 31.6953L25.0291 31.695L25.0291 31.6947L25.0292 31.6943L25.0292 31.694L25.0293 31.6937L25.0293 31.6934L25.0294 31.693L25.0294 31.6927L25.0295 31.6924L25.0295 31.6921L25.0296 31.6917L25.0296 31.6914L25.0297 31.6911L25.0297 31.6908L25.0298 31.6904L25.0298 31.6901L25.0299 31.6898L25.0299 31.6895L25.03 31.6891L25.03 31.6888L25.0301 31.6885L25.0301 31.6882L25.0302 31.6879L25.0302 31.6875L25.0303 31.6872L25.0303 31.6869L25.0304 31.6866L25.0304 31.6862L25.0305 31.6859L25.0305 31.6856L25.0306 31.6853L25.0306 31.6849L25.0307 31.6846L25.0307 31.6843L25.0308 31.684L25.0308 31.6836L25.0309 31.6833L25.0309 31.683L25.031 31.6827L25.031 31.6823L25.0311 31.682L25.0311 31.6817L25.0312 31.6814L25.0312 31.681L25.0313 31.6807L25.0313 31.6804L25.0314 31.6801L25.0314 31.6797L25.0315 31.6794L25.0315 31.6791L25.0316 31.6788L25.0316 31.6784L25.0317 31.6781L25.0317 31.6778L25.0318 31.6775L25.0318 31.6771L25.0319 31.6768L25.0319 31.6765L25.032 31.6762L25.032 31.6758L25.0321 31.6755L25.0321 31.6752L25.0322 31.6749L25.0322 31.6745L25.0323 31.6742L25.0323 31.6739L25.0324 31.6736L25.0324 31.6732L25.0325 31.6729L25.0325 31.6726L25.0326 31.6723L25.0326 31.6719L25.0327 31.6716L25.0327 31.6713L25.0328 31.671L25.0328 31.6706L25.0329 31.6703L25.0329 31.67L25.033 31.6697L25.033 31.6693L25.0331 31.669L25.0331 31.6687L25.0332 31.6684L25.0332 31.6681L25.0333 31.6677L25.0333 31.6674L25.0334 31.6671L25.0334 31.6668L25.0335 31.6664L25.0335 31.6661L25.0336 31.6658L25.0336 31.6655L25.0337 31.6651L25.0337 31.6648L25.0338 31.6645L25.0338 31.6642L25.0339 31.6638L25.0339 31.6635L25.034 31.6632L25.034 31.6629L25.0341 31.6625L25.0341 31.6622L25.0342 31.6619L25.0342 31.6616L25.0343 31.6612L25.0343 31.6609L25.0344 31.6606L25.0344 31.6603L25.0345 31.6599L25.0345 31.6596L25.0346 31.6593L25.0346 31.659L25.0347 31.6586L25.0347 31.6583L25.0348 31.658L25.0348 31.6577L25.0349 31.6573L25.0349 31.657L25.035 31.6567L25.035 31.6564L25.0351 31.656L25.0351 31.6557L25.0352 31.6554L25.0352 31.6551L25.0353 31.6547L25.0353 31.6544L25.0354 31.6541L25.0354 31.6538L25.0355 31.6534L25.0355 31.6531L25.0356 31.6528L25.0356 31.6525L25.0357 31.6521L25.0357 31.6518L25.0358 31.6515L25.0358 31.6512L25.0359 31.6508L25.0359 31.6505L25.036 31.6502L25.036 31.6499L25.0361 31.6495L25.0361 31.6492L25.0362 31.6489L25.0362 31.6486L25.0363 31.6483L25.0363 31.6479L25.0364 31.6476L25.0364 31.6473L25.0365 31.647L25.0365 31.6466L25.0366 31.6463L25.0366 31.646L25.0367 31.6457L25.0367 31.6453L25.0368 31.645L25.0368 31.6447L25.0369 31.6444L25.0369 31.644L25.037 31.6437L25.037 31.6434L25.0371 31.6431L25.0371 31.6427L25.0372 31.6424L25.0372 31.6421L25.0373 31.6418L25.0373 31.6414L25.0374 31.6411L25.0374 31.6408L25.0375 31.6405L25.0375 31.6401L25.0376 31.6398L25.0376 31.6395L25.0377 31.6392L25.0377 31.6388L25.0378 31.6385L25.0378 31.6382L25.0379 31.6379L25.0379 31.6375L25.038 31.6372L25.038 31.6369L25.0381 31.6366L25.0381 31.6362L25.0382 31.6359L25.0382 31.6356L25.0383 31.6353L25.0383 31.6349L25.0384 31.6346L25.0384 31.6343L25.0385 31.634L25.0385 31.6336L25.0386 31.6333L25.0386 31.633L25.0387 31.6327L25.0387 31.6323L25.0388 31.632L25.0388 31.6317L25.0389 31.6314L25.0389 31.631L25.039 31.6307L25.039 31.6304L25.0391 31.6301L25.0391 31.6297L25.0392 31.6294L25.0392 31.6291L25.0393 31.6288L25.0393 31.6285L25.0394 31.6281L25.0394 31.6278L25.0395 31.6275L25.0395 31.6272L25.0396 31.6268L25.0396 31.6265L25.0396 31.6262L25.0397 31.6259L25.0398 31.6255L25.0398 31.6252L25.0399 31.6249L25.0399 31.6246L25.04 31.6242L25.04 31.6239L25.04 31.6236L25.0401 31.6233L25.0401 31.6229L25.0402 31.6226L25.0402 31.6223L25.0403 31.622L25.0403 31.6216L25.0404 31.6213L25.0404 31.621L25.0405 31.6207L25.0405 31.6203L25.0406 31.62L25.0406 31.6197L25.0407 31.6194L25.0407 31.619L25.0408 31.6187L25.0408 31.6184L25.0409 31.6181L25.0409 31.6177L25.041 31.6174L25.041 31.6171L25.0411 31.6168L25.0411 31.6164L25.0412 31.6161L25.0412 31.6158L25.0413 31.6155L25.0413 31.6151L25.0414 31.6148L25.0414 31.6145L25.0415 31.6142L25.0415 31.6138L25.0416 31.6135L25.0416 31.6132L25.0417 31.6129L25.0417 31.6125L25.0418 31.6122L25.0418 31.6119L25.0419 31.6116L25.0419 31.6112L25.042 31.6109L25.042 31.6106L25.0421 31.6103L25.0421 31.6099L25.0422 31.6096L25.0422 31.6093L25.0423 31.609L25.0423 31.6087L25.0424 31.6083L25.0424 31.608L25.0425 31.6077L25.0425 31.6074L25.0426 31.607L25.0426 31.6067L25.0427 31.6064L25.0427 31.6061L25.0444 31.5952L25.0445 31.5952C25.0598 31.5089 25.0793 31.4215 25.0971 31.346L25.0971 31.346C25.0993 31.3365 25.1021 31.3238 25.1054 31.3092C25.1153 31.2647 25.1292 31.2021 25.1428 31.1564C25.1641 31.0839 25.1843 31.0153 25.2043 30.9431L25.2077 30.9309L25.2117 30.9189C25.2226 30.8864 25.2296 30.8634 25.2357 30.8433C25.2365 30.8405 25.2374 30.8376 25.2384 30.8344C25.2437 30.8167 25.2508 30.7933 25.2586 30.7697C25.2586 30.7697 25.2586 30.7697 25.2586 30.7697L25.6001 29.9988ZM25.6001 29.9988L25.5968 30.0054M25.6001 29.9988L25.5968 30.0054M25.5968 30.0054L25.5523 30.0944L25.5509 30.0971C25.5137 30.1677 25.467 30.2564 25.4265 30.3495C25.41 30.3818 25.3988 30.4096 25.3917 30.4275L25.3817 30.4535C25.3802 30.4574 25.3796 30.4588 25.3796 30.4588L25.3744 30.471M25.5968 30.0054L25.3744 30.471M25.3744 30.471L25.3696 30.4842M25.3744 30.471L25.3696 30.4842M25.3696 30.4842L25.3583 30.5152L25.3696 30.4842Z" stroke="#2A2A2A"/>
<path d="M26.9023 18.8125C26.9023 21.7465 24.5239 24.125 21.5898 24.125C18.6558 24.125 16.2773 21.7465 16.2773 18.8125C16.2773 15.8785 18.6558 13.5 21.5898 13.5C24.5239 13.5 26.9023 15.8785 26.9023 18.8125Z" stroke="#2A2A2A"/>
<path fill-rule="evenodd" clip-rule="evenodd" d="M30.625 37C32.9032 37 34.75 35.1532 34.75 32.875C34.75 30.5968 32.9032 28.75 30.625 28.75C28.3468 28.75 26.5 30.5968 26.5 32.875C26.5 35.1532 28.3468 37 30.625 37ZM30.9338 33.1618H32.5V32.5956H30.9338V31H30.3088V32.5956H28.75V33.1618H30.3088V34.75H30.9338V33.1618Z" fill="#2A2A2A"/>
</svg>
