<svg width="18" height="18" viewBox="0 0 18 18" fill="none" xmlns="http://www.w3.org/2000/svg">
<path d="M2.59736 11.5543C2.34425 11.8071 2.14344 12.1072 2.00638 12.4376C1.86932 12.768 1.79871 13.1222 1.79859 13.4799C1.79847 13.8376 1.86883 14.1918 2.00566 14.5223C2.14248 14.8528 2.3431 15.1531 2.59603 15.406C2.84896 15.6589 3.14925 15.8595 3.47974 15.9964C3.81024 16.1332 4.16445 16.2036 4.52215 16.2034C4.87985 16.2033 5.23402 16.1327 5.56442 15.9957C5.89482 15.8586 6.19497 15.6578 6.44773 15.4047L8.66625 13.1862C9.04555 13.2693 9.43311 13.3089 9.82139 13.3041L7.08425 16.0412C6.40461 16.7195 5.4835 17.1002 4.52331 17.0997C3.56312 17.0992 2.6424 16.7176 1.96344 16.0386C1.28448 15.3596 0.902833 14.4389 0.902344 13.4787C0.901855 12.5185 1.28257 11.5974 1.96083 10.9178L5.68395 7.19466C6.09776 6.7787 6.60662 6.46977 7.16658 6.29456C7.72654 6.11935 8.32074 6.08314 8.89783 6.18904C9.47492 6.29494 10.0175 6.53979 10.4788 6.9024C10.9401 7.26502 11.3061 7.73451 11.5452 8.27028L10.8497 8.96578C10.7135 8.51559 10.4629 8.1084 10.1224 7.78395C9.78183 7.4595 9.36299 7.22887 8.90673 7.11458C8.45048 7.00028 7.97238 7.00622 7.51911 7.13182C7.06583 7.25741 6.65286 7.49837 6.32048 7.83118L2.59736 11.5543ZM10.9186 1.96002L8.18139 4.6972C8.56967 4.69241 8.95722 4.73197 9.33653 4.81513L11.5551 2.59655C11.8079 2.34369 12.1081 2.14311 12.4384 2.00626C12.7687 1.86941 13.1228 1.79896 13.4804 1.79895C13.8379 1.79893 14.192 1.86935 14.5223 2.00617C14.8527 2.143 15.1528 2.34355 15.4057 2.59639C15.6585 2.84922 15.859 3.14938 15.9959 3.47973C16.1327 3.81007 16.2031 4.16413 16.2031 4.52169C16.2031 4.87925 16.1326 5.23331 15.9958 5.56364C15.8589 5.89398 15.6583 6.19412 15.4055 6.44693L11.6824 10.17C11.35 10.5029 10.937 10.7439 10.4837 10.8695C10.0305 10.9951 9.55236 11.001 9.09609 10.8867C8.63982 10.7725 8.22098 10.5418 7.88044 10.2174C7.5399 9.89291 7.28929 9.4857 7.15308 9.03549L6.45755 9.73101C6.69671 10.2668 7.06274 10.7363 7.52401 11.0989C7.98527 11.4615 8.5279 11.7063 9.105 11.8122C9.6821 11.9181 10.2763 11.8819 10.8363 11.7067C11.3962 11.5315 11.9051 11.2225 12.3189 10.8066L16.042 7.08343C16.7214 6.40402 17.1031 5.48255 17.1031 4.52172C17.1031 3.5609 16.7214 2.63942 16.042 1.96002C15.3626 1.28061 14.4411 0.898925 13.4803 0.898926C12.5195 0.898927 11.598 1.28061 10.9186 1.96002Z" fill="black"/>
</svg>
