<svg width="675" height="527" viewBox="0 0 675 527" fill="none" xmlns="http://www.w3.org/2000/svg">
<rect width="675" height="527" fill="black" fill-opacity="0.7"/>
<rect width="579" height="414" transform="translate(50 52)" fill="white"/>
<path d="M604.333 76.6666L593.668 87.3333" stroke="black" stroke-linecap="round"/>
<path d="M604.332 87.3333L593.667 76.6666" stroke="black" stroke-linecap="round"/>
<path d="M90.8717 83.2804C90.6017 82.8844 90.2957 82.5064 89.9177 82.1464C89.6657 81.8944 89.2877 81.5884 88.8017 81.2464C88.2077 80.8324 87.4157 80.9044 86.9117 81.4084L75.6437 92.6764C75.5897 92.7304 75.5537 92.8024 75.5177 92.8744L74.0417 97.0324C73.9517 97.3024 74.0057 97.6084 74.2217 97.8064C74.3657 97.9504 74.5637 98.0224 74.7437 98.0224C74.8337 98.0224 74.9057 98.0044 74.9957 97.9864L79.1717 96.5284C79.2437 96.5104 79.3157 96.4564 79.3697 96.4024L90.6737 85.0984C91.1597 84.6124 91.2497 83.8384 90.8717 83.2804ZM76.2737 93.8824C76.9937 94.4044 77.6237 95.0524 78.1637 95.7724L76.2917 96.4384C76.2197 96.3124 76.1117 96.1684 76.0037 96.0604C75.8777 95.9344 75.7517 95.8444 75.6257 95.7724L76.2737 93.8824ZM89.9357 84.3604L79.0637 95.2324C78.4517 94.3684 77.6777 93.6124 76.8137 92.9824L87.6497 82.1464C87.7937 82.0024 88.0277 81.9844 88.1897 82.1104C88.6217 82.4164 88.9637 82.6684 89.1617 82.8844C89.4857 83.2084 89.7557 83.5324 89.9897 83.8744C90.0977 84.0004 90.0617 84.2344 89.9357 84.3604Z" fill="#3B4141"/>
<path d="M104.507 85.146V88.818H108.827V90.492H104.507V94.326H109.367V96H102.455V83.472H109.367V85.146H104.507ZM111.211 90.996C111.211 90 111.415 89.118 111.823 88.35C112.243 87.582 112.807 86.988 113.515 86.568C114.235 86.136 115.033 85.92 115.909 85.92C116.557 85.92 117.193 86.064 117.817 86.352C118.453 86.628 118.957 87 119.329 87.468V82.68H121.399V96H119.329V94.506C118.993 94.986 118.525 95.382 117.925 95.694C117.337 96.006 116.659 96.162 115.891 96.162C115.027 96.162 114.235 95.946 113.515 95.514C112.807 95.07 112.243 94.458 111.823 93.678C111.415 92.886 111.211 91.992 111.211 90.996ZM119.329 91.032C119.329 90.348 119.185 89.754 118.897 89.25C118.621 88.746 118.255 88.362 117.799 88.098C117.343 87.834 116.851 87.702 116.323 87.702C115.795 87.702 115.303 87.834 114.847 88.098C114.391 88.35 114.019 88.728 113.731 89.232C113.455 89.724 113.317 90.312 113.317 90.996C113.317 91.68 113.455 92.28 113.731 92.796C114.019 93.312 114.391 93.708 114.847 93.984C115.315 94.248 115.807 94.38 116.323 94.38C116.851 94.38 117.343 94.248 117.799 93.984C118.255 93.72 118.621 93.336 118.897 92.832C119.185 92.316 119.329 91.716 119.329 91.032ZM125.138 84.768C124.766 84.768 124.454 84.642 124.202 84.39C123.95 84.138 123.824 83.826 123.824 83.454C123.824 83.082 123.95 82.77 124.202 82.518C124.454 82.266 124.766 82.14 125.138 82.14C125.498 82.14 125.804 82.266 126.056 82.518C126.308 82.77 126.434 83.082 126.434 83.454C126.434 83.826 126.308 84.138 126.056 84.39C125.804 84.642 125.498 84.768 125.138 84.768ZM126.146 86.082V96H124.094V86.082H126.146ZM131.234 87.756V93.246C131.234 93.618 131.318 93.888 131.486 94.056C131.666 94.212 131.966 94.29 132.386 94.29H133.646V96H132.026C131.102 96 130.394 95.784 129.902 95.352C129.41 94.92 129.164 94.218 129.164 93.246V87.756H127.994V86.082H129.164V83.616H131.234V86.082H133.646V87.756H131.234ZM148.961 87.216C148.961 87.852 148.811 88.452 148.511 89.016C148.211 89.58 147.731 90.042 147.071 90.402C146.411 90.75 145.565 90.924 144.533 90.924H142.265V96H140.213V83.49H144.533C145.493 83.49 146.303 83.658 146.963 83.994C147.635 84.318 148.133 84.762 148.457 85.326C148.793 85.89 148.961 86.52 148.961 87.216ZM144.533 89.25C145.313 89.25 145.895 89.076 146.279 88.728C146.663 88.368 146.855 87.864 146.855 87.216C146.855 85.848 146.081 85.164 144.533 85.164H142.265V89.25H144.533ZM150.234 90.996C150.234 90 150.438 89.118 150.846 88.35C151.266 87.582 151.83 86.988 152.538 86.568C153.258 86.136 154.05 85.92 154.914 85.92C155.694 85.92 156.372 86.076 156.948 86.388C157.536 86.688 158.004 87.066 158.352 87.522V86.082H160.422V96H158.352V94.524C158.004 94.992 157.53 95.382 156.93 95.694C156.33 96.006 155.646 96.162 154.878 96.162C154.026 96.162 153.246 95.946 152.538 95.514C151.83 95.07 151.266 94.458 150.846 93.678C150.438 92.886 150.234 91.992 150.234 90.996ZM158.352 91.032C158.352 90.348 158.208 89.754 157.92 89.25C157.644 88.746 157.278 88.362 156.822 88.098C156.366 87.834 155.874 87.702 155.346 87.702C154.818 87.702 154.326 87.834 153.87 88.098C153.414 88.35 153.042 88.728 152.754 89.232C152.478 89.724 152.34 90.312 152.34 90.996C152.34 91.68 152.478 92.28 152.754 92.796C153.042 93.312 153.414 93.708 153.87 93.984C154.338 94.248 154.83 94.38 155.346 94.38C155.874 94.38 156.366 94.248 156.822 93.984C157.278 93.72 157.644 93.336 157.92 92.832C158.208 92.316 158.352 91.716 158.352 91.032ZM165.17 87.522C165.47 87.018 165.866 86.628 166.358 86.352C166.862 86.064 167.456 85.92 168.14 85.92V88.044H167.618C166.814 88.044 166.202 88.248 165.782 88.656C165.374 89.064 165.17 89.772 165.17 90.78V96H163.118V86.082H165.17V87.522ZM172.42 87.756V93.246C172.42 93.618 172.504 93.888 172.672 94.056C172.852 94.212 173.152 94.29 173.572 94.29H174.832V96H173.212C172.288 96 171.58 95.784 171.088 95.352C170.596 94.92 170.35 94.218 170.35 93.246V87.756H169.18V86.082H170.35V83.616H172.42V86.082H174.832V87.756H172.42ZM177.767 84.768C177.395 84.768 177.083 84.642 176.831 84.39C176.579 84.138 176.453 83.826 176.453 83.454C176.453 83.082 176.579 82.77 176.831 82.518C177.083 82.266 177.395 82.14 177.767 82.14C178.127 82.14 178.433 82.266 178.685 82.518C178.937 82.77 179.063 83.082 179.063 83.454C179.063 83.826 178.937 84.138 178.685 84.39C178.433 84.642 178.127 84.768 177.767 84.768ZM178.775 86.082V96H176.723V86.082H178.775ZM180.785 91.032C180.785 90.012 180.989 89.118 181.397 88.35C181.817 87.57 182.393 86.97 183.125 86.55C183.857 86.13 184.697 85.92 185.645 85.92C186.845 85.92 187.835 86.208 188.615 86.784C189.407 87.348 189.941 88.158 190.217 89.214H188.003C187.823 88.722 187.535 88.338 187.139 88.062C186.743 87.786 186.245 87.648 185.645 87.648C184.805 87.648 184.133 87.948 183.629 88.548C183.137 89.136 182.891 89.964 182.891 91.032C182.891 92.1 183.137 92.934 183.629 93.534C184.133 94.134 184.805 94.434 185.645 94.434C186.833 94.434 187.619 93.912 188.003 92.868H190.217C189.929 93.876 189.389 94.68 188.597 95.28C187.805 95.868 186.821 96.162 185.645 96.162C184.697 96.162 183.857 95.952 183.125 95.532C182.393 95.1 181.817 94.5 181.397 93.732C180.989 92.952 180.785 92.052 180.785 91.032ZM193.306 84.768C192.934 84.768 192.622 84.642 192.37 84.39C192.118 84.138 191.992 83.826 191.992 83.454C191.992 83.082 192.118 82.77 192.37 82.518C192.622 82.266 192.934 82.14 193.306 82.14C193.666 82.14 193.972 82.266 194.224 82.518C194.476 82.77 194.602 83.082 194.602 83.454C194.602 83.826 194.476 84.138 194.224 84.39C193.972 84.642 193.666 84.768 193.306 84.768ZM194.314 86.082V96H192.262V86.082H194.314ZM199.06 87.54C199.408 87.084 199.882 86.7 200.482 86.388C201.082 86.076 201.76 85.92 202.516 85.92C203.38 85.92 204.166 86.136 204.874 86.568C205.594 86.988 206.158 87.582 206.566 88.35C206.974 89.118 207.178 90 207.178 90.996C207.178 91.992 206.974 92.886 206.566 93.678C206.158 94.458 205.594 95.07 204.874 95.514C204.166 95.946 203.38 96.162 202.516 96.162C201.76 96.162 201.088 96.012 200.5 95.712C199.912 95.4 199.432 95.016 199.06 94.56V100.716H197.008V86.082H199.06V87.54ZM205.09 90.996C205.09 90.312 204.946 89.724 204.658 89.232C204.382 88.728 204.01 88.35 203.542 88.098C203.086 87.834 202.594 87.702 202.066 87.702C201.55 87.702 201.058 87.834 200.59 88.098C200.134 88.362 199.762 88.746 199.474 89.25C199.198 89.754 199.06 90.348 199.06 91.032C199.06 91.716 199.198 92.316 199.474 92.832C199.762 93.336 200.134 93.72 200.59 93.984C201.058 94.248 201.55 94.38 202.066 94.38C202.594 94.38 203.086 94.248 203.542 93.984C204.01 93.708 204.382 93.312 204.658 92.796C204.946 92.28 205.09 91.68 205.09 90.996ZM208.523 90.996C208.523 90 208.727 89.118 209.135 88.35C209.555 87.582 210.119 86.988 210.827 86.568C211.547 86.136 212.339 85.92 213.203 85.92C213.983 85.92 214.661 86.076 215.237 86.388C215.825 86.688 216.293 87.066 216.641 87.522V86.082H218.711V96H216.641V94.524C216.293 94.992 215.819 95.382 215.219 95.694C214.619 96.006 213.935 96.162 213.167 96.162C212.315 96.162 211.535 95.946 210.827 95.514C210.119 95.07 209.555 94.458 209.135 93.678C208.727 92.886 208.523 91.992 208.523 90.996ZM216.641 91.032C216.641 90.348 216.497 89.754 216.209 89.25C215.933 88.746 215.567 88.362 215.111 88.098C214.655 87.834 214.163 87.702 213.635 87.702C213.107 87.702 212.615 87.834 212.159 88.098C211.703 88.35 211.331 88.728 211.043 89.232C210.767 89.724 210.629 90.312 210.629 90.996C210.629 91.68 210.767 92.28 211.043 92.796C211.331 93.312 211.703 93.708 212.159 93.984C212.627 94.248 213.119 94.38 213.635 94.38C214.163 94.38 214.655 94.248 215.111 93.984C215.567 93.72 215.933 93.336 216.209 92.832C216.497 92.316 216.641 91.716 216.641 91.032ZM226.411 85.92C227.191 85.92 227.887 86.082 228.499 86.406C229.123 86.73 229.609 87.21 229.957 87.846C230.305 88.482 230.479 89.25 230.479 90.15V96H228.445V90.456C228.445 89.568 228.223 88.89 227.779 88.422C227.335 87.942 226.729 87.702 225.961 87.702C225.193 87.702 224.581 87.942 224.125 88.422C223.681 88.89 223.459 89.568 223.459 90.456V96H221.407V86.082H223.459V87.216C223.795 86.808 224.221 86.49 224.737 86.262C225.265 86.034 225.823 85.92 226.411 85.92ZM235.49 87.756V93.246C235.49 93.618 235.574 93.888 235.742 94.056C235.922 94.212 236.222 94.29 236.642 94.29H237.902V96H236.282C235.358 96 234.65 95.784 234.158 95.352C233.666 94.92 233.42 94.218 233.42 93.246V87.756H232.25V86.082H233.42V83.616H235.49V86.082H237.902V87.756H235.49ZM248.555 83.49C249.887 83.49 251.051 83.748 252.047 84.264C253.055 84.768 253.829 85.5 254.369 86.46C254.921 87.408 255.197 88.518 255.197 89.79C255.197 91.062 254.921 92.166 254.369 93.102C253.829 94.038 253.055 94.758 252.047 95.262C251.051 95.754 249.887 96 248.555 96H244.469V83.49H248.555ZM248.555 94.326C250.019 94.326 251.141 93.93 251.921 93.138C252.701 92.346 253.091 91.23 253.091 89.79C253.091 88.338 252.701 87.204 251.921 86.388C251.141 85.572 250.019 85.164 248.555 85.164H246.521V94.326H248.555ZM266.321 90.798C266.321 91.17 266.297 91.506 266.249 91.806H258.671C258.731 92.598 259.025 93.234 259.553 93.714C260.081 94.194 260.729 94.434 261.497 94.434C262.601 94.434 263.381 93.972 263.837 93.048H266.051C265.751 93.96 265.205 94.71 264.413 95.298C263.633 95.874 262.661 96.162 261.497 96.162C260.549 96.162 259.697 95.952 258.941 95.532C258.197 95.1 257.609 94.5 257.177 93.732C256.757 92.952 256.547 92.052 256.547 91.032C256.547 90.012 256.751 89.118 257.159 88.35C257.579 87.57 258.161 86.97 258.905 86.55C259.661 86.13 260.525 85.92 261.497 85.92C262.433 85.92 263.267 86.124 263.999 86.532C264.731 86.94 265.301 87.516 265.709 88.26C266.117 88.992 266.321 89.838 266.321 90.798ZM264.179 90.15C264.167 89.394 263.897 88.788 263.369 88.332C262.841 87.876 262.187 87.648 261.407 87.648C260.699 87.648 260.093 87.876 259.589 88.332C259.085 88.776 258.785 89.382 258.689 90.15H264.179ZM270.734 87.756V93.246C270.734 93.618 270.818 93.888 270.986 94.056C271.166 94.212 271.466 94.29 271.886 94.29H273.146V96H271.526C270.602 96 269.894 95.784 269.402 95.352C268.91 94.92 268.664 94.218 268.664 93.246V87.756H267.494V86.082H268.664V83.616H270.734V86.082H273.146V87.756H270.734ZM274.354 90.996C274.354 90 274.558 89.118 274.966 88.35C275.386 87.582 275.95 86.988 276.658 86.568C277.378 86.136 278.17 85.92 279.034 85.92C279.814 85.92 280.492 86.076 281.068 86.388C281.656 86.688 282.124 87.066 282.472 87.522V86.082H284.542V96H282.472V94.524C282.124 94.992 281.65 95.382 281.05 95.694C280.45 96.006 279.766 96.162 278.998 96.162C278.146 96.162 277.366 95.946 276.658 95.514C275.95 95.07 275.386 94.458 274.966 93.678C274.558 92.886 274.354 91.992 274.354 90.996ZM282.472 91.032C282.472 90.348 282.328 89.754 282.04 89.25C281.764 88.746 281.398 88.362 280.942 88.098C280.486 87.834 279.994 87.702 279.466 87.702C278.938 87.702 278.446 87.834 277.99 88.098C277.534 88.35 277.162 88.728 276.874 89.232C276.598 89.724 276.46 90.312 276.46 90.996C276.46 91.68 276.598 92.28 276.874 92.796C277.162 93.312 277.534 93.708 277.99 93.984C278.458 94.248 278.95 94.38 279.466 94.38C279.994 94.38 280.486 94.248 280.942 93.984C281.398 93.72 281.764 93.336 282.04 92.832C282.328 92.316 282.472 91.716 282.472 91.032ZM288.281 84.768C287.909 84.768 287.597 84.642 287.345 84.39C287.093 84.138 286.967 83.826 286.967 83.454C286.967 83.082 287.093 82.77 287.345 82.518C287.597 82.266 287.909 82.14 288.281 82.14C288.641 82.14 288.947 82.266 289.199 82.518C289.451 82.77 289.577 83.082 289.577 83.454C289.577 83.826 289.451 84.138 289.199 84.39C288.947 84.642 288.641 84.768 288.281 84.768ZM289.289 86.082V96H287.237V86.082H289.289ZM294.035 82.68V96H291.983V82.68H294.035ZM300.329 96.162C299.549 96.162 298.847 96.024 298.223 95.748C297.611 95.46 297.125 95.076 296.765 94.596C296.405 94.104 296.213 93.558 296.189 92.958H298.313C298.349 93.378 298.547 93.732 298.907 94.02C299.279 94.296 299.741 94.434 300.293 94.434C300.869 94.434 301.313 94.326 301.625 94.11C301.949 93.882 302.111 93.594 302.111 93.246C302.111 92.874 301.931 92.598 301.571 92.418C301.223 92.238 300.665 92.04 299.897 91.824C299.153 91.62 298.547 91.422 298.079 91.23C297.611 91.038 297.203 90.744 296.855 90.348C296.519 89.952 296.351 89.43 296.351 88.782C296.351 88.254 296.507 87.774 296.819 87.342C297.131 86.898 297.575 86.55 298.151 86.298C298.739 86.046 299.411 85.92 300.167 85.92C301.295 85.92 302.201 86.208 302.885 86.784C303.581 87.348 303.953 88.122 304.001 89.106H301.949C301.913 88.662 301.733 88.308 301.409 88.044C301.085 87.78 300.647 87.648 300.095 87.648C299.555 87.648 299.141 87.75 298.853 87.954C298.565 88.158 298.421 88.428 298.421 88.764C298.421 89.028 298.517 89.25 298.709 89.43C298.901 89.61 299.135 89.754 299.411 89.862C299.687 89.958 300.095 90.084 300.635 90.24C301.355 90.432 301.943 90.63 302.399 90.834C302.867 91.026 303.269 91.314 303.605 91.698C303.941 92.082 304.115 92.592 304.127 93.228C304.127 93.792 303.971 94.296 303.659 94.74C303.347 95.184 302.903 95.532 302.327 95.784C301.763 96.036 301.097 96.162 300.329 96.162Z" fill="black"/>
<g filter="url(#filter0_d)">
<rect width="80" height="47" transform="translate(379 394)" fill="#FCFCFC"/>
<path d="M404.368 421.932C404.469 421.932 404.557 421.972 404.632 422.052L405.376 422.86C404.907 423.425 404.331 423.863 403.648 424.172C402.965 424.476 402.149 424.628 401.2 424.628C400.357 424.628 399.595 424.484 398.912 424.196C398.235 423.903 397.656 423.497 397.176 422.98C396.696 422.457 396.325 421.836 396.064 421.116C395.808 420.396 395.68 419.604 395.68 418.74C395.68 417.876 395.816 417.084 396.088 416.364C396.365 415.639 396.752 415.017 397.248 414.5C397.749 413.977 398.347 413.572 399.04 413.284C399.739 412.996 400.507 412.852 401.344 412.852C402.176 412.852 402.909 412.988 403.544 413.26C404.184 413.527 404.739 413.884 405.208 414.332L404.592 415.204C404.549 415.263 404.499 415.313 404.44 415.356C404.381 415.399 404.301 415.42 404.2 415.42C404.093 415.42 403.971 415.372 403.832 415.276C403.699 415.175 403.525 415.065 403.312 414.948C403.104 414.825 402.84 414.716 402.52 414.62C402.205 414.519 401.811 414.468 401.336 414.468C400.787 414.468 400.283 414.564 399.824 414.756C399.365 414.948 398.971 415.228 398.64 415.596C398.309 415.964 398.051 416.412 397.864 416.94C397.683 417.468 397.592 418.068 397.592 418.74C397.592 419.417 397.688 420.023 397.88 420.556C398.072 421.084 398.336 421.532 398.672 421.9C399.008 422.263 399.403 422.54 399.856 422.732C400.309 422.924 400.797 423.02 401.32 423.02C401.64 423.02 401.925 423.004 402.176 422.972C402.432 422.935 402.667 422.879 402.88 422.804C403.093 422.724 403.293 422.625 403.48 422.508C403.672 422.391 403.861 422.247 404.048 422.076C404.155 421.98 404.261 421.932 404.368 421.932ZM411.033 420.932C410.42 420.953 409.902 421.004 409.481 421.084C409.06 421.159 408.718 421.257 408.457 421.38C408.196 421.497 408.006 421.639 407.889 421.804C407.777 421.969 407.721 422.151 407.721 422.348C407.721 422.54 407.75 422.705 407.809 422.844C407.873 422.977 407.958 423.089 408.065 423.18C408.177 423.265 408.305 423.329 408.449 423.372C408.598 423.409 408.761 423.428 408.937 423.428C409.385 423.428 409.769 423.345 410.089 423.18C410.414 423.009 410.729 422.764 411.033 422.444V420.932ZM406.473 417.476C407.396 416.617 408.494 416.188 409.769 416.188C410.238 416.188 410.654 416.265 411.017 416.42C411.385 416.569 411.692 416.783 411.937 417.06C412.188 417.337 412.377 417.668 412.505 418.052C412.638 418.431 412.705 418.852 412.705 419.316V424.5H411.937C411.772 424.5 411.646 424.476 411.561 424.428C411.476 424.375 411.404 424.271 411.345 424.116L411.177 423.452C410.969 423.639 410.764 423.807 410.561 423.956C410.358 424.1 410.148 424.223 409.929 424.324C409.716 424.425 409.484 424.5 409.233 424.548C408.988 424.601 408.716 424.628 408.417 424.628C408.086 424.628 407.777 424.583 407.489 424.492C407.206 424.401 406.961 424.265 406.753 424.084C406.545 423.897 406.38 423.668 406.257 423.396C406.14 423.124 406.081 422.804 406.081 422.436C406.081 422.121 406.164 421.815 406.329 421.516C406.5 421.217 406.777 420.951 407.161 420.716C407.55 420.476 408.06 420.279 408.689 420.124C409.324 419.969 410.105 419.881 411.033 419.86V419.316C411.033 418.729 410.908 418.292 410.657 418.004C410.406 417.716 410.038 417.572 409.553 417.572C409.222 417.572 408.945 417.615 408.721 417.7C408.497 417.78 408.302 417.868 408.137 417.964C407.972 418.06 407.825 418.151 407.697 418.236C407.569 418.316 407.433 418.356 407.289 418.356C407.172 418.356 407.07 418.327 406.985 418.268C406.905 418.204 406.838 418.127 406.785 418.036L406.473 417.476ZM416.328 417.42C416.504 417.239 416.685 417.076 416.872 416.932C417.064 416.783 417.267 416.655 417.48 416.548C417.693 416.441 417.92 416.359 418.16 416.3C418.4 416.241 418.661 416.212 418.944 416.212C419.392 416.212 419.784 416.287 420.12 416.436C420.461 416.585 420.747 416.796 420.976 417.068C421.211 417.34 421.387 417.668 421.504 418.052C421.621 418.431 421.68 418.849 421.68 419.308V424.5H419.968V419.308C419.968 418.759 419.84 418.332 419.584 418.028C419.333 417.724 418.949 417.572 418.432 417.572C418.048 417.572 417.691 417.66 417.36 417.836C417.035 418.012 416.728 418.252 416.44 418.556V424.5H414.72V416.34H415.76C415.995 416.34 416.144 416.449 416.208 416.668L416.328 417.42ZM429.457 417.94C429.403 418.009 429.353 418.063 429.305 418.1C429.257 418.137 429.187 418.156 429.097 418.156C429.006 418.156 428.91 418.124 428.809 418.06C428.713 417.996 428.595 417.927 428.457 417.852C428.323 417.772 428.161 417.7 427.969 417.636C427.777 417.572 427.537 417.54 427.249 417.54C426.875 417.54 426.547 417.607 426.265 417.74C425.987 417.873 425.753 418.065 425.561 418.316C425.374 418.561 425.233 418.863 425.137 419.22C425.046 419.572 425.001 419.969 425.001 420.412C425.001 420.871 425.051 421.279 425.153 421.636C425.254 421.993 425.398 422.295 425.585 422.54C425.777 422.785 426.006 422.972 426.273 423.1C426.545 423.228 426.849 423.292 427.185 423.292C427.515 423.292 427.785 423.252 427.993 423.172C428.201 423.092 428.374 423.004 428.513 422.908C428.651 422.812 428.769 422.724 428.865 422.644C428.966 422.564 429.073 422.524 429.185 422.524C429.323 422.524 429.43 422.577 429.505 422.684L429.993 423.316C429.795 423.556 429.577 423.759 429.337 423.924C429.097 424.089 428.843 424.225 428.577 424.332C428.31 424.433 428.033 424.505 427.745 424.548C427.457 424.596 427.166 424.62 426.873 424.62C426.366 424.62 425.891 424.527 425.449 424.34C425.011 424.148 424.627 423.873 424.297 423.516C423.971 423.153 423.713 422.713 423.521 422.196C423.334 421.673 423.241 421.079 423.241 420.412C423.241 419.809 423.326 419.252 423.497 418.74C423.667 418.223 423.915 417.777 424.241 417.404C424.571 417.031 424.979 416.74 425.465 416.532C425.95 416.319 426.51 416.212 427.145 416.212C427.737 416.212 428.257 416.308 428.705 416.5C429.158 416.692 429.561 416.964 429.913 417.316L429.457 417.94ZM436.588 419.5C436.588 419.212 436.545 418.945 436.46 418.7C436.38 418.449 436.26 418.233 436.1 418.052C435.94 417.865 435.74 417.721 435.5 417.62C435.265 417.513 434.993 417.46 434.684 417.46C434.06 417.46 433.569 417.639 433.212 417.996C432.854 418.353 432.628 418.855 432.532 419.5H436.588ZM432.484 420.556C432.505 421.02 432.577 421.423 432.7 421.764C432.822 422.1 432.985 422.38 433.188 422.604C433.396 422.828 433.641 422.996 433.924 423.108C434.212 423.215 434.532 423.268 434.884 423.268C435.22 423.268 435.51 423.231 435.756 423.156C436.001 423.076 436.214 422.991 436.396 422.9C436.577 422.804 436.732 422.719 436.86 422.644C436.988 422.564 437.105 422.524 437.212 422.524C437.35 422.524 437.457 422.577 437.532 422.684L438.02 423.316C437.817 423.556 437.588 423.759 437.332 423.924C437.076 424.089 436.804 424.225 436.516 424.332C436.228 424.433 435.932 424.505 435.628 424.548C435.324 424.596 435.028 424.62 434.74 424.62C434.174 424.62 433.649 424.527 433.164 424.34C432.684 424.148 432.265 423.868 431.908 423.5C431.556 423.132 431.278 422.676 431.076 422.132C430.878 421.588 430.78 420.961 430.78 420.252C430.78 419.687 430.868 419.159 431.044 418.668C431.225 418.177 431.481 417.751 431.812 417.388C432.148 417.025 432.553 416.74 433.028 416.532C433.508 416.319 434.049 416.212 434.652 416.212C435.153 416.212 435.617 416.295 436.044 416.46C436.47 416.62 436.838 416.857 437.148 417.172C437.457 417.487 437.697 417.873 437.868 418.332C438.044 418.785 438.132 419.303 438.132 419.884C438.132 420.151 438.102 420.329 438.044 420.42C437.985 420.511 437.878 420.556 437.724 420.556H432.484ZM441.488 412.66V424.5H439.768V412.66H441.488Z" fill="#3A3A3A"/>
<rect x="379.5" y="394.5" width="79" height="47" stroke="#3A3A3A"/>
</g>
<g filter="url(#filter1_d)">
<rect width="130" height="48" transform="translate(475 394)" fill="#FCD2D2"/>
<path d="M498.392 414.948C498.333 415.044 498.272 415.116 498.208 415.164C498.144 415.207 498.064 415.228 497.968 415.228C497.867 415.228 497.752 415.185 497.624 415.1C497.501 415.015 497.347 414.921 497.16 414.82C496.979 414.713 496.763 414.617 496.512 414.532C496.261 414.441 495.963 414.396 495.616 414.396C495.296 414.396 495.013 414.436 494.768 414.516C494.528 414.596 494.325 414.708 494.16 414.852C493.995 414.996 493.869 415.167 493.784 415.364C493.704 415.556 493.664 415.767 493.664 415.996C493.664 416.289 493.741 416.535 493.896 416.732C494.051 416.924 494.253 417.089 494.504 417.228C494.76 417.367 495.051 417.489 495.376 417.596C495.701 417.697 496.032 417.807 496.368 417.924C496.709 418.041 497.043 418.175 497.368 418.324C497.693 418.473 497.981 418.663 498.232 418.892C498.488 419.121 498.693 419.401 498.848 419.732C499.003 420.063 499.08 420.465 499.08 420.94C499.08 421.452 498.992 421.932 498.816 422.38C498.64 422.828 498.384 423.22 498.048 423.556C497.717 423.887 497.307 424.148 496.816 424.34C496.331 424.532 495.776 424.628 495.152 424.628C494.784 424.628 494.424 424.591 494.072 424.516C493.725 424.447 493.392 424.348 493.072 424.22C492.757 424.087 492.461 423.927 492.184 423.74C491.907 423.553 491.659 423.345 491.44 423.116L491.984 422.22C492.032 422.145 492.093 422.087 492.168 422.044C492.243 422.001 492.325 421.98 492.416 421.98C492.539 421.98 492.675 422.039 492.824 422.156C492.973 422.268 493.152 422.393 493.36 422.532C493.573 422.665 493.829 422.791 494.128 422.908C494.427 423.02 494.784 423.076 495.2 423.076C495.877 423.076 496.4 422.911 496.768 422.58C497.141 422.249 497.328 421.793 497.328 421.212C497.328 420.887 497.251 420.623 497.096 420.42C496.941 420.212 496.736 420.039 496.48 419.9C496.229 419.761 495.941 419.644 495.616 419.548C495.291 419.452 494.96 419.351 494.624 419.244C494.288 419.132 493.957 419.004 493.632 418.86C493.307 418.711 493.016 418.519 492.76 418.284C492.509 418.044 492.307 417.751 492.152 417.404C491.997 417.052 491.92 416.615 491.92 416.092C491.92 415.676 492 415.273 492.16 414.884C492.325 414.495 492.563 414.151 492.872 413.852C493.187 413.548 493.573 413.305 494.032 413.124C494.491 412.943 495.013 412.852 495.6 412.852C496.261 412.852 496.867 412.956 497.416 413.164C497.971 413.372 498.448 413.668 498.848 414.052L498.392 414.948ZM505.033 420.932C504.42 420.953 503.902 421.004 503.481 421.084C503.06 421.159 502.718 421.257 502.457 421.38C502.196 421.497 502.006 421.639 501.889 421.804C501.777 421.969 501.721 422.151 501.721 422.348C501.721 422.54 501.75 422.705 501.809 422.844C501.873 422.977 501.958 423.089 502.065 423.18C502.177 423.265 502.305 423.329 502.449 423.372C502.598 423.409 502.761 423.428 502.937 423.428C503.385 423.428 503.769 423.345 504.089 423.18C504.414 423.009 504.729 422.764 505.033 422.444V420.932ZM500.473 417.476C501.396 416.617 502.494 416.188 503.769 416.188C504.238 416.188 504.654 416.265 505.017 416.42C505.385 416.569 505.692 416.783 505.937 417.06C506.188 417.337 506.377 417.668 506.505 418.052C506.638 418.431 506.705 418.852 506.705 419.316V424.5H505.937C505.772 424.5 505.646 424.476 505.561 424.428C505.476 424.375 505.404 424.271 505.345 424.116L505.177 423.452C504.969 423.639 504.764 423.807 504.561 423.956C504.358 424.1 504.148 424.223 503.929 424.324C503.716 424.425 503.484 424.5 503.233 424.548C502.988 424.601 502.716 424.628 502.417 424.628C502.086 424.628 501.777 424.583 501.489 424.492C501.206 424.401 500.961 424.265 500.753 424.084C500.545 423.897 500.38 423.668 500.257 423.396C500.14 423.124 500.081 422.804 500.081 422.436C500.081 422.121 500.164 421.815 500.329 421.516C500.5 421.217 500.777 420.951 501.161 420.716C501.55 420.476 502.06 420.279 502.689 420.124C503.324 419.969 504.105 419.881 505.033 419.86V419.316C505.033 418.729 504.908 418.292 504.657 418.004C504.406 417.716 504.038 417.572 503.553 417.572C503.222 417.572 502.945 417.615 502.721 417.7C502.497 417.78 502.302 417.868 502.137 417.964C501.972 418.06 501.825 418.151 501.697 418.236C501.569 418.316 501.433 418.356 501.289 418.356C501.172 418.356 501.07 418.327 500.985 418.268C500.905 418.204 500.838 418.127 500.785 418.036L500.473 417.476ZM515.716 416.34L512.436 424.5H510.884L507.604 416.34H509.02C509.154 416.34 509.263 416.375 509.348 416.444C509.439 416.508 509.498 416.585 509.524 416.676L511.332 421.428C511.407 421.652 511.474 421.873 511.532 422.092C511.591 422.311 511.642 422.532 511.684 422.756C511.727 422.532 511.778 422.313 511.836 422.1C511.9 421.881 511.97 421.657 512.044 421.428L513.884 416.676C513.916 416.58 513.975 416.5 514.06 416.436C514.146 416.372 514.25 416.34 514.372 416.34H515.716ZM522.009 419.5C522.009 419.212 521.967 418.945 521.881 418.7C521.801 418.449 521.681 418.233 521.521 418.052C521.361 417.865 521.161 417.721 520.921 417.62C520.687 417.513 520.415 417.46 520.105 417.46C519.481 417.46 518.991 417.639 518.633 417.996C518.276 418.353 518.049 418.855 517.953 419.5H522.009ZM517.905 420.556C517.927 421.02 517.999 421.423 518.121 421.764C518.244 422.1 518.407 422.38 518.609 422.604C518.817 422.828 519.063 422.996 519.345 423.108C519.633 423.215 519.953 423.268 520.305 423.268C520.641 423.268 520.932 423.231 521.177 423.156C521.423 423.076 521.636 422.991 521.817 422.9C521.999 422.804 522.153 422.719 522.281 422.644C522.409 422.564 522.527 422.524 522.633 422.524C522.772 422.524 522.879 422.577 522.953 422.684L523.441 423.316C523.239 423.556 523.009 423.759 522.753 423.924C522.497 424.089 522.225 424.225 521.937 424.332C521.649 424.433 521.353 424.505 521.049 424.548C520.745 424.596 520.449 424.62 520.161 424.62C519.596 424.62 519.071 424.527 518.585 424.34C518.105 424.148 517.687 423.868 517.329 423.5C516.977 423.132 516.7 422.676 516.497 422.132C516.3 421.588 516.201 420.961 516.201 420.252C516.201 419.687 516.289 419.159 516.465 418.668C516.647 418.177 516.903 417.751 517.233 417.388C517.569 417.025 517.975 416.74 518.449 416.532C518.929 416.319 519.471 416.212 520.073 416.212C520.575 416.212 521.039 416.295 521.465 416.46C521.892 416.62 522.26 416.857 522.569 417.172C522.879 417.487 523.119 417.873 523.289 418.332C523.465 418.785 523.553 419.303 523.553 419.884C523.553 420.151 523.524 420.329 523.465 420.42C523.407 420.511 523.3 420.556 523.145 420.556H517.905ZM537.462 421.932C537.563 421.932 537.651 421.972 537.726 422.052L538.47 422.86C538 423.425 537.424 423.863 536.742 424.172C536.059 424.476 535.243 424.628 534.294 424.628C533.451 424.628 532.688 424.484 532.006 424.196C531.328 423.903 530.75 423.497 530.27 422.98C529.79 422.457 529.419 421.836 529.158 421.116C528.902 420.396 528.774 419.604 528.774 418.74C528.774 417.876 528.91 417.084 529.182 416.364C529.459 415.639 529.846 415.017 530.342 414.5C530.843 413.977 531.44 413.572 532.134 413.284C532.832 412.996 533.6 412.852 534.438 412.852C535.27 412.852 536.003 412.988 536.638 413.26C537.278 413.527 537.832 413.884 538.302 414.332L537.686 415.204C537.643 415.263 537.592 415.313 537.534 415.356C537.475 415.399 537.395 415.42 537.294 415.42C537.187 415.42 537.064 415.372 536.926 415.276C536.792 415.175 536.619 415.065 536.406 414.948C536.198 414.825 535.934 414.716 535.614 414.62C535.299 414.519 534.904 414.468 534.43 414.468C533.88 414.468 533.376 414.564 532.918 414.756C532.459 414.948 532.064 415.228 531.734 415.596C531.403 415.964 531.144 416.412 530.958 416.94C530.776 417.468 530.686 418.068 530.686 418.74C530.686 419.417 530.782 420.023 530.974 420.556C531.166 421.084 531.43 421.532 531.766 421.9C532.102 422.263 532.496 422.54 532.95 422.732C533.403 422.924 533.891 423.02 534.414 423.02C534.734 423.02 535.019 423.004 535.27 422.972C535.526 422.935 535.76 422.879 535.974 422.804C536.187 422.724 536.387 422.625 536.574 422.508C536.766 422.391 536.955 422.247 537.142 422.076C537.248 421.98 537.355 421.932 537.462 421.932ZM541.487 417.308C541.823 416.977 542.191 416.713 542.591 416.516C542.991 416.313 543.457 416.212 543.991 416.212C544.439 416.212 544.831 416.287 545.167 416.436C545.508 416.585 545.793 416.796 546.023 417.068C546.257 417.34 546.433 417.668 546.551 418.052C546.668 418.431 546.727 418.849 546.727 419.308V424.5H545.015V419.308C545.015 418.759 544.887 418.332 544.631 418.028C544.38 417.724 543.996 417.572 543.479 417.572C543.095 417.572 542.737 417.66 542.407 417.836C542.081 418.012 541.775 418.252 541.487 418.556V424.5H539.767V412.66H541.487V417.308ZM553.096 420.932C552.482 420.953 551.965 421.004 551.544 421.084C551.122 421.159 550.781 421.257 550.52 421.38C550.258 421.497 550.069 421.639 549.952 421.804C549.84 421.969 549.784 422.151 549.784 422.348C549.784 422.54 549.813 422.705 549.872 422.844C549.936 422.977 550.021 423.089 550.128 423.18C550.24 423.265 550.368 423.329 550.512 423.372C550.661 423.409 550.824 423.428 551 423.428C551.448 423.428 551.832 423.345 552.152 423.18C552.477 423.009 552.792 422.764 553.096 422.444V420.932ZM548.536 417.476C549.458 416.617 550.557 416.188 551.832 416.188C552.301 416.188 552.717 416.265 553.08 416.42C553.448 416.569 553.754 416.783 554 417.06C554.25 417.337 554.44 417.668 554.568 418.052C554.701 418.431 554.768 418.852 554.768 419.316V424.5H554C553.834 424.5 553.709 424.476 553.624 424.428C553.538 424.375 553.466 424.271 553.408 424.116L553.24 423.452C553.032 423.639 552.826 423.807 552.624 423.956C552.421 424.1 552.21 424.223 551.992 424.324C551.778 424.425 551.546 424.5 551.296 424.548C551.05 424.601 550.778 424.628 550.48 424.628C550.149 424.628 549.84 424.583 549.552 424.492C549.269 424.401 549.024 424.265 548.816 424.084C548.608 423.897 548.442 423.668 548.32 423.396C548.202 423.124 548.144 422.804 548.144 422.436C548.144 422.121 548.226 421.815 548.392 421.516C548.562 421.217 548.84 420.951 549.224 420.716C549.613 420.476 550.122 420.279 550.752 420.124C551.386 419.969 552.168 419.881 553.096 419.86V419.316C553.096 418.729 552.97 418.292 552.72 418.004C552.469 417.716 552.101 417.572 551.616 417.572C551.285 417.572 551.008 417.615 550.784 417.7C550.56 417.78 550.365 417.868 550.2 417.964C550.034 418.06 549.888 418.151 549.76 418.236C549.632 418.316 549.496 418.356 549.352 418.356C549.234 418.356 549.133 418.327 549.048 418.268C548.968 418.204 548.901 418.127 548.848 418.036L548.536 417.476ZM558.39 417.42C558.566 417.239 558.748 417.076 558.934 416.932C559.126 416.783 559.329 416.655 559.542 416.548C559.756 416.441 559.982 416.359 560.222 416.3C560.462 416.241 560.724 416.212 561.006 416.212C561.454 416.212 561.846 416.287 562.182 416.436C562.524 416.585 562.809 416.796 563.038 417.068C563.273 417.34 563.449 417.668 563.566 418.052C563.684 418.431 563.742 418.849 563.742 419.308V424.5H562.03V419.308C562.03 418.759 561.902 418.332 561.646 418.028C561.396 417.724 561.012 417.572 560.494 417.572C560.11 417.572 559.753 417.66 559.422 417.836C559.097 418.012 558.79 418.252 558.502 418.556V424.5H556.782V416.34H557.822C558.057 416.34 558.206 416.449 558.27 416.668L558.39 417.42ZM568.663 420.348C569.196 420.348 569.596 420.212 569.863 419.94C570.13 419.668 570.263 419.313 570.263 418.876C570.263 418.428 570.13 418.073 569.863 417.812C569.596 417.551 569.196 417.42 568.663 417.42C568.135 417.42 567.735 417.551 567.463 417.812C567.196 418.073 567.063 418.428 567.063 418.876C567.063 419.089 567.098 419.287 567.167 419.468C567.236 419.649 567.338 419.807 567.471 419.94C567.604 420.068 567.77 420.169 567.967 420.244C568.17 420.313 568.402 420.348 568.663 420.348ZM571.055 424.9C571.055 424.719 571.002 424.575 570.895 424.468C570.794 424.356 570.655 424.271 570.479 424.212C570.303 424.148 570.098 424.103 569.863 424.076C569.628 424.044 569.378 424.023 569.111 424.012C568.85 423.996 568.58 423.983 568.303 423.972C568.031 423.956 567.767 423.929 567.511 423.892C567.255 424.025 567.044 424.185 566.879 424.372C566.719 424.559 566.639 424.775 566.639 425.02C566.639 425.18 566.679 425.329 566.759 425.468C566.844 425.607 566.972 425.727 567.143 425.828C567.319 425.929 567.54 426.009 567.807 426.068C568.079 426.127 568.404 426.156 568.783 426.156C569.54 426.156 570.108 426.039 570.487 425.804C570.866 425.569 571.055 425.268 571.055 424.9ZM572.783 416.636V417.276C572.783 417.489 572.655 417.62 572.399 417.668L571.583 417.804C571.722 418.113 571.791 418.457 571.791 418.836C571.791 419.236 571.711 419.599 571.551 419.924C571.396 420.249 571.18 420.527 570.903 420.756C570.626 420.985 570.295 421.161 569.911 421.284C569.527 421.407 569.111 421.468 568.663 421.468C568.492 421.468 568.324 421.46 568.159 421.444C567.999 421.423 567.842 421.396 567.687 421.364C567.532 421.455 567.418 421.551 567.343 421.652C567.268 421.753 567.231 421.857 567.231 421.964C567.231 422.14 567.308 422.271 567.463 422.356C567.618 422.441 567.82 422.503 568.071 422.54C568.327 422.577 568.618 422.601 568.943 422.612C569.268 422.623 569.599 422.641 569.935 422.668C570.271 422.695 570.602 422.74 570.927 422.804C571.252 422.863 571.54 422.964 571.791 423.108C572.047 423.247 572.252 423.436 572.407 423.676C572.562 423.916 572.639 424.228 572.639 424.612C572.639 424.964 572.551 425.308 572.375 425.644C572.199 425.98 571.943 426.279 571.607 426.54C571.276 426.801 570.871 427.009 570.391 427.164C569.911 427.324 569.364 427.404 568.751 427.404C568.143 427.404 567.612 427.345 567.159 427.228C566.711 427.111 566.335 426.951 566.031 426.748C565.732 426.551 565.508 426.321 565.359 426.06C565.215 425.799 565.143 425.527 565.143 425.244C565.143 424.86 565.263 424.532 565.503 424.26C565.748 423.988 566.079 423.775 566.495 423.62C566.271 423.513 566.09 423.367 565.951 423.18C565.818 422.993 565.751 422.748 565.751 422.444C565.751 422.204 565.839 421.953 566.015 421.692C566.191 421.431 566.455 421.209 566.807 421.028C566.402 420.804 566.082 420.508 565.847 420.14C565.612 419.767 565.495 419.332 565.495 418.836C565.495 418.431 565.572 418.065 565.727 417.74C565.887 417.415 566.108 417.137 566.391 416.908C566.674 416.679 567.007 416.503 567.391 416.38C567.78 416.257 568.204 416.196 568.663 416.196C569.367 416.196 569.98 416.343 570.503 416.636H572.783ZM579.353 419.5C579.353 419.212 579.31 418.945 579.225 418.7C579.145 418.449 579.025 418.233 578.865 418.052C578.705 417.865 578.505 417.721 578.265 417.62C578.03 417.513 577.758 417.46 577.449 417.46C576.825 417.46 576.334 417.639 575.977 417.996C575.62 418.353 575.393 418.855 575.297 419.5H579.353ZM575.249 420.556C575.27 421.02 575.342 421.423 575.465 421.764C575.588 422.1 575.75 422.38 575.953 422.604C576.161 422.828 576.406 422.996 576.689 423.108C576.977 423.215 577.297 423.268 577.649 423.268C577.985 423.268 578.276 423.231 578.521 423.156C578.766 423.076 578.98 422.991 579.161 422.9C579.342 422.804 579.497 422.719 579.625 422.644C579.753 422.564 579.87 422.524 579.977 422.524C580.116 422.524 580.222 422.577 580.297 422.684L580.785 423.316C580.582 423.556 580.353 423.759 580.097 423.924C579.841 424.089 579.569 424.225 579.281 424.332C578.993 424.433 578.697 424.505 578.393 424.548C578.089 424.596 577.793 424.62 577.505 424.62C576.94 424.62 576.414 424.527 575.929 424.34C575.449 424.148 575.03 423.868 574.673 423.5C574.321 423.132 574.044 422.676 573.841 422.132C573.644 421.588 573.545 420.961 573.545 420.252C573.545 419.687 573.633 419.159 573.809 418.668C573.99 418.177 574.246 417.751 574.577 417.388C574.913 417.025 575.318 416.74 575.793 416.532C576.273 416.319 576.814 416.212 577.417 416.212C577.918 416.212 578.382 416.295 578.809 416.46C579.236 416.62 579.604 416.857 579.913 417.172C580.222 417.487 580.462 417.873 580.633 418.332C580.809 418.785 580.897 419.303 580.897 419.884C580.897 420.151 580.868 420.329 580.809 420.42C580.75 420.511 580.644 420.556 580.489 420.556H575.249ZM587.373 417.82C587.33 417.895 587.282 417.948 587.229 417.98C587.176 418.012 587.109 418.028 587.029 418.028C586.938 418.028 586.84 418.001 586.733 417.948C586.626 417.889 586.501 417.825 586.357 417.756C586.213 417.687 586.042 417.625 585.845 417.572C585.653 417.513 585.426 417.484 585.165 417.484C584.952 417.484 584.757 417.511 584.581 417.564C584.41 417.612 584.264 417.684 584.141 417.78C584.024 417.871 583.933 417.98 583.869 418.108C583.805 418.231 583.773 418.364 583.773 418.508C583.773 418.7 583.832 418.86 583.949 418.988C584.066 419.116 584.221 419.228 584.413 419.324C584.605 419.415 584.824 419.497 585.069 419.572C585.314 419.647 585.565 419.727 585.821 419.812C586.077 419.897 586.328 419.996 586.573 420.108C586.818 420.22 587.037 420.359 587.229 420.524C587.421 420.684 587.576 420.881 587.693 421.116C587.81 421.345 587.869 421.625 587.869 421.956C587.869 422.34 587.8 422.695 587.661 423.02C587.522 423.345 587.32 423.628 587.053 423.868C586.786 424.108 586.453 424.295 586.053 424.428C585.658 424.561 585.205 424.628 584.693 424.628C584.41 424.628 584.136 424.601 583.869 424.548C583.608 424.5 583.357 424.433 583.117 424.348C582.882 424.257 582.661 424.151 582.453 424.028C582.25 423.905 582.069 423.772 581.909 423.628L582.309 422.972C582.357 422.892 582.416 422.831 582.485 422.788C582.56 422.74 582.65 422.716 582.757 422.716C582.869 422.716 582.978 422.753 583.085 422.828C583.197 422.897 583.325 422.975 583.469 423.06C583.618 423.145 583.797 423.225 584.005 423.3C584.213 423.369 584.472 423.404 584.781 423.404C585.037 423.404 585.258 423.375 585.445 423.316C585.632 423.252 585.786 423.167 585.909 423.06C586.032 422.953 586.122 422.833 586.181 422.7C586.24 422.561 586.269 422.415 586.269 422.26C586.269 422.052 586.21 421.881 586.093 421.748C585.976 421.615 585.818 421.5 585.621 421.404C585.429 421.308 585.208 421.223 584.957 421.148C584.712 421.073 584.461 420.993 584.205 420.908C583.949 420.823 583.696 420.724 583.445 420.612C583.2 420.5 582.978 420.359 582.781 420.188C582.589 420.012 582.434 419.801 582.317 419.556C582.2 419.305 582.141 419.001 582.141 418.644C582.141 418.319 582.205 418.009 582.333 417.716C582.466 417.423 582.658 417.164 582.909 416.94C583.165 416.716 583.477 416.54 583.845 416.412C584.218 416.279 584.648 416.212 585.133 416.212C585.682 416.212 586.181 416.3 586.629 416.476C587.077 416.652 587.453 416.892 587.757 417.196L587.373 417.82Z" fill="#2A2A2A"/>
</g>
<rect width="532" height="128" transform="translate(73 219)" fill="white"/>
<rect x="73.5" y="219.5" width="531" height="127" stroke="#302C2C"/>
<path d="M82.854 151.168C82.854 151.663 82.7373 152.129 82.504 152.568C82.2707 153.007 81.8973 153.366 81.384 153.646C80.8707 153.917 80.2127 154.052 79.41 154.052H77.646V158H76.05V148.27H79.41C80.1567 148.27 80.7867 148.401 81.3 148.662C81.8227 148.914 82.21 149.259 82.462 149.698C82.7233 150.137 82.854 150.627 82.854 151.168ZM79.41 152.75C80.0167 152.75 80.4693 152.615 80.768 152.344C81.0667 152.064 81.216 151.672 81.216 151.168C81.216 150.104 80.614 149.572 79.41 149.572H77.646V152.75H79.41ZM83.8442 154.108C83.8442 153.333 84.0028 152.647 84.3202 152.05C84.6468 151.453 85.0855 150.991 85.6362 150.664C86.1962 150.328 86.8122 150.16 87.4842 150.16C88.0908 150.16 88.6182 150.281 89.0662 150.524C89.5235 150.757 89.8875 151.051 90.1582 151.406V150.286H91.7682V158H90.1582V156.852C89.8875 157.216 89.5188 157.519 89.0522 157.762C88.5855 158.005 88.0535 158.126 87.4562 158.126C86.7935 158.126 86.1868 157.958 85.6362 157.622C85.0855 157.277 84.6468 156.801 84.3202 156.194C84.0028 155.578 83.8442 154.883 83.8442 154.108ZM90.1582 154.136C90.1582 153.604 90.0462 153.142 89.8222 152.75C89.6075 152.358 89.3228 152.059 88.9682 151.854C88.6135 151.649 88.2308 151.546 87.8202 151.546C87.4095 151.546 87.0268 151.649 86.6722 151.854C86.3175 152.05 86.0282 152.344 85.8042 152.736C85.5895 153.119 85.4822 153.576 85.4822 154.108C85.4822 154.64 85.5895 155.107 85.8042 155.508C86.0282 155.909 86.3175 156.217 86.6722 156.432C87.0362 156.637 87.4188 156.74 87.8202 156.74C88.2308 156.74 88.6135 156.637 88.9682 156.432C89.3228 156.227 89.6075 155.928 89.8222 155.536C90.0462 155.135 90.1582 154.668 90.1582 154.136ZM95.4605 151.406C95.6938 151.014 96.0018 150.711 96.3845 150.496C96.7765 150.272 97.2385 150.16 97.7705 150.16V151.812H97.3645C96.7391 151.812 96.2631 151.971 95.9365 152.288C95.6191 152.605 95.4605 153.156 95.4605 153.94V158H93.8645V150.286H95.4605V151.406ZM101.1 151.588V155.858C101.1 156.147 101.165 156.357 101.296 156.488C101.436 156.609 101.669 156.67 101.996 156.67H102.976V158H101.716C100.997 158 100.446 157.832 100.064 157.496C99.6808 157.16 99.4895 156.614 99.4895 155.858V151.588H98.5795V150.286H99.4895V148.368H101.1V150.286H102.976V151.588H101.1ZM105.258 149.264C104.969 149.264 104.726 149.166 104.53 148.97C104.334 148.774 104.236 148.531 104.236 148.242C104.236 147.953 104.334 147.71 104.53 147.514C104.726 147.318 104.969 147.22 105.258 147.22C105.538 147.22 105.776 147.318 105.972 147.514C106.168 147.71 106.266 147.953 106.266 148.242C106.266 148.531 106.168 148.774 105.972 148.97C105.776 149.166 105.538 149.264 105.258 149.264ZM106.042 150.286V158H104.446V150.286H106.042ZM107.606 154.136C107.606 153.343 107.765 152.647 108.082 152.05C108.409 151.443 108.857 150.977 109.426 150.65C109.995 150.323 110.649 150.16 111.386 150.16C112.319 150.16 113.089 150.384 113.696 150.832C114.312 151.271 114.727 151.901 114.942 152.722H113.22C113.08 152.339 112.856 152.041 112.548 151.826C112.24 151.611 111.853 151.504 111.386 151.504C110.733 151.504 110.21 151.737 109.818 152.204C109.435 152.661 109.244 153.305 109.244 154.136C109.244 154.967 109.435 155.615 109.818 156.082C110.21 156.549 110.733 156.782 111.386 156.782C112.31 156.782 112.921 156.376 113.22 155.564H114.942C114.718 156.348 114.298 156.973 113.682 157.44C113.066 157.897 112.301 158.126 111.386 158.126C110.649 158.126 109.995 157.963 109.426 157.636C108.857 157.3 108.409 156.833 108.082 156.236C107.765 155.629 107.606 154.929 107.606 154.136ZM117.344 149.264C117.055 149.264 116.812 149.166 116.616 148.97C116.42 148.774 116.322 148.531 116.322 148.242C116.322 147.953 116.42 147.71 116.616 147.514C116.812 147.318 117.055 147.22 117.344 147.22C117.624 147.22 117.862 147.318 118.058 147.514C118.254 147.71 118.352 147.953 118.352 148.242C118.352 148.531 118.254 148.774 118.058 148.97C117.862 149.166 117.624 149.264 117.344 149.264ZM118.128 150.286V158H116.532V150.286H118.128ZM121.82 151.42C122.09 151.065 122.459 150.767 122.926 150.524C123.392 150.281 123.92 150.16 124.508 150.16C125.18 150.16 125.791 150.328 126.342 150.664C126.902 150.991 127.34 151.453 127.658 152.05C127.975 152.647 128.134 153.333 128.134 154.108C128.134 154.883 127.975 155.578 127.658 156.194C127.34 156.801 126.902 157.277 126.342 157.622C125.791 157.958 125.18 158.126 124.508 158.126C123.92 158.126 123.397 158.009 122.94 157.776C122.482 157.533 122.109 157.235 121.82 156.88V161.668H120.224V150.286H121.82V151.42ZM126.51 154.108C126.51 153.576 126.398 153.119 126.174 152.736C125.959 152.344 125.67 152.05 125.306 151.854C124.951 151.649 124.568 151.546 124.158 151.546C123.756 151.546 123.374 151.649 123.01 151.854C122.655 152.059 122.366 152.358 122.142 152.75C121.927 153.142 121.82 153.604 121.82 154.136C121.82 154.668 121.927 155.135 122.142 155.536C122.366 155.928 122.655 156.227 123.01 156.432C123.374 156.637 123.756 156.74 124.158 156.74C124.568 156.74 124.951 156.637 125.306 156.432C125.67 156.217 125.959 155.909 126.174 155.508C126.398 155.107 126.51 154.64 126.51 154.108ZM129.18 154.108C129.18 153.333 129.339 152.647 129.656 152.05C129.983 151.453 130.421 150.991 130.972 150.664C131.532 150.328 132.148 150.16 132.82 150.16C133.427 150.16 133.954 150.281 134.402 150.524C134.859 150.757 135.223 151.051 135.494 151.406V150.286H137.104V158H135.494V156.852C135.223 157.216 134.855 157.519 134.388 157.762C133.921 158.005 133.389 158.126 132.792 158.126C132.129 158.126 131.523 157.958 130.972 157.622C130.421 157.277 129.983 156.801 129.656 156.194C129.339 155.578 129.18 154.883 129.18 154.108ZM135.494 154.136C135.494 153.604 135.382 153.142 135.158 152.75C134.943 152.358 134.659 152.059 134.304 151.854C133.949 151.649 133.567 151.546 133.156 151.546C132.745 151.546 132.363 151.649 132.008 151.854C131.653 152.05 131.364 152.344 131.14 152.736C130.925 153.119 130.818 153.576 130.818 154.108C130.818 154.64 130.925 155.107 131.14 155.508C131.364 155.909 131.653 156.217 132.008 156.432C132.372 156.637 132.755 156.74 133.156 156.74C133.567 156.74 133.949 156.637 134.304 156.432C134.659 156.227 134.943 155.928 135.158 155.536C135.382 155.135 135.494 154.668 135.494 154.136ZM143.092 150.16C143.699 150.16 144.24 150.286 144.716 150.538C145.202 150.79 145.58 151.163 145.85 151.658C146.121 152.153 146.256 152.75 146.256 153.45V158H144.674V153.688C144.674 152.997 144.502 152.47 144.156 152.106C143.811 151.733 143.34 151.546 142.742 151.546C142.145 151.546 141.669 151.733 141.314 152.106C140.969 152.47 140.796 152.997 140.796 153.688V158H139.2V150.286H140.796V151.168C141.058 150.851 141.389 150.603 141.79 150.426C142.201 150.249 142.635 150.16 143.092 150.16ZM150.154 151.588V155.858C150.154 156.147 150.22 156.357 150.35 156.488C150.49 156.609 150.724 156.67 151.05 156.67H152.03V158H150.77C150.052 158 149.501 157.832 149.118 157.496C148.736 157.16 148.544 156.614 148.544 155.858V151.588H147.634V150.286H148.544V148.368H150.154V150.286H152.03V151.588H150.154ZM158.734 148.27V158H157.138V148.27H158.734ZM164.007 148.27C165.043 148.27 165.949 148.471 166.723 148.872C167.507 149.264 168.109 149.833 168.529 150.58C168.959 151.317 169.173 152.181 169.173 153.17C169.173 154.159 168.959 155.018 168.529 155.746C168.109 156.474 167.507 157.034 166.723 157.426C165.949 157.809 165.043 158 164.007 158H160.829V148.27H164.007ZM164.007 156.698C165.146 156.698 166.019 156.39 166.625 155.774C167.232 155.158 167.535 154.29 167.535 153.17C167.535 152.041 167.232 151.159 166.625 150.524C166.019 149.889 165.146 149.572 164.007 149.572H162.425V156.698H164.007ZM171.399 158.098C171.11 158.098 170.867 158 170.671 157.804C170.475 157.608 170.377 157.365 170.377 157.076C170.377 156.787 170.475 156.544 170.671 156.348C170.867 156.152 171.11 156.054 171.399 156.054C171.679 156.054 171.917 156.152 172.113 156.348C172.309 156.544 172.407 156.787 172.407 157.076C172.407 157.365 172.309 157.608 172.113 157.804C171.917 158 171.679 158.098 171.399 158.098ZM171.399 152.218C171.11 152.218 170.867 152.12 170.671 151.924C170.475 151.728 170.377 151.485 170.377 151.196C170.377 150.907 170.475 150.664 170.671 150.468C170.867 150.272 171.11 150.174 171.399 150.174C171.679 150.174 171.917 150.272 172.113 150.468C172.309 150.664 172.407 150.907 172.407 151.196C172.407 151.485 172.309 151.728 172.113 151.924C171.917 152.12 171.679 152.218 171.399 152.218Z" fill="#1C1C1C"/>
<path d="M82.044 208H80.448L75.646 200.734V208H74.05V198.256H75.646L80.448 205.508V198.256H82.044V208ZM87.4858 208.126C86.7578 208.126 86.0998 207.963 85.5118 207.636C84.9238 207.3 84.4618 206.833 84.1258 206.236C83.7898 205.629 83.6218 204.929 83.6218 204.136C83.6218 203.352 83.7945 202.657 84.1398 202.05C84.4852 201.443 84.9565 200.977 85.5538 200.65C86.1512 200.323 86.8185 200.16 87.5558 200.16C88.2932 200.16 88.9605 200.323 89.5578 200.65C90.1552 200.977 90.6265 201.443 90.9718 202.05C91.3172 202.657 91.4898 203.352 91.4898 204.136C91.4898 204.92 91.3125 205.615 90.9578 206.222C90.6032 206.829 90.1178 207.3 89.5018 207.636C88.8952 207.963 88.2232 208.126 87.4858 208.126ZM87.4858 206.74C87.8965 206.74 88.2792 206.642 88.6338 206.446C88.9978 206.25 89.2918 205.956 89.5158 205.564C89.7398 205.172 89.8518 204.696 89.8518 204.136C89.8518 203.576 89.7445 203.105 89.5298 202.722C89.3152 202.33 89.0305 202.036 88.6758 201.84C88.3212 201.644 87.9385 201.546 87.5278 201.546C87.1172 201.546 86.7345 201.644 86.3798 201.84C86.0345 202.036 85.7592 202.33 85.5538 202.722C85.3485 203.105 85.2458 203.576 85.2458 204.136C85.2458 204.967 85.4558 205.611 85.8758 206.068C86.3052 206.516 86.8418 206.74 87.4858 206.74ZM94.9296 201.588V205.858C94.9296 206.147 94.9949 206.357 95.1256 206.488C95.2656 206.609 95.4989 206.67 95.8256 206.67H96.8056V208H95.5456C94.8269 208 94.2762 207.832 93.8936 207.496C93.5109 207.16 93.3196 206.614 93.3196 205.858V201.588H92.4096V200.286H93.3196V198.368H94.9296V200.286H96.8056V201.588H94.9296ZM105.347 203.954C105.347 204.243 105.328 204.505 105.291 204.738H99.3966C99.4432 205.354 99.6719 205.849 100.083 206.222C100.493 206.595 100.997 206.782 101.595 206.782C102.453 206.782 103.06 206.423 103.415 205.704H105.137C104.903 206.413 104.479 206.997 103.863 207.454C103.256 207.902 102.5 208.126 101.595 208.126C100.857 208.126 100.195 207.963 99.6066 207.636C99.0279 207.3 98.5706 206.833 98.2346 206.236C97.9079 205.629 97.7446 204.929 97.7446 204.136C97.7446 203.343 97.9032 202.647 98.2206 202.05C98.5472 201.443 98.9999 200.977 99.5786 200.65C100.167 200.323 100.839 200.16 101.595 200.16C102.323 200.16 102.971 200.319 103.541 200.636C104.11 200.953 104.553 201.401 104.871 201.98C105.188 202.549 105.347 203.207 105.347 203.954ZM103.681 203.45C103.671 202.862 103.461 202.391 103.051 202.036C102.64 201.681 102.131 201.504 101.525 201.504C100.974 201.504 100.503 201.681 100.111 202.036C99.7186 202.381 99.4852 202.853 99.4106 203.45H103.681ZM109.717 208.126C109.111 208.126 108.565 208.019 108.079 207.804C107.603 207.58 107.225 207.281 106.945 206.908C106.665 206.525 106.516 206.101 106.497 205.634H108.149C108.177 205.961 108.331 206.236 108.611 206.46C108.901 206.675 109.26 206.782 109.689 206.782C110.137 206.782 110.483 206.698 110.725 206.53C110.977 206.353 111.103 206.129 111.103 205.858C111.103 205.569 110.963 205.354 110.683 205.214C110.413 205.074 109.979 204.92 109.381 204.752C108.803 204.593 108.331 204.439 107.967 204.29C107.603 204.141 107.286 203.912 107.015 203.604C106.754 203.296 106.623 202.89 106.623 202.386C106.623 201.975 106.745 201.602 106.987 201.266C107.23 200.921 107.575 200.65 108.023 200.454C108.481 200.258 109.003 200.16 109.591 200.16C110.469 200.16 111.173 200.384 111.705 200.832C112.247 201.271 112.536 201.873 112.573 202.638H110.977C110.949 202.293 110.809 202.017 110.557 201.812C110.305 201.607 109.965 201.504 109.535 201.504C109.115 201.504 108.793 201.583 108.569 201.742C108.345 201.901 108.233 202.111 108.233 202.372C108.233 202.577 108.308 202.75 108.457 202.89C108.607 203.03 108.789 203.142 109.003 203.226C109.218 203.301 109.535 203.399 109.955 203.52C110.515 203.669 110.973 203.823 111.327 203.982C111.691 204.131 112.004 204.355 112.265 204.654C112.527 204.953 112.662 205.349 112.671 205.844C112.671 206.283 112.55 206.675 112.307 207.02C112.065 207.365 111.719 207.636 111.271 207.832C110.833 208.028 110.315 208.126 109.717 208.126Z" fill="#2A2A2A"/>
<path d="M189.912 158H188.408C188.285 158 188.187 157.968 188.112 157.904C188.043 157.835 187.987 157.763 187.944 157.688L185.984 154.592C185.957 154.672 185.931 154.749 185.904 154.824C185.877 154.899 185.843 154.968 185.8 155.032L184 157.688C183.947 157.763 183.885 157.835 183.816 157.904C183.747 157.968 183.656 158 183.544 158H182.152L184.984 153.816L182.264 149.872H183.768C183.891 149.872 183.979 149.891 184.032 149.928C184.091 149.965 184.141 150.021 184.184 150.096L186.112 153.064C186.139 152.984 186.168 152.907 186.2 152.832C186.232 152.752 186.275 152.669 186.328 152.584L187.984 150.128C188.08 149.957 188.208 149.872 188.368 149.872H189.8L187.08 153.744L189.912 158ZM197.975 158H196.471C196.348 158 196.249 157.968 196.175 157.904C196.105 157.835 196.049 157.763 196.007 157.688L194.047 154.592C194.02 154.672 193.993 154.749 193.967 154.824C193.94 154.899 193.905 154.968 193.863 155.032L192.062 157.688C192.009 157.763 191.948 157.835 191.879 157.904C191.809 157.968 191.719 158 191.607 158H190.215L193.047 153.816L190.326 149.872H191.831C191.953 149.872 192.041 149.891 192.095 149.928C192.153 149.965 192.204 150.021 192.247 150.096L194.174 153.064C194.201 152.984 194.231 152.907 194.263 152.832C194.295 152.752 194.337 152.669 194.391 152.584L196.047 150.128C196.143 149.957 196.271 149.872 196.431 149.872H197.863L195.143 153.744L197.975 158ZM206.037 158H204.533C204.41 158 204.312 157.968 204.237 157.904C204.168 157.835 204.112 157.763 204.069 157.688L202.109 154.592C202.082 154.672 202.056 154.749 202.029 154.824C202.002 154.899 201.968 154.968 201.925 155.032L200.125 157.688C200.072 157.763 200.01 157.835 199.941 157.904C199.872 157.968 199.781 158 199.669 158H198.277L201.109 153.816L198.389 149.872H199.893C200.016 149.872 200.104 149.891 200.157 149.928C200.216 149.965 200.266 150.021 200.309 150.096L202.237 153.064C202.264 152.984 202.293 152.907 202.325 152.832C202.357 152.752 202.4 152.669 202.453 152.584L204.109 150.128C204.205 149.957 204.333 149.872 204.493 149.872H205.925L203.205 153.744L206.037 158ZM214.1 158H212.596C212.473 158 212.374 157.968 212.3 157.904C212.23 157.835 212.174 157.763 212.132 157.688L210.172 154.592C210.145 154.672 210.118 154.749 210.092 154.824C210.065 154.899 210.03 154.968 209.988 155.032L208.188 157.688C208.134 157.763 208.073 157.835 208.004 157.904C207.934 157.968 207.844 158 207.732 158H206.34L209.172 153.816L206.451 149.872H207.956C208.078 149.872 208.166 149.891 208.22 149.928C208.278 149.965 208.329 150.021 208.372 150.096L210.299 153.064C210.326 152.984 210.356 152.907 210.388 152.832C210.42 152.752 210.462 152.669 210.516 152.584L212.172 150.128C212.268 149.957 212.396 149.872 212.556 149.872H213.988L211.268 153.744L214.1 158ZM222.162 158H220.658C220.535 158 220.437 157.968 220.362 157.904C220.293 157.835 220.237 157.763 220.194 157.688L218.234 154.592C218.207 154.672 218.181 154.749 218.154 154.824C218.127 154.899 218.093 154.968 218.05 155.032L216.25 157.688C216.197 157.763 216.135 157.835 216.066 157.904C215.997 157.968 215.906 158 215.794 158H214.402L217.234 153.816L214.514 149.872H216.018C216.141 149.872 216.229 149.891 216.282 149.928C216.341 149.965 216.391 150.021 216.434 150.096L218.362 153.064C218.389 152.984 218.418 152.907 218.45 152.832C218.482 152.752 218.525 152.669 218.578 152.584L220.234 150.128C220.33 149.957 220.458 149.872 220.618 149.872H222.05L219.33 153.744L222.162 158ZM230.225 158H228.721C228.598 158 228.499 157.968 228.425 157.904C228.355 157.835 228.299 157.763 228.257 157.688L226.297 154.592C226.27 154.672 226.243 154.749 226.217 154.824C226.19 154.899 226.155 154.968 226.113 155.032L224.312 157.688C224.259 157.763 224.198 157.835 224.129 157.904C224.059 157.968 223.969 158 223.857 158H222.465L225.297 153.816L222.576 149.872H224.081C224.203 149.872 224.291 149.891 224.345 149.928C224.403 149.965 224.454 150.021 224.497 150.096L226.424 153.064C226.451 152.984 226.481 152.907 226.513 152.832C226.545 152.752 226.587 152.669 226.641 152.584L228.297 150.128C228.393 149.957 228.521 149.872 228.681 149.872H230.113L227.393 153.744L230.225 158Z" fill="black"/>
<path d="M75 97L76.5 92.5L88 81.5L91 84L79 96L75 97Z" fill="#E7BDBD"/>
<path d="M90.8717 83.3028C90.6017 82.9068 90.2957 82.5288 89.9177 82.1688C89.6657 81.9168 89.2877 81.6108 88.8017 81.2688C88.2077 80.8548 87.4157 80.9268 86.9117 81.4308L75.6437 92.6988C75.5897 92.7528 75.5537 92.8248 75.5177 92.8968L74.0417 97.0548C73.9517 97.3248 74.0057 97.6308 74.2217 97.8288C74.3657 97.9728 74.5637 98.0448 74.7437 98.0448C74.8337 98.0448 74.9057 98.0268 74.9957 98.0088L79.1717 96.5508C79.2437 96.5328 79.3157 96.4788 79.3697 96.4248L90.6737 85.1208C91.1597 84.6348 91.2497 83.8608 90.8717 83.3028ZM76.2737 93.9048C76.9937 94.4268 77.6237 95.0748 78.1637 95.7948L76.2917 96.4608C76.2197 96.3348 76.1117 96.1908 76.0037 96.0828C75.8777 95.9568 75.7517 95.8668 75.6257 95.7948L76.2737 93.9048ZM89.9357 84.3828L79.0637 95.2548C78.4517 94.3908 77.6777 93.6348 76.8137 93.0048L87.6497 82.1688C87.7937 82.0248 88.0277 82.0068 88.1897 82.1328C88.6217 82.4388 88.9637 82.6908 89.1617 82.9068C89.4857 83.2308 89.7557 83.5548 89.9897 83.8968C90.0977 84.0228 90.0617 84.2568 89.9357 84.3828Z" fill="#3B4141"/>
<path d="M121.28 414.969L118.151 425H116.933L114.392 417.349C114.369 417.274 114.345 417.195 114.322 417.111C114.303 417.027 114.282 416.938 114.259 416.845C114.236 416.938 114.212 417.027 114.189 417.111C114.166 417.195 114.142 417.274 114.119 417.349L111.564 425H110.346L107.217 414.969H108.344C108.465 414.969 108.566 414.999 108.645 415.06C108.729 415.121 108.783 415.198 108.806 415.291L110.878 422.263C110.911 422.389 110.941 422.524 110.969 422.669C111.002 422.814 111.032 422.968 111.06 423.131C111.093 422.968 111.125 422.814 111.158 422.669C111.195 422.52 111.235 422.384 111.277 422.263L113.636 415.291C113.664 415.212 113.718 415.139 113.797 415.074C113.881 415.004 113.981 414.969 114.098 414.969H114.49C114.611 414.969 114.709 414.999 114.784 415.06C114.859 415.121 114.915 415.198 114.952 415.291L117.304 422.263C117.346 422.384 117.383 422.515 117.416 422.655C117.453 422.795 117.488 422.942 117.521 423.096C117.544 422.942 117.57 422.795 117.598 422.655C117.626 422.515 117.656 422.384 117.689 422.263L119.768 415.291C119.791 415.207 119.843 415.132 119.922 415.067C120.006 415.002 120.106 414.969 120.223 414.969H121.28ZM123.741 417.909V425H122.495V417.909H123.741ZM124.007 415.683C124.007 415.804 123.981 415.919 123.93 416.026C123.883 416.129 123.818 416.222 123.734 416.306C123.654 416.385 123.559 416.448 123.447 416.495C123.339 416.542 123.225 416.565 123.104 416.565C122.982 416.565 122.868 416.542 122.761 416.495C122.658 416.448 122.567 416.385 122.488 416.306C122.408 416.222 122.345 416.129 122.299 416.026C122.252 415.919 122.229 415.804 122.229 415.683C122.229 415.562 122.252 415.447 122.299 415.34C122.345 415.228 122.408 415.132 122.488 415.053C122.567 414.969 122.658 414.904 122.761 414.857C122.868 414.81 122.982 414.787 123.104 414.787C123.225 414.787 123.339 414.81 123.447 414.857C123.559 414.904 123.654 414.969 123.734 415.053C123.818 415.132 123.883 415.228 123.93 415.34C123.981 415.447 124.007 415.562 124.007 415.683ZM127.965 425.112C127.405 425.112 126.973 424.956 126.67 424.643C126.371 424.33 126.222 423.88 126.222 423.292V418.952H125.368C125.293 418.952 125.23 418.931 125.179 418.889C125.127 418.842 125.102 418.772 125.102 418.679V418.182L126.264 418.035L126.551 415.844C126.565 415.774 126.595 415.718 126.642 415.676C126.693 415.629 126.758 415.606 126.838 415.606H127.468V418.049H129.519V418.952H127.468V423.208C127.468 423.507 127.54 423.728 127.685 423.873C127.829 424.018 128.016 424.09 128.245 424.09C128.375 424.09 128.487 424.074 128.581 424.041C128.679 424.004 128.763 423.964 128.833 423.922C128.903 423.88 128.961 423.843 129.008 423.81C129.059 423.773 129.103 423.754 129.141 423.754C129.206 423.754 129.264 423.794 129.316 423.873L129.68 424.468C129.465 424.669 129.206 424.827 128.903 424.944C128.599 425.056 128.287 425.112 127.965 425.112ZM132.058 418.854C132.362 418.532 132.698 418.275 133.066 418.084C133.435 417.893 133.86 417.797 134.34 417.797C134.728 417.797 135.068 417.862 135.362 417.993C135.661 418.119 135.908 418.301 136.104 418.539C136.305 418.772 136.457 419.055 136.559 419.386C136.662 419.717 136.713 420.084 136.713 420.485V425H135.46V420.485C135.46 419.948 135.337 419.533 135.089 419.239C134.847 418.94 134.476 418.791 133.976 418.791C133.608 418.791 133.262 418.88 132.94 419.057C132.623 419.234 132.329 419.475 132.058 419.778V425H130.805V414.689H132.058V418.854ZM143.232 419.596C142.999 419.283 142.747 419.066 142.476 418.945C142.205 418.819 141.902 418.756 141.566 418.756C140.908 418.756 140.402 418.992 140.047 419.463C139.692 419.934 139.515 420.606 139.515 421.479C139.515 421.941 139.555 422.338 139.634 422.669C139.713 422.996 139.83 423.266 139.984 423.481C140.138 423.691 140.327 423.845 140.551 423.943C140.775 424.041 141.029 424.09 141.314 424.09C141.725 424.09 142.082 423.997 142.385 423.81C142.693 423.623 142.975 423.36 143.232 423.019V419.596ZM144.478 414.689V425H143.736C143.559 425 143.447 424.914 143.4 424.741L143.288 423.88C142.985 424.244 142.639 424.538 142.252 424.762C141.865 424.986 141.417 425.098 140.908 425.098C140.502 425.098 140.133 425.021 139.802 424.867C139.471 424.708 139.188 424.477 138.955 424.174C138.722 423.871 138.542 423.493 138.416 423.04C138.29 422.587 138.227 422.067 138.227 421.479C138.227 420.956 138.297 420.471 138.437 420.023C138.577 419.57 138.778 419.178 139.039 418.847C139.3 418.516 139.62 418.257 139.998 418.07C140.381 417.879 140.81 417.783 141.286 417.783C141.72 417.783 142.091 417.858 142.399 418.007C142.712 418.152 142.989 418.355 143.232 418.616V414.689H144.478ZM147.629 419.33C147.853 418.845 148.128 418.467 148.455 418.196C148.782 417.921 149.181 417.783 149.652 417.783C149.801 417.783 149.944 417.799 150.079 417.832C150.219 417.865 150.343 417.916 150.45 417.986L150.359 418.917C150.331 419.034 150.261 419.092 150.149 419.092C150.084 419.092 149.988 419.078 149.862 419.05C149.736 419.022 149.594 419.008 149.435 419.008C149.211 419.008 149.01 419.041 148.833 419.106C148.66 419.171 148.504 419.269 148.364 419.4C148.229 419.526 148.105 419.685 147.993 419.876C147.886 420.063 147.788 420.277 147.699 420.52V425H146.446V417.909H147.16C147.295 417.909 147.389 417.935 147.44 417.986C147.491 418.037 147.526 418.126 147.545 418.252L147.629 419.33ZM155.279 421.808C154.705 421.827 154.215 421.873 153.809 421.948C153.408 422.018 153.079 422.111 152.822 422.228C152.57 422.345 152.386 422.482 152.269 422.641C152.157 422.8 152.101 422.977 152.101 423.173C152.101 423.36 152.132 423.521 152.192 423.656C152.253 423.791 152.335 423.903 152.437 423.992C152.545 424.076 152.668 424.139 152.808 424.181C152.953 424.218 153.107 424.237 153.27 424.237C153.49 424.237 153.69 424.216 153.872 424.174C154.054 424.127 154.225 424.062 154.383 423.978C154.547 423.894 154.701 423.794 154.845 423.677C154.995 423.56 155.139 423.427 155.279 423.278V421.808ZM151.254 418.91C151.646 418.532 152.069 418.25 152.521 418.063C152.974 417.876 153.476 417.783 154.026 417.783C154.423 417.783 154.775 417.848 155.083 417.979C155.391 418.11 155.65 418.292 155.86 418.525C156.07 418.758 156.229 419.041 156.336 419.372C156.444 419.703 156.497 420.067 156.497 420.464V425H155.944C155.823 425 155.73 424.981 155.664 424.944C155.599 424.902 155.548 424.823 155.51 424.706L155.37 424.034C155.184 424.207 155.002 424.361 154.824 424.496C154.647 424.627 154.46 424.739 154.264 424.832C154.068 424.921 153.858 424.988 153.634 425.035C153.415 425.086 153.17 425.112 152.899 425.112C152.624 425.112 152.365 425.075 152.122 425C151.88 424.921 151.667 424.804 151.485 424.65C151.308 424.496 151.166 424.302 151.058 424.069C150.956 423.831 150.904 423.551 150.904 423.229C150.904 422.949 150.981 422.681 151.135 422.424C151.289 422.163 151.539 421.932 151.884 421.731C152.23 421.53 152.68 421.367 153.235 421.241C153.791 421.11 154.472 421.036 155.279 421.017V420.464C155.279 419.913 155.16 419.498 154.922 419.218C154.684 418.933 154.337 418.791 153.879 418.791C153.571 418.791 153.312 418.831 153.102 418.91C152.897 418.985 152.717 419.071 152.563 419.169C152.414 419.262 152.283 419.349 152.171 419.428C152.064 419.503 151.957 419.54 151.849 419.54C151.765 419.54 151.693 419.519 151.632 419.477C151.572 419.43 151.52 419.374 151.478 419.309L151.254 418.91ZM168.133 417.909L165.837 425H164.85C164.729 425 164.645 424.921 164.598 424.762L163.03 419.953C162.993 419.846 162.963 419.738 162.939 419.631C162.916 419.519 162.893 419.409 162.869 419.302C162.846 419.409 162.823 419.519 162.799 419.631C162.776 419.738 162.746 419.848 162.708 419.96L161.112 424.762C161.07 424.921 160.977 425 160.832 425H159.894L157.598 417.909H158.578C158.676 417.909 158.758 417.935 158.823 417.986C158.893 418.037 158.94 418.098 158.963 418.168L160.321 422.732C160.401 423.068 160.464 423.385 160.51 423.684C160.552 423.53 160.594 423.374 160.636 423.215C160.683 423.056 160.732 422.895 160.783 422.732L162.281 418.14C162.305 418.07 162.344 418.012 162.4 417.965C162.461 417.918 162.533 417.895 162.617 417.895H163.163C163.257 417.895 163.334 417.918 163.394 417.965C163.455 418.012 163.497 418.07 163.52 418.14L164.983 422.732C165.035 422.895 165.081 423.056 165.123 423.215C165.165 423.374 165.205 423.53 165.242 423.684C165.266 423.53 165.294 423.376 165.326 423.222C165.364 423.063 165.403 422.9 165.445 422.732L166.831 418.168C166.855 418.093 166.899 418.033 166.964 417.986C167.03 417.935 167.107 417.909 167.195 417.909H168.133ZM173.103 425V418.973L172.319 418.882C172.221 418.859 172.14 418.824 172.074 418.777C172.014 418.726 171.983 418.653 171.983 418.56V418.049H173.103V417.363C173.103 416.957 173.159 416.598 173.271 416.285C173.388 415.968 173.551 415.702 173.761 415.487C173.976 415.268 174.233 415.102 174.531 414.99C174.83 414.878 175.166 414.822 175.539 414.822C175.857 414.822 176.148 414.869 176.414 414.962L176.386 415.585C176.377 415.697 176.314 415.758 176.197 415.767C176.085 415.776 175.934 415.781 175.742 415.781C175.528 415.781 175.332 415.809 175.154 415.865C174.982 415.921 174.832 416.012 174.706 416.138C174.58 416.264 174.482 416.43 174.412 416.635C174.347 416.84 174.314 417.095 174.314 417.398V418.049H176.358V418.952H174.356V425H173.103ZM178.733 419.33C178.957 418.845 179.232 418.467 179.559 418.196C179.885 417.921 180.284 417.783 180.756 417.783C180.905 417.783 181.047 417.799 181.183 417.832C181.323 417.865 181.446 417.916 181.554 417.986L181.463 418.917C181.435 419.034 181.365 419.092 181.253 419.092C181.187 419.092 181.092 419.078 180.966 419.05C180.84 419.022 180.697 419.008 180.539 419.008C180.315 419.008 180.114 419.041 179.937 419.106C179.764 419.171 179.608 419.269 179.468 419.4C179.332 419.526 179.209 419.685 179.097 419.876C178.989 420.063 178.891 420.277 178.803 420.52V425H177.55V417.909H178.264C178.399 417.909 178.492 417.935 178.544 417.986C178.595 418.037 178.63 418.126 178.649 418.252L178.733 419.33ZM185.351 417.797C185.869 417.797 186.336 417.883 186.751 418.056C187.166 418.229 187.521 418.474 187.815 418.791C188.109 419.108 188.333 419.493 188.487 419.946C188.646 420.394 188.725 420.896 188.725 421.451C188.725 422.011 188.646 422.515 188.487 422.963C188.333 423.411 188.109 423.794 187.815 424.111C187.521 424.428 187.166 424.673 186.751 424.846C186.336 425.014 185.869 425.098 185.351 425.098C184.828 425.098 184.357 425.014 183.937 424.846C183.522 424.673 183.167 424.428 182.873 424.111C182.579 423.794 182.353 423.411 182.194 422.963C182.04 422.515 181.963 422.011 181.963 421.451C181.963 420.896 182.04 420.394 182.194 419.946C182.353 419.493 182.579 419.108 182.873 418.791C183.167 418.474 183.522 418.229 183.937 418.056C184.357 417.883 184.828 417.797 185.351 417.797ZM185.351 424.125C186.051 424.125 186.574 423.892 186.919 423.425C187.264 422.954 187.437 422.298 187.437 421.458C187.437 420.613 187.264 419.955 186.919 419.484C186.574 419.013 186.051 418.777 185.351 418.777C184.996 418.777 184.686 418.838 184.42 418.959C184.159 419.08 183.939 419.255 183.762 419.484C183.589 419.713 183.459 419.995 183.37 420.331C183.286 420.662 183.244 421.038 183.244 421.458C183.244 422.298 183.417 422.954 183.762 423.425C184.112 423.892 184.642 424.125 185.351 424.125ZM190.305 425V417.909H191.054C191.232 417.909 191.341 417.995 191.383 418.168L191.474 418.896C191.736 418.574 192.03 418.31 192.356 418.105C192.683 417.9 193.061 417.797 193.49 417.797C193.966 417.797 194.351 417.93 194.645 418.196C194.944 418.462 195.159 418.821 195.289 419.274C195.392 419.017 195.523 418.796 195.681 418.609C195.845 418.422 196.027 418.268 196.227 418.147C196.428 418.026 196.64 417.937 196.864 417.881C197.093 417.825 197.324 417.797 197.557 417.797C197.931 417.797 198.262 417.858 198.551 417.979C198.845 418.096 199.093 418.268 199.293 418.497C199.499 418.726 199.655 419.008 199.762 419.344C199.87 419.675 199.923 420.056 199.923 420.485V425H198.67V420.485C198.67 419.93 198.549 419.51 198.306 419.225C198.064 418.936 197.714 418.791 197.256 418.791C197.051 418.791 196.855 418.828 196.668 418.903C196.486 418.973 196.325 419.078 196.185 419.218C196.045 419.358 195.933 419.535 195.849 419.75C195.77 419.96 195.73 420.205 195.73 420.485V425H194.477V420.485C194.477 419.916 194.363 419.491 194.134 419.211C193.906 418.931 193.572 418.791 193.133 418.791C192.825 418.791 192.541 418.875 192.279 419.043C192.018 419.206 191.778 419.43 191.558 419.715V425H190.305ZM209.529 419.078C209.473 419.181 209.387 419.232 209.27 419.232C209.2 419.232 209.121 419.206 209.032 419.155C208.943 419.104 208.834 419.048 208.703 418.987C208.577 418.922 208.425 418.863 208.248 418.812C208.071 418.756 207.861 418.728 207.618 418.728C207.408 418.728 207.219 418.756 207.051 418.812C206.883 418.863 206.738 418.936 206.617 419.029C206.5 419.122 206.409 419.232 206.344 419.358C206.283 419.479 206.253 419.612 206.253 419.757C206.253 419.939 206.304 420.091 206.407 420.212C206.514 420.333 206.654 420.438 206.827 420.527C207 420.616 207.196 420.695 207.415 420.765C207.634 420.83 207.858 420.903 208.087 420.982C208.32 421.057 208.547 421.141 208.766 421.234C208.985 421.327 209.181 421.444 209.354 421.584C209.527 421.724 209.664 421.897 209.767 422.102C209.874 422.303 209.928 422.545 209.928 422.83C209.928 423.157 209.87 423.46 209.753 423.74C209.636 424.015 209.464 424.256 209.235 424.461C209.006 424.662 208.726 424.82 208.395 424.937C208.064 425.054 207.681 425.112 207.247 425.112C206.752 425.112 206.304 425.033 205.903 424.874C205.502 424.711 205.161 424.503 204.881 424.251L205.175 423.775C205.212 423.714 205.257 423.668 205.308 423.635C205.359 423.602 205.425 423.586 205.504 423.586C205.588 423.586 205.677 423.619 205.77 423.684C205.863 423.749 205.975 423.822 206.106 423.901C206.241 423.98 206.405 424.053 206.596 424.118C206.787 424.183 207.025 424.216 207.31 424.216C207.553 424.216 207.765 424.186 207.947 424.125C208.129 424.06 208.281 423.973 208.402 423.866C208.523 423.759 208.612 423.635 208.668 423.495C208.729 423.355 208.759 423.206 208.759 423.047C208.759 422.851 208.705 422.69 208.598 422.564C208.495 422.433 208.358 422.324 208.185 422.235C208.012 422.142 207.814 422.062 207.59 421.997C207.371 421.927 207.144 421.855 206.911 421.78C206.682 421.705 206.456 421.621 206.232 421.528C206.013 421.43 205.817 421.309 205.644 421.164C205.471 421.019 205.331 420.842 205.224 420.632C205.121 420.417 205.07 420.158 205.07 419.855C205.07 419.584 205.126 419.325 205.238 419.078C205.35 418.826 205.513 418.607 205.728 418.42C205.943 418.229 206.206 418.077 206.519 417.965C206.832 417.853 207.189 417.797 207.59 417.797C208.057 417.797 208.474 417.872 208.843 418.021C209.216 418.166 209.538 418.366 209.809 418.623L209.529 419.078ZM213.633 425.112C213.073 425.112 212.641 424.956 212.338 424.643C212.039 424.33 211.89 423.88 211.89 423.292V418.952H211.036C210.961 418.952 210.898 418.931 210.847 418.889C210.795 418.842 210.77 418.772 210.77 418.679V418.182L211.932 418.035L212.219 415.844C212.233 415.774 212.263 415.718 212.31 415.676C212.361 415.629 212.426 415.606 212.506 415.606H213.136V418.049H215.187V418.952H213.136V423.208C213.136 423.507 213.208 423.728 213.353 423.873C213.497 424.018 213.684 424.09 213.913 424.09C214.043 424.09 214.155 424.074 214.249 424.041C214.347 424.004 214.431 423.964 214.501 423.922C214.571 423.88 214.629 423.843 214.676 423.81C214.727 423.773 214.771 423.754 214.809 423.754C214.874 423.754 214.932 423.794 214.984 423.873L215.348 424.468C215.133 424.669 214.874 424.827 214.571 424.944C214.267 425.056 213.955 425.112 213.633 425.112ZM222.304 417.909V425H221.562C221.385 425 221.273 424.914 221.226 424.741L221.128 423.978C220.82 424.319 220.475 424.594 220.092 424.804C219.71 425.009 219.271 425.112 218.776 425.112C218.389 425.112 218.046 425.049 217.747 424.923C217.453 424.792 217.206 424.61 217.005 424.377C216.805 424.144 216.653 423.861 216.55 423.53C216.452 423.199 216.403 422.832 216.403 422.431V417.909H217.649V422.431C217.649 422.968 217.771 423.383 218.013 423.677C218.261 423.971 218.636 424.118 219.14 424.118C219.509 424.118 219.852 424.032 220.169 423.859C220.491 423.682 220.788 423.439 221.058 423.131V417.909H222.304ZM228.9 419.596C228.667 419.283 228.415 419.066 228.144 418.945C227.873 418.819 227.57 418.756 227.234 418.756C226.576 418.756 226.07 418.992 225.715 419.463C225.36 419.934 225.183 420.606 225.183 421.479C225.183 421.941 225.223 422.338 225.302 422.669C225.381 422.996 225.498 423.266 225.652 423.481C225.806 423.691 225.995 423.845 226.219 423.943C226.443 424.041 226.697 424.09 226.982 424.09C227.393 424.09 227.75 423.997 228.053 423.81C228.361 423.623 228.643 423.36 228.9 423.019V419.596ZM230.146 414.689V425H229.404C229.227 425 229.115 424.914 229.068 424.741L228.956 423.88C228.653 424.244 228.307 424.538 227.92 424.762C227.533 424.986 227.085 425.098 226.576 425.098C226.17 425.098 225.801 425.021 225.47 424.867C225.139 424.708 224.856 424.477 224.623 424.174C224.39 423.871 224.21 423.493 224.084 423.04C223.958 422.587 223.895 422.067 223.895 421.479C223.895 420.956 223.965 420.471 224.105 420.023C224.245 419.57 224.446 419.178 224.707 418.847C224.968 418.516 225.288 418.257 225.666 418.07C226.049 417.879 226.478 417.783 226.954 417.783C227.388 417.783 227.759 417.858 228.067 418.007C228.38 418.152 228.657 418.355 228.9 418.616V414.689H230.146ZM238.232 417.909L234.277 427.093C234.235 427.186 234.181 427.261 234.116 427.317C234.055 427.373 233.96 427.401 233.829 427.401H232.905L234.2 424.587L231.274 417.909H232.352C232.459 417.909 232.543 417.937 232.604 417.993C232.669 418.044 232.714 418.103 232.737 418.168L234.634 422.634C234.709 422.83 234.772 423.035 234.823 423.25C234.888 423.031 234.958 422.823 235.033 422.627L236.874 418.168C236.902 418.093 236.949 418.033 237.014 417.986C237.084 417.935 237.161 417.909 237.245 417.909H238.232Z" fill="black"/>
<path d="M79.5332 426.825C79.798 423.993 81.5848 421.45 84.1663 420.244C85.2025 420.849 86.3849 421.165 87.5866 421.165C88.7891 421.165 89.9674 420.849 91.0062 420.244C92.1654 420.789 93.2155 421.637 94.0078 422.663L94.0065 422.664L94.0025 422.666C93.9376 422.698 93.8613 422.736 93.7834 422.78L93.7817 422.781C93.7378 422.805 93.679 422.837 93.6184 422.875C93.6043 422.884 93.589 422.894 93.573 422.903C93.5231 422.934 93.4656 422.97 93.4116 423.006L93.4055 423.01L93.3996 423.014L93.2674 423.108L93.2662 423.109C93.1992 423.157 93.1338 423.208 93.0778 423.252C93.0327 423.285 92.9823 423.326 92.9565 423.348C92.9506 423.352 92.9461 423.356 92.9431 423.359C92.8705 423.416 92.7997 423.477 92.7101 423.562L92.7092 423.563L92.6223 423.645C92.5554 423.707 92.495 423.772 92.4455 423.826L92.4362 423.836L92.4352 423.837L92.3329 423.948C92.2739 424.012 92.2198 424.08 92.176 424.134C92.1707 424.141 92.1656 424.147 92.1607 424.154L92.1558 424.16L92.1511 424.166L92.1423 424.178L92.0654 424.275L92.059 424.283L92.053 424.291C91.9805 424.391 91.909 424.494 91.8263 424.616L91.8262 424.615L91.8189 424.627C91.7483 424.737 91.6704 424.863 91.6002 424.999L91.6001 424.999L91.6222 426.298M79.5332 426.825H91.0086C91.0115 426.806 91.0146 426.786 91.018 426.767L91.03 426.689L91.0427 426.606L91.0444 426.595L91.0445 426.595C91.0598 426.509 91.0793 426.421 91.0971 426.346C91.0993 426.336 91.1021 426.324 91.1054 426.309C91.1153 426.265 91.1292 426.202 91.1427 426.156M79.5332 426.825H79.0311C79.0214 426.936 79.0138 427.047 79.0085 427.159M91.1427 426.156C91.1429 426.156 91.1431 426.155 91.1432 426.155L91.6222 426.298M91.1427 426.156C91.1427 426.157 91.1426 426.157 91.1425 426.157L91.6222 426.298M91.1427 426.156C91.1641 426.084 91.1843 426.015 91.2043 425.943L91.2077 425.931L91.2117 425.919C91.2226 425.886 91.2296 425.863 91.2357 425.843C91.2365 425.84 91.2374 425.837 91.2384 425.834C91.2437 425.817 91.2508 425.793 91.2586 425.769C91.2892 425.678 91.3234 425.594 91.3583 425.515L91.3525 425.531L91.8224 425.702C91.7884 425.778 91.7585 425.851 91.733 425.928C91.7277 425.943 91.7231 425.959 91.7177 425.976C91.7102 426.001 91.7011 426.032 91.6861 426.077C91.6648 426.153 91.6435 426.226 91.6222 426.298M79.0085 427.159L79 427.325M79.0085 427.159L79.0086 427.159L79.0085 427.159Z" stroke="#2A2A2A"/>
<path d="M92.9023 413.812C92.9023 416.747 90.5239 419.125 87.5898 419.125C84.6558 419.125 82.2773 416.747 82.2773 413.812C82.2773 410.878 84.6558 408.5 87.5898 408.5C90.5239 408.5 92.9023 410.878 92.9023 413.812Z" stroke="#2A2A2A"/>
<path d="M101.354 426.354C101.549 426.158 101.549 425.842 101.354 425.646L98.1716 422.464C97.9763 422.269 97.6597 422.269 97.4645 422.464C97.2692 422.66 97.2692 422.976 97.4645 423.172L100.293 426L97.4645 428.828C97.2692 429.024 97.2692 429.34 97.4645 429.536C97.6597 429.731 97.9763 429.731 98.1716 429.536L101.354 426.354ZM94 426.5H101V425.5H94V426.5Z" fill="black"/>
<path d="M198.462 459.3C196.162 459.3 194.262 460.7 193.462 462.7H193.062V460.2C193.062 457.2 190.662 454.8 187.662 454.8C184.662 454.8 182.262 457.2 182.262 460.2V456.5C182.262 453.5 179.862 451.1 176.862 451.1C173.862 451.1 171.462 453.5 171.462 456.5V438.5C171.462 435.5 169.062 433.1 166.062 433.1C162.862 433.1 160.462 435.5 160.462 438.5V460.7C160.462 460.7 160.162 473.4 160.862 479.9C161.662 491.1 170.962 499.8 182.262 499.8C194.062 499.8 203.562 490.4 203.762 478.6C203.862 478.5 203.862 478.3 203.862 478.1V469.9V465V464.7C203.862 461.8 201.462 459.3 198.462 459.3Z" fill="#F8F8F8"/>
<path d="M197.864 459.3C195.564 459.3 193.664 460.7 192.864 462.7H192.464V460.2C192.464 457.2 190.064 454.8 187.064 454.8C184.064 454.8 181.664 457.2 181.664 460.2V456.5C181.664 453.5 179.264 451.1 176.264 451.1C173.264 451.1 170.864 453.5 170.864 456.5V438.4C170.864 435.4 168.464 433 165.464 433C162.464 433 160.064 435.4 160.064 438.4V460.6C160.064 460.6 159.764 473.3 160.464 479.8C161.264 490.9 170.564 499.7 181.864 499.7C193.664 499.7 203.164 490.3 203.364 478.5C203.464 478.4 203.464 478.2 203.464 478V469.8V464.9V464.6C203.264 461.7 200.864 459.3 197.864 459.3Z" stroke="#414040" stroke-width="3" stroke-miterlimit="10"/>
<defs>
<filter id="filter0_d" x="375" y="394" width="88" height="56" filterUnits="userSpaceOnUse" color-interpolation-filters="sRGB">
<feFlood flood-opacity="0" result="BackgroundImageFix"/>
<feColorMatrix in="SourceAlpha" type="matrix" values="0 0 0 0 0 0 0 0 0 0 0 0 0 0 0 0 0 0 127 0" result="hardAlpha"/>
<feOffset dy="4"/>
<feGaussianBlur stdDeviation="2"/>
<feColorMatrix type="matrix" values="0 0 0 0 0 0 0 0 0 0 0 0 0 0 0 0 0 0 0.25 0"/>
<feBlend mode="normal" in2="BackgroundImageFix" result="effect1_dropShadow"/>
<feBlend mode="normal" in="SourceGraphic" in2="effect1_dropShadow" result="shape"/>
</filter>
<filter id="filter1_d" x="471" y="394" width="138" height="56" filterUnits="userSpaceOnUse" color-interpolation-filters="sRGB">
<feFlood flood-opacity="0" result="BackgroundImageFix"/>
<feColorMatrix in="SourceAlpha" type="matrix" values="0 0 0 0 0 0 0 0 0 0 0 0 0 0 0 0 0 0 127 0" result="hardAlpha"/>
<feOffset dy="4"/>
<feGaussianBlur stdDeviation="2"/>
<feColorMatrix type="matrix" values="0 0 0 0 0 0 0 0 0 0 0 0 0 0 0 0 0 0 0.25 0"/>
<feBlend mode="normal" in2="BackgroundImageFix" result="effect1_dropShadow"/>
<feBlend mode="normal" in="SourceGraphic" in2="effect1_dropShadow" result="shape"/>
</filter>
</defs>
</svg>
