<svg width="16" height="18" viewBox="0 0 16 18" fill="none" xmlns="http://www.w3.org/2000/svg">
<rect x="6.65234" y="4" width="9" height="6" rx="1" fill="#E7BDBD"/>
<path d="M5.54238 4.82018V9.05822C5.54238 9.9198 6.24096 10.6417 7.12582 10.6417H7.59154V12.2251C7.59154 12.4114 7.68468 12.5511 7.84768 12.621C7.89426 12.6442 7.96411 12.6675 8.01068 12.6675C8.12711 12.6675 8.22026 12.621 8.3134 12.5511L10.2927 10.6417H14.0417C14.9033 10.6417 15.6252 9.94308 15.6252 9.05822V4.82018C15.6252 3.9586 14.9266 3.23674 14.0417 3.23674H7.10254C6.26424 3.26003 5.54238 3.9586 5.54238 4.82018ZM14.7869 4.82018V9.05822C14.7869 9.45408 14.4609 9.75679 14.0883 9.75679H10.153C10.0366 9.75679 9.94341 9.80337 9.85027 9.87323L8.4764 11.2005V10.1992C8.4764 9.96637 8.29012 9.75679 8.03397 9.75679H7.14911C6.75325 9.75679 6.45053 9.43079 6.45053 9.05822V4.82018C6.45053 4.42432 6.77653 4.12161 7.14911 4.12161H14.0883C14.4609 4.12161 14.7869 4.44761 14.7869 4.82018ZM7.47511 6.00776C7.47511 5.77491 7.6614 5.56533 7.91754 5.56533H13.087C13.3199 5.56533 13.5294 5.75162 13.5294 6.00776C13.5294 6.24062 13.3432 6.4502 13.087 6.4502H7.91754C7.68468 6.42691 7.47511 6.24062 7.47511 6.00776ZM7.47511 7.96378C7.47511 7.73092 7.6614 7.52135 7.91754 7.52135H13.087C13.3199 7.52135 13.5294 7.70763 13.5294 7.96378C13.5294 8.19664 13.3432 8.40621 13.087 8.40621H7.91754C7.68468 8.40621 7.47511 8.19664 7.47511 7.96378ZM0.652344 16.6028V1.39715C0.652344 0.628719 1.28106 0 2.0495 0H10.5023C11.2707 0 11.8994 0.628719 11.8994 1.39715V2.14231C11.8994 2.37516 11.7131 2.58474 11.457 2.58474C11.2241 2.58474 11.0146 2.39845 11.0146 2.14231V1.39715C11.0146 1.11772 10.7817 0.884868 10.5023 0.884868H2.0495C1.77007 0.884868 1.53721 1.11772 1.53721 1.39715V16.6028C1.53721 16.8823 1.77007 17.1151 2.0495 17.1151H10.5023C10.7817 17.1151 11.0146 16.8823 11.0146 16.6028V11.7827C11.0146 11.5498 11.2009 11.3402 11.457 11.3402C11.6899 11.3402 11.8994 11.5265 11.8994 11.7827V16.6028C11.8994 17.3713 11.2707 18 10.5023 18H2.0495C1.28106 18 0.652344 17.3713 0.652344 16.6028ZM7.77782 15.4153C7.77782 15.6481 7.59154 15.8577 7.33539 15.8577H5.16981C4.93695 15.8577 4.72738 15.6714 4.72738 15.4153C4.72738 15.1824 4.91366 14.9728 5.16981 14.9728H7.33539C7.59154 14.9728 7.77782 15.1591 7.77782 15.4153Z" fill="black"/>
</svg>
