<svg width="153" height="93" viewBox="0 0 153 93" fill="none" xmlns="http://www.w3.org/2000/svg">
<path fill-rule="evenodd" clip-rule="evenodd" d="M147.931 75.8712C147.977 74.7975 148.001 73.7178 148.001 72.6326C148.001 32.5187 115.896 0 76.2933 0C36.6904 0 4.58594 32.5187 4.58594 72.6326C4.58594 73.7178 4.60944 74.7975 4.65595 75.8712H147.931Z" fill="#AEDCC9"/>
<path d="M73.2034 27.1694C72.9092 26.8324 72.4817 26.6409 72.0359 26.6424C71.5886 26.6424 71.158 26.8462 70.8685 27.1725C70.3415 27.77 60.2252 39.5255 60.5914 56.5422C57.993 58.2152 50.6897 64.0049 54.2379 74.3861C54.3911 74.8366 54.742 75.1905 55.1939 75.3483C55.6428 75.5061 56.1377 75.4494 56.5391 75.1951L64.656 70.0412L79.4496 70.0412L87.5634 75.192C87.9648 75.4463 88.4612 75.5045 88.9116 75.3421C89.1338 75.2671 89.3329 75.1414 89.4953 74.979C89.6623 74.812 89.791 74.6098 89.8661 74.3815C93.4281 63.9558 86.0466 58.1616 83.4804 56.5146C83.8359 39.5148 73.7288 27.7685 73.2034 27.1694ZM76.1801 37.8464L67.8917 37.8494C69.4038 34.6275 70.9941 32.1823 72.0344 30.7345C73.0777 32.1823 74.6665 34.629 76.1801 37.8464ZM60.8319 60.1716C61.0985 62.6291 61.6026 65.1799 62.3824 67.8074L56.6509 71.4461C55.4973 65.6656 58.6058 61.9933 60.8319 60.1716ZM66.5756 40.9549L77.4916 40.9534C80.0578 47.6439 81.7369 56.7076 78.7203 66.9372L65.35 66.9357C62.3303 56.7092 64.0125 47.6424 66.5756 40.9549ZM87.4561 71.4446L81.694 67.7875C82.4754 65.1524 82.9779 62.5938 83.2414 60.1303C85.4752 61.9258 88.6312 65.5967 87.4561 71.4446Z" fill="#353535"/>
<path d="M78.4703 55.3227C78.4703 53.6037 77.7992 51.9889 76.5858 50.7755C75.3694 49.5621 73.753 48.8895 72.0325 48.8911C70.3136 48.8911 68.6988 49.5591 67.4823 50.7755C66.2689 51.9889 65.5994 53.6052 65.5994 55.3242C65.5994 57.0432 66.2689 58.6595 67.4854 59.876C68.6972 61.0909 70.3151 61.7589 72.0325 61.7604C73.753 61.7589 75.3694 61.0924 76.5843 59.8775C77.8008 58.6611 78.4687 57.0432 78.4703 55.3227ZM69.6823 57.679C69.0527 57.0493 68.7049 56.2143 68.7064 55.3242C68.7079 54.431 69.0511 53.5976 69.6793 52.9694C70.309 52.3398 71.147 51.995 72.0356 51.995C72.9242 51.995 73.7622 52.3398 74.3919 52.9694C75.0201 53.5976 75.3632 54.4341 75.3617 55.3212C75.3617 57.1014 73.8128 58.6503 72.0341 58.6519C71.1455 58.6549 70.3105 58.3071 69.6823 57.679Z" fill="#353535"/>
<rect x="67" y="71.9551" width="10" height="3" fill="#353535"/>
<path d="M1 76H152" stroke="#353535" stroke-width="2" stroke-linecap="round"/>
<mask id="path-6-inside-1" fill="white">
<path fill-rule="evenodd" clip-rule="evenodd" d="M132.934 28.7082C137.822 28.5619 141.74 24.4247 141.74 19.3423C141.74 14.1674 137.678 9.97235 132.666 9.97235L132.603 9.97257C130.692 6.411 127.015 4 122.792 4C116.751 4 111.826 8.93528 111.592 15.1145L111.583 15.1144C107.947 15.1144 105 18.1579 105 21.9122C105 25.5123 107.71 28.4587 111.139 28.6948V28.7105H132.491C132.549 28.7116 132.608 28.7122 132.666 28.7122C132.725 28.7122 132.784 28.7116 132.842 28.7105H132.934V28.7082Z"/>
</mask>
<path fill-rule="evenodd" clip-rule="evenodd" d="M132.934 28.7082C137.822 28.5619 141.74 24.4247 141.74 19.3423C141.74 14.1674 137.678 9.97235 132.666 9.97235L132.603 9.97257C130.692 6.411 127.015 4 122.792 4C116.751 4 111.826 8.93528 111.592 15.1145L111.583 15.1144C107.947 15.1144 105 18.1579 105 21.9122C105 25.5123 107.71 28.4587 111.139 28.6948V28.7105H132.491C132.549 28.7116 132.608 28.7122 132.666 28.7122C132.725 28.7122 132.784 28.7116 132.842 28.7105H132.934V28.7082Z" fill="#F8F8F8"/>
<path d="M132.934 28.7082L132.904 27.7087L131.934 27.7377V28.7082H132.934ZM132.666 9.97235V8.97234L132.663 8.97235L132.666 9.97235ZM132.603 9.97257L131.722 10.4454L132.006 10.9747L132.607 10.9726L132.603 9.97257ZM111.592 15.1145L111.591 16.1145L112.555 16.1152L112.591 15.1523L111.592 15.1145ZM111.583 15.1144L111.584 14.1144H111.583V15.1144ZM111.139 28.6948H112.139V27.7613L111.207 27.6971L111.139 28.6948ZM111.139 28.7105H110.139V29.7105H111.139V28.7105ZM132.491 28.7105L132.51 27.7107L132.5 27.7105H132.491V28.7105ZM132.842 28.7105V27.7105H132.832L132.823 27.7107L132.842 28.7105ZM132.934 28.7105V29.7105H133.934V28.7105H132.934ZM132.964 29.7078C138.419 29.5445 142.74 24.9378 142.74 19.3423H140.74C140.74 23.9116 137.224 27.5794 132.904 27.7087L132.964 29.7078ZM142.74 19.3423C142.74 13.6456 138.26 8.97235 132.666 8.97235V10.9723C137.096 10.9723 140.74 14.6892 140.74 19.3423H142.74ZM132.663 8.97235L132.6 8.97258L132.607 10.9726L132.67 10.9723L132.663 8.97235ZM133.485 9.49971C131.412 5.63711 127.409 3 122.792 3V5C126.62 5 129.973 7.18489 131.722 10.4454L133.485 9.49971ZM122.792 3C116.183 3 110.846 8.39117 110.593 15.0766L112.591 15.1523C112.806 9.47939 117.319 5 122.792 5V3ZM111.593 14.1145L111.584 14.1144L111.582 16.1144L111.591 16.1145L111.593 14.1145ZM111.583 14.1144C107.365 14.1144 104 17.6361 104 21.9122H106C106 18.6797 108.53 16.1144 111.583 16.1144V14.1144ZM104 21.9122C104 26.0141 107.094 29.4187 111.07 29.6924L111.207 27.6971C108.327 27.4988 106 25.0105 106 21.9122H104ZM112.139 28.7105V28.6948H110.139V28.7105H112.139ZM132.491 27.7105H111.139V29.7105H132.491V27.7105ZM132.471 29.7103C132.536 29.7116 132.601 29.7122 132.666 29.7122V27.7122C132.614 27.7122 132.562 27.7117 132.51 27.7107L132.471 29.7103ZM132.666 29.7122C132.732 29.7122 132.797 29.7116 132.862 29.7103L132.823 27.7107C132.771 27.7117 132.719 27.7122 132.666 27.7122V29.7122ZM132.934 27.7105H132.842V29.7105H132.934V27.7105ZM131.934 28.7082V28.7105H133.934V28.7082H131.934Z" fill="black" mask="url(#path-6-inside-1)"/>
<mask id="path-8-inside-2" fill="white">
<path fill-rule="evenodd" clip-rule="evenodd" d="M9.57589 36.0244C9.58428 36.0245 9.59268 36.0245 9.60108 36.0245C9.60948 36.0245 9.61787 36.0245 9.62626 36.0244H27.389C27.4394 36.0254 27.4898 36.0259 27.5404 36.0259C27.5909 36.0259 27.6414 36.0254 27.6917 36.0244H27.7654V36.0226C31.9252 35.8997 35.2608 32.379 35.2608 28.0538C35.2608 23.6509 31.8042 20.0817 27.5404 20.0817L27.4848 20.0819C25.8587 17.0515 22.7299 15 19.1371 15C13.9967 15 9.80623 19.1994 9.60751 24.4571L9.60108 24.4571C6.50769 24.4571 4 27.0465 4 30.2408C4 33.3032 6.30499 35.8098 9.22125 36.0114V36.0244H9.57589Z"/>
</mask>
<path fill-rule="evenodd" clip-rule="evenodd" d="M9.57589 36.0244C9.58428 36.0245 9.59268 36.0245 9.60108 36.0245C9.60948 36.0245 9.61787 36.0245 9.62626 36.0244H27.389C27.4394 36.0254 27.4898 36.0259 27.5404 36.0259C27.5909 36.0259 27.6414 36.0254 27.6917 36.0244H27.7654V36.0226C31.9252 35.8997 35.2608 32.379 35.2608 28.0538C35.2608 23.6509 31.8042 20.0817 27.5404 20.0817L27.4848 20.0819C25.8587 17.0515 22.7299 15 19.1371 15C13.9967 15 9.80623 19.1994 9.60751 24.4571L9.60108 24.4571C6.50769 24.4571 4 27.0465 4 30.2408C4 33.3032 6.30499 35.8098 9.22125 36.0114V36.0244H9.57589Z" fill="#F8F8F8"/>
<path d="M9.57589 36.0244L9.58044 35.0244H9.57589V36.0244ZM9.62626 36.0244V35.0244L9.62171 35.0244L9.62626 36.0244ZM27.389 36.0244L27.4089 35.0246L27.399 35.0244H27.389V36.0244ZM27.6917 36.0244V35.0244H27.6818L27.6719 35.0246L27.6917 36.0244ZM27.7654 36.0244V37.0244H28.7654V36.0244H27.7654ZM27.7654 36.0226L27.7358 35.0231L26.7654 35.0517V36.0226H27.7654ZM27.5404 20.0817V19.0817L27.5367 19.0817L27.5404 20.0817ZM27.4848 20.0819L26.6036 20.5547L26.8877 21.0841L27.4885 21.0819L27.4848 20.0819ZM9.60751 24.4571L9.60662 25.4571L10.5704 25.4579L10.6068 24.4949L9.60751 24.4571ZM9.60108 24.4571L9.60197 23.4571H9.60108V24.4571ZM9.22125 36.0114H10.2213V35.0782L9.29023 35.0138L9.22125 36.0114ZM9.22125 36.0244H8.22125V37.0244H9.22125V36.0244ZM9.57135 37.0244C9.58125 37.0245 9.59116 37.0245 9.60108 37.0245V35.0245C9.59419 35.0245 9.58731 35.0245 9.58044 35.0244L9.57135 37.0244ZM9.60108 37.0245C9.61099 37.0245 9.6209 37.0245 9.63081 37.0244L9.62171 35.0244C9.61484 35.0245 9.60796 35.0245 9.60108 35.0245V37.0245ZM27.389 35.0244H9.62626V37.0244H27.389V35.0244ZM27.3692 37.0242C27.4261 37.0254 27.4832 37.0259 27.5404 37.0259V35.0259C27.4964 35.0259 27.4526 35.0255 27.4089 35.0246L27.3692 37.0242ZM27.5404 37.0259C27.5975 37.0259 27.6546 37.0254 27.7116 37.0242L27.6719 35.0246C27.6281 35.0255 27.5843 35.0259 27.5404 35.0259V37.0259ZM27.7654 35.0244H27.6917V37.0244H27.7654V35.0244ZM26.7654 36.0226V36.0244H28.7654V36.0226H26.7654ZM27.7949 37.0222C32.5224 36.8825 36.2608 32.8922 36.2608 28.0538H34.2608C34.2608 31.8658 31.3279 34.9169 27.7358 35.0231L27.7949 37.0222ZM36.2608 28.0538C36.2608 23.1291 32.3865 19.0817 27.5404 19.0817V21.0817C31.2219 21.0817 34.2608 24.1727 34.2608 28.0538H36.2608ZM27.5367 19.0817L27.4811 19.0819L27.4885 21.0819L27.5441 21.0817L27.5367 19.0817ZM28.3659 19.609C26.5783 16.2776 23.1243 14 19.1371 14V16C22.3355 16 25.139 17.8253 26.6036 20.5547L28.3659 19.609ZM19.1371 14C13.4288 14 8.82608 18.6553 8.60822 24.4193L10.6068 24.4949C10.7864 19.7435 14.5647 16 19.1371 16V14ZM9.6084 23.4571L9.60197 23.4571L9.60019 25.4571L9.60662 25.4571L9.6084 23.4571ZM9.60108 23.4571C5.9254 23.4571 3 26.5247 3 30.2408H5C5 27.5683 7.08997 25.4571 9.60108 25.4571V23.4571ZM3 30.2408C3 33.8049 5.68833 36.7695 9.15227 37.009L9.29023 35.0138C6.92165 34.85 5 32.8015 5 30.2408H3ZM10.2213 36.0244V36.0114H8.22125V36.0244H10.2213ZM9.57589 35.0244H9.22125V37.0244H9.57589V35.0244Z" fill="black" mask="url(#path-8-inside-2)"/>
</svg>
