<svg width="227" height="148" viewBox="0 0 227 148" fill="none" xmlns="http://www.w3.org/2000/svg">
<g filter="url(#filter0_d)">
<rect x="5" y="1" width="217" height="138" fill="#FCFCFC"/>
<path d="M191.448 19.156C191.448 20.156 191.2 21.108 190.704 22.012C190.208 22.908 189.524 23.632 188.652 24.184C187.788 24.728 186.824 25 185.76 25L185.064 24.988C184.616 24.972 184.288 24.964 184.08 24.964C183.432 24.964 182.952 24.976 182.64 25L182.676 24.76C182.948 24.744 183.152 24.712 183.288 24.664C183.432 24.616 183.544 24.524 183.624 24.388C183.712 24.244 183.796 24.024 183.876 23.728L185.448 17.776C185.52 17.472 185.556 17.276 185.556 17.188C185.556 17.028 185.496 16.916 185.376 16.852C185.264 16.788 185.056 16.752 184.752 16.744L184.788 16.504C185.06 16.528 185.448 16.54 185.952 16.54L186.972 16.528C187.516 16.512 187.88 16.504 188.064 16.504C189.192 16.504 190.036 16.728 190.596 17.176C191.164 17.624 191.448 18.284 191.448 19.156ZM185.616 24.784C186.608 24.784 187.456 24.516 188.16 23.98C188.864 23.436 189.396 22.712 189.756 21.808C190.116 20.904 190.296 19.92 190.296 18.856C190.296 18.128 190.092 17.592 189.684 17.248C189.276 16.896 188.624 16.72 187.728 16.72C187.48 16.72 187.284 16.748 187.14 16.804C187.004 16.86 186.892 16.96 186.804 17.104C186.716 17.248 186.636 17.464 186.564 17.752L184.992 23.752C184.92 24.04 184.884 24.236 184.884 24.34C184.884 24.492 184.936 24.604 185.04 24.676C185.152 24.748 185.344 24.784 185.616 24.784ZM196.435 18.664C196.651 18.664 196.823 18.728 196.951 18.856C197.079 18.984 197.143 19.148 197.143 19.348C197.143 19.588 197.059 19.792 196.891 19.96C196.723 20.128 196.527 20.212 196.303 20.212C196.159 20.212 196.043 20.176 195.955 20.104C195.867 20.024 195.823 19.916 195.823 19.78C195.823 19.596 195.871 19.44 195.967 19.312C196.063 19.184 196.195 19.084 196.363 19.012C196.331 18.98 196.287 18.964 196.231 18.964C195.799 18.964 195.327 19.432 194.815 20.368C194.311 21.296 193.835 22.524 193.387 24.052L193.147 25H192.103L193.543 19.852C193.599 19.676 193.627 19.52 193.627 19.384C193.627 19.2 193.543 19.108 193.375 19.108C193.199 19.108 193.035 19.204 192.883 19.396C192.739 19.58 192.591 19.892 192.439 20.332L192.283 20.776H192.055L192.355 19.9C192.643 19.076 193.127 18.664 193.807 18.664C194.263 18.664 194.491 18.896 194.491 19.36C194.491 19.584 194.435 19.912 194.323 20.344L193.939 21.856C194.371 20.696 194.775 19.876 195.151 19.396C195.535 18.908 195.963 18.664 196.435 18.664ZM202.03 23.044H202.258L201.958 23.92C201.798 24.36 201.594 24.68 201.346 24.88C201.098 25.072 200.842 25.168 200.578 25.168C200.426 25.168 200.294 25.14 200.182 25.084C200.07 25.028 199.982 24.952 199.918 24.856C199.846 24.736 199.81 24.596 199.81 24.436C199.81 24.268 199.838 24.08 199.894 23.872C199.95 23.664 199.986 23.532 200.002 23.476L200.218 22.612C199.834 23.508 199.442 24.16 199.042 24.568C198.65 24.968 198.238 25.168 197.806 25.168C197.438 25.168 197.158 25.036 196.966 24.772C196.774 24.508 196.678 24.156 196.678 23.716C196.678 23.068 196.85 22.344 197.194 21.544C197.538 20.744 197.986 20.064 198.538 19.504C199.09 18.944 199.65 18.664 200.218 18.664C200.434 18.664 200.61 18.744 200.746 18.904C200.882 19.064 200.962 19.288 200.986 19.576L201.178 18.832C201.618 18.816 201.986 18.76 202.282 18.664L200.782 23.968C200.774 24 200.758 24.064 200.734 24.16C200.71 24.248 200.698 24.332 200.698 24.412C200.698 24.612 200.786 24.712 200.962 24.712C201.314 24.712 201.622 24.304 201.886 23.488L202.03 23.044ZM198.154 24.784C198.378 24.784 198.646 24.612 198.958 24.268C199.27 23.924 199.574 23.468 199.87 22.9C200.174 22.324 200.422 21.712 200.614 21.064L200.83 20.212C200.838 20.148 200.842 20.06 200.842 19.948C200.842 19.62 200.782 19.364 200.662 19.18C200.55 18.988 200.39 18.892 200.182 18.892C199.838 18.892 199.474 19.16 199.09 19.696C198.706 20.224 198.382 20.88 198.118 21.664C197.862 22.44 197.734 23.172 197.734 23.86C197.734 24.188 197.77 24.424 197.842 24.568C197.914 24.712 198.018 24.784 198.154 24.784ZM207.532 15.616C207.884 15.616 208.16 15.696 208.36 15.856C208.568 16.016 208.672 16.22 208.672 16.468C208.672 16.676 208.592 16.868 208.432 17.044C208.28 17.212 208.092 17.296 207.868 17.296C207.716 17.296 207.596 17.26 207.508 17.188C207.42 17.116 207.38 17.016 207.388 16.888C207.388 16.696 207.448 16.532 207.568 16.396C207.696 16.252 207.864 16.148 208.072 16.084C208.072 16.012 208.016 15.948 207.904 15.892C207.8 15.828 207.672 15.796 207.52 15.796C207.28 15.796 207.048 15.9 206.824 16.108C206.656 16.26 206.516 16.504 206.404 16.84C206.292 17.168 206.152 17.656 205.984 18.304L205.852 18.82V18.832H207.268L207.196 19.072H205.78L203.632 27.088C203.2 27.104 202.84 27.16 202.552 27.256L204.736 19.072H203.656L203.728 18.832H204.808V18.82C204.984 18.164 205.164 17.632 205.348 17.224C205.54 16.808 205.768 16.472 206.032 16.216C206.216 16.032 206.44 15.888 206.704 15.784C206.976 15.672 207.252 15.616 207.532 15.616ZM208.159 23.98C208.135 24.076 208.123 24.164 208.123 24.244C208.123 24.404 208.171 24.524 208.267 24.604C208.363 24.684 208.487 24.724 208.639 24.724C208.839 24.724 209.023 24.64 209.191 24.472C209.367 24.296 209.539 23.98 209.707 23.524L209.875 23.056H210.103L209.851 23.812C209.683 24.308 209.463 24.66 209.191 24.868C208.927 25.068 208.599 25.168 208.207 25.168C207.847 25.168 207.579 25.08 207.403 24.904C207.227 24.728 207.139 24.484 207.139 24.172C207.139 23.964 207.175 23.736 207.247 23.488L208.519 19.072H207.439L207.499 18.832H208.579L209.107 17.008C209.539 16.992 209.899 16.936 210.187 16.84L209.623 18.832H211.207L211.171 19.072H209.551L208.159 23.98Z" fill="#282828"/>
<rect x="5.66797" y="1.66992" width="26.9379" height="40.5" fill="#FCFCFC"/>
<ellipse cx="19.1372" cy="17.4199" rx="1.49655" ry="1.5" fill="#3E3030"/>
<ellipse cx="19.1372" cy="22.6699" rx="1.49655" ry="1.5" fill="#3E3030"/>
<ellipse cx="19.1372" cy="27.9199" rx="1.49655" ry="1.5" fill="#3E3030"/>
<path d="M14 114H48" stroke="#C4C4C4" stroke-width="2"/>
<path d="M161 127H211" stroke="#C4C4C4" stroke-width="2"/>
<path d="M14 127H75" stroke="#C4C4C4" stroke-width="2"/>
<rect x="66" y="53" width="95" height="22" fill="#C4C4C4"/>
<rect x="80" y="83" width="67" height="3" fill="#C4C4C4"/>
<rect x="5" y="1" width="217" height="138" stroke="white" stroke-width="0.5"/>
</g>
<rect x="70" y="95" width="91" height="4" rx="2" fill="#C4C4C4"/>
<path fill-rule="evenodd" clip-rule="evenodd" d="M72 95C70.8954 95 70 95.8954 70 97C70 98.1046 70.8954 99 72 99H87.0591H97.4667H99.4661V97.0467C99.4665 97.0312 99.4667 97.0156 99.4667 97C99.4667 96.9844 99.4665 96.9688 99.4661 96.9533V95H97.4667H87.0591H72Z" fill="#3E3030"/>
<defs>
<filter id="filter0_d" x="0.75" y="0.75" width="225.5" height="146.5" filterUnits="userSpaceOnUse" color-interpolation-filters="sRGB">
<feFlood flood-opacity="0" result="BackgroundImageFix"/>
<feColorMatrix in="SourceAlpha" type="matrix" values="0 0 0 0 0 0 0 0 0 0 0 0 0 0 0 0 0 0 127 0"/>
<feOffset dy="4"/>
<feGaussianBlur stdDeviation="2"/>
<feColorMatrix type="matrix" values="0 0 0 0 0 0 0 0 0 0 0 0 0 0 0 0 0 0 0.25 0"/>
<feBlend mode="normal" in2="BackgroundImageFix" result="effect1_dropShadow"/>
<feBlend mode="normal" in="SourceGraphic" in2="effect1_dropShadow" result="shape"/>
</filter>
</defs>
</svg>
