<svg width="227" height="148" viewBox="0 0 227 148" fill="none" xmlns="http://www.w3.org/2000/svg">
<g filter="url(#filter0_d)">
<rect x="5" y="1" width="217" height="138" fill="#FCFCFC"/>
<rect x="5.66797" y="1.66992" width="26.9379" height="40.5" fill="#FCFCFC"/>
<ellipse cx="19.1372" cy="17.4199" rx="1.49655" ry="1.5" fill="#3E3030"/>
<ellipse cx="19.1372" cy="22.6699" rx="1.49655" ry="1.5" fill="#3E3030"/>
<ellipse cx="19.1372" cy="27.9199" rx="1.49655" ry="1.5" fill="#3E3030"/>
<path d="M161 127H211" stroke="#C4C4C4" stroke-width="2"/>
<path d="M14 127H75" stroke="#C4C4C4" stroke-width="2"/>
<rect x="66" y="58" width="95" height="22" fill="#C4C4C4"/>
<rect x="80" y="88" width="67" height="3" fill="#C4C4C4"/>
<rect x="135" y="10" width="76.2069" height="26.8696" rx="13.4348" fill="#2196F3"/>
<path d="M179.096 26.5237V27.5977H174.164V18.9817H175.442V26.5237H179.096ZM181.323 21.5017V27.5977H180.153V21.5017H181.323ZM181.545 19.6177C181.545 19.7257 181.523 19.8297 181.479 19.9297C181.435 20.0257 181.375 20.1117 181.299 20.1877C181.227 20.2597 181.141 20.3177 181.041 20.3617C180.941 20.4017 180.837 20.4217 180.729 20.4217C180.621 20.4217 180.519 20.4017 180.423 20.3617C180.327 20.3177 180.241 20.2597 180.165 20.1877C180.093 20.1117 180.035 20.0257 179.991 19.9297C179.951 19.8297 179.931 19.7257 179.931 19.6177C179.931 19.5057 179.951 19.4017 179.991 19.3057C180.035 19.2057 180.093 19.1197 180.165 19.0477C180.241 18.9717 180.327 18.9137 180.423 18.8737C180.519 18.8297 180.621 18.8077 180.729 18.8077C180.837 18.8077 180.941 18.8297 181.041 18.8737C181.141 18.9137 181.227 18.9717 181.299 19.0477C181.375 19.1197 181.435 19.2057 181.479 19.3057C181.523 19.4017 181.545 19.5057 181.545 19.6177ZM188.309 21.5017L185.837 27.5977H184.781L182.309 21.5017H183.275C183.367 21.5017 183.443 21.5237 183.503 21.5677C183.563 21.6117 183.603 21.6677 183.623 21.7357L185.081 25.4797C185.133 25.6357 185.177 25.7917 185.213 25.9477C185.253 26.0997 185.289 26.2517 185.321 26.4037C185.353 26.2517 185.389 26.0997 185.429 25.9477C185.469 25.7957 185.517 25.6397 185.573 25.4797L187.049 21.7357C187.073 21.6677 187.115 21.6117 187.175 21.5677C187.235 21.5237 187.307 21.5017 187.391 21.5017H188.309ZM193.102 23.8717C193.102 23.6397 193.068 23.4257 193 23.2297C192.936 23.0337 192.84 22.8637 192.712 22.7197C192.584 22.5757 192.428 22.4637 192.244 22.3837C192.06 22.3037 191.848 22.2637 191.608 22.2637C191.116 22.2637 190.728 22.4057 190.444 22.6897C190.164 22.9737 189.986 23.3677 189.91 23.8717H193.102ZM194.068 26.7277C193.924 26.8957 193.758 27.0417 193.57 27.1657C193.382 27.2857 193.182 27.3837 192.97 27.4597C192.758 27.5357 192.538 27.5917 192.31 27.6277C192.086 27.6637 191.864 27.6817 191.644 27.6817C191.224 27.6817 190.834 27.6117 190.474 27.4717C190.118 27.3277 189.808 27.1197 189.544 26.8477C189.284 26.5717 189.08 26.2317 188.932 25.8277C188.788 25.4197 188.716 24.9517 188.716 24.4237C188.716 23.9997 188.782 23.6057 188.914 23.2417C189.046 22.8737 189.234 22.5537 189.478 22.2817C189.726 22.0097 190.028 21.7957 190.384 21.6397C190.74 21.4837 191.14 21.4057 191.584 21.4057C191.956 21.4057 192.298 21.4677 192.61 21.5917C192.926 21.7117 193.198 21.8877 193.426 22.1197C193.654 22.3517 193.832 22.6377 193.96 22.9777C194.092 23.3177 194.158 23.7057 194.158 24.1417C194.158 24.3217 194.138 24.4437 194.098 24.5077C194.058 24.5677 193.984 24.5977 193.876 24.5977H189.88C189.892 24.9617 189.944 25.2797 190.036 25.5517C190.128 25.8197 190.254 26.0437 190.414 26.2237C190.578 26.4037 190.772 26.5377 190.996 26.6257C191.22 26.7137 191.47 26.7577 191.746 26.7577C192.006 26.7577 192.23 26.7277 192.418 26.6677C192.61 26.6077 192.774 26.5437 192.91 26.4757C193.05 26.4037 193.166 26.3377 193.258 26.2777C193.354 26.2177 193.438 26.1877 193.51 26.1877C193.606 26.1877 193.68 26.2237 193.732 26.2957L194.068 26.7277Z" fill="white"/>
<path d="M163.949 17.5234C167.738 19.3402 169.001 25.3959 163.949 28.4238" stroke="white"/>
<path d="M154.02 28.4238C150.231 26.6071 148.968 20.5513 154.02 17.5235" stroke="white"/>
<path d="M162.684 19.9453C164.838 20.9546 165.556 24.3189 162.684 26.0011" stroke="white"/>
<path d="M155.281 26.002C153.127 24.9927 152.409 21.6283 155.281 19.9462" stroke="white"/>
<ellipse cx="158.897" cy="22.9731" rx="2.52577" ry="2.4223" fill="white"/>
<rect x="5" y="1" width="217" height="138" stroke="white" stroke-width="0.5"/>
</g>
<path d="M31.057 105.617C28.6942 105.617 26.7937 107.516 26.7937 109.876C26.7937 112.185 28.6942 114.135 31.057 114.135C33.4198 114.135 35.3203 112.185 35.3203 109.876C35.3203 107.516 33.4198 105.617 31.057 105.617ZM31.057 107.105C32.598 107.105 33.8307 108.337 33.8307 109.876C33.8307 111.416 32.598 112.647 31.057 112.647C29.5161 112.647 28.2833 111.416 28.2833 109.876C28.2833 108.337 29.5161 107.105 31.057 107.105Z" fill="black"/>
<path d="M37.3227 119.83C37.5281 120.189 37.9904 120.292 38.2986 120.035C38.6582 119.83 38.7609 119.368 38.5554 119.009C36.8604 116.494 34.0867 114.955 31.0562 114.955C28.0256 114.955 25.2006 116.494 23.5569 119.009C23.3514 119.368 23.4542 119.83 23.7623 120.035C24.1219 120.292 24.5842 120.189 24.7896 119.83C26.1765 117.726 28.5393 116.443 31.0562 116.443C33.573 116.443 35.9358 117.726 37.3227 119.83Z" fill="black"/>
<path d="M21.6039 103C19.2411 103 17.3406 104.899 17.3406 107.259C17.3406 109.619 19.2411 111.518 21.6039 111.518C23.9667 111.518 25.8672 109.568 25.8672 107.259C25.8672 104.899 23.9667 103 21.6039 103ZM21.6039 104.488C23.1448 104.488 24.3776 105.72 24.3776 107.259C24.3776 108.798 23.1448 110.03 21.6039 110.03C20.0629 110.03 18.8302 108.798 18.8302 107.259C18.8302 105.72 20.0629 104.488 21.6039 104.488Z" fill="black"/>
<path d="M25.6119 115.006C25.9201 115.211 26.3823 115.109 26.5878 114.75C26.8446 114.442 26.7419 113.98 26.3823 113.723C24.9441 112.851 23.3004 112.338 21.6054 112.338C18.5749 112.338 15.7498 113.877 14.1061 116.392C13.9007 116.751 14.0034 117.213 14.3116 117.418C14.6711 117.674 15.1334 117.572 15.3389 117.213C16.7257 115.109 19.0885 113.826 21.6054 113.826C23.0436 113.826 24.3791 114.236 25.6119 115.006Z" fill="black"/>
<defs>
<filter id="filter0_d" x="0.75" y="0.75" width="225.5" height="146.5" filterUnits="userSpaceOnUse" color-interpolation-filters="sRGB">
<feFlood flood-opacity="0" result="BackgroundImageFix"/>
<feColorMatrix in="SourceAlpha" type="matrix" values="0 0 0 0 0 0 0 0 0 0 0 0 0 0 0 0 0 0 127 0"/>
<feOffset dy="4"/>
<feGaussianBlur stdDeviation="2"/>
<feColorMatrix type="matrix" values="0 0 0 0 0 0 0 0 0 0 0 0 0 0 0 0 0 0 0.25 0"/>
<feBlend mode="normal" in2="BackgroundImageFix" result="effect1_dropShadow"/>
<feBlend mode="normal" in="SourceGraphic" in2="effect1_dropShadow" result="shape"/>
</filter>
</defs>
</svg>
