<svg width="22" height="11" viewBox="0 0 22 11" fill="none" xmlns="http://www.w3.org/2000/svg">
<path d="M10.8132 6.51004C6.80523 6.51004 3.08523 4.47004 1.06923 1.20604C0.901232 0.918039 0.97323 0.558038 1.26123 0.390038C1.54923 0.222038 1.90923 0.294038 2.07723 0.582038C2.14923 0.678038 2.22123 0.798038 2.29323 0.894038C4.14123 3.60604 7.35723 5.31004 10.8132 5.31004C14.2692 5.31004 17.4852 3.63004 19.3332 0.894038C19.4052 0.798038 19.4772 0.678038 19.5492 0.582038C19.7172 0.294038 20.1012 0.222038 20.3652 0.390038C20.6532 0.558038 20.7252 0.942039 20.5572 1.20604C18.5412 4.47004 14.8212 6.51004 10.8132 6.51004Z" fill="#2A2A2A"/>
<path d="M11.4121 8.09414V9.96614C11.4121 10.3021 11.1481 10.5661 10.8121 10.5661C10.4761 10.5661 10.2121 10.3021 10.2121 9.96614V8.09414C10.2121 7.75814 10.4761 7.49414 10.8121 7.49414C11.1481 7.49414 11.4121 7.75814 11.4121 8.09414Z" fill="#2A2A2A"/>
<path d="M7.7189 7.08676C8.0309 7.18276 8.2229 7.49476 8.1509 7.83076L7.6709 9.65476C7.5989 9.91877 7.3589 10.1108 7.0949 10.1108C7.0469 10.1108 6.9989 10.1108 6.9509 10.0868C6.6389 9.99077 6.4469 9.67877 6.5189 9.34277L6.9989 7.51876C7.0709 7.18276 7.4069 7.01476 7.7189 7.08676Z" fill="#2A2A2A"/>
<path d="M4.83805 5.88733C5.12605 6.05533 5.22205 6.41533 5.05405 6.70333L4.11805 8.33533C3.99805 8.52733 3.80605 8.64733 3.59005 8.64733C3.49405 8.64733 3.37405 8.62333 3.30205 8.57533C3.01405 8.40733 2.91805 8.04733 3.08605 7.75933L4.02205 6.12733C4.19005 5.83933 4.55005 5.71933 4.83805 5.88733Z" fill="#2A2A2A"/>
<path d="M1.52492 3.99055C1.76492 3.75055 2.14892 3.75055 2.36492 3.99055C2.60492 4.23055 2.60492 4.61455 2.36492 4.83055L1.04492 6.15055C0.924921 6.27055 0.78092 6.31855 0.61292 6.31855C0.44492 6.31855 0.30092 6.27055 0.180919 6.15055C-0.0590806 5.91055 -0.0590806 5.52655 0.180919 5.31055L1.52492 3.99055Z" fill="#2A2A2A"/>
<path d="M14.6281 7.51876L15.1081 9.34277C15.2041 9.65477 15.0121 9.99077 14.6761 10.0868C14.6281 10.1108 14.5801 10.1108 14.5321 10.1108C14.2681 10.1108 14.0281 9.94276 13.9561 9.65476L13.4761 7.83076C13.3801 7.51876 13.5721 7.18276 13.9081 7.08676C14.2201 7.01476 14.5561 7.18276 14.6281 7.51876Z" fill="#2A2A2A"/>
<path d="M17.6063 6.12733L18.5423 7.75933C18.7103 8.04733 18.6143 8.40733 18.3263 8.57533C18.2303 8.62333 18.1343 8.64733 18.0383 8.64733C17.8223 8.64733 17.6303 8.55133 17.5103 8.33533L16.5743 6.70333C16.4063 6.41533 16.5023 6.05533 16.7903 5.88733C17.0783 5.71933 17.4383 5.83933 17.6063 6.12733Z" fill="#2A2A2A"/>
<path d="M19.2616 3.99055C19.5016 3.75055 19.8856 3.75055 20.1016 3.99055L21.4216 5.31055C21.6616 5.55055 21.6616 5.93455 21.4216 6.15055C21.3016 6.27055 21.1576 6.31855 20.9896 6.31855C20.8216 6.31855 20.6776 6.27055 20.5576 6.15055L19.2376 4.83055C19.0216 4.61455 19.0216 4.23055 19.2616 3.99055Z" fill="#2A2A2A"/>
</svg>
