<svg width="339" height="347" viewBox="0 0 339 347" fill="none" xmlns="http://www.w3.org/2000/svg">
<g clip-path="url(#clip0_2350_268726)">
<path d="M168.697 347C75.8504 347 0.58313 342.555 0.58313 337.073C0.58313 331.59 75.8504 327.146 168.697 327.146C261.544 327.146 336.812 331.59 336.812 337.073C336.812 342.555 261.544 347 168.697 347Z" fill="#EAECEE"/>
<path d="M86.7554 84.794H88.564V34.9838C88.564 27.338 91.5852 20.0054 96.9629 14.599C102.341 9.19256 109.634 6.15527 117.24 6.15527H222.209C229.814 6.15527 237.108 9.19256 242.486 14.599C247.864 20.0054 250.885 27.338 250.885 34.9838V308.245C250.885 315.891 247.864 323.223 242.486 328.63C237.108 334.036 229.814 337.073 222.209 337.073H117.24C109.634 337.073 102.341 334.036 96.9629 328.63C91.5852 323.223 88.564 315.891 88.564 308.245V120.25H86.7554V84.794Z" fill="#AEB5BC"/>
<path d="M94.6683 35.1854V308.044C94.6685 313.754 96.9248 319.23 100.941 323.267C104.957 327.305 110.404 329.573 116.084 329.573H221.557C227.236 329.573 232.683 327.305 236.699 323.267C240.715 319.23 242.971 313.754 242.972 308.044V35.1854C242.972 29.4754 240.715 23.9993 236.699 19.9618C232.683 15.9242 227.236 13.6559 221.556 13.6558H208.761C209.39 15.209 209.629 16.8937 209.458 18.5618C209.287 20.2299 208.711 21.8303 207.781 23.222C206.85 24.6138 205.594 25.7544 204.122 26.5434C202.65 27.3324 201.008 27.7457 199.34 27.7469H139.204C137.536 27.7458 135.894 27.3325 134.422 26.5436C132.95 25.7546 131.693 24.614 130.763 23.2222C129.832 21.8305 129.256 20.2301 129.085 18.562C128.914 16.8938 129.154 15.209 129.783 13.6558H116.084C110.404 13.6559 104.957 15.9242 100.941 19.9618C96.9248 23.9993 94.6685 29.4754 94.6683 35.1854Z" fill="white"/>
<path d="M94.6683 35.1854V308.044C94.6685 313.754 96.9248 319.23 100.941 323.267C104.957 327.305 110.404 329.573 116.084 329.573H221.557C227.236 329.573 232.683 327.305 236.699 323.267C240.715 319.23 242.971 313.754 242.972 308.044V35.1854C242.972 29.4754 240.715 23.9993 236.699 19.9618C232.683 15.9242 227.236 13.6559 221.556 13.6558H208.761C209.39 15.209 209.629 16.8937 209.458 18.5618C209.287 20.2299 208.711 21.8303 207.781 23.222C206.85 24.6138 205.594 25.7544 204.122 26.5434C202.65 27.3324 201.008 27.7457 199.34 27.7469H139.204C137.536 27.7458 135.894 27.3325 134.422 26.5436C132.95 25.7546 131.693 24.614 130.763 23.2222C129.832 21.8305 129.256 20.2301 129.085 18.562C128.914 16.8938 129.154 15.209 129.783 13.6558H116.084C110.404 13.6559 104.957 15.9242 100.941 19.9618C96.9248 23.9993 94.6685 29.4754 94.6683 35.1854Z" fill="#63A650" fill-opacity="0.1"/>
</g>
<path opacity="0.3" d="M168.744 125.839C151.508 125.839 137.536 111.792 137.536 94.4647C137.536 77.1374 151.508 63.0908 168.744 63.0908C185.979 63.0908 199.951 77.1374 199.951 94.4647C199.951 111.792 185.979 125.839 168.744 125.839Z" fill="#63A650"/>
<path d="M168.78 117.1C181.356 117.1 191.552 106.904 191.552 94.3269C191.552 81.7499 181.356 71.5542 168.78 71.5542C156.203 71.5542 146.007 81.7499 146.007 94.3269C146.007 106.904 156.203 117.1 168.78 117.1Z" fill="#63A650"/>
<path d="M165.672 106.179C165.279 106.179 164.891 106.088 164.54 105.912C164.188 105.736 163.882 105.481 163.646 105.166L157.433 96.8821C157.234 96.616 157.089 96.3132 157.006 95.9909C156.923 95.6687 156.905 95.3333 156.952 95.004C156.999 94.6747 157.111 94.3579 157.28 94.0717C157.45 93.7855 157.674 93.5354 157.94 93.3358C158.206 93.1362 158.509 92.991 158.831 92.9085C159.153 92.8259 159.489 92.8077 159.818 92.8547C160.147 92.9018 160.464 93.0132 160.75 93.1827C161.037 93.3522 161.287 93.5764 161.486 93.8426L165.551 99.2616L175.99 83.6027C176.175 83.3259 176.412 83.088 176.688 82.9028C176.965 82.7176 177.275 82.5887 177.601 82.5234C177.928 82.4581 178.263 82.4577 178.59 82.5222C178.916 82.5868 179.227 82.715 179.504 82.8996C179.781 83.0841 180.018 83.3214 180.203 83.5979C180.388 83.8744 180.517 84.1846 180.583 84.5109C180.648 84.8372 180.648 85.1731 180.583 85.4994C180.519 85.8258 180.39 86.1363 180.206 86.4131L167.78 105.051C167.556 105.388 167.253 105.667 166.899 105.863C166.544 106.059 166.148 106.167 165.743 106.179C165.719 106.179 165.696 106.179 165.672 106.179Z" fill="white"/>
<path d="M256.823 328.397L247.773 328.397L243.467 293.487L256.825 293.488L256.823 328.397Z" fill="#FFB6B6"/>
<path d="M256.582 325.441L246.918 321.51L246.642 321.397L241.306 325.441C238.294 325.442 235.405 326.638 233.275 328.769C231.145 330.899 229.948 333.788 229.947 336.8V337.169H259.129V325.441H256.582Z" fill="#4F527D"/>
<path d="M333.32 320.816L324.677 323.502L310.205 291.442L322.962 287.479L333.32 320.816Z" fill="#FFB6B6"/>
<path d="M332.213 318.065L321.818 317.179L321.52 317.153L317.625 322.598C314.749 323.493 312.345 325.493 310.943 328.159C309.541 330.826 309.255 333.94 310.149 336.817L310.258 337.169L338.125 328.509L334.645 317.309L332.213 318.065Z" fill="#4F527D"/>
<path d="M297.108 149.568L300.789 160.037V165.696L300.276 171.919L305.974 192.674L310.443 238.443L332.934 306.194L315.689 311.16L271.657 200.462L257.75 312.43L241.979 312.009C241.979 312.009 239.281 305.485 239.99 301.937C240.7 298.39 240.7 302.647 240.7 298.39C240.7 294.133 237.624 295.982 239.871 292.574C242.119 289.166 241.839 286.183 241.979 284.127C242.119 282.071 240.7 199.06 240.7 196.222C240.7 193.384 240.208 194.006 240.454 191.212C240.7 188.417 243.818 189.566 242.968 184.735C242.119 179.904 241.839 180.748 241.979 177.133C242.119 173.518 244.074 152.322 244.074 152.322L297.108 149.568Z" fill="#4F527D"/>
<path d="M238.083 152.973L269.699 122.483L278.463 97.6704L265.537 92.0498C258.897 98.4097 251.721 118.219 251.721 118.219L229.964 145.899C229.794 145.957 229.625 146.018 229.458 146.092C228.478 146.524 227.626 147.202 226.985 148.059C226.343 148.917 225.934 149.925 225.796 150.988C225.658 152.05 225.797 153.129 226.198 154.122C226.599 155.115 227.25 155.988 228.087 156.656C228.924 157.324 229.92 157.764 230.977 157.935C232.034 158.106 233.118 158.001 234.123 157.631C235.128 157.261 236.02 156.638 236.714 155.822C237.407 155.006 237.879 154.025 238.083 152.973Z" fill="#FFB8B8"/>
<path d="M261.899 94.8204L278.295 100.025L278.357 100.015C284.459 98.9929 289.523 89.0262 292.696 80.8451C293.74 78.1466 293.721 75.1524 292.642 72.4677C291.562 69.7831 289.504 67.6083 286.883 66.383C284.943 65.4922 282.793 65.1617 280.676 65.4289C278.558 65.696 276.557 66.5503 274.9 67.8949L266.48 74.7744L261.899 94.8204Z" fill="#63A650"/>
<path d="M299.894 163.017L299.99 162.89C305.106 156.105 298.109 139.304 297.051 136.868L301.808 135.459L300.979 126.402L300.579 122.364L304.278 118.852L304.29 118.762L306.833 100.662L310.161 88.683C311.416 84.1542 311.442 79.3732 310.238 74.8308C309.034 70.2883 306.643 66.1481 303.31 62.8352L296.507 56.0808L288.357 43.3235L274.692 42.9707L269.778 51.7001C265.208 52.6327 261.11 55.139 258.198 58.7822C255.286 62.4255 253.744 66.9749 253.842 71.6378L254.304 94.8771L249.401 123.671L249.263 128.901L244.451 133.979L245.341 139.114L241.741 140.548L239.979 147.844C239.306 148.685 234.864 154.301 234.823 155.866C234.817 156.101 234.985 156.333 235.351 156.594C238.226 158.652 254.298 163.109 261.531 160.429C269.236 157.577 299.433 162.934 299.737 162.989L299.894 163.017Z" fill="#9499C7"/>
<path d="M266.395 89.3466L259.415 75.4297C249.282 76.1218 229.173 87.8369 229.173 87.8369L191.125 95.9038C189.998 95.4705 188.777 95.3418 187.584 95.5306C186.391 95.7195 185.27 96.2191 184.331 96.9794C183.393 97.7396 182.672 98.7336 182.24 99.8612C181.808 100.989 181.681 102.21 181.871 103.403C182.061 104.595 182.562 105.717 183.324 106.654C184.085 107.591 185.08 108.311 186.208 108.742C187.336 109.172 188.558 109.298 189.75 109.107C190.942 108.915 192.063 108.412 192.999 107.65L241.398 104.181L266.395 89.3466Z" fill="#FFB8B8"/>
<path d="M263.579 91.6317L281.81 78.0838L285.021 66.5114C285.643 64.2372 285.617 61.8344 284.945 59.5744C284.273 57.3144 282.983 55.2874 281.22 53.7223C278.815 51.6169 275.7 50.5031 272.506 50.6062C269.312 50.7092 266.275 52.0215 264.011 54.2775C257.151 61.1252 249.326 70.6783 251.007 77.3027L251.024 77.3699L263.579 91.6317Z" fill="#9499C7"/>
<path d="M281.974 39.807C290.927 39.807 298.185 32.549 298.185 23.5959C298.185 14.6427 290.927 7.38477 281.974 7.38477C273.021 7.38477 265.763 14.6427 265.763 23.5959C265.763 32.549 273.021 39.807 281.974 39.807Z" fill="#FFB8B8"/>
<path d="M292.642 40.5501C289.93 39.2764 286.763 40.0504 283.77 40.1682C280.776 40.286 277.149 39.1576 276.514 36.2299C276.045 34.0652 277.456 31.6926 276.567 29.6639C275.597 27.4517 272.685 27.1368 270.351 26.5174C267.424 25.6718 264.843 23.9154 262.982 21.5033C261.122 19.0913 260.078 16.1489 260.003 13.1035C259.841 14.3122 261.909 14.7092 262.588 13.6964C263.268 12.6836 262.8 11.2817 262.051 10.3193C261.302 9.35686 260.291 8.58826 259.726 7.50741C259.161 6.42655 259.271 4.82134 260.374 4.30119C260.939 5.44232 261.74 6.45062 262.723 7.25961C263.707 8.06859 264.851 8.65987 266.079 8.99443C265.578 7.47029 266.287 5.75676 267.429 4.62944C268.642 3.57322 270.04 2.75011 271.552 2.20154C275.289 0.581667 279.652 -1.03029 283.27 0.838669C284.205 1.33036 285.016 2.02677 285.643 2.87587C286.27 3.72498 286.698 4.70485 286.893 5.74228C293.587 6.3083 300.461 13.5595 300.08 20.2665C299.669 27.4868 299.37 28.071 293.36 40.2211" fill="#4F527D"/>
<defs>
<clipPath id="clip0_2350_268726">
<rect width="336.228" height="340.845" fill="white" transform="matrix(-1 0 0 1 336.812 6.15527)"/>
</clipPath>
</defs>
</svg>
