<svg width="441" height="250" viewBox="0 0 441 250" fill="none" xmlns="http://www.w3.org/2000/svg">
<g clip-path="url(#clip0_343_186605)">
<path d="M430.634 210.794C429.04 197.993 421.097 185.38 408.873 181.214C413.694 194.39 413.693 208.845 408.87 222.02C406.992 227.095 404.374 232.544 406.14 237.658C407.24 240.84 409.929 243.275 412.935 244.797C415.941 246.32 419.277 247.045 422.572 247.756L423.22 248.292C428.45 236.497 432.228 223.596 430.634 210.794Z" fill="#63A650"/>
<path d="M408.75 181.456C415.868 189.422 420.293 199.426 421.395 210.047C421.672 212.329 421.588 214.641 421.145 216.897C420.643 219.08 419.564 221.09 418.021 222.716C416.613 224.262 414.993 225.68 413.985 227.54C413.484 228.5 413.191 229.555 413.126 230.636C413.061 231.717 413.226 232.799 413.61 233.812C414.499 236.36 416.253 238.438 418.038 240.41C420.02 242.599 422.114 244.842 422.957 247.744C423.059 248.096 423.599 247.917 423.497 247.566C422.031 242.516 417.123 239.648 414.782 235.099C413.69 232.977 413.232 230.513 414.256 228.272C415.151 226.313 416.82 224.85 418.259 223.297C419.788 221.733 420.91 219.818 421.527 217.721C422.083 215.494 422.256 213.19 422.039 210.906C421.631 205.755 420.415 200.701 418.435 195.928C416.205 190.468 413.057 185.429 409.127 181.03C408.883 180.757 408.508 181.186 408.75 181.456V181.456Z" fill="white"/>
<path d="M421.243 206.606C423.002 206.18 424.552 205.142 425.616 203.68C426.68 202.217 427.189 200.425 427.052 198.622C427.023 198.257 426.454 198.285 426.483 198.65C426.614 200.329 426.14 201.999 425.146 203.358C424.153 204.718 422.705 205.679 421.065 206.066C420.708 206.151 420.889 206.69 421.243 206.606Z" fill="white"/>
<path d="M418.837 222.027C415.66 220.132 413.314 217.111 412.268 213.566C412.165 213.215 411.625 213.393 411.728 213.744C412.823 217.431 415.27 220.57 418.581 222.534C418.896 222.721 419.151 222.213 418.837 222.027Z" fill="white"/>
<path d="M415.679 191.007C415.033 191.313 414.32 191.455 413.606 191.419C412.891 191.382 412.197 191.169 411.585 190.799C411.272 190.608 411.018 191.117 411.329 191.307C412.007 191.713 412.774 191.947 413.563 191.989C414.353 192.031 415.14 191.879 415.857 191.546C415.927 191.521 415.985 191.469 416.019 191.403C416.052 191.336 416.059 191.259 416.038 191.187C416.014 191.116 415.963 191.057 415.896 191.023C415.828 190.989 415.75 190.983 415.679 191.007Z" fill="white"/>
<path d="M371.613 204.079C371.805 204.203 371.998 204.328 372.19 204.458C374.764 206.149 377.197 208.045 379.464 210.13C379.641 210.288 379.819 210.451 379.992 210.614C385.4 215.694 389.816 221.732 393.017 228.421C394.288 231.084 395.354 233.84 396.207 236.665C397.384 240.566 398.35 244.89 400.68 248.081C400.919 248.416 401.179 248.737 401.458 249.04H422.516C422.564 249.016 422.612 248.997 422.66 248.973L423.501 249.011C423.467 248.863 423.429 248.709 423.395 248.56C423.376 248.474 423.352 248.388 423.333 248.301C423.318 248.244 423.304 248.186 423.294 248.133C423.289 248.114 423.284 248.095 423.28 248.081C423.27 248.028 423.256 247.98 423.246 247.932C423.035 247.073 422.817 246.214 422.593 245.355C422.593 245.35 422.593 245.35 422.588 245.345C420.863 238.805 418.576 232.351 415.381 226.449C415.285 226.272 415.189 226.089 415.083 225.912C413.629 223.259 411.959 220.73 410.092 218.349C409.065 217.049 407.973 215.801 406.82 214.611C403.835 211.542 400.384 208.961 396.596 206.963C389.044 202.98 380.3 201.454 372.228 203.887C372.022 203.949 371.82 204.011 371.613 204.079Z" fill="#63A650"/>
<path d="M371.657 204.346C382.143 206.426 391.706 211.753 398.988 219.57C400.586 221.225 401.912 223.122 402.919 225.189C403.834 227.235 404.184 229.488 403.932 231.715C403.739 233.796 403.301 235.902 403.617 237.993C403.796 239.061 404.198 240.079 404.798 240.981C405.398 241.883 406.182 242.649 407.098 243.227C409.345 244.727 411.997 245.331 414.611 245.832C417.514 246.388 420.538 246.919 422.96 248.73C423.254 248.949 423.577 248.482 423.284 248.263C419.069 245.112 413.421 245.773 408.811 243.549C406.659 242.511 404.808 240.82 404.275 238.415C403.809 236.313 404.259 234.14 404.473 232.035C404.75 229.867 404.492 227.664 403.72 225.618C402.822 223.506 401.571 221.562 400.02 219.869C396.59 216.002 392.572 212.697 388.114 210.077C383.043 207.058 377.491 204.928 371.701 203.779C371.342 203.708 371.301 204.275 371.657 204.346H371.657Z" fill="white"/>
<path d="M396.793 216.915C397.94 215.517 398.552 213.757 398.52 211.949C398.488 210.141 397.814 208.404 396.618 207.047C396.375 206.774 395.937 207.138 396.181 207.412C397.297 208.673 397.925 210.292 397.951 211.975C397.978 213.658 397.401 215.296 396.325 216.591C396.091 216.873 396.56 217.195 396.793 216.915Z" fill="white"/>
<path d="M404.171 230.673C400.492 231.07 396.799 230.069 393.827 227.867C393.532 227.649 393.209 228.116 393.503 228.334C396.6 230.62 400.446 231.654 404.273 231.232C404.638 231.192 404.534 230.632 404.171 230.673Z" fill="white"/>
<path d="M382.949 207.806C382.618 208.439 382.135 208.981 381.542 209.381C380.95 209.782 380.267 210.029 379.556 210.102C379.19 210.137 379.295 210.697 379.657 210.661C380.443 210.578 381.197 210.303 381.852 209.862C382.508 209.421 383.045 208.826 383.417 208.129C383.458 208.067 383.473 207.991 383.46 207.917C383.446 207.844 383.405 207.778 383.345 207.734C383.283 207.691 383.207 207.675 383.132 207.688C383.058 207.702 382.992 207.744 382.949 207.806Z" fill="white"/>
<path d="M7.68703 56.6219C11.9325 56.6219 15.3741 53.1846 15.3741 48.9444C15.3741 44.7042 11.9325 41.2668 7.68703 41.2668C3.4416 41.2668 0 44.7042 0 48.9444C0 53.1846 3.4416 56.6219 7.68703 56.6219Z" fill="#DFE2E6"/>
<path d="M400 48H315V49H400V48Z" fill="#DFE2E6"/>
<path d="M293.249 48.4646H218.164V49.4243H293.249V48.4646Z" fill="#DFE2E6"/>
<path d="M196.783 48.4646H121.062V49.4243H196.783V48.4646Z" fill="#DFE2E6"/>
<path d="M99.773 48.4646H7.6875V49.4243H99.773V48.4646Z" fill="#DFE2E6"/>
<path d="M112.904 62.1402C110.766 62.1402 108.676 61.507 106.898 60.3207C105.12 59.1343 103.735 57.4481 102.917 55.4753C102.098 53.5025 101.884 51.3317 102.301 49.2374C102.719 47.143 103.748 45.2193 105.26 43.7094C106.772 42.1994 108.698 41.1712 110.795 40.7546C112.892 40.338 115.065 40.5518 117.04 41.369C119.016 42.1861 120.704 43.5699 121.892 45.3454C123.08 47.1209 123.714 49.2083 123.714 51.3437C123.71 54.2061 122.57 56.9504 120.544 58.9744C118.517 60.9985 115.77 62.137 112.904 62.1402Z" fill="#63A650"/>
<path d="M110.499 59.9809C108.314 59.9809 106.177 59.3336 104.36 58.1209C102.543 56.9082 101.127 55.1846 100.29 53.1679C99.454 51.1513 99.2352 48.9322 99.6615 46.7913C100.088 44.6505 101.14 42.684 102.686 41.1405C104.231 39.597 106.2 38.5459 108.344 38.12C110.487 37.6942 112.709 37.9127 114.728 38.7481C116.747 39.5834 118.473 40.998 119.687 42.8129C120.901 44.6278 121.549 46.7616 121.549 48.9444C121.546 51.8705 120.381 54.6757 118.309 56.7447C116.238 58.8138 113.429 59.9776 110.499 59.9809ZM110.499 38.8677C108.504 38.8677 106.553 39.4586 104.894 40.5659C103.235 41.6731 101.942 43.2469 101.178 45.0882C100.414 46.9295 100.215 48.9556 100.604 50.9103C100.993 52.865 101.954 54.6605 103.365 56.0698C104.776 57.4791 106.574 58.4388 108.531 58.8276C110.488 59.2164 112.517 59.0168 114.36 58.2542C116.204 57.4915 117.78 56.1999 118.888 54.5428C119.997 52.8857 120.589 50.9374 120.589 48.9444C120.586 46.2728 119.522 43.7115 117.63 41.8224C115.739 39.9333 113.174 38.8707 110.499 38.8677Z" fill="#4A5056"/>
<path d="M110.263 52.3032C110.072 52.3032 109.888 52.2274 109.753 52.0924L105.669 48.0137C105.602 47.9469 105.549 47.8675 105.512 47.7802C105.476 47.6928 105.457 47.599 105.457 47.5044C105.457 47.4097 105.476 47.316 105.512 47.2285C105.548 47.141 105.601 47.0615 105.668 46.9946C105.735 46.9276 105.815 46.8746 105.902 46.8384C105.99 46.8022 106.084 46.7837 106.179 46.7838C106.273 46.7839 106.367 46.8027 106.455 46.8391C106.542 46.8755 106.622 46.9288 106.688 46.9959L110.263 50.5657L117.37 43.4669C117.505 43.3323 117.688 43.2569 117.879 43.2571C118.07 43.2573 118.253 43.3331 118.388 43.4679C118.523 43.6027 118.599 43.7854 118.599 43.9761C118.599 44.1667 118.524 44.3496 118.389 44.4847L110.772 52.0924C110.637 52.2274 110.454 52.3032 110.263 52.3032Z" fill="white"/>
<path d="M209.951 62.1402C207.813 62.1402 205.723 61.507 203.945 60.3207C202.167 59.1343 200.782 57.4481 199.963 55.4753C199.145 53.5025 198.931 51.3317 199.348 49.2374C199.765 47.143 200.795 45.2193 202.307 43.7094C203.819 42.1994 205.745 41.1712 207.842 40.7546C209.939 40.338 212.112 40.5518 214.087 41.369C216.063 42.1861 217.751 43.5699 218.939 45.3454C220.126 47.1209 220.76 49.2083 220.76 51.3437C220.757 54.2061 219.617 56.9504 217.591 58.9744C215.564 60.9985 212.816 62.137 209.951 62.1402Z" fill="#63A650"/>
<path d="M208.05 59.9809C205.865 59.9809 203.728 59.3336 201.911 58.1209C200.094 56.9082 198.677 55.1846 197.841 53.1679C197.005 51.1513 196.786 48.9322 197.212 46.7913C197.639 44.6505 198.691 42.684 200.236 41.1405C201.782 39.597 203.751 38.5459 205.894 38.12C208.038 37.6942 210.26 37.9127 212.279 38.7481C214.298 39.5834 216.024 40.998 217.238 42.8129C218.452 44.6278 219.1 46.7616 219.1 48.9444C219.097 51.8705 217.932 54.6757 215.86 56.7447C213.788 58.8138 210.98 59.9776 208.05 59.9809ZM208.05 38.8677C206.055 38.8677 204.104 39.4586 202.445 40.5659C200.786 41.6731 199.493 43.2469 198.729 45.0882C197.965 46.9295 197.765 48.9556 198.155 50.9103C198.544 52.865 199.505 54.6605 200.916 56.0698C202.327 57.4791 204.125 58.4388 206.082 58.8276C208.039 59.2164 210.068 59.0168 211.911 58.2542C213.755 57.4915 215.33 56.1999 216.439 54.5428C217.548 52.8857 218.139 50.9374 218.139 48.9444C218.136 46.2728 217.072 43.7115 215.181 41.8224C213.289 39.9333 210.725 38.8707 208.05 38.8677Z" fill="#4A5056"/>
<path d="M207.31 52.3033C207.118 52.3033 206.935 52.2274 206.8 52.0924L202.716 48.0137C202.649 47.947 202.596 47.8676 202.559 47.7802C202.523 47.6928 202.504 47.5991 202.504 47.5044C202.504 47.4098 202.522 47.316 202.559 47.2285C202.595 47.1411 202.648 47.0616 202.715 46.9946C202.782 46.9277 202.862 46.8746 202.949 46.8385C203.037 46.8023 203.131 46.7837 203.225 46.7838C203.32 46.784 203.414 46.8028 203.502 46.8392C203.589 46.8755 203.669 46.9288 203.735 46.9959L207.31 50.5657L214.417 43.4669C214.484 43.3999 214.563 43.3467 214.651 43.3103C214.738 43.274 214.832 43.2552 214.927 43.2551C215.022 43.255 215.115 43.2736 215.203 43.3098C215.291 43.3459 215.37 43.399 215.437 43.4659C215.504 43.5328 215.557 43.6123 215.593 43.6997C215.63 43.7872 215.648 43.8809 215.648 43.9755C215.648 44.0702 215.629 44.1638 215.593 44.2512C215.556 44.3386 215.503 44.4179 215.436 44.4847L207.819 52.0924C207.684 52.2274 207.501 52.3033 207.31 52.3033Z" fill="white"/>
<path d="M306.521 62.1402C304.383 62.1402 302.293 61.507 300.515 60.3207C298.737 59.1343 297.352 57.4481 296.534 55.4753C295.716 53.5025 295.502 51.3317 295.919 49.2374C296.336 47.143 297.365 45.2193 298.877 43.7094C300.389 42.1994 302.315 41.1712 304.412 40.7546C306.509 40.338 308.682 40.5518 310.658 41.369C312.633 42.1861 314.321 43.5699 315.509 45.3454C316.697 47.1209 317.331 49.2083 317.331 51.3437C317.328 54.2061 316.188 56.9504 314.161 58.9744C312.134 60.9985 309.387 62.137 306.521 62.1402Z" fill="#EAECEE"/>
<path d="M304.117 59.9809C301.931 59.9809 299.795 59.3336 297.977 58.1209C296.16 56.9082 294.744 55.1846 293.908 53.1679C293.071 51.1513 292.852 48.9322 293.279 46.7913C293.705 44.6505 294.758 42.684 296.303 41.1405C297.848 39.597 299.817 38.5459 301.961 38.12C304.104 37.6942 306.326 37.9127 308.345 38.7481C310.364 39.5834 312.09 40.998 313.304 42.8129C314.519 44.6278 315.167 46.7616 315.167 48.9444C315.163 51.8705 313.998 54.6757 311.926 56.7447C309.855 58.8138 307.046 59.9776 304.117 59.9809ZM304.117 38.8677C302.121 38.8677 300.17 39.4586 298.511 40.5659C296.852 41.6731 295.559 43.2469 294.795 45.0882C294.032 46.9295 293.832 48.9556 294.221 50.9103C294.61 52.865 295.571 54.6605 296.982 56.0698C298.393 57.4791 300.191 58.4388 302.148 58.8276C304.105 59.2164 306.134 59.0168 307.977 58.2542C309.821 57.4915 311.397 56.1999 312.505 54.5428C313.614 52.8857 314.206 50.9374 314.206 48.9444C314.203 46.2728 313.139 43.7115 311.247 41.8224C309.356 39.9333 306.791 38.8707 304.117 38.8677Z" fill="#AEB5BC"/>
<path d="M297.185 104.854C295.047 104.854 292.957 104.221 291.179 103.035C289.402 101.848 288.016 100.162 287.198 98.1892C286.38 96.2164 286.166 94.0456 286.583 91.9512C287 89.8569 288.029 87.9331 289.541 86.4232C291.053 84.9133 292.979 83.885 295.076 83.4684C297.173 83.0519 299.346 83.2657 301.322 84.0828C303.297 84.9 304.985 86.2838 306.173 88.0593C307.361 89.8348 307.995 91.9222 307.995 94.0575C307.992 96.92 306.852 99.6642 304.825 101.688C302.799 103.712 300.051 104.851 297.185 104.854Z" fill="#63A650"/>
<path d="M296.464 97.4163C296.273 97.4163 296.09 97.3404 295.955 97.2054L291.871 93.1267C291.736 92.9918 291.66 92.8087 291.66 92.6178C291.66 92.4269 291.736 92.2439 291.871 92.1089C292.006 91.9739 292.19 91.8981 292.381 91.8981C292.572 91.8981 292.755 91.974 292.89 92.1089L296.464 95.6787L303.572 88.5799C303.707 88.4454 303.89 88.3699 304.081 88.3701C304.272 88.3703 304.455 88.4461 304.59 88.5809C304.725 88.7157 304.801 88.8985 304.801 89.0891C304.801 89.2797 304.726 89.4627 304.591 89.5977L296.974 97.2054C296.839 97.3404 296.656 97.4163 296.464 97.4163Z" fill="white"/>
<path d="M321.321 244.085L315.5 243.187L316.202 220.334L324.793 221.661L321.321 244.085Z" fill="#FFE3CF"/>
<path d="M321.933 249.95L303.164 247.052L303.201 246.815C303.5 244.879 304.557 243.143 306.139 241.986C307.721 240.829 309.698 240.347 311.636 240.646L311.636 240.646L323.1 242.417L321.933 249.95Z" fill="#4F527D"/>
<path d="M382.5 243.51L376.615 243.76L372.848 221.209L381.533 220.839L382.5 243.51Z" fill="#FFE3CF"/>
<path d="M384.246 249.143L365.271 249.95L365.261 249.711C365.177 247.754 365.875 245.845 367.201 244.403C368.527 242.961 370.373 242.103 372.331 242.02H372.332L383.921 241.527L384.246 249.143Z" fill="#4F527D"/>
<path d="M370.914 109.066C371.192 108.988 371.476 108.936 371.763 108.908L368.095 78.9176L355.647 52.5894C354.864 50.9332 354.739 49.042 355.297 47.2972C355.855 45.5525 357.055 44.0841 358.654 43.1881C360.254 42.2921 362.134 42.0353 363.915 42.4694C365.697 42.9035 367.247 43.9962 368.254 45.5272V45.5272C371.516 50.4884 373.984 55.9274 375.569 61.6481L380.798 80.5332L376.974 112.919C377.121 113.832 377 114.768 376.627 115.614C376.254 116.46 375.644 117.18 374.87 117.688C374.097 118.196 373.193 118.47 372.267 118.476C371.341 118.483 370.434 118.223 369.653 117.726C368.872 117.23 368.251 116.518 367.866 115.678C367.48 114.837 367.346 113.904 367.479 112.989C367.612 112.074 368.007 111.217 368.617 110.521C369.226 109.825 370.024 109.32 370.914 109.066Z" fill="#FFE3CF"/>
<path d="M305.51 81.0192C305.704 81.2326 305.879 81.4629 306.031 81.7074L331.256 65.0294L349.277 42.1434C350.411 40.7037 352.049 39.7469 353.861 39.466C355.673 39.1851 357.525 39.601 359.042 40.6298C360.559 41.6587 361.629 43.2239 362.036 45.0097C362.444 46.7956 362.158 48.6692 361.236 50.2527C358.25 55.3845 354.481 60.0197 350.064 63.9914L335.485 77.1022L304.767 88.1556C304.015 88.6945 303.123 89.0049 302.198 89.0494C301.273 89.0938 300.356 88.8705 299.555 88.4062C298.755 87.942 298.106 87.2566 297.686 86.4326C297.266 85.6085 297.094 84.6809 297.19 83.7614C297.286 82.8418 297.645 81.9695 298.226 81.2494C298.806 80.5293 299.583 79.9921 300.462 79.7024C301.341 79.4127 302.285 79.3828 303.181 79.6164C304.076 79.8501 304.885 80.3372 305.51 81.0192L305.51 81.0192Z" fill="#FFE3CF"/>
<path d="M352.715 52.5336C351.816 50.0892 351.908 47.3904 352.973 45.0133C354.038 42.6361 355.991 40.7689 358.416 39.8099C360.84 38.851 363.543 38.8764 365.949 39.8806C368.355 40.8848 370.273 42.7884 371.293 45.1851L379.084 63.4873L363.357 81.4559L352.715 52.5336Z" fill="#C22E49"/>
<path d="M340.633 55.6621L351.203 37.9078C358.504 33.1398 364.511 36.2574 367.713 44.3618C370.503 51.4232 372.67 60.3567 371.381 69.5777C368.496 90.2329 366.096 92.6103 366.096 92.6103C366.096 92.6103 384.113 112.524 380.269 137.956L383.152 233.925L374.504 233.445L362.493 178.263L353.365 143.714L337.51 185.94L323.578 234.885L313.969 232.965L319.734 178.743L327.901 116.363L337.27 92.6103L332.706 76.0556C332.706 76.0556 327.421 64.5393 340.633 55.6621Z" fill="#C22E49"/>
<path d="M348.015 39.4979C349.803 37.602 352.261 36.4789 354.867 36.3684C357.472 36.2579 360.017 37.1687 361.959 38.9064C363.901 40.6441 365.087 43.0711 365.262 45.6695C365.437 48.2679 364.589 50.8318 362.898 52.8142L349.985 67.9532L326.863 61.9296L348.015 39.4979Z" fill="#C22E49"/>
<path d="M356.598 29.8479C363.519 26.069 366.063 17.4014 362.279 10.4884C358.496 3.57544 349.817 1.03483 342.896 4.8138C335.974 8.59278 333.431 17.2603 337.214 24.1733C340.998 31.0863 349.676 33.6269 356.598 29.8479Z" fill="#FFE3CF"/>
<path d="M347.358 2.79416e-10H356.585C362.634 2.79416e-10 367.537 5.50956 367.537 12.306L367.11 28.7908C360.574 29.6028 354.182 31.3105 348.113 33.8655L347.252 30.1925L345.553 35.0298C344.042 35.7609 342.544 36.5603 341.059 37.428C342.793 29.2941 343.506 21.1791 342.316 14.8752H339.191V11.4596L338.13 14.8752H332.465V14.8752C332.465 12.9218 332.85 10.9874 333.599 9.1827C334.347 7.37795 335.444 5.73812 336.827 4.35682C338.21 2.97553 339.852 1.87983 341.659 1.13228C343.466 0.384739 345.403 -1.19725e-05 347.358 2.79416e-10Z" fill="#4F527D"/>
<path d="M440.52 250H257.473C257.345 250 257.223 249.949 257.133 249.859C257.043 249.769 256.992 249.647 256.992 249.52C256.992 249.393 257.043 249.271 257.133 249.181C257.223 249.091 257.345 249.04 257.473 249.04H440.52C440.648 249.04 440.77 249.091 440.86 249.181C440.95 249.271 441.001 249.393 441.001 249.52C441.001 249.647 440.95 249.769 440.86 249.859C440.77 249.949 440.648 250 440.52 250Z" fill="#63A650"/>
<path d="M110.5 114.203C110.373 114.203 110.25 114.153 110.16 114.063C110.07 113.973 110.02 113.851 110.02 113.724V59.9808C110.02 59.8536 110.07 59.7315 110.16 59.6415C110.25 59.5515 110.373 59.501 110.5 59.501C110.627 59.501 110.75 59.5515 110.84 59.6415C110.93 59.7315 110.98 59.8536 110.98 59.9808V113.724C110.98 113.851 110.93 113.973 110.84 114.063C110.75 114.153 110.627 114.203 110.5 114.203Z" fill="#4A5056"/>
<path d="M76.6112 122.543C75.8026 122.543 75.0272 122.864 74.4555 123.435C73.8837 124.006 73.5625 124.781 73.5625 125.588C73.5625 126.396 73.8837 127.17 74.4555 127.741C75.0272 128.312 75.8026 128.633 76.6112 128.633H144.401C145.209 128.632 145.983 128.31 146.553 127.739C147.124 127.168 147.444 126.395 147.444 125.588C147.444 124.782 147.124 124.008 146.553 123.437C145.983 122.866 145.209 122.545 144.401 122.543H76.6112Z" fill="#DFE2E6"/>
<path d="M94.7895 136.974C94.3892 136.973 93.9925 137.051 93.6223 137.203C93.2521 137.356 92.9156 137.579 92.6319 137.861C92.3482 138.144 92.1229 138.479 91.9689 138.848C91.8149 139.217 91.7352 139.613 91.7344 140.013C91.7335 140.413 91.8116 140.809 91.964 141.178C92.1164 141.548 92.3403 141.884 92.6228 142.168C92.9053 142.451 93.2409 142.676 93.6105 142.83C93.98 142.984 94.3763 143.063 94.7767 143.064H126.225C127.034 143.064 127.809 142.743 128.381 142.172C128.953 141.601 129.274 140.827 129.274 140.019C129.274 139.212 128.953 138.437 128.381 137.866C127.809 137.295 127.034 136.974 126.225 136.974H94.7895Z" fill="#DFE2E6"/>
<path d="M175.103 122.543C174.295 122.543 173.519 122.864 172.948 123.435C172.376 124.006 172.055 124.781 172.055 125.588C172.055 126.396 172.376 127.17 172.948 127.741C173.519 128.312 174.295 128.633 175.103 128.633H242.893C243.701 128.632 244.475 128.31 245.045 127.739C245.616 127.168 245.936 126.395 245.936 125.588C245.936 124.782 245.616 124.008 245.045 123.437C244.475 122.866 243.701 122.545 242.893 122.543H175.103Z" fill="#DFE2E6"/>
<path d="M193.278 136.974C192.877 136.973 192.481 137.051 192.111 137.203C191.74 137.356 191.404 137.579 191.12 137.861C190.836 138.144 190.611 138.479 190.457 138.848C190.303 139.217 190.224 139.613 190.223 140.013C190.222 140.413 190.3 140.809 190.452 141.178C190.605 141.548 190.829 141.884 191.111 142.168C191.394 142.451 191.729 142.676 192.099 142.83C192.468 142.984 192.865 143.063 193.265 143.064H224.714C225.522 143.064 226.298 142.743 226.869 142.172C227.441 141.601 227.762 140.827 227.762 140.019C227.762 139.212 227.441 138.437 226.869 137.866C226.298 137.295 225.522 136.974 224.714 136.974H193.278Z" fill="#DFE2E6"/>
<path d="M207.48 114.203C207.353 114.203 207.231 114.153 207.141 114.063C207.051 113.973 207 113.851 207 113.724V59.9808C207 59.8536 207.051 59.7315 207.141 59.6415C207.231 59.5515 207.353 59.501 207.48 59.501C207.608 59.501 207.73 59.5515 207.82 59.6415C207.91 59.7315 207.961 59.8536 207.961 59.9808V113.724C207.961 113.851 207.91 113.973 207.82 114.063C207.73 114.153 207.608 114.203 207.48 114.203Z" fill="#4A5056"/>
<path d="M406.687 56.3551C410.932 56.3551 414.374 52.9177 414.374 48.6775C414.374 44.4374 410.932 41 406.687 41C402.442 41 399 44.4374 399 48.6775C399 52.9177 402.442 56.3551 406.687 56.3551Z" fill="#47A4DD"/>
</g>
<defs>
<clipPath id="clip0_343_186605">
<rect width="441" height="250" fill="white"/>
</clipPath>
</defs>
</svg>
