<svg width="150" height="109" viewBox="0 0 150 109" fill="none" xmlns="http://www.w3.org/2000/svg">
<g filter="url(#filter0_d)">
<rect x="4" width="142" height="101" fill="#F8F8F8"/>
<rect x="4.5" y="0.5" width="141" height="100" stroke="#606060"/>
</g>
<rect x="4" width="142" height="12" fill="#606060"/>
<path fill-rule="evenodd" clip-rule="evenodd" d="M69.783 50.8541L68.8452 55H79.0781L77.8778 50.8541H69.783ZM67.2619 62L68.1667 58H79.9467L81.1048 62H67.2619ZM66.5833 65L65.8283 68.3381C65.7779 68.561 65.7536 68.7826 65.7531 69H65C63.8954 69 63 69.8954 63 71C63 72.1046 63.8954 73 65 73H84C85.1046 73 86 72.1046 86 71C86 69.8954 85.1046 69 84 69H83.0101C83.0096 68.7259 82.971 68.4458 82.8899 68.1657L81.9733 65H66.5833ZM70.3292 48.4395H77.1787L75.7899 43.6427C75.5082 42.6697 74.6171 42 73.6041 42C72.5407 42 71.6191 42.7364 71.3846 43.7736L70.3292 48.4395Z" fill="#EE6352"/>
<circle cx="11" cy="6" r="2" fill="#C4C4C4"/>
<circle cx="18" cy="6" r="2" fill="#C4C4C4"/>
<circle cx="25" cy="6" r="2" fill="#C4C4C4"/>
<defs>
<filter id="filter0_d" x="0" y="0" width="150" height="109" filterUnits="userSpaceOnUse" color-interpolation-filters="sRGB">
<feFlood flood-opacity="0" result="BackgroundImageFix"/>
<feColorMatrix in="SourceAlpha" type="matrix" values="0 0 0 0 0 0 0 0 0 0 0 0 0 0 0 0 0 0 127 0" result="hardAlpha"/>
<feOffset dy="4"/>
<feGaussianBlur stdDeviation="2"/>
<feComposite in2="hardAlpha" operator="out"/>
<feColorMatrix type="matrix" values="0 0 0 0 0 0 0 0 0 0 0 0 0 0 0 0 0 0 0.25 0"/>
<feBlend mode="normal" in2="BackgroundImageFix" result="effect1_dropShadow"/>
<feBlend mode="normal" in="SourceGraphic" in2="effect1_dropShadow" result="shape"/>
</filter>
</defs>
</svg>
