<svg width="71" height="84" viewBox="0 0 71 84" fill="none" xmlns="http://www.w3.org/2000/svg">
<path d="M0.379219 62C-2.82078 44.8 15.0456 38.8333 23.3789 38.5C34.3791 46.5 43.8789 38.5 48.3789 38.5C52.8789 38.5 60.3789 47 64.8789 57.5C68.4789 65.9 66.3789 67.5 64.8789 67.5L44.8789 71C44.879 72.1667 3.57922 79.2 0.379219 62Z" fill="#FFE0E0"/>
<ellipse cx="34.8789" cy="23.5" rx="16" ry="17.5" fill="#C4C4C4"/>
<path d="M57.8789 22.7132C54 34.5 40.1752 27.0853 34.4286 18C26.2876 27.0853 12.8789 35.2573 12.8789 22.7132C12.8789 10.169 22.527 0 34.4286 0C46.3302 0 57.8789 10.169 57.8789 22.7132Z" fill="#524848"/>
<path d="M51.2904 34.3237C54.5407 32.0956 60.313 26.1292 57.3996 20.0877C53.7578 12.5359 42.39 23.5802 51.2904 34.3237Z" fill="#524848"/>
<path d="M51.0857 40.5472C53.7791 39.1541 58.7667 35.1357 57.1701 30.207C55.1744 24.0462 45.4236 31.4174 51.0857 40.5472Z" fill="#524848"/>
<path d="M51.4893 47.3995C53.771 45.9044 58.0589 41.7126 56.9562 36.9063C55.5779 30.8985 47.2162 38.6139 51.4893 47.3995Z" fill="#524848"/>
<path d="M51.2427 54.3386C53.3542 52.8013 57.3526 48.5378 56.4542 43.7821C55.3314 37.8376 47.5443 45.6954 51.2427 54.3386Z" fill="#524848"/>
<path d="M19.5976 35.3237C16.3549 33.0956 10.5963 27.1292 13.5029 21.0877C17.136 13.5359 28.477 24.5802 19.5976 35.3237Z" fill="#524848"/>
<path d="M19.2529 41.5472C16.5659 40.1541 11.5901 36.1357 13.1829 31.207C15.1739 25.0462 24.9016 32.4174 19.2529 41.5472Z" fill="#524848"/>
<path d="M18.8512 48.3995C16.5749 46.9044 12.2971 42.7126 13.3972 37.9063C14.7722 31.8985 23.1142 39.6139 18.8512 48.3995Z" fill="#524848"/>
<path d="M19.0966 55.3386C16.9901 53.8013 13.0012 49.5378 13.8974 44.7821C15.0176 38.8376 22.7863 46.6954 19.0966 55.3386Z" fill="#524848"/>
<path d="M51.8789 49H2.37891L8.87891 83.5H57.3789L51.8789 49Z" fill="#FAFAFA" stroke="black"/>
<path d="M57.3789 83.5L69.3789 67.5H64.8789" stroke="black"/>
<rect x="28" y="28" width="2" height="2" fill="#665C5C"/>
<path d="M39 28H41V30H39V28Z" fill="#665C5C"/>
<path d="M30 35C31.6667 35.8333 35.8 37 39 35" stroke="#665C5C"/>
</svg>
