<svg width="49" height="48" viewBox="0 0 49 48" fill="none" xmlns="http://www.w3.org/2000/svg">
<path d="M21.6029 22.337C21.4023 22.1382 21.1041 22.0795 20.8454 22.1882C20.5935 22.292 20.416 22.5545 20.416 22.8288V27.8057C20.4154 27.9926 20.4873 28.167 20.6198 28.2976C20.751 28.4295 20.9254 28.5007 21.111 28.5007L26.0873 28.5013C26.2741 28.5013 26.4485 28.4288 26.5798 28.2976C26.6448 28.2326 26.6948 28.157 26.7298 28.0732C26.8379 27.812 26.7785 27.5132 26.5791 27.3138L21.6029 22.337ZM26.1466 27.8645C26.1316 27.8801 26.1091 27.8888 26.0866 27.8888L21.111 27.8882C21.0716 27.8882 21.0273 27.8451 21.0273 27.8057L21.0279 22.8295C21.0279 22.8082 21.0373 22.787 21.0523 22.7713L21.0798 22.7532C21.111 22.7401 21.146 22.747 21.1704 22.7701L26.146 27.747C26.1698 27.7707 26.1773 27.8063 26.1466 27.8645Z" fill="black"/>
<path d="M19.2677 16.6999C19.0658 16.5018 18.7689 16.4443 18.5139 16.5524C18.2577 16.6568 18.0845 16.9143 18.082 17.1949V25.5743C18.082 25.5749 18.082 25.5755 18.082 25.5761C18.082 25.5768 18.082 25.5774 18.082 25.578L18.0827 30.1405C18.0827 30.3268 18.1545 30.5005 18.2852 30.6318C18.4177 30.7643 18.592 30.8368 18.7789 30.8361H31.7245C31.9095 30.8361 32.0852 30.7636 32.2164 30.6318C32.2814 30.5668 32.332 30.4911 32.367 30.4061C32.4739 30.1468 32.4152 29.8505 32.2164 29.6486L19.2677 16.6999ZM31.7245 30.2243H18.7777C18.7383 30.2243 18.6945 30.1793 18.6945 30.1399V28.5236H19.3708C19.4552 28.5236 19.5314 28.4893 19.5877 28.433C19.6433 28.378 19.6777 28.3011 19.6777 28.2168C19.6777 28.0474 19.5402 27.9105 19.3714 27.9105H18.6952L18.6945 25.8818H19.3708C19.4558 25.8818 19.532 25.8474 19.5877 25.7924C19.6433 25.7368 19.6777 25.6605 19.6777 25.5749C19.6777 25.4061 19.5402 25.2693 19.3714 25.2693H18.6945V23.2399H19.372C19.4564 23.2399 19.5327 23.2055 19.5883 23.1505C19.6445 23.0943 19.6783 23.018 19.6783 22.933C19.6783 22.7636 19.5414 22.6274 19.3727 22.6274L18.6952 22.6268V20.598L19.3714 20.5986C19.4564 20.5986 19.5327 20.5649 19.5883 20.5086C19.6439 20.4536 19.6783 20.3768 19.6783 20.2924C19.6789 20.123 19.5408 19.9861 19.372 19.9861L18.6958 19.9855V17.198C18.6958 17.1799 18.7014 17.1624 18.7233 17.1405C18.7308 17.133 18.7395 17.1261 18.7508 17.1174C18.7777 17.1049 18.8139 17.1124 18.8364 17.1349L31.782 30.0799C31.8064 30.1043 31.8139 30.1424 31.8014 30.1711C31.7889 30.203 31.757 30.223 31.7245 30.2243Z" fill="black"/>
<path d="M33.8297 26.184L33.4197 25.7746L33.0578 23.5546C33.0472 23.4915 33.0178 23.4333 32.9722 23.3871L25.0478 15.4615C24.6484 15.0646 24.0009 15.064 23.6034 15.4615L22.6747 16.3896C22.2772 16.7877 22.2778 17.4358 22.6759 17.8346L30.6009 25.759C30.6466 25.804 30.7053 25.834 30.7684 25.8452L32.9872 26.2071L33.3978 26.6171C33.5172 26.7365 33.7109 26.7365 33.8303 26.6171C33.9497 26.4977 33.9497 26.3033 33.8297 26.184ZM32.3997 23.6815C32.3822 23.7215 32.3603 23.7596 32.3297 23.7908C32.3291 23.7915 32.3284 23.7915 32.3284 23.7915C32.1716 23.949 32.0503 23.9821 31.9159 24.0183C31.8547 24.034 31.7934 24.0515 31.7278 24.0808L24.9466 17.3008L25.4828 16.7646L32.3997 23.6815ZM23.1091 17.4015C22.9491 17.2421 22.9484 16.9827 23.1084 16.8233L24.0366 15.8946C24.1947 15.7371 24.4553 15.7371 24.6147 15.8958L25.0503 16.3308L24.2972 17.0833L23.5447 17.8365L23.1091 17.4015ZM31.2278 24.7052C31.1934 24.8346 31.1622 24.9565 31.0028 25.1171C30.9709 25.1483 30.9347 25.1696 30.8947 25.1871L23.9784 18.2702L24.5141 17.7346L31.2934 24.5127C31.2634 24.579 31.2453 24.6421 31.2278 24.7052ZM31.5966 25.3596C31.7403 25.1596 31.7884 24.9846 31.8203 24.8596C31.8472 24.7615 31.8497 24.749 31.9059 24.6933C31.9603 24.639 31.9703 24.6365 32.0816 24.6071C32.2053 24.5733 32.3778 24.5252 32.5722 24.3852L32.7622 25.549L31.5966 25.3596Z" fill="black"/>
</svg>
