<svg width="19" height="17" viewBox="0 0 19 17" fill="none" xmlns="http://www.w3.org/2000/svg">
<rect x="2" y="7" width="15" height="8" fill="#AEDCC9"/>
<path d="M18.3281 10.083C18.0938 10.083 17.9062 10.2705 17.9062 10.5049V15.7502H0.84375V10.5049C0.84375 10.2705 0.65625 10.083 0.421875 10.083C0.1875 10.083 0 10.2705 0 10.5049V16.1721C0 16.4064 0.178125 16.5939 0.4125 16.5939H18.3375C18.5719 16.5939 18.75 16.4018 18.75 16.1721V10.5049C18.75 10.2705 18.5625 10.083 18.3281 10.083Z" fill="black"/>
<path d="M9.37422 0C9.13984 0 8.95234 0.1875 8.95234 0.421875V11.175L7.30234 9.525C7.13828 9.36094 6.87109 9.36094 6.70703 9.525C6.54297 9.68906 6.54297 9.95625 6.70703 10.1203L9.07891 12.4922C9.16328 12.5766 9.27109 12.6141 9.37891 12.6141C9.48672 12.6141 9.59453 12.5719 9.67891 12.4922L12.0508 10.1203C12.2148 9.95625 12.2148 9.68906 12.0508 9.525C11.8867 9.36094 11.6195 9.36094 11.4555 9.525L9.79609 11.175V0.421875C9.79609 0.192187 9.60859 0 9.37422 0Z" fill="black"/>
</svg>
