<svg width="21" height="21" viewBox="0 0 21 21" fill="none" xmlns="http://www.w3.org/2000/svg">
<path d="M13.8582 16.663C13.9124 16.5584 13.9744 16.4577 14.0364 16.3609C14.11 16.2524 14.172 16.1633 14.234 16.0781L14.3076 15.9851L14.3192 15.9696C14.3657 15.9115 14.4083 15.8573 14.4548 15.8069L14.5478 15.7062C14.5981 15.6519 14.6446 15.6016 14.695 15.5551L14.7763 15.4776C14.8499 15.4079 14.9042 15.3614 14.9584 15.3188C14.9972 15.2878 15.032 15.2568 15.0708 15.2297C15.125 15.1871 15.1792 15.1445 15.2335 15.1057L15.3536 15.0205C15.4117 14.9817 15.4698 14.9469 15.5318 14.9081C15.5744 14.881 15.617 14.8578 15.6596 14.8345C15.7216 14.7997 15.7836 14.7687 15.8456 14.7377L15.9773 14.6757C16.0431 14.6447 16.109 14.6176 16.1748 14.5943L16.3453 14.5285L16.2407 14.3774C15.4233 13.1958 14.2572 12.2274 12.9556 11.6501L12.8858 11.6191L12.82 11.6579C11.9135 12.2196 10.8714 12.514 9.80604 12.514C8.7407 12.514 7.69473 12.2196 6.7921 11.6579L6.72624 11.6191L6.65651 11.6501C3.97572 12.8317 2.14721 15.4892 2.00775 18.418L2 18.569H13.3275L13.3468 18.3405C13.3546 18.2707 13.3623 18.201 13.374 18.1352C13.3817 18.0848 13.3895 18.0344 13.3972 17.9841C13.4088 17.9182 13.4243 17.8485 13.4398 17.7826C13.4553 17.7168 13.4631 17.6742 13.4747 17.6354C13.4941 17.5696 13.5134 17.5037 13.5328 17.434C13.556 17.3642 13.5638 17.3332 13.5754 17.2984C13.5987 17.2286 13.6258 17.1628 13.6568 17.0931L13.6723 17.0504C13.6839 17.0233 13.6916 16.9962 13.7071 16.9691C13.7381 16.8955 13.7769 16.8219 13.8156 16.7483L13.8582 16.663Z" fill="#BCD5E4"/>
<path d="M9.80753 11.5682C12.7259 11.5682 15.0916 9.20241 15.0916 6.28409C15.0916 3.36577 12.7259 1 9.80753 1C6.88921 1 4.52344 3.36577 4.52344 6.28409C4.52344 9.20241 6.88921 11.5682 9.80753 11.5682Z" fill="#BCD5E4"/>
<path d="M20.3539 16.7168C20.5492 16.5216 20.5492 16.205 20.3539 16.0097L17.1719 12.8277C16.9767 12.6325 16.6601 12.6325 16.4648 12.8277C16.2696 13.023 16.2696 13.3396 16.4648 13.5349L19.2932 16.3633L16.4648 19.1917C16.2696 19.387 16.2696 19.7036 16.4648 19.8988C16.6601 20.0941 16.9767 20.0941 17.1719 19.8988L20.3539 16.7168ZM13.6367 16.8633H20.0004V15.8633H13.6367V16.8633Z" fill="black"/>
<path d="M12.5916 5.28409C12.5916 7.92627 10.4497 10.0682 7.80753 10.0682C5.16535 10.0682 3.02344 7.92627 3.02344 5.28409C3.02344 2.64191 5.16535 0.5 7.80753 0.5C10.4497 0.5 12.5916 2.64191 12.5916 5.28409Z" stroke="#2A2A2A"/>
<path d="M11.4143 15.4329L11.4143 15.4329C11.4791 15.3079 11.5508 15.1921 11.6153 15.0914L11.6225 15.08L11.6227 15.0801C11.698 14.9691 11.7633 14.8752 11.8296 14.784L11.8356 14.7757L11.842 14.7677L11.9115 14.6799L11.9192 14.6696L11.9239 14.6634L11.9288 14.6573C11.9332 14.6517 11.9379 14.6459 11.9426 14.6399C11.9823 14.5901 12.0326 14.5271 12.0874 14.4678L12.1804 14.367L12.1814 14.366L12.1901 14.3566C12.2349 14.3083 12.2908 14.2481 12.3527 14.1906L12.4315 14.1155L12.4325 14.1146C12.5147 14.0367 12.58 13.9803 12.6471 13.9275C12.6493 13.9258 12.6527 13.923 12.6571 13.9193C12.6794 13.9008 12.7276 13.8609 12.7705 13.8297C12.8212 13.7899 12.8812 13.7429 12.9429 13.6988L12.9441 13.698L13.0642 13.6127L13.0701 13.6085L13.0762 13.6045C13.1261 13.5712 13.1794 13.5383 13.2249 13.5101C13.2392 13.5013 13.2528 13.4929 13.2652 13.4851C13.3216 13.4494 13.3761 13.4196 13.4159 13.3979L13.4175 13.3971C13.4718 13.3666 13.5253 13.3391 13.5736 13.3147C12.8666 12.4135 11.9391 11.6681 10.9169 11.1825C9.97057 11.7287 8.89915 12.014 7.80604 12.014C6.71358 12.014 5.63849 11.729 4.69438 11.1823C2.38878 12.2691 0.789349 14.5382 0.534788 17.069H10.878C10.8788 17.064 10.8797 17.059 10.8806 17.0541L10.8914 16.9836L10.903 16.908L10.9047 16.8972L10.9048 16.8972C10.9189 16.8174 10.9369 16.737 10.9531 16.6681C10.9549 16.6606 10.9572 16.65 10.96 16.6375C10.969 16.5972 10.9824 16.5367 10.9953 16.4933M11.4143 15.4329L11.4747 16.6354M11.4143 15.4329L11.411 15.4394M11.4143 15.4329L11.411 15.4394M10.9953 16.4933C10.9955 16.4928 10.9956 16.4923 10.9958 16.4917L11.4747 16.6354M10.9953 16.4933C10.9952 16.4936 10.9951 16.494 10.995 16.4943L11.4747 16.6354M10.9953 16.4933C11.0147 16.4274 11.0329 16.3653 11.051 16.3001L11.0544 16.2879L11.0585 16.2759C11.0681 16.2469 11.0744 16.2264 11.0799 16.2084C11.0806 16.206 11.0814 16.2033 11.0822 16.2005C11.087 16.1845 11.0937 16.1624 11.1011 16.1403L11.5754 16.2984M11.4747 16.6354C11.4941 16.5696 11.5134 16.5037 11.5328 16.434C11.5464 16.3931 11.5547 16.3656 11.5616 16.3427C11.5665 16.3266 11.5706 16.3128 11.5754 16.2984M11.5754 16.2984L11.1011 16.1403C11.1293 16.0557 11.1607 15.9788 11.1926 15.9063M11.5754 16.2984C11.5987 16.2286 11.6258 16.1628 11.6568 16.0931M11.1926 15.9063L11.1869 15.9222L11.6568 16.0931M11.1926 15.9063C11.195 15.9008 11.1975 15.8954 11.1999 15.89L11.6568 16.0931M11.1926 15.9063L11.6568 16.0931M11.411 15.4394L11.3707 15.52L11.411 15.4394ZM11.2123 15.8544C11.2119 15.8553 11.2122 15.8547 11.2127 15.8535L11.2123 15.8544ZM11.2463 15.7751L11.7071 15.9691L11.273 15.721C11.2667 15.7321 11.2609 15.7429 11.2557 15.7532C11.2525 15.7605 11.2494 15.7678 11.2463 15.7751Z" stroke="#2A2A2A"/>
</svg>
