<svg width="49" height="48" viewBox="0 0 49 48" fill="none" xmlns="http://www.w3.org/2000/svg">
<path d="M31.4667 23L37.933 34.2599H25.0003L31.4667 23Z" fill="#C0D0D9"/>
<rect x="19" y="18" width="11.2" height="11.2599" fill="#C0D0D9"/>
<rect x="21.5" y="16.5" width="10.2" height="10.2599" stroke="black"/>
<path fill-rule="evenodd" clip-rule="evenodd" d="M32.1993 25.2149V26.2599V27.2599H31.1993H31.0249L32.1993 25.2149ZM32.1792 23.2419L31.466 22L31.1993 22.4643V24.9482L32.1792 23.2419ZM30.446 26.2599L29.8717 27.2599H28.4453L29.0196 26.2599H30.446Z" fill="black"/>
<path d="M26 24.5C26 26.433 24.433 28 22.5 28C20.567 28 19 26.433 19 24.5C19 22.567 20 21 22.5 21C24.433 21 26 22.567 26 24.5Z" fill="#C0D0D9"/>
<ellipse cx="17.3131" cy="28.2747" rx="6.31311" ry="6.27474" fill="#C0D0D9"/>
<path d="M25.1262 26.2747C25.1262 29.4612 22.5265 32.0495 19.3131 32.0495C16.0997 32.0495 13.5 29.4612 13.5 26.2747C13.5 23.0883 16.0997 20.5 19.3131 20.5C22.5265 20.5 25.1262 23.0883 25.1262 26.2747Z" stroke="black"/>
<path d="M32.5 25L35.5311 30.25H29.4689L32.5 25Z" fill="#C0D0D9"/>
<path d="M27.8641 32.7599L33.4667 23.004L39.0693 32.7599H27.8641Z" stroke="black"/>
</svg>
