<svg width="49" height="48" viewBox="0 0 49 48" fill="none" xmlns="http://www.w3.org/2000/svg">
<path d="M17 31V18.4142C17 17.5233 18.0771 17.0771 18.7071 17.7071L31.2929 30.2929C31.9229 30.9229 31.4767 32 30.5858 32H18C17.4477 32 17 31.5523 17 31Z" fill="#C0D0D9"/>
<path d="M21.6029 22.337C21.4023 22.1382 21.1041 22.0795 20.8454 22.1882C20.5935 22.292 20.416 22.5545 20.416 22.8288V27.8057C20.4154 27.9926 20.4873 28.167 20.6198 28.2976C20.751 28.4295 20.9254 28.5007 21.111 28.5007L26.0873 28.5013C26.2741 28.5013 26.4485 28.4288 26.5798 28.2976C26.6448 28.2326 26.6948 28.157 26.7298 28.0732C26.8379 27.812 26.7785 27.5132 26.5791 27.3138L21.6029 22.337ZM26.1466 27.8645C26.1316 27.8801 26.1091 27.8888 26.0866 27.8888L21.111 27.8882C21.0716 27.8882 21.0273 27.8451 21.0273 27.8057L21.0279 22.8295C21.0279 22.8082 21.0373 22.787 21.0523 22.7713L21.0798 22.7532C21.111 22.7401 21.146 22.747 21.1704 22.7701L26.146 27.747C26.1698 27.7707 26.1773 27.8063 26.1466 27.8645Z" fill="black"/>
<path d="M19.2677 16.6999C19.0658 16.5018 18.7689 16.4443 18.5139 16.5524C18.2577 16.6568 18.0845 16.9143 18.082 17.1949V25.5743C18.082 25.5749 18.082 25.5755 18.082 25.5761C18.082 25.5768 18.082 25.5774 18.082 25.578L18.0827 30.1405C18.0827 30.3268 18.1545 30.5005 18.2852 30.6318C18.4177 30.7643 18.592 30.8368 18.7789 30.8361H31.7245C31.9095 30.8361 32.0852 30.7636 32.2164 30.6318C32.2814 30.5668 32.332 30.4911 32.367 30.4061C32.4739 30.1468 32.4152 29.8505 32.2164 29.6486L19.2677 16.6999ZM31.7245 30.2243H18.7777C18.7383 30.2243 18.6945 30.1793 18.6945 30.1399V28.5236H19.3708C19.4552 28.5236 19.5314 28.4893 19.5877 28.433C19.6433 28.378 19.6777 28.3011 19.6777 28.2168C19.6777 28.0474 19.5402 27.9105 19.3714 27.9105H18.6952L18.6945 25.8818H19.3708C19.4558 25.8818 19.532 25.8474 19.5877 25.7924C19.6433 25.7368 19.6777 25.6605 19.6777 25.5749C19.6777 25.4061 19.5402 25.2693 19.3714 25.2693H18.6945V23.2399H19.372C19.4564 23.2399 19.5327 23.2055 19.5883 23.1505C19.6445 23.0943 19.6783 23.018 19.6783 22.933C19.6783 22.7636 19.5414 22.6274 19.3727 22.6274L18.6952 22.6268V20.598L19.3714 20.5986C19.4564 20.5986 19.5327 20.5649 19.5883 20.5086C19.6439 20.4536 19.6783 20.3768 19.6783 20.2924C19.6789 20.123 19.5408 19.9861 19.372 19.9861L18.6958 19.9855V17.198C18.6958 17.1799 18.7014 17.1624 18.7233 17.1405C18.7308 17.133 18.7395 17.1261 18.7508 17.1174C18.7777 17.1049 18.8139 17.1124 18.8364 17.1349L31.782 30.0799C31.8064 30.1043 31.8139 30.1424 31.8014 30.1711C31.7889 30.203 31.757 30.223 31.7245 30.2243Z" fill="black"/>
<path d="M31.3459 26.5779L30.9318 26.5016C30.7418 26.4666 30.5661 26.3774 30.4258 26.2447L21.6479 17.9428C21.2524 17.5687 21.2288 16.9469 21.5948 16.5439L22.1746 15.9055C22.5584 15.483 23.2174 15.4668 23.6214 15.8701L31.9432 24.178C32.0372 24.2719 32.1116 24.3836 32.162 24.5065L32.4525 25.2153C32.7525 25.9473 32.1239 26.7213 31.3459 26.5779Z" fill="#C0D0D9"/>
<path d="M33.8297 26.1835L33.4197 25.7741L33.0578 23.5541C33.0472 23.491 33.0178 23.4329 32.9722 23.3866L25.0478 15.461C24.6484 15.0641 24.0009 15.0635 23.6034 15.461L22.6747 16.3891C22.2772 16.7872 22.2778 17.4354 22.6759 17.8341L30.6009 25.7585C30.6466 25.8035 30.7053 25.8335 30.7684 25.8447L32.9872 26.2066L33.3978 26.6166C33.5172 26.736 33.7109 26.736 33.8303 26.6166C33.9497 26.4972 33.9497 26.3029 33.8297 26.1835ZM32.3997 23.681C32.3822 23.721 32.3603 23.7591 32.3297 23.7904C32.3291 23.791 32.3284 23.791 32.3284 23.791C32.1716 23.9485 32.0503 23.9816 31.9159 24.0179C31.8547 24.0335 31.7934 24.051 31.7278 24.0804L24.9466 17.3004L25.4828 16.7641L32.3997 23.681ZM23.1091 17.401C22.9491 17.2416 22.9484 16.9822 23.1084 16.8229L24.0366 15.8941C24.1947 15.7366 24.4553 15.7366 24.6147 15.8954L25.0503 16.3304L24.2972 17.0829L23.5447 17.836L23.1091 17.401ZM31.2278 24.7047C31.1934 24.8341 31.1622 24.956 31.0028 25.1166C30.9709 25.1479 30.9347 25.1691 30.8947 25.1866L23.9784 18.2697L24.5141 17.7341L31.2934 24.5122C31.2634 24.5785 31.2453 24.6416 31.2278 24.7047ZM31.5966 25.3591C31.7403 25.1591 31.7884 24.9841 31.8203 24.8591C31.8472 24.761 31.8497 24.7485 31.9059 24.6929C31.9603 24.6385 31.9703 24.636 32.0816 24.6066C32.2053 24.5729 32.3778 24.5247 32.5722 24.3847L32.7622 25.5485L31.5966 25.3591Z" fill="black"/>
</svg>
