<svg width="49" height="48" viewBox="0 0 49 48" fill="none" xmlns="http://www.w3.org/2000/svg">
<path d="M32.5108 15.6035C32.5219 15.4404 32.4609 15.2805 32.3454 15.1657C32.2298 15.0501 32.0659 14.9915 31.9068 15.001C31.6162 15.0192 25.9653 15.4427 21.6634 19.9339C20.5598 19.6948 17.177 19.3037 15.4116 22.9026C15.3348 23.0586 15.334 23.2407 15.41 23.3982C15.4852 23.555 15.6277 23.6682 15.7971 23.7062L19.2259 24.4717L23.048 28.2939L23.8136 31.721C23.8516 31.8904 23.9648 32.0337 24.1231 32.1081C24.1999 32.1461 24.2838 32.1651 24.3677 32.1651C24.454 32.1651 24.5395 32.1461 24.6179 32.1065C28.2319 30.3332 27.8218 26.929 27.5843 25.8405C32.0683 21.5402 32.4918 15.894 32.5108 15.6035Z" fill="#C0D0D9"/>
<path d="M18.8818 25.7656C18.1361 25.7656 17.4347 26.0562 16.9074 26.5834C16.0484 27.4432 14.154 30.7373 15.4278 32.0103C15.7128 32.2961 16.1149 32.441 16.6224 32.441C18.0189 32.441 20.0947 31.2907 20.8554 30.5299C21.3835 30.0042 21.674 29.3028 21.674 28.5562C21.674 27.8121 21.3835 27.1107 20.8554 26.5834C20.3282 26.0562 19.6276 25.7656 18.8818 25.7656Z" fill="#C0D0D9"/>
<path d="M34.9932 16.3505C35.0043 16.1874 34.9434 16.0275 34.8278 15.9127C34.7122 15.7972 34.5483 15.7386 34.3892 15.7481C34.0987 15.7663 28.4477 16.1898 24.1458 20.6809C23.0422 20.4419 19.6594 20.0508 17.894 23.6497C17.8172 23.8057 17.8164 23.9877 17.8924 24.1453C17.9677 24.302 18.1102 24.4152 18.2796 24.4532L21.7083 25.2188L25.5304 29.0409L26.296 32.4681C26.334 32.6375 26.4472 32.7808 26.6055 32.8552C26.6823 32.8932 26.7662 32.9122 26.8502 32.9122C26.9364 32.9122 27.0219 32.8932 27.1003 32.8536C30.7143 31.0803 30.3042 27.6761 30.0667 26.5876C34.5507 22.2872 34.9742 16.6411 34.9932 16.3505ZM33.0038 19.8782L30.8615 17.7375C32.0847 17.2958 33.1273 17.0749 33.7701 16.9696C33.6656 17.6132 33.4439 18.6559 33.0038 19.8782ZM23.2702 21.6808C22.7042 22.3846 22.1754 23.1739 21.698 24.0542L19.2771 23.5135C20.4725 21.722 22.2244 21.5763 23.2702 21.6808ZM29.7192 18.1999L32.5399 21.0198C31.4743 23.4114 29.5664 26.187 26.144 28.0506L22.6899 24.5957C24.5519 21.1734 27.3291 19.2654 29.7192 18.1999ZM27.2365 31.4722L26.6926 29.0386C27.5753 28.5596 28.3662 28.0284 29.0708 27.46C29.184 28.501 29.051 30.2649 27.2365 31.4722Z" fill="black"/>
<path d="M21.3642 26.5122C20.6185 26.5122 19.9171 26.8027 19.3898 27.33C18.5309 28.1897 16.6364 31.4839 17.9102 32.7569C18.1952 33.0427 18.5974 33.1875 19.1048 33.1875C20.5013 33.1875 22.5771 32.0372 23.3379 31.2765C23.8659 30.7508 24.1564 30.0494 24.1564 29.3028C24.1564 28.5587 23.8659 27.8572 23.3379 27.33C22.8106 26.8027 22.11 26.5122 21.3642 26.5122ZM22.5359 30.4753C21.9121 31.0983 20.1277 32.0539 19.1048 32.0539C18.918 32.0539 18.7747 32.0175 18.7122 31.9549C18.253 31.4965 19.3019 29.0226 20.1926 28.132C20.5053 27.8192 20.9217 27.6482 21.3642 27.6482C21.8068 27.6482 22.2224 27.82 22.5359 28.132C22.8486 28.4455 23.0204 28.8619 23.0204 29.3028C23.0204 29.7462 22.8486 30.1618 22.5359 30.4753Z" fill="black"/>
<path d="M29.0809 24.9854C29.5251 24.5413 29.7689 23.9507 29.7689 23.3237C29.7681 22.6959 29.5243 22.1046 29.0794 21.6604C28.6352 21.2163 28.0454 20.9717 27.4169 20.9717C26.7899 20.9717 26.1993 21.2163 25.7552 21.6604C25.311 22.1046 25.0664 22.6951 25.0664 23.3237C25.0656 23.9507 25.311 24.5413 25.7544 24.9854C26.1993 25.4296 26.7891 25.675 27.4169 25.675C28.0454 25.675 28.636 25.4296 29.0809 24.9854ZM26.2017 23.3237C26.2017 22.9983 26.3275 22.6928 26.5579 22.4632C26.7891 22.2328 27.0931 22.1061 27.4177 22.1061C27.743 22.1061 28.0486 22.2336 28.2782 22.4632C28.5078 22.6928 28.6352 22.9983 28.6352 23.3237C28.6352 23.6483 28.5078 23.9531 28.2782 24.1819C27.8182 24.6418 27.0179 24.6418 26.5579 24.1827C26.3275 23.9539 26.2017 23.6483 26.2017 23.3237Z" fill="black"/>
</svg>
