<svg width="49" height="48" viewBox="0 0 49 48" fill="none" xmlns="http://www.w3.org/2000/svg">
<path d="M19.4693 18C20.8408 18 21.9379 19.1314 21.9379 20.4686C21.9379 21.5314 20.3265 23.8286 19.4693 24.96C18.5779 23.8286 17.0008 21.5314 17.0008 20.4686C16.9665 19.1314 18.0979 18 19.4693 18Z" fill="#C0D0D9"/>
<path d="M29.4693 27C30.8408 27 31.9379 28.1314 31.9379 29.4686C31.9379 30.5314 30.3265 32.8286 29.4693 33.96C28.5779 32.8286 27.0008 30.5314 27.0008 29.4686C26.9665 28.1314 28.0979 27 29.4693 27Z" fill="#C0D0D9"/>
<path d="M22.1265 19.5828C22.1265 18.7599 21.4408 18.0742 20.6179 18.0742C19.7951 18.0742 19.1094 18.7599 19.1094 19.5828C19.1094 20.4056 19.7951 21.0914 20.6179 21.0914C21.4408 21.0914 22.1265 20.4399 22.1265 19.5828ZM19.7608 19.5828C19.7608 19.1371 20.1379 18.7599 20.5837 18.7599C21.0294 18.7599 21.4065 19.1371 21.4065 19.5828C21.4065 20.0285 21.0294 20.4056 20.5837 20.4056C20.1379 20.4056 19.7608 20.0628 19.7608 19.5828Z" fill="black"/>
<path d="M31.0743 24.6571C29.3258 24.6571 27.9201 26.0628 27.9201 27.8114C27.9201 29.1142 29.5658 31.4457 30.3886 32.5428H20.3086C19.2801 32.5428 18.4572 31.7199 18.4572 30.6914C18.4572 29.6628 19.2801 28.8399 20.3086 28.8399H24.7315C26.1372 28.8399 27.2686 27.7085 27.2686 26.2685C27.2686 24.8628 26.1372 23.7314 24.7315 23.7314H21.3029C22.0572 22.7371 23.4286 20.7485 23.4286 19.6171C23.4286 18.0742 22.1601 16.8057 20.6172 16.8057C19.0743 16.8057 17.7715 18.0399 17.7715 19.5828C17.7715 21.0228 20.0686 23.9028 20.3429 24.2457C20.3772 24.2799 20.3772 24.2799 20.4115 24.3142L20.4458 24.3485C20.4801 24.3828 20.5486 24.3828 20.5829 24.3828H24.7315C25.7601 24.3828 26.5829 25.2057 26.5829 26.2685C26.5829 27.2971 25.7601 28.1199 24.7315 28.1199H20.3086C18.9029 28.1199 17.7715 29.2514 17.7715 30.6571C17.7715 32.0628 18.9029 33.1942 20.3086 33.1942H31.0401C31.0743 33.1942 31.1429 33.1942 31.1772 33.1599C31.1772 33.1599 31.2115 33.1599 31.2115 33.1257C31.2458 33.0914 31.2801 33.0914 31.2801 33.0571C31.6229 32.7485 34.2286 29.4571 34.2286 27.8457C34.2286 26.0971 32.8229 24.6571 31.0743 24.6571ZM20.5829 17.4571C21.7486 17.4571 22.7086 18.4171 22.7086 19.5828C22.7086 20.4742 21.3372 22.4628 20.5829 23.4571C19.7943 22.4285 18.4572 20.4742 18.4572 19.5828C18.4572 18.4171 19.4172 17.4571 20.5829 17.4571ZM31.0743 25.3428C32.4458 25.3428 33.5429 26.4742 33.5429 27.8114C33.5429 28.8742 31.9315 31.1714 31.0743 32.3028C30.1829 31.1714 28.6058 28.8742 28.6058 27.8114C28.5715 26.4742 29.7029 25.3428 31.0743 25.3428Z" fill="black"/>
<path d="M32.7545 27.8455C32.7545 26.9198 32.0002 26.1655 31.0745 26.1655C30.1488 26.1655 29.3945 26.9198 29.3945 27.8455C29.3945 28.7712 30.1488 29.5255 31.0745 29.5255C32.0002 29.5255 32.7545 28.7712 32.7545 27.8455ZM30.046 27.8455C30.046 27.297 30.4917 26.8512 31.0402 26.8512C31.5888 26.8512 32.0345 27.297 32.0345 27.8455C32.0345 28.3941 31.5888 28.8398 31.0402 28.8398C30.4917 28.8398 30.046 28.3941 30.046 27.8455Z" fill="black"/>
</svg>
