<svg width="49" height="48" viewBox="0 0 49 48" fill="none" xmlns="http://www.w3.org/2000/svg">
<g clip-path="url(#clip0)">
<rect x="16" y="21" width="16" height="13" rx="2" fill="#C0D0D9"/>
<path d="M31.5996 24.68C31.5996 24.66 31.5996 24.62 31.5996 24.6C31.5996 24.5 31.6396 24.4 31.7196 24.32C31.7396 24.3 31.7596 24.28 31.7796 24.28C31.7996 24.28 31.8196 24.26 31.8396 24.24C31.8596 24.24 31.8796 24.22 31.9196 24.22C31.9596 24.22 32.0196 24.22 32.0796 24.22C32.0996 24.22 32.1196 24.24 32.1596 24.24C32.1796 24.26 32.1996 24.26 32.2196 24.28C32.2396 24.3 32.2596 24.32 32.2796 24.32C32.2996 24.34 32.3196 24.36 32.3196 24.38C32.3396 24.4 32.3396 24.42 32.3596 24.44C32.3796 24.46 32.3796 24.48 32.3796 24.52C32.3796 24.54 32.3796 24.58 32.3796 24.6C32.3796 24.62 32.3796 24.66 32.3796 24.68C32.3796 24.7 32.3596 24.72 32.3596 24.76C32.3596 24.78 32.3396 24.8 32.3196 24.82C32.2996 24.84 32.2996 24.86 32.2796 24.88C32.2596 24.9 32.2396 24.92 32.2196 24.92C32.1996 24.92 32.1796 24.94 32.1596 24.96C32.1396 24.96 32.1196 24.98 32.0796 24.98C32.0596 24.98 32.0196 24.98 31.9996 24.98C31.8996 24.98 31.7996 24.94 31.7196 24.86C31.6996 24.84 31.6796 24.82 31.6796 24.8C31.6596 24.78 31.6596 24.76 31.6396 24.74C31.6196 24.72 31.6196 24.7 31.5996 24.68ZM29.9996 25C30.0996 25 30.1996 24.96 30.2796 24.88C30.3596 24.8 30.3996 24.7 30.3996 24.6C30.3996 24.5 30.3596 24.4 30.2796 24.32C30.1396 24.18 29.8596 24.18 29.7196 24.32C29.6396 24.4 29.5996 24.5 29.5996 24.6C29.5996 24.7 29.6396 24.8 29.7196 24.88C29.7996 24.96 29.8996 25 29.9996 25ZM27.6396 24.76C27.6396 24.78 27.6596 24.8 27.6796 24.82C27.6996 24.84 27.6996 24.86 27.7196 24.88C27.7996 24.96 27.8996 25 27.9996 25C28.0996 25 28.1996 24.96 28.2796 24.88C28.2996 24.86 28.3196 24.84 28.3196 24.82C28.3396 24.8 28.3396 24.78 28.3596 24.76C28.3796 24.74 28.3796 24.72 28.3796 24.68C28.3796 24.66 28.3796 24.62 28.3796 24.6C28.3796 24.58 28.3796 24.54 28.3796 24.52C28.3796 24.5 28.3596 24.48 28.3596 24.44C28.3596 24.42 28.3396 24.4 28.3196 24.38C28.2996 24.36 28.2996 24.34 28.2796 24.32C28.1396 24.16 27.8596 24.16 27.7196 24.32C27.6996 24.34 27.6796 24.36 27.6796 24.38C27.6596 24.4 27.6596 24.42 27.6396 24.44C27.6196 24.46 27.6196 24.48 27.6196 24.52C27.6196 24.54 27.6196 24.58 27.6196 24.6C27.6196 24.62 27.6196 24.66 27.6196 24.68C27.6196 24.7 27.6196 24.72 27.6396 24.76ZM31.6396 26.76C31.6396 26.78 31.6596 26.8 31.6796 26.82C31.6996 26.84 31.6996 26.86 31.7196 26.88C31.7596 26.92 31.7996 26.94 31.8396 26.96C31.8996 27 31.9396 27 31.9996 27C32.0196 27 32.0596 27 32.0796 27C32.0996 27 32.1396 26.98 32.1596 26.98C32.1796 26.98 32.1996 26.96 32.2196 26.94C32.2396 26.92 32.2596 26.92 32.2796 26.9C32.2996 26.88 32.3196 26.86 32.3196 26.84C32.3396 26.82 32.3396 26.8 32.3596 26.78C32.3796 26.76 32.3796 26.74 32.3796 26.7C32.3796 26.68 32.3796 26.64 32.3796 26.62C32.3796 26.52 32.3396 26.42 32.2596 26.34C32.2396 26.32 32.2196 26.3 32.1996 26.3C32.1796 26.3 32.1596 26.28 32.1396 26.26C32.1196 26.26 32.0996 26.24 32.0596 26.24C31.9196 26.22 31.7996 26.26 31.6996 26.34C31.6796 26.36 31.6596 26.38 31.6596 26.4C31.6396 26.42 31.6396 26.44 31.6196 26.46C31.5996 26.48 31.5996 26.5 31.5996 26.54C31.5996 26.56 31.5996 26.6 31.5996 26.62C31.5996 26.64 31.5996 26.68 31.5996 26.7C31.6196 26.7 31.6196 26.72 31.6396 26.76ZM29.6396 26.76C29.6396 26.78 29.6596 26.8 29.6796 26.82C29.6996 26.84 29.7196 26.86 29.7396 26.88C29.7996 26.96 29.8996 27 29.9996 27C30.0196 27 30.0596 27 30.0796 27C30.0996 27 30.1396 26.98 30.1596 26.98C30.1796 26.98 30.1996 26.96 30.2196 26.94C30.2396 26.92 30.2596 26.92 30.2796 26.9C30.2996 26.88 30.3196 26.86 30.3196 26.84C30.3396 26.82 30.3396 26.8 30.3596 26.78C30.3796 26.76 30.3796 26.74 30.3796 26.7C30.3796 26.68 30.3796 26.64 30.3796 26.62C30.3796 26.52 30.3396 26.42 30.2596 26.34C30.1196 26.18 29.8396 26.18 29.6996 26.34C29.6396 26.4 29.5996 26.5 29.5996 26.6C29.5996 26.62 29.5996 26.66 29.5996 26.68C29.6196 26.7 29.6196 26.72 29.6396 26.76ZM27.9996 27C28.0996 27 28.1996 26.96 28.2796 26.88C28.3596 26.8 28.3996 26.7 28.3996 26.6C28.3996 26.5 28.3596 26.4 28.2796 26.32C28.1396 26.16 27.8596 26.16 27.7196 26.32C27.6396 26.4 27.5996 26.5 27.5996 26.6C27.5996 26.7 27.6396 26.8 27.7196 26.88C27.7996 26.96 27.8996 27 27.9996 27ZM31.7196 28.88C31.7596 28.92 31.7996 28.94 31.8396 28.96C31.8996 29 31.9396 29 31.9996 29C32.0196 29 32.0596 29 32.0796 29C32.0996 29 32.1396 28.98 32.1596 28.98C32.1796 28.98 32.1996 28.96 32.2196 28.94C32.2396 28.92 32.2596 28.92 32.2796 28.9C32.3196 28.86 32.3396 28.82 32.3596 28.78C32.3996 28.7 32.3996 28.66 32.3996 28.6C32.3996 28.5 32.3596 28.4 32.2796 28.32C32.2596 28.3 32.2396 28.28 32.2196 28.28C32.1996 28.28 32.1796 28.26 32.1596 28.24C32.1396 28.24 32.1196 28.22 32.0796 28.22C31.9396 28.2 31.8196 28.24 31.7196 28.32C31.6396 28.4 31.5996 28.5 31.5996 28.6C31.5996 28.66 31.5996 28.7 31.6396 28.76C31.6396 28.8 31.6796 28.84 31.7196 28.88ZM29.7196 28.88C29.7996 28.96 29.8996 29 29.9996 29C30.0196 29 30.0596 29 30.0796 29C30.0996 29 30.1396 28.98 30.1596 28.98C30.1796 28.98 30.1996 28.96 30.2196 28.94C30.2396 28.92 30.2596 28.92 30.2796 28.9C30.3196 28.86 30.3396 28.82 30.3596 28.78C30.3996 28.7 30.3996 28.66 30.3996 28.6C30.3996 28.5 30.3596 28.4 30.2796 28.32C30.2596 28.3 30.2396 28.28 30.2196 28.28C30.1996 28.28 30.1796 28.26 30.1596 28.24C30.1396 28.24 30.1196 28.22 30.0796 28.22C29.9396 28.2 29.8196 28.24 29.7196 28.32C29.6396 28.4 29.5996 28.5 29.5996 28.6C29.5996 28.66 29.5996 28.7 29.6396 28.76C29.6396 28.8 29.6796 28.84 29.7196 28.88ZM27.8396 28.96C27.8996 29 27.9396 29 27.9996 29C28.0196 29 28.0596 29 28.0796 29C28.0996 29 28.1396 28.98 28.1596 28.98C28.1796 28.98 28.1996 28.96 28.2196 28.94C28.2396 28.92 28.2596 28.92 28.2796 28.9C28.3596 28.8 28.3996 28.7 28.3996 28.6C28.3996 28.5 28.3596 28.4 28.2796 28.32C28.1396 28.16 27.8596 28.16 27.7196 28.32C27.6396 28.4 27.5996 28.5 27.5996 28.6C27.5996 28.7 27.6396 28.8 27.7196 28.88C27.7596 28.92 27.7996 28.96 27.8396 28.96ZM31.8396 30.96C31.8996 31 31.9396 31 31.9996 31C32.0196 31 32.0596 31 32.0796 31C32.0996 31 32.1396 30.98 32.1596 30.98C32.1796 30.98 32.1996 30.96 32.2196 30.94C32.2396 30.92 32.2596 30.9 32.2796 30.88C32.3596 30.8 32.3996 30.7 32.3996 30.6C32.3996 30.58 32.3996 30.54 32.3996 30.52C32.3996 30.5 32.3796 30.46 32.3796 30.44C32.3796 30.42 32.3596 30.4 32.3396 30.38C32.3196 30.36 32.3196 30.34 32.2996 30.32C32.2796 30.3 32.2596 30.28 32.2396 30.28C32.2196 30.28 32.1996 30.26 32.1796 30.24C32.1596 30.24 32.1396 30.22 32.0996 30.22C32.0396 30.22 31.9996 30.22 31.9396 30.22C31.9196 30.22 31.8796 30.24 31.8596 30.24C31.8396 30.26 31.8196 30.26 31.7996 30.28C31.7796 30.3 31.7596 30.32 31.7396 30.32C31.7196 30.34 31.6996 30.36 31.6996 30.38C31.6796 30.4 31.6796 30.42 31.6596 30.44C31.6396 30.46 31.6396 30.48 31.6396 30.52C31.6396 30.54 31.6396 30.58 31.6396 30.6C31.6396 30.7 31.6796 30.8 31.7596 30.88C31.7596 30.92 31.7996 30.96 31.8396 30.96ZM29.9996 31C30.0996 31 30.1996 30.96 30.2796 30.88C30.3596 30.8 30.3996 30.7 30.3996 30.6C30.3996 30.58 30.3996 30.54 30.3996 30.52C30.3996 30.5 30.3796 30.46 30.3796 30.44C30.3796 30.42 30.3596 30.4 30.3396 30.38C30.3196 30.36 30.3196 30.34 30.2996 30.32C30.1596 30.16 29.8796 30.16 29.7396 30.32C29.7196 30.34 29.6996 30.36 29.6996 30.38C29.6796 30.4 29.6796 30.42 29.6596 30.44C29.6396 30.46 29.6396 30.48 29.6396 30.52C29.6396 30.54 29.6396 30.58 29.6396 30.6C29.6396 30.7 29.6796 30.8 29.7596 30.88C29.7996 30.96 29.8996 31 29.9996 31ZM27.8396 30.96C27.8996 31 27.9396 31 27.9996 31C28.0596 31 28.0996 31 28.1596 30.96C28.1996 30.94 28.2596 30.92 28.2796 30.88C28.3596 30.8 28.3996 30.7 28.3996 30.6C28.3996 30.58 28.3996 30.54 28.3996 30.52C28.3996 30.5 28.3796 30.46 28.3796 30.44C28.3796 30.42 28.3596 30.4 28.3396 30.38C28.3196 30.36 28.3196 30.34 28.2996 30.32C28.1596 30.16 27.8796 30.16 27.7396 30.32C27.7196 30.34 27.6996 30.36 27.6996 30.38C27.6796 30.4 27.6796 30.42 27.6596 30.44C27.6396 30.46 27.6396 30.48 27.6396 30.52C27.6396 30.54 27.6396 30.58 27.6396 30.6C27.6396 30.7 27.6796 30.8 27.7596 30.88C27.7596 30.92 27.7996 30.96 27.8396 30.96ZM20.5996 30C19.9596 29.36 19.5996 28.5 19.5996 27.6C19.5996 26.7 19.9596 25.84 20.5996 25.2C21.9196 23.88 24.0796 23.88 25.3996 25.2C26.0396 25.84 26.3996 26.7 26.3996 27.6C26.3996 28.5 26.0396 29.36 25.3996 30C24.7596 30.64 23.8996 31 22.9996 31C22.0996 31 21.2396 30.64 20.5996 30ZM20.3996 27.6C20.3996 28.3 20.6596 28.94 21.1596 29.44C21.6596 29.94 22.2996 30.2 22.9996 30.2C23.6996 30.2 24.3396 29.92 24.8396 29.44C25.3396 28.94 25.5996 28.3 25.5996 27.6C25.5996 26.9 25.3396 26.26 24.8396 25.76C24.3396 25.26 23.6596 25 22.9996 25C22.3396 25 21.6596 25.26 21.1596 25.76C20.6596 26.26 20.3996 26.9 20.3996 27.6ZM34.3996 20.2V31.4C34.3996 32.28 33.6796 33 32.7996 33H19.1996C18.3196 33 17.5996 32.28 17.5996 31.4V20.2C17.5996 19.32 18.3196 18.6 19.1996 18.6H19.5996V18.4C19.5996 17.62 20.2196 17 20.9996 17C21.7796 17 22.3996 17.62 22.3996 18.4V18.6H24.5996V18.4C24.5996 17.62 25.2196 17 25.9996 17C26.7796 17 27.3996 17.62 27.3996 18.4V18.6H29.5996V18.4C29.5996 17.62 30.2196 17 30.9996 17C31.7796 17 32.3996 17.62 32.3996 18.4V18.6H32.7996C33.6796 18.6 34.3996 19.32 34.3996 20.2ZM30.3996 19.6C30.3996 19.92 30.6596 20.2 30.9996 20.2C31.3396 20.2 31.5996 19.92 31.5996 19.6V18.4C31.5996 18.06 31.3396 17.8 30.9996 17.8C30.6596 17.8 30.3996 18.06 30.3996 18.4V19.6ZM25.3996 19.6C25.3996 19.92 25.6596 20.2 25.9996 20.2C26.3396 20.2 26.5996 19.92 26.5996 19.6V18.4C26.5996 18.06 26.3396 17.8 25.9996 17.8C25.6596 17.8 25.3996 18.06 25.3996 18.4V19.6ZM20.3996 19.6C20.3996 19.92 20.6596 20.2 20.9996 20.2C21.3396 20.2 21.5996 19.92 21.5996 19.6V18.4C21.5996 18.06 21.3396 17.8 20.9996 17.8C20.6596 17.8 20.3996 18.06 20.3996 18.4V19.6ZM33.5996 23H18.3996V31.4C18.3996 31.84 18.7596 32.2 19.1996 32.2H32.7996C33.2396 32.2 33.5996 31.84 33.5996 31.4V23ZM33.5996 20.2C33.5996 19.76 33.2396 19.4 32.7996 19.4H32.3996V19.6C32.3996 20.38 31.7796 21 30.9996 21C30.2196 21 29.5996 20.38 29.5996 19.6V19.4H27.3996V19.6C27.3996 20.38 26.7796 21 25.9996 21C25.2196 21 24.5996 20.38 24.5996 19.6V19.4H22.3996V19.6C22.3996 20.38 21.7796 21 20.9996 21C20.2196 21 19.5996 20.38 19.5996 19.6V19.4H19.1996C18.7596 19.4 18.3996 19.76 18.3996 20.2V22.2H33.5996V20.2ZM22.6196 27.72C22.6196 27.74 22.6196 27.74 22.6396 27.76C22.6396 27.78 22.6596 27.78 22.6596 27.8C22.6596 27.8 22.6596 27.82 22.6796 27.84C22.6996 27.86 22.6996 27.88 22.7196 27.9L23.4196 28.6C23.4996 28.68 23.5996 28.72 23.6996 28.72C23.7996 28.72 23.8996 28.68 23.9796 28.6C24.1396 28.44 24.1396 28.18 23.9796 28.04L23.3796 27.44V26.6C23.3796 26.38 23.1996 26.2 22.9796 26.2C22.7596 26.2 22.5796 26.38 22.5796 26.6V27.6C22.5796 27.62 22.5796 27.66 22.5796 27.68C22.5996 27.7 22.6196 27.7 22.6196 27.72Z" fill="black"/>
</g>
<defs>
<clipPath id="clip0">
<rect width="48.2275" height="48" fill="white"/>
</clipPath>
</defs>
</svg>
