<svg width="56" height="56" viewBox="0 0 56 56" fill="none" xmlns="http://www.w3.org/2000/svg">
<g filter="url(#filter0_d)">
<rect x="52" y="48" width="48" height="48" transform="rotate(-180 52 48)" fill="#BCD5E4"/>
</g>
<path d="M29.6001 29.9978L29.6002 29.9978C29.6704 29.8624 29.7483 29.7365 29.8189 29.6261L29.8262 29.6147L29.8263 29.6148C29.909 29.4929 29.9805 29.3901 30.053 29.2904L30.059 29.2822L30.0654 29.2742L30.1423 29.177L30.1511 29.1652L30.1558 29.1589L30.1607 29.1528C30.1656 29.1467 30.1707 29.1403 30.176 29.1337C30.2198 29.0788 30.2739 29.011 30.3329 28.9471L30.7003 29.2862L30.3329 28.9471L30.4352 28.8363L30.4362 28.8352L30.4455 28.8251C30.495 28.7717 30.5554 28.7066 30.6223 28.6447L30.7092 28.5619L30.7101 28.561C30.7997 28.4761 30.8705 28.415 30.9431 28.3579C30.9461 28.3555 30.9506 28.3517 30.9564 28.3469C30.9823 28.3256 31.0327 28.2839 31.0777 28.2512C31.1338 28.2072 31.1992 28.1559 31.2662 28.108L31.2674 28.1072L31.3995 28.0134L31.4055 28.0092L31.4116 28.0051C31.4656 27.9691 31.5231 27.9336 31.573 27.9027C31.589 27.8928 31.6043 27.8834 31.6184 27.8746C31.679 27.8361 31.7377 27.8041 31.7817 27.7801L31.7834 27.7792C31.8613 27.7355 31.9376 27.6973 32.0025 27.6649L32.0065 27.6629L32.0078 27.6622C31.2155 26.6362 30.1654 25.7887 29.0062 25.243C27.9674 25.8479 26.7891 26.1641 25.5866 26.1641C24.3849 26.1641 23.2025 25.8483 22.1663 25.2428C19.5848 26.4491 17.798 28.9924 17.5332 31.8246H29.0086C29.0115 31.8052 29.0146 31.7857 29.018 31.7662L29.018 31.7661L29.018 31.7658L29.0181 31.7654L29.0181 31.7651L29.0182 31.7648L29.0182 31.7645L29.0183 31.7641L29.0183 31.7638L29.0184 31.7635L29.0184 31.7632L29.0185 31.7628L29.0185 31.7625L29.0186 31.7622L29.0186 31.7619L29.0187 31.7615L29.0187 31.7612L29.0188 31.7609L29.0188 31.7606L29.0189 31.7602L29.0189 31.7599L29.019 31.7596L29.019 31.7593L29.0191 31.7589L29.0191 31.7586L29.0192 31.7583L29.0192 31.758L29.0193 31.7576L29.0193 31.7573L29.0194 31.757L29.0194 31.7567L29.0195 31.7563L29.0195 31.756L29.0196 31.7557L29.0196 31.7554L29.0197 31.755L29.0197 31.7547L29.0198 31.7544L29.0198 31.7541L29.0199 31.7537L29.0199 31.7534L29.02 31.7531L29.02 31.7528L29.0201 31.7524L29.0201 31.7521L29.0202 31.7518L29.0202 31.7515L29.0203 31.7511L29.0203 31.7508L29.0204 31.7505L29.0204 31.7502L29.0205 31.7498L29.0205 31.7495L29.0206 31.7492L29.0206 31.7489L29.0207 31.7485L29.0207 31.7482L29.0208 31.7479L29.0208 31.7476L29.0209 31.7472L29.0209 31.7469L29.021 31.7466L29.021 31.7463L29.0211 31.746L29.0211 31.7456L29.0212 31.7453L29.0212 31.745L29.0213 31.7447L29.0213 31.7443L29.0214 31.744L29.0214 31.7437L29.0215 31.7434L29.0215 31.743L29.0216 31.7427L29.0216 31.7424L29.0217 31.7421L29.0217 31.7417L29.0218 31.7414L29.0218 31.7411L29.0219 31.7408L29.0219 31.7404L29.022 31.7401L29.022 31.7398L29.0221 31.7395L29.0221 31.7391L29.0222 31.7388L29.0222 31.7385L29.0223 31.7382L29.0223 31.7378L29.0224 31.7375L29.0224 31.7372L29.0225 31.7369L29.0225 31.7365L29.0226 31.7362L29.0226 31.7359L29.0227 31.7356L29.0227 31.7352L29.0228 31.7349L29.0228 31.7346L29.0229 31.7343L29.0229 31.7339L29.023 31.7336L29.023 31.7333L29.0231 31.733L29.0231 31.7326L29.0232 31.7323L29.0232 31.732L29.0233 31.7317L29.0233 31.7313L29.0234 31.731L29.0234 31.7307L29.0235 31.7304L29.0235 31.73L29.0236 31.7297L29.0236 31.7294L29.0237 31.7291L29.0237 31.7287L29.0238 31.7284L29.0238 31.7281L29.0239 31.7278L29.0239 31.7274L29.024 31.7271L29.024 31.7268L29.0241 31.7265L29.0241 31.7262L29.0242 31.7258L29.0242 31.7255L29.0243 31.7252L29.0243 31.7249L29.0244 31.7245L29.0244 31.7242L29.0245 31.7239L29.0245 31.7236L29.0246 31.7232L29.0246 31.7229L29.0247 31.7226L29.0247 31.7223L29.0248 31.7219L29.0248 31.7216L29.0249 31.7213L29.0249 31.721L29.025 31.7206L29.025 31.7203L29.0251 31.72L29.0251 31.7197L29.0252 31.7193L29.0252 31.719L29.0253 31.7187L29.0253 31.7184L29.0254 31.718L29.0254 31.7177L29.0255 31.7174L29.0255 31.7171L29.0256 31.7167L29.0256 31.7164L29.0257 31.7161L29.0257 31.7158L29.0258 31.7154L29.0258 31.7151L29.0259 31.7148L29.0259 31.7145L29.026 31.7141L29.026 31.7138L29.0261 31.7135L29.0261 31.7132L29.0262 31.7128L29.0262 31.7125L29.0263 31.7122L29.0263 31.7119L29.0264 31.7115L29.0264 31.7112L29.0265 31.7109L29.0265 31.7106L29.0266 31.7102L29.0266 31.7099L29.0267 31.7096L29.0267 31.7093L29.0268 31.7089L29.0268 31.7086L29.0269 31.7083L29.0269 31.708L29.027 31.7076L29.027 31.7073L29.0271 31.707L29.0271 31.7067L29.0272 31.7064L29.0272 31.706L29.0273 31.7057L29.0273 31.7054L29.0274 31.7051L29.0274 31.7047L29.0275 31.7044L29.0275 31.7041L29.0276 31.7038L29.0276 31.7034L29.0277 31.7031L29.0277 31.7028L29.0278 31.7025L29.0278 31.7021L29.0279 31.7018L29.0279 31.7015L29.028 31.7012L29.028 31.7008L29.0281 31.7005L29.0281 31.7002L29.0282 31.6999L29.0282 31.6995L29.0283 31.6992L29.0283 31.6989L29.0284 31.6986L29.0284 31.6982L29.0285 31.6979L29.0285 31.6976L29.0286 31.6973L29.0286 31.6969L29.0287 31.6966L29.0287 31.6963L29.0288 31.696L29.0288 31.6956L29.0289 31.6953L29.0289 31.695L29.029 31.6947L29.029 31.6943L29.0291 31.694L29.0291 31.6937L29.0292 31.6934L29.0292 31.693L29.0293 31.6927L29.0293 31.6924L29.0294 31.6921L29.0294 31.6917L29.0295 31.6914L29.0295 31.6911L29.0296 31.6908L29.0296 31.6904L29.0297 31.6901L29.0297 31.6898L29.0298 31.6895L29.0298 31.6891L29.0299 31.6888L29.0299 31.6885L29.03 31.6882L29.03 31.6878L29.0301 31.6875L29.0301 31.6872L29.0302 31.6869L29.0302 31.6866L29.0303 31.6862L29.0303 31.6859L29.0304 31.6856L29.0304 31.6853L29.0305 31.6849L29.0305 31.6846L29.0306 31.6843L29.0306 31.684L29.0307 31.6836L29.0307 31.6833L29.0308 31.683L29.0308 31.6827L29.0309 31.6823L29.0309 31.682L29.031 31.6817L29.031 31.6814L29.0311 31.681L29.0311 31.6807L29.0312 31.6804L29.0312 31.6801L29.0313 31.6797L29.0313 31.6794L29.0314 31.6791L29.0314 31.6788L29.0315 31.6784L29.0315 31.6781L29.0316 31.6778L29.0316 31.6775L29.0317 31.6771L29.0317 31.6768L29.0318 31.6765L29.0318 31.6762L29.0319 31.6758L29.0319 31.6755L29.032 31.6752L29.032 31.6749L29.0321 31.6745L29.0321 31.6742L29.0322 31.6739L29.0322 31.6736L29.0323 31.6732L29.0323 31.6729L29.0324 31.6726L29.0324 31.6723L29.0325 31.6719L29.0325 31.6716L29.0326 31.6713L29.0326 31.671L29.0327 31.6706L29.0327 31.6703L29.0328 31.67L29.0328 31.6697L29.0329 31.6693L29.0329 31.669L29.033 31.6687L29.033 31.6684L29.0331 31.668L29.0331 31.6677L29.0332 31.6674L29.0332 31.6671L29.0333 31.6667L29.0333 31.6664L29.0334 31.6661L29.0334 31.6658L29.0335 31.6655L29.0335 31.6651L29.0336 31.6648L29.0336 31.6645L29.0337 31.6642L29.0337 31.6638L29.0338 31.6635L29.0338 31.6632L29.0339 31.6629L29.0339 31.6625L29.034 31.6622L29.034 31.6619L29.0341 31.6616L29.0341 31.6612L29.0342 31.6609L29.0342 31.6606L29.0343 31.6603L29.0343 31.6599L29.0344 31.6596L29.0344 31.6593L29.0345 31.659L29.0345 31.6586L29.0346 31.6583L29.0346 31.658L29.0347 31.6577L29.0347 31.6573L29.0348 31.657L29.0348 31.6567L29.0349 31.6564L29.0349 31.656L29.035 31.6557L29.035 31.6554L29.0351 31.6551L29.0351 31.6547L29.0352 31.6544L29.0352 31.6541L29.0353 31.6538L29.0353 31.6534L29.0354 31.6531L29.0354 31.6528L29.0355 31.6525L29.0355 31.6521L29.0356 31.6518L29.0356 31.6515L29.0357 31.6512L29.0357 31.6508L29.0358 31.6505L29.0358 31.6502L29.0359 31.6499L29.0359 31.6495L29.036 31.6492L29.036 31.6489L29.0361 31.6486L29.0361 31.6482L29.0362 31.6479L29.0362 31.6476L29.0363 31.6473L29.0363 31.6469L29.0364 31.6466L29.0364 31.6463L29.0365 31.646L29.0365 31.6457L29.0366 31.6453L29.0366 31.645L29.0367 31.6447L29.0367 31.6444L29.0368 31.644L29.0368 31.6437L29.0369 31.6434L29.0369 31.6431L29.037 31.6427L29.037 31.6424L29.0371 31.6421L29.0371 31.6418L29.0372 31.6414L29.0372 31.6411L29.0373 31.6408L29.0373 31.6405L29.0374 31.6401L29.0374 31.6398L29.0375 31.6395L29.0375 31.6392L29.0376 31.6388L29.0376 31.6385L29.0377 31.6382L29.0377 31.6379L29.0378 31.6375L29.0378 31.6372L29.0379 31.6369L29.0379 31.6366L29.038 31.6362L29.038 31.6359L29.0381 31.6356L29.0381 31.6353L29.0382 31.6349L29.0382 31.6346L29.0383 31.6343L29.0383 31.634L29.0384 31.6336L29.0384 31.6333L29.0385 31.633L29.0385 31.6327L29.0386 31.6323L29.0386 31.632L29.0387 31.6317L29.0387 31.6314L29.0388 31.631L29.0388 31.6307L29.0389 31.6304L29.0389 31.6301L29.039 31.6297L29.039 31.6294L29.0391 31.6291L29.0391 31.6288L29.0392 31.6284L29.0392 31.6281L29.0393 31.6278L29.0393 31.6275L29.0394 31.6271L29.0394 31.6268L29.0395 31.6265L29.0395 31.6262L29.0396 31.6259L29.0396 31.6255L29.0396 31.6252L29.0397 31.6249L29.0398 31.6246L29.0398 31.6242L29.0399 31.6239L29.0399 31.6236L29.04 31.6233L29.04 31.6229L29.04 31.6226L29.0401 31.6223L29.0401 31.622L29.0402 31.6216L29.0402 31.6213L29.0403 31.621L29.0403 31.6207L29.0404 31.6203L29.0404 31.62L29.0405 31.6197L29.0405 31.6194L29.0406 31.619L29.0406 31.6187L29.0407 31.6184L29.0407 31.6181L29.0408 31.6177L29.0408 31.6174L29.0409 31.6171L29.0409 31.6168L29.041 31.6164L29.041 31.6161L29.0411 31.6158L29.0411 31.6155L29.0412 31.6151L29.0412 31.6148L29.0413 31.6145L29.0413 31.6142L29.0414 31.6138L29.0414 31.6135L29.0415 31.6132L29.0415 31.6129L29.0416 31.6125L29.0416 31.6122L29.0417 31.6119L29.0417 31.6116L29.0418 31.6112L29.0418 31.6109L29.0419 31.6106L29.0419 31.6103L29.042 31.6099L29.042 31.6096L29.0421 31.6093L29.0421 31.609L29.0422 31.6086L29.0422 31.6083L29.0423 31.608L29.0423 31.6077L29.0424 31.6073L29.0424 31.607L29.0425 31.6067L29.0425 31.6064L29.0426 31.6061L29.0426 31.6057L29.0427 31.6054L29.0427 31.6051L29.0444 31.5942L29.0445 31.5942C29.0598 31.5079 29.0793 31.4205 29.0971 31.345L29.0971 31.345C29.0993 31.3355 29.1021 31.3229 29.1054 31.3082C29.1153 31.2638 29.1292 31.2012 29.1428 31.1555C29.1641 31.083 29.1843 31.0143 29.2043 30.9422L29.2077 30.9299L29.2117 30.9179C29.2226 30.8854 29.2296 30.8625 29.2357 30.8423C29.2365 30.8396 29.2374 30.8366 29.2384 30.8334C29.2437 30.8158 29.2508 30.7923 29.2586 30.7687C29.2586 30.7687 29.2586 30.7687 29.2586 30.7687L29.6001 29.9978ZM29.6001 29.9978L29.5968 30.0044M29.6001 29.9978L29.5968 30.0044M29.5968 30.0044L29.5523 30.0935L29.5509 30.0961C29.5137 30.1667 29.467 30.2555 29.4265 30.3485C29.41 30.3808 29.3988 30.4086 29.3917 30.4266L29.3817 30.4525C29.3802 30.4564 29.3796 30.4578 29.3796 30.4578L29.3744 30.4701M29.5968 30.0044L29.3744 30.4701M29.3744 30.4701L29.3696 30.4832M29.3744 30.4701L29.3696 30.4832M29.3696 30.4832L29.3583 30.5142L29.3696 30.4832Z" stroke="#2A2A2A"/>
<path d="M30.9023 18.8125C30.9023 21.7465 28.5239 24.125 25.5898 24.125C22.6558 24.125 20.2773 21.7465 20.2773 18.8125C20.2773 15.8785 22.6558 13.5 25.5898 13.5C28.5239 13.5 30.9023 15.8785 30.9023 18.8125Z" stroke="#2A2A2A"/>
<path fill-rule="evenodd" clip-rule="evenodd" d="M34.625 37C36.9032 37 38.75 35.1532 38.75 32.875C38.75 30.5968 36.9032 28.75 34.625 28.75C32.3468 28.75 30.5 30.5968 30.5 32.875C30.5 35.1532 32.3468 37 34.625 37ZM34.9338 33.1618H36.5V32.5956H34.9338V31H34.3088V32.5956H32.75V33.1618H34.3088V34.75H34.9338V33.1618Z" fill="#2A2A2A"/>
<defs>
<filter id="filter0_d" x="0" y="0" width="56" height="56" filterUnits="userSpaceOnUse" color-interpolation-filters="sRGB">
<feFlood flood-opacity="0" result="BackgroundImageFix"/>
<feColorMatrix in="SourceAlpha" type="matrix" values="0 0 0 0 0 0 0 0 0 0 0 0 0 0 0 0 0 0 127 0"/>
<feOffset dy="4"/>
<feGaussianBlur stdDeviation="2"/>
<feColorMatrix type="matrix" values="0 0 0 0 0 0 0 0 0 0 0 0 0 0 0 0 0 0 0.25 0"/>
<feBlend mode="normal" in2="BackgroundImageFix" result="effect1_dropShadow"/>
<feBlend mode="normal" in="SourceGraphic" in2="effect1_dropShadow" result="shape"/>
</filter>
</defs>
</svg>
