<svg width="31" height="27" viewBox="0 0 31 27" fill="none" xmlns="http://www.w3.org/2000/svg">
<path d="M30.7242 24.0485L17.1247 0.942263C16.7866 0.360277 16.1644 0 15.5017 0C14.839 0 14.2168 0.360277 13.8719 0.942263L0.272417 24.0485C-0.0792363 24.6513 -0.0927614 25.3995 0.245366 26.0092C0.583494 26.6189 1.21241 27 1.90219 27H29.1012C29.7842 27 30.4199 26.6189 30.758 26.0092C31.0894 25.3995 31.0826 24.6513 30.7242 24.0485Z" fill="#EE6070"/>
<path d="M16.9149 21.0003C16.9149 21.7694 16.2792 22.4414 15.5286 22.4414C14.7238 22.4414 14.122 21.7694 14.122 21.0003C14.122 20.2174 14.7238 19.5592 15.5286 19.5592C16.2792 19.5592 16.9149 20.2105 16.9149 21.0003ZM16.57 17.453C16.57 18.035 15.9479 18.2775 15.5151 18.2775C14.9335 18.2775 14.4398 18.035 14.4398 17.453C14.4398 15.229 14.1828 12.035 14.1828 9.8179C14.1828 9.09042 14.7644 8.68164 15.5151 8.68164C16.2251 8.68164 16.827 9.09042 16.827 9.8179C16.827 12.035 16.57 15.229 16.57 17.453Z" fill="white"/>
</svg>
