<svg width="20" height="22" viewBox="0 0 20 22" fill="none" xmlns="http://www.w3.org/2000/svg">
<path d="M17.6533 14.8765H17.5777C17.5221 14.8772 17.4669 14.8667 17.4154 14.8458C17.3638 14.8249 17.3169 14.7939 17.2773 14.7546C17.2378 14.7154 17.2064 14.6687 17.185 14.6172C17.1636 14.5657 17.1525 14.5104 17.1525 14.4546V9.8608C17.1509 8.07304 16.4879 6.34954 15.2921 5.02432C14.0963 3.69911 12.4528 2.86656 10.6801 2.68802V0.711116C10.6801 0.522516 10.6055 0.341641 10.4726 0.208281C10.3397 0.0749213 10.1594 0 9.97149 0C9.78354 0 9.60329 0.0749213 9.47039 0.208281C9.33749 0.341641 9.26283 0.522516 9.26283 0.711116V2.68802C7.49016 2.86656 5.84666 3.69911 4.65085 5.02432C3.45503 6.34954 2.79207 8.07304 2.79044 9.8608V14.4546C2.79045 14.5104 2.77942 14.5657 2.75799 14.6172C2.73657 14.6687 2.70517 14.7154 2.66563 14.7546C2.62608 14.7939 2.57917 14.8249 2.52761 14.8458C2.47605 14.8667 2.42086 14.8772 2.36525 14.8765C1.77034 14.8641 1.19342 15.0815 0.753763 15.4839C0.314108 15.8862 0.0453518 16.4427 0.00306522 17.0383C-0.0129538 17.3478 0.0339359 17.6574 0.140882 17.9481C0.247827 18.2389 0.412594 18.5047 0.62516 18.7296C0.837726 18.9544 1.09365 19.1335 1.37736 19.2559C1.66107 19.3784 1.96664 19.4417 2.27549 19.4419H6.79671C6.95545 20.167 7.35628 20.8159 7.93281 21.2811C8.50933 21.7464 9.22695 22 9.96676 22C10.7066 22 11.4242 21.7464 12.0007 21.2811C12.5772 20.8159 12.9781 20.167 13.1368 19.4419H17.7242C18.0333 19.4409 18.339 19.3774 18.6231 19.2552C18.9072 19.1331 19.1638 18.9547 19.3777 18.7308C19.5901 18.5057 19.7545 18.2395 19.8609 17.9485C19.9673 17.6575 20.0135 17.3478 19.9966 17.0383C19.9545 16.4461 19.6884 15.8923 19.2528 15.4905C18.8172 15.0886 18.245 14.869 17.6533 14.8765ZM9.98566 20.5655C9.6243 20.5656 9.27096 20.4586 8.97004 20.2578C8.66912 20.0571 8.43403 19.7716 8.29433 19.4372H11.677C11.538 19.7725 11.3032 20.059 11.0023 20.2606C10.7013 20.4622 10.3476 20.57 9.98566 20.5702V20.5655ZM18.3667 17.721C18.2868 17.8066 18.1902 17.8748 18.0829 17.9213C17.9756 17.9678 17.8599 17.9916 17.7431 17.9912H2.29439C2.17758 17.9914 2.06197 17.9676 1.95468 17.9213C1.8474 17.875 1.75071 17.807 1.67059 17.7218C1.59047 17.6365 1.5286 17.5356 1.48882 17.4254C1.44904 17.3152 1.43218 17.198 1.43927 17.081C1.46642 16.8514 1.57872 16.6406 1.75381 16.4903C1.9289 16.3401 2.15395 16.2616 2.38415 16.2703C2.87199 16.2703 3.33993 16.0762 3.68533 15.7305C4.03073 15.3848 4.2254 14.9157 4.22665 14.4262V9.8608C4.22665 8.32686 4.8339 6.85574 5.91481 5.77108C6.99572 4.68642 8.46175 4.07706 9.99038 4.07706C11.519 4.07706 12.985 4.68642 14.066 5.77108C15.1469 6.85574 15.7541 8.32686 15.7541 9.8608V14.4546C15.7553 14.9409 15.9474 15.4071 16.2887 15.7523C16.6301 16.0974 17.0932 16.2938 17.5777 16.2988H17.6391C17.8693 16.29 18.0944 16.3686 18.2695 16.5188C18.4446 16.669 18.5569 16.8799 18.584 17.1094C18.5931 17.2253 18.5786 17.3419 18.5412 17.452C18.5038 17.562 18.4445 17.6632 18.3667 17.7494V17.721Z" fill="black"/>
</svg>
