<svg width="20" height="20" viewBox="0 0 20 20" fill="none" xmlns="http://www.w3.org/2000/svg">
<path d="M17.9133 20H2.08667C0.936667 20 0 19.0642 0 17.9133V3.75417C0 2.60333 0.936667 1.66667 2.0875 1.66667H17.9125C19.0633 1.66667 20 2.60333 20 3.75417V17.9133C20 19.0642 19.0642 20 17.9133 20ZM2.0875 3.33333C1.85583 3.33333 1.66667 3.5225 1.66667 3.75417V17.9133C1.66667 18.145 1.855 18.3333 2.08667 18.3333H17.9133C18.145 18.3333 18.3333 18.145 18.3333 17.9133V3.75417C18.3333 3.5225 18.1442 3.33333 17.9125 3.33333H2.0875ZM19.1667 6.66667H0.833333C0.373333 6.66667 0 6.29333 0 5.83333C0 5.37333 0.373333 5 0.833333 5H19.1667C19.6275 5 20 5.37333 20 5.83333C20 6.29333 19.6275 6.66667 19.1667 6.66667ZM4.16667 4.16667C3.70667 4.16667 3.33333 3.79333 3.33333 3.33333V0.833333C3.33333 0.373333 3.70667 0 4.16667 0C4.62667 0 5 0.373333 5 0.833333V3.33333C5 3.79333 4.62667 4.16667 4.16667 4.16667ZM15.8333 4.16667C15.3725 4.16667 15 3.79333 15 3.33333V0.833333C15 0.373333 15.3725 0 15.8333 0C16.2942 0 16.6667 0.373333 16.6667 0.833333V3.33333C16.6667 3.79333 16.2942 4.16667 15.8333 4.16667Z" fill="#2A2A2A"/>
<path d="M5.0002 16.6667C5.46044 16.6667 5.83354 16.2936 5.83354 15.8333C5.83354 15.3731 5.46044 15 5.0002 15C4.53997 15 4.16687 15.3731 4.16687 15.8333C4.16687 16.2936 4.53997 16.6667 5.0002 16.6667Z" fill="#2A2A2A"/>
<path d="M5.0002 13.3337C5.46044 13.3337 5.83354 12.9606 5.83354 12.5003C5.83354 12.0401 5.46044 11.667 5.0002 11.667C4.53997 11.667 4.16687 12.0401 4.16687 12.5003C4.16687 12.9606 4.53997 13.3337 5.0002 13.3337Z" fill="#2A2A2A"/>
<path d="M7.5002 16.6667C7.96044 16.6667 8.33354 16.2936 8.33354 15.8333C8.33354 15.3731 7.96044 15 7.5002 15C7.03997 15 6.66687 15.3731 6.66687 15.8333C6.66687 16.2936 7.03997 16.6667 7.5002 16.6667Z" fill="#2A2A2A"/>
<path d="M7.5002 13.3337C7.96044 13.3337 8.33354 12.9606 8.33354 12.5003C8.33354 12.0401 7.96044 11.667 7.5002 11.667C7.03997 11.667 6.66687 12.0401 6.66687 12.5003C6.66687 12.9606 7.03997 13.3337 7.5002 13.3337Z" fill="#2A2A2A"/>
<path d="M7.5002 9.99967C7.96044 9.99967 8.33354 9.62658 8.33354 9.16634C8.33354 8.7061 7.96044 8.33301 7.5002 8.33301C7.03997 8.33301 6.66687 8.7061 6.66687 9.16634C6.66687 9.62658 7.03997 9.99967 7.5002 9.99967Z" fill="#2A2A2A"/>
<path d="M12.5002 16.6667C12.9604 16.6667 13.3335 16.2936 13.3335 15.8333C13.3335 15.3731 12.9604 15 12.5002 15C12.04 15 11.6669 15.3731 11.6669 15.8333C11.6669 16.2936 12.04 16.6667 12.5002 16.6667Z" fill="#2A2A2A"/>
<path d="M12.5002 13.3337C12.9604 13.3337 13.3335 12.9606 13.3335 12.5003C13.3335 12.0401 12.9604 11.667 12.5002 11.667C12.04 11.667 11.6669 12.0401 11.6669 12.5003C11.6669 12.9606 12.04 13.3337 12.5002 13.3337Z" fill="#2A2A2A"/>
<path d="M12.5002 9.99967C12.9604 9.99967 13.3335 9.62658 13.3335 9.16634C13.3335 8.7061 12.9604 8.33301 12.5002 8.33301C12.04 8.33301 11.6669 8.7061 11.6669 9.16634C11.6669 9.62658 12.04 9.99967 12.5002 9.99967Z" fill="#2A2A2A"/>
<path d="M15.0002 13.3337C15.4604 13.3337 15.8335 12.9606 15.8335 12.5003C15.8335 12.0401 15.4604 11.667 15.0002 11.667C14.54 11.667 14.1669 12.0401 14.1669 12.5003C14.1669 12.9606 14.54 13.3337 15.0002 13.3337Z" fill="#2A2A2A"/>
<path d="M15.0002 9.99967C15.4604 9.99967 15.8335 9.62658 15.8335 9.16634C15.8335 8.7061 15.4604 8.33301 15.0002 8.33301C14.54 8.33301 14.1669 8.7061 14.1669 9.16634C14.1669 9.62658 14.54 9.99967 15.0002 9.99967Z" fill="#2A2A2A"/>
<path d="M10.0002 16.6667C10.4604 16.6667 10.8335 16.2936 10.8335 15.8333C10.8335 15.3731 10.4604 15 10.0002 15C9.53997 15 9.16687 15.3731 9.16687 15.8333C9.16687 16.2936 9.53997 16.6667 10.0002 16.6667Z" fill="#2A2A2A"/>
<path d="M10.0002 13.3337C10.4604 13.3337 10.8335 12.9606 10.8335 12.5003C10.8335 12.0401 10.4604 11.667 10.0002 11.667C9.53997 11.667 9.16687 12.0401 9.16687 12.5003C9.16687 12.9606 9.53997 13.3337 10.0002 13.3337Z" fill="#2A2A2A"/>
<path d="M10.0002 9.99967C10.4604 9.99967 10.8335 9.62658 10.8335 9.16634C10.8335 8.7061 10.4604 8.33301 10.0002 8.33301C9.53997 8.33301 9.16687 8.7061 9.16687 9.16634C9.16687 9.62658 9.53997 9.99967 10.0002 9.99967Z" fill="#2A2A2A"/>
</svg>
