<svg width="108" height="27" viewBox="0 0 108 27" fill="none" xmlns="http://www.w3.org/2000/svg">
<rect width="108" height="27" rx="13.5" fill="#AA00FF"/>
<path d="M49.24 9.43325L46.558 18.0312H45.514L43.336 11.4732C43.316 11.4092 43.296 11.3412 43.276 11.2692C43.26 11.1972 43.242 11.1212 43.222 11.0412C43.202 11.1212 43.182 11.1972 43.162 11.2692C43.142 11.3412 43.122 11.4092 43.102 11.4732L40.912 18.0312H39.868L37.186 9.43325H38.152C38.256 9.43325 38.342 9.45925 38.41 9.51125C38.482 9.56325 38.528 9.62925 38.548 9.70925L40.324 15.6852C40.352 15.7932 40.378 15.9092 40.402 16.0332C40.43 16.1572 40.456 16.2892 40.48 16.4292C40.508 16.2892 40.536 16.1572 40.564 16.0332C40.596 15.9052 40.63 15.7892 40.666 15.6852L42.688 9.70925C42.712 9.64125 42.758 9.57925 42.826 9.52325C42.898 9.46325 42.984 9.43325 43.084 9.43325H43.42C43.524 9.43325 43.608 9.45925 43.672 9.51125C43.736 9.56325 43.784 9.62925 43.816 9.70925L45.832 15.6852C45.868 15.7892 45.9 15.9012 45.928 16.0212C45.96 16.1412 45.99 16.2672 46.018 16.3992C46.038 16.2672 46.06 16.1412 46.084 16.0212C46.108 15.9012 46.134 15.7892 46.162 15.6852L47.944 9.70925C47.964 9.63725 48.008 9.57325 48.076 9.51725C48.148 9.46125 48.234 9.43325 48.334 9.43325H49.24ZM51.349 11.9532V18.0312H50.281V11.9532H51.349ZM51.577 10.0452C51.577 10.1492 51.555 10.2472 51.511 10.3392C51.471 10.4272 51.415 10.5072 51.343 10.5792C51.275 10.6472 51.193 10.7012 51.097 10.7412C51.005 10.7812 50.907 10.8012 50.803 10.8012C50.699 10.8012 50.601 10.7812 50.509 10.7412C50.421 10.7012 50.343 10.6472 50.275 10.5792C50.207 10.5072 50.153 10.4272 50.113 10.3392C50.073 10.2472 50.053 10.1492 50.053 10.0452C50.053 9.94125 50.073 9.84325 50.113 9.75125C50.153 9.65525 50.207 9.57325 50.275 9.50525C50.343 9.43325 50.421 9.37725 50.509 9.33725C50.601 9.29725 50.699 9.27725 50.803 9.27725C50.907 9.27725 51.005 9.29725 51.097 9.33725C51.193 9.37725 51.275 9.43325 51.343 9.50525C51.415 9.57325 51.471 9.65525 51.511 9.75125C51.555 9.84325 51.577 9.94125 51.577 10.0452ZM54.9698 18.1273C54.4898 18.1273 54.1198 17.9932 53.8598 17.7252C53.6038 17.4572 53.4758 17.0712 53.4758 16.5672V12.8472H52.7438C52.6798 12.8472 52.6258 12.8292 52.5818 12.7932C52.5378 12.7532 52.5158 12.6932 52.5158 12.6132V12.1872L53.5118 12.0612L53.7578 10.1832C53.7698 10.1232 53.7958 10.0752 53.8358 10.0392C53.8798 9.99925 53.9358 9.97925 54.0038 9.97925H54.5438V12.0732H56.3018V12.8472H54.5438V16.4952C54.5438 16.7512 54.6058 16.9412 54.7298 17.0652C54.8538 17.1892 55.0138 17.2512 55.2098 17.2512C55.3218 17.2512 55.4178 17.2372 55.4978 17.2092C55.5818 17.1772 55.6538 17.1432 55.7138 17.1072C55.7738 17.0712 55.8238 17.0392 55.8638 17.0112C55.9078 16.9792 55.9458 16.9632 55.9778 16.9632C56.0338 16.9632 56.0838 16.9972 56.1278 17.0652L56.4398 17.5752C56.2558 17.7472 56.0338 17.8832 55.7738 17.9832C55.5138 18.0793 55.2458 18.1273 54.9698 18.1273ZM58.4786 12.7632C58.7386 12.4872 59.0266 12.2672 59.3426 12.1032C59.6586 11.9392 60.0226 11.8572 60.4346 11.8572C60.7666 11.8572 61.0586 11.9132 61.3106 12.0252C61.5666 12.1332 61.7786 12.2892 61.9466 12.4932C62.1186 12.6932 62.2486 12.9352 62.3366 13.2192C62.4246 13.5032 62.4686 13.8172 62.4686 14.1612V18.0312H61.3946V14.1612C61.3946 13.7012 61.2886 13.3452 61.0766 13.0932C60.8686 12.8372 60.5506 12.7092 60.1226 12.7092C59.8066 12.7092 59.5106 12.7852 59.2346 12.9372C58.9626 13.0892 58.7106 13.2952 58.4786 13.5552V18.0312H57.4046V9.19325H58.4786V12.7632ZM68.056 13.3992C67.856 13.1312 67.64 12.9452 67.408 12.8412C67.176 12.7332 66.916 12.6792 66.628 12.6792C66.064 12.6792 65.63 12.8812 65.326 13.2852C65.022 13.6892 64.87 14.2652 64.87 15.0132C64.87 15.4092 64.904 15.7492 64.972 16.0332C65.04 16.3132 65.14 16.5452 65.272 16.7292C65.404 16.9092 65.566 17.0412 65.758 17.1252C65.95 17.2092 66.168 17.2512 66.412 17.2512C66.764 17.2512 67.07 17.1712 67.33 17.0112C67.594 16.8512 67.836 16.6252 68.056 16.3332V13.3992ZM69.124 9.19325V18.0312H68.488C68.336 18.0312 68.24 17.9572 68.2 17.8092L68.104 17.0712C67.844 17.3832 67.548 17.6352 67.216 17.8272C66.884 18.0192 66.5 18.1153 66.064 18.1153C65.716 18.1153 65.4 18.0492 65.116 17.9172C64.832 17.7812 64.59 17.5832 64.39 17.3232C64.19 17.0632 64.036 16.7392 63.928 16.3512C63.82 15.9632 63.766 15.5172 63.766 15.0132C63.766 14.5652 63.826 14.1492 63.946 13.7652C64.066 13.3772 64.238 13.0412 64.462 12.7572C64.686 12.4732 64.96 12.2512 65.284 12.0912C65.612 11.9272 65.98 11.8452 66.388 11.8452C66.76 11.8452 67.078 11.9092 67.342 12.0372C67.61 12.1612 67.848 12.3352 68.056 12.5592V9.19325H69.124ZM71.8248 13.1712C72.0168 12.7552 72.2528 12.4312 72.5328 12.1992C72.8128 11.9632 73.1548 11.8452 73.5588 11.8452C73.6868 11.8452 73.8088 11.8592 73.9248 11.8872C74.0448 11.9152 74.1508 11.9592 74.2428 12.0192L74.1648 12.8172C74.1408 12.9172 74.0808 12.9672 73.9848 12.9672C73.9288 12.9672 73.8468 12.9552 73.7388 12.9312C73.6308 12.9072 73.5088 12.8952 73.3728 12.8952C73.1808 12.8952 73.0088 12.9232 72.8568 12.9792C72.7088 13.0352 72.5748 13.1192 72.4548 13.2312C72.3388 13.3392 72.2328 13.4752 72.1368 13.6392C72.0448 13.7992 71.9608 13.9832 71.8848 14.1912V18.0312H70.8108V11.9532H71.4228C71.5388 11.9532 71.6188 11.9752 71.6628 12.0192C71.7068 12.0632 71.7368 12.1392 71.7528 12.2472L71.8248 13.1712ZM78.3822 15.2952C77.8902 15.3112 77.4702 15.3512 77.1222 15.4152C76.7782 15.4752 76.4962 15.5552 76.2762 15.6552C76.0602 15.7552 75.9022 15.8732 75.8022 16.0092C75.7062 16.1452 75.6582 16.2972 75.6582 16.4652C75.6582 16.6252 75.6842 16.7632 75.7362 16.8792C75.7882 16.9952 75.8582 17.0912 75.9462 17.1672C76.0382 17.2392 76.1442 17.2932 76.2642 17.3292C76.3882 17.3612 76.5202 17.3772 76.6602 17.3772C76.8482 17.3772 77.0202 17.3592 77.1762 17.3232C77.3322 17.2832 77.4782 17.2272 77.6142 17.1552C77.7542 17.0832 77.8862 16.9972 78.0102 16.8972C78.1382 16.7972 78.2622 16.6832 78.3822 16.5552V15.2952ZM74.9322 12.8112C75.2682 12.4872 75.6302 12.2452 76.0182 12.0852C76.4062 11.9252 76.8362 11.8452 77.3082 11.8452C77.6482 11.8452 77.9502 11.9012 78.2142 12.0132C78.4782 12.1252 78.7002 12.2812 78.8802 12.4812C79.0602 12.6812 79.1962 12.9232 79.2882 13.2072C79.3802 13.4912 79.4262 13.8032 79.4262 14.1432V18.0312H78.9522C78.8482 18.0312 78.7682 18.0152 78.7122 17.9832C78.6562 17.9472 78.6122 17.8792 78.5802 17.7792L78.4602 17.2032C78.3002 17.3512 78.1442 17.4832 77.9922 17.5992C77.8402 17.7112 77.6802 17.8072 77.5122 17.8872C77.3442 17.9632 77.1642 18.0212 76.9722 18.0613C76.7842 18.1053 76.5742 18.1273 76.3422 18.1273C76.1062 18.1273 75.8842 18.0953 75.6762 18.0312C75.4682 17.9632 75.2862 17.8632 75.1302 17.7312C74.9782 17.5992 74.8562 17.4332 74.7642 17.2332C74.6762 17.0292 74.6322 16.7892 74.6322 16.5132C74.6322 16.2732 74.6982 16.0432 74.8302 15.8232C74.9622 15.5992 75.1762 15.4012 75.4722 15.2292C75.7682 15.0572 76.1542 14.9172 76.6302 14.8092C77.1062 14.6973 77.6902 14.6332 78.3822 14.6172V14.1432C78.3822 13.6712 78.2802 13.3152 78.0762 13.0752C77.8722 12.8312 77.5742 12.7092 77.1822 12.7092C76.9182 12.7092 76.6962 12.7432 76.5162 12.8112C76.3402 12.8752 76.1862 12.9492 76.0542 13.0332C75.9262 13.1132 75.8142 13.1872 75.7182 13.2552C75.6262 13.3192 75.5342 13.3512 75.4422 13.3512C75.3702 13.3512 75.3082 13.3332 75.2562 13.2972C75.2042 13.2572 75.1602 13.2092 75.1242 13.1532L74.9322 12.8112ZM89.3999 11.9532L87.4319 18.0312H86.5859C86.4819 18.0312 86.4099 17.9632 86.3699 17.8272L85.0259 13.7052C84.9939 13.6132 84.9679 13.5212 84.9479 13.4292C84.9279 13.3332 84.9079 13.2392 84.8879 13.1472C84.8679 13.2392 84.8479 13.3332 84.8279 13.4292C84.8079 13.5212 84.7819 13.6152 84.7499 13.7112L83.3819 17.8272C83.3459 17.9632 83.2659 18.0312 83.1419 18.0312H82.3379L80.3699 11.9532H81.2099C81.2939 11.9532 81.3639 11.9752 81.4199 12.0192C81.4799 12.0632 81.5199 12.1152 81.5399 12.1752L82.7039 16.0872C82.7719 16.3752 82.8259 16.6472 82.8659 16.9032C82.9019 16.7712 82.9379 16.6372 82.9739 16.5012C83.0139 16.3652 83.0559 16.2272 83.0999 16.0872L84.3839 12.1512C84.4039 12.0912 84.4379 12.0412 84.4859 12.0013C84.5379 11.9612 84.5999 11.9412 84.6719 11.9412H85.1399C85.2199 11.9412 85.2859 11.9612 85.3379 12.0013C85.3899 12.0412 85.4259 12.0912 85.4459 12.1512L86.6999 16.0872C86.7439 16.2272 86.7839 16.3652 86.8199 16.5012C86.8559 16.6372 86.8899 16.7712 86.9219 16.9032C86.9419 16.7712 86.9659 16.6392 86.9939 16.5072C87.0259 16.3712 87.0599 16.2312 87.0959 16.0872L88.2839 12.1752C88.3039 12.1112 88.3419 12.0592 88.3979 12.0192C88.4539 11.9752 88.5199 11.9532 88.5959 11.9532H89.3999ZM91.4478 12.8352C91.5798 12.6872 91.7198 12.5532 91.8678 12.4332C92.0158 12.3132 92.1718 12.2112 92.3358 12.1272C92.5038 12.0392 92.6798 11.9732 92.8638 11.9292C93.0518 11.8812 93.2538 11.8572 93.4698 11.8572C93.8018 11.8572 94.0938 11.9132 94.3458 12.0252C94.6018 12.1332 94.8138 12.2892 94.9818 12.4932C95.1538 12.6932 95.2838 12.9352 95.3718 13.2192C95.4598 13.5032 95.5038 13.8172 95.5038 14.1612V18.0312H94.4298V14.1612C94.4298 13.7012 94.3238 13.3452 94.1118 13.0932C93.9038 12.8372 93.5858 12.7092 93.1578 12.7092C92.8418 12.7092 92.5458 12.7852 92.2698 12.9372C91.9978 13.0892 91.7458 13.2952 91.5138 13.5552V18.0312H90.4398V11.9532H91.0818C91.2338 11.9532 91.3278 12.0272 91.3638 12.1752L91.4478 12.8352Z" fill="white"/>
<line x1="16" y1="10.5" x2="22" y2="10.5" stroke="white"/>
<line x1="16" y1="12.5" x2="22" y2="12.5" stroke="white"/>
<rect x="16" y="6" width="6" height="2" fill="white"/>
<path fill-rule="evenodd" clip-rule="evenodd" d="M15 7.5H23V11.7584C23.0946 11.7528 23.1898 11.75 23.2857 11.75C23.5282 11.75 23.7667 11.7681 24 11.8032V7.5C24 6.94772 23.5523 6.5 23 6.5H15C14.4477 6.5 14 6.94772 14 7.5V18.25C14 18.8023 14.4477 19.25 15 19.25H18.7669C18.6234 18.9329 18.5093 18.5982 18.4283 18.25H15V7.5Z" fill="white"/>
<circle cx="25" cy="18" r="4.5" stroke="white"/>
<line x1="16" y1="14.5" x2="20" y2="14.5" stroke="white"/>
<path d="M24 19.5L26.5 17" stroke="white"/>
<path d="M24 17L26.5 19.5" stroke="white"/>
</svg>
