<svg width="108" height="27" viewBox="0 0 108 27" fill="none" xmlns="http://www.w3.org/2000/svg">
<rect width="103" height="27" rx="13.5" fill="#AA00FF"/>
<path d="M44.08 16.1813C44.152 16.1813 44.214 16.2093 44.266 16.2653L44.77 16.8173C44.418 17.2333 43.988 17.5553 43.48 17.7833C42.976 18.0113 42.368 18.1253 41.656 18.1253C41.032 18.1253 40.466 18.0173 39.958 17.8013C39.454 17.5853 39.022 17.2833 38.662 16.8953C38.306 16.5073 38.03 16.0433 37.834 15.5033C37.638 14.9633 37.54 14.3693 37.54 13.7213C37.54 13.0733 37.642 12.4793 37.846 11.9393C38.054 11.3993 38.344 10.9353 38.716 10.5473C39.088 10.1593 39.532 9.8573 40.048 9.6413C40.568 9.4253 41.142 9.3173 41.77 9.3173C42.382 9.3173 42.926 9.4173 43.402 9.6173C43.878 9.8173 44.292 10.0833 44.644 10.4153L44.224 11.0093C44.196 11.0533 44.16 11.0893 44.116 11.1173C44.076 11.1453 44.022 11.1593 43.954 11.1593C43.878 11.1593 43.788 11.1213 43.684 11.0453C43.584 10.9693 43.45 10.8853 43.282 10.7933C43.118 10.6973 42.914 10.6113 42.67 10.5353C42.426 10.4593 42.122 10.4213 41.758 10.4213C41.33 10.4213 40.938 10.4973 40.582 10.6493C40.226 10.7973 39.918 11.0133 39.658 11.2973C39.402 11.5773 39.202 11.9233 39.058 12.3353C38.918 12.7433 38.848 13.2053 38.848 13.7213C38.848 14.2453 38.922 14.7113 39.07 15.1193C39.218 15.5273 39.422 15.8733 39.682 16.1573C39.942 16.4413 40.248 16.6573 40.6 16.8053C40.952 16.9533 41.332 17.0273 41.74 17.0273C41.988 17.0273 42.21 17.0133 42.406 16.9853C42.606 16.9533 42.788 16.9073 42.952 16.8473C43.12 16.7873 43.278 16.7113 43.426 16.6193C43.574 16.5233 43.72 16.4093 43.864 16.2773C43.896 16.2493 43.93 16.2273 43.966 16.2113C44.002 16.1913 44.04 16.1813 44.08 16.1813ZM49.0902 15.3233C48.6142 15.3393 48.2102 15.3773 47.8782 15.4373C47.5462 15.4933 47.2762 15.5693 47.0682 15.6653C46.8602 15.7613 46.7102 15.8753 46.6182 16.0073C46.5262 16.1353 46.4802 16.2793 46.4802 16.4393C46.4802 16.5913 46.5042 16.7233 46.5522 16.8353C46.6042 16.9433 46.6722 17.0333 46.7562 17.1053C46.8442 17.1733 46.9462 17.2233 47.0622 17.2553C47.1782 17.2873 47.3042 17.3033 47.4402 17.3033C47.6202 17.3033 47.7842 17.2853 47.9322 17.2493C48.0842 17.2133 48.2262 17.1633 48.3582 17.0993C48.4902 17.0313 48.6162 16.9493 48.7362 16.8533C48.8562 16.7573 48.9742 16.6473 49.0902 16.5233V15.3233ZM45.6582 12.7853C45.9982 12.4613 46.3662 12.2193 46.7622 12.0593C47.1622 11.8993 47.6002 11.8193 48.0762 11.8193C48.4242 11.8193 48.7322 11.8773 49.0002 11.9933C49.2682 12.1053 49.4942 12.2633 49.6782 12.4673C49.8622 12.6713 50.0002 12.9153 50.0922 13.1993C50.1882 13.4833 50.2362 13.7973 50.2362 14.1413V18.0293H49.7142C49.5982 18.0293 49.5102 18.0113 49.4502 17.9753C49.3902 17.9353 49.3422 17.8633 49.3062 17.7593L49.1802 17.2253C49.0242 17.3693 48.8702 17.4973 48.7182 17.6093C48.5662 17.7173 48.4062 17.8113 48.2382 17.8913C48.0742 17.9673 47.8982 18.0253 47.7102 18.0653C47.5222 18.1053 47.3142 18.1253 47.0862 18.1253C46.8462 18.1253 46.6202 18.0933 46.4082 18.0293C46.2002 17.9613 46.0182 17.8593 45.8622 17.7233C45.7062 17.5873 45.5822 17.4173 45.4902 17.2133C45.4022 17.0093 45.3582 16.7713 45.3582 16.4993C45.3582 16.2593 45.4222 16.0293 45.5502 15.8093C45.6822 15.5853 45.8942 15.3853 46.1862 15.2093C46.4822 15.0333 46.8662 14.8893 47.3382 14.7773C47.8142 14.6653 48.3982 14.6013 49.0902 14.5853V14.1413C49.0902 13.6813 48.9922 13.3373 48.7962 13.1093C48.6002 12.8813 48.3122 12.7673 47.9322 12.7673C47.6762 12.7673 47.4602 12.7993 47.2842 12.8633C47.1122 12.9273 46.9622 12.9993 46.8342 13.0793C46.7102 13.1553 46.6002 13.2253 46.5042 13.2893C46.4122 13.3533 46.3162 13.3853 46.2162 13.3853C46.1362 13.3853 46.0662 13.3633 46.0062 13.3193C45.9502 13.2753 45.9042 13.2233 45.8682 13.1633L45.6582 12.7853ZM52.9005 12.7793C53.0325 12.6393 53.1705 12.5113 53.3145 12.3953C53.4585 12.2793 53.6105 12.1813 53.7705 12.1013C53.9345 12.0173 54.1085 11.9533 54.2925 11.9093C54.4805 11.8613 54.6805 11.8373 54.8925 11.8373C55.2285 11.8373 55.5225 11.8933 55.7745 12.0053C56.0305 12.1173 56.2445 12.2753 56.4165 12.4793C56.5885 12.6793 56.7185 12.9213 56.8065 13.2053C56.8945 13.4893 56.9385 13.8033 56.9385 14.1473V18.0293H55.7625V14.1473C55.7625 13.7113 55.6625 13.3733 55.4625 13.1333C55.2625 12.8893 54.9565 12.7673 54.5445 12.7673C54.2445 12.7673 53.9625 12.8393 53.6985 12.9833C53.4385 13.1233 53.1965 13.3153 52.9725 13.5593V18.0293H51.8025V11.9333H52.5045C52.6685 11.9333 52.7705 12.0113 52.8105 12.1673L52.9005 12.7793ZM62.7893 13.0733C62.7533 13.1173 62.7173 13.1533 62.6813 13.1813C62.6493 13.2053 62.6013 13.2173 62.5373 13.2173C62.4733 13.2173 62.4053 13.1933 62.3333 13.1453C62.2653 13.0933 62.1773 13.0393 62.0693 12.9833C61.9653 12.9233 61.8373 12.8693 61.6853 12.8213C61.5373 12.7693 61.3533 12.7433 61.1333 12.7433C60.8453 12.7433 60.5913 12.7953 60.3713 12.8993C60.1513 13.0033 59.9673 13.1513 59.8193 13.3433C59.6753 13.5353 59.5653 13.7693 59.4893 14.0453C59.4133 14.3213 59.3753 14.6313 59.3753 14.9753C59.3753 15.3313 59.4153 15.6493 59.4953 15.9293C59.5753 16.2053 59.6893 16.4393 59.8373 16.6313C59.9853 16.8193 60.1653 16.9633 60.3773 17.0633C60.5893 17.1593 60.8253 17.2073 61.0853 17.2073C61.3373 17.2073 61.5453 17.1773 61.7093 17.1173C61.8733 17.0533 62.0093 16.9853 62.1173 16.9133C62.2253 16.8413 62.3153 16.7753 62.3873 16.7153C62.4593 16.6513 62.5333 16.6193 62.6093 16.6193C62.7053 16.6193 62.7793 16.6553 62.8313 16.7273L63.1673 17.1593C63.0273 17.3313 62.8693 17.4773 62.6933 17.5973C62.5213 17.7173 62.3373 17.8153 62.1413 17.8913C61.9453 17.9673 61.7393 18.0233 61.5233 18.0593C61.3113 18.0953 61.0953 18.1133 60.8753 18.1133C60.4953 18.1133 60.1393 18.0433 59.8073 17.9033C59.4793 17.7633 59.1933 17.5593 58.9493 17.2913C58.7093 17.0233 58.5193 16.6953 58.3793 16.3073C58.2393 15.9153 58.1693 15.4713 58.1693 14.9753C58.1693 14.5233 58.2313 14.1053 58.3553 13.7213C58.4833 13.3373 58.6693 13.0073 58.9133 12.7313C59.1613 12.4513 59.4653 12.2333 59.8253 12.0773C60.1853 11.9173 60.5973 11.8373 61.0613 11.8373C61.4973 11.8373 61.8813 11.9073 62.2133 12.0473C62.5453 12.1873 62.8413 12.3853 63.1013 12.6413L62.7893 13.0733ZM68.192 14.3033C68.192 14.0713 68.158 13.8573 68.09 13.6613C68.026 13.4653 67.93 13.2953 67.802 13.1513C67.674 13.0073 67.518 12.8953 67.334 12.8153C67.15 12.7353 66.938 12.6953 66.698 12.6953C66.206 12.6953 65.818 12.8373 65.534 13.1213C65.254 13.4053 65.076 13.7993 65 14.3033H68.192ZM69.158 17.1593C69.014 17.3273 68.848 17.4733 68.66 17.5973C68.472 17.7173 68.272 17.8153 68.06 17.8913C67.848 17.9673 67.628 18.0233 67.4 18.0593C67.176 18.0953 66.954 18.1133 66.734 18.1133C66.314 18.1133 65.924 18.0433 65.564 17.9033C65.208 17.7593 64.898 17.5513 64.634 17.2793C64.374 17.0033 64.17 16.6633 64.022 16.2593C63.878 15.8513 63.806 15.3833 63.806 14.8553C63.806 14.4313 63.872 14.0373 64.004 13.6733C64.136 13.3053 64.324 12.9853 64.568 12.7133C64.816 12.4413 65.118 12.2273 65.474 12.0713C65.83 11.9153 66.23 11.8373 66.674 11.8373C67.046 11.8373 67.388 11.8993 67.7 12.0233C68.016 12.1433 68.288 12.3193 68.516 12.5513C68.744 12.7833 68.922 13.0693 69.05 13.4093C69.182 13.7493 69.248 14.1373 69.248 14.5733C69.248 14.7533 69.228 14.8753 69.188 14.9393C69.148 14.9993 69.074 15.0293 68.966 15.0293H64.97C64.982 15.3933 65.034 15.7113 65.126 15.9833C65.218 16.2513 65.344 16.4753 65.504 16.6553C65.668 16.8353 65.862 16.9693 66.086 17.0573C66.31 17.1453 66.56 17.1893 66.836 17.1893C67.096 17.1893 67.32 17.1593 67.508 17.0993C67.7 17.0393 67.864 16.9753 68 16.9073C68.14 16.8353 68.256 16.7693 68.348 16.7093C68.444 16.6493 68.528 16.6193 68.6 16.6193C68.696 16.6193 68.77 16.6553 68.822 16.7273L69.158 17.1593ZM71.7056 9.1733V18.0293H70.5296V9.1733H71.7056ZM74.5767 9.1733V18.0293H73.4007V9.1733H74.5767ZM80.2858 14.3033C80.2858 14.0713 80.2518 13.8573 80.1838 13.6613C80.1198 13.4653 80.0238 13.2953 79.8958 13.1513C79.7678 13.0073 79.6118 12.8953 79.4278 12.8153C79.2438 12.7353 79.0318 12.6953 78.7918 12.6953C78.2998 12.6953 77.9118 12.8373 77.6278 13.1213C77.3478 13.4053 77.1698 13.7993 77.0938 14.3033H80.2858ZM81.2518 17.1593C81.1078 17.3273 80.9418 17.4733 80.7538 17.5973C80.5658 17.7173 80.3658 17.8153 80.1538 17.8913C79.9418 17.9673 79.7218 18.0233 79.4938 18.0593C79.2698 18.0953 79.0478 18.1133 78.8278 18.1133C78.4078 18.1133 78.0178 18.0433 77.6578 17.9033C77.3018 17.7593 76.9918 17.5513 76.7278 17.2793C76.4678 17.0033 76.2638 16.6633 76.1158 16.2593C75.9718 15.8513 75.8998 15.3833 75.8998 14.8553C75.8998 14.4313 75.9658 14.0373 76.0978 13.6733C76.2298 13.3053 76.4178 12.9853 76.6618 12.7133C76.9098 12.4413 77.2118 12.2273 77.5678 12.0713C77.9238 11.9153 78.3238 11.8373 78.7678 11.8373C79.1398 11.8373 79.4818 11.8993 79.7938 12.0233C80.1098 12.1433 80.3818 12.3193 80.6098 12.5513C80.8378 12.7833 81.0158 13.0693 81.1438 13.4093C81.2758 13.7493 81.3418 14.1373 81.3418 14.5733C81.3418 14.7533 81.3218 14.8753 81.2818 14.9393C81.2418 14.9993 81.1678 15.0293 81.0598 15.0293H77.0638C77.0758 15.3933 77.1278 15.7113 77.2198 15.9833C77.3118 16.2513 77.4378 16.4753 77.5978 16.6553C77.7618 16.8353 77.9558 16.9693 78.1798 17.0573C78.4038 17.1453 78.6538 17.1893 78.9298 17.1893C79.1898 17.1893 79.4138 17.1593 79.6018 17.0993C79.7938 17.0393 79.9578 16.9753 80.0938 16.9073C80.2338 16.8353 80.3498 16.7693 80.4418 16.7093C80.5378 16.6493 80.6218 16.6193 80.6938 16.6193C80.7898 16.6193 80.8638 16.6553 80.9158 16.7273L81.2518 17.1593ZM86.5293 13.4093C86.3373 13.1573 86.1293 12.9813 85.9053 12.8813C85.6853 12.7813 85.4373 12.7313 85.1613 12.7313C84.6253 12.7313 84.2093 12.9253 83.9133 13.3133C83.6213 13.6973 83.4753 14.2593 83.4753 14.9993C83.4753 15.3873 83.5073 15.7193 83.5713 15.9953C83.6393 16.2673 83.7353 16.4913 83.8593 16.6673C83.9873 16.8393 84.1433 16.9673 84.3273 17.0513C84.5113 17.1313 84.7193 17.1713 84.9513 17.1713C85.2913 17.1713 85.5853 17.0953 85.8333 16.9433C86.0813 16.7913 86.3133 16.5773 86.5293 16.3013V13.4093ZM87.7053 9.1733V18.0293H86.9973C86.8333 18.0293 86.7313 17.9513 86.6913 17.7953L86.5893 17.0933C86.3293 17.4013 86.0333 17.6493 85.7013 17.8373C85.3733 18.0213 84.9933 18.1133 84.5613 18.1133C84.2133 18.1133 83.8973 18.0453 83.6133 17.9093C83.3333 17.7733 83.0933 17.5753 82.8933 17.3153C82.6933 17.0513 82.5393 16.7253 82.4313 16.3373C82.3233 15.9493 82.2693 15.5033 82.2693 14.9993C82.2693 14.5473 82.3293 14.1273 82.4493 13.7393C82.5693 13.3513 82.7433 13.0153 82.9713 12.7313C83.1993 12.4473 83.4753 12.2253 83.7993 12.0653C84.1233 11.9013 84.4893 11.8193 84.8973 11.8193C85.2653 11.8193 85.5773 11.8793 85.8333 11.9993C86.0933 12.1193 86.3253 12.2893 86.5293 12.5093V9.1733H87.7053Z" fill="white"/>
<line x1="16" y1="10.5" x2="22" y2="10.5" stroke="white"/>
<line x1="16" y1="12.5" x2="22" y2="12.5" stroke="white"/>
<rect x="16" y="6" width="6" height="2" fill="white"/>
<path fill-rule="evenodd" clip-rule="evenodd" d="M15 7.5H23V11.7584C23.0946 11.7528 23.1898 11.75 23.2857 11.75C23.5282 11.75 23.7667 11.7681 24 11.8032V7.5C24 6.94772 23.5523 6.5 23 6.5H15C14.4477 6.5 14 6.94772 14 7.5V18.25C14 18.8023 14.4477 19.25 15 19.25H18.7669C18.6234 18.9329 18.5093 18.5982 18.4283 18.25H15V7.5Z" fill="white"/>
<circle cx="25" cy="18" r="4.5" stroke="white"/>
<line x1="16" y1="14.5" x2="20" y2="14.5" stroke="white"/>
<path d="M23 18L24.5 19.5L27 17" stroke="white"/>
</svg>
