<svg width="13" height="16" viewBox="0 0 13 16" fill="none" xmlns="http://www.w3.org/2000/svg">
<path fill-rule="evenodd" clip-rule="evenodd" d="M11.4345 4.68799C12.2145 5.77599 12.6795 7.15199 12.6795 8.63999C12.6795 12.24 9.94948 15.152 6.57448 15.152C3.19948 15.152 0.469482 12.24 0.469482 8.63999C0.469482 5.23199 2.92948 2.43199 6.06448 2.15999V1.77599H5.20948C4.92448 1.77599 4.69948 1.53599 4.69948 1.23199C4.69948 0.927988 4.92448 0.687988 5.20948 0.687988H7.92448C8.20948 0.687988 8.43448 0.927988 8.43448 1.23199C8.43448 1.53599 8.20948 1.77599 7.92448 1.77599H7.06948V2.15999C8.01448 2.23999 8.88448 2.54399 9.64948 3.03999L9.85948 2.76799C10.0995 2.46399 10.5195 2.41599 10.8045 2.67199L11.5995 3.35999C11.8845 3.61599 11.9145 4.06399 11.6745 4.38399L11.4345 4.68799ZM6.57448 3.21599C3.76948 3.21599 1.48948 5.64799 1.48948 8.63999C1.48948 11.632 3.76948 14.064 6.57448 14.064C9.37948 14.064 11.6595 11.632 11.6595 8.63999C11.6595 5.64799 9.37948 3.21599 6.57448 3.21599ZM7.62448 8.03199C7.71448 8.20799 7.77448 8.41599 7.77448 8.63999C7.77448 9.34399 7.24948 9.90399 6.58948 9.90399C5.92948 9.90399 5.40448 9.34399 5.40448 8.63999C5.40448 7.93599 5.92948 7.37599 6.58948 7.37599C6.78448 7.37599 6.97948 7.42399 7.14448 7.51999L8.37448 6.20799C8.50948 6.06399 8.71948 6.06399 8.85448 6.20799C8.98948 6.35199 8.98948 6.57599 8.85448 6.71999L7.62448 8.03199ZM6.57448 8.11199C6.28948 8.11199 6.06448 8.35199 6.06448 8.65599C6.06448 8.95999 6.28948 9.19999 6.57448 9.19999C6.85948 9.19999 7.08448 8.95999 7.08448 8.65599C7.08448 8.35199 6.85948 8.11199 6.57448 8.11199Z" fill="black"/>
</svg>
