<svg width="108" height="27" viewBox="0 0 108 27" fill="none" xmlns="http://www.w3.org/2000/svg">
<rect width="108" height="27" rx="13.5" fill="#EE6352"/>
<path d="M44.08 16.1813C44.152 16.1813 44.214 16.2093 44.266 16.2653L44.77 16.8173C44.418 17.2333 43.988 17.5553 43.48 17.7833C42.976 18.0113 42.368 18.1253 41.656 18.1253C41.032 18.1253 40.466 18.0173 39.958 17.8013C39.454 17.5853 39.022 17.2833 38.662 16.8953C38.306 16.5073 38.03 16.0433 37.834 15.5033C37.638 14.9633 37.54 14.3693 37.54 13.7213C37.54 13.0733 37.642 12.4793 37.846 11.9393C38.054 11.3993 38.344 10.9353 38.716 10.5473C39.088 10.1593 39.532 9.8573 40.048 9.6413C40.568 9.4253 41.142 9.3173 41.77 9.3173C42.382 9.3173 42.926 9.4173 43.402 9.6173C43.878 9.8173 44.292 10.0833 44.644 10.4153L44.224 11.0093C44.196 11.0533 44.16 11.0893 44.116 11.1173C44.076 11.1453 44.022 11.1593 43.954 11.1593C43.878 11.1593 43.788 11.1213 43.684 11.0453C43.584 10.9693 43.45 10.8853 43.282 10.7933C43.118 10.6973 42.914 10.6113 42.67 10.5353C42.426 10.4593 42.122 10.4213 41.758 10.4213C41.33 10.4213 40.938 10.4973 40.582 10.6493C40.226 10.7973 39.918 11.0133 39.658 11.2973C39.402 11.5773 39.202 11.9233 39.058 12.3353C38.918 12.7433 38.848 13.2053 38.848 13.7213C38.848 14.2453 38.922 14.7113 39.07 15.1193C39.218 15.5273 39.422 15.8733 39.682 16.1573C39.942 16.4413 40.248 16.6573 40.6 16.8053C40.952 16.9533 41.332 17.0273 41.74 17.0273C41.988 17.0273 42.21 17.0133 42.406 16.9853C42.606 16.9533 42.788 16.9073 42.952 16.8473C43.12 16.7873 43.278 16.7113 43.426 16.6193C43.574 16.5233 43.72 16.4093 43.864 16.2773C43.896 16.2493 43.93 16.2273 43.966 16.2113C44.002 16.1913 44.04 16.1813 44.08 16.1813ZM48.295 11.8373C48.743 11.8373 49.147 11.9113 49.507 12.0593C49.871 12.2033 50.179 12.4133 50.431 12.6893C50.687 12.9613 50.883 13.2913 51.019 13.6793C51.155 14.0633 51.223 14.4953 51.223 14.9753C51.223 15.4553 51.155 15.8893 51.019 16.2773C50.883 16.6653 50.687 16.9953 50.431 17.2673C50.179 17.5393 49.871 17.7493 49.507 17.8973C49.147 18.0413 48.743 18.1133 48.295 18.1133C47.843 18.1133 47.435 18.0413 47.071 17.8973C46.711 17.7493 46.403 17.5393 46.147 17.2673C45.891 16.9953 45.693 16.6653 45.553 16.2773C45.417 15.8893 45.349 15.4553 45.349 14.9753C45.349 14.4953 45.417 14.0633 45.553 13.6793C45.693 13.2913 45.891 12.9613 46.147 12.6893C46.403 12.4133 46.711 12.2033 47.071 12.0593C47.435 11.9113 47.843 11.8373 48.295 11.8373ZM48.295 17.2013C48.871 17.2013 49.301 17.0073 49.585 16.6193C49.869 16.2313 50.011 15.6853 50.011 14.9813C50.011 14.2773 49.869 13.7313 49.585 13.3433C49.301 12.9513 48.871 12.7553 48.295 12.7553C47.711 12.7553 47.275 12.9513 46.987 13.3433C46.703 13.7313 46.561 14.2773 46.561 14.9813C46.561 15.6853 46.703 16.2313 46.987 16.6193C47.275 17.0073 47.711 17.2013 48.295 17.2013ZM52.529 18.0293V11.9333H53.231C53.395 11.9333 53.497 12.0113 53.537 12.1673L53.621 12.7493C53.845 12.4813 54.093 12.2633 54.365 12.0953C54.641 11.9233 54.963 11.8373 55.331 11.8373C55.735 11.8373 56.063 11.9493 56.315 12.1733C56.567 12.3933 56.751 12.6933 56.867 13.0733C56.955 12.8573 57.069 12.6713 57.209 12.5153C57.349 12.3593 57.505 12.2313 57.677 12.1313C57.849 12.0313 58.031 11.9573 58.223 11.9093C58.419 11.8613 58.617 11.8373 58.817 11.8373C59.141 11.8373 59.429 11.8893 59.681 11.9933C59.937 12.0933 60.153 12.2413 60.329 12.4373C60.505 12.6333 60.639 12.8753 60.731 13.1633C60.823 13.4513 60.869 13.7793 60.869 14.1473V18.0293H59.693V14.1473C59.693 13.6913 59.593 13.3473 59.393 13.1153C59.197 12.8833 58.909 12.7673 58.529 12.7673C58.361 12.7673 58.201 12.7973 58.049 12.8573C57.897 12.9133 57.763 12.9993 57.647 13.1153C57.535 13.2313 57.445 13.3753 57.377 13.5473C57.313 13.7193 57.281 13.9193 57.281 14.1473V18.0293H56.105V14.1473C56.105 13.6753 56.011 13.3273 55.823 13.1033C55.635 12.8793 55.359 12.7673 54.995 12.7673C54.743 12.7673 54.509 12.8333 54.293 12.9653C54.077 13.0973 53.879 13.2773 53.699 13.5053V18.0293H52.529ZM63.6131 16.5293C63.8051 16.7813 64.0111 16.9573 64.2311 17.0573C64.4551 17.1573 64.7051 17.2073 64.9811 17.2073C65.5171 17.2073 65.9311 17.0153 66.2231 16.6313C66.5191 16.2433 66.6671 15.6793 66.6671 14.9393C66.6671 14.5513 66.6331 14.2213 66.5651 13.9493C66.5011 13.6733 66.4051 13.4493 66.2771 13.2773C66.1531 13.1013 65.9991 12.9733 65.8151 12.8933C65.6311 12.8093 65.4231 12.7673 65.1911 12.7673C64.8511 12.7673 64.5551 12.8433 64.3031 12.9953C64.0551 13.1473 63.8251 13.3633 63.6131 13.6433V16.5293ZM63.5531 12.8453C63.6811 12.6933 63.8171 12.5553 63.9611 12.4313C64.1091 12.3033 64.2671 12.1953 64.4351 12.1073C64.6031 12.0153 64.7811 11.9453 64.9691 11.8973C65.1611 11.8453 65.3651 11.8193 65.5811 11.8193C65.9291 11.8193 66.2431 11.8873 66.5231 12.0233C66.8071 12.1593 67.0491 12.3593 67.2491 12.6233C67.4491 12.8873 67.6031 13.2133 67.7111 13.6013C67.8231 13.9893 67.8791 14.4353 67.8791 14.9393C67.8791 15.3913 67.8171 15.8113 67.6931 16.1993C67.5731 16.5833 67.3991 16.9173 67.1711 17.2013C66.9471 17.4853 66.6711 17.7093 66.3431 17.8733C66.0191 18.0333 65.6531 18.1133 65.2451 18.1133C64.8811 18.1133 64.5691 18.0533 64.3091 17.9333C64.0491 17.8133 63.8171 17.6453 63.6131 17.4293V20.0753H62.4431V11.9333H63.1451C63.3091 11.9333 63.4111 12.0113 63.4511 12.1673L63.5531 12.8453ZM70.3931 9.1733V18.0293H69.2171V9.1733H70.3931ZM76.1022 14.3033C76.1022 14.0713 76.0682 13.8573 76.0002 13.6613C75.9362 13.4653 75.8402 13.2953 75.7122 13.1513C75.5842 13.0073 75.4282 12.8953 75.2442 12.8153C75.0602 12.7353 74.8482 12.6953 74.6082 12.6953C74.1162 12.6953 73.7282 12.8373 73.4442 13.1213C73.1642 13.4053 72.9862 13.7993 72.9102 14.3033H76.1022ZM77.0682 17.1593C76.9242 17.3273 76.7582 17.4733 76.5702 17.5973C76.3822 17.7173 76.1822 17.8153 75.9702 17.8913C75.7582 17.9673 75.5382 18.0233 75.3102 18.0593C75.0862 18.0953 74.8642 18.1133 74.6442 18.1133C74.2242 18.1133 73.8342 18.0433 73.4742 17.9033C73.1182 17.7593 72.8082 17.5513 72.5442 17.2793C72.2842 17.0033 72.0802 16.6633 71.9322 16.2593C71.7882 15.8513 71.7162 15.3833 71.7162 14.8553C71.7162 14.4313 71.7822 14.0373 71.9142 13.6733C72.0462 13.3053 72.2342 12.9853 72.4782 12.7133C72.7262 12.4413 73.0282 12.2273 73.3842 12.0713C73.7402 11.9153 74.1402 11.8373 74.5842 11.8373C74.9562 11.8373 75.2982 11.8993 75.6102 12.0233C75.9262 12.1433 76.1982 12.3193 76.4262 12.5513C76.6542 12.7833 76.8322 13.0693 76.9602 13.4093C77.0922 13.7493 77.1582 14.1373 77.1582 14.5733C77.1582 14.7533 77.1382 14.8753 77.0982 14.9393C77.0582 14.9993 76.9842 15.0293 76.8762 15.0293H72.8802C72.8922 15.3933 72.9442 15.7113 73.0362 15.9833C73.1282 16.2513 73.2542 16.4753 73.4142 16.6553C73.5782 16.8353 73.7722 16.9693 73.9962 17.0573C74.2202 17.1453 74.4702 17.1893 74.7462 17.1893C75.0062 17.1893 75.2302 17.1593 75.4182 17.0993C75.6102 17.0393 75.7742 16.9753 75.9102 16.9073C76.0502 16.8353 76.1662 16.7693 76.2582 16.7093C76.3542 16.6493 76.4382 16.6193 76.5102 16.6193C76.6062 16.6193 76.6802 16.6553 76.7322 16.7273L77.0682 17.1593ZM80.2769 18.1253C79.7849 18.1253 79.4049 17.9873 79.1369 17.7113C78.8729 17.4353 78.7409 17.0413 78.7409 16.5293V12.8813H78.0329C77.9649 12.8813 77.9069 12.8613 77.8589 12.8213C77.8149 12.7773 77.7929 12.7133 77.7929 12.6293V12.1553L78.7829 12.0173L79.0469 10.1993C79.0629 10.1313 79.0929 10.0793 79.1369 10.0433C79.1849 10.0033 79.2449 9.9833 79.3169 9.9833H79.9109V12.0293H81.6389V12.8813H79.9109V16.4513C79.9109 16.6913 79.9689 16.8713 80.0849 16.9913C80.2049 17.1073 80.3569 17.1653 80.5409 17.1653C80.6489 17.1653 80.7409 17.1513 80.8169 17.1233C80.8969 17.0953 80.9649 17.0653 81.0209 17.0333C81.0769 16.9973 81.1249 16.9653 81.1649 16.9373C81.2049 16.9093 81.2409 16.8953 81.2729 16.8953C81.3129 16.8953 81.3429 16.9053 81.3629 16.9253C81.3869 16.9413 81.4109 16.9693 81.4349 17.0093L81.7829 17.5733C81.5909 17.7493 81.3629 17.8853 81.0989 17.9813C80.8349 18.0773 80.5609 18.1253 80.2769 18.1253ZM86.7194 14.3033C86.7194 14.0713 86.6854 13.8573 86.6174 13.6613C86.5534 13.4653 86.4574 13.2953 86.3294 13.1513C86.2014 13.0073 86.0454 12.8953 85.8614 12.8153C85.6774 12.7353 85.4654 12.6953 85.2254 12.6953C84.7334 12.6953 84.3454 12.8373 84.0614 13.1213C83.7814 13.4053 83.6034 13.7993 83.5274 14.3033H86.7194ZM87.6854 17.1593C87.5414 17.3273 87.3754 17.4733 87.1874 17.5973C86.9994 17.7173 86.7994 17.8153 86.5874 17.8913C86.3754 17.9673 86.1554 18.0233 85.9274 18.0593C85.7034 18.0953 85.4814 18.1133 85.2614 18.1133C84.8414 18.1133 84.4514 18.0433 84.0914 17.9033C83.7354 17.7593 83.4254 17.5513 83.1614 17.2793C82.9014 17.0033 82.6974 16.6633 82.5494 16.2593C82.4054 15.8513 82.3334 15.3833 82.3334 14.8553C82.3334 14.4313 82.3994 14.0373 82.5314 13.6733C82.6634 13.3053 82.8514 12.9853 83.0954 12.7133C83.3434 12.4413 83.6454 12.2273 84.0014 12.0713C84.3574 11.9153 84.7574 11.8373 85.2014 11.8373C85.5734 11.8373 85.9154 11.8993 86.2274 12.0233C86.5434 12.1433 86.8154 12.3193 87.0434 12.5513C87.2714 12.7833 87.4494 13.0693 87.5774 13.4093C87.7094 13.7493 87.7754 14.1373 87.7754 14.5733C87.7754 14.7533 87.7554 14.8753 87.7154 14.9393C87.6754 14.9993 87.6014 15.0293 87.4934 15.0293H83.4974C83.5094 15.3933 83.5614 15.7113 83.6534 15.9833C83.7454 16.2513 83.8714 16.4753 84.0314 16.6553C84.1954 16.8353 84.3894 16.9693 84.6134 17.0573C84.8374 17.1453 85.0874 17.1893 85.3634 17.1893C85.6234 17.1893 85.8474 17.1593 86.0354 17.0993C86.2274 17.0393 86.3914 16.9753 86.5274 16.9073C86.6674 16.8353 86.7834 16.7693 86.8754 16.7093C86.9714 16.6493 87.0554 16.6193 87.1274 16.6193C87.2234 16.6193 87.2974 16.6553 87.3494 16.7273L87.6854 17.1593ZM92.9629 13.4093C92.7709 13.1573 92.5629 12.9813 92.3389 12.8813C92.1189 12.7813 91.8709 12.7313 91.5949 12.7313C91.0589 12.7313 90.6429 12.9253 90.3469 13.3133C90.0549 13.6973 89.9089 14.2593 89.9089 14.9993C89.9089 15.3873 89.9409 15.7193 90.0049 15.9953C90.0729 16.2673 90.1689 16.4913 90.2929 16.6673C90.4209 16.8393 90.5769 16.9673 90.7609 17.0513C90.9449 17.1313 91.1529 17.1713 91.3849 17.1713C91.7249 17.1713 92.0189 17.0953 92.2669 16.9433C92.5149 16.7913 92.7469 16.5773 92.9629 16.3013V13.4093ZM94.1389 9.1733V18.0293H93.4309C93.2669 18.0293 93.1649 17.9513 93.1249 17.7953L93.0229 17.0933C92.7629 17.4013 92.4669 17.6493 92.1349 17.8373C91.8069 18.0213 91.4269 18.1133 90.9949 18.1133C90.6469 18.1133 90.3309 18.0453 90.0469 17.9093C89.7669 17.7733 89.5269 17.5753 89.3269 17.3153C89.1269 17.0513 88.9729 16.7253 88.8649 16.3373C88.7569 15.9493 88.7029 15.5033 88.7029 14.9993C88.7029 14.5473 88.7629 14.1273 88.8829 13.7393C89.0029 13.3513 89.1769 13.0153 89.4049 12.7313C89.6329 12.4473 89.9089 12.2253 90.2329 12.0653C90.5569 11.9013 90.9229 11.8193 91.3309 11.8193C91.6989 11.8193 92.0109 11.8793 92.2669 11.9993C92.5269 12.1193 92.7589 12.2893 92.9629 12.5093V9.1733H94.1389Z" fill="white"/>
<line x1="16" y1="10.5" x2="22" y2="10.5" stroke="white"/>
<line x1="16" y1="12.5" x2="22" y2="12.5" stroke="white"/>
<rect x="16" y="6" width="6" height="2" fill="white"/>
<path fill-rule="evenodd" clip-rule="evenodd" d="M15 7.5H23V11.7584C23.0946 11.7528 23.1898 11.75 23.2857 11.75C23.5282 11.75 23.7667 11.7681 24 11.8032V7.5C24 6.94772 23.5523 6.5 23 6.5H15C14.4477 6.5 14 6.94772 14 7.5V18.25C14 18.8023 14.4477 19.25 15 19.25H18.7669C18.6234 18.9329 18.5093 18.5982 18.4283 18.25H15V7.5Z" fill="white"/>
<circle cx="25" cy="18" r="4.5" stroke="white"/>
<line x1="16" y1="14.5" x2="20" y2="14.5" stroke="white"/>
<path d="M23 18L24.5 19.5L27 17" stroke="white"/>
</svg>
