<svg width="20" height="20" viewBox="0 0 20 20" fill="none" xmlns="http://www.w3.org/2000/svg">
<path d="M5.60289 9.33696C5.40227 9.13821 5.10414 9.07946 4.84539 9.18821C4.59352 9.29196 4.41602 9.55446 4.41602 9.82884V14.8057C4.41539 14.9926 4.48727 15.167 4.61977 15.2976C4.75102 15.4295 4.92539 15.5007 5.11102 15.5007L10.0873 15.5013C10.2741 15.5013 10.4485 15.4288 10.5798 15.2976C10.6448 15.2326 10.6948 15.157 10.7298 15.0732C10.8379 14.812 10.7785 14.5132 10.5791 14.3138L5.60289 9.33696ZM10.1466 14.8645C10.1316 14.8801 10.1091 14.8888 10.0866 14.8888L5.11102 14.8882C5.07164 14.8882 5.02727 14.8451 5.02727 14.8057L5.02789 9.82946C5.02789 9.80821 5.03727 9.78696 5.05227 9.77134L5.07977 9.75321C5.11102 9.74009 5.14602 9.74696 5.17039 9.77009L10.146 14.747C10.1698 14.7707 10.1773 14.8063 10.1466 14.8645Z" fill="black"/>
<path d="M3.26766 3.7C3.06578 3.50188 2.76891 3.44438 2.51391 3.5525C2.25766 3.65688 2.08453 3.91438 2.08203 4.195V12.5744C2.08203 12.575 2.08203 12.5756 2.08203 12.5763C2.08203 12.5769 2.08203 12.5775 2.08203 12.5781L2.08266 17.1406C2.08266 17.3269 2.15453 17.5006 2.28516 17.6319C2.41766 17.7644 2.59203 17.8369 2.77891 17.8362H15.7245C15.9095 17.8362 16.0852 17.7637 16.2164 17.6319C16.2814 17.5669 16.332 17.4912 16.367 17.4062C16.4739 17.1469 16.4152 16.8506 16.2164 16.6487L3.26766 3.7ZM15.7245 17.2244H2.77766C2.73828 17.2244 2.69453 17.1794 2.69453 17.14V15.5237H3.37078C3.45516 15.5237 3.53141 15.4894 3.58766 15.4331C3.64328 15.3781 3.67766 15.3012 3.67766 15.2169C3.67766 15.0475 3.54016 14.9106 3.37141 14.9106H2.69516L2.69453 12.8819H3.37078C3.45578 12.8819 3.53203 12.8475 3.58766 12.7925C3.64328 12.7369 3.67766 12.6606 3.67766 12.575C3.67766 12.4063 3.54016 12.2694 3.37141 12.2694H2.69453V10.24H3.37203C3.45641 10.24 3.53266 10.2056 3.58828 10.1506C3.64453 10.0944 3.67828 10.0181 3.67828 9.93313C3.67828 9.76375 3.54141 9.6275 3.37266 9.6275L2.69516 9.62688V7.59813L3.37141 7.59875C3.45641 7.59875 3.53266 7.565 3.58828 7.50875C3.64391 7.45375 3.67828 7.37688 3.67828 7.2925C3.67891 7.12313 3.54078 6.98625 3.37203 6.98625L2.69578 6.98563V4.19813C2.69578 4.18 2.70141 4.1625 2.72328 4.14063C2.73078 4.13313 2.73953 4.12625 2.75078 4.1175C2.77766 4.105 2.81391 4.1125 2.83641 4.135L15.782 17.08C15.8064 17.1044 15.8139 17.1425 15.8014 17.1712C15.7889 17.2031 15.757 17.2231 15.7245 17.2244Z" fill="black"/>
<path d="M17.8297 13.1837L17.4197 12.7743L17.0578 10.5543C17.0472 10.4912 17.0178 10.4331 16.9722 10.3868L9.04781 2.46122C8.64844 2.06435 8.00094 2.06372 7.60344 2.46122L6.67469 3.38935C6.27719 3.78747 6.27781 4.4356 6.67594 4.83435L14.6009 12.7587C14.6466 12.8037 14.7053 12.8337 14.7684 12.845L16.9872 13.2069L17.3978 13.6168C17.5172 13.7362 17.7109 13.7362 17.8303 13.6168C17.9497 13.4975 17.9497 13.3031 17.8297 13.1837ZM16.3997 10.6812C16.3822 10.7212 16.3603 10.7593 16.3297 10.7906C16.3291 10.7912 16.3284 10.7912 16.3284 10.7912C16.1716 10.9487 16.0503 10.9818 15.9159 11.0181C15.8547 11.0337 15.7934 11.0512 15.7278 11.0806L8.94656 4.3006L9.48281 3.76435L16.3997 10.6812ZM7.10906 4.40122C6.94906 4.24185 6.94844 3.98247 7.10844 3.8231L8.03656 2.89435C8.19469 2.73685 8.45531 2.73685 8.61469 2.8956L9.05031 3.3306L8.29719 4.0831L7.54469 4.83622L7.10906 4.40122ZM15.2278 11.705C15.1934 11.8343 15.1622 11.9562 15.0028 12.1168C14.9709 12.1481 14.9347 12.1693 14.8947 12.1868L7.97844 5.26997L8.51406 4.73435L15.2934 11.5125C15.2634 11.5787 15.2453 11.6418 15.2278 11.705ZM15.5966 12.3593C15.7403 12.1593 15.7884 11.9843 15.8203 11.8593C15.8472 11.7612 15.8497 11.7487 15.9059 11.6931C15.9603 11.6387 15.9703 11.6362 16.0816 11.6068C16.2053 11.5731 16.3778 11.525 16.5722 11.385L16.7622 12.5487L15.5966 12.3593Z" fill="black"/>
</svg>
