<svg width="19" height="17" viewBox="0 0 19 17" fill="none" xmlns="http://www.w3.org/2000/svg">
<path d="M18.3281 10.083C18.0938 10.083 17.9062 10.2705 17.9062 10.5049V15.7502H0.84375V10.5049C0.84375 10.2705 0.65625 10.083 0.421875 10.083C0.1875 10.083 0 10.2705 0 10.5049V16.1721C0 16.4064 0.178125 16.5939 0.4125 16.5939H18.3375C18.5719 16.5939 18.75 16.4018 18.75 16.1721V10.5049C18.75 10.2705 18.5625 10.083 18.3281 10.083Z" fill="black"/>
<path d="M9.37617 0C9.1418 0 8.9543 0.1875 8.9543 0.421875V11.175L7.3043 9.525C7.14023 9.36094 6.87305 9.36094 6.70898 9.525C6.54492 9.68906 6.54492 9.95625 6.70898 10.1203L9.08086 12.4922C9.16523 12.5766 9.27305 12.6141 9.38086 12.6141C9.48867 12.6141 9.59648 12.5719 9.68086 12.4922L12.0527 10.1203C12.2168 9.95625 12.2168 9.68906 12.0527 9.525C11.8887 9.36094 11.6215 9.36094 11.4574 9.525L9.79805 11.175V0.421875C9.79805 0.192187 9.61055 0 9.37617 0Z" fill="black"/>
</svg>
