<svg width="12" height="12" viewBox="0 0 12 12" fill="none" xmlns="http://www.w3.org/2000/svg">
<path d="M11.8359 1.62125C11.6465 1.34246 11.4318 1.07633 11.1666 0.822885C10.9898 0.645471 10.7247 0.430039 10.3837 0.189262C9.96701 -0.102205 9.4114 -0.051515 9.05784 0.303314L1.15306 8.23628C1.11518 8.27429 1.08993 8.32498 1.06467 8.37567L0.0292211 11.303C-0.0339161 11.4931 0.00396618 11.7085 0.155495 11.8479C0.256515 11.9493 0.395417 12 0.521691 12C0.584828 12 0.635338 11.9873 0.698475 11.9747L3.62804 10.9482C3.67855 10.9355 3.72906 10.8975 3.76694 10.8595L11.697 2.90117C12.0379 2.55901 12.101 2.0141 11.8359 1.62125ZM1.59502 9.08533C2.10012 9.45284 2.54208 9.90904 2.9209 10.4159L1.60765 10.8848C1.55714 10.7961 1.48138 10.6947 1.40561 10.6187C1.31722 10.53 1.22883 10.4666 1.14044 10.4159L1.59502 9.08533ZM11.1792 2.3816L3.55228 10.0358C3.12294 9.42749 2.57996 8.89525 1.97385 8.45171L9.57556 0.822885C9.67658 0.721506 9.84074 0.708833 9.95438 0.79754C10.2574 1.01297 10.4974 1.19039 10.6363 1.34246C10.8636 1.57056 11.053 1.79867 11.2171 2.03944C11.2929 2.12815 11.2676 2.29289 11.1792 2.3816Z" fill="white"/>
</svg>
