<svg width="18" height="18" viewBox="0 0 18 18" fill="none" xmlns="http://www.w3.org/2000/svg">
<path d="M2.58289 15.4084L3.97528 12.6237C4.02335 12.5275 4.0866 12.4398 4.1626 12.3638L14.3407 2.18562C14.7313 1.7951 15.3644 1.7951 15.755 2.18562L17.3407 3.77141C17.7313 4.16193 17.7313 4.7951 17.3407 5.18562L6.72613 15.8002C6.60911 15.9173 6.46488 16.0034 6.30637 16.051L3.76467 16.8135C2.92526 17.0653 2.19097 16.1923 2.58289 15.4084Z" fill="#E7BDBD"/>
<path d="M17.4195 2.78134C17.1495 2.38534 16.8435 2.00734 16.4655 1.64734C16.2135 1.39534 15.8355 1.08934 15.3495 0.747344C14.7555 0.333344 13.9635 0.405344 13.4595 0.909344L2.19151 12.1773C2.13751 12.2313 2.10151 12.3033 2.06551 12.3753L0.589505 16.5333C0.499505 16.8033 0.553505 17.1093 0.769505 17.3073C0.913505 17.4513 1.11151 17.5233 1.29151 17.5233C1.38151 17.5233 1.45351 17.5053 1.54351 17.4873L5.71951 16.0293C5.79151 16.0113 5.86351 15.9573 5.91751 15.9033L17.2215 4.59934C17.7075 4.11334 17.7975 3.33934 17.4195 2.78134ZM2.82151 13.3833C3.54151 13.9053 4.17151 14.5533 4.71151 15.2733L2.83951 15.9393C2.76751 15.8133 2.65951 15.6693 2.55151 15.5613C2.42551 15.4353 2.29951 15.3453 2.17351 15.2733L2.82151 13.3833ZM16.4835 3.86134L5.61151 14.7333C4.99951 13.8693 4.22551 13.1133 3.36151 12.4833L14.1975 1.64734C14.3415 1.50334 14.5755 1.48534 14.7375 1.61134C15.1695 1.91734 15.5115 2.16934 15.7095 2.38534C16.0335 2.70934 16.3035 3.03334 16.5375 3.37534C16.6455 3.50134 16.6095 3.73534 16.4835 3.86134Z" fill="#3B4141"/>
</svg>
