<svg width="16" height="16" viewBox="0 0 16 16" fill="none" xmlns="http://www.w3.org/2000/svg">
<path d="M13.35 7.65L11.1 4.5L13.4 1.3C13.5 1.15 13.55 0.95 13.45 0.8C13.35 0.6 13.2 0.5 13 0.5H3C2.75 0.5 2.5 0.75 2.5 1V15C2.5 15.25 2.75 15.5 3 15.5C3.25 15.5 3.5 15.25 3.5 15V8.5H13C13.25 8.5 13.5 8.25 13.5 8C13.5 7.85 13.45 7.75 13.35 7.65ZM3.5 7.5V1.5H12.05L10.1 4.2C9.95 4.35 9.95 4.6 10.1 4.8L12.05 7.5H3.5Z" fill="black"/>
<path d="M3 8V1H13L10.5 4.5L13 8H3Z" fill="#FFC874" stroke="black"/>
</svg>
