<svg width="4" height="9" viewBox="0 0 4 9" fill="none" xmlns="http://www.w3.org/2000/svg">
<path d="M2.48309 1.95394C2.33136 1.95394 2.20184 1.89473 2.09452 1.77631C1.9872 1.65789 1.93354 1.51542 1.93354 1.34889C1.93354 1.17866 1.9872 1.03433 2.09452 0.915912C2.20184 0.797492 2.33136 0.738281 2.48309 0.738281C2.63482 0.738281 2.76434 0.797492 2.87166 0.915912C2.98268 1.03433 3.03819 1.17866 3.03819 1.34889C3.03819 1.51912 2.98268 1.66344 2.87166 1.78186C2.76434 1.89658 2.63482 1.95394 2.48309 1.95394ZM2.61631 3.1696C2.63852 3.18071 2.64777 3.19551 2.64407 3.21401L1.52277 7.1774C1.47096 7.38834 1.44506 7.51416 1.44506 7.55487C1.44506 7.61038 1.45616 7.65848 1.47836 7.69919C1.49686 7.7436 1.54312 7.7658 1.61714 7.7658C1.74296 7.7658 1.90949 7.65663 2.11673 7.4383C2.23885 7.30877 2.38872 7.12374 2.56635 6.8832L2.71068 7.00532L2.65517 7.08303C2.37762 7.4716 2.14818 7.751 1.96685 7.92123C1.6819 8.18768 1.40435 8.3209 1.1342 8.3209C0.975072 8.3209 0.841848 8.25429 0.734529 8.12106C0.630911 7.98784 0.579102 7.83056 0.579102 7.64923C0.579102 7.54191 0.586503 7.4494 0.601306 7.37168C0.616108 7.29027 0.643863 7.17185 0.68457 7.01642L1.46171 4.16323C1.47281 4.11882 1.48206 4.07811 1.48946 4.04111C1.49686 4.0041 1.50057 3.96709 1.50057 3.93009C1.50057 3.79686 1.45061 3.71545 1.35069 3.68584C1.25447 3.65254 1.06204 3.63588 0.773386 3.63588V3.4527C1.08054 3.4157 1.30073 3.38794 1.43395 3.36944C1.57088 3.34723 1.7078 3.32503 1.84473 3.30283C2.02236 3.27322 2.19074 3.23992 2.34987 3.20291C2.50899 3.1659 2.59781 3.1548 2.61631 3.1696Z" fill="#292727"/>
</svg>
