<svg width="19" height="19" viewBox="0 0 19 19" fill="none" xmlns="http://www.w3.org/2000/svg">
<path d="M17.9932 1.35028C18.0043 1.1872 17.9434 1.02728 17.8278 0.912491C17.7122 0.796908 17.5483 0.738324 17.3892 0.747824C17.0987 0.766032 11.4477 1.18957 7.14582 5.6807C6.04224 5.44162 2.65945 5.05053 0.894029 8.64945C0.817238 8.80541 0.816446 8.98749 0.892446 9.14503C0.967655 9.30178 1.11015 9.41499 1.27957 9.45299L4.70828 10.2185L8.53045 14.0407L9.29599 17.4678C9.33399 17.6372 9.4472 17.7805 9.60553 17.8549C9.68232 17.893 9.76624 17.9119 9.85015 17.9119C9.93645 17.9119 10.0219 17.8929 10.1003 17.8534C13.7143 16.08 13.3042 12.6759 13.0667 11.5873C17.5507 7.28699 17.9742 1.64082 17.9932 1.35028ZM16.0038 4.87795L13.8615 2.73728C15.0847 2.29553 16.1273 2.07466 16.7701 1.96937C16.6656 2.61299 16.4439 3.65562 16.0038 4.87795ZM6.27024 6.68057C5.7042 7.38437 5.17536 8.17366 4.69799 9.05399L2.27707 8.51328C3.47249 6.72174 5.22445 6.57607 6.27024 6.68057ZM12.7192 3.19962L15.5399 6.01953C14.4743 8.41116 12.5664 11.1867 9.14399 13.0503L5.68995 9.59549C7.55195 6.17312 10.3291 4.2652 12.7192 3.19962ZM10.2365 16.4719L9.69261 14.0383C10.5753 13.5594 11.3662 13.0282 12.0708 12.4597C12.184 13.5008 12.051 15.2646 10.2365 16.4719Z" fill="black"/>
<path d="M4.36424 11.5122C3.61849 11.5122 2.91707 11.8027 2.38982 12.33C1.53087 13.1897 -0.363593 16.4839 0.910199 17.7569C1.1952 18.0427 1.59737 18.1875 2.10482 18.1875C3.50132 18.1875 5.57707 17.0372 6.33787 16.2765C6.86591 15.7508 7.15645 15.0494 7.15645 14.3028C7.15645 13.5587 6.86591 12.8572 6.33787 12.33C5.81062 11.8027 5.10999 11.5122 4.36424 11.5122ZM5.53591 15.4753C4.91207 16.0983 3.12766 17.0539 2.10482 17.0539C1.91799 17.0539 1.7747 17.0175 1.71216 16.9549C1.25299 16.4965 2.30195 14.0226 3.19257 13.132C3.50528 12.8192 3.9217 12.6482 4.36424 12.6482C4.80678 12.6482 5.22241 12.82 5.53591 13.132C5.84862 13.4455 6.02041 13.8619 6.02041 14.3028C6.02041 14.7462 5.84862 15.1618 5.53591 15.4753Z" fill="black"/>
<path d="M12.0809 9.98543C12.5251 9.5413 12.7689 8.95072 12.7689 8.32372C12.7681 7.69593 12.5243 7.10455 12.0794 6.66043C11.6352 6.2163 11.0454 5.97168 10.4169 5.97168C9.78987 5.97168 9.19928 6.2163 8.75516 6.66043C8.31103 7.10455 8.06641 7.69514 8.06641 8.32372C8.06562 8.95072 8.31103 9.5413 8.75437 9.98543C9.19928 10.4296 9.78907 10.675 10.4169 10.675C11.0454 10.675 11.636 10.4296 12.0809 9.98543ZM9.20166 8.32372C9.20166 7.99835 9.32753 7.69276 9.55791 7.46318C9.78907 7.2328 10.0931 7.10614 10.4177 7.10614C10.743 7.10614 11.0486 7.2336 11.2782 7.46318C11.5078 7.69276 11.6352 7.99835 11.6352 8.32372C11.6352 8.6483 11.5078 8.9531 11.2782 9.18189C10.8182 9.64185 10.0179 9.64185 9.55791 9.18268C9.32753 8.95389 9.20166 8.6483 9.20166 8.32372Z" fill="black"/>
<path d="M4.4489 15.8812C4.63209 15.8812 4.7806 15.7327 4.7806 15.5495C4.7806 15.3663 4.63209 15.2178 4.4489 15.2178C4.2657 15.2178 4.11719 15.3663 4.11719 15.5495C4.11719 15.7327 4.2657 15.8812 4.4489 15.8812Z" fill="black"/>
<path d="M5.17823 15.1992C5.26481 15.1992 5.33498 15.1291 5.33498 15.0425C5.33498 14.9559 5.26481 14.8857 5.17823 14.8857C5.09166 14.8857 5.02148 14.9559 5.02148 15.0425C5.02148 15.1291 5.09166 15.1992 5.17823 15.1992Z" fill="black"/>
<path d="M4.97991 14.432C5.23525 14.432 5.44225 14.225 5.44225 13.9697C5.44225 13.7143 5.23525 13.5073 4.97991 13.5073C4.72457 13.5073 4.51758 13.7143 4.51758 13.9697C4.51758 14.225 4.72457 14.432 4.97991 14.432Z" fill="black"/>
</svg>
