<svg width="78" height="28" viewBox="0 0 78 28" fill="none" xmlns="http://www.w3.org/2000/svg">
<rect x="0.861328" y="0.554688" width="76.2069" height="26.8696" rx="13.4348" fill="#2196F3"/>
<path d="M46.0799 15.7795V16.8535H41.1479V8.23751H42.4259V15.7795H46.0799ZM48.3077 10.7575V16.8535H47.1377V10.7575H48.3077ZM48.5297 8.87352C48.5297 8.98152 48.5077 9.08552 48.4637 9.18551C48.4197 9.28152 48.3597 9.36752 48.2837 9.44352C48.2117 9.51552 48.1257 9.57352 48.0257 9.61752C47.9257 9.65752 47.8217 9.67752 47.7137 9.67752C47.6057 9.67752 47.5037 9.65752 47.4077 9.61752C47.3117 9.57352 47.2257 9.51552 47.1497 9.44352C47.0777 9.36752 47.0197 9.28152 46.9757 9.18551C46.9357 9.08552 46.9157 8.98152 46.9157 8.87352C46.9157 8.76152 46.9357 8.65752 46.9757 8.56152C47.0197 8.46152 47.0777 8.37552 47.1497 8.30352C47.2257 8.22751 47.3117 8.16951 47.4077 8.12951C47.5037 8.08552 47.6057 8.06352 47.7137 8.06352C47.8217 8.06352 47.9257 8.08552 48.0257 8.12951C48.1257 8.16951 48.2117 8.22751 48.2837 8.30352C48.3597 8.37552 48.4197 8.46152 48.4637 8.56152C48.5077 8.65752 48.5297 8.76152 48.5297 8.87352ZM55.2937 10.7575L52.8217 16.8535H51.7657L49.2937 10.7575H50.2597C50.3517 10.7575 50.4277 10.7795 50.4877 10.8235C50.5477 10.8675 50.5877 10.9235 50.6077 10.9915L52.0657 14.7355C52.1177 14.8915 52.1617 15.0475 52.1977 15.2035C52.2377 15.3555 52.2737 15.5075 52.3057 15.6595C52.3377 15.5075 52.3737 15.3555 52.4137 15.2035C52.4537 15.0515 52.5017 14.8955 52.5577 14.7355L54.0337 10.9915C54.0577 10.9235 54.0997 10.8675 54.1597 10.8235C54.2197 10.7795 54.2917 10.7575 54.3757 10.7575H55.2937ZM60.0866 13.1275C60.0866 12.8955 60.0526 12.6815 59.9846 12.4855C59.9206 12.2895 59.8246 12.1195 59.6966 11.9755C59.5686 11.8315 59.4126 11.7195 59.2286 11.6395C59.0446 11.5595 58.8326 11.5195 58.5926 11.5195C58.1006 11.5195 57.7126 11.6615 57.4286 11.9455C57.1486 12.2295 56.9706 12.6235 56.8946 13.1275H60.0866ZM61.0526 15.9835C60.9086 16.1515 60.7426 16.2975 60.5546 16.4215C60.3666 16.5415 60.1666 16.6395 59.9546 16.7155C59.7426 16.7915 59.5226 16.8475 59.2946 16.8835C59.0706 16.9195 58.8486 16.9375 58.6286 16.9375C58.2086 16.9375 57.8186 16.8675 57.4586 16.7275C57.1026 16.5835 56.7926 16.3755 56.5286 16.1035C56.2686 15.8275 56.0646 15.4875 55.9166 15.0835C55.7726 14.6755 55.7006 14.2075 55.7006 13.6795C55.7006 13.2555 55.7666 12.8615 55.8986 12.4975C56.0306 12.1295 56.2186 11.8095 56.4626 11.5375C56.7106 11.2655 57.0126 11.0515 57.3686 10.8955C57.7246 10.7395 58.1246 10.6615 58.5686 10.6615C58.9406 10.6615 59.2826 10.7235 59.5946 10.8475C59.9106 10.9675 60.1826 11.1435 60.4106 11.3755C60.6386 11.6075 60.8166 11.8935 60.9446 12.2335C61.0766 12.5735 61.1426 12.9615 61.1426 13.3975C61.1426 13.5775 61.1226 13.6995 61.0826 13.7635C61.0426 13.8235 60.9686 13.8535 60.8606 13.8535H56.8646C56.8766 14.2175 56.9286 14.5355 57.0206 14.8075C57.1126 15.0755 57.2386 15.2995 57.3986 15.4795C57.5626 15.6595 57.7566 15.7935 57.9806 15.8815C58.2046 15.9695 58.4546 16.0135 58.7306 16.0135C58.9906 16.0135 59.2146 15.9835 59.4026 15.9235C59.5946 15.8635 59.7586 15.7995 59.8946 15.7315C60.0346 15.6595 60.1506 15.5935 60.2426 15.5335C60.3386 15.4735 60.4226 15.4435 60.4946 15.4435C60.5906 15.4435 60.6646 15.4795 60.7166 15.5515L61.0526 15.9835Z" fill="white"/>
<path d="M29.8105 8.07812C33.5992 9.89485 34.8621 15.9506 29.8105 18.9785" stroke="white"/>
<path d="M19.8828 18.9785C16.0942 17.1618 14.8313 11.106 19.8828 8.07815" stroke="white"/>
<path d="M28.5488 10.5C30.7029 11.5093 31.4209 14.8736 28.5488 16.5558" stroke="white"/>
<path d="M21.1465 16.5566C18.9924 15.5473 18.2744 12.183 21.1465 10.5009" stroke="white"/>
<ellipse cx="24.7582" cy="13.5278" rx="2.52577" ry="2.4223" fill="white"/>
</svg>
