<svg width="346" height="38" viewBox="0 0 346 38" fill="none" xmlns="http://www.w3.org/2000/svg">
<path d="M8.89738 6.16338H8.09848C7.12141 6.16338 6.32935 6.95545 6.32935 7.93251V35.4915C6.32935 36.4686 7.12141 37.2607 8.09848 37.2607H8.89738C9.87444 37.2607 10.6665 36.4686 10.6665 35.4915V7.93251C10.6665 6.95545 9.87444 6.16338 8.89738 6.16338Z" fill="url(#paint0_linear_548_22461)"/>
<path d="M2.56803 0H1.76914C0.792069 0 0 0.792069 0 1.76914V35.4915C0 36.4686 0.792069 37.2607 1.76914 37.2607H2.56803C3.5451 37.2607 4.33717 36.4686 4.33717 35.4915V1.76914C4.33717 0.792069 3.5451 0 2.56803 0Z" fill="url(#paint1_linear_548_22461)"/>
<path d="M34.2148 6.16338H33.4159C32.4388 6.16338 31.6467 6.95545 31.6467 7.93251V35.4915C31.6467 36.4686 32.4388 37.2607 33.4159 37.2607H34.2148C35.1918 37.2607 35.9839 36.4686 35.9839 35.4915V7.93251C35.9839 6.95545 35.1918 6.16338 34.2148 6.16338Z" fill="url(#paint2_linear_548_22461)"/>
<path d="M40.5441 0H39.7452C38.7681 0 37.9761 0.792069 37.9761 1.76914V35.4915C37.9761 36.4686 38.7681 37.2607 39.7452 37.2607H40.5441C41.5212 37.2607 42.3132 36.4686 42.3132 35.4915V1.76914C42.3132 0.792069 41.5212 0 40.5441 0Z" fill="url(#paint3_linear_548_22461)"/>
<path d="M21.5561 18.494H20.7572C19.7801 18.494 18.988 19.2861 18.988 20.2632V35.4915C18.988 36.4686 19.7801 37.2607 20.7572 37.2607H21.5561C22.5331 37.2607 23.3252 36.4686 23.3252 35.4915V20.2632C23.3252 19.2861 22.5331 18.494 21.5561 18.494Z" fill="url(#paint4_linear_548_22461)"/>
<path d="M27.8854 12.37H27.0865C26.1095 12.37 25.3174 13.1621 25.3174 14.1392V35.4704C25.3174 36.4474 26.1095 37.2395 27.0865 37.2395H27.8854C28.8625 37.2395 29.6545 36.4474 29.6545 35.4704V14.1392C29.6545 13.1621 28.8625 12.37 27.8854 12.37Z" fill="url(#paint5_linear_548_22461)"/>
<path d="M15.2267 12.37H14.4278C13.4508 12.37 12.6587 13.1621 12.6587 14.1392V35.4704C12.6587 36.4474 13.4508 37.2395 14.4278 37.2395H15.2267C16.2038 37.2395 16.9959 36.4474 16.9959 35.4704V14.1392C16.9959 13.1621 16.2038 12.37 15.2267 12.37Z" fill="url(#paint6_linear_548_22461)"/>
<path d="M57.3577 37.2395C57.1208 37.2395 56.9256 37.1627 56.7719 37.0086C56.6173 36.855 56.541 36.6597 56.541 36.4223V13.2226C56.541 12.9624 56.6173 12.7552 56.7719 12.601C56.9256 12.4474 57.1208 12.3701 57.3577 12.3701H59.1342C59.4187 12.3701 59.6318 12.441 59.7745 12.5832C59.9163 12.7254 59.9986 12.8439 60.0223 12.9386L67.5541 27.2919L75.1216 12.9386C75.1692 12.8439 75.2584 12.7255 75.3883 12.5832C75.5182 12.4408 75.7263 12.3701 76.0099 12.3701H77.7516C78.0114 12.3701 78.2185 12.4474 78.3732 12.601C78.5268 12.7552 78.6041 12.9623 78.6041 13.2226V36.4221C78.6041 36.6596 78.5268 36.8549 78.3732 37.0085C78.2186 37.1627 78.0114 37.2394 77.7516 37.2394H76.0099C75.773 37.2394 75.5777 37.1625 75.4241 37.0085C75.2695 36.8549 75.1932 36.6596 75.1932 36.4221V18.9428L69.2603 30.5245C69.1651 30.7619 69.0234 30.9452 68.834 31.0756C68.6436 31.206 68.4077 31.2709 68.1233 31.2709H67.0219C66.7136 31.2709 66.4708 31.206 66.2933 31.0756C66.1159 30.9452 65.9672 30.7618 65.8492 30.5245L59.9163 18.9428V36.4221C59.9163 36.6596 59.839 36.8549 59.6854 37.0085C59.5308 37.1627 59.3354 37.2394 59.0996 37.2394H57.3579L57.3577 37.2395Z" fill="#292C4F"/>
<path d="M93.6674 37.5948C91.6541 37.5948 89.9243 37.2448 88.48 36.5465C87.0358 35.8482 85.9226 34.7701 85.1404 33.3134C84.3592 31.8568 83.9201 30.0273 83.826 27.8247C83.8021 26.7828 83.7903 25.7817 83.7903 24.8225C83.7903 23.8629 83.8021 22.8628 83.826 21.8204C83.9201 19.6415 84.3771 17.8235 85.1939 16.3668C86.0107 14.9102 87.1478 13.8212 88.605 13.0981C90.0612 12.3759 91.7493 12.0145 93.6674 12.0145C95.6093 12.0145 97.3094 12.3758 98.7656 13.0981C100.222 13.8212 101.365 14.9102 102.195 16.3668C103.023 17.8235 103.473 19.6415 103.544 21.8204C103.591 22.8627 103.615 23.8629 103.615 24.8225C103.615 25.7816 103.591 26.7828 103.544 27.8247C103.473 30.0273 103.041 31.8568 102.247 33.3134C101.453 34.7701 100.335 35.8482 98.8896 36.5465C97.4453 37.2448 95.7046 37.5948 93.6675 37.5948H93.6674ZM93.6674 34.5748C95.4913 34.5748 96.9774 34.0301 98.1262 32.9407C99.2741 31.8513 99.8967 30.0869 99.9908 27.6468C100.038 26.5812 100.062 25.628 100.062 24.787C100.062 23.9463 100.038 23.0051 99.9908 21.9628C99.9432 20.3281 99.642 19.0023 99.0858 17.9832C98.5287 16.9651 97.7882 16.2192 96.8654 15.7454C95.9415 15.2715 94.8749 15.0346 93.6675 15.0346C92.5067 15.0346 91.4649 15.2715 90.541 15.7454C89.6171 16.2192 88.8767 16.9651 88.3205 17.9832C87.7634 19.0023 87.4502 20.3281 87.3788 21.9628C87.355 23.0051 87.3431 23.9463 87.3431 24.787C87.3431 25.628 87.355 26.5812 87.3788 27.6468C87.4729 30.0869 88.1015 31.8513 89.2622 32.9407C90.422 34.0301 91.8911 34.5748 93.6674 34.5748Z" fill="#292C4F"/>
<path d="M109.618 37.2395C109.358 37.2395 109.156 37.1627 109.015 37.0086C108.873 36.855 108.802 36.6597 108.802 36.4223V13.2226C108.802 12.9624 108.873 12.7552 109.015 12.601C109.156 12.4474 109.358 12.3701 109.618 12.3701H119.354C121.13 12.3701 122.58 12.6605 123.706 13.2404C124.831 13.8213 125.659 14.6083 126.193 15.6032C126.725 16.5979 126.992 17.7116 126.992 18.9428C126.992 19.9142 126.832 20.7489 126.512 21.4473C126.193 22.1462 125.795 22.7147 125.322 23.1529C124.848 23.5916 124.387 23.929 123.937 24.1655C124.861 24.6155 125.683 25.3501 126.406 26.3681C127.128 27.3866 127.489 28.6184 127.489 30.0632C127.489 31.3657 127.193 32.5622 126.601 33.6511C126.009 34.7411 125.127 35.6114 123.955 36.2626C122.782 36.9144 121.331 37.2395 119.602 37.2395H109.619H109.618ZM112.283 22.8862H118.82C120.336 22.8862 121.485 22.5373 122.266 21.8384C123.048 21.1401 123.439 20.1865 123.439 18.978C123.439 17.7696 123.048 16.8467 122.266 16.2069C121.485 15.5675 120.336 15.2479 118.82 15.2479H112.283V22.8862ZM112.283 34.3618H119.141C120.679 34.3618 121.864 33.9475 122.693 33.1183C123.522 32.2896 123.936 31.271 123.936 30.0632C123.936 28.8077 123.522 27.7713 122.693 26.9545C121.864 26.1372 120.679 25.7287 119.141 25.7287H112.283V34.3618Z" fill="#292C4F"/>
<path d="M133.351 37.2395C133.09 37.2395 132.889 37.1627 132.747 37.0086C132.605 36.855 132.534 36.6597 132.534 36.4223V13.1873C132.534 12.9509 132.605 12.7552 132.747 12.601C132.889 12.4474 133.09 12.3701 133.351 12.3701H135.234C135.47 12.3701 135.666 12.4474 135.82 12.601C135.974 12.7552 136.051 12.951 136.051 13.1873V36.4221C136.051 36.6596 135.974 36.8549 135.82 37.0085C135.666 37.1627 135.47 37.2394 135.234 37.2394H133.351V37.2395Z" fill="#292C4F"/>
<path d="M143.05 37.2395C142.789 37.2395 142.588 37.1627 142.446 37.0086C142.304 36.855 142.233 36.6597 142.233 36.4223V13.1873C142.233 12.9509 142.304 12.7552 142.446 12.601C142.588 12.4474 142.789 12.3701 143.05 12.3701H144.933C145.169 12.3701 145.359 12.4474 145.501 12.601C145.644 12.7552 145.714 12.951 145.714 13.1873V34.1486H157.545C157.806 34.1486 158.007 34.2259 158.149 34.3796C158.291 34.5337 158.362 34.7409 158.362 35.0011V36.4221C158.362 36.6596 158.291 36.8549 158.149 37.0085C158.007 37.1627 157.806 37.2394 157.545 37.2394H143.049L143.05 37.2395Z" fill="#292C4F"/>
<path d="M163.051 37.2395C162.79 37.2395 162.589 37.1627 162.447 37.0086C162.305 36.855 162.234 36.6597 162.234 36.4223V13.2226C162.234 12.9624 162.305 12.7552 162.447 12.601C162.589 12.4474 162.79 12.3701 163.051 12.3701H177.724C177.984 12.3701 178.186 12.4474 178.328 12.601C178.47 12.7552 178.542 12.9623 178.542 13.2226V14.5727C178.542 14.8338 178.47 15.0346 178.328 15.1769C178.186 15.3186 177.984 15.39 177.724 15.39H165.645V23.1706H176.943C177.202 23.1706 177.405 23.2475 177.546 23.4015C177.688 23.5556 177.759 23.7628 177.759 24.0231V25.3375C177.759 25.5744 177.688 25.7703 177.546 25.9239C177.405 26.078 177.202 26.1548 176.943 26.1548H165.645V34.2194H178.008C178.269 34.2194 178.47 34.2907 178.612 34.4325C178.755 34.5747 178.825 34.7765 178.825 35.0367V36.422C178.825 36.6595 178.755 36.8547 178.612 37.0084C178.47 37.1625 178.269 37.2393 178.008 37.2393H163.051L163.051 37.2395Z" fill="#292C4F"/>
<path d="M197.833 37.2395C197.596 37.2395 197.401 37.1627 197.247 37.0086C197.093 36.855 197.016 36.6597 197.016 36.4223V15.5323H190.194C189.957 15.5323 189.762 15.4554 189.608 15.3013C189.454 15.1472 189.377 14.9519 189.377 14.715V13.2226C189.377 12.9624 189.454 12.7552 189.608 12.601C189.762 12.4474 189.957 12.3701 190.194 12.3701H207.319C207.579 12.3701 207.786 12.4474 207.94 12.601C208.095 12.7552 208.171 12.9623 208.171 13.2226V14.715C208.171 14.9519 208.095 15.1472 207.94 15.3013C207.787 15.4555 207.579 15.5323 207.319 15.5323H200.533V36.4221C200.533 36.6596 200.456 36.8549 200.302 37.0085C200.148 37.1627 199.941 37.2394 199.681 37.2394H197.833L197.833 37.2395Z" fill="#292C4F"/>
<path d="M220.536 37.5948C218.522 37.5948 216.792 37.2448 215.348 36.5465C213.904 35.8482 212.791 34.7701 212.009 33.3134C211.227 31.8568 210.788 30.0273 210.694 27.8247C210.67 26.7828 210.658 25.7817 210.658 24.8225C210.658 23.8629 210.67 22.8628 210.694 21.8204C210.788 19.6415 211.245 17.8235 212.062 16.3668C212.879 14.9102 214.016 13.8212 215.473 13.0981C216.929 12.3759 218.617 12.0145 220.536 12.0145C222.477 12.0145 224.178 12.3758 225.634 13.0981C227.09 13.8212 228.233 14.9102 229.063 16.3668C229.891 17.8235 230.342 19.6415 230.412 21.8204C230.459 22.8627 230.483 23.8629 230.483 24.8225C230.483 25.7816 230.459 26.7828 230.412 27.8247C230.342 30.0273 229.909 31.8568 229.115 33.3134C228.321 34.7701 227.203 35.8482 225.758 36.5465C224.313 37.2448 222.573 37.5948 220.536 37.5948H220.536ZM220.536 34.5748C222.36 34.5748 223.846 34.0301 224.994 32.9407C226.142 31.8513 226.765 30.0869 226.859 27.6468C226.907 26.5812 226.93 25.628 226.93 24.787C226.93 23.9463 226.907 23.0051 226.859 21.9628C226.811 20.3281 226.51 19.0023 225.954 17.9832C225.397 16.9651 224.656 16.2192 223.734 15.7454C222.81 15.2715 221.743 15.0346 220.536 15.0346C219.375 15.0346 218.333 15.2715 217.409 15.7454C216.485 16.2192 215.745 16.9651 215.189 17.9832C214.632 19.0023 214.318 20.3281 214.247 21.9628C214.223 23.0051 214.211 23.9463 214.211 24.787C214.211 25.628 214.223 26.5812 214.247 27.6468C214.341 30.0869 214.97 31.8513 216.13 32.9407C217.29 34.0301 218.759 34.5748 220.536 34.5748Z" fill="#292C4F"/>
<path d="M244.587 37.5948C242.574 37.5948 240.844 37.2448 239.4 36.5465C237.955 35.8482 236.842 34.7701 236.06 33.3134C235.279 31.8568 234.84 30.0273 234.746 27.8247C234.722 26.7828 234.71 25.7817 234.71 24.8225C234.71 23.8629 234.722 22.8628 234.746 21.8204C234.84 19.6415 235.297 17.8235 236.114 16.3668C236.93 14.9102 238.067 13.8212 239.525 13.0981C240.981 12.3759 242.669 12.0145 244.587 12.0145C246.529 12.0145 248.229 12.3758 249.685 13.0981C251.142 13.8212 252.284 14.9102 253.114 16.3668C253.943 17.8235 254.393 19.6415 254.463 21.8204C254.511 22.8627 254.535 23.8629 254.535 24.8225C254.535 25.7816 254.511 26.7828 254.463 27.8247C254.393 30.0273 253.961 31.8568 253.167 33.3134C252.373 34.7701 251.255 35.8482 249.809 36.5465C248.365 37.2448 246.624 37.5948 244.587 37.5948H244.587ZM244.587 34.5748C246.411 34.5748 247.897 34.0301 249.046 32.9407C250.194 31.8513 250.816 30.0869 250.911 27.6468C250.958 26.5812 250.982 25.628 250.982 24.787C250.982 23.9463 250.958 23.0051 250.911 21.9628C250.863 20.3281 250.562 19.0023 250.006 17.9832C249.448 16.9651 248.708 16.2192 247.785 15.7454C246.861 15.2715 245.795 15.0346 244.587 15.0346C243.426 15.0346 242.385 15.2715 241.461 15.7454C240.537 16.2192 239.796 16.9651 239.24 17.9832C238.683 19.0023 238.37 20.3281 238.298 21.9628C238.275 23.0051 238.263 23.9463 238.263 24.787C238.263 25.628 238.275 26.5812 238.298 27.6468C238.393 30.0869 239.021 31.8513 240.182 32.9407C241.342 34.0301 242.811 34.5748 244.587 34.5748Z" fill="#292C4F"/>
<path d="M260.538 37.2395C260.277 37.2395 260.076 37.1627 259.934 37.0086C259.792 36.855 259.721 36.6597 259.721 36.4223V13.1873C259.721 12.9509 259.792 12.7552 259.934 12.601C260.076 12.4474 260.277 12.3701 260.538 12.3701H262.421C262.657 12.3701 262.847 12.4474 262.989 12.601C263.132 12.7552 263.202 12.951 263.202 13.1873V34.1486H275.033C275.294 34.1486 275.495 34.2259 275.637 34.3796C275.78 34.5337 275.85 34.7409 275.85 35.0011V36.4221C275.85 36.6596 275.78 36.8549 275.637 37.0085C275.495 37.1627 275.294 37.2394 275.033 37.2394H260.538L260.538 37.2395Z" fill="#292C4F"/>
<path d="M280.539 37.2395C280.278 37.2395 280.077 37.1627 279.935 37.0086C279.793 36.855 279.722 36.6597 279.722 36.4223V13.2226C279.722 12.9624 279.793 12.7552 279.935 12.601C280.077 12.4474 280.278 12.3701 280.539 12.3701H290.274C292.051 12.3701 293.501 12.6605 294.626 13.2404C295.751 13.8213 296.58 14.6083 297.113 15.6032C297.646 16.5979 297.912 17.7116 297.912 18.9428C297.912 19.9142 297.753 20.7489 297.433 21.4473C297.113 22.1462 296.716 22.7147 296.243 23.1529C295.768 23.5916 295.307 23.929 294.857 24.1655C295.781 24.6155 296.604 25.3501 297.327 26.3681C298.048 27.3866 298.41 28.6184 298.41 30.0632C298.41 31.3657 298.114 32.5622 297.522 33.6511C296.929 34.7411 296.048 35.6114 294.875 36.2626C293.702 36.9144 292.251 37.2395 290.522 37.2395H280.539H280.539ZM283.204 22.8862H289.741C291.257 22.8862 292.406 22.5373 293.187 21.8384C293.969 21.1401 294.36 20.1865 294.36 18.978C294.36 17.7696 293.969 16.8467 293.187 16.2069C292.406 15.5675 291.257 15.2479 289.741 15.2479H283.204V22.8862ZM283.204 34.3618H290.061C291.6 34.3618 292.784 33.9475 293.614 33.1183C294.443 32.2896 294.857 31.271 294.857 30.0632C294.857 28.8077 294.443 27.7713 293.614 26.9545C292.784 26.1372 291.6 25.7287 290.061 25.7287H283.204V34.3618Z" fill="#292C4F"/>
<path d="M312.372 37.5948C310.359 37.5948 308.629 37.2448 307.185 36.5465C305.741 35.8482 304.627 34.7701 303.845 33.3134C303.064 31.8568 302.625 30.0273 302.531 27.8247C302.507 26.7828 302.495 25.7817 302.495 24.8225C302.495 23.8629 302.507 22.8628 302.531 21.8204C302.625 19.6415 303.082 17.8235 303.899 16.3668C304.716 14.9102 305.853 13.8212 307.31 13.0981C308.766 12.3759 310.454 12.0145 312.372 12.0145C314.314 12.0145 316.014 12.3758 317.47 13.0981C318.927 13.8212 320.07 14.9102 320.899 16.3668C321.728 17.8235 322.178 19.6415 322.249 21.8204C322.296 22.8627 322.32 23.8629 322.32 24.8225C322.32 25.7816 322.296 26.7828 322.249 27.8247C322.178 30.0273 321.746 31.8568 320.952 33.3134C320.158 34.7701 319.04 35.8482 317.594 36.5465C316.15 37.2448 314.409 37.5948 312.372 37.5948H312.372ZM312.372 34.5748C314.196 34.5748 315.682 34.0301 316.831 32.9407C317.979 31.8513 318.602 30.0869 318.696 27.6468C318.743 26.5812 318.767 25.628 318.767 24.787C318.767 23.9463 318.743 23.0051 318.696 21.9628C318.648 20.3281 318.347 19.0023 317.791 17.9832C317.234 16.9651 316.493 16.2192 315.57 15.7454C314.646 15.2715 313.58 15.0346 312.372 15.0346C311.212 15.0346 310.17 15.2715 309.246 15.7454C308.322 16.2192 307.582 16.9651 307.025 17.9832C306.468 19.0023 306.155 20.3281 306.084 21.9628C306.06 23.0051 306.048 23.9463 306.048 24.787C306.048 25.628 306.06 26.5812 306.084 27.6468C306.178 30.0869 306.806 31.8513 307.967 32.9407C309.127 34.0301 310.596 34.5748 312.372 34.5748Z" fill="#292C4F"/>
<path d="M325.197 37.2395C325.006 37.2395 324.835 37.1686 324.681 37.0264C324.527 36.8842 324.45 36.7186 324.45 36.5288C324.45 36.4346 324.468 36.3459 324.504 36.2626C324.539 36.1799 324.568 36.1149 324.593 36.0674L332.728 24.5917L324.983 13.5423C324.912 13.4005 324.876 13.2464 324.876 13.0809C324.876 12.8916 324.948 12.7255 325.089 12.5833C325.232 12.4411 325.398 12.3702 325.587 12.3702H327.718C327.955 12.3702 328.146 12.4237 328.287 12.5302C328.429 12.6368 328.559 12.785 328.678 12.9744L334.931 21.8562L341.148 12.9744C341.242 12.7851 341.367 12.6368 341.521 12.5302C341.675 12.4237 341.859 12.3702 342.072 12.3702H344.097C344.287 12.3702 344.452 12.4411 344.594 12.5833C344.737 12.7255 344.807 12.8916 344.807 13.0809C344.807 13.2465 344.759 13.4005 344.665 13.5423L337.027 24.6274L345.127 36.0673C345.175 36.1149 345.21 36.1798 345.234 36.2625C345.257 36.3458 345.269 36.4345 345.269 36.5287C345.269 36.7185 345.199 36.8841 345.056 37.0263C344.914 37.1685 344.737 37.2394 344.524 37.2394H342.357C342.143 37.2394 341.959 37.1805 341.805 37.062C341.651 36.9435 341.515 36.8131 341.397 36.6709L334.789 27.4336L328.216 36.6709C328.097 36.8131 327.967 36.9435 327.825 37.062C327.684 37.1805 327.493 37.2394 327.257 37.2394H325.197V37.2395Z" fill="#292C4F"/>
<defs>
<linearGradient id="paint0_linear_548_22461" x1="-2.99439" y1="21.712" x2="45.5298" y2="21.712" gradientUnits="userSpaceOnUse">
<stop stop-color="#D31E4B"/>
<stop offset="0.0478" stop-color="#CF2452"/>
<stop offset="0.1179" stop-color="#C53765"/>
<stop offset="0.2015" stop-color="#B55685"/>
<stop offset="0.295" stop-color="#9F80B2"/>
<stop offset="0.3415" stop-color="#9398CB"/>
<stop offset="0.4104" stop-color="#7E99CE"/>
<stop offset="0.5515" stop-color="#489ED5"/>
<stop offset="0.6529" stop-color="#1FA2DC"/>
<stop offset="0.7131" stop-color="#2BA3B4"/>
<stop offset="0.7932" stop-color="#39A685"/>
<stop offset="0.8643" stop-color="#43A763"/>
<stop offset="0.9229" stop-color="#49A84E"/>
<stop offset="0.9617" stop-color="#4CA947"/>
</linearGradient>
<linearGradient id="paint1_linear_548_22461" x1="-3.05261" y1="18.6304" x2="45.4663" y2="18.6304" gradientUnits="userSpaceOnUse">
<stop stop-color="#D31E4B"/>
<stop offset="0.0473" stop-color="#CF2452"/>
<stop offset="0.1165" stop-color="#C53765"/>
<stop offset="0.1992" stop-color="#B55685"/>
<stop offset="0.2916" stop-color="#9F80B2"/>
<stop offset="0.3375" stop-color="#9398CB"/>
<stop offset="0.4078" stop-color="#7E99CE"/>
<stop offset="0.5519" stop-color="#489ED5"/>
<stop offset="0.6554" stop-color="#1FA2DC"/>
<stop offset="0.715" stop-color="#2BA3B4"/>
<stop offset="0.7946" stop-color="#39A685"/>
<stop offset="0.8651" stop-color="#43A763"/>
<stop offset="0.9232" stop-color="#49A84E"/>
<stop offset="0.9617" stop-color="#4CA947"/>
</linearGradient>
<linearGradient id="paint2_linear_548_22461" x1="-1.22406" y1="21.712" x2="43.891" y2="21.712" gradientUnits="userSpaceOnUse">
<stop stop-color="#D31E4B"/>
<stop offset="0.05" stop-color="#CF2452"/>
<stop offset="0.1233" stop-color="#C53765"/>
<stop offset="0.2108" stop-color="#B55685"/>
<stop offset="0.3086" stop-color="#9F80B2"/>
<stop offset="0.3572" stop-color="#9398CB"/>
<stop offset="0.4238" stop-color="#7E99CE"/>
<stop offset="0.5605" stop-color="#489ED5"/>
<stop offset="0.6587" stop-color="#1FA2DC"/>
<stop offset="0.7177" stop-color="#2BA3B4"/>
<stop offset="0.7964" stop-color="#39A685"/>
<stop offset="0.8661" stop-color="#43A763"/>
<stop offset="0.9236" stop-color="#49A84E"/>
<stop offset="0.9617" stop-color="#4CA947"/>
</linearGradient>
<linearGradient id="paint3_linear_548_22461" x1="-1.22401" y1="18.6304" x2="43.8909" y2="18.6304" gradientUnits="userSpaceOnUse">
<stop stop-color="#D31E4B"/>
<stop offset="0.05" stop-color="#CF2452"/>
<stop offset="0.1233" stop-color="#C53765"/>
<stop offset="0.2108" stop-color="#B55685"/>
<stop offset="0.3086" stop-color="#9F80B2"/>
<stop offset="0.3572" stop-color="#9398CB"/>
<stop offset="0.4238" stop-color="#7E99CE"/>
<stop offset="0.5605" stop-color="#489ED5"/>
<stop offset="0.6587" stop-color="#1FA2DC"/>
<stop offset="0.7177" stop-color="#2BA3B4"/>
<stop offset="0.7964" stop-color="#39A685"/>
<stop offset="0.8661" stop-color="#43A763"/>
<stop offset="0.9236" stop-color="#49A84E"/>
<stop offset="0.9617" stop-color="#4CA947"/>
</linearGradient>
<linearGradient id="paint4_linear_548_22461" x1="-2.76401" y1="27.8774" x2="45.5556" y2="27.8774" gradientUnits="userSpaceOnUse">
<stop stop-color="#D31E4B"/>
<stop offset="0.0472" stop-color="#CF2452"/>
<stop offset="0.1164" stop-color="#C53765"/>
<stop offset="0.199" stop-color="#B55685"/>
<stop offset="0.2913" stop-color="#9F80B2"/>
<stop offset="0.3372" stop-color="#9398CB"/>
<stop offset="0.4065" stop-color="#7E99CE"/>
<stop offset="0.5485" stop-color="#489ED5"/>
<stop offset="0.6505" stop-color="#1FA2DC"/>
<stop offset="0.7111" stop-color="#2BA3B4"/>
<stop offset="0.7919" stop-color="#39A685"/>
<stop offset="0.8636" stop-color="#43A763"/>
<stop offset="0.9226" stop-color="#49A84E"/>
<stop offset="0.9617" stop-color="#4CA947"/>
</linearGradient>
<linearGradient id="paint5_linear_548_22461" x1="-1.22412" y1="24.8048" x2="43.8908" y2="24.8048" gradientUnits="userSpaceOnUse">
<stop stop-color="#D31E4B"/>
<stop offset="0.05" stop-color="#CF2452"/>
<stop offset="0.1233" stop-color="#C53765"/>
<stop offset="0.2108" stop-color="#B55685"/>
<stop offset="0.3086" stop-color="#9F80B2"/>
<stop offset="0.3572" stop-color="#9398CB"/>
<stop offset="0.4238" stop-color="#7E99CE"/>
<stop offset="0.5605" stop-color="#489ED5"/>
<stop offset="0.6587" stop-color="#1FA2DC"/>
<stop offset="0.7177" stop-color="#2BA3B4"/>
<stop offset="0.7964" stop-color="#39A685"/>
<stop offset="0.8661" stop-color="#43A763"/>
<stop offset="0.9236" stop-color="#49A84E"/>
<stop offset="0.9617" stop-color="#4CA947"/>
</linearGradient>
<linearGradient id="paint6_linear_548_22461" x1="-2.87159" y1="24.8048" x2="45.4814" y2="24.8048" gradientUnits="userSpaceOnUse">
<stop stop-color="#D31E4B"/>
<stop offset="0.0472" stop-color="#CF2452"/>
<stop offset="0.1163" stop-color="#C53765"/>
<stop offset="0.1988" stop-color="#B55685"/>
<stop offset="0.291" stop-color="#9F80B2"/>
<stop offset="0.3369" stop-color="#9398CB"/>
<stop offset="0.4062" stop-color="#7E99CE"/>
<stop offset="0.5482" stop-color="#489ED5"/>
<stop offset="0.6503" stop-color="#1FA2DC"/>
<stop offset="0.7109" stop-color="#2BA3B4"/>
<stop offset="0.7918" stop-color="#39A685"/>
<stop offset="0.8635" stop-color="#43A763"/>
<stop offset="0.9225" stop-color="#49A84E"/>
<stop offset="0.9617" stop-color="#4CA947"/>
</linearGradient>
</defs>
</svg>
