<?xml version="1.0" encoding="utf-8"?>
<svg width="190px" height="28" viewBox="0 0 190 28" fill="none" xmlns="http://www.w3.org/2000/svg" xmlns:xlink="http://www.w3.org/1999/xlink">
  <defs>
    <linearGradient id="linear-gradient" x1="-5.1624" y1="35.0305" x2="108.9032" y2="34.4405" gradientUnits="userSpaceOnUse">
      <stop offset="0" stop-color="#d31e4b"/>
      <stop offset="0.05" stop-color="#cf2452"/>
      <stop offset="0.1233" stop-color="#c53765"/>
      <stop offset="0.2108" stop-color="#b55685"/>
      <stop offset="0.3086" stop-color="#9f80b2"/>
      <stop offset="0.3572" stop-color="#9398cb"/>
      <stop offset="0.4238" stop-color="#7e99ce"/>
      <stop offset="0.5605" stop-color="#489ed5"/>
      <stop offset="0.6587" stop-color="#1fa2dc"/>
      <stop offset="0.7177" stop-color="#2ba3b4"/>
      <stop offset="0.7964" stop-color="#39a685"/>
      <stop offset="0.8661" stop-color="#43a763"/>
      <stop offset="0.9236" stop-color="#49a84e"/>
      <stop offset="0.9617" stop-color="#4ca947"/>
    </linearGradient>
    <linearGradient id="linear-gradient-2" x1="-5.1879" y1="30.1029" x2="108.8777" y2="29.513" xlink:href="#linear-gradient"/>
    <linearGradient id="linear-gradient-3" x1="-5.2133" y1="25.1959" x2="108.8523" y2="24.606" xlink:href="#linear-gradient"/>
    <linearGradient id="linear-gradient-4" x1="-5.1611" y1="35.2735" x2="108.9044" y2="34.6835" xlink:href="#linear-gradient"/>
    <linearGradient id="linear-gradient-5" x1="-5.187" y1="30.2706" x2="108.8786" y2="29.6807" xlink:href="#linear-gradient"/>
    <linearGradient id="linear-gradient-6" x1="-5.2128" y1="25.2883" x2="108.8528" y2="24.6984" xlink:href="#linear-gradient"/>
    <linearGradient id="linear-gradient-7" x1="-5.1826" y1="31.1218" x2="108.883" y2="30.5318" xlink:href="#linear-gradient"/>
    <linearGradient id="linear-gradient-8" x1="-5.1612" y1="35.2568" x2="108.9044" y2="34.6668" xlink:href="#linear-gradient"/>
    <linearGradient id="linear-gradient-9" x1="-5.1867" y1="30.3293" x2="108.8789" y2="29.7393" xlink:href="#linear-gradient"/>
    <linearGradient id="linear-gradient-10" x1="-5.2121" y1="25.4223" x2="108.8535" y2="24.8323" xlink:href="#linear-gradient"/>
    <linearGradient id="linear-gradient-11" x1="-5.16" y1="35.4998" x2="108.9056" y2="34.9099" xlink:href="#linear-gradient"/>
    <linearGradient id="linear-gradient-12" x1="-5.1858" y1="30.497" x2="108.8797" y2="29.907" xlink:href="#linear-gradient"/>
    <linearGradient id="linear-gradient-13" x1="-5.2116" y1="25.5147" x2="108.854" y2="24.9247" xlink:href="#linear-gradient"/>
    <linearGradient id="linear-gradient-14" x1="-5.1897" y1="29.7454" x2="108.8758" y2="29.1554" xlink:href="#linear-gradient"/>
    <linearGradient id="linear-gradient-15" x1="-5.1879" y1="30.1029" x2="108.8777" y2="29.513" xlink:href="#linear-gradient"/>
    <linearGradient id="linear-gradient-16" x1="-5.2133" y1="25.1959" x2="108.8523" y2="24.606" xlink:href="#linear-gradient"/>
    <linearGradient id="linear-gradient-17" x1="-5.1611" y1="35.2735" x2="108.9044" y2="34.6835" xlink:href="#linear-gradient"/>
    <linearGradient id="linear-gradient-18" x1="-5.187" y1="30.2706" x2="108.8786" y2="29.6807" xlink:href="#linear-gradient"/>
    <linearGradient id="linear-gradient-19" x1="-5.2128" y1="25.2883" x2="108.8528" y2="24.6984" xlink:href="#linear-gradient"/>
    <linearGradient id="linear-gradient-20" x1="-5.1989" y1="27.8269" x2="108.8668" y2="27.237" xlink:href="#linear-gradient"/>
    <linearGradient id="linear-gradient-21" x1="-5.1612" y1="35.2568" x2="108.9044" y2="34.6668" xlink:href="#linear-gradient"/>
    <linearGradient id="linear-gradient-22" x1="-5.1867" y1="30.3293" x2="108.8789" y2="29.7393" xlink:href="#linear-gradient"/>
    <linearGradient id="linear-gradient-23" x1="-5.2121" y1="25.4223" x2="108.8535" y2="24.8323" xlink:href="#linear-gradient"/>
    <linearGradient id="linear-gradient-24" x1="-5.16" y1="35.4998" x2="108.9056" y2="34.9099" xlink:href="#linear-gradient"/>
    <linearGradient id="linear-gradient-25" x1="-5.1858" y1="30.497" x2="108.8797" y2="29.907" xlink:href="#linear-gradient"/>
    <linearGradient id="linear-gradient-26" x1="-5.2116" y1="25.5147" x2="108.854" y2="24.9247" xlink:href="#linear-gradient"/>
    <linearGradient id="linear-gradient-27" x1="-5.1975" y1="28.1097" x2="108.8682" y2="27.5198" xlink:href="#linear-gradient"/>
  </defs>
  <g id="Layer_1-2" transform="matrix(0.506126, 0, 0, 0.506127, 0, 0.000026)">
    <path d="m1.9678,27.4791c-1.0868,0-1.9678,1.0881-1.9678,2.4302v10.1686c0,1.3421.881,2.4302,1.9678,2.4302s1.9678-1.0881,1.9678-2.4302v-10.1686c0-1.3421-.881-2.4302-1.9678-2.4302Z" fill="url(#linear-gradient)" stroke-width="0"/>
    <path d="m9.2494,17.5485h0c-1.0868,0-1.9678,1.0881-1.9678,2.4302v20.0992c0,1.3421.881,2.4302,1.9678,2.4302h0c1.0868,0,1.9678-1.0881,1.9678-2.4302v-20.0992c0-1.3421-.881-2.4302-1.9678-2.4302Z" fill="url(#linear-gradient-2)" stroke-width="0"/>
    <path d="m16.5309,7.6589c-1.0868,0-1.9678,1.088-1.9678,2.4302v29.9888c0,1.3421.881,2.4302,1.9678,2.4302s1.9678-1.0881,1.9678-2.4302V10.0891c0-1.3422-.881-2.4302-1.9678-2.4302Z" fill="url(#linear-gradient-3)" stroke-width="0"/>
    <path d="m48.9559,27.4791c1.0868,0,1.9678,1.0881,1.9678,2.4302v10.1686c0,1.3421-.881,2.4302-1.9678,2.4302s-1.9678-1.0881-1.9678-2.4302v-10.1686c0-1.3421.881-2.4302,1.9678-2.4302Z" fill="url(#linear-gradient-4)" stroke-width="0"/>
    <path d="m41.6742,17.5485h0c1.0868,0,1.9678,1.0881,1.9678,2.4302v20.0992c0,1.3421-.881,2.4302-1.9678,2.4302h0c-1.0868,0-1.9678-1.0881-1.9678-2.4302v-20.0992c0-1.3421.881-2.4302,1.9678-2.4302Z" fill="url(#linear-gradient-5)" stroke-width="0"/>
    <path d="m34.3927,7.6589c1.0868,0,1.9678,1.088,1.9678,2.4302v29.9888c0,1.3421-.881,2.4302-1.9678,2.4302s-1.9678-1.0881-1.9678-2.4302V10.0891c0-1.3422.881-2.4302,1.9678-2.4302Z" fill="url(#linear-gradient-6)" stroke-width="0"/>
    <path d="m23.285,8.6523l-2.3802,44.0991c-.0749,1.3875.7145,2.5706,1.7152,2.5706h5.6836c1.0007,0,1.7901-1.1831,1.7152-2.5706l-2.3802-44.0991c-.1484-2.75-4.2051-2.75-4.3536,0Z" fill="url(#linear-gradient-7)" stroke-width="0"/>
    <path d="m56.5383,27.4232c-1.0868,0-1.9678,1.0881-1.9678,2.4302v10.1686c0,1.3421.881,2.4302,1.9678,2.4302s1.9678-1.0881,1.9678-2.4302v-10.1686c0-1.3421-.881-2.4302-1.9678-2.4302Z" fill="url(#linear-gradient-8)" stroke-width="0"/>
    <path d="m63.8199,17.4926h0c-1.0868,0-1.9678,1.0881-1.9678,2.4302v20.0992c0,1.3421.881,2.4302,1.9678,2.4302h0c1.0868,0,1.9678-1.0881,1.9678-2.4302v-20.0992c0-1.3421-.881-2.4302-1.9678-2.4302Z" fill="url(#linear-gradient-9)" stroke-width="0"/>
    <path d="m71.1014,7.603c-1.0868,0-1.9678,1.088-1.9678,2.4302v29.9888c0,1.3421.881,2.4302,1.9678,2.4302s1.9678-1.0881,1.9678-2.4302V10.0332c0-1.3422-.881-2.4302-1.9678-2.4302Z" fill="url(#linear-gradient-10)" stroke-width="0"/>
    <path d="m103.5264,27.4232c1.0868,0,1.9678,1.0881,1.9678,2.4302v10.1686c0,1.3421-.881,2.4302-1.9678,2.4302s-1.9678-1.0881-1.9678-2.4302v-10.1686c0-1.3421.881-2.4302,1.9678-2.4302Z" fill="url(#linear-gradient-11)" stroke-width="0"/>
    <path d="m96.2447,17.4926h0c1.0868,0,1.9678,1.0881,1.9678,2.4302v20.0992c0,1.3421-.881,2.4302-1.9678,2.4302h0c-1.0868,0-1.9678-1.0881-1.9678-2.4302v-20.0992c0-1.3421.881-2.4302,1.9678-2.4302Z" fill="url(#linear-gradient-12)" stroke-width="0"/>
    <path d="m88.9632,7.603c1.0868,0,1.9678,1.088,1.9678,2.4302v29.9888c0,1.3421-.881,2.4302-1.9678,2.4302s-1.9678-1.0881-1.9678-2.4302V10.0332c0-1.3422.881-2.4302,1.9678-2.4302Z" fill="url(#linear-gradient-13)" stroke-width="0"/>
    <path d="m78.0379,5.2181l-2.5625,47.4774c-.0749,1.3875.7145,2.5706,1.7152,2.5706h5.6836c1.0007,0,1.7901-1.1831,1.7152-2.5706l-2.5625-47.4774c-.136-2.5196-3.8529-2.5196-3.9889,0Z" fill="url(#linear-gradient-14)" stroke-width="0"/>
    <text transform="translate(120.6816 38.8269)" font-variation-settings="'wght' 400" style="fill: rgb(35, 48, 58); font-family: Arial; font-size: 35px; white-space: pre;" x="0" y="0">OPEN BRIDGE</text>
    <path d="m1.9678,27.4791c-1.0868,0-1.9678,1.0881-1.9678,2.4302v10.1686c0,1.3421.881,2.4302,1.9678,2.4302s1.9678-1.0881,1.9678-2.4302v-10.1686c0-1.3421-.881-2.4302-1.9678-2.4302Z" fill="url(#linear-gradient)" stroke-width="0"/>
    <path d="m9.2494,17.5485h0c-1.0868,0-1.9678,1.0881-1.9678,2.4302v20.0992c0,1.3421.881,2.4302,1.9678,2.4302h0c1.0868,0,1.9678-1.0881,1.9678-2.4302v-20.0992c0-1.3421-.881-2.4302-1.9678-2.4302Z" fill="url(#linear-gradient-15)" stroke-width="0"/>
    <path d="m16.5309,7.6589c-1.0868,0-1.9678,1.088-1.9678,2.4302v29.9888c0,1.3421.881,2.4302,1.9678,2.4302s1.9678-1.0881,1.9678-2.4302V10.0891c0-1.3422-.881-2.4302-1.9678-2.4302Z" fill="url(#linear-gradient-16)" stroke-width="0"/>
    <path d="m48.9559,27.4791c1.0868,0,1.9678,1.0881,1.9678,2.4302v10.1686c0,1.3421-.881,2.4302-1.9678,2.4302s-1.9678-1.0881-1.9678-2.4302v-10.1686c0-1.3421.881-2.4302,1.9678-2.4302Z" fill="url(#linear-gradient-17)" stroke-width="0"/>
    <path d="m41.6742,17.5485h0c1.0868,0,1.9678,1.0881,1.9678,2.4302v20.0992c0,1.3421-.881,2.4302-1.9678,2.4302h0c-1.0868,0-1.9678-1.0881-1.9678-2.4302v-20.0992c0-1.3421.881-2.4302,1.9678-2.4302Z" fill="url(#linear-gradient-18)" stroke-width="0"/>
    <path d="m34.3927,7.6589c1.0868,0,1.9678,1.088,1.9678,2.4302v29.9888c0,1.3421-.881,2.4302-1.9678,2.4302s-1.9678-1.0881-1.9678-2.4302V10.0891c0-1.3422.881-2.4302,1.9678-2.4302Z" fill="url(#linear-gradient-19)" stroke-width="0"/>
    <path d="m23.4748,2.0002l-2.57,50.5906c-.0749,1.4742.7145,2.7312,1.7152,2.7312h5.6836c1.0007,0,1.7901-1.2571,1.7152-2.7312L27.4488,2.0002c-.1355-2.667-3.8385-2.667-3.974,0Z" fill="url(#linear-gradient-20)" stroke-width="0"/>
    <path d="m56.5383,27.4232c-1.0868,0-1.9678,1.0881-1.9678,2.4302v10.1686c0,1.3421.881,2.4302,1.9678,2.4302s1.9678-1.0881,1.9678-2.4302v-10.1686c0-1.3421-.881-2.4302-1.9678-2.4302Z" fill="url(#linear-gradient-21)" stroke-width="0"/>
    <path d="m63.8199,17.4926h0c-1.0868,0-1.9678,1.0881-1.9678,2.4302v20.0992c0,1.3421.881,2.4302,1.9678,2.4302h0c1.0868,0,1.9678-1.0881,1.9678-2.4302v-20.0992c0-1.3421-.881-2.4302-1.9678-2.4302Z" fill="url(#linear-gradient-22)" stroke-width="0"/>
    <path d="m71.1014,7.603c-1.0868,0-1.9678,1.088-1.9678,2.4302v29.9888c0,1.3421.881,2.4302,1.9678,2.4302s1.9678-1.0881,1.9678-2.4302V10.0332c0-1.3422-.881-2.4302-1.9678-2.4302Z" fill="url(#linear-gradient-23)" stroke-width="0"/>
    <path d="m103.5264,27.4232c1.0868,0,1.9678,1.0881,1.9678,2.4302v10.1686c0,1.3421-.881,2.4302-1.9678,2.4302s-1.9678-1.0881-1.9678-2.4302v-10.1686c0-1.3421.881-2.4302,1.9678-2.4302Z" fill="url(#linear-gradient-24)" stroke-width="0"/>
    <path d="m96.2447,17.4926h0c1.0868,0,1.9678,1.0881,1.9678,2.4302v20.0992c0,1.3421-.881,2.4302-1.9678,2.4302h0c-1.0868,0-1.9678-1.0881-1.9678-2.4302v-20.0992c0-1.3421.881-2.4302,1.9678-2.4302Z" fill="url(#linear-gradient-25)" stroke-width="0"/>
    <path d="m88.9632,7.603c1.0868,0,1.9678,1.088,1.9678,2.4302v29.9888c0,1.3421-.881,2.4302-1.9678,2.4302s-1.9678-1.0881-1.9678-2.4302V10.0332c0-1.3422.881-2.4302,1.9678-2.4302Z" fill="url(#linear-gradient-26)" stroke-width="0"/>
    <path d="m78.0389,2.0672l-2.5636,50.4642c-.0749,1.4742.7145,2.7312,1.7152,2.7312h5.6836c1.0007,0,1.7901-1.2571,1.7152-2.7312l-2.5636-50.4642c-.1359-2.6756-3.8509-2.6756-3.9868,0Z" fill="url(#linear-gradient-27)" stroke-width="0"/>
  </g>
</svg>