<?xml version="1.0" encoding="utf-8"?>
<svg width="258px" height="28" viewBox="0 0 258 28" fill="none" xmlns="http://www.w3.org/2000/svg" xmlns:xlink="http://www.w3.org/1999/xlink">
  <defs>
    <linearGradient id="linear-gradient" x1="-5.1624" y1="35.0305" x2="108.9032" y2="34.4405" gradientUnits="userSpaceOnUse">
      <stop offset="0" stop-color="#d31e4b"/>
      <stop offset="0.05" stop-color="#cf2452"/>
      <stop offset="0.1233" stop-color="#c53765"/>
      <stop offset="0.2108" stop-color="#b55685"/>
      <stop offset="0.3086" stop-color="#9f80b2"/>
      <stop offset="0.3572" stop-color="#9398cb"/>
      <stop offset="0.4238" stop-color="#7e99ce"/>
      <stop offset="0.5605" stop-color="#489ed5"/>
      <stop offset="0.6587" stop-color="#1fa2dc"/>
      <stop offset="0.7177" stop-color="#2ba3b4"/>
      <stop offset="0.7964" stop-color="#39a685"/>
      <stop offset="0.8661" stop-color="#43a763"/>
      <stop offset="0.9236" stop-color="#49a84e"/>
      <stop offset="0.9617" stop-color="#4ca947"/>
    </linearGradient>
    <linearGradient id="linear-gradient-2" x1="-5.1879" y1="30.1029" x2="108.8777" y2="29.513" xlink:href="#linear-gradient"/>
    <linearGradient id="linear-gradient-3" x1="-5.2133" y1="25.1959" x2="108.8523" y2="24.606" xlink:href="#linear-gradient"/>
    <linearGradient id="linear-gradient-4" x1="-5.1611" y1="35.2735" x2="108.9044" y2="34.6835" xlink:href="#linear-gradient"/>
    <linearGradient id="linear-gradient-5" x1="-5.187" y1="30.2706" x2="108.8786" y2="29.6807" xlink:href="#linear-gradient"/>
    <linearGradient id="linear-gradient-6" x1="-5.2128" y1="25.2883" x2="108.8528" y2="24.6984" xlink:href="#linear-gradient"/>
    <linearGradient id="linear-gradient-7" x1="-5.1826" y1="31.1218" x2="108.883" y2="30.5318" xlink:href="#linear-gradient"/>
    <linearGradient id="linear-gradient-8" x1="-5.1612" y1="35.2568" x2="108.9044" y2="34.6668" xlink:href="#linear-gradient"/>
    <linearGradient id="linear-gradient-9" x1="-5.1867" y1="30.3293" x2="108.8789" y2="29.7393" xlink:href="#linear-gradient"/>
    <linearGradient id="linear-gradient-10" x1="-5.2121" y1="25.4223" x2="108.8535" y2="24.8323" xlink:href="#linear-gradient"/>
    <linearGradient id="linear-gradient-11" x1="-5.16" y1="35.4998" x2="108.9056" y2="34.9099" xlink:href="#linear-gradient"/>
    <linearGradient id="linear-gradient-12" x1="-5.1858" y1="30.497" x2="108.8797" y2="29.907" xlink:href="#linear-gradient"/>
    <linearGradient id="linear-gradient-13" x1="-5.2116" y1="25.5147" x2="108.854" y2="24.9247" xlink:href="#linear-gradient"/>
    <linearGradient id="linear-gradient-14" x1="-5.1897" y1="29.7454" x2="108.8758" y2="29.1554" xlink:href="#linear-gradient"/>
    <linearGradient id="linear-gradient-15" x1="-5.1879" y1="30.1029" x2="108.8777" y2="29.513" xlink:href="#linear-gradient"/>
    <linearGradient id="linear-gradient-16" x1="-5.2133" y1="25.1959" x2="108.8523" y2="24.606" xlink:href="#linear-gradient"/>
    <linearGradient id="linear-gradient-17" x1="-5.1611" y1="35.2735" x2="108.9044" y2="34.6835" xlink:href="#linear-gradient"/>
    <linearGradient id="linear-gradient-18" x1="-5.187" y1="30.2706" x2="108.8786" y2="29.6807" xlink:href="#linear-gradient"/>
    <linearGradient id="linear-gradient-19" x1="-5.2128" y1="25.2883" x2="108.8528" y2="24.6984" xlink:href="#linear-gradient"/>
    <linearGradient id="linear-gradient-20" x1="-5.1989" y1="27.8269" x2="108.8668" y2="27.237" xlink:href="#linear-gradient"/>
    <linearGradient id="linear-gradient-21" x1="-5.1612" y1="35.2568" x2="108.9044" y2="34.6668" xlink:href="#linear-gradient"/>
    <linearGradient id="linear-gradient-22" x1="-5.1867" y1="30.3293" x2="108.8789" y2="29.7393" xlink:href="#linear-gradient"/>
    <linearGradient id="linear-gradient-23" x1="-5.2121" y1="25.4223" x2="108.8535" y2="24.8323" xlink:href="#linear-gradient"/>
    <linearGradient id="linear-gradient-24" x1="-5.16" y1="35.4998" x2="108.9056" y2="34.9099" xlink:href="#linear-gradient"/>
    <linearGradient id="linear-gradient-25" x1="-5.1858" y1="30.497" x2="108.8797" y2="29.907" xlink:href="#linear-gradient"/>
    <linearGradient id="linear-gradient-26" x1="-5.2116" y1="25.5147" x2="108.854" y2="24.9247" xlink:href="#linear-gradient"/>
    <linearGradient id="linear-gradient-27" x1="-5.1975" y1="28.1097" x2="108.8682" y2="27.5198" xlink:href="#linear-gradient"/>
  </defs>
  <g id="Layer_1-2" transform="matrix(0.506127, 0, 0, 0.506127, 0, 0.000025)">
    <path d="m1.9678,27.4791c-1.0868,0-1.9678,1.0881-1.9678,2.4302v10.1686c0,1.3421.881,2.4302,1.9678,2.4302s1.9678-1.0881,1.9678-2.4302v-10.1686c0-1.3421-.881-2.4302-1.9678-2.4302Z" fill="url(#linear-gradient)" stroke-width="0"/>
    <path d="m9.2494,17.5485h0c-1.0868,0-1.9678,1.0881-1.9678,2.4302v20.0992c0,1.3421.881,2.4302,1.9678,2.4302h0c1.0868,0,1.9678-1.0881,1.9678-2.4302v-20.0992c0-1.3421-.881-2.4302-1.9678-2.4302Z" fill="url(#linear-gradient-2)" stroke-width="0"/>
    <path d="m16.5309,7.6589c-1.0868,0-1.9678,1.088-1.9678,2.4302v29.9888c0,1.3421.881,2.4302,1.9678,2.4302s1.9678-1.0881,1.9678-2.4302V10.0891c0-1.3422-.881-2.4302-1.9678-2.4302Z" fill="url(#linear-gradient-3)" stroke-width="0"/>
    <path d="m48.9559,27.4791c1.0868,0,1.9678,1.0881,1.9678,2.4302v10.1686c0,1.3421-.881,2.4302-1.9678,2.4302s-1.9678-1.0881-1.9678-2.4302v-10.1686c0-1.3421.881-2.4302,1.9678-2.4302Z" fill="url(#linear-gradient-4)" stroke-width="0"/>
    <path d="m41.6742,17.5485h0c1.0868,0,1.9678,1.0881,1.9678,2.4302v20.0992c0,1.3421-.881,2.4302-1.9678,2.4302h0c-1.0868,0-1.9678-1.0881-1.9678-2.4302v-20.0992c0-1.3421.881-2.4302,1.9678-2.4302Z" fill="url(#linear-gradient-5)" stroke-width="0"/>
    <path d="m34.3927,7.6589c1.0868,0,1.9678,1.088,1.9678,2.4302v29.9888c0,1.3421-.881,2.4302-1.9678,2.4302s-1.9678-1.0881-1.9678-2.4302V10.0891c0-1.3422.881-2.4302,1.9678-2.4302Z" fill="url(#linear-gradient-6)" stroke-width="0"/>
    <path d="m23.285,8.6523l-2.3802,44.0991c-.0749,1.3875.7145,2.5706,1.7152,2.5706h5.6836c1.0007,0,1.7901-1.1831,1.7152-2.5706l-2.3802-44.0991c-.1484-2.75-4.2051-2.75-4.3536,0Z" fill="url(#linear-gradient-7)" stroke-width="0"/>
    <path d="m56.5383,27.4232c-1.0868,0-1.9678,1.0881-1.9678,2.4302v10.1686c0,1.3421.881,2.4302,1.9678,2.4302s1.9678-1.0881,1.9678-2.4302v-10.1686c0-1.3421-.881-2.4302-1.9678-2.4302Z" fill="url(#linear-gradient-8)" stroke-width="0"/>
    <path d="m63.8199,17.4926h0c-1.0868,0-1.9678,1.0881-1.9678,2.4302v20.0992c0,1.3421.881,2.4302,1.9678,2.4302h0c1.0868,0,1.9678-1.0881,1.9678-2.4302v-20.0992c0-1.3421-.881-2.4302-1.9678-2.4302Z" fill="url(#linear-gradient-9)" stroke-width="0"/>
    <path d="m71.1014,7.603c-1.0868,0-1.9678,1.088-1.9678,2.4302v29.9888c0,1.3421.881,2.4302,1.9678,2.4302s1.9678-1.0881,1.9678-2.4302V10.0332c0-1.3422-.881-2.4302-1.9678-2.4302Z" fill="url(#linear-gradient-10)" stroke-width="0"/>
    <path d="m103.5264,27.4232c1.0868,0,1.9678,1.0881,1.9678,2.4302v10.1686c0,1.3421-.881,2.4302-1.9678,2.4302s-1.9678-1.0881-1.9678-2.4302v-10.1686c0-1.3421.881-2.4302,1.9678-2.4302Z" fill="url(#linear-gradient-11)" stroke-width="0"/>
    <path d="m96.2447,17.4926h0c1.0868,0,1.9678,1.0881,1.9678,2.4302v20.0992c0,1.3421-.881,2.4302-1.9678,2.4302h0c-1.0868,0-1.9678-1.0881-1.9678-2.4302v-20.0992c0-1.3421.881-2.4302,1.9678-2.4302Z" fill="url(#linear-gradient-12)" stroke-width="0"/>
    <path d="m88.9632,7.603c1.0868,0,1.9678,1.088,1.9678,2.4302v29.9888c0,1.3421-.881,2.4302-1.9678,2.4302s-1.9678-1.0881-1.9678-2.4302V10.0332c0-1.3422.881-2.4302,1.9678-2.4302Z" fill="url(#linear-gradient-13)" stroke-width="0"/>
    <path d="m78.0379,5.2181l-2.5625,47.4774c-.0749,1.3875.7145,2.5706,1.7152,2.5706h5.6836c1.0007,0,1.7901-1.1831,1.7152-2.5706l-2.5625-47.4774c-.136-2.5196-3.8529-2.5196-3.9889,0Z" fill="url(#linear-gradient-14)" stroke-width="0"/>
    <path d="m132.5112,39.1769c-1.9824,0-3.6875-.3447-5.1094-1.0327-1.4238-.688-2.5195-1.75-3.291-3.1851-.7695-1.4351-1.2012-3.2373-1.2949-5.4072-.0234-1.0264-.0352-2.0127-.0352-2.9575,0-.9453.0117-1.9307.0352-2.9575.0938-2.1465.543-3.9375,1.3477-5.3726s1.9258-2.5078,3.3613-3.2202c1.4336-.7114,3.0977-1.0674,4.9863-1.0674,1.9141,0,3.5879.356,5.0234,1.0674,1.4336.7124,2.5605,1.7852,3.377,3.2202s1.2598,3.2261,1.3301,5.3726c.0469,1.0269.0703,2.0122.0703,2.9575,0,.9448-.0234,1.9312-.0703,2.9575-.0703,2.1699-.4961,3.9722-1.2773,5.4072-.7832,1.4351-1.8848,2.4971-3.3086,3.1851-1.4219.688-3.1367,1.0327-5.1445,1.0327Zm0-2.9751c1.7969,0,3.2617-.5366,4.3926-1.6099s1.7441-2.8115,1.8379-5.2153c.0469-1.0498.0703-1.9888.0703-2.8174,0-.8281-.0234-1.7554-.0703-2.7822-.0469-1.6104-.3438-2.9165-.8926-3.9204-.5488-1.0029-1.2773-1.7378-2.1875-2.2046s-1.9609-.7002-3.1504-.7002c-1.1426,0-2.1699.2334-3.0801.7002s-1.6387,1.2017-2.1875,2.2046c-.5488,1.0039-.8574,2.3101-.9277,3.9204-.0234,1.0269-.0352,1.9541-.0352,2.7822,0,.8286.0117,1.7676.0352,2.8174.0938,2.4038.7129,4.1421,1.8555,5.2153s2.5898,1.6099,4.3398,1.6099Z" fill="#23303a" stroke-width="0"/>
    <path d="m148.2261,38.8268c-.2578,0-.4551-.0757-.5957-.2275-.1387-.1514-.209-.3438-.209-.5776V15.1666c0-.2563.0703-.4604.209-.6123.1406-.1514.3379-.2275.5957-.2275h8.8906c1.7266,0,3.2246.2798,4.4961.8398s2.2578,1.3945,2.959,2.5024c.6992,1.1089,1.0488,2.4912,1.0488,4.1479s-.3496,3.0332-1.0488,4.1299c-.7012,1.0967-1.6875,1.9248-2.959,2.4849s-2.7695.8398-4.4961.8398h-6.1953v8.75c0,.2339-.0762.4263-.2285.5776-.1523.1519-.3555.2275-.6113.2275h-1.8555Zm2.6602-12.4951h6.0547c1.7266,0,3.0215-.3848,3.8848-1.1548s1.2949-1.8901,1.2949-3.3599c0-1.4468-.4199-2.5669-1.2598-3.3604-.8398-.793-2.1465-1.1899-3.9199-1.1899h-6.0547v9.0649Z" fill="#23303a" stroke-width="0"/>
    <path d="m170.6948,38.8268c-.2559,0-.4551-.0757-.5938-.2275-.1406-.1514-.2109-.3438-.2109-.5776V15.1666c0-.2563.0703-.4604.2109-.6123.1387-.1514.3379-.2275.5938-.2275h14.4551c.2578,0,.4551.0762.5957.2275.1406.1519.2109.356.2109.6123v1.3301c0,.2573-.0703.4551-.2109.5952-.1406.1396-.3379.21-.5957.21h-11.8984v7.665h11.1289c.2559,0,.4551.0757.5957.2275.1387.1519.209.356.209.6123v1.2949c0,.2334-.0703.4263-.209.5776-.1406.1519-.3398.2275-.5957.2275h-11.1289v7.9448h12.1797c.2559,0,.4551.0703.5938.21.1406.1401.2109.3389.2109.5952v1.3647c0,.2339-.0703.4263-.2109.5776-.1387.1519-.3379.2275-.5938.2275h-14.7363Z" fill="#23303a" stroke-width="0"/>
    <path d="m191.9057,38.8268c-.2578,0-.4551-.0757-.5957-.2275-.1387-.1514-.209-.3438-.209-.5776V15.1666c0-.2563.0703-.4604.209-.6123.1406-.1514.3379-.2275.5957-.2275h1.6094c.2812,0,.4902.0645.6309.1924.1406.1284.2207.2275.2441.2979l11.6211,17.8496V15.1666c0-.2563.0703-.4604.209-.6123.1406-.1514.3379-.2275.5957-.2275h1.6797c.2559,0,.4609.0762.6133.2275.1504.1519.2266.356.2266.6123v22.8203c0,.2334-.0762.4316-.2266.5947-.1523.1636-.3457.2451-.5781.2451h-1.6797c-.2578,0-.4492-.0698-.5781-.21s-.2148-.2329-.2617-.2803l-11.5859-17.6748v17.3599c0,.2339-.0762.4263-.2266.5776-.1523.1519-.3574.2275-.6133.2275h-1.6797Z" fill="#23303a" stroke-width="0"/>
    <path d="m224.769,38.8268c-.2559,0-.4551-.0757-.5938-.2275-.1406-.1514-.2109-.3438-.2109-.5776V15.1666c0-.2563.0703-.4604.2109-.6123.1387-.1514.3379-.2275.5938-.2275h9.5918c1.75,0,3.1777.2861,4.2871.8574,1.1074.5723,1.9238,1.3477,2.4492,2.3276s.7871,2.0771.7871,3.29c0,.957-.1562,1.7793-.4727,2.4673-.3145.6885-.7051,1.2485-1.1719,1.6802-.4668.4321-.9219.7646-1.3652.9976.9102.4434,1.7207,1.167,2.4336,2.1699.7109,1.0034,1.0664,2.2168,1.0664,3.6401,0,1.2832-.291,2.4619-.875,3.5347-.584,1.0737-1.4512,1.9312-2.6074,2.5728-1.1543.6421-2.584.9624-4.2871.9624h-9.8359Zm2.625-14.1401h6.4414c1.4922,0,2.625-.3438,3.3945-1.0322.7695-.688,1.1543-1.6274,1.1543-2.8179s-.3848-2.0996-1.1543-2.73c-.7695-.6299-1.9023-.9448-3.3945-.9448h-6.4414v7.5249Zm0,11.3052h6.7559c1.5156,0,2.6836-.4082,3.5-1.2251.8164-.8164,1.2246-1.8198,1.2246-3.0098,0-1.2368-.4082-2.2578-1.2246-3.0625-.8164-.8052-1.9844-1.2075-3.5-1.2075h-6.7559v8.5049Z" fill="#23303a" stroke-width="0"/>
    <path d="m248.1499,38.8268c-.2578,0-.4551-.0757-.5957-.2275-.1387-.1514-.209-.3438-.209-.5776V15.1666c0-.2563.0703-.4604.209-.6123.1406-.1514.3379-.2275.5957-.2275h8.5391c2.6367,0,4.7266.6187,6.2656,1.855,1.541,1.2368,2.3105,3.0684,2.3105,5.4951,0,1.7969-.4492,3.2607-1.3477,4.3926s-2.1172,1.9194-3.6582,2.3623l5.3906,9.3101c.0703.1401.1055.2686.1055.3848,0,.187-.0762.3501-.2285.4902s-.3203.21-.5078.21h-1.6797c-.3965,0-.6875-.105-.875-.3149s-.3496-.4199-.4902-.6299l-5.0742-8.8901h-6.125v9.0298c0,.2339-.0762.4263-.2285.5776-.1504.1519-.3555.2275-.6113.2275h-1.7852Zm2.625-12.8101h5.7754c1.75,0,3.0566-.3677,3.9199-1.1025s1.2949-1.8252,1.2949-3.2725c0-1.4229-.4258-2.5078-1.2773-3.2549-.8516-.7466-2.1641-1.1201-3.9375-1.1201h-5.7754v8.75Z" fill="#23303a" stroke-width="0"/>
    <path d="m271.0737,38.8268c-.2559,0-.4551-.0757-.5938-.2275-.1406-.1514-.2109-.3438-.2109-.5776V15.132c0-.2329.0703-.4258.2109-.5776.1387-.1514.3379-.2275.5938-.2275h1.8555c.2324,0,.4258.0762.5781.2275.1504.1519.2266.3447.2266.5776v22.8896c0,.2339-.0762.4263-.2266.5776-.1523.1519-.3457.2275-.5781.2275h-1.8555Z" fill="#23303a" stroke-width="0"/>
    <path d="m280.6284,38.8268c-.2559,0-.4551-.0757-.5938-.2275-.1406-.1514-.2109-.3438-.2109-.5776V15.1666c0-.2563.0703-.4604.2109-.6123.1387-.1514.3379-.2275.5938-.2275h7.9453c2.4043,0,4.3398.3618,5.8105,1.085,1.4707.7236,2.543,1.791,3.2207,3.2026.6758,1.4121,1.0254,3.1445,1.0488,5.1973.0234,1.0503.0352,1.9722.0352,2.7651,0,.7935-.0117,1.7036-.0352,2.73-.0469,2.147-.4023,3.9263-1.0664,5.3374-.666,1.4121-1.7148,2.4619-3.1504,3.1499-1.4355.689-3.332,1.0327-5.6875,1.0327h-8.1211Zm2.625-2.9751h5.3203c1.6113,0,2.8926-.2212,3.8496-.665.957-.4429,1.6523-1.1548,2.084-2.1348s.6582-2.2749.6816-3.8853c.0469-.6997.0703-1.3125.0703-1.8374v-1.5747c0-.5254-.0234-1.1255-.0703-1.8027-.0469-2.2632-.584-3.9375-1.6094-5.0225-1.0273-1.085-2.7539-1.6274-5.1797-1.6274h-5.1465v18.5498Z" fill="#23303a" stroke-width="0"/>
    <path d="m312.8296,39.1769c-2.0527,0-3.7969-.3853-5.2324-1.1553s-2.5312-1.855-3.291-3.2549c-.7578-1.3999-1.1836-3.0449-1.2773-4.9351-.0234-1.0264-.0352-2.1172-.0352-3.2725s.0117-2.2573.0352-3.3076c.0938-1.8896.5195-3.5229,1.2773-4.8999.7598-1.3765,1.8613-2.4497,3.3086-3.2197,1.4453-.77,3.1855-1.1553,5.2148-1.1553,1.6562,0,3.0918.2334,4.3047.7002s2.2109,1.0562,2.9922,1.7676c.7812.7119,1.3652,1.4521,1.75,2.2222s.5898,1.4473.6133,2.0303c.0234.21-.0352.3794-.1758.5073-.1387.1284-.3262.1924-.5586.1924h-2.0664c-.2324,0-.4023-.0464-.5078-.1396-.1035-.0933-.2031-.2568-.2969-.4902-.209-.6064-.5547-1.2017-1.0332-1.7852-.4785-.5825-1.1191-1.0674-1.9238-1.4521-.8047-.3853-1.8379-.5776-3.0977-.5776-1.8438,0-3.332.502-4.4629,1.5049-1.1309,1.0034-1.7441,2.6602-1.8379,4.9702-.0684,2.0771-.0684,4.1533,0,6.23.0938,2.3335.7129,4.0073,1.8555,5.0225s2.6367,1.5225,4.4805,1.5225c1.2363,0,2.3379-.2275,3.3066-.6826s1.7324-1.1602,2.293-2.1172c.5605-.9565.8398-2.1704.8398-3.6401v-1.4702h-5.25c-.2324,0-.4258-.0752-.5781-.2275-.1504-.1514-.2266-.3555-.2266-.6123v-1.1201c0-.2563.0762-.4604.2266-.6123.1523-.1514.3457-.2275.5781-.2275h7.9102c.2559,0,.4551.0762.5957.2275.1387.1519.209.356.209.6123v3.3604c0,1.9131-.3906,3.582-1.1719,5.0049-.7812,1.4233-1.9199,2.5259-3.4121,3.3076-1.4941.7817-3.2793,1.1724-5.3555,1.1724Z" fill="#23303a" stroke-width="0"/>
    <path d="m328.5796,38.8268c-.2578,0-.4551-.0757-.5957-.2275-.1387-.1514-.209-.3438-.209-.5776V15.1666c0-.2563.0703-.4604.209-.6123.1406-.1514.3379-.2275.5957-.2275h14.4551c.2559,0,.4551.0762.5957.2275.1387.1519.209.356.209.6123v1.3301c0,.2573-.0703.4551-.209.5952-.1406.1396-.3398.21-.5957.21h-11.9004v7.665h11.1309c.2559,0,.4551.0757.5938.2275.1406.1519.2109.356.2109.6123v1.2949c0,.2334-.0703.4263-.2109.5776-.1387.1519-.3379.2275-.5938.2275h-11.1309v7.9448h12.1797c.2578,0,.4551.0703.5957.21.1406.1401.209.3389.209.5952v1.3647c0,.2339-.0684.4263-.209.5776-.1406.1519-.3379.2275-.5957.2275h-14.7344Z" fill="#23303a" stroke-width="0"/>
    <path d="m1.9678,27.4791c-1.0868,0-1.9678,1.0881-1.9678,2.4302v10.1686c0,1.3421.881,2.4302,1.9678,2.4302s1.9678-1.0881,1.9678-2.4302v-10.1686c0-1.3421-.881-2.4302-1.9678-2.4302Z" fill="url(#linear-gradient)" stroke-width="0"/>
    <path d="m9.2494,17.5485h0c-1.0868,0-1.9678,1.0881-1.9678,2.4302v20.0992c0,1.3421.881,2.4302,1.9678,2.4302h0c1.0868,0,1.9678-1.0881,1.9678-2.4302v-20.0992c0-1.3421-.881-2.4302-1.9678-2.4302Z" fill="url(#linear-gradient-15)" stroke-width="0"/>
    <path d="m16.5309,7.6589c-1.0868,0-1.9678,1.088-1.9678,2.4302v29.9888c0,1.3421.881,2.4302,1.9678,2.4302s1.9678-1.0881,1.9678-2.4302V10.0891c0-1.3422-.881-2.4302-1.9678-2.4302Z" fill="url(#linear-gradient-16)" stroke-width="0"/>
    <path d="m48.9559,27.4791c1.0868,0,1.9678,1.0881,1.9678,2.4302v10.1686c0,1.3421-.881,2.4302-1.9678,2.4302s-1.9678-1.0881-1.9678-2.4302v-10.1686c0-1.3421.881-2.4302,1.9678-2.4302Z" fill="url(#linear-gradient-17)" stroke-width="0"/>
    <path d="m41.6742,17.5485h0c1.0868,0,1.9678,1.0881,1.9678,2.4302v20.0992c0,1.3421-.881,2.4302-1.9678,2.4302h0c-1.0868,0-1.9678-1.0881-1.9678-2.4302v-20.0992c0-1.3421.881-2.4302,1.9678-2.4302Z" fill="url(#linear-gradient-18)" stroke-width="0"/>
    <path d="m34.3927,7.6589c1.0868,0,1.9678,1.088,1.9678,2.4302v29.9888c0,1.3421-.881,2.4302-1.9678,2.4302s-1.9678-1.0881-1.9678-2.4302V10.0891c0-1.3422.881-2.4302,1.9678-2.4302Z" fill="url(#linear-gradient-19)" stroke-width="0"/>
    <path d="m23.4748,2.0002l-2.57,50.5906c-.0749,1.4742.7145,2.7312,1.7152,2.7312h5.6836c1.0007,0,1.7901-1.2571,1.7152-2.7312L27.4488,2.0002c-.1355-2.667-3.8385-2.667-3.974,0Z" fill="url(#linear-gradient-20)" stroke-width="0"/>
    <path d="m56.5383,27.4232c-1.0868,0-1.9678,1.0881-1.9678,2.4302v10.1686c0,1.3421.881,2.4302,1.9678,2.4302s1.9678-1.0881,1.9678-2.4302v-10.1686c0-1.3421-.881-2.4302-1.9678-2.4302Z" fill="url(#linear-gradient-21)" stroke-width="0"/>
    <path d="m63.8199,17.4926h0c-1.0868,0-1.9678,1.0881-1.9678,2.4302v20.0992c0,1.3421.881,2.4302,1.9678,2.4302h0c1.0868,0,1.9678-1.0881,1.9678-2.4302v-20.0992c0-1.3421-.881-2.4302-1.9678-2.4302Z" fill="url(#linear-gradient-22)" stroke-width="0"/>
    <path d="m71.1014,7.603c-1.0868,0-1.9678,1.088-1.9678,2.4302v29.9888c0,1.3421.881,2.4302,1.9678,2.4302s1.9678-1.0881,1.9678-2.4302V10.0332c0-1.3422-.881-2.4302-1.9678-2.4302Z" fill="url(#linear-gradient-23)" stroke-width="0"/>
    <path d="m103.5264,27.4232c1.0868,0,1.9678,1.0881,1.9678,2.4302v10.1686c0,1.3421-.881,2.4302-1.9678,2.4302s-1.9678-1.0881-1.9678-2.4302v-10.1686c0-1.3421.881-2.4302,1.9678-2.4302Z" fill="url(#linear-gradient-24)" stroke-width="0"/>
    <path d="m96.2447,17.4926h0c1.0868,0,1.9678,1.0881,1.9678,2.4302v20.0992c0,1.3421-.881,2.4302-1.9678,2.4302h0c-1.0868,0-1.9678-1.0881-1.9678-2.4302v-20.0992c0-1.3421.881-2.4302,1.9678-2.4302Z" fill="url(#linear-gradient-25)" stroke-width="0"/>
    <path d="m88.9632,7.603c1.0868,0,1.9678,1.088,1.9678,2.4302v29.9888c0,1.3421-.881,2.4302-1.9678,2.4302s-1.9678-1.0881-1.9678-2.4302V10.0332c0-1.3422.881-2.4302,1.9678-2.4302Z" fill="url(#linear-gradient-26)" stroke-width="0"/>
    <path d="m78.0389,2.0672l-2.5636,50.4642c-.0749,1.4742.7145,2.7312,1.7152,2.7312h5.6836c1.0007,0,1.7901-1.2571,1.7152-2.7312l-2.5636-50.4642c-.1359-2.6756-3.8509-2.6756-3.9868,0Z" fill="url(#linear-gradient-27)" stroke-width="0"/>
  </g>
</svg>