<svg width="251" height="28" viewBox="0 0 251 28" fill="none" xmlns="http://www.w3.org/2000/svg">
<path d="M6.45661 5.13273L5.87815 5.13301C5.17068 5.13335 4.59745 5.70715 4.59779 6.41461L4.60743 26.3694C4.60777 27.0769 5.18156 27.6501 5.88903 27.6498L6.46749 27.6495C7.17496 27.6491 7.7482 27.0753 7.74785 26.3679L7.73822 6.4131C7.73787 5.70563 7.16408 5.13239 6.45661 5.13273Z" fill="url(#paint0_linear_616_14642)"/>
<path d="M1.87202 0.67219L1.29356 0.672469C0.58609 0.672811 0.0128503 1.2466 0.013192 1.95407L0.0249867 26.3716C0.0253284 27.0791 0.599122 27.6523 1.30659 27.652L1.88505 27.6517C2.59252 27.6513 3.16576 27.0775 3.16541 26.3701L3.15362 1.95256C3.15328 1.24509 2.57948 0.671848 1.87202 0.67219Z" fill="url(#paint1_linear_616_14642)"/>
<path d="M24.7884 5.12388L24.2099 5.12416C23.5025 5.1245 22.9292 5.6983 22.9296 6.40576L22.9392 26.3605C22.9396 27.068 23.5133 27.6412 24.2208 27.6409L24.7993 27.6406C25.5067 27.6403 26.08 27.0665 26.0796 26.359L26.07 6.40425C26.0697 5.69678 25.4959 5.12354 24.7884 5.12388Z" fill="url(#paint2_linear_616_14642)"/>
<path d="M29.3695 0.658907L28.791 0.659187C28.0835 0.659528 27.5103 1.23332 27.5106 1.94079L27.5224 26.3583C27.5228 27.0658 28.0966 27.639 28.804 27.6387L29.3825 27.6384C30.09 27.638 30.6632 27.0643 30.6629 26.3568L30.6511 1.93927C30.6507 1.2318 30.0769 0.658565 29.3695 0.658907Z" fill="url(#paint3_linear_616_14642)"/>
<path d="M15.627 14.0566L15.0486 14.0569C14.3411 14.0572 13.7679 14.631 13.7682 15.3385L13.7735 26.3649C13.7739 27.0724 14.3477 27.6456 15.0551 27.6453L15.6336 27.645C16.3411 27.6447 16.9143 27.0709 16.914 26.3634L16.9086 15.337C16.9083 14.6295 16.3345 14.0563 15.627 14.0566Z" fill="url(#paint4_linear_616_14642)"/>
<path d="M20.2082 9.62015L19.6297 9.62043C18.9223 9.62077 18.349 10.1946 18.3494 10.902L18.3568 26.3474C18.3572 27.0548 18.931 27.6281 19.6384 27.6277L20.2169 27.6275C20.9244 27.6271 21.4976 27.0533 21.4973 26.3459L21.4898 10.9005C21.4895 10.193 20.9157 9.61981 20.2082 9.62015Z" fill="url(#paint5_linear_616_14642)"/>
<path d="M11.0421 9.62457L10.4636 9.62485C9.75613 9.6252 9.18289 10.199 9.18324 10.9065L9.1907 26.3518C9.19104 27.0593 9.76483 27.6325 10.4723 27.6322L11.0508 27.6319C11.7582 27.6315 12.3315 27.0578 12.3311 26.3503L12.3237 10.9049C12.3233 10.1975 11.7495 9.62423 11.0421 9.62457Z" fill="url(#paint6_linear_616_14642)"/>
<path d="M41.5569 27.6172C41.3853 27.6173 41.2439 27.5617 41.1326 27.4502C41.0206 27.339 40.9653 27.1976 40.9652 27.0257L40.9571 10.2274C40.957 10.039 41.0122 9.88897 41.1241 9.77729C41.2353 9.666 41.3766 9.60996 41.5482 9.60988L42.8344 9.60925C43.0404 9.60915 43.1948 9.66041 43.2982 9.76333C43.4009 9.86625 43.4605 9.95203 43.4777 10.0206L48.9363 20.4108L54.4107 10.0153C54.4452 9.94672 54.5097 9.86096 54.6037 9.75787C54.6977 9.65477 54.8484 9.60345 55.0537 9.60335L56.3148 9.60274C56.5029 9.60265 56.6529 9.65855 56.765 9.76973C56.8763 9.88131 56.9323 10.0313 56.9324 10.2197L56.9405 27.0179C56.9406 27.1899 56.8847 27.3313 56.7735 27.4426C56.6616 27.5542 56.5116 27.6099 56.3235 27.61L55.0624 27.6106C54.8908 27.6107 54.7494 27.5551 54.6381 27.4436C54.5261 27.3324 54.4708 27.191 54.4707 27.0191L54.4646 14.3628L50.1728 22.7508C50.104 22.9228 50.0014 23.0556 49.8643 23.15C49.7265 23.2445 49.5557 23.2916 49.3498 23.2917L48.5523 23.2921C48.3291 23.2922 48.1533 23.2453 48.0247 23.1509C47.8962 23.0566 47.7884 22.9238 47.703 22.752L43.4031 14.3681L43.4092 27.0245C43.4092 27.1964 43.3533 27.3378 43.2422 27.4491C43.1303 27.5608 42.9888 27.6164 42.8181 27.6165L41.5569 27.6171L41.5569 27.6172Z" fill="#292C4F"/>
<path d="M67.848 27.8617C66.3902 27.8624 65.1376 27.6096 64.0916 27.1045C63.0456 26.5994 62.2391 25.8191 61.6723 24.7647C61.1062 23.7102 60.7876 22.3857 60.7186 20.7909C60.701 20.0365 60.6921 19.3116 60.6917 18.6171C60.6914 17.9223 60.6996 17.1981 60.7165 16.4433C60.7839 14.8657 61.1142 13.5491 61.7051 12.4941C62.296 11.439 63.1189 10.6502 64.1738 10.1261C65.228 9.60267 66.4502 9.3404 67.839 9.33973C69.2451 9.33905 70.4762 9.60005 71.5309 10.1225C72.5856 10.6456 73.4135 11.4337 74.0148 12.4881C74.6154 13.5426 74.9419 14.8588 74.9936 16.4364C75.0284 17.1911 75.046 17.9154 75.0463 18.6102C75.0466 19.3046 75.0297 20.0296 74.9957 20.784C74.9455 22.3789 74.6332 23.7037 74.0588 24.7587C73.4844 25.8137 72.6751 26.5947 71.6288 27.1009C70.5833 27.607 69.323 27.861 67.8481 27.8617L67.848 27.8617ZM67.8469 25.675C69.1676 25.6744 70.2434 25.2795 71.0749 24.4903C71.9056 23.7011 72.3558 22.4232 72.4231 20.6564C72.4572 19.8848 72.4741 19.1947 72.4738 18.5857C72.4735 17.977 72.4559 17.2955 72.4211 16.5408C72.3861 15.3572 72.1675 14.3973 71.7644 13.6596C71.3607 12.9226 70.8243 12.3828 70.1559 12.04C69.4867 11.6972 68.7144 11.5261 67.8402 11.5265C66.9996 11.5269 66.2454 11.6988 65.5766 12.0422C64.9077 12.3856 64.3719 12.926 63.9696 13.6633C63.5666 14.4014 63.3402 15.3616 63.2891 16.5452C63.2722 17.2999 63.264 17.9814 63.2642 18.5901C63.2645 19.1991 63.2735 19.8893 63.2911 20.6608C63.3601 22.4276 63.8158 23.705 64.6566 24.4934C65.4968 25.2818 66.5607 25.6757 67.8469 25.675Z" fill="#292C4F"/>
<path d="M79.3978 27.5989C79.209 27.599 79.0632 27.5434 78.9605 27.4319C78.8578 27.3207 78.8061 27.1794 78.806 27.0074L78.7979 10.2092C78.7978 10.0208 78.8494 9.8707 78.952 9.75902C79.0546 9.64774 79.2003 9.59169 79.3891 9.5916L86.4383 9.5882C87.7245 9.58758 88.7747 9.79734 89.5895 10.2169C90.4044 10.6371 91.0047 11.2067 91.3912 11.9268C91.777 12.6469 91.9705 13.4532 91.9709 14.3447C91.9713 15.0481 91.856 15.6525 91.6244 16.1583C91.3935 16.6644 91.1059 17.0762 90.7637 17.3936C90.4201 17.7115 90.0864 17.956 89.7606 18.1274C90.4298 18.4529 91.0257 18.9845 91.5494 19.7214C92.0723 20.4586 92.3347 21.3503 92.3352 22.3965C92.3357 23.3396 92.1215 24.206 91.6934 24.9947C91.2646 25.7841 90.6267 26.4146 89.7779 26.8866C88.929 27.3589 87.8783 27.5948 86.6265 27.5954L79.3979 27.5989L79.3978 27.5989ZM81.3221 17.2051L86.0557 17.2028C87.1532 17.2023 87.9849 16.9493 88.5503 16.443C89.1164 15.937 89.3989 15.2464 89.3984 14.3714C89.398 13.4964 89.1149 12.8283 88.5484 12.3653C87.9825 11.9026 87.1505 11.6716 86.053 11.6721L81.3194 11.6744L81.3221 17.2051ZM81.3261 25.5143L86.2916 25.5119C87.4055 25.5114 88.2631 25.211 88.8636 24.6103C89.4633 24.0099 89.763 23.2722 89.7625 22.3977C89.7621 21.4887 89.4617 20.7384 88.8614 20.1472C88.2604 19.5557 87.4025 19.2604 86.2886 19.2609L81.3231 19.2633L81.3261 25.5143Z" fill="#292C4F"/>
<path d="M96.5814 27.5906C96.3926 27.5907 96.2468 27.5351 96.1441 27.4236C96.0414 27.3124 95.9897 27.1711 95.9896 26.9991L95.9815 10.1754C95.9814 10.0041 96.033 9.8624 96.1356 9.75072C96.2382 9.63944 96.3839 9.58339 96.5727 9.5833L97.9364 9.58264C98.1072 9.58256 98.2493 9.63846 98.3606 9.74965C98.4719 9.86122 98.5279 10.003 98.528 10.1741L98.5362 26.9978C98.5362 27.1698 98.4803 27.3112 98.3692 27.4225C98.258 27.5342 98.1158 27.5898 97.9451 27.5899L96.5814 27.5905L96.5814 27.5906Z" fill="#292C4F"/>
<path d="M103.604 27.5872C103.415 27.5873 103.269 27.5317 103.166 27.4202C103.064 27.309 103.012 27.1677 103.012 26.9957L103.004 10.172C103.004 10.0007 103.055 9.85901 103.158 9.74733C103.26 9.63604 103.406 9.58 103.595 9.57991L104.959 9.57925C105.129 9.57917 105.267 9.63507 105.37 9.74626C105.473 9.85784 105.524 9.99959 105.524 10.1707L105.532 25.3483L114.098 25.3441C114.287 25.344 114.433 25.3999 114.535 25.5111C114.639 25.6227 114.69 25.7727 114.69 25.9611L114.691 26.99C114.691 27.162 114.64 27.3034 114.536 27.4147C114.434 27.5263 114.288 27.582 114.099 27.5821L103.603 27.5871L103.604 27.5872Z" fill="#292C4F"/>
<path d="M118.086 27.5802C117.897 27.5803 117.752 27.5247 117.649 27.4132C117.546 27.302 117.495 27.1607 117.494 26.9887L117.486 10.1905C117.486 10.0021 117.538 9.85201 117.64 9.74033C117.743 9.62904 117.889 9.573 118.078 9.57291L128.702 9.56778C128.891 9.56769 129.036 9.62359 129.14 9.73478C129.243 9.84636 129.294 9.9963 129.294 10.1848L129.295 11.1623C129.295 11.3514 129.243 11.4969 129.141 11.5999C129.037 11.7026 128.892 11.7543 128.703 11.7544L119.957 11.7586L119.96 17.3924L128.14 17.3884C128.328 17.3883 128.475 17.4439 128.577 17.5554C128.68 17.6669 128.732 17.8169 128.732 18.0054L128.732 18.9572C128.732 19.1287 128.681 19.2705 128.578 19.3818C128.476 19.4935 128.329 19.5491 128.141 19.5492L119.961 19.5532L119.964 25.3925L128.915 25.3882C129.104 25.3881 129.25 25.4397 129.353 25.5423C129.456 25.6452 129.507 25.7913 129.507 25.9797L129.508 26.9828C129.508 27.1547 129.457 27.2961 129.354 27.4074C129.251 27.5191 129.105 27.5747 128.917 27.5748L118.086 27.5801L118.086 27.5802Z" fill="#292C4F"/>
<path d="M143.271 27.5681C143.1 27.5681 142.958 27.5126 142.847 27.4011C142.735 27.2899 142.68 27.1485 142.68 26.9766L142.672 11.8507L137.733 11.8531C137.561 11.8532 137.42 11.7976 137.308 11.6861C137.196 11.5745 137.141 11.4331 137.141 11.2616L137.14 10.181C137.14 9.99259 137.196 9.84252 137.307 9.73083C137.419 9.61954 137.56 9.5635 137.732 9.56342L150.131 9.55743C150.32 9.55734 150.47 9.61324 150.581 9.72442C150.693 9.836 150.748 9.98594 150.748 10.1744L150.749 11.255C150.749 11.4266 150.694 11.568 150.582 11.6797C150.471 11.7914 150.321 11.847 150.132 11.8471L145.219 11.8495L145.226 26.9753C145.226 27.1472 145.17 27.2886 145.059 27.3999C144.947 27.5116 144.797 27.5672 144.609 27.5673L143.271 27.568L143.271 27.5681Z" fill="#292C4F"/>
<path d="M159.709 27.8174C158.252 27.8181 156.999 27.5653 155.953 27.0601C154.907 26.555 154.1 25.7748 153.534 24.7203C152.967 23.6658 152.649 22.3413 152.58 20.7465C152.562 19.9921 152.553 19.2672 152.553 18.5727C152.553 17.8779 152.561 17.1537 152.578 16.3989C152.645 14.8213 152.975 13.5047 153.566 12.4497C154.157 11.3947 154.98 10.6058 156.035 10.0817C157.089 9.5583 158.312 9.29603 159.7 9.29536C161.106 9.29468 162.338 9.55568 163.392 10.0781C164.447 10.6012 165.275 11.3893 165.876 12.4437C166.477 13.4982 166.803 14.8144 166.855 16.392C166.89 17.1467 166.907 17.871 166.908 18.5658C166.908 19.2602 166.891 19.9852 166.857 20.7396C166.807 22.3345 166.494 23.6593 165.92 24.7143C165.346 25.7693 164.536 26.5503 163.49 27.0565C162.445 27.5626 161.184 27.8167 159.709 27.8174L159.709 27.8174ZM159.708 25.6307C161.029 25.63 162.105 25.2351 162.936 24.4459C163.767 23.6567 164.217 22.3789 164.284 20.6121C164.319 19.8405 164.335 19.1503 164.335 18.5413C164.335 17.9326 164.317 17.2511 164.282 16.4964C164.247 15.3128 164.029 14.3529 163.626 13.6152C163.222 12.8782 162.686 12.3384 162.017 11.9956C161.348 11.6529 160.576 11.4817 159.701 11.4821C158.861 11.4825 158.107 11.6544 157.438 11.9978C156.769 12.3412 156.233 12.8816 155.831 13.619C155.428 14.357 155.202 15.3172 155.15 16.5008C155.134 17.2555 155.125 17.9371 155.126 18.5457C155.126 19.1547 155.135 19.8449 155.152 20.6165C155.221 22.3832 155.677 23.6606 156.518 24.449C157.358 25.2374 158.422 25.6313 159.708 25.6307Z" fill="#292C4F"/>
<path d="M177.125 27.809C175.667 27.8097 174.414 27.5568 173.368 27.0517C172.322 26.5466 171.516 25.7663 170.949 24.7119C170.383 23.6574 170.064 22.3329 169.995 20.7381C169.978 19.9837 169.969 19.2588 169.969 18.5643C169.968 17.8695 169.976 17.1453 169.993 16.3905C170.061 14.8129 170.391 13.4963 170.982 12.4413C171.573 11.3863 172.396 10.5974 173.451 10.0733C174.505 9.54988 175.727 9.28761 177.116 9.28694C178.522 9.28626 179.753 9.54727 180.808 10.0697C181.862 10.5928 182.69 11.3809 183.292 12.4353C183.892 13.4898 184.219 14.806 184.27 16.3836C184.305 17.1383 184.323 17.8626 184.323 18.5574C184.323 19.2518 184.307 19.9768 184.273 20.7312C184.222 22.3261 183.91 23.6509 183.336 24.7059C182.761 25.7609 181.952 26.5419 180.906 27.0481C179.86 27.5542 178.6 27.8082 177.125 27.809L177.125 27.809ZM177.124 25.6223C178.444 25.6216 179.52 25.2267 180.352 24.4375C181.183 23.6483 181.633 22.3705 181.7 20.6036C181.734 19.8321 181.751 19.1419 181.751 18.5329C181.75 17.9242 181.733 17.2427 181.698 16.488C181.663 15.3044 181.444 14.3445 181.041 13.6068C180.638 12.8698 180.101 12.33 179.433 11.9872C178.764 11.6445 177.991 11.4733 177.117 11.4737C176.276 11.4741 175.522 11.646 174.853 11.9894C174.185 12.3328 173.649 12.8732 173.246 13.6106C172.843 14.3486 172.617 15.3088 172.566 16.4924C172.549 17.2471 172.541 17.9286 172.541 18.5373C172.541 19.1463 172.55 19.8365 172.568 20.608C172.637 22.3748 173.093 23.6522 173.933 24.4406C174.774 25.229 175.838 25.6229 177.124 25.6223Z" fill="#292C4F"/>
<path d="M188.674 27.5461C188.485 27.5462 188.34 27.4906 188.237 27.3791C188.134 27.2679 188.082 27.1266 188.082 26.9547L188.074 10.1309C188.074 9.95964 188.126 9.81791 188.228 9.70623C188.331 9.59495 188.477 9.53891 188.665 9.53881L190.029 9.53816C190.2 9.53807 190.338 9.59398 190.44 9.70517C190.544 9.81675 190.595 9.9585 190.595 10.1296L190.602 25.3072L199.169 25.303C199.358 25.3029 199.503 25.3588 199.606 25.47C199.709 25.5816 199.76 25.7316 199.761 25.92L199.761 26.9489C199.761 27.1209 199.71 27.2623 199.607 27.3736C199.504 27.4852 199.359 27.5409 199.17 27.541L188.674 27.5461L188.674 27.5461Z" fill="#292C4F"/>
<path d="M203.156 27.5391C202.968 27.5392 202.822 27.4836 202.719 27.3721C202.616 27.2609 202.565 27.1196 202.565 26.9477L202.556 10.1494C202.556 9.96099 202.608 9.81092 202.711 9.69924C202.813 9.58795 202.959 9.53191 203.148 9.53182L210.197 9.52841C211.483 9.52779 212.533 9.73755 213.348 10.1571C214.163 10.5773 214.763 11.1469 215.15 11.867C215.536 12.5871 215.729 13.3934 215.729 14.2849C215.73 14.9883 215.615 15.5927 215.383 16.0985C215.152 16.6047 214.864 17.0164 214.522 17.3339C214.179 17.6517 213.845 17.8962 213.519 18.0676C214.188 18.3931 214.784 18.9247 215.308 19.6616C215.831 20.3988 216.093 21.2905 216.094 22.3367C216.094 23.2798 215.88 24.1462 215.452 24.9349C215.023 25.7243 214.385 26.3548 213.536 26.8268C212.688 27.2991 211.637 27.535 210.385 27.5356L203.156 27.5391L203.156 27.5391ZM205.081 17.1453L209.814 17.143C210.912 17.1425 211.743 16.8895 212.309 16.3832C212.875 15.8773 213.157 15.1866 213.157 14.3116C213.157 13.4366 212.873 12.7686 212.307 12.3055C211.741 11.8428 210.909 11.6118 209.812 11.6123L205.078 11.6146L205.081 17.1453ZM205.085 25.4546L210.05 25.4522C211.164 25.4516 212.022 25.1512 212.622 24.5505C213.222 23.9502 213.522 23.2125 213.521 22.3379C213.521 21.4289 213.22 20.6786 212.62 20.0874C212.019 19.4959 211.161 19.2006 210.047 19.2011L205.082 19.2035L205.085 25.4546Z" fill="#292C4F"/>
<path d="M226.206 27.7852C224.749 27.786 223.496 27.5331 222.45 27.028C221.404 26.5229 220.598 25.7426 220.031 24.6882C219.465 23.6337 219.146 22.3092 219.077 20.7144C219.059 19.96 219.05 19.2351 219.05 18.5406C219.05 17.8458 219.058 17.1216 219.075 16.3668C219.142 14.7892 219.473 13.4726 220.064 12.4176C220.654 11.3626 221.477 10.5737 222.532 10.0496C223.586 9.52618 224.809 9.26391 226.197 9.26324C227.604 9.26256 228.835 9.52356 229.889 10.046C230.944 10.5691 231.772 11.3572 232.373 12.4116C232.974 13.4661 233.3 14.7823 233.352 16.3599C233.387 17.1146 233.404 17.8389 233.405 18.5337C233.405 19.2281 233.388 19.9531 233.354 20.7075C233.304 22.3024 232.992 23.6272 232.417 24.6822C231.843 25.7372 231.033 26.5182 229.987 27.0244C228.942 27.5305 227.681 27.7845 226.206 27.7852L226.206 27.7852ZM226.205 25.5986C227.526 25.5979 228.602 25.203 229.433 24.4138C230.264 23.6246 230.714 22.3468 230.782 20.5799C230.816 19.8084 230.832 19.1182 230.832 18.5092C230.832 17.9005 230.814 17.219 230.78 16.4643C230.744 15.2807 230.526 14.3208 230.123 13.5831C229.719 12.8461 229.183 12.3063 228.514 11.9635C227.845 11.6208 227.073 11.4496 226.199 11.45C225.358 11.4504 224.604 11.6223 223.935 11.9657C223.266 12.3091 222.73 12.8495 222.328 13.5869C221.925 14.3249 221.699 15.2851 221.647 16.4687C221.631 17.2234 221.622 17.9049 221.623 18.5136C221.623 19.1226 221.632 19.8128 221.649 20.5843C221.718 22.3511 222.174 23.6285 223.015 24.4169C223.855 25.2053 224.919 25.5992 226.205 25.5986Z" fill="#292C4F"/>
<path d="M235.492 27.5235C235.354 27.5236 235.23 27.4723 235.119 27.3694C235.007 27.2665 234.951 27.1466 234.951 27.0091C234.951 26.941 234.964 26.8767 234.99 26.8164C235.016 26.7565 235.037 26.7094 235.055 26.675L240.941 18.3629L235.329 10.365C235.278 10.2624 235.252 10.1508 235.252 10.031C235.252 9.89392 235.303 9.7736 235.406 9.67058C235.509 9.56756 235.629 9.51618 235.766 9.51611L237.309 9.51537C237.481 9.51528 237.619 9.55395 237.721 9.63105C237.824 9.70815 237.918 9.8154 238.004 9.9525L242.535 16.3814L247.034 9.94814C247.102 9.81104 247.192 9.70362 247.303 9.62642C247.415 9.54922 247.548 9.51042 247.702 9.51035L249.169 9.50964C249.306 9.50957 249.426 9.56084 249.528 9.66376C249.632 9.76668 249.683 9.88695 249.683 10.024C249.683 10.1439 249.649 10.2555 249.58 10.3582L244.054 18.3872L249.923 26.6677C249.957 26.7022 249.982 26.7492 250 26.8091C250.017 26.8694 250.026 26.9336 250.026 27.0018C250.026 27.1392 249.975 27.2591 249.872 27.3622C249.769 27.4652 249.64 27.5166 249.486 27.5166L247.917 27.5174C247.762 27.5175 247.629 27.4749 247.518 27.3891C247.406 27.3034 247.308 27.209 247.222 27.1061L242.434 20.4199L237.678 27.1107C237.592 27.2137 237.498 27.3082 237.395 27.394C237.293 27.4799 237.155 27.5226 236.984 27.5227L235.492 27.5234L235.492 27.5235Z" fill="#292C4F"/>
<defs>
<linearGradient id="paint0_linear_616_14642" x1="-2.14846" y1="16.3953" x2="32.9866" y2="16.3783" gradientUnits="userSpaceOnUse">
<stop stop-color="#D31E4B"/>
<stop offset="0.0478" stop-color="#CF2452"/>
<stop offset="0.1179" stop-color="#C53765"/>
<stop offset="0.2015" stop-color="#B55685"/>
<stop offset="0.295" stop-color="#9F80B2"/>
<stop offset="0.3415" stop-color="#9398CB"/>
<stop offset="0.4104" stop-color="#7E99CE"/>
<stop offset="0.5515" stop-color="#489ED5"/>
<stop offset="0.6529" stop-color="#1FA2DC"/>
<stop offset="0.7131" stop-color="#2BA3B4"/>
<stop offset="0.7932" stop-color="#39A685"/>
<stop offset="0.8643" stop-color="#43A763"/>
<stop offset="0.9229" stop-color="#49A84E"/>
<stop offset="0.9617" stop-color="#4CA947"/>
</linearGradient>
<linearGradient id="paint1_linear_616_14642" x1="-2.19122" y1="14.1639" x2="32.9401" y2="14.147" gradientUnits="userSpaceOnUse">
<stop stop-color="#D31E4B"/>
<stop offset="0.0473" stop-color="#CF2452"/>
<stop offset="0.1165" stop-color="#C53765"/>
<stop offset="0.1992" stop-color="#B55685"/>
<stop offset="0.2916" stop-color="#9F80B2"/>
<stop offset="0.3375" stop-color="#9398CB"/>
<stop offset="0.4078" stop-color="#7E99CE"/>
<stop offset="0.5519" stop-color="#489ED5"/>
<stop offset="0.6554" stop-color="#1FA2DC"/>
<stop offset="0.715" stop-color="#2BA3B4"/>
<stop offset="0.7946" stop-color="#39A685"/>
<stop offset="0.8651" stop-color="#43A763"/>
<stop offset="0.9232" stop-color="#49A84E"/>
<stop offset="0.9617" stop-color="#4CA947"/>
</linearGradient>
<linearGradient id="paint2_linear_616_14642" x1="-0.866483" y1="16.3946" x2="31.8001" y2="16.3789" gradientUnits="userSpaceOnUse">
<stop stop-color="#D31E4B"/>
<stop offset="0.05" stop-color="#CF2452"/>
<stop offset="0.1233" stop-color="#C53765"/>
<stop offset="0.2108" stop-color="#B55685"/>
<stop offset="0.3086" stop-color="#9F80B2"/>
<stop offset="0.3572" stop-color="#9398CB"/>
<stop offset="0.4238" stop-color="#7E99CE"/>
<stop offset="0.5605" stop-color="#489ED5"/>
<stop offset="0.6587" stop-color="#1FA2DC"/>
<stop offset="0.7177" stop-color="#2BA3B4"/>
<stop offset="0.7964" stop-color="#39A685"/>
<stop offset="0.8661" stop-color="#43A763"/>
<stop offset="0.9236" stop-color="#49A84E"/>
<stop offset="0.9617" stop-color="#4CA947"/>
</linearGradient>
<linearGradient id="paint3_linear_616_14642" x1="-0.867225" y1="14.1633" x2="31.7993" y2="14.1475" gradientUnits="userSpaceOnUse">
<stop stop-color="#D31E4B"/>
<stop offset="0.05" stop-color="#CF2452"/>
<stop offset="0.1233" stop-color="#C53765"/>
<stop offset="0.2108" stop-color="#B55685"/>
<stop offset="0.3086" stop-color="#9F80B2"/>
<stop offset="0.3572" stop-color="#9398CB"/>
<stop offset="0.4238" stop-color="#7E99CE"/>
<stop offset="0.5605" stop-color="#489ED5"/>
<stop offset="0.6587" stop-color="#1FA2DC"/>
<stop offset="0.7177" stop-color="#2BA3B4"/>
<stop offset="0.7964" stop-color="#39A685"/>
<stop offset="0.8661" stop-color="#43A763"/>
<stop offset="0.9236" stop-color="#49A84E"/>
<stop offset="0.9617" stop-color="#4CA947"/>
</linearGradient>
<linearGradient id="paint4_linear_616_14642" x1="-1.97923" y1="20.8593" x2="33.0078" y2="20.8424" gradientUnits="userSpaceOnUse">
<stop stop-color="#D31E4B"/>
<stop offset="0.0472" stop-color="#CF2452"/>
<stop offset="0.1164" stop-color="#C53765"/>
<stop offset="0.199" stop-color="#B55685"/>
<stop offset="0.2913" stop-color="#9F80B2"/>
<stop offset="0.3372" stop-color="#9398CB"/>
<stop offset="0.4065" stop-color="#7E99CE"/>
<stop offset="0.5485" stop-color="#489ED5"/>
<stop offset="0.6505" stop-color="#1FA2DC"/>
<stop offset="0.7111" stop-color="#2BA3B4"/>
<stop offset="0.7919" stop-color="#39A685"/>
<stop offset="0.8636" stop-color="#43A763"/>
<stop offset="0.9226" stop-color="#49A84E"/>
<stop offset="0.9617" stop-color="#4CA947"/>
</linearGradient>
<linearGradient id="paint5_linear_616_14642" x1="-0.864897" y1="18.634" x2="31.8016" y2="18.6182" gradientUnits="userSpaceOnUse">
<stop stop-color="#D31E4B"/>
<stop offset="0.05" stop-color="#CF2452"/>
<stop offset="0.1233" stop-color="#C53765"/>
<stop offset="0.2108" stop-color="#B55685"/>
<stop offset="0.3086" stop-color="#9F80B2"/>
<stop offset="0.3572" stop-color="#9398CB"/>
<stop offset="0.4238" stop-color="#7E99CE"/>
<stop offset="0.5605" stop-color="#489ED5"/>
<stop offset="0.6587" stop-color="#1FA2DC"/>
<stop offset="0.7177" stop-color="#2BA3B4"/>
<stop offset="0.7964" stop-color="#39A685"/>
<stop offset="0.8661" stop-color="#43A763"/>
<stop offset="0.9236" stop-color="#49A84E"/>
<stop offset="0.9617" stop-color="#4CA947"/>
</linearGradient>
<linearGradient id="paint6_linear_616_14642" x1="-2.0581" y1="18.6346" x2="32.953" y2="18.6177" gradientUnits="userSpaceOnUse">
<stop stop-color="#D31E4B"/>
<stop offset="0.0472" stop-color="#CF2452"/>
<stop offset="0.1163" stop-color="#C53765"/>
<stop offset="0.1988" stop-color="#B55685"/>
<stop offset="0.291" stop-color="#9F80B2"/>
<stop offset="0.3369" stop-color="#9398CB"/>
<stop offset="0.4062" stop-color="#7E99CE"/>
<stop offset="0.5482" stop-color="#489ED5"/>
<stop offset="0.6503" stop-color="#1FA2DC"/>
<stop offset="0.7109" stop-color="#2BA3B4"/>
<stop offset="0.7918" stop-color="#39A685"/>
<stop offset="0.8635" stop-color="#43A763"/>
<stop offset="0.9225" stop-color="#49A84E"/>
<stop offset="0.9617" stop-color="#4CA947"/>
</linearGradient>
</defs>
</svg>
