<svg width="95" height="160" viewBox="0 0 95 160" fill="none" xmlns="http://www.w3.org/2000/svg">
<path d="M62.037 75.0979H3.26172V156.731H62.037V75.0979Z" fill="#8FD6FF"/>
<path d="M88.1668 78.3695H58.7793V153.472H88.1668V78.3695Z" fill="#FF9D94"/>
<path d="M3.26172 6.53333L47.3434 44.0843L86.527 8.16598V76.7376H3.26172V6.53333Z" fill="#F9DC5C"/>
<path fill-rule="evenodd" clip-rule="evenodd" d="M89.163 159.124H82.6325H8.78645H2.25586V152.594L2.25587 17.2091V2.36353L13.1994 12.3951L45.7097 42.1961L78.22 12.3951L89.163 2.36354V17.2091V152.594V159.124ZM45.7097 51.0552L15.3171 23.1955L8.7865 17.2091V26.0683V72.2112H82.6265V78.7417H64.5585V152.588H58.028V78.7417H8.7865L8.78645 146.063V152.594H15.317H76.102H82.6325V146.063V26.0684V17.2091L76.102 23.1955L45.7097 51.0552Z" fill="#282525"/>
</svg>
