<svg width="98" height="98" viewBox="0 0 98 98" fill="none" xmlns="http://www.w3.org/2000/svg">
<circle cx="49" cy="49" r="49" fill="#212121"/>
<path d="M62 46H36L36.7042 27.6667L49.3803 37.3333L61 27V36.3333L62 46Z" fill="#F9DC5C"/>
<path d="M37 47H54V70H37V47Z" fill="#8FD6FF"/>
<rect x="54" y="47" width="7" height="23" fill="#FF9D94"/>
<path fill-rule="evenodd" clip-rule="evenodd" d="M62.3068 71.7307H60.3068L37.6914 71.7307H35.6914V69.7307L35.6914 28.2691L35.6914 23.7227L39.0429 26.7948L48.9991 35.9214L58.9553 26.7948L62.3068 23.7227V28.2691L62.3068 69.7307V71.7307ZM48.9991 38.6345L39.6914 30.1025L37.6914 28.2691L37.6914 30.9823L37.6914 45.0002H53.0021H55.0021H60.3068L60.3068 30.9823V28.2691L58.3068 30.1025L48.9991 38.6345ZM53.0021 47.0002H37.6914L37.6914 67.7307L37.6914 69.7307L39.6914 69.7307H53.0021V47.0002ZM55.0021 69.7307V47.0002H60.3068L60.3068 67.7307V69.7307H58.3068H55.0021Z" fill="#212121"/>
</svg>
