<svg width="24" height="24" viewBox="0 0 24 24" fill="none" xmlns="http://www.w3.org/2000/svg">
<path d="M17.8359 7.62125C17.6465 7.34246 17.4318 7.07633 17.1666 6.82289C16.9898 6.64547 16.7247 6.43004 16.3837 6.18926C15.967 5.8978 15.4114 5.94849 15.0578 6.30331L7.15306 14.2363C7.11518 14.2743 7.08993 14.325 7.06467 14.3757L6.02922 17.303C5.96608 17.4931 6.00397 17.7085 6.1555 17.8479C6.25651 17.9493 6.39542 18 6.52169 18C6.58483 18 6.63534 17.9873 6.69848 17.9747L9.62804 16.9482C9.67855 16.9355 9.72906 16.8975 9.76694 16.8595L17.697 8.90117C18.0379 8.55901 18.101 8.0141 17.8359 7.62125ZM7.59502 15.0853C8.10012 15.4528 8.54208 15.909 8.9209 16.4159L7.60765 16.8848C7.55714 16.7961 7.48138 16.6947 7.40561 16.6187C7.31722 16.53 7.22883 16.4666 7.14044 16.4159L7.59502 15.0853ZM17.1792 8.3816L9.55228 16.0358C9.12294 15.4275 8.57996 14.8952 7.97385 14.4517L15.5756 6.82289C15.6766 6.72151 15.8407 6.70883 15.9544 6.79754C16.2574 7.01297 16.4974 7.19039 16.6363 7.34246C16.8636 7.57056 17.053 7.79867 17.2171 8.03944C17.2929 8.12815 17.2676 8.29289 17.1792 8.3816Z" fill="white"/>
<path fill-rule="evenodd" clip-rule="evenodd" d="M18.1658 19.2275C16.5064 20.6445 14.3531 21.5 12 21.5C6.75329 21.5 2.5 17.2467 2.5 12C2.5 9.64687 3.35554 7.49357 4.77254 5.83418L18.1658 19.2275ZM19.2266 18.1669L5.83313 4.77344C7.49266 3.35591 9.64638 2.5 12 2.5C17.2467 2.5 21.5 6.75329 21.5 12C21.5 14.3536 20.6441 16.5073 19.2266 18.1669ZM23 12C23 18.0751 18.0751 23 12 23C5.92487 23 1 18.0751 1 12C1 5.92487 5.92487 1 12 1C18.0751 1 23 5.92487 23 12Z" fill="white"/>
</svg>
