<svg width="19" height="12" viewBox="0 0 19 12" fill="none" xmlns="http://www.w3.org/2000/svg">
<path d="M2.5312 7.2762L0.0915947 4.0042C-0.0110054 3.8642 -0.0338058 3.67219 0.0421944 3.51219C0.114395 3.35219 0.270195 3.25219 0.441195 3.25219H4.5718V1.1642C4.5718 0.908196 4.7694 0.700195 5.0126 0.700195H13.9882C14.2314 0.700195 14.429 0.908196 14.429 1.1642V3.25219H18.5596C18.7268 3.25219 18.8826 3.35219 18.9586 3.51219C19.0308 3.67219 19.0118 3.8642 18.9092 4.0042L16.4696 7.2762L18.9054 10.5482C19.008 10.6882 19.0308 10.8802 18.9548 11.0402C18.8826 11.2002 18.7268 11.3002 18.5558 11.3002H11.484C11.2408 11.3002 11.0432 11.0922 11.0432 10.8362V8.93219H7.9538V10.8362C7.9538 11.0922 7.7562 11.3002 7.513 11.3002H0.441195C0.273994 11.3002 0.118195 11.2002 0.0421944 11.0402C-0.0300045 10.8802 -0.0110054 10.6882 0.0915947 10.5482L2.5312 7.2762ZM13.5474 1.63219H5.4572V8.0002H13.5474V1.63219ZM15.5576 7.5642C15.4322 7.3962 15.4322 7.1602 15.5576 6.9882L17.6514 4.1802H14.429V8.4642C14.429 8.4722 14.429 8.4762 14.429 8.4842C14.429 8.4882 14.429 8.4922 14.429 8.49619C14.429 8.52419 14.4252 8.54819 14.4176 8.57219C14.4176 8.57619 14.4176 8.5802 14.4138 8.5842C14.4062 8.6082 14.3986 8.6362 14.3872 8.6602C14.3872 8.6642 14.3834 8.6682 14.3834 8.6682C14.372 8.6922 14.3606 8.7162 14.3454 8.73619C14.3416 8.7402 14.3416 8.74419 14.3378 8.74419C14.3226 8.7642 14.3036 8.7882 14.2846 8.8042L14.2808 8.8082L12.6354 10.3642H17.6514L15.5576 7.5642ZM11.9286 9.79219L12.8368 8.93219H11.9286V9.79219ZM6.164 8.93219L7.0722 9.79219V8.93219H6.164ZM6.3616 10.3682L4.7162 8.81219L4.7124 8.8082C4.6934 8.7882 4.6744 8.7682 4.6592 8.7482C4.6554 8.7442 4.6554 8.7402 4.6516 8.7402C4.6364 8.72019 4.625 8.69619 4.6136 8.67219C4.6136 8.66819 4.6098 8.6642 4.6098 8.6642C4.5984 8.6402 4.5908 8.6162 4.5832 8.5882C4.5832 8.5842 4.5832 8.58019 4.5794 8.58019C4.5718 8.5562 4.5718 8.5282 4.568 8.5042C4.568 8.5002 4.568 8.49619 4.568 8.49219C4.568 8.48419 4.568 8.48019 4.568 8.47219V4.1842H1.34559L3.4394 6.99219C3.5648 7.16019 3.5648 7.3962 3.4394 7.5682L1.3494 10.3762H6.3616V10.3682Z" fill="black"/>
</svg>
