<svg width="23" height="16" viewBox="0 0 23 16" fill="none" xmlns="http://www.w3.org/2000/svg">
<path d="M15.2212 2.3374C13.1129 2.3374 11.4171 4.03324 11.4171 6.14157C11.4171 8.20407 13.1129 9.94574 15.2212 9.94574C17.3296 9.94574 19.0254 8.20407 19.0254 6.14157C19.0254 4.03324 17.3296 2.3374 15.2212 2.3374ZM15.2212 3.66657C16.5962 3.66657 17.6962 4.76657 17.6962 6.14157C17.6962 7.51657 16.5962 8.61657 15.2212 8.61657C13.8462 8.61657 12.7462 7.51657 12.7462 6.14157C12.7462 4.76657 13.8462 3.66657 15.2212 3.66657Z" fill="black"/>
<path d="M20.8124 15.0331C20.9958 15.354 21.4083 15.4456 21.6833 15.2165C22.0041 15.0331 22.0958 14.6206 21.9124 14.2998C20.3999 12.054 17.9249 10.679 15.2208 10.679C12.5166 10.679 9.99576 12.054 8.52909 14.2998C8.34576 14.6206 8.43742 15.0331 8.71242 15.2165C9.03326 15.4456 9.44576 15.354 9.62909 15.0331C10.8666 13.154 12.9749 12.0081 15.2208 12.0081C17.4666 12.0081 19.5749 13.154 20.8124 15.0331Z" fill="black"/>
<path d="M6.78763 0C4.67929 0 2.98346 1.69583 2.98346 3.80417C2.98346 5.9125 4.67929 7.60833 6.78763 7.60833C8.89596 7.60833 10.5918 5.86667 10.5918 3.80417C10.5918 1.69583 8.89596 0 6.78763 0ZM6.78763 1.32917C8.16263 1.32917 9.26263 2.42917 9.26263 3.80417C9.26263 5.17917 8.16263 6.27917 6.78763 6.27917C5.41263 6.27917 4.31263 5.17917 4.31263 3.80417C4.31263 2.42917 5.41263 1.32917 6.78763 1.32917Z" fill="black"/>
<path d="M10.3622 10.7246C10.6372 10.908 11.0497 10.8163 11.2331 10.4955C11.4622 10.2205 11.3706 9.80798 11.0497 9.57881C9.76639 8.79964 8.29972 8.34131 6.78722 8.34131C4.08305 8.34131 1.56222 9.71631 0.0955544 11.9621C-0.087779 12.283 0.00388813 12.6955 0.278888 12.8788C0.599721 13.108 1.01222 13.0163 1.19555 12.6955C2.43305 10.8163 4.54139 9.67048 6.78722 9.67048C8.07055 9.67048 9.26222 10.0371 10.3622 10.7246Z" fill="black"/>
</svg>
