<svg width="24" height="24" viewBox="0 0 24 24" fill="none" xmlns="http://www.w3.org/2000/svg">
<path d="M8.12652 6.58291C8.12652 5.76005 7.4408 5.07434 6.61795 5.07434C5.79509 5.07434 5.10938 5.76005 5.10938 6.58291C5.10938 7.40577 5.79509 8.09148 6.61795 8.09148C7.4408 8.09148 8.12652 7.44005 8.12652 6.58291ZM5.7608 6.58291C5.7608 6.1372 6.13795 5.76005 6.58366 5.76005C7.02938 5.76005 7.40652 6.1372 7.40652 6.58291C7.40652 7.02863 7.02938 7.40577 6.58366 7.40577C6.13795 7.40577 5.7608 7.06291 5.7608 6.58291Z" fill="black"/>
<path d="M17.0743 11.6571C15.3258 11.6571 13.9201 13.0628 13.9201 14.8114C13.9201 16.1142 15.5658 18.4457 16.3886 19.5428H6.30863C5.28006 19.5428 4.4572 18.7199 4.4572 17.6914C4.4572 16.6628 5.28006 15.8399 6.30863 15.8399H10.7315C12.1372 15.8399 13.2686 14.7085 13.2686 13.2685C13.2686 11.8628 12.1372 10.7314 10.7315 10.7314H7.30291C8.0572 9.73709 9.42863 7.74852 9.42863 6.61709C9.42863 5.07423 8.16006 3.80566 6.6172 3.80566C5.07434 3.80566 3.77148 5.03995 3.77148 6.58281C3.77148 8.02281 6.06863 10.9028 6.34291 11.2457C6.3772 11.2799 6.3772 11.2799 6.41148 11.3142L6.44577 11.3485C6.48006 11.3828 6.54863 11.3828 6.58291 11.3828H10.7315C11.7601 11.3828 12.5829 12.2057 12.5829 13.2685C12.5829 14.2971 11.7601 15.1199 10.7315 15.1199H6.30863C4.90291 15.1199 3.77148 16.2514 3.77148 17.6571C3.77148 19.0628 4.90291 20.1942 6.30863 20.1942H17.0401C17.0743 20.1942 17.1429 20.1942 17.1772 20.1599C17.1772 20.1599 17.2115 20.1599 17.2115 20.1257C17.2458 20.0914 17.2801 20.0914 17.2801 20.0571C17.6229 19.7485 20.2286 16.4571 20.2286 14.8457C20.2286 13.0971 18.8229 11.6571 17.0743 11.6571ZM6.58291 4.45709C7.74863 4.45709 8.70863 5.41709 8.70863 6.58281C8.70863 7.47424 7.3372 9.46281 6.58291 10.4571C5.79434 9.42852 4.4572 7.47424 4.4572 6.58281C4.4572 5.41709 5.4172 4.45709 6.58291 4.45709ZM17.0743 12.3428C18.4458 12.3428 19.5429 13.4742 19.5429 14.8114C19.5429 15.8742 17.9315 18.1714 17.0743 19.3028C16.1829 18.1714 14.6058 15.8742 14.6058 14.8114C14.5715 13.4742 15.7029 12.3428 17.0743 12.3428Z" fill="black"/>
<path d="M18.7545 14.8456C18.7545 13.9199 18.0002 13.1656 17.0745 13.1656C16.1488 13.1656 15.3945 13.9199 15.3945 14.8456C15.3945 15.7714 16.1488 16.5257 17.0745 16.5257C18.0002 16.5257 18.7545 15.7714 18.7545 14.8456ZM16.046 14.8456C16.046 14.2971 16.4917 13.8514 17.0402 13.8514C17.5888 13.8514 18.0345 14.2971 18.0345 14.8456C18.0345 15.3942 17.5888 15.8399 17.0402 15.8399C16.4917 15.8399 16.046 15.3942 16.046 14.8456Z" fill="black"/>
</svg>
