<svg width="20" height="20" viewBox="0 0 20 20" fill="none" xmlns="http://www.w3.org/2000/svg">
<path d="M15.5996 9.68C15.5996 9.66 15.5996 9.62 15.5996 9.6C15.5996 9.5 15.6396 9.4 15.7196 9.32C15.7396 9.3 15.7596 9.28 15.7796 9.28C15.7996 9.28 15.8196 9.26 15.8396 9.24C15.8596 9.24 15.8796 9.22 15.9196 9.22C15.9596 9.22 16.0196 9.22 16.0796 9.22C16.0996 9.22 16.1196 9.24 16.1596 9.24C16.1796 9.26 16.1996 9.26 16.2196 9.28C16.2396 9.3 16.2596 9.32 16.2796 9.32C16.2996 9.34 16.3196 9.36 16.3196 9.38C16.3396 9.4 16.3396 9.42 16.3596 9.44C16.3796 9.46 16.3796 9.48 16.3796 9.52C16.3796 9.54 16.3796 9.58 16.3796 9.6C16.3796 9.62 16.3796 9.66 16.3796 9.68C16.3796 9.7 16.3596 9.72 16.3596 9.76C16.3596 9.78 16.3396 9.8 16.3196 9.82C16.2996 9.84 16.2996 9.86 16.2796 9.88C16.2596 9.9 16.2396 9.92 16.2196 9.92C16.1996 9.92 16.1796 9.94 16.1596 9.96C16.1396 9.96 16.1196 9.98 16.0796 9.98C16.0596 9.98 16.0196 9.98 15.9996 9.98C15.8996 9.98 15.7996 9.94 15.7196 9.86C15.6996 9.84 15.6796 9.82 15.6796 9.8C15.6596 9.78 15.6596 9.76 15.6396 9.74C15.6196 9.72 15.6196 9.7 15.5996 9.68ZM13.9996 10C14.0996 10 14.1996 9.96 14.2796 9.88C14.3596 9.8 14.3996 9.7 14.3996 9.6C14.3996 9.5 14.3596 9.4 14.2796 9.32C14.1396 9.18 13.8596 9.18 13.7196 9.32C13.6396 9.4 13.5996 9.5 13.5996 9.6C13.5996 9.7 13.6396 9.8 13.7196 9.88C13.7996 9.96 13.8996 10 13.9996 10ZM11.6396 9.76C11.6396 9.78 11.6596 9.8 11.6796 9.82C11.6996 9.84 11.6996 9.86 11.7196 9.88C11.7996 9.96 11.8996 10 11.9996 10C12.0996 10 12.1996 9.96 12.2796 9.88C12.2996 9.86 12.3196 9.84 12.3196 9.82C12.3396 9.8 12.3396 9.78 12.3596 9.76C12.3796 9.74 12.3796 9.72 12.3796 9.68C12.3796 9.66 12.3796 9.62 12.3796 9.6C12.3796 9.58 12.3796 9.54 12.3796 9.52C12.3796 9.5 12.3596 9.48 12.3596 9.44C12.3596 9.42 12.3396 9.4 12.3196 9.38C12.2996 9.36 12.2996 9.34 12.2796 9.32C12.1396 9.16 11.8596 9.16 11.7196 9.32C11.6996 9.34 11.6796 9.36 11.6796 9.38C11.6596 9.4 11.6596 9.42 11.6396 9.44C11.6196 9.46 11.6196 9.48 11.6196 9.52C11.6196 9.54 11.6196 9.58 11.6196 9.6C11.6196 9.62 11.6196 9.66 11.6196 9.68C11.6196 9.7 11.6196 9.72 11.6396 9.76ZM15.6396 11.76C15.6396 11.78 15.6596 11.8 15.6796 11.82C15.6996 11.84 15.6996 11.86 15.7196 11.88C15.7596 11.92 15.7996 11.94 15.8396 11.96C15.8996 12 15.9396 12 15.9996 12C16.0196 12 16.0596 12 16.0796 12C16.0996 12 16.1396 11.98 16.1596 11.98C16.1796 11.98 16.1996 11.96 16.2196 11.94C16.2396 11.92 16.2596 11.92 16.2796 11.9C16.2996 11.88 16.3196 11.86 16.3196 11.84C16.3396 11.82 16.3396 11.8 16.3596 11.78C16.3796 11.76 16.3796 11.74 16.3796 11.7C16.3796 11.68 16.3796 11.64 16.3796 11.62C16.3796 11.52 16.3396 11.42 16.2596 11.34C16.2396 11.32 16.2196 11.3 16.1996 11.3C16.1796 11.3 16.1596 11.28 16.1396 11.26C16.1196 11.26 16.0996 11.24 16.0596 11.24C15.9196 11.22 15.7996 11.26 15.6996 11.34C15.6796 11.36 15.6596 11.38 15.6596 11.4C15.6396 11.42 15.6396 11.44 15.6196 11.46C15.5996 11.48 15.5996 11.5 15.5996 11.54C15.5996 11.56 15.5996 11.6 15.5996 11.62C15.5996 11.64 15.5996 11.68 15.5996 11.7C15.6196 11.7 15.6196 11.72 15.6396 11.76ZM13.6396 11.76C13.6396 11.78 13.6596 11.8 13.6796 11.82C13.6996 11.84 13.7196 11.86 13.7396 11.88C13.7996 11.96 13.8996 12 13.9996 12C14.0196 12 14.0596 12 14.0796 12C14.0996 12 14.1396 11.98 14.1596 11.98C14.1796 11.98 14.1996 11.96 14.2196 11.94C14.2396 11.92 14.2596 11.92 14.2796 11.9C14.2996 11.88 14.3196 11.86 14.3196 11.84C14.3396 11.82 14.3396 11.8 14.3596 11.78C14.3796 11.76 14.3796 11.74 14.3796 11.7C14.3796 11.68 14.3796 11.64 14.3796 11.62C14.3796 11.52 14.3396 11.42 14.2596 11.34C14.1196 11.18 13.8396 11.18 13.6996 11.34C13.6396 11.4 13.5996 11.5 13.5996 11.6C13.5996 11.62 13.5996 11.66 13.5996 11.68C13.6196 11.7 13.6196 11.72 13.6396 11.76ZM11.9996 12C12.0996 12 12.1996 11.96 12.2796 11.88C12.3596 11.8 12.3996 11.7 12.3996 11.6C12.3996 11.5 12.3596 11.4 12.2796 11.32C12.1396 11.16 11.8596 11.16 11.7196 11.32C11.6396 11.4 11.5996 11.5 11.5996 11.6C11.5996 11.7 11.6396 11.8 11.7196 11.88C11.7996 11.96 11.8996 12 11.9996 12ZM15.7196 13.88C15.7596 13.92 15.7996 13.94 15.8396 13.96C15.8996 14 15.9396 14 15.9996 14C16.0196 14 16.0596 14 16.0796 14C16.0996 14 16.1396 13.98 16.1596 13.98C16.1796 13.98 16.1996 13.96 16.2196 13.94C16.2396 13.92 16.2596 13.92 16.2796 13.9C16.3196 13.86 16.3396 13.82 16.3596 13.78C16.3996 13.7 16.3996 13.66 16.3996 13.6C16.3996 13.5 16.3596 13.4 16.2796 13.32C16.2596 13.3 16.2396 13.28 16.2196 13.28C16.1996 13.28 16.1796 13.26 16.1596 13.24C16.1396 13.24 16.1196 13.22 16.0796 13.22C15.9396 13.2 15.8196 13.24 15.7196 13.32C15.6396 13.4 15.5996 13.5 15.5996 13.6C15.5996 13.66 15.5996 13.7 15.6396 13.76C15.6396 13.8 15.6796 13.84 15.7196 13.88ZM13.7196 13.88C13.7996 13.96 13.8996 14 13.9996 14C14.0196 14 14.0596 14 14.0796 14C14.0996 14 14.1396 13.98 14.1596 13.98C14.1796 13.98 14.1996 13.96 14.2196 13.94C14.2396 13.92 14.2596 13.92 14.2796 13.9C14.3196 13.86 14.3396 13.82 14.3596 13.78C14.3996 13.7 14.3996 13.66 14.3996 13.6C14.3996 13.5 14.3596 13.4 14.2796 13.32C14.2596 13.3 14.2396 13.28 14.2196 13.28C14.1996 13.28 14.1796 13.26 14.1596 13.24C14.1396 13.24 14.1196 13.22 14.0796 13.22C13.9396 13.2 13.8196 13.24 13.7196 13.32C13.6396 13.4 13.5996 13.5 13.5996 13.6C13.5996 13.66 13.5996 13.7 13.6396 13.76C13.6396 13.8 13.6796 13.84 13.7196 13.88ZM11.8396 13.96C11.8996 14 11.9396 14 11.9996 14C12.0196 14 12.0596 14 12.0796 14C12.0996 14 12.1396 13.98 12.1596 13.98C12.1796 13.98 12.1996 13.96 12.2196 13.94C12.2396 13.92 12.2596 13.92 12.2796 13.9C12.3596 13.8 12.3996 13.7 12.3996 13.6C12.3996 13.5 12.3596 13.4 12.2796 13.32C12.1396 13.16 11.8596 13.16 11.7196 13.32C11.6396 13.4 11.5996 13.5 11.5996 13.6C11.5996 13.7 11.6396 13.8 11.7196 13.88C11.7596 13.92 11.7996 13.96 11.8396 13.96ZM15.8396 15.96C15.8996 16 15.9396 16 15.9996 16C16.0196 16 16.0596 16 16.0796 16C16.0996 16 16.1396 15.98 16.1596 15.98C16.1796 15.98 16.1996 15.96 16.2196 15.94C16.2396 15.92 16.2596 15.9 16.2796 15.88C16.3596 15.8 16.3996 15.7 16.3996 15.6C16.3996 15.58 16.3996 15.54 16.3996 15.52C16.3996 15.5 16.3796 15.46 16.3796 15.44C16.3796 15.42 16.3596 15.4 16.3396 15.38C16.3196 15.36 16.3196 15.34 16.2996 15.32C16.2796 15.3 16.2596 15.28 16.2396 15.28C16.2196 15.28 16.1996 15.26 16.1796 15.24C16.1596 15.24 16.1396 15.22 16.0996 15.22C16.0396 15.22 15.9996 15.22 15.9396 15.22C15.9196 15.22 15.8796 15.24 15.8596 15.24C15.8396 15.26 15.8196 15.26 15.7996 15.28C15.7796 15.3 15.7596 15.32 15.7396 15.32C15.7196 15.34 15.6996 15.36 15.6996 15.38C15.6796 15.4 15.6796 15.42 15.6596 15.44C15.6396 15.46 15.6396 15.48 15.6396 15.52C15.6396 15.54 15.6396 15.58 15.6396 15.6C15.6396 15.7 15.6796 15.8 15.7596 15.88C15.7596 15.92 15.7996 15.96 15.8396 15.96ZM13.9996 16C14.0996 16 14.1996 15.96 14.2796 15.88C14.3596 15.8 14.3996 15.7 14.3996 15.6C14.3996 15.58 14.3996 15.54 14.3996 15.52C14.3996 15.5 14.3796 15.46 14.3796 15.44C14.3796 15.42 14.3596 15.4 14.3396 15.38C14.3196 15.36 14.3196 15.34 14.2996 15.32C14.1596 15.16 13.8796 15.16 13.7396 15.32C13.7196 15.34 13.6996 15.36 13.6996 15.38C13.6796 15.4 13.6796 15.42 13.6596 15.44C13.6396 15.46 13.6396 15.48 13.6396 15.52C13.6396 15.54 13.6396 15.58 13.6396 15.6C13.6396 15.7 13.6796 15.8 13.7596 15.88C13.7996 15.96 13.8996 16 13.9996 16ZM11.8396 15.96C11.8996 16 11.9396 16 11.9996 16C12.0596 16 12.0996 16 12.1596 15.96C12.1996 15.94 12.2596 15.92 12.2796 15.88C12.3596 15.8 12.3996 15.7 12.3996 15.6C12.3996 15.58 12.3996 15.54 12.3996 15.52C12.3996 15.5 12.3796 15.46 12.3796 15.44C12.3796 15.42 12.3596 15.4 12.3396 15.38C12.3196 15.36 12.3196 15.34 12.2996 15.32C12.1596 15.16 11.8796 15.16 11.7396 15.32C11.7196 15.34 11.6996 15.36 11.6996 15.38C11.6796 15.4 11.6796 15.42 11.6596 15.44C11.6396 15.46 11.6396 15.48 11.6396 15.52C11.6396 15.54 11.6396 15.58 11.6396 15.6C11.6396 15.7 11.6796 15.8 11.7596 15.88C11.7596 15.92 11.7996 15.96 11.8396 15.96ZM4.59961 15C3.95961 14.36 3.59961 13.5 3.59961 12.6C3.59961 11.7 3.95961 10.84 4.59961 10.2C5.91961 8.88 8.07961 8.88 9.39961 10.2C10.0396 10.84 10.3996 11.7 10.3996 12.6C10.3996 13.5 10.0396 14.36 9.39961 15C8.75961 15.64 7.89961 16 6.99961 16C6.09961 16 5.23961 15.64 4.59961 15ZM4.39961 12.6C4.39961 13.3 4.65961 13.94 5.15961 14.44C5.65961 14.94 6.29961 15.2 6.99961 15.2C7.69961 15.2 8.33961 14.92 8.83961 14.44C9.33961 13.94 9.59961 13.3 9.59961 12.6C9.59961 11.9 9.33961 11.26 8.83961 10.76C8.33961 10.26 7.65961 10 6.99961 10C6.33961 10 5.65961 10.26 5.15961 10.76C4.65961 11.26 4.39961 11.9 4.39961 12.6ZM18.3996 5.2V16.4C18.3996 17.28 17.6796 18 16.7996 18H3.19961C2.31961 18 1.59961 17.28 1.59961 16.4V5.2C1.59961 4.32 2.31961 3.6 3.19961 3.6H3.59961V3.4C3.59961 2.62 4.21961 2 4.99961 2C5.77961 2 6.39961 2.62 6.39961 3.4V3.6H8.59961V3.4C8.59961 2.62 9.21961 2 9.99961 2C10.7796 2 11.3996 2.62 11.3996 3.4V3.6H13.5996V3.4C13.5996 2.62 14.2196 2 14.9996 2C15.7796 2 16.3996 2.62 16.3996 3.4V3.6H16.7996C17.6796 3.6 18.3996 4.32 18.3996 5.2ZM14.3996 4.6C14.3996 4.92 14.6596 5.2 14.9996 5.2C15.3396 5.2 15.5996 4.92 15.5996 4.6V3.4C15.5996 3.06 15.3396 2.8 14.9996 2.8C14.6596 2.8 14.3996 3.06 14.3996 3.4V4.6ZM9.39961 4.6C9.39961 4.92 9.65961 5.2 9.99961 5.2C10.3396 5.2 10.5996 4.92 10.5996 4.6V3.4C10.5996 3.06 10.3396 2.8 9.99961 2.8C9.65961 2.8 9.39961 3.06 9.39961 3.4V4.6ZM4.39961 4.6C4.39961 4.92 4.65961 5.2 4.99961 5.2C5.33961 5.2 5.59961 4.92 5.59961 4.6V3.4C5.59961 3.06 5.33961 2.8 4.99961 2.8C4.65961 2.8 4.39961 3.06 4.39961 3.4V4.6ZM17.5996 8H2.39961V16.4C2.39961 16.84 2.75961 17.2 3.19961 17.2H16.7996C17.2396 17.2 17.5996 16.84 17.5996 16.4V8ZM17.5996 5.2C17.5996 4.76 17.2396 4.4 16.7996 4.4H16.3996V4.6C16.3996 5.38 15.7796 6 14.9996 6C14.2196 6 13.5996 5.38 13.5996 4.6V4.4H11.3996V4.6C11.3996 5.38 10.7796 6 9.99961 6C9.21961 6 8.59961 5.38 8.59961 4.6V4.4H6.39961V4.6C6.39961 5.38 5.77961 6 4.99961 6C4.21961 6 3.59961 5.38 3.59961 4.6V4.4H3.19961C2.75961 4.4 2.39961 4.76 2.39961 5.2V7.2H17.5996V5.2ZM6.61961 12.72C6.61961 12.74 6.61961 12.74 6.63961 12.76C6.63961 12.78 6.65961 12.78 6.65961 12.8C6.65961 12.8 6.65961 12.82 6.67961 12.84C6.69961 12.86 6.69961 12.88 6.71961 12.9L7.41961 13.6C7.49961 13.68 7.59961 13.72 7.69961 13.72C7.79961 13.72 7.89961 13.68 7.97961 13.6C8.13961 13.44 8.13961 13.18 7.97961 13.04L7.37961 12.44V11.6C7.37961 11.38 7.19961 11.2 6.97961 11.2C6.75961 11.2 6.57961 11.38 6.57961 11.6V12.6C6.57961 12.62 6.57961 12.66 6.57961 12.68C6.59961 12.7 6.61961 12.7 6.61961 12.72Z" fill="black"/>
</svg>
