<svg width="21" height="22" viewBox="0 0 21 22" fill="none" xmlns="http://www.w3.org/2000/svg">
<path d="M16.3588 3.78418C15.8548 3.85018 15.3508 3.87218 14.8468 3.87218C13.5448 3.87218 12.2848 3.41018 11.1718 2.99218C11.0248 2.92618 10.8778 2.88218 10.7308 2.83818C10.5838 2.79418 10.4158 2.79418 10.2898 2.83818C10.1428 2.88218 9.99577 2.94818 9.84877 2.99218C8.73577 3.41018 7.47577 3.87218 6.17377 3.87218C5.66977 3.87218 5.14477 3.85018 4.66177 3.78418C4.47277 3.76218 4.26277 3.82818 4.11577 3.96018C3.96877 4.09218 3.88477 4.29018 3.88477 4.51018V12.2542C3.88477 16.1042 9.95377 19.0082 10.2268 19.1182C10.3108 19.1622 10.4158 19.1842 10.4998 19.1842C10.6048 19.1842 10.6888 19.1622 10.7728 19.1182C11.0248 18.9862 17.1148 16.1042 17.1148 12.2542V4.51018C17.1148 4.31218 17.0308 4.11418 16.8838 3.96018C16.7368 3.82818 16.5478 3.76218 16.3588 3.78418ZM15.7288 12.2542C15.7288 14.5422 12.1798 16.8082 10.4998 17.6662C8.81977 16.8082 5.27077 14.5422 5.27077 12.2542V5.30218C5.56477 5.32418 5.85877 5.32418 6.17377 5.32418C7.70677 5.32418 9.15577 4.79618 10.3108 4.37818C10.3738 4.35618 10.4578 4.33418 10.5208 4.31218C10.5838 4.33418 10.6678 4.35618 10.7308 4.37818C11.8858 4.79618 13.3138 5.32418 14.8678 5.32418C15.1618 5.32418 15.4768 5.32418 15.7708 5.30218V12.2542H15.7288Z" fill="black"/>
<path d="M7.63647 10.5L10.0228 13L13.841 9" stroke="black"/>
</svg>
