<svg width="298" height="55" viewBox="0 0 298 55" fill="none" xmlns="http://www.w3.org/2000/svg">
<path d="M95.3438 19.7883C95.2238 19.9883 95.0904 20.1416 94.9437 20.2483C94.8104 20.3416 94.6437 20.3883 94.4437 20.3883C94.217 20.3883 93.9505 20.275 93.6438 20.0483C93.3371 19.8216 92.9504 19.575 92.4837 19.3083C92.0304 19.0283 91.4771 18.775 90.8238 18.5483C90.1838 18.3216 89.4037 18.2083 88.4837 18.2083C87.6171 18.2083 86.8504 18.3283 86.1838 18.5683C85.5304 18.795 84.9771 19.1083 84.5238 19.5083C84.0838 19.9083 83.7504 20.3816 83.5238 20.9283C83.2971 21.4616 83.1838 22.0416 83.1838 22.6683C83.1838 23.4683 83.3771 24.135 83.7638 24.6683C84.1638 25.1883 84.6838 25.635 85.3238 26.0083C85.9771 26.3816 86.7104 26.7083 87.5238 26.9883C88.3505 27.255 89.1905 27.535 90.0438 27.8283C90.9105 28.1216 91.7505 28.455 92.5638 28.8283C93.3905 29.1883 94.1238 29.6483 94.7638 30.2083C95.4171 30.7683 95.9371 31.455 96.3238 32.2683C96.7238 33.0816 96.9238 34.0816 96.9238 35.2683C96.9238 36.5216 96.7105 37.7016 96.2838 38.8083C95.8571 39.9016 95.2305 40.855 94.4038 41.6683C93.5905 42.4816 92.5838 43.1216 91.3838 43.5883C90.1971 44.055 88.8438 44.2883 87.3238 44.2883C85.4571 44.2883 83.7638 43.955 82.2438 43.2883C80.7238 42.6083 79.4238 41.695 78.3438 40.5483L79.4638 38.7083C79.5704 38.5616 79.6971 38.4416 79.8438 38.3483C80.0037 38.2416 80.1771 38.1883 80.3638 38.1883C80.5371 38.1883 80.7304 38.2616 80.9437 38.4083C81.1704 38.5416 81.4238 38.715 81.7038 38.9283C81.9838 39.1416 82.3037 39.375 82.6637 39.6283C83.0237 39.8816 83.4304 40.115 83.8838 40.3283C84.3504 40.5416 84.8771 40.7216 85.4638 40.8683C86.0504 41.0016 86.7104 41.0683 87.4437 41.0683C88.3637 41.0683 89.1838 40.9416 89.9038 40.6883C90.6238 40.435 91.2305 40.0816 91.7238 39.6283C92.2305 39.1616 92.6171 38.6083 92.8838 37.9683C93.1505 37.3283 93.2838 36.615 93.2838 35.8283C93.2838 34.9616 93.0838 34.255 92.6838 33.7083C92.2971 33.1483 91.7838 32.6816 91.1438 32.3083C90.5038 31.935 89.7704 31.6216 88.9437 31.3683C88.1171 31.1016 87.2771 30.835 86.4238 30.5683C85.5704 30.2883 84.7304 29.9683 83.9038 29.6083C83.0771 29.2483 82.3438 28.7816 81.7038 28.2083C81.0638 27.635 80.5438 26.9216 80.1438 26.0683C79.7571 25.2016 79.5638 24.135 79.5638 22.8683C79.5638 21.855 79.7571 20.8749 80.1438 19.9283C80.5438 18.9816 81.1171 18.1416 81.8638 17.4083C82.6238 16.675 83.5504 16.0883 84.6438 15.6483C85.7504 15.2083 87.0171 14.9883 88.4437 14.9883C90.0437 14.9883 91.497 15.2416 92.8037 15.7483C94.1237 16.255 95.2838 16.9883 96.2838 17.9483L95.3438 19.7883Z" fill="#3C4A63"/>
<path d="M121.077 32.5476V43.9676H117.197V32.5476L106.697 15.3076H110.097C110.444 15.3076 110.717 15.3943 110.917 15.5676C111.117 15.7276 111.291 15.9409 111.437 16.2076L117.997 27.3476C118.237 27.8143 118.457 28.2543 118.657 28.6676C118.857 29.0676 119.031 29.4743 119.177 29.8876C119.324 29.4743 119.491 29.0676 119.677 28.6676C119.864 28.2543 120.071 27.8143 120.297 27.3476L126.837 16.2076C126.957 15.9809 127.124 15.7743 127.337 15.5876C127.551 15.401 127.824 15.3076 128.157 15.3076H131.577L121.077 32.5476Z" fill="#3C4A63"/>
<path d="M164.997 15.3076V43.9676H163.057C162.751 43.9676 162.491 43.9143 162.277 43.8076C162.077 43.7009 161.877 43.5209 161.677 43.2676L145.097 21.6676C145.124 22.0009 145.144 22.3276 145.157 22.6476C145.171 22.9676 145.177 23.2676 145.177 23.5476V43.9676H141.777V15.3076H143.777C143.951 15.3076 144.097 15.321 144.217 15.3476C144.337 15.361 144.444 15.3943 144.537 15.4476C144.631 15.4876 144.724 15.5543 144.817 15.6476C144.911 15.7276 145.011 15.8343 145.117 15.9676L161.697 37.5476C161.671 37.2009 161.644 36.8676 161.617 36.5476C161.604 36.2143 161.597 35.9009 161.597 35.6076V15.3076H164.997Z" fill="#3C4A63"/>
<path d="M195.045 33.3276L190.545 21.6676C190.411 21.3209 190.271 20.9209 190.125 20.4676C189.978 20.0009 189.838 19.5076 189.705 18.9876C189.425 20.0676 189.138 20.9676 188.845 21.6876L184.345 33.3276H195.045ZM203.125 43.9676H200.125C199.778 43.9676 199.498 43.8809 199.285 43.7076C199.071 43.5343 198.911 43.3143 198.805 43.0476L196.125 36.1276H183.265L180.585 43.0476C180.505 43.2876 180.351 43.5009 180.125 43.6876C179.898 43.8743 179.618 43.9676 179.285 43.9676H176.285L187.745 15.3076H191.665L203.125 43.9676Z" fill="#3C4A63"/>
<path d="M223.855 30.1676C224.962 30.1676 225.935 30.0209 226.775 29.7276C227.628 29.4343 228.342 29.0276 228.915 28.5076C229.502 27.9743 229.942 27.3409 230.235 26.6076C230.528 25.8743 230.675 25.0676 230.675 24.1876C230.675 22.3609 230.108 20.9343 228.975 19.9076C227.855 18.8809 226.148 18.3676 223.855 18.3676H219.255V30.1676H223.855ZM223.855 15.3076C225.668 15.3076 227.242 15.5209 228.575 15.9476C229.922 16.3609 231.035 16.9543 231.915 17.7276C232.795 18.5009 233.448 19.4343 233.875 20.5276C234.315 21.6209 234.535 22.8409 234.535 24.1876C234.535 25.5209 234.302 26.7409 233.835 27.8476C233.368 28.9543 232.682 29.9076 231.775 30.7076C230.882 31.5076 229.768 32.1343 228.435 32.5876C227.115 33.0276 225.588 33.2476 223.855 33.2476H219.255V43.9676H215.395V15.3076H223.855Z" fill="#3C4A63"/>
<path d="M263.578 19.7883C263.458 19.9883 263.325 20.1416 263.178 20.2483C263.045 20.3416 262.878 20.3883 262.678 20.3883C262.452 20.3883 262.185 20.275 261.878 20.0483C261.572 19.8216 261.185 19.575 260.718 19.3083C260.265 19.0283 259.712 18.775 259.058 18.5483C258.418 18.3216 257.638 18.2083 256.718 18.2083C255.852 18.2083 255.085 18.3283 254.418 18.5683C253.765 18.795 253.212 19.1083 252.758 19.5083C252.318 19.9083 251.985 20.3816 251.758 20.9283C251.532 21.4616 251.418 22.0416 251.418 22.6683C251.418 23.4683 251.612 24.135 251.998 24.6683C252.398 25.1883 252.918 25.635 253.558 26.0083C254.212 26.3816 254.945 26.7083 255.758 26.9883C256.585 27.255 257.425 27.535 258.278 27.8283C259.145 28.1216 259.985 28.455 260.798 28.8283C261.625 29.1883 262.358 29.6483 262.998 30.2083C263.652 30.7683 264.172 31.455 264.558 32.2683C264.958 33.0816 265.158 34.0816 265.158 35.2683C265.158 36.5216 264.945 37.7016 264.518 38.8083C264.092 39.9016 263.465 40.855 262.638 41.6683C261.825 42.4816 260.818 43.1216 259.618 43.5883C258.432 44.055 257.078 44.2883 255.558 44.2883C253.692 44.2883 251.998 43.955 250.478 43.2883C248.958 42.6083 247.658 41.695 246.578 40.5483L247.698 38.7083C247.805 38.5616 247.932 38.4416 248.078 38.3483C248.238 38.2416 248.412 38.1883 248.598 38.1883C248.772 38.1883 248.965 38.2616 249.178 38.4083C249.405 38.5416 249.658 38.715 249.938 38.9283C250.218 39.1416 250.538 39.375 250.898 39.6283C251.258 39.8816 251.665 40.115 252.118 40.3283C252.585 40.5416 253.112 40.7216 253.698 40.8683C254.285 41.0016 254.945 41.0683 255.678 41.0683C256.598 41.0683 257.418 40.9416 258.138 40.6883C258.858 40.435 259.465 40.0816 259.958 39.6283C260.465 39.1616 260.852 38.6083 261.118 37.9683C261.385 37.3283 261.518 36.615 261.518 35.8283C261.518 34.9616 261.318 34.255 260.918 33.7083C260.532 33.1483 260.018 32.6816 259.378 32.3083C258.738 31.935 258.005 31.6216 257.178 31.3683C256.352 31.1016 255.512 30.835 254.658 30.5683C253.805 30.2883 252.965 29.9683 252.138 29.6083C251.312 29.2483 250.578 28.7816 249.938 28.2083C249.298 27.635 248.778 26.9216 248.378 26.0683C247.992 25.2016 247.798 24.135 247.798 22.8683C247.798 21.855 247.992 20.8749 248.378 19.9283C248.778 18.9816 249.352 18.1416 250.098 17.4083C250.858 16.675 251.785 16.0883 252.878 15.6483C253.985 15.2083 255.252 14.9883 256.678 14.9883C258.278 14.9883 259.732 15.2416 261.038 15.7483C262.358 16.255 263.518 16.9883 264.518 17.9483L263.578 19.7883Z" fill="#3C4A63"/>
<path d="M297.817 40.8076L297.797 43.9676H280.137V15.3076H297.797V18.4676H284.017V27.9876H295.177V31.0276H284.017V40.8076H297.817Z" fill="#3C4A63"/>
<path d="M35.1118 14.6723L16.6221 25.3682L18.8438 29.2089L37.3336 18.513L35.1118 14.6723Z" fill="#5C94B9"/>
<path d="M36.4444 42.112L18.0029 31.5127L15.7826 35.3758L34.2241 45.9752L36.4444 42.112Z" fill="#62AC62"/>
<path d="M40.7028 39.6153L40.7119 18.2588L45.1498 18.2607L45.1407 39.6172L40.7028 39.6153Z" fill="#E8762B"/>
<path fill-rule="evenodd" clip-rule="evenodd" d="M16.5911 37.7542C20.8458 35.2925 22.3057 29.8581 19.8516 25.6158C17.3974 21.3736 11.9586 19.9298 7.70398 22.3911C3.44929 24.8524 1.9893 30.2868 4.44348 34.529C6.89767 38.7713 12.3364 40.2155 16.5911 37.7542ZM14.3679 33.9126C16.4962 32.6822 17.2251 29.9647 15.9981 27.8436C14.772 25.7225 12.0526 25.0004 9.92429 26.2313C7.79694 27.4621 7.06793 30.1791 8.29404 32.3002C9.5211 34.4213 12.2405 35.1435 14.3679 33.9126Z" fill="#C4C4C4"/>
<path fill-rule="evenodd" clip-rule="evenodd" d="M47.345 19.8196C51.5997 17.3579 53.0596 11.9235 50.6055 7.68126C48.1513 3.439 42.7125 1.99526 38.4579 4.45652C34.2032 6.91779 32.7432 12.3522 35.1974 16.5945C37.6516 20.8367 43.0903 22.281 47.345 19.8196ZM45.1227 15.978C47.251 14.7476 47.9801 12.0302 46.753 9.90909C45.5268 7.78795 42.8075 7.06582 40.6792 8.29671C38.5518 9.52758 37.8228 12.2445 39.0489 14.3657C40.276 16.4868 42.9954 17.2089 45.1227 15.978Z" fill="#C4C4C4"/>
<path fill-rule="evenodd" clip-rule="evenodd" d="M47.3352 19.8262C51.5813 17.3497 53.0383 11.9009 50.5891 7.6558C48.1398 3.41068 42.7121 1.9766 38.4661 4.45267C34.22 6.92875 32.7629 12.3775 35.2121 16.6226C37.6614 20.8678 43.0891 22.3023 47.3352 19.8262ZM45.1174 15.9825C47.2414 14.7447 47.969 12.0201 46.7443 9.8975C45.5207 7.77494 42.8069 7.05765 40.6829 8.29593C38.5598 9.53422 37.8323 12.2583 39.0559 14.3809C40.2805 16.5035 42.9944 17.2208 45.1174 15.9825Z" fill="#5C94B9"/>
<path fill-rule="evenodd" clip-rule="evenodd" d="M37.9294 53.7943C42.1735 56.2327 47.6023 54.7503 50.0544 50.4832C52.5075 46.2166 51.0554 40.7805 46.8112 38.3421C42.5671 35.9036 37.1384 37.386 34.6852 41.6531C32.2331 45.9202 33.6852 51.3558 37.9294 53.7943ZM40.1501 49.9315C42.2721 51.1507 44.986 50.4095 46.2126 48.2762C47.4392 46.1424 46.7136 43.4246 44.5915 42.2054C42.4694 40.9861 39.7546 41.7273 38.528 43.8606C37.3014 45.9944 38.028 48.7122 40.1501 49.9315Z" fill="#E8762B"/>
<path fill-rule="evenodd" clip-rule="evenodd" d="M16.5804 37.6973C20.8265 35.2208 22.2835 29.772 19.8343 25.5269C17.385 21.2818 11.9573 19.8477 7.71117 22.3238C3.46508 24.7998 2.00805 30.2486 4.45726 34.4937C6.90648 38.7389 12.3342 40.1734 16.5804 37.6973ZM14.3626 33.8536C16.4866 32.6158 17.2142 29.8912 15.9895 27.7686C14.7659 25.646 12.052 24.9287 9.92797 26.167C7.80492 27.4053 7.07738 30.1294 8.30101 32.252C9.52562 34.3746 12.2395 35.0919 14.3626 33.8536Z" fill="#62AC62"/>
</svg>
