<svg width="15" height="20" viewBox="0 0 15 20" fill="none" xmlns="http://www.w3.org/2000/svg">
<path d="M0.882353 3.82979V18.2979C0.882353 18.7679 1.2774 19.1489 1.76471 19.1489H13.2353C13.7226 19.1489 14.1176 18.7679 14.1176 18.2979V3.82979H0.882353ZM0 2.97872H15V18.2979C15 19.2379 14.2099 20 13.2353 20H1.76471C0.790086 20 0 19.2379 0 18.2979V2.97872ZM5.73529 0.851064H0.441176C0.197521 0.851064 0 1.04158 0 1.2766C0 1.51161 0.197521 1.70213 0.441176 1.70213H14.5588C14.8025 1.70213 15 1.51161 15 1.2766C15 1.04158 14.8025 0.851064 14.5588 0.851064H9.26471C9.26471 0.381034 8.86966 0 8.38235 0H6.61765C6.13034 0 5.73529 0.381034 5.73529 0.851064ZM3.52941 7.23404C3.77307 7.23404 3.97059 7.42456 3.97059 7.65957V15.3191C3.97059 15.5542 3.77307 15.7447 3.52941 15.7447C3.28576 15.7447 3.08824 15.5542 3.08824 15.3191V7.65957C3.08824 7.42456 3.28576 7.23404 3.52941 7.23404ZM7.5 7.23404C7.74366 7.23404 7.94118 7.42456 7.94118 7.65957V15.3191C7.94118 15.5542 7.74366 15.7447 7.5 15.7447C7.25635 15.7447 7.05882 15.5542 7.05882 15.3191V7.65957C7.05882 7.42456 7.25635 7.23404 7.5 7.23404ZM11.4706 7.23404C11.7142 7.23404 11.9118 7.42456 11.9118 7.65957V15.3191C11.9118 15.5542 11.7142 15.7447 11.4706 15.7447C11.2269 15.7447 11.0294 15.5542 11.0294 15.3191V7.65957C11.0294 7.42456 11.2269 7.23404 11.4706 7.23404Z" fill="black"/>
</svg>
