<svg width="440" height="332" viewBox="0 0 440 332" fill="none" xmlns="http://www.w3.org/2000/svg">
<g clip-path="url(#clip0_342_184339)">
<path d="M162.771 88.3659C181.724 76.1117 207.827 80.873 226.292 93.8571C232.318 98.1523 237.852 103.1 242.796 108.611C245.678 111.779 248.411 115.104 251.025 118.544C251.669 119.388 252.31 120.241 252.938 121.102C253.369 121.684 253.795 122.27 254.218 122.86C259.519 130.243 264.379 138.01 269.137 145.706C281.014 164.918 293.201 184.703 311.298 198.191C315.027 200.97 320.229 203.472 324.048 200.819C327.363 198.515 327.505 193.67 326.751 189.7C323.946 174.991 313.829 162.801 303.081 152.396C292.334 141.99 280.435 132.45 272.314 119.877C264.193 107.303 260.483 90.517 267.596 77.3483C273.726 66.0001 286.916 59.6347 299.79 59.3382C312.664 59.0445 325.171 64.0582 336.063 70.9427C346.953 77.83 356.53 86.5689 366.524 94.7059C372.549 99.6151 380.961 104.486 387.526 100.33C393.072 96.8172 393.505 88.385 390.199 82.7075C386.894 77.03 380.995 73.462 375.34 70.1345C357.782 59.7999 340.223 49.4663 322.665 39.1336C317.278 35.9662 311.773 32.6976 307.797 27.8678C303.819 23.0409 301.611 16.2568 303.804 10.3952C305.966 4.61884 312.007 0.950902 318.119 0.18543C324.226 -0.578276 330.386 1.11846 336.1 3.41675C357.51 12.0316 407.923 68.3916 421.36 78.0275C429.994 84.2162 439.065 92.0511 439.938 102.651C441.026 115.848 427.92 126.799 414.766 128.08C401.613 129.364 388.865 123.633 377.112 117.575C365.36 111.517 353.366 104.838 340.175 103.997C326.983 103.156 312.183 110.221 309.057 123.087C306.337 134.283 313.25 145.835 322.255 152.999C329.304 158.607 337.576 162.342 345.567 166.542C347.786 167.705 349.981 168.907 352.123 170.192C357.605 173.489 362.73 177.349 367.414 181.71C372.332 186.281 376.746 191.367 380.581 196.881C383.641 201.274 386.311 205.928 388.56 210.788C388.903 211.531 389.236 212.284 389.558 213.047C389.864 213.776 390.161 214.515 390.441 215.262C394.109 224.942 395.538 235.789 390.852 244.825C386.179 253.837 376.056 259.174 365.948 259.914C360.102 260.263 354.242 259.487 348.687 257.629C344.601 256.299 340.646 254.596 336.871 252.541C319.371 243.13 305.516 228.206 292.863 212.864C280.213 197.523 268.301 181.371 253.283 168.348C238.266 155.323 219.448 145.476 199.585 145.625C179.723 145.772 159.247 157.897 153.606 176.977C145.383 162.782 139.823 146.599 140.557 130.204C141.291 113.809 149.008 97.2667 162.771 88.3659Z" fill="#4F527D"/>
<path d="M239.827 141.407C241.032 141.407 242.009 140.428 242.009 139.221C242.009 138.013 241.032 137.034 239.827 137.034C238.622 137.034 237.645 138.013 237.645 139.221C237.645 140.428 238.622 141.407 239.827 141.407Z" fill="#63A650"/>
<path d="M157.593 144.533C159.456 144.533 160.966 143.02 160.966 141.153C160.966 139.286 159.456 137.772 157.593 137.772C155.729 137.772 154.219 139.286 154.219 141.153C154.219 143.02 155.729 144.533 157.593 144.533Z" fill="#C22E49"/>
<path d="M401.442 114.624C402.13 114.624 402.689 114.065 402.689 113.375C402.689 112.685 402.13 112.126 401.442 112.126C400.753 112.126 400.195 112.685 400.195 113.375C400.195 114.065 400.753 114.624 401.442 114.624Z" fill="#C22E49"/>
<path d="M376.219 47.4972C376.908 47.4972 377.466 46.938 377.466 46.2482C377.466 45.5585 376.908 44.9993 376.219 44.9993C375.531 44.9993 374.973 45.5585 374.973 46.2482C374.973 46.938 375.531 47.4972 376.219 47.4972Z" fill="#C22E49"/>
<path d="M343.734 169.909C344.088 168.885 344.565 167.908 345.154 167C347.373 168.163 349.569 169.365 351.71 170.65C357.193 173.947 362.318 177.807 367.002 182.168C365.116 184.735 362.375 186.54 359.275 187.254C356.175 187.969 352.922 187.546 350.106 186.063C347.291 184.579 345.1 182.134 343.931 179.17C342.761 176.206 342.692 172.92 343.734 169.909L343.734 169.909Z" fill="#C22E49"/>
<path d="M185.162 128.804C185.866 128.804 186.437 128.232 186.437 127.526C186.437 126.821 185.866 126.249 185.162 126.249C184.458 126.249 183.887 126.821 183.887 127.526C183.887 128.232 184.458 128.804 185.162 128.804Z" fill="#F1F3F5"/>
<path d="M341.361 34.2957C342.065 34.2957 342.636 33.7238 342.636 33.0183C342.636 32.3129 342.065 31.741 341.361 31.741C340.657 31.741 340.086 32.3129 340.086 33.0183C340.086 33.7238 340.657 34.2957 341.361 34.2957Z" fill="#F1F3F5"/>
<path d="M329.884 11.5425C330.588 11.5425 331.159 10.9706 331.159 10.2652C331.159 9.55969 330.588 8.98779 329.884 8.98779C329.18 8.98779 328.609 9.55969 328.609 10.2652C328.609 10.9706 329.18 11.5425 329.884 11.5425Z" fill="#63A650"/>
<path d="M420.158 96.3562C420.862 96.3562 421.433 95.7843 421.433 95.0789C421.433 94.3734 420.862 93.8015 420.158 93.8015C419.454 93.8015 418.883 94.3734 418.883 95.0789C418.883 95.7843 419.454 96.3562 420.158 96.3562Z" fill="#63A650"/>
<path d="M353.189 98.1912C353.893 98.1912 354.464 97.6193 354.464 96.9138C354.464 96.2084 353.893 95.6365 353.189 95.6365C352.485 95.6365 351.914 96.2084 351.914 96.9138C351.914 97.6193 352.485 98.1912 353.189 98.1912Z" fill="#F1F3F5"/>
<path d="M317.654 220.028C318.358 220.028 318.929 219.456 318.929 218.75C318.929 218.045 318.358 217.473 317.654 217.473C316.95 217.473 316.379 218.045 316.379 218.75C316.379 219.456 316.95 220.028 317.654 220.028Z" fill="#47A4DD"/>
<path d="M277.587 100.205C278.292 100.205 278.862 99.6332 278.862 98.9277C278.862 98.2223 278.292 97.6504 277.587 97.6504C276.883 97.6504 276.312 98.2223 276.312 98.9277C276.312 99.6332 276.883 100.205 277.587 100.205Z" fill="#F1F3F5"/>
<path d="M275.798 76.0513C276.502 76.0513 277.073 75.4794 277.073 74.7739C277.073 74.0685 276.502 73.4966 275.798 73.4966C275.094 73.4966 274.523 74.0685 274.523 74.7739C274.523 75.4794 275.094 76.0513 275.798 76.0513Z" fill="#63A650"/>
<path d="M345.689 224.184C347.79 218.088 351.308 212.579 355.953 208.113C356.566 207.525 357.196 206.957 357.844 206.408C364.265 200.967 372.203 197.64 380.578 196.881C383.638 201.274 386.308 205.928 388.558 210.788C388.9 211.531 389.233 212.284 389.556 213.047C389.862 213.776 390.158 214.515 390.439 215.262C394.107 224.942 395.535 235.789 390.85 244.826C386.177 253.837 376.054 259.174 365.946 259.914C360.099 260.263 354.24 259.488 348.684 257.629C345.675 252.281 343.906 246.323 343.509 240.197C343.459 239.426 343.434 238.654 343.427 237.879C343.394 233.218 344.159 228.586 345.689 224.184Z" fill="#47A4DD"/>
<path d="M328.817 216.09C330.865 210.178 338.526 206.699 350.392 206.287C352.767 206.203 355.378 207.193 357.847 206.408C369.823 202.603 380.689 205.09 389.559 213.047C389.864 213.776 390.161 214.515 390.442 215.262C390.324 215.218 390.205 215.176 390.086 215.135C378.101 210.967 366.203 208.535 355.955 208.113C354.061 208.037 351.803 206.939 350.454 208.089C339.62 217.326 332.293 213.456 330.516 216.681C327.922 221.392 332.525 228.732 340.855 235.8C341.679 236.5 342.537 237.193 343.429 237.879C343.437 238.654 343.462 239.426 343.512 240.197C342.168 239.202 340.895 238.195 339.692 237.177C330.631 229.489 326.77 221.999 328.817 216.09Z" fill="#EAECEE"/>
<path d="M373.701 257.961C374.405 257.961 374.976 257.389 374.976 256.684C374.976 255.978 374.405 255.406 373.701 255.406C372.997 255.406 372.426 255.978 372.426 256.684C372.426 257.389 372.997 257.961 373.701 257.961Z" fill="#F1F3F5"/>
<path d="M351.146 241.532C351.85 241.532 352.421 240.96 352.421 240.255C352.421 239.549 351.85 238.977 351.146 238.977C350.442 238.977 349.871 239.549 349.871 240.255C349.871 240.96 350.442 241.532 351.146 241.532Z" fill="#F1F3F5"/>
<path d="M368.402 245.003C375.249 245.003 380.8 239.442 380.8 232.582C380.8 225.721 375.249 220.16 368.402 220.16C361.555 220.16 356.004 225.721 356.004 232.582C356.004 239.442 361.555 245.003 368.402 245.003Z" fill="#F1F3F5"/>
<path d="M173.613 95.2593C176.511 95.3957 182.506 96.8377 189.001 98.7019C195.493 100.568 202.534 102.845 209.486 105.097C221.654 109.035 233.823 112.973 245.991 116.909C247.663 117.449 249.341 117.995 251.023 118.544C251.667 119.388 252.308 120.241 252.936 121.102C251.458 120.578 249.973 120.072 248.493 119.589C242.17 117.53 236.683 116.172 230.546 114.299C221.102 111.419 211.138 107.636 201.475 104.114C191.813 100.589 180.727 96.7949 173.613 95.2593Z" fill="#47A4DD"/>
<path d="M389.983 70.253L417.353 115.777L391.527 69.3475C391.497 69.2001 391.432 69.062 391.338 68.9447C391.244 68.8273 391.123 68.7341 390.986 68.6728C390.849 68.6114 390.699 68.5837 390.549 68.592C390.399 68.6003 390.253 68.6442 390.124 68.7202C389.994 68.7963 389.884 68.9021 389.804 69.0291C389.723 69.1561 389.674 69.3005 389.66 69.4503C389.646 69.6002 389.669 69.7512 389.725 69.8908C389.781 70.0303 389.869 70.1545 389.983 70.253Z" fill="#47A4DD"/>
<path d="M376.634 204.603C377.338 204.603 377.909 204.031 377.909 203.326C377.909 202.62 377.338 202.049 376.634 202.049C375.93 202.049 375.359 202.62 375.359 203.326C375.359 204.031 375.93 204.603 376.634 204.603Z" fill="#63A650"/>
<path d="M153.013 200.387C157.527 200.387 161.186 196.721 161.186 192.198C161.186 187.675 157.527 184.009 153.013 184.009C148.499 184.009 144.84 187.675 144.84 192.198C144.84 196.721 148.499 200.387 153.013 200.387Z" fill="#63A650"/>
<path d="M148.172 187.702C147.348 187.476 146.584 187.072 145.932 186.518C145.281 185.964 144.759 185.274 144.403 184.496C144.046 183.717 143.865 182.871 143.871 182.015C143.876 181.159 144.069 180.314 144.436 179.541L129.637 164.943L140.191 162.687L152.627 176.895C153.883 177.599 154.837 178.739 155.309 180.1C155.782 181.461 155.74 182.949 155.191 184.281C154.641 185.613 153.624 186.697 152.33 187.328C151.037 187.958 149.557 188.091 148.172 187.702L148.172 187.702Z" fill="#A0616A"/>
<path d="M77.4111 74.0928L85.6645 79.5431L95.3253 81.8105C95.3253 81.8105 102.987 136.676 106.752 139.967C110.517 143.258 107.345 143.57 108.365 148.109C109.386 152.648 111.747 161.935 111.747 161.935C88.8121 176.179 68.3232 177.918 50.8424 164.277C50.5695 163.378 50.6114 162.412 50.9612 161.54C51.3111 160.668 51.9478 159.942 52.7658 159.483C55.7215 157.643 49.3105 150.437 51.7301 148.993C54.1496 147.55 49.8741 136.754 49.8741 136.754L50.6201 113.57L48.543 110.014L51.4691 87.1871L59.0123 83.8284L61.595 76.1579L77.4111 74.0928Z" fill="#4F527D"/>
<path d="M35.0352 315.273L43.3433 317.459L55.712 286.391L43.4501 283.166L35.0352 315.273Z" fill="#A0616A"/>
<path d="M32.4648 323.88L58.0135 330.602L58.0984 330.278C58.7908 327.636 58.4073 324.826 57.0323 322.467C55.6572 320.108 53.4031 318.392 50.7659 317.698L50.7653 317.698L47.0284 312.923L37.3913 314.179L35.161 313.593L32.4648 323.88Z" fill="#4F527D"/>
<path d="M77.6231 321.501L86.2122 321.5L90.2989 288.304L77.6211 288.305L77.6231 321.501Z" fill="#A0616A"/>
<path d="M77.3207 330.479L103.736 330.478V330.143C103.735 327.411 102.652 324.791 100.724 322.859C98.7959 320.928 96.1809 319.842 93.4542 319.842H93.4536L88.6286 316.175L79.6262 319.843L77.3203 319.843L77.3207 330.479Z" fill="#4F527D"/>
<path d="M56.1413 162.644C54.0664 165.243 55.1038 174.079 55.1038 174.079C55.1038 174.079 51.4726 202.665 53.0288 205.263C54.5851 207.862 51.9914 209.941 50.4351 213.579C48.8788 217.217 47.3226 226.053 47.3226 226.053C38.5039 233.33 39.0226 266.593 39.0226 266.593L35.9102 296.219C36.9477 299.337 51.4726 299.857 53.5476 299.337C55.6226 298.817 75.8538 225.533 75.8538 225.533C75.8538 225.533 74.8163 296.219 74.8163 299.337C74.8163 302.455 88.8226 300.896 91.9351 300.896C95.0476 300.896 114.76 173.559 114.76 173.559V166.283L112.166 162.644C112.166 162.644 58.2163 160.046 56.1413 162.644Z" fill="#9499C7"/>
<path d="M61.0648 77.5527L48.3257 85.6847L42.1641 90.8598L50.3373 143.064C50.3373 143.064 37.9196 190.517 57.489 187.592C77.0583 184.666 75.9612 142.021 75.9612 142.021L61.0648 77.5527Z" fill="#9499C7"/>
<path d="M78.1079 151.712C77.3727 152.148 76.5511 152.417 75.7008 152.501C74.8505 152.585 73.9923 152.481 73.1865 152.196C72.3808 151.911 71.6471 151.453 71.0372 150.854C70.4273 150.254 69.956 149.528 69.6565 148.726L48.8945 149.229L54.6166 140.061L73.4553 140.989C74.8329 140.574 76.3145 140.68 77.6194 141.287C78.9242 141.893 79.9617 142.958 80.5352 144.28C81.1087 145.602 81.1783 147.088 80.731 148.458C80.2836 149.828 79.3503 150.986 78.1079 151.712Z" fill="#A0616A"/>
<path d="M67.751 70.4933C76.8125 70.4933 84.1583 63.1335 84.1583 54.0547C84.1583 44.9758 76.8125 37.616 67.751 37.616C58.6895 37.616 51.3438 44.9758 51.3438 54.0547C51.3438 63.1335 58.6895 70.4933 67.751 70.4933Z" fill="#A0616A"/>
<path d="M49.139 43.2534C50.9813 40.3977 54.4386 38.4945 57.7902 39.0293C58.1022 36.8863 58.9949 34.87 60.3714 33.2002C61.7478 31.5303 63.5551 30.2708 65.5966 29.5588C67.638 28.8468 69.8352 28.7096 71.9491 29.1622C74.0629 29.6147 76.0123 30.6396 77.5851 32.1253C78.1023 31.7605 78.7048 31.5356 79.3342 31.4725C79.9635 31.4094 80.5986 31.5101 81.1777 31.7651C82.3312 32.2906 83.3347 33.0976 84.0964 34.1124C86.0196 36.5153 87.2565 39.3958 87.6754 42.4471C88.0943 45.4985 87.6795 48.6066 86.4752 51.4405C86.8848 49.9486 85.3925 48.545 83.8847 48.2102C82.377 47.8754 80.7954 48.1922 79.2664 47.9742C77.3067 47.6948 75.5452 46.5558 73.5824 46.2994C71.9328 46.084 70.2739 46.5077 68.6653 46.9325C67.0567 47.3572 65.4022 47.7903 63.7503 47.5938C62.0982 47.3973 59.9703 53.6697 59.9989 58.0877C60.0043 58.9249 59.8322 59.9998 59.0155 60.1775C58.0098 60.3962 57.4271 59.0056 56.4699 58.6266C56.0287 58.4999 55.5557 58.5498 55.1505 58.7657C54.7453 58.9816 54.4396 59.3466 54.2977 59.7839C54.1771 60.2285 54.1642 60.6954 54.2601 61.146C54.3559 61.5966 54.5578 62.0177 54.849 62.3743C55.4374 63.0812 56.1358 63.6883 56.9175 64.1721L56.5232 64.5006C55.8675 65.3686 54.5072 65.4062 53.562 64.8692C52.6582 64.2559 51.9262 63.4209 51.4359 62.4437C49.6872 59.5296 48.1533 56.4247 47.5362 53.0812C46.919 49.7376 47.2967 46.1091 49.139 43.2534Z" fill="#4F527D"/>
<path d="M54.9321 92.3954L47.5593 86.0649C47.5593 86.0649 38.9507 88.7563 37.4911 94.4144C26.0018 109.133 19.8142 126.324 18.1523 145.624C33.1522 151.3 51.5193 153.313 71.2787 153.812L67.1921 138.458L39.0964 133.34L54.9321 92.3954Z" fill="#9499C7"/>
<path d="M28.8091 323.242L24.8706 316.9L24.0839 320.524C23.946 321.159 23.8081 321.803 23.6804 322.443C22.5617 321.486 21.3714 320.601 20.2068 319.751C16.631 317.151 13.0569 314.548 9.48438 311.941L10.6031 318.441C11.2927 322.443 12.0131 326.527 13.7192 330.187C13.9082 330.601 14.1125 331.011 14.3323 331.41H30.9547C31.0884 331.039 31.1809 330.655 31.2305 330.264C31.2347 330.238 31.2363 330.213 31.2355 330.187C31.4962 327.705 30.1271 325.366 28.8091 323.242Z" fill="#63A650"/>
<path d="M175.71 315.956L183.161 303.96L184.649 310.815C184.91 312.016 185.171 313.236 185.413 314.446C187.529 312.635 189.781 310.96 191.984 309.353C198.749 304.434 205.511 299.509 212.269 294.577L210.153 306.874C208.848 314.446 207.486 322.173 204.258 329.096C203.9 329.88 203.514 330.655 203.098 331.41H171.651C171.398 330.708 171.223 329.981 171.129 329.241C171.121 329.193 171.118 329.144 171.119 329.096C170.626 324.4 173.217 319.975 175.71 315.956Z" fill="#63A650"/>
<path d="M169.864 331.666H135.65C134.091 331.664 132.596 331.043 131.494 329.939C130.391 328.834 129.771 327.336 129.77 325.774V205.511C129.771 203.949 130.391 202.452 131.494 201.347C132.596 200.242 134.091 199.621 135.65 199.619H169.864C171.423 199.621 172.918 200.242 174.02 201.347C175.122 202.452 175.743 203.949 175.744 205.511V325.774C175.743 327.336 175.122 328.834 174.02 329.939C172.918 331.043 171.423 331.664 169.864 331.666Z" fill="#EAECEE"/>
<path d="M161.787 202.69H144.241C143.655 202.689 143.094 202.456 142.679 202.041C142.265 201.625 142.032 201.063 142.031 200.475V194.157C142.032 193.57 142.265 193.007 142.679 192.592C143.094 192.176 143.655 191.943 144.241 191.942H161.787C162.373 191.943 162.935 192.176 163.349 192.592C163.763 193.007 163.996 193.57 163.997 194.157V200.475C163.996 201.063 163.763 201.625 163.349 202.041C162.935 202.456 162.373 202.689 161.787 202.69Z" fill="#558C46"/>
<path d="M211.963 331.843L0.606479 332C0.445469 331.999 0.291217 331.935 0.177531 331.821C0.0638448 331.707 0 331.552 0 331.39C0 331.229 0.0638448 331.074 0.177531 330.96C0.291217 330.846 0.445469 330.782 0.606479 330.781L211.963 330.624C212.124 330.624 212.278 330.689 212.391 330.803C212.505 330.917 212.569 331.072 212.569 331.233C212.569 331.394 212.505 331.549 212.391 331.663C212.278 331.778 212.124 331.842 211.963 331.843Z" fill="#63A650"/>
<path d="M80.9844 76.0173L94.5935 80.5579C94.5935 80.5579 109.648 78.9653 110.258 101.418C110.868 123.871 108.062 135.92 108.062 135.92C108.062 135.92 139.378 199.015 105.456 180.38L95.543 141.273L85.3264 79.8559L80.9844 76.0173Z" fill="#9499C7"/>
<path d="M94.6328 125.658L101.692 124.681C101.692 124.681 102.373 135.344 105.75 136.96C109.127 138.576 107.988 138.842 108.387 140.553C108.785 142.264 105.384 147.004 108.059 148.182C110.733 149.361 134.111 178.891 134.111 178.891L147.903 166.096C146.956 163.522 142.394 165.616 142.108 162.888C141.748 158.763 134.528 147.496 132.992 146.051C131.455 144.606 132.063 142.059 131.267 138.638C130.47 135.217 131.023 138.389 129.696 132.687C128.369 126.984 110.382 97.9283 109.757 92.6633C109.131 87.3982 101.809 84.2991 101.809 84.2991L96.1177 85.6288L94.6328 125.658Z" fill="#9499C7"/>
</g>
<defs>
<clipPath id="clip0_342_184339">
<rect width="440" height="332" fill="white"/>
</clipPath>
</defs>
</svg>
