<svg width="14" height="18" viewBox="0 0 14 18" fill="none" xmlns="http://www.w3.org/2000/svg">
<rect x="1" width="12" height="11.7905" rx="1" fill="#E7BDBD"/>
<path d="M1.58699 12.0156L3.62522 12.0156C3.9164 12.0156 4.15463 11.7815 4.15463 11.4955C4.15463 11.2094 3.9164 10.9753 3.62522 10.9753L1.58699 10.9753C1.29582 10.9753 1.05758 10.7412 1.05758 10.4551L1.05758 1.56028C1.05758 1.27419 1.29582 1.04011 1.58699 1.04011L11.9899 1.04011C12.2811 1.04011 12.5193 1.27419 12.5193 1.56028L12.5193 10.4551C12.5193 10.7412 12.2811 10.9753 11.9899 10.9753L9.95167 10.9753C9.66049 10.9753 9.42226 11.2094 9.42226 11.4955C9.42226 11.7815 9.66049 12.0156 9.95167 12.0156L11.9899 12.0156C12.8634 12.0156 13.5781 11.3134 13.5781 10.4551L13.5781 1.56028C13.5781 0.702006 12.8634 -0.000219033 11.9899 -0.000219108L1.58699 -0.000220001C0.713467 -0.000220076 -0.00123683 0.702005 -0.00123691 1.56028L-0.0012377 10.4551C-0.00123778 11.3134 0.713465 12.0156 1.58699 12.0156Z" fill="#3B4141"/>
<path d="M10.0287 8.92075C10.2404 8.71268 10.2404 8.40058 10.0287 8.19251L7.1434 5.35761C7.03751 5.25357 6.90516 5.20156 6.77281 5.20156C6.64046 5.20156 6.5081 5.25357 6.40222 5.35761L3.51694 8.19251C3.30517 8.40058 3.30517 8.71268 3.51694 8.92075C3.7287 9.12881 4.04635 9.12881 4.25811 8.92075L6.2434 6.97012L6.2434 17.1654C6.2434 17.4515 6.48163 17.6855 6.77281 17.6855C7.06398 17.6855 7.30222 17.4515 7.30222 17.1654L7.30222 6.99613L9.2875 8.94675C9.49927 9.12881 9.81691 9.12881 10.0287 8.92075Z" fill="#3B4141"/>
</svg>
