<svg width="15" height="17" viewBox="0 0 15 17" fill="none" xmlns="http://www.w3.org/2000/svg">
<path d="M13.3211 1.32384C12.7992 1.38896 12.2773 1.41066 11.7554 1.41066C10.4072 1.41066 9.10249 0.954832 7.94998 0.542413C7.79776 0.477295 7.64554 0.433882 7.49332 0.39047C7.34111 0.347057 7.16714 0.347057 7.03667 0.39047C6.88445 0.433882 6.73223 0.499001 6.58001 0.542413C5.4275 0.954832 4.12277 1.41066 2.77455 1.41066C2.25266 1.41066 1.70903 1.38896 1.20888 1.32384C1.01317 1.30213 0.795716 1.36725 0.643497 1.49749C0.491279 1.62773 0.404297 1.82308 0.404297 2.04014L0.404297 9.68074C0.404297 13.4793 6.68874 16.3446 6.97143 16.4531C7.05841 16.4965 7.16714 16.5182 7.25412 16.5182C7.36285 16.5182 7.44983 16.4965 7.53681 16.4531C7.79776 16.3228 14.104 13.4793 14.104 9.68074L14.104 2.04014C14.104 1.84479 14.017 1.64943 13.8648 1.49749C13.7125 1.36725 13.5168 1.30213 13.3211 1.32384ZM12.6687 9.68074C12.6687 11.9382 8.99376 14.1739 7.25412 15.0205C5.51449 14.1739 1.8395 11.9382 1.8395 9.68074L1.8395 2.82157C2.14394 2.84327 2.44837 2.84327 2.77455 2.84327C4.36197 2.84327 5.86241 2.32232 7.05841 1.90991C7.12365 1.8882 7.21063 1.86649 7.27587 1.84479C7.34111 1.86649 7.42809 1.8882 7.49332 1.90991C8.68933 2.32232 10.168 2.84327 11.7772 2.84327C12.0816 2.84327 12.4078 2.84327 12.7122 2.82157L12.7122 9.68074H12.6687Z" fill="black"/>
</svg>
