<svg width="20" height="11" viewBox="0 0 20 11" fill="none" xmlns="http://www.w3.org/2000/svg">
<path d="M2.53413 6.97602L0.0945244 3.70402C-0.00807571 3.56402 -0.0308762 3.37202 0.0451241 3.21202C0.117325 3.05202 0.273125 2.95202 0.444124 2.95202H4.57473V0.864025C4.57473 0.608025 4.77233 0.400024 5.01553 0.400024H13.9911C14.2343 0.400024 14.4319 0.608025 14.4319 0.864025V2.95202H18.5625C18.7297 2.95202 18.8855 3.05202 18.9615 3.21202C19.0337 3.37202 19.0147 3.56402 18.9121 3.70402L16.4725 6.97602L18.9083 10.248C19.0109 10.388 19.0337 10.58 18.9577 10.74C18.8855 10.9 18.7297 11 18.5587 11H11.4869C11.2437 11 11.0461 10.792 11.0461 10.536V8.63202H7.95673V10.536C7.95673 10.792 7.75913 11 7.51593 11H0.444124C0.276924 11 0.121124 10.9 0.0451241 10.74C-0.0270767 10.58 -0.00807571 10.388 0.0945244 10.248L2.53413 6.97602ZM13.5503 1.33202H5.46013V7.70002H13.5503V1.33202ZM15.5605 7.26402C15.4351 7.09602 15.4351 6.86002 15.5605 6.68802L17.6543 3.88002H14.4319V8.16402C14.4319 8.17202 14.4319 8.17602 14.4319 8.18402C14.4319 8.18802 14.4319 8.19202 14.4319 8.19602C14.4319 8.22402 14.4281 8.24802 14.4205 8.27202C14.4205 8.27602 14.4205 8.28002 14.4167 8.28402C14.4091 8.30802 14.4015 8.33602 14.3901 8.36002C14.3901 8.36402 14.3863 8.36802 14.3863 8.36802C14.3749 8.39202 14.3635 8.41602 14.3483 8.43602C14.3445 8.44002 14.3445 8.44402 14.3407 8.44402C14.3255 8.46402 14.3065 8.48802 14.2875 8.50402L14.2837 8.50803L12.6383 10.064H17.6543L15.5605 7.26402ZM11.9315 9.49202L12.8397 8.63202H11.9315V9.49202ZM6.16693 8.63202L7.07513 9.49202V8.63202H6.16693ZM6.36453 10.068L4.71913 8.51202L4.71533 8.50803C4.69633 8.48802 4.67733 8.46803 4.66213 8.44802C4.65833 8.44403 4.65833 8.44002 4.65453 8.44002C4.63933 8.42002 4.62793 8.39602 4.61653 8.37202C4.61653 8.36802 4.61273 8.36402 4.61273 8.36402C4.60133 8.34002 4.59373 8.31602 4.58613 8.28802C4.58613 8.28402 4.58613 8.28002 4.58233 8.28002C4.57473 8.25602 4.57473 8.22802 4.57093 8.20402C4.57093 8.20002 4.57093 8.19602 4.57093 8.19202C4.57093 8.18402 4.57093 8.18002 4.57093 8.17202V3.88402H1.34852L3.44233 6.69202C3.56773 6.86002 3.56773 7.09602 3.44233 7.26802L1.35233 10.076H6.36453V10.068Z" fill="#2A2A2A"/>
</svg>
