<svg width="22" height="23" viewBox="0 0 22 23" fill="none" xmlns="http://www.w3.org/2000/svg">
<path d="M16.9961 4.14842C16.4725 4.21379 15.9489 4.23558 15.4252 4.23558C14.0725 4.23558 12.7634 3.77797 11.6071 3.36394C11.4543 3.29856 11.3016 3.25498 11.1489 3.2114C10.9961 3.16782 10.8216 3.16782 10.6907 3.2114C10.538 3.25498 10.3852 3.32035 10.2325 3.36394C9.07614 3.77797 7.76705 4.23558 6.41432 4.23558C5.89068 4.23558 5.34523 4.21379 4.84341 4.14842C4.64704 4.12663 4.42886 4.192 4.27613 4.32275C4.12341 4.4535 4.03613 4.64962 4.03613 4.86753L4.03613 12.538C4.03613 16.3515 10.3416 19.2279 10.6252 19.3369C10.7125 19.3805 10.8216 19.4023 10.9089 19.4023C11.018 19.4023 11.1052 19.3805 11.1925 19.3369C11.4543 19.2061 17.7816 16.3515 17.7816 12.538V4.86753C17.7816 4.67141 17.6943 4.47529 17.5416 4.32275C17.3889 4.192 17.1925 4.12663 16.9961 4.14842ZM16.3416 12.538C16.3416 14.8043 12.6543 17.0488 10.9089 17.8987C9.16341 17.0488 5.47613 14.8043 5.47613 12.538L5.47613 5.65201C5.78159 5.6738 6.08704 5.6738 6.41432 5.6738C8.00705 5.6738 9.5125 5.15081 10.7125 4.73678C10.778 4.71499 10.8652 4.6932 10.9307 4.67141C10.9961 4.6932 11.0834 4.71499 11.1489 4.73678C12.3489 5.15081 13.8325 5.6738 15.4471 5.6738C15.7525 5.6738 16.0798 5.6738 16.3852 5.65201V12.538H16.3416Z" fill="black"/>
<path d="M7.93359 10.8012L10.4129 13.2775L14.3799 9.31543" stroke="black"/>
</svg>
