<svg width="12" height="12" viewBox="0 0 12 12" fill="none" xmlns="http://www.w3.org/2000/svg">
<g clip-path="url(#clip0_11294_534787)">
<circle cx="6" cy="6" r="5.5" stroke="#F3A100"/>
<circle cx="6" cy="6" r="5.5" stroke="#F3A100"/>
<mask id="path-3-inside-1_11294_534787" fill="white">
<path d="M6 6.91406e-07C5.21207 7.25848e-07 4.43185 0.155195 3.7039 0.456724C2.97595 0.758252 2.31451 1.20021 1.75736 1.75736C1.20021 2.31451 0.75825 2.97595 0.456722 3.7039C0.155194 4.43185 -3.31151e-07 5.21207 -2.62268e-07 6C-1.93385e-07 6.78793 0.155194 7.56815 0.456723 8.2961C0.758251 9.02405 1.20021 9.68549 1.75736 10.2426C2.31451 10.7998 2.97595 11.2417 3.7039 11.5433C4.43185 11.8448 5.21207 12 6 12L6 6L6 6.91406e-07Z"/>
</mask>
<path d="M6 6.91406e-07C5.21207 7.25848e-07 4.43185 0.155195 3.7039 0.456724C2.97595 0.758252 2.31451 1.20021 1.75736 1.75736C1.20021 2.31451 0.75825 2.97595 0.456722 3.7039C0.155194 4.43185 -3.31151e-07 5.21207 -2.62268e-07 6C-1.93385e-07 6.78793 0.155194 7.56815 0.456723 8.2961C0.758251 9.02405 1.20021 9.68549 1.75736 10.2426C2.31451 10.7998 2.97595 11.2417 3.7039 11.5433C4.43185 11.8448 5.21207 12 6 12L6 6L6 6.91406e-07Z" fill="#F3A100" stroke="#F3A100" stroke-width="2" mask="url(#path-3-inside-1_11294_534787)"/>
</g>
<defs>
<clipPath id="clip0_11294_534787">
<rect width="12" height="12" fill="white"/>
</clipPath>
</defs>
</svg>
