<svg width="12" height="12" viewBox="0 0 12 12" fill="none" xmlns="http://www.w3.org/2000/svg">
<g clip-path="url(#clip0_11294_535192)">
<mask id="path-1-inside-1_11294_535192" fill="white">
<path d="M6 0C5.52544 1.34262 4.75112 2.60295 3.67704 3.67704C2.60295 4.75112 1.34262 5.52544 0 6C1.34262 6.47456 2.60296 7.24888 3.67704 8.32296C4.75112 9.39705 5.52544 10.6574 6 12C6.47456 10.6574 7.24888 9.39705 8.32296 8.32296C9.39705 7.24888 10.6574 6.47456 12 6C10.6574 5.52544 9.39705 4.75112 8.32296 3.67704C7.24888 2.60295 6.47456 1.34262 6 0Z"/>
</mask>
<path d="M6 0L6.94284 -0.333252L6 -3.00073L5.05716 -0.333252L6 0ZM0 6L-0.333252 5.05716L-3.00073 6L-0.333252 6.94284L0 6ZM6 12L5.05716 12.3333L6 15.0007L6.94284 12.3333L6 12ZM12 6L12.3333 6.94284L15.0007 6L12.3333 5.05716L12 6ZM5.05716 -0.333252C4.63126 0.871725 3.93631 2.00355 2.96993 2.96993L4.38415 4.38414C5.56593 3.20236 6.41963 1.81352 6.94284 0.333252L5.05716 -0.333252ZM2.96993 2.96993C2.00355 3.93631 0.871726 4.63126 -0.333252 5.05716L0.333252 6.94284C1.81352 6.41963 3.20236 5.56593 4.38415 4.38414L2.96993 2.96993ZM-0.333252 6.94284C0.871726 7.36875 2.00355 8.06369 2.96993 9.03007L4.38415 7.61586C3.20236 6.43407 1.81352 5.58037 0.333252 5.05716L-0.333252 6.94284ZM2.96993 9.03007C3.93631 9.99645 4.63126 11.1283 5.05716 12.3333L6.94284 11.6667C6.41963 10.1865 5.56593 8.79764 4.38415 7.61586L2.96993 9.03007ZM6.94284 12.3333C7.36875 11.1283 8.06369 9.99645 9.03007 9.03007L7.61586 7.61586C6.43407 8.79764 5.58037 10.1865 5.05716 11.6667L6.94284 12.3333ZM9.03007 9.03007C9.99645 8.06369 11.1283 7.36875 12.3333 6.94284L11.6667 5.05716C10.1865 5.58037 8.79764 6.43407 7.61586 7.61586L9.03007 9.03007ZM12.3333 5.05716C11.1283 4.63126 9.99645 3.93631 9.03007 2.96993L7.61586 4.38414C8.79764 5.56593 10.1865 6.41963 11.6667 6.94284L12.3333 5.05716ZM9.03007 2.96993C8.06369 2.00355 7.36875 0.871725 6.94284 -0.333252L5.05716 0.333252C5.58037 1.81352 6.43407 3.20236 7.61586 4.38414L9.03007 2.96993Z" fill="#F3A100" mask="url(#path-1-inside-1_11294_535192)"/>
<path d="M6 10.5V1.5L1.5 6L6 10.5Z" fill="#F3A100"/>
</g>
<defs>
<clipPath id="clip0_11294_535192">
<rect width="12" height="12" fill="white"/>
</clipPath>
</defs>
</svg>
