<svg width="19" height="32" viewBox="0 0 19 32" fill="none" xmlns="http://www.w3.org/2000/svg">
<path d="M12.4074 15.0195H0.652344V31.3461H12.4074V15.0195Z" fill="#8FD6FF"/>
<path d="M17.6334 15.6738H11.7559V30.6942H17.6334V15.6738Z" fill="#FF9D94"/>
<path d="M0.652344 1.30664L9.46867 8.81684L17.3054 1.63317V15.3475H0.652344V1.30664Z" fill="#F9DC5C"/>
<path fill-rule="evenodd" clip-rule="evenodd" d="M17.8326 31.8248H16.5265H1.75729H0.451172V30.5187L0.451174 3.44178V0.472656L2.63988 2.47897L9.14195 8.43918L15.644 2.47897L17.8326 0.472659V3.44178V30.5187V31.8248ZM9.14195 10.211L3.06342 4.63906L1.7573 3.44178V5.21362V14.4422H16.5253V15.7483H12.9117V30.5175H11.6056V15.7483H1.7573L1.75729 29.2126V30.5187H3.06341H15.2204H16.5265V29.2126V5.21363V3.44178L15.2204 4.63906L9.14195 10.211Z" fill="#282525"/>
</svg>
