<svg width="64" height="64" viewBox="0 0 64 64" fill="none" xmlns="http://www.w3.org/2000/svg">
<path fill-rule="evenodd" clip-rule="evenodd" d="M33.264 7.11523C38.4559 7.11523 43.3074 9.53623 45.709 12.3277C48.0551 13.9473 49.6021 16.7234 49.6021 19.8761C49.6021 24.8728 45.716 28.9235 40.9222 28.9235C40.6292 28.9235 40.3396 28.9084 40.0541 28.8788V30.4391C40.0541 30.9914 39.6064 31.4391 39.0541 31.4391H38.452C38.0256 31.4391 37.6463 31.1689 37.5053 30.7665C37.1821 29.8434 36.7088 28.5126 36.3501 27.5681C35.4646 26.995 34.6854 26.2605 34.0503 25.404C34.0226 25.4042 33.9948 25.4043 33.967 25.4043C30.6026 25.4043 27.6853 23.8526 26.2447 21.5838C22.8663 20.3076 20.6641 18.2169 20.6641 15.8542C20.6641 11.9679 25.9135 7.11523 33.264 7.11523Z" fill="white"/>
<path d="M45.7561 12.085L45.3766 12.4107L45.4186 12.4595L45.4716 12.4962L45.7561 12.085ZM40.09 28.6303L40.1417 28.133L39.59 28.0757V28.6303H40.09ZM37.5412 30.5191L38.0131 30.3538L37.5412 30.5191ZM36.3845 27.3169L36.8519 27.1393L36.7938 26.9863L36.6564 26.8973L36.3845 27.3169ZM34.0866 25.1521L34.4884 24.8545L34.3378 24.6512L34.0847 24.6521L34.0866 25.1521ZM34.0061 25.1524V25.6524L34.0079 25.6524L34.0061 25.1524ZM26.2837 21.3318L26.7058 21.0638L26.6164 20.923L26.4604 20.8641L26.2837 21.3318ZM46.1355 11.7594C43.6347 8.84527 38.6356 6.36328 33.3031 6.36328V7.36328C38.3659 7.36328 43.0797 9.73404 45.3766 12.4107L46.1355 11.7594ZM50.1412 19.6279C50.1412 16.3134 48.5161 13.3869 46.0406 11.6739L45.4716 12.4962C47.6792 14.0239 49.1412 16.6441 49.1412 19.6279H50.1412ZM40.9612 29.1753C46.0505 29.1753 50.1412 24.881 50.1412 19.6279H49.1412C49.1412 24.3682 45.4596 28.1753 40.9612 28.1753V29.1753ZM40.0383 29.1276C40.342 29.1592 40.6499 29.1753 40.9612 29.1753V28.1753C40.6845 28.1753 40.4111 28.161 40.1417 28.133L40.0383 29.1276ZM40.59 30.1918V28.6303H39.59V30.1918H40.59ZM39.09 31.6918C39.9184 31.6918 40.59 31.0202 40.59 30.1918H39.59C39.59 30.4679 39.3661 30.6918 39.09 30.6918V31.6918ZM38.4879 31.6918H39.09V30.6918H38.4879V31.6918ZM37.0693 30.6844C37.2802 31.2865 37.8481 31.6918 38.4879 31.6918V30.6918C38.2748 30.6918 38.0842 30.5567 38.0131 30.3538L37.0693 30.6844ZM35.9171 27.4944C36.2735 28.4327 36.7458 29.7607 37.0693 30.6844L38.0131 30.3538C37.6892 29.429 37.2132 28.0906 36.8519 27.1393L35.9171 27.4944ZM33.6848 25.4497C34.3543 26.3535 35.1766 27.1299 36.1126 27.7365L36.6564 26.8973C35.8228 26.357 35.0879 25.6639 34.4884 24.8545L33.6848 25.4497ZM34.0079 25.6524L34.0884 25.6521L34.0847 24.6521L34.0042 24.6524L34.0079 25.6524ZM25.8616 21.5998C27.4078 24.0348 30.498 25.6524 34.0061 25.6524V24.6524C30.7854 24.6524 28.041 23.1664 26.7058 21.0638L25.8616 21.5998ZM20.2031 15.6023C20.2031 16.9498 20.8331 18.1832 21.8721 19.2272C22.9089 20.2689 24.3718 21.1441 26.107 21.7995L26.4604 20.8641C24.8173 20.2434 23.4899 19.4351 22.5809 18.5218C21.6742 17.6107 21.2031 16.6174 21.2031 15.6023H20.2031ZM33.3031 6.36328C29.518 6.36328 26.2617 7.61257 23.9438 9.37761C21.6429 11.1296 20.2031 13.4453 20.2031 15.6023H21.2031C21.2031 13.8729 22.3881 11.8191 24.5496 10.1732C26.694 8.54033 29.7376 7.36328 33.3031 7.36328V6.36328Z" fill="#4A5056"/>
<path d="M15.0849 36.4877C13.382 36.2777 9.84323 34.683 11.3758 33.1715C18.3999 26.2436 14.2664 23.6156 15.4543 16.7603C16.5041 10.7026 19.2428 7.64694 23.8073 5.22478C34.129 -0.252453 47.1372 5.22667 51.1943 12.5267C55.7594 20.7408 54.2142 32.0724 44.6958 43.5587C41.9759 46.841 40.9466 53.4057 44.6958 59.9703" stroke="#4A5056" stroke-linecap="round"/>
<path d="M14.6779 36.2637C13.8529 39.185 13.2864 47.2185 21.0678 47.2185C26.6705 47.2185 23.726 52.6959 23.7261 59.9991" stroke="#4A5056"/>
<path d="M23.7148 60H44.6455" stroke="#4A5056" stroke-linecap="round"/>
</svg>
