<svg width="64" height="64" viewBox="0 0 64 64" fill="none" xmlns="http://www.w3.org/2000/svg">
<rect width="64" height="64" fill="#F8F8F8"/>
<path fill-rule="evenodd" clip-rule="evenodd" d="M33.2678 18C35.741 18 38.0518 19.3295 39.1928 20.8609C40.3049 21.7487 41.0377 23.2664 41.0377 24.9894C41.0377 27.7262 39.1889 29.9447 36.9083 29.9447C36.769 29.9447 36.6312 29.9365 36.4954 29.9203V30.6918C36.4954 31.0406 36.2127 31.3232 35.864 31.3232C35.5852 31.3232 35.3395 31.1404 35.2581 30.8737C35.1056 30.3733 34.8947 29.6925 34.733 29.2022C34.3118 28.8883 33.9411 28.4861 33.639 28.017L33.6049 28.0171C32.0049 28.0171 30.6174 27.1679 29.9318 25.926C28.3226 25.2271 27.2734 24.0813 27.2734 22.7864C27.2734 20.6578 29.7708 18 33.2678 18Z" fill="#8FD6FF"/>
<path d="M37.9193 21.2534L37.5184 21.5521L37.5569 21.6038L37.6074 21.6441L37.9193 21.2534ZM35.2223 30.3129L35.2814 29.8164L34.7223 29.7498V30.3129H35.2223ZM33.985 31.2671L34.4633 31.1213L33.985 31.2671ZM33.4595 29.5947L33.9343 29.4381L33.8849 29.2882L33.7583 29.1938L33.4595 29.5947ZM32.3656 28.4096L32.786 28.1389L32.6377 27.9085L32.3637 27.9096L32.3656 28.4096ZM32.3307 28.4097V28.9097L32.3326 28.9097L32.3307 28.4097ZM28.6574 26.3181L29.0951 26.0765L29.0128 25.9274L28.8566 25.8595L28.6574 26.3181ZM38.3202 20.9546C37.0873 19.2999 34.6294 17.8926 31.9943 17.8926V18.8926C34.3055 18.8926 36.4692 20.1441 37.5184 21.5521L38.3202 20.9546ZM40.2644 25.382C40.2644 23.5221 39.4737 21.8545 38.2313 20.8626L37.6074 21.6441C38.5892 22.428 39.2644 23.7957 39.2644 25.382H40.2644ZM35.6349 30.8373C38.2732 30.8373 40.2644 28.3057 40.2644 25.382H39.2644C39.2644 27.9318 37.5579 29.8373 35.6349 29.8373V30.8373ZM35.1632 30.8094C35.3184 30.8279 35.4758 30.8373 35.6349 30.8373V29.8373C35.5155 29.8373 35.3976 29.8302 35.2814 29.8164L35.1632 30.8094ZM35.7223 31.0853V30.3129H34.7223V31.0853H35.7223ZM34.5909 32.2167C35.2157 32.2167 35.7223 31.7102 35.7223 31.0853H34.7223C34.7223 31.1579 34.6634 31.2167 34.5909 31.2167V32.2167ZM33.5067 31.413C33.6519 31.889 34.091 32.2167 34.5909 32.2167V31.2167C34.5331 31.2167 34.4808 31.1787 34.4633 31.1213L33.5067 31.413ZM32.9847 29.7514C33.1446 30.2361 33.3542 30.9128 33.5067 31.413L34.4633 31.1213C34.3104 30.62 34.098 29.9342 33.9343 29.4381L32.9847 29.7514ZM31.9453 28.6803C32.2775 29.1961 32.6883 29.6436 33.1608 29.9957L33.7583 29.1938C33.3884 28.9182 33.058 28.5611 32.786 28.1389L31.9453 28.6803ZM32.3326 28.9097L32.3676 28.9096L32.3637 27.9096L32.3287 27.9097L32.3326 28.9097ZM28.2196 26.5597C28.9957 27.9659 30.5537 28.9097 32.3307 28.9097V27.9097C30.9073 27.9097 29.6902 27.1546 29.0951 26.0765L28.2196 26.5597ZM25.5 23.179C25.5 24.7675 26.7734 26.0448 28.4581 26.7767L28.8566 25.8595C27.3241 25.1937 26.5 24.1798 26.5 23.179H25.5ZM31.9943 17.8926C30.1167 17.8926 28.5028 18.6064 27.3562 19.6116C26.2211 20.6067 25.5 21.9303 25.5 23.179H26.5C26.5 22.2991 27.0276 21.2295 28.0154 20.3635C28.9918 19.5076 30.375 18.8926 31.9943 18.8926V17.8926Z" fill="#3A3A3A"/>
<path d="M22.4251 35.4638C21.4925 35.3489 19.3518 34.1344 20.1912 33.3065C24.0383 29.5121 21.7744 28.0727 22.4251 24.3181C23 21.0003 24.5 19.3266 27 18C32.6533 15.0001 39.7779 18.001 42 21.9993C44.5003 26.4982 43.654 32.7046 38.4408 38.9956C36.951 40.7934 36.3873 44.3889 38.4408 47.9844" stroke="#3A3A3A"/>
<path d="M21.9993 35C21.5475 36.6 21.2372 41 25.4991 41C28.5677 41 26.955 44 26.9551 48" stroke="#3A3A3A"/>
</svg>
