<svg width="76" height="54" viewBox="0 0 76 54" fill="none" xmlns="http://www.w3.org/2000/svg">
<circle cx="22.3721" cy="36.1114" r="9.58013" fill="#8FD6FF"/>
<mask id="path-2-inside-1_270_74580" fill="white">
<path fill-rule="evenodd" clip-rule="evenodd" d="M72.9111 22.998C74.4373 20.6624 75.3244 17.8714 75.3244 14.8731C75.3244 6.65894 68.6655 0 60.4513 0C52.2371 0 45.5781 6.65894 45.5781 14.8731C45.5781 23.0874 52.2371 29.7463 60.4513 29.7463C63.8264 29.7463 66.9389 28.6221 69.4348 26.7277C61.9991 25.2475 56.395 18.6858 56.395 10.8151C56.395 6.66159 57.9556 2.87262 60.5225 0.00258993C68.7032 0.0418057 75.3229 6.68564 75.3229 14.8756C75.3229 17.8728 74.4363 20.6629 72.9111 22.998Z"/>
</mask>
<path fill-rule="evenodd" clip-rule="evenodd" d="M72.9111 22.998C74.4373 20.6624 75.3244 17.8714 75.3244 14.8731C75.3244 6.65894 68.6655 0 60.4513 0C52.2371 0 45.5781 6.65894 45.5781 14.8731C45.5781 23.0874 52.2371 29.7463 60.4513 29.7463C63.8264 29.7463 66.9389 28.6221 69.4348 26.7277C61.9991 25.2475 56.395 18.6858 56.395 10.8151C56.395 6.66159 57.9556 2.87262 60.5225 0.00258993C68.7032 0.0418057 75.3229 6.68564 75.3229 14.8756C75.3229 17.8728 74.4363 20.6629 72.9111 22.998Z" fill="#3A3A3A"/>
<path d="M72.9111 22.998L72.0739 22.4512L73.7483 23.545L72.9111 22.998ZM69.4348 26.7277L70.0394 27.5243L71.8094 26.1808L69.63 25.747L69.4348 26.7277ZM60.5225 0.00258993L60.5273 -0.997399L60.0772 -0.999556L59.7771 -0.664057L60.5225 0.00258993ZM74.3244 14.8731C74.3244 17.6713 73.4971 20.2731 72.074 22.451L73.7483 23.545C75.3774 21.0517 76.3244 18.0715 76.3244 14.8731H74.3244ZM60.4513 1C68.1132 1 74.3244 7.21122 74.3244 14.8731H76.3244C76.3244 6.10665 69.2178 -1 60.4513 -1V1ZM46.5781 14.8731C46.5781 7.21122 52.7893 1 60.4513 1V-1C51.6848 -1 44.5781 6.10665 44.5781 14.8731H46.5781ZM60.4513 28.7463C52.7893 28.7463 46.5781 22.5351 46.5781 14.8731H44.5781C44.5781 23.6396 51.6848 30.7463 60.4513 30.7463V28.7463ZM68.8302 25.9312C66.5022 27.6981 63.6006 28.7463 60.4513 28.7463V30.7463C64.0522 30.7463 67.3756 29.5461 70.0394 27.5243L68.8302 25.9312ZM69.63 25.747C62.6531 24.3581 57.395 18.1995 57.395 10.8151H55.395C55.395 19.172 61.3451 26.137 69.2396 27.7085L69.63 25.747ZM57.395 10.8151C57.395 6.91693 58.8586 3.36304 61.2679 0.669237L59.7771 -0.664057C57.0526 2.3822 55.395 6.40624 55.395 10.8151H57.395ZM60.5177 1.00258C68.1483 1.03916 74.3229 7.23632 74.3229 14.8756H76.3229C76.3229 6.13496 69.2582 -0.955546 60.5273 -0.997399L60.5177 1.00258ZM74.3229 14.8756C74.3229 17.6727 73.4961 20.2737 72.0739 22.4512L73.7484 23.5449C75.3765 21.0521 76.3229 18.0728 76.3229 14.8756H74.3229Z" fill="#3A3A3A" mask="url(#path-2-inside-1_270_74580)"/>
<circle cx="18.5791" cy="34.7188" r="9.08013" stroke="#3A3A3A"/>
<path d="M18.9404 16.8555V21.748" stroke="#3A3A3A" stroke-linecap="round"/>
<path d="M18.9404 47.8398V52.7323" stroke="#3A3A3A" stroke-linecap="round"/>
<path d="M36.8779 34.793L31.9854 34.793" stroke="#3A3A3A" stroke-linecap="round"/>
<path d="M5.89258 34.793L1.00009 34.793" stroke="#3A3A3A" stroke-linecap="round"/>
<path d="M31.624 47.4746L28.1645 44.0151" stroke="#3A3A3A" stroke-linecap="round"/>
<path d="M9.71484 25.5664L6.25533 22.1069" stroke="#3A3A3A" stroke-linecap="round"/>
<path d="M31.627 22.1055L28.1674 25.565" stroke="#3A3A3A" stroke-linecap="round"/>
<path d="M9.71777 44.0176L6.25826 47.4771" stroke="#3A3A3A" stroke-linecap="round"/>
</svg>
