<svg width="64" height="64" viewBox="0 0 64 64" fill="none" xmlns="http://www.w3.org/2000/svg">
<rect width="64" height="64" fill="#F8F8F8"/>
<circle cx="26.5" cy="38.5" r="6.5" fill="#8FD6FF"/>
<mask id="path-2-inside-1_209_44530" fill="white">
<path fill-rule="evenodd" clip-rule="evenodd" d="M59.2573 31.4344C61.2086 29.5943 62.4267 26.985 62.4267 24.0913C62.4267 18.518 57.9086 14 52.3354 14C46.7621 14 42.2441 18.518 42.2441 24.0913C42.2441 29.6645 46.7621 34.1825 52.3354 34.1825C54.6254 34.1825 56.7373 33.4197 58.4308 32.1343C53.3858 31.13 49.5835 26.6779 49.5835 21.3378C49.5835 18.5194 50.6426 15.9484 52.3845 14.001C57.9347 14.028 62.4257 18.5356 62.4257 24.0921C62.4257 26.9854 61.2081 29.5944 59.2573 31.4344Z"/>
</mask>
<path fill-rule="evenodd" clip-rule="evenodd" d="M59.2573 31.4344C61.2086 29.5943 62.4267 26.985 62.4267 24.0913C62.4267 18.518 57.9086 14 52.3354 14C46.7621 14 42.2441 18.518 42.2441 24.0913C42.2441 29.6645 46.7621 34.1825 52.3354 34.1825C54.6254 34.1825 56.7373 33.4197 58.4308 32.1343C53.3858 31.13 49.5835 26.6779 49.5835 21.3378C49.5835 18.5194 50.6426 15.9484 52.3845 14.001C57.9347 14.028 62.4257 18.5356 62.4257 24.0921C62.4257 26.9854 61.2081 29.5944 59.2573 31.4344Z" fill="#3A3A3A"/>
<path d="M59.2573 31.4344L58.5711 30.7069L59.9433 32.1619L59.2573 31.4344ZM58.4308 32.1343L59.0354 32.9308L60.8053 31.5874L58.626 31.1536L58.4308 32.1343ZM52.3845 14.001L52.3894 13.001L51.9393 12.9988L51.6392 13.3343L52.3845 14.001ZM61.4267 24.0913C61.4267 26.6983 60.3306 29.0478 58.5712 30.7068L59.9433 32.1619C62.0867 30.1408 63.4267 27.2717 63.4267 24.0913H61.4267ZM52.3354 15C57.3564 15 61.4267 19.0703 61.4267 24.0913H63.4267C63.4267 17.9657 58.4609 13 52.3354 13V15ZM43.2441 24.0913C43.2441 19.0703 47.3144 15 52.3354 15V13C46.2099 13 41.2441 17.9657 41.2441 24.0913H43.2441ZM52.3354 33.1825C47.3144 33.1825 43.2441 29.1122 43.2441 24.0913H41.2441C41.2441 30.2168 46.2099 35.1825 52.3354 35.1825V33.1825ZM57.8262 31.3378C56.3006 32.4957 54.3996 33.1825 52.3354 33.1825V35.1825C54.8512 35.1825 57.174 34.3436 59.0354 32.9308L57.8262 31.3378ZM58.626 31.1536C54.0398 30.2405 50.5835 26.1917 50.5835 21.3378H48.5835C48.5835 27.1641 52.7318 32.0194 58.2355 33.1151L58.626 31.1536ZM50.5835 21.3378C50.5835 18.7748 51.5456 16.4388 53.1299 14.6677L51.6392 13.3343C49.7396 15.4579 48.5835 18.264 48.5835 21.3378H50.5835ZM52.3797 15.001C57.3798 15.0253 61.4257 19.0863 61.4257 24.0921H63.4257C63.4257 17.9849 58.4897 13.0307 52.3894 13.001L52.3797 15.001ZM61.4257 24.0921C61.4257 26.6988 60.33 29.0479 58.5711 30.7069L59.9434 32.1618C62.0862 30.1408 63.4257 27.2721 63.4257 24.0921H61.4257Z" fill="#3A3A3A" mask="url(#path-2-inside-1_209_44530)"/>
<circle cx="23.9258" cy="37.5566" r="6" stroke="#3A3A3A"/>
<path d="M24.1719 25.4355V28.755" stroke="#3A3A3A" stroke-linecap="round"/>
<path d="M24.1719 46.459V49.7785" stroke="#3A3A3A" stroke-linecap="round"/>
<path d="M36.3438 37.6074L33.0243 37.6074" stroke="#3A3A3A" stroke-linecap="round"/>
<path d="M15.3203 37.6074L12.0008 37.6074" stroke="#3A3A3A" stroke-linecap="round"/>
<path d="M32.7773 46.2109L30.4301 43.8637" stroke="#3A3A3A" stroke-linecap="round"/>
<path d="M17.9121 31.3457L15.5649 28.9985" stroke="#3A3A3A" stroke-linecap="round"/>
<path d="M32.7773 28.998L30.4301 31.3453" stroke="#3A3A3A" stroke-linecap="round"/>
<path d="M17.9121 43.8652L15.5649 46.2125" stroke="#3A3A3A" stroke-linecap="round"/>
</svg>
