<svg width="64" height="64" viewBox="0 0 64 64" fill="none" xmlns="http://www.w3.org/2000/svg">
<circle cx="30.3336" cy="32.3355" r="16.9672" transform="rotate(-180 30.3336 32.3355)" fill="white" stroke="#4A5056"/>
<path d="M47.8008 32.3355C47.8008 22.6886 39.9804 14.8683 30.3336 14.8683L30.3336 49.8027C39.9804 49.8027 47.8008 41.9824 47.8008 32.3355Z" fill="#4A5056"/>
<line x1="30.8359" y1="4.5" x2="30.8359" y2="12.0395" stroke="#4A5056" stroke-linecap="round"/>
<line x1="30.8359" y1="52.6309" x2="30.8359" y2="60.1704" stroke="#4A5056" stroke-linecap="round"/>
<line x1="10.664" y1="12.6382" x2="16.0865" y2="17.8767" stroke="#4A5056" stroke-linecap="round"/>
<line x1="16.3398" y1="47.0372" x2="11.0086" y2="52.3684" stroke="#4A5056" stroke-linecap="round"/>
<line x1="10.0391" y1="32.834" x2="2.49953" y2="32.834" stroke="#4A5056" stroke-linecap="round"/>
<path d="M55.5671 28.9778L56.4255 31.0417C56.5695 31.3879 56.8951 31.6245 57.2689 31.6545L59.4971 31.8331L57.7994 33.2873C57.5147 33.5312 57.3903 33.914 57.4773 34.2788L57.9959 36.4531L56.0883 35.2879C55.7683 35.0925 55.3658 35.0925 55.0458 35.2879L53.1382 36.4531L53.6568 34.2788C53.7438 33.914 53.6195 33.5312 53.3347 33.2873L51.637 31.8331L53.8652 31.6545C54.239 31.6245 54.5646 31.3879 54.7086 31.0417L54.247 30.8497L54.7086 31.0417L55.5671 28.9778Z" stroke="#4A5056"/>
<path d="M47.3749 13.5181L48.4959 14.6206C48.762 14.8823 49.1517 14.974 49.5066 14.8586L51.0018 14.372L50.2996 15.7789C50.1329 16.1128 50.1661 16.5118 50.3856 16.8136L51.3104 18.0853L49.7554 17.8522C49.3863 17.7969 49.0171 17.9517 48.7979 18.2538L47.8742 19.5262L47.6153 17.9753C47.5539 17.6072 47.2926 17.304 46.9376 17.1888L46.7833 17.6644L46.9376 17.1888L45.4419 16.7035L46.837 15.9781C47.1681 15.8059 47.3757 15.4636 47.3756 15.0904L47.3749 13.5181Z" stroke="#4A5056"/>
<path d="M51.8786 46.0779L52.0567 47.6347C52.0993 48.0073 52.3467 48.3247 52.6976 48.4569L54.164 49.0093L52.7384 49.6597C52.3972 49.8154 52.1718 50.1488 52.1545 50.5234L52.0822 52.0887L51.0231 50.9338C50.7697 50.6574 50.3829 50.5461 50.0213 50.6454L48.5103 51.0604L49.2813 49.6962C49.4659 49.3698 49.4522 48.9675 49.246 48.6543L48.3845 47.3455L49.9201 47.6573C50.2876 47.7319 50.6659 47.5946 50.9001 47.3017L51.8786 46.0779Z" stroke="#4A5056"/>
</svg>
