<svg width="40" height="43" viewBox="0 0 40 43" fill="none" xmlns="http://www.w3.org/2000/svg">
<path fill-rule="evenodd" clip-rule="evenodd" d="M6.51595 13.2832L16.6074 13.2832C18.0548 14.821 20.109 15.7811 22.3874 15.7811C24.6659 15.7811 26.7201 14.821 28.1675 13.2832L38.2607 13.2832C39.1374 13.2832 39.848 13.9938 39.848 14.8704C39.848 15.7471 39.1374 16.4577 38.2607 16.4577L30.475 16.4577V32.9347H27.1202C27.1385 33.0313 27.1482 33.131 27.1482 33.233V41.1692C27.1482 42.0458 26.4375 42.7564 25.5609 42.7564C24.6843 42.7564 23.9737 42.0458 23.9737 41.1692V33.233C23.9737 33.131 23.9833 33.0313 24.0016 32.9347H20.7732C20.7915 33.0313 20.8011 33.131 20.8011 33.233V41.1692C20.8011 42.0458 20.0905 42.7564 19.2139 42.7564C18.3373 42.7564 17.6267 42.0458 17.6267 41.1692V33.233C17.6267 33.131 17.6363 33.0313 17.6546 32.9347H8.85833L15.9788 16.4577L6.51595 16.4577C5.63934 16.4577 4.92871 15.7471 4.92871 14.8704C4.92871 13.9938 5.63934 13.2832 6.51595 13.2832Z" fill="#8FD6FF"/>
<ellipse cx="22.6142" cy="7.3896" rx="5.89546" ry="5.89546" fill="#8FD6FF"/>
<path d="M12.6795 12.793L13.0436 12.4503L12.8955 12.293H12.6795V12.793ZM2.58724 12.793V13.293V12.793ZM24.2398 12.793V12.293L24.0238 12.293L23.8757 12.4503L24.2398 12.793ZM34.332 12.793V13.293V12.793ZM34.332 15.9674V16.4674V15.9674ZM26.5463 15.9674V15.4674H26.0463V15.9674H26.5463ZM26.5463 32.4445V32.9445H27.0463V32.4445H26.5463ZM23.1915 32.4445V31.9445H22.5875L22.7003 32.5379L23.1915 32.4445ZM20.0729 32.4445L20.5641 32.5379L20.6769 31.9445H20.0729V32.4445ZM16.8445 32.4445V31.9445H16.2405L16.3533 32.5379L16.8445 32.4445ZM13.7259 32.4445L14.2171 32.5379L14.3299 31.9445H13.7259V32.4445ZM4.92961 32.4445L4.47064 32.2462L4.16885 32.9445H4.92961V32.4445ZM12.0501 15.9674L12.509 16.1658L12.8108 15.4674H12.0501V15.9674ZM2.58724 15.9674L2.58724 15.4674H2.58724V15.9674ZM12.6795 12.293L2.58724 12.293L2.58724 13.293L12.6795 13.293V12.293ZM18.4596 14.791C16.3246 14.791 14.4004 13.8919 13.0436 12.4503L12.3154 13.1357C13.8533 14.7697 16.0376 15.791 18.4596 15.791V14.791ZM23.8757 12.4503C22.5188 13.8919 20.5946 14.791 18.4596 14.791V15.791C20.8817 15.791 23.0659 14.7697 24.6039 13.1357L23.8757 12.4503ZM34.332 12.293L24.2398 12.293V13.293L34.332 13.293V12.293ZM36.4193 14.3802C36.4193 13.2275 35.4848 12.293 34.332 12.293V13.293C34.9325 13.293 35.4193 13.7797 35.4193 14.3802H36.4193ZM34.332 16.4674C35.4848 16.4674 36.4193 15.533 36.4193 14.3802H35.4193C35.4193 14.9807 34.9325 15.4674 34.332 15.4674V16.4674ZM26.5463 16.4674L34.332 16.4674V15.4674L26.5463 15.4674V16.4674ZM27.0463 32.4445V15.9674H26.0463V32.4445H27.0463ZM23.1915 32.9445H26.5463V31.9445H23.1915V32.9445ZM23.7194 32.7427C23.7194 32.6093 23.7069 32.4783 23.6827 32.3511L22.7003 32.5379C22.7128 32.6039 22.7194 32.6723 22.7194 32.7427H23.7194ZM23.7194 40.6789V32.7427H22.7194V40.6789H23.7194ZM21.6322 42.7662C22.785 42.7662 23.7194 41.8317 23.7194 40.6789H22.7194C22.7194 41.2794 22.2327 41.7662 21.6322 41.7662V42.7662ZM19.545 40.6789C19.545 41.8317 20.4795 42.7662 21.6322 42.7662V41.7662C21.0317 41.7662 20.545 41.2794 20.545 40.6789H19.545ZM19.545 32.7427V40.6789H20.545V32.7427H19.545ZM19.5817 32.3511C19.5575 32.4783 19.545 32.6093 19.545 32.7427H20.545C20.545 32.6723 20.5516 32.6039 20.5641 32.5379L19.5817 32.3511ZM16.8445 32.9445H20.0729V31.9445H16.8445V32.9445ZM17.3724 32.7427C17.3724 32.6093 17.3598 32.4783 17.3357 32.3511L16.3533 32.5379C16.3658 32.6039 16.3724 32.6723 16.3724 32.7427H17.3724ZM17.3724 40.6789V32.7427H16.3724V40.6789H17.3724ZM15.2852 42.7662C16.4379 42.7662 17.3724 41.8317 17.3724 40.6789H16.3724C16.3724 41.2794 15.8857 41.7662 15.2852 41.7662V42.7662ZM13.1979 40.6789C13.1979 41.8317 14.1324 42.7662 15.2852 42.7662V41.7662C14.6847 41.7662 14.1979 41.2794 14.1979 40.6789H13.1979ZM13.1979 32.7427V40.6789H14.1979V32.7427H13.1979ZM13.2347 32.3511C13.2105 32.4783 13.1979 32.6093 13.1979 32.7427H14.1979C14.1979 32.6723 14.2046 32.6039 14.2171 32.5379L13.2347 32.3511ZM4.92961 32.9445H13.7259V31.9445H4.92961V32.9445ZM11.5911 15.7691L4.47064 32.2462L5.38859 32.6429L12.509 16.1658L11.5911 15.7691ZM2.58724 16.4674L12.0501 16.4674V15.4674L2.58724 15.4674L2.58724 16.4674ZM0.5 14.3802C0.5 15.533 1.43448 16.4674 2.58724 16.4674V15.4674C1.98677 15.4674 1.5 14.9807 1.5 14.3802H0.5ZM2.58724 12.293C1.43449 12.293 0.5 13.2275 0.5 14.3802H1.5C1.5 13.7797 1.98677 13.293 2.58724 13.293L2.58724 12.293Z" fill="black"/>
<ellipse cx="18.6855" cy="6.89546" rx="5.89546" ry="5.89546" stroke="black"/>
</svg>
