<svg width="64" height="64" viewBox="0 0 64 64" fill="none" xmlns="http://www.w3.org/2000/svg">
<path d="M13.5 13L15.5 15" stroke="#4A5056" stroke-linecap="round"/>
<mask id="path-2-inside-1_810_23648" fill="white">
<path fill-rule="evenodd" clip-rule="evenodd" d="M32 59C46.9117 59 59 46.9117 59 32C59 17.0883 46.9117 5 32 5C17.0883 5 5 17.0883 5 32C5 46.9117 17.0883 59 32 59ZM32.0027 54.9252C44.6635 54.9252 54.9272 44.6616 54.9272 32.0007C54.9272 19.3398 44.6635 9.07617 32.0027 9.07617C19.3418 9.07617 9.07812 19.3398 9.07812 32.0007C9.07812 44.6616 19.3418 54.9252 32.0027 54.9252Z"/>
</mask>
<path d="M58 32C58 46.3594 46.3594 58 32 58V60C47.464 60 60 47.464 60 32H58ZM32 6C46.3594 6 58 17.6406 58 32H60C60 16.536 47.464 4 32 4V6ZM6 32C6 17.6406 17.6406 6 32 6V4C16.536 4 4 16.536 4 32H6ZM32 58C17.6406 58 6 46.3594 6 32H4C4 47.464 16.536 60 32 60V58ZM53.9272 32.0007C53.9272 44.1093 44.1112 53.9252 32.0027 53.9252V55.9252C45.2158 55.9252 55.9272 45.2139 55.9272 32.0007H53.9272ZM32.0027 10.0762C44.1112 10.0762 53.9272 19.8921 53.9272 32.0007H55.9272C55.9272 18.7875 45.2158 8.07617 32.0027 8.07617V10.0762ZM10.0781 32.0007C10.0781 19.8921 19.8941 10.0762 32.0027 10.0762V8.07617C18.7895 8.07617 8.07812 18.7875 8.07812 32.0007H10.0781ZM32.0027 53.9252C19.8941 53.9252 10.0781 44.1093 10.0781 32.0007H8.07812C8.07812 45.2139 18.7895 55.9252 32.0027 55.9252V53.9252Z" fill="#4A5056" mask="url(#path-2-inside-1_810_23648)"/>
<path d="M15.5 15L13.5 13L15 11.5L17 10L20.5 8.5L22.5 7.5L24 7L27.5 6L29.5 5.5H31.5H35L37.5 6L41.5 7.5L45 9L48.5 11.5L51.5 14L53.5 16.5L56 20.5L57.5 24.5L58 28L58.5 30.5V32H55.5V31.5V29.5L55 28V26L54.5 24.5L53.5 22.5L53 21L51 18.5L50 16.5L48.5 15L45.5 13L43 11L40.5 10L38 9.5L35.5 9L33.5 8.5H31L28.5 9L26.5 9.5L23.5 10L21.5 11L20 12L18 13L16.5 14.5L15.5 15Z" fill="#4A5056"/>
<path d="M37.5 36.5V37L37 38H37.7383H51.5V37L51 36V35.5V35L50.5 34L50 33.5L49.5 33L49 32.5L48.5 32H48L47.5 31.5V31L48 30.5L48.5 29.5V29L49 28V27.5L48.5 26.5V26L48 25L47.5 24.5L47 24H46.5L46 23.5H45.5H45L44.5 23L43.5 23.5H43H42.5L42 24L41.5 24.5L41 25L40.5 25.5L40 26V26.5V27V28.5V29.5L40.5 30L41 31L41.5 31.5H41L40 32.5L39.5 33L39 33.5L38.5 34L38 34.5V35L37.5 35.5V36V36.5Z" fill="white"/>
<path fill-rule="evenodd" clip-rule="evenodd" d="M47.9978 24.7518C49.1606 26.2029 49.3892 28.2097 48.6008 29.8966C48.5023 30.1085 48.3841 30.3123 48.25 30.5082C48.0499 30.8034 47.8197 31.0712 47.5657 31.3092C47.5837 31.3149 47.6016 31.3223 47.6191 31.3313C48.1907 31.6231 48.7228 31.9869 49.2037 32.4186C50.7647 33.8217 51.6595 35.8684 51.6674 37.9791C51.6674 38.111 51.557 38.219 51.4308 38.219H51.3835C50.7526 38.2376 50.1181 38.2314 49.4848 38.2252C49.1686 38.2221 48.8526 38.219 48.5376 38.219H44.8875H43.4606H39.6331H37.2365C37.1104 38.219 37 38.107 37 37.9791C37.0039 37.3555 37.0788 36.7319 37.2326 36.1243C37.7529 34.0576 39.1719 32.2907 41.0482 31.3313C41.0659 31.3222 41.085 31.3148 41.1051 31.309C40.2151 30.46 39.651 29.2743 39.5978 27.9978C39.5151 26.019 40.6897 24.1442 42.4832 23.3727C44.391 22.5532 46.6891 23.1169 47.9978 24.7518ZM41.5207 31.6627C41.0187 31.9259 40.2813 32.3398 39.8893 32.6784C38.423 33.947 37.551 35.7851 37.4745 37.7312C37.6347 37.7261 37.7975 37.7312 37.9589 37.7362C38.0714 37.7398 38.1833 37.7433 38.2929 37.7433H40.1219H43.7877H45.2107H49.0264H51.1866C51.1717 37.2777 51.1128 36.818 51.0051 36.3641C50.5321 34.3614 49.0725 32.5258 47.2671 31.5984C47.2587 31.594 47.2509 31.5896 47.2437 31.585C46.0225 32.5406 44.3735 32.8761 42.8616 32.3711C42.3732 32.2084 41.9221 31.9667 41.5207 31.6627ZM48.2124 29.6146C48.2046 29.626 48.1974 29.6387 48.1909 29.6528C47.3986 31.3757 45.479 32.391 43.6342 32.0712C41.9077 31.7714 40.5084 30.4123 40.1536 28.6694C39.791 26.8985 40.599 25.0357 42.1206 24.0962C43.7012 23.1288 45.7904 23.3127 47.17 24.5639C48.559 25.8218 48.9926 27.8989 48.2124 29.6146Z" fill="#4A5056"/>
<path d="M13.5 36.5V37L13 38H13.7383H27.5V37L27 36V35.5V35L26.5 34L26 33.5L25.5 33L25 32.5L24.5 32H24L23.5 31.5V31L24 30.5L24.5 29.5V29L25 28V27.5L24.5 26.5V26L24 25L23.5 24.5L23 24H22.5L22 23.5H21.5H21L20.5 23L19.5 23.5H19H18.5L18 24L17.5 24.5L17 25L16.5 25.5L16 26V26.5V27V28.5V29.5L16.5 30L17 31L17.5 31.5H17L16 32.5L15.5 33L15 33.5L14.5 34L14 34.5V35L13.5 35.5V36V36.5Z" fill="white"/>
<path fill-rule="evenodd" clip-rule="evenodd" d="M23.9978 24.7518C25.1606 26.2029 25.3892 28.2097 24.6008 29.8966C24.5023 30.1085 24.3841 30.3123 24.25 30.5082C24.0499 30.8034 23.8197 31.0712 23.5657 31.3092C23.5837 31.3149 23.6016 31.3223 23.6191 31.3313C24.1907 31.6231 24.7228 31.9869 25.2037 32.4186C26.7647 33.8217 27.6595 35.8684 27.6674 37.9791C27.6674 38.111 27.557 38.219 27.4308 38.219H27.3835C26.7526 38.2376 26.1181 38.2314 25.4848 38.2252C25.1686 38.2221 24.8526 38.219 24.5376 38.219H20.8875H19.4606H15.6331H13.2365C13.1104 38.219 13 38.107 13 37.9791C13.0039 37.3555 13.0788 36.7319 13.2326 36.1243C13.7529 34.0576 15.1719 32.2907 17.0482 31.3313C17.0659 31.3222 17.085 31.3148 17.1051 31.309C16.2151 30.46 15.651 29.2743 15.5978 27.9978C15.5151 26.019 16.6897 24.1442 18.4832 23.3727C20.391 22.5532 22.6891 23.1169 23.9978 24.7518ZM17.5207 31.6627C17.0187 31.9259 16.2813 32.3398 15.8893 32.6784C14.423 33.947 13.551 35.7851 13.4745 37.7312C13.6347 37.7261 13.7975 37.7312 13.9589 37.7362C14.0714 37.7398 14.1833 37.7433 14.2929 37.7433H16.1219H19.7877H21.2107H25.0264H27.1866C27.1717 37.2777 27.1128 36.818 27.0051 36.3641C26.5321 34.3614 25.0725 32.5258 23.2671 31.5984C23.2587 31.594 23.2509 31.5896 23.2437 31.585C22.0225 32.5406 20.3735 32.8761 18.8616 32.3711C18.3732 32.2084 17.9221 31.9667 17.5207 31.6627ZM24.2124 29.6146C24.2046 29.626 24.1974 29.6387 24.1909 29.6528C23.3986 31.3757 21.479 32.391 19.6342 32.0712C17.9077 31.7714 16.5084 30.4123 16.1536 28.6694C15.791 26.8985 16.599 25.0357 18.1206 24.0962C19.7012 23.1288 21.7904 23.3127 23.17 24.5639C24.559 25.8218 24.9926 27.8989 24.2124 29.6146Z" fill="#4A5056"/>
<path d="M25.5 38.5V39L25 40H25.7383H39.5V39L39 38V37.5V37L38.5 36L38 35.5L37.5 35L37 34.5L36.5 34H36L35.5 33.5V33L36 32.5L36.5 31.5V31L37 30V29.5L36.5 28.5V28L36 27L35.5 26.5L35 26H34.5L34 25.5H33.5H33L32.5 25L31.5 25.5H31H30.5L30 26L29.5 26.5L29 27L28.5 27.5L28 28V28.5V29V30.5V31.5L28.5 32L29 33L29.5 33.5H29L28 34.5L27.5 35L27 35.5L26.5 36L26 36.5V37L25.5 37.5V38V38.5Z" fill="white"/>
<path fill-rule="evenodd" clip-rule="evenodd" d="M35.9978 26.7518C37.1606 28.2029 37.3892 30.2097 36.6008 31.8966C36.5023 32.1085 36.3841 32.3123 36.25 32.5082C36.0499 32.8034 35.8197 33.0712 35.5657 33.3092C35.5837 33.3149 35.6016 33.3223 35.6191 33.3313C36.1907 33.6231 36.7228 33.9869 37.2037 34.4186C38.7647 35.8217 39.6595 37.8684 39.6674 39.9791C39.6674 40.111 39.557 40.219 39.4308 40.219H39.3835C38.7526 40.2376 38.1181 40.2314 37.4848 40.2252C37.1686 40.2221 36.8526 40.219 36.5376 40.219H32.8875H31.4606H27.6331H25.2365C25.1104 40.219 25 40.107 25 39.9791C25.0039 39.3555 25.0788 38.7319 25.2326 38.1243C25.7529 36.0576 27.1719 34.2907 29.0482 33.3313C29.0659 33.3222 29.085 33.3148 29.1051 33.309C28.2151 32.46 27.651 31.2743 27.5978 29.9978C27.5151 28.019 28.6897 26.1442 30.4832 25.3727C32.391 24.5532 34.6891 25.1169 35.9978 26.7518ZM29.5207 33.6627C29.0187 33.9259 28.2813 34.3398 27.8893 34.6784C26.423 35.947 25.551 37.7851 25.4745 39.7312C25.6347 39.7261 25.7975 39.7312 25.9589 39.7362C26.0714 39.7398 26.1833 39.7433 26.2929 39.7433H28.1219H31.7877H33.2107H37.0264H39.1866C39.1717 39.2777 39.1128 38.818 39.0051 38.3641C38.5321 36.3614 37.0725 34.5258 35.2671 33.5984C35.2587 33.594 35.2509 33.5896 35.2437 33.585C34.0225 34.5406 32.3735 34.8761 30.8616 34.3711C30.3732 34.2084 29.9221 33.9667 29.5207 33.6627ZM36.2124 31.6146C36.2046 31.626 36.1974 31.6387 36.1909 31.6528C35.3986 33.3757 33.479 34.391 31.6342 34.0712C29.9077 33.7714 28.5084 32.4123 28.1536 30.6694C27.791 28.8985 28.599 27.0357 30.1206 26.0962C31.7012 25.1288 33.7904 25.3127 35.17 26.5639C36.559 27.8218 36.9926 29.8989 36.2124 31.6146Z" fill="#4A5056"/>
</svg>
