<svg width="64" height="64" viewBox="0 0 64 64" fill="none" xmlns="http://www.w3.org/2000/svg">
<rect width="64" height="64" fill="#F8F8F8"/>
<path fill-rule="evenodd" clip-rule="evenodd" d="M25.0769 27H31.924C32.906 28.0431 34.2996 28.6944 35.8452 28.6944C37.3909 28.6944 38.7845 28.0431 39.7665 27H41.3323H46.6154C47.2102 27 47.6923 27.4822 47.6923 28.0769C47.6923 28.6717 47.2102 29.1538 46.6154 29.1538L41.3323 29.1538V40.3333H39.0566C39.0692 40.3992 39.0758 40.4673 39.0758 40.5368V45.9214C39.0758 46.5162 38.5936 46.9984 37.9989 46.9984C37.4041 46.9984 36.9219 46.5162 36.9219 45.9214V40.5368C36.9219 40.4673 36.9285 40.3992 36.9411 40.3333H34.75C34.7626 40.3992 34.7692 40.4673 34.7692 40.5368V45.9214C34.7692 46.5162 34.287 46.9984 33.6922 46.9984C33.0975 46.9984 32.6153 46.5162 32.6153 45.9214V40.5368C32.6153 40.4673 32.6219 40.3992 32.6345 40.3333H26.6656L31.4968 29.1538L25.0769 29.1538C24.4822 29.1538 24 28.6717 24 28.0769C24 27.4822 24.4822 27 25.0769 27Z" fill="#8FD6FF"/>
<ellipse cx="35.998" cy="23" rx="4" ry="4" fill="#8FD6FF"/>
<path d="M29.2599 26.666L29.624 26.3233L29.4759 26.166H29.2599V26.666ZM37.1024 26.666V26.166H36.8864L36.7384 26.3233L37.1024 26.666ZM43.9513 28.8199V29.3199V28.8199ZM38.6682 28.8199V28.3199H38.1682V28.8199H38.6682ZM38.6682 39.9993V40.4993H39.1682V39.9993H38.6682ZM36.3925 39.9993V39.4993H35.7879L35.9014 40.0933L36.3925 39.9993ZM34.2771 39.9993L34.7682 40.0933L34.8818 39.4993H34.2771V39.9993ZM32.0859 39.9993V39.4993H31.4812L31.5948 40.0933L32.0859 39.9993ZM29.9704 39.9993L30.4615 40.0933L30.5751 39.4993H29.9704V39.9993ZM24.0016 39.9993L23.5426 39.801L23.2408 40.4993H24.0016V39.9993ZM28.8327 28.8199L29.2917 29.0182L29.5935 28.3199H28.8327V28.8199ZM22.4129 28.8199V28.3199V28.8199ZM29.2599 26.166H22.4129V27.166H29.2599V26.166ZM33.1812 27.8604C31.779 27.8604 30.5154 27.2702 29.624 26.3233L28.8959 27.0087C29.9684 28.148 31.492 28.8604 33.1812 28.8604V27.8604ZM36.7384 26.3233C35.8469 27.2702 34.5834 27.8604 33.1812 27.8604V28.8604C34.8703 28.8604 36.3939 28.148 37.4665 27.0087L36.7384 26.3233ZM38.6682 26.166H37.1024V27.166H38.6682V26.166ZM43.9513 26.166H38.6682V27.166H43.9513V26.166ZM45.5282 27.7429C45.5282 26.872 44.8222 26.166 43.9513 26.166V27.166C44.2699 27.166 44.5282 27.4243 44.5282 27.7429H45.5282ZM43.9513 29.3199C44.8222 29.3199 45.5282 28.6139 45.5282 27.7429H44.5282C44.5282 28.0616 44.2699 28.3199 43.9513 28.3199V29.3199ZM38.6682 29.3199L43.9513 29.3199V28.3199L38.6682 28.3199V29.3199ZM39.1682 39.9993V28.8199H38.1682V39.9993H39.1682ZM36.3925 40.4993H38.6682V39.4993H36.3925V40.4993ZM36.9117 40.2028C36.9117 40.1016 36.9021 40.0021 36.8836 39.9054L35.9014 40.0933C35.9081 40.1284 35.9117 40.1649 35.9117 40.2028H36.9117ZM36.9117 45.5874V40.2028H35.9117V45.5874H36.9117ZM35.3348 47.1644C36.2057 47.1644 36.9117 46.4584 36.9117 45.5874H35.9117C35.9117 45.9061 35.6534 46.1644 35.3348 46.1644V47.1644ZM33.7579 45.5874C33.7579 46.4584 34.4639 47.1644 35.3348 47.1644V46.1644C35.0162 46.1644 34.7579 45.9061 34.7579 45.5874H33.7579ZM33.7579 40.2028V45.5874H34.7579V40.2028H33.7579ZM33.786 39.9054C33.7675 40.0021 33.7579 40.1016 33.7579 40.2028H34.7579C34.7579 40.1649 34.7615 40.1284 34.7682 40.0933L33.786 39.9054ZM32.0859 40.4993H34.2771V39.4993H32.0859V40.4993ZM32.6051 40.2028C32.6051 40.1016 32.5955 40.0021 32.577 39.9054L31.5948 40.0933C31.6015 40.1284 31.6051 40.1649 31.6051 40.2028H32.6051ZM32.6051 45.5874V40.2028H31.6051V45.5874H32.6051ZM31.0282 47.1644C31.8991 47.1644 32.6051 46.4584 32.6051 45.5874H31.6051C31.6051 45.9061 31.3468 46.1644 31.0282 46.1644V47.1644ZM29.4512 45.5875C29.4512 46.4584 30.1573 47.1644 31.0282 47.1644V46.1644C30.7095 46.1644 30.4512 45.9061 30.4512 45.5875H29.4512ZM29.4512 40.2028V45.5875H30.4512V40.2028H29.4512ZM29.4793 39.9054C29.4608 40.0021 29.4512 40.1016 29.4512 40.2028H30.4512C30.4512 40.1649 30.4548 40.1284 30.4615 40.0933L29.4793 39.9054ZM24.0016 40.4993H29.9704V39.4993H24.0016V40.4993ZM28.3737 28.6215L23.5426 39.801L24.4606 40.1977L29.2917 29.0182L28.3737 28.6215ZM22.4129 29.3199L28.8327 29.3199V28.3199L22.4129 28.3199V29.3199ZM20.8359 27.7429C20.8359 28.6138 21.5419 29.3199 22.4129 29.3199V28.3199C22.0942 28.3199 21.8359 28.0616 21.8359 27.7429H20.8359ZM22.4129 26.166C21.542 26.166 20.8359 26.872 20.8359 27.7429H21.8359C21.8359 27.4243 22.0942 27.166 22.4129 27.166V26.166Z" fill="#3A3A3A"/>
<ellipse cx="33.334" cy="22.666" rx="4" ry="4" stroke="#3A3A3A"/>
</svg>
