<svg width="64" height="64" viewBox="0 0 64 64" fill="none" xmlns="http://www.w3.org/2000/svg">
<rect width="64" height="64" fill="#F8F8F8"/>
<path d="M25.4347 48.5342C29.2628 50.7443 33.8121 51.3432 38.0817 50.1992C42.3514 49.0551 45.9917 46.2618 48.2018 42.4338C50.412 38.6057 51.0109 34.0564 49.8668 29.7868C48.7228 25.5171 45.9295 21.8768 42.1014 19.6667L33.7681 34.1004L25.4347 48.5342Z" fill="#8FD6FF"/>
<mask id="path-2-inside-1_209_44565" fill="white">
<path d="M25.4328 45.2002C29.2608 47.4103 33.8101 48.0093 38.0798 46.8652C42.3494 45.7212 45.9897 42.9278 48.1999 39.0998C50.41 35.2717 51.0089 30.7224 49.8649 26.4528C48.7208 22.1831 45.9275 18.5428 42.0994 16.3327L33.7661 30.7664L25.4328 45.2002Z"/>
</mask>
<path d="M25.4328 45.2002C29.2608 47.4103 33.8101 48.0093 38.0798 46.8652C42.3494 45.7212 45.9897 42.9278 48.1999 39.0998C50.41 35.2717 51.0089 30.7224 49.8649 26.4528C48.7208 22.1831 45.9275 18.5428 42.0994 16.3327L33.7661 30.7664L25.4328 45.2002Z" stroke="#3A3A3A" stroke-width="1.5" mask="url(#path-2-inside-1_209_44565)"/>
<mask id="path-3-inside-2_209_44565" fill="white">
<path d="M38.1004 18.999C34.2724 16.7889 29.7231 16.19 25.4534 17.334C21.1838 18.4781 17.5435 21.2714 15.3333 25.0994C13.1232 28.9275 12.5243 33.4768 13.6683 37.7464C14.8124 42.0161 17.6057 45.6564 21.4338 47.8665L29.7671 33.4328L38.1004 18.999Z"/>
</mask>
<path d="M38.1004 18.999C34.2724 16.7889 29.7231 16.19 25.4534 17.334C21.1838 18.4781 17.5435 21.2714 15.3333 25.0994C13.1232 28.9275 12.5243 33.4768 13.6683 37.7464C14.8124 42.0161 17.6057 45.6564 21.4338 47.8665L29.7671 33.4328L38.1004 18.999Z" stroke="#3A3A3A" stroke-width="1.5" mask="url(#path-3-inside-2_209_44565)"/>
<path d="M21.6769 29.0269C22.9993 30.0006 25.9454 29.1723 26.9989 28.0007" stroke="#3A3A3A" stroke-width="0.5" stroke-linecap="round"/>
<path d="M42.9647 31.3353C42.8258 29.9319 41.6849 27.228 38.2328 27.6399" stroke="#3A3A3A" stroke-width="0.5" stroke-linecap="round"/>
<path d="M20.334 40.0002C22.334 39.3332 24.0673 38.934 25.6673 40.0007" stroke="#3A3A3A" stroke-width="0.5" stroke-linecap="round"/>
<ellipse rx="0.666666" ry="0.666668" transform="matrix(1 0 0 -1 39.6667 29.9993)" fill="#3A3A3A"/>
<ellipse rx="0.666666" ry="0.666667" transform="matrix(1 0 0 -1 25.0007 27.3333)" fill="#3A3A3A"/>
<path d="M29.666 38.666C30.9993 39.5549 34.9994 41.3327 37.666 40.666" stroke="#3A3A3A" stroke-width="0.5" stroke-linecap="round"/>
</svg>
