<svg width="65" height="60" viewBox="0 0 65 60" fill="none" xmlns="http://www.w3.org/2000/svg">
<path d="M18.1788 47.458C23.8208 50.7154 30.5258 51.5982 36.8187 49.912C43.1116 48.2258 48.4769 44.1088 51.7344 38.4668C54.9918 32.8247 55.8746 26.1197 54.1884 19.8268C52.5022 13.5339 48.3852 8.16859 42.7432 4.91115L30.461 26.1846L18.1788 47.458Z" fill="#8FD6FF"/>
<path fill-rule="evenodd" clip-rule="evenodd" d="M18.4008 2.19817C24.2601 0.627855 30.4877 1.35442 35.8168 4.21184L23.9154 24.8271L18.3431 34.4775C15.9623 33.0829 13.3969 33.704 10.5804 34.6435C10.4496 34.6884 10.3783 34.829 10.4222 34.9599C10.4662 35.0907 10.6078 35.163 10.7386 35.1181C13.5668 34.1747 15.9252 33.6396 18.0931 34.9111L12.014 45.4404C6.87537 42.2529 3.13123 37.2236 1.56189 31.3642C-0.0728737 25.2646 0.782595 18.7646 3.9408 13.2939C7.099 7.82317 12.3002 3.83293 18.4008 2.19817ZM18.2074 1.47356C24.2582 -0.147536 30.6898 0.606371 36.1918 3.5634C36.4115 3.68059 36.6303 3.80168 36.847 3.92864L36.472 4.57707L24.5648 25.2021L12.6576 45.8251L12.2826 46.4736C12.0658 46.3486 11.851 46.2216 11.639 46.0888C6.32752 42.8036 2.45838 37.6103 0.837283 31.5595C-0.849241 25.2665 0.0335716 18.5614 3.29138 12.9189C6.5492 7.27629 11.9144 3.1591 18.2074 1.47356ZM20.6722 17.3622C20.765 17.2607 20.7562 17.1025 20.6537 17.0107C20.5511 16.9169 20.3929 16.9267 20.3002 17.0282C19.5707 17.8407 18.1527 18.5595 16.6586 18.8935C15.1566 19.2314 13.6761 19.1591 12.7904 18.5068C12.6791 18.4247 12.5228 18.4482 12.4408 18.5595C12.4164 18.5927 12.4017 18.6298 12.3959 18.6669C12.392 18.6904 12.392 18.7138 12.3949 18.7372C12.4027 18.8036 12.4369 18.8661 12.4945 18.9091C13.558 19.6923 15.223 19.7275 16.7679 19.3818C18.3207 19.0341 19.849 18.2782 20.6722 17.3622ZM17.5385 15.2294C18.0814 15.2294 18.5209 15.6689 18.5209 16.2118C18.5209 16.7548 18.0814 17.1943 17.5385 17.1943C16.9955 17.1943 16.556 16.7548 16.556 16.2118C16.556 15.6689 16.9955 15.2294 17.5385 15.2294Z" fill="#3A3A3A"/>
<path fill-rule="evenodd" clip-rule="evenodd" d="M36.6226 44.2764C30.7637 45.8463 24.5364 45.1192 19.2072 42.2621L24.4269 33.2212C25.4711 33.8874 27.3761 34.82 29.5014 35.4891C31.7251 36.1891 34.236 36.6156 36.2695 36.1072C36.4034 36.0738 36.4849 35.938 36.4514 35.8041C36.4179 35.6701 36.2822 35.5887 36.1482 35.6222C34.2514 36.0964 31.8494 35.704 29.6515 35.0121C27.5478 34.3499 25.6733 33.4268 24.6772 32.7878L31.1085 21.6484L43.0098 1.03474C48.1488 4.22141 51.8921 9.25093 53.4619 15.1098C55.0966 21.2106 54.2409 27.7108 51.0829 33.1806C47.9249 38.6504 42.7234 42.6417 36.6226 44.2764ZM36.8167 45.0008C30.7657 46.6222 24.3337 45.8683 18.832 42.9119C18.6121 42.7937 18.3936 42.672 18.1768 42.5468L18.5518 41.8973L30.459 21.2734L42.3662 0.649519L42.7412 0C42.9581 0.12521 43.1727 0.253535 43.385 0.384907C48.6962 3.67128 52.565 8.86466 54.1864 14.9157C55.8726 21.2086 54.9898 27.9136 51.7324 33.5556C48.4749 39.1977 43.1096 43.3146 36.8167 45.0008ZM37.0115 16.4184C36.8744 16.4347 36.7765 16.5591 36.7929 16.6962C36.8092 16.8333 36.9336 16.9312 37.0707 16.9148C39.5364 16.6206 41.1487 17.4369 42.1753 18.5555C43.2128 19.686 43.6683 21.1445 43.7666 22.1377C43.7802 22.2751 43.9026 22.3755 44.04 22.3619C44.1774 22.3483 44.2777 22.2259 44.2641 22.0885C44.1577 21.0132 43.6701 19.4449 42.5436 18.2175C41.4062 16.9781 39.6338 16.1054 37.0115 16.4184ZM40.137 20.1414C40.137 19.5988 39.6971 19.1588 39.1544 19.1588C38.6117 19.1588 38.1718 19.5988 38.1718 20.1414C38.1718 20.6841 38.6117 21.124 39.1544 21.124C39.6971 21.124 40.137 20.6841 40.137 20.1414Z" fill="#3A3A3A"/>
</svg>
