<svg width="64" height="64" viewBox="0 0 64 64" fill="none" xmlns="http://www.w3.org/2000/svg">
<path d="M4 47.5391H60" stroke="#4A5056" stroke-linecap="round"/>
<path d="M12.9102 38.6309V47.54" stroke="#4A5056" stroke-linecap="round"/>
<path d="M20.5469 41.1758V47.5394" stroke="#4A5056" stroke-linecap="round"/>
<circle cx="20.5472" cy="34.8129" r="5.86364" stroke="#4A5056"/>
<path fill-rule="evenodd" clip-rule="evenodd" d="M14.739 37.4199C14.1517 37.559 13.539 37.6326 12.9091 37.6326C8.54102 37.6326 5 34.0916 5 29.7235C5 25.3555 8.54102 21.8145 12.9091 21.8145C16.8446 21.8145 20.1088 24.6889 20.7167 28.4529C21.0666 28.4621 21.4096 28.4995 21.7433 28.563C21.1746 24.191 17.4361 20.8145 12.9091 20.8145C7.98874 20.8145 4 24.8032 4 29.7235C4 34.6439 7.98874 38.6326 12.9091 38.6326C13.7149 38.6326 14.4957 38.5257 15.2381 38.3251C15.0484 38.0388 14.8812 37.7362 14.739 37.4199Z" fill="#4A5056"/>
<path d="M30.4844 18C30.4844 17.1716 31.1559 16.5 31.9844 16.5H55.8906C56.719 16.5 57.3906 17.1716 57.3906 18V47.2553H30.4844V18Z" fill="white" stroke="#4A5056"/>
<path d="M34.793 24.8281L34.793 22.7335" stroke="#4A5056" stroke-linecap="round"/>
<path d="M53.5234 24.8281L53.5234 22.7335" stroke="#4A5056" stroke-linecap="round"/>
<path d="M47.2812 24.8281L47.2812 22.7335" stroke="#4A5056" stroke-linecap="round"/>
<path d="M41.0391 24.8281L41.0391 22.7335" stroke="#4A5056" stroke-linecap="round"/>
<path d="M34.793 32.5273L34.793 30.4328" stroke="#4A5056" stroke-linecap="round"/>
<path d="M53.5234 32.5273L53.5234 30.4328" stroke="#4A5056" stroke-linecap="round"/>
<path d="M47.2812 32.5273L47.2812 30.4328" stroke="#4A5056" stroke-linecap="round"/>
<path d="M41.0391 32.5273L41.0391 30.4328" stroke="#4A5056" stroke-linecap="round"/>
<path d="M34.793 40.2246L34.793 38.13" stroke="#4A5056" stroke-linecap="round"/>
<path d="M53.5234 40.2246L53.5234 38.13" stroke="#4A5056" stroke-linecap="round"/>
<path d="M47.2812 40.2246L47.2812 38.13" stroke="#4A5056" stroke-linecap="round"/>
<path d="M41.0391 40.2246L41.0391 38.13" stroke="#4A5056" stroke-linecap="round"/>
</svg>
