<svg width="64" height="64" viewBox="0 0 64 64" fill="none" xmlns="http://www.w3.org/2000/svg">
<rect width="64" height="64" fill="#F8F8F8"/>
<path d="M20.7129 35.9238L33.2814 25.7119" stroke="#8FD6FF" stroke-width="2" stroke-linecap="round"/>
<path d="M16.4043 31.8965L22.9414 40.251" stroke="#8FD6FF" stroke-width="2" stroke-linecap="round"/>
<path d="M30.3281 21L36.8652 29.3545" stroke="#8FD6FF" stroke-width="2" stroke-linecap="round"/>
<path d="M33.6367 21.4043L37.2684 26.0457" stroke="#8FD6FF" stroke-width="2" stroke-linecap="round"/>
<path d="M16 35.2031L19.6317 39.8445" stroke="#8FD6FF" stroke-width="2" stroke-linecap="round"/>
<path d="M29.8828 38.2812L47.5629 38.3041" stroke="#8FD6FF" stroke-width="2" stroke-linecap="round"/>
<path d="M29.8906 32.3867L29.8769 42.9947" stroke="#8FD6FF" stroke-width="2" stroke-linecap="round"/>
<path d="M47.5703 32.4121L47.5566 43.0201" stroke="#8FD6FF" stroke-width="2" stroke-linecap="round"/>
<path d="M49.9238 34.7734L49.9162 40.6668" stroke="#8FD6FF" stroke-width="2" stroke-linecap="round"/>
<path d="M27.5293 34.7441L27.5217 40.6375" stroke="#8FD6FF" stroke-width="2" stroke-linecap="round"/>
<path d="M16.5508 37.2109L32.3789 24.3408" stroke="#3A3A3A" stroke-linecap="round"/>
<path d="M12.1621 31.875L19.8866 41.7471" stroke="#3A3A3A" stroke-linecap="round"/>
<path d="M28.6152 19L36.3397 28.8721" stroke="#3A3A3A" stroke-linecap="round"/>
<path d="M32.5254 19.4785L36.8168 24.963" stroke="#3A3A3A" stroke-linecap="round"/>
<path d="M11.6836 35.7832L15.975 41.2677" stroke="#3A3A3A" stroke-linecap="round"/>
<path d="M28.0879 39.4199L48.9795 39.4469" stroke="#3A3A3A" stroke-linecap="round"/>
<path d="M28.0977 32.4551L28.0815 44.99" stroke="#3A3A3A" stroke-linecap="round"/>
<path d="M48.9883 32.4844L48.9721 45.0193" stroke="#3A3A3A" stroke-linecap="round"/>
<path d="M51.7695 35.2754L51.7605 42.2393" stroke="#3A3A3A" stroke-linecap="round"/>
<path d="M25.3086 35.2402L25.2996 42.2041" stroke="#3A3A3A" stroke-linecap="round"/>
</svg>
