<svg width="64" height="64" viewBox="0 0 64 64" fill="none" xmlns="http://www.w3.org/2000/svg">
<rect x="16.5" y="15.5" width="6" height="32" stroke="#4A5056"/>
<path d="M14.5 7.5C14.5 6.39543 15.3954 5.5 16.5 5.5H22.5C23.6046 5.5 24.5 6.39543 24.5 7.5C24.5 8.60457 23.6046 9.5 22.5 9.5H16.5C15.3954 9.5 14.5 8.60457 14.5 7.5Z" fill="white" stroke="#4A5056"/>
<rect x="9.5" y="9.4375" width="20" height="6.875" rx="3.4375" fill="white" stroke="#4A5056"/>
<path d="M24.5 56.3125C24.5 57.4171 23.6046 58.3125 22.5 58.3125L16.5 58.3125C15.3954 58.3125 14.5 57.4171 14.5 56.3125C14.5 55.2079 15.3954 54.3125 16.5 54.3125L22.5 54.3125C23.6046 54.3125 24.5 55.2079 24.5 56.3125Z" fill="white" stroke="#4A5056"/>
<rect x="29.5" y="54.375" width="20" height="6.875" rx="3.4375" transform="rotate(-180 29.5 54.375)" fill="white" stroke="#4A5056"/>
<rect x="41.5" y="15.5" width="6" height="32" stroke="#4A5056"/>
<path d="M39.5 7.5C39.5 6.39543 40.3954 5.5 41.5 5.5H47.5C48.6046 5.5 49.5 6.39543 49.5 7.5C49.5 8.60457 48.6046 9.5 47.5 9.5H41.5C40.3954 9.5 39.5 8.60457 39.5 7.5Z" fill="white" stroke="#4A5056"/>
<rect x="34.5" y="9.4375" width="20" height="6.875" rx="3.4375" fill="white" stroke="#4A5056"/>
<path d="M49.5 56.3125C49.5 57.4171 48.6046 58.3125 47.5 58.3125L41.5 58.3125C40.3954 58.3125 39.5 57.4171 39.5 56.3125C39.5 55.2079 40.3954 54.3125 41.5 54.3125L47.5 54.3125C48.6046 54.3125 49.5 55.2079 49.5 56.3125Z" fill="white" stroke="#4A5056"/>
<rect x="54.5" y="54.375" width="20" height="6.875" rx="3.4375" transform="rotate(-180 54.5 54.375)" fill="white" stroke="#4A5056"/>
</svg>
