<svg width="61" height="40" viewBox="0 0 61 40" fill="none" xmlns="http://www.w3.org/2000/svg">
<path d="M14.3066 25.9414L32.831 10.8904" stroke="#8FD6FF" stroke-width="2" stroke-linecap="round"/>
<path d="M7.95605 20.0059L17.5908 32.3192" stroke="#8FD6FF" stroke-width="2" stroke-linecap="round"/>
<path d="M28.4785 3.94531L38.1133 16.2587" stroke="#8FD6FF" stroke-width="2" stroke-linecap="round"/>
<path d="M33.3564 4.54297L38.7091 11.3837" stroke="#8FD6FF" stroke-width="2" stroke-linecap="round"/>
<path d="M7.36035 24.8789L12.713 31.7197" stroke="#8FD6FF" stroke-width="2" stroke-linecap="round"/>
<path d="M27.8203 29.416L53.8783 29.4496" stroke="#8FD6FF" stroke-width="2" stroke-linecap="round"/>
<path d="M27.833 20.7305L27.8128 36.3653" stroke="#8FD6FF" stroke-width="2" stroke-linecap="round"/>
<path d="M53.8906 20.7656L53.8704 36.4004" stroke="#8FD6FF" stroke-width="2" stroke-linecap="round"/>
<path d="M57.3594 24.2461L57.3482 32.9321" stroke="#8FD6FF" stroke-width="2" stroke-linecap="round"/>
<path d="M24.3555 24.2031L24.3443 32.8891" stroke="#8FD6FF" stroke-width="2" stroke-linecap="round"/>
<path d="M9.20898 26.9922L31.0982 9.20716" stroke="#3A3A3A" stroke-linecap="round"/>
<path d="M1.7041 19.9766L13.089 34.5266" stroke="#3A3A3A" stroke-linecap="round"/>
<path d="M25.9541 1L37.339 15.5501" stroke="#3A3A3A" stroke-linecap="round"/>
<path d="M31.7178 1.70508L38.0427 9.78846" stroke="#3A3A3A" stroke-linecap="round"/>
<path d="M1 25.7344L7.32493 33.8178" stroke="#3A3A3A" stroke-linecap="round"/>
<path d="M25.1758 31.0957L55.9672 31.1354" stroke="#3A3A3A" stroke-linecap="round"/>
<path d="M25.1934 20.8301L25.1695 39.3049" stroke="#3A3A3A" stroke-linecap="round"/>
<path d="M55.9824 20.873L55.9586 39.3479" stroke="#3A3A3A" stroke-linecap="round"/>
<path d="M60.082 24.9883L60.0688 35.2521" stroke="#3A3A3A" stroke-linecap="round"/>
<path d="M21.082 24.9355L21.0688 35.1993" stroke="#3A3A3A" stroke-linecap="round"/>
</svg>
