<svg width="64" height="64" viewBox="0 0 64 64" fill="none" xmlns="http://www.w3.org/2000/svg">
<rect width="64" height="64" fill="#F8F8F8"/>
<path d="M34 27.5C33.7239 27.5 33.5 27.7239 33.5 28C33.5 28.2761 33.7239 28.5 34 28.5V27.5ZM44.3536 28.3536C44.5488 28.1583 44.5488 27.8417 44.3536 27.6464L41.1716 24.4645C40.9763 24.2692 40.6597 24.2692 40.4645 24.4645C40.2692 24.6597 40.2692 24.9763 40.4645 25.1716L43.2929 28L40.4645 30.8284C40.2692 31.0237 40.2692 31.3403 40.4645 31.5355C40.6597 31.7308 40.9763 31.7308 41.1716 31.5355L44.3536 28.3536ZM34 28.5H44V27.5H34V28.5Z" fill="#3A3A3A"/>
<path d="M37 21.7917V17H21V40H37V33.7708" stroke="#3A3A3A" stroke-linecap="round"/>
<path d="M28 22.2097L19 18V40.9194L28 47V22.2097Z" fill="#8FD6FF"/>
<path d="M30 21.2097L21 17V39.9194L30 46V21.2097Z" stroke="#3A3A3A" stroke-linecap="round"/>
</svg>
