<svg width="64" height="64" viewBox="0 0 64 64" fill="none" xmlns="http://www.w3.org/2000/svg">
<path d="M34.8711 24.5449C34.595 24.5449 34.3711 24.7688 34.3711 25.0449C34.3711 25.3211 34.595 25.5449 34.8711 25.5449V24.5449ZM54.3547 25.3985C54.5499 25.2032 54.5499 24.8866 54.3547 24.6914L51.1727 21.5094C50.9774 21.3141 50.6609 21.3141 50.4656 21.5094C50.2703 21.7047 50.2703 22.0212 50.4656 22.2165L53.294 25.0449L50.4656 27.8733C50.2703 28.0686 50.2703 28.3852 50.4656 28.5805C50.6609 28.7757 50.9774 28.7757 51.1727 28.5805L54.3547 25.3985ZM34.8711 25.5449H54.0011V24.5449H34.8711V25.5449Z" fill="#4A5056"/>
<path d="M40.6081 13.1665V4H10V47.9991H40.6081V36.0827" stroke="#4A5056" stroke-linecap="round" stroke-linejoin="round"/>
<path d="M27.6116 12.0531L10.3945 4V47.8448L27.6116 59.4771V12.0531Z" fill="white"/>
<path d="M27.217 12.0531L10 4V47.8448L27.217 59.4771V12.0531Z" stroke="#4A5056" stroke-linecap="round" stroke-linejoin="round"/>
</svg>
