<svg width="64" height="64" viewBox="0 0 64 64" fill="none" xmlns="http://www.w3.org/2000/svg">
<rect x="7.5" y="22.4961" width="49.493" height="37.0055" rx="3.5" stroke="#4A5056"/>
<path d="M7.5 25.5252C7.5 23.8523 8.85617 22.4961 10.5291 22.4961H53.493C55.426 22.4961 56.993 24.0631 56.993 25.9961V28.5543H10.5291C8.85616 28.5543 7.5 27.1981 7.5 25.5252Z" stroke="#4A5056"/>
<path d="M43.332 44.7965C43.332 42.0741 45.539 39.8672 48.2614 39.8672H56.9913V49.7259H48.2614C45.539 49.7259 43.332 47.5189 43.332 44.7965Z" stroke="#4A5056"/>
<circle cx="48.2576" cy="44.7967" r="2.71468" fill="#4A5056"/>
<path d="M40.7139 28.5518L14.128 28.5508L36.3385 4.7815L50.3367 17.7759L40.7139 28.5518Z" fill="white" stroke="#4A5056"/>
<path d="M37.4048 28.7803L45.9043 19.2801M35.1606 9.30681L36.3115 9.26401L37.8461 9.20694M35.1606 9.30681L37.8461 9.20694M35.1606 9.30681L17.3166 28.7803M37.8461 9.20694L46.0034 16.7793M46.0034 16.7793L45.9538 18.0297L45.9043 19.2801M46.0034 16.7793L45.9043 19.2801" stroke="#4A5056" stroke-width="0.5"/>
</svg>
