<svg width="64" height="64" viewBox="0 0 64 64" fill="none" xmlns="http://www.w3.org/2000/svg">
<rect width="64" height="64" fill="#F8F8F8"/>
<path d="M46.0997 47.3737L42.6465 18" stroke="#8FD6FF" stroke-width="3" stroke-linecap="round"/>
<path d="M40.1816 47.576V18" stroke="#8FD6FF" stroke-width="3" stroke-linecap="round"/>
<path d="M18.2041 25.0175L18.2125 26.3966C18.2223 28.0219 19.5661 29.3578 21.1922 29.359V29.359C22.7734 29.3602 24.0312 28.0965 24.0216 26.5161L23.9848 20.4694" stroke="#8FD6FF" stroke-width="3" stroke-linecap="round"/>
<path d="M21.6973 22.9277L21.6973 47.5744" stroke="#8FD6FF" stroke-width="3" stroke-linecap="round"/>
<path d="M31.5547 34.0195L31.5547 47.5752" stroke="#8FD6FF" stroke-width="3" stroke-linecap="round"/>
<path d="M36.4844 29.2602C36.4844 31.8887 34.3535 34.0195 31.725 34.0195L31.3851 34.0195C28.7566 34.0195 26.6257 31.8887 26.6257 29.2602L26.6257 29.0902C26.6257 26.3678 28.8327 24.1609 31.5551 24.1609C34.2774 24.1609 36.4844 26.3678 36.4844 29.0902L36.4844 29.2602Z" fill="#8FD6FF"/>
<path d="M45.0997 47.3737L41.6465 18" stroke="#3A3A3A" stroke-linecap="round"/>
<path d="M39.1816 47.576V18" stroke="#3A3A3A" stroke-linecap="round"/>
<path d="M17.2041 25.0175L17.2125 26.3966C17.2223 28.0219 18.5661 29.3578 20.1922 29.359V29.359C21.7734 29.3602 23.0312 28.0965 23.0216 26.5161L22.9848 20.4694" stroke="#3A3A3A" stroke-linecap="round"/>
<path d="M20.6973 22.9277L20.6973 47.5744" stroke="#3A3A3A" stroke-linecap="round"/>
<path d="M30.5547 34.0195L30.5547 47.5752" stroke="#3A3A3A" stroke-linecap="round"/>
<path d="M34.9844 29.2602C34.9844 31.6126 33.0774 33.5195 30.725 33.5195L30.3851 33.5195C28.0327 33.5195 26.1257 31.6126 26.1257 29.2602L26.1257 29.0902C26.1257 26.644 28.1088 24.6609 30.5551 24.6609C33.0013 24.6609 34.9844 26.644 34.9844 29.0902L34.9844 29.2602Z" stroke="#3A3A3A"/>
</svg>
