<svg width="64" height="64" viewBox="0 0 64 64" fill="none" xmlns="http://www.w3.org/2000/svg">
<path d="M45.9062 32.8115V28.1181M45.9062 28.1181V3C47.9189 3.64405 51.9926 9.56934 52.1858 28.1181H45.9062Z" stroke="#4A5056" stroke-linejoin="round"/>
<rect x="43.5078" y="32.9668" width="4.79648" height="26.5333" rx="2.39824" fill="white" stroke="#4A5056" stroke-linejoin="round"/>
<rect x="29.9219" y="32.9629" width="4.79648" height="26.5333" rx="2.39824" fill="white" stroke="#4A5056" stroke-linejoin="round"/>
<path d="M37.6177 19.6641C37.6177 21.9149 37.0173 23.9297 36.0729 25.3669C35.1257 26.8082 33.8742 27.6173 32.5628 27.6173C31.2514 27.6173 29.9998 26.8082 29.0527 25.3669C28.1083 23.9297 27.5078 21.9149 27.5078 19.6641C27.5078 17.4134 28.1083 15.3986 29.0527 13.9614C29.9998 12.5201 31.2514 11.7109 32.5628 11.7109C33.8742 11.7109 35.1257 12.5201 36.0729 13.9614C37.0173 15.3986 37.6177 17.4134 37.6177 19.6641Z" stroke="#4A5056" stroke-linejoin="round"/>
<path d="M32.3203 32.9473V27.8753" stroke="#4A5056" stroke-linejoin="round"/>
<rect x="13.9141" y="32.9629" width="4.79648" height="26.5333" rx="2.39824" fill="white" stroke="#4A5056" stroke-linejoin="round"/>
<path d="M16.3125 32.9473V12.6596" stroke="#4A5056" stroke-linejoin="round"/>
<path d="M11 11.2109V24.1173C11 26.3265 12.7909 28.1173 15 28.1173H18.1099C20.3191 28.1173 22.1099 26.3265 22.1099 24.1173V11.2109" stroke="#4A5056" stroke-linejoin="round"/>
</svg>
