<svg width="64" height="64" viewBox="0 0 64 64" fill="none" xmlns="http://www.w3.org/2000/svg">
<path fill-rule="evenodd" clip-rule="evenodd" d="M8.0239 24.7569C8.00804 24.4944 8 24.2297 8 23.9632C8 16.8038 13.8038 11 20.9632 11C25.679 11 29.8066 13.518 32.0749 17.2829C34.3432 13.518 38.4708 11 43.1865 11C50.3459 11 56.1497 16.8038 56.1497 23.9632C56.1497 24.2297 56.1417 24.4944 56.1258 24.7569H56.1464C56.1464 35.7617 38.8686 48.2951 32.0809 52.269C12.0877 40.5305 7.70643 29.0365 8.01497 24.7569H8.0239Z" fill="white"/>
<path d="M8.43058 24.7569V25.2569H8.96169L8.92967 24.7267L8.43058 24.7569ZM32.4816 17.2829L32.0533 17.5409L32.4816 18.2517L32.9098 17.5409L32.4816 17.2829ZM56.5325 24.7569L56.0334 24.7267L56.0014 25.2569H56.5325V24.7569ZM56.5525 24.7569H57.0525V24.2569H56.5525V24.7569ZM32.487 52.269L32.2339 52.7002L32.4867 52.8486L32.7396 52.7005L32.487 52.269ZM8.42111 24.7569V24.2569H7.95586L7.9224 24.7209L8.42111 24.7569ZM8.92967 24.7267C8.91442 24.4742 8.90668 24.2197 8.90668 23.9632H7.90668C7.90668 24.2398 7.91503 24.5145 7.93149 24.787L8.92967 24.7267ZM8.90668 23.9632C8.90668 17.08 14.4867 11.5 21.3699 11.5V10.5C13.9344 10.5 7.90668 16.5277 7.90668 23.9632H8.90668ZM21.3699 11.5C25.9032 11.5 29.8717 13.92 32.0533 17.5409L32.9098 17.0248C30.5548 13.1161 26.2681 10.5 21.3699 10.5V11.5ZM32.9098 17.5409C35.0914 13.92 39.06 11.5 43.5932 11.5V10.5C38.695 10.5 34.4083 13.1161 32.0533 17.0248L32.9098 17.5409ZM43.5932 11.5C50.4764 11.5 56.0564 17.08 56.0564 23.9632H57.0564C57.0564 16.5277 51.0287 10.5 43.5932 10.5V11.5ZM56.0564 23.9632C56.0564 24.2197 56.0487 24.4743 56.0334 24.7267L57.0316 24.787C57.0481 24.5145 57.0564 24.2398 57.0564 23.9632H56.0564ZM56.5325 25.2569H56.5525V24.2569H56.5325V25.2569ZM56.0525 24.7569C56.0525 27.3802 55.021 30.1345 53.3218 32.8761C51.6249 35.614 49.2836 38.3046 46.7173 40.7904C41.5837 45.7628 35.6012 49.8664 32.2344 51.8375L32.7396 52.7005C36.1605 50.6977 42.2107 46.5476 47.413 41.5087C50.0146 38.9888 52.417 36.2343 54.1718 33.4029C55.9244 30.5751 57.0525 27.636 57.0525 24.7569H56.0525ZM32.7402 51.8379C22.79 45.9959 16.7526 40.2309 13.2449 35.4213C9.72619 30.5965 8.77731 26.7695 8.91981 24.7928L7.9224 24.7209C7.75637 27.0239 8.84383 31.0837 12.4369 36.0105C16.041 40.9524 22.1908 46.8037 32.2339 52.7002L32.7402 51.8379ZM8.42111 25.2569H8.43058V24.2569H8.42111V25.2569Z" fill="#4A5056"/>
<path d="M3 35.0443H15.8461L18.9141 28.8978L23.6646 37.004L27.2274 24.2656L31.9779 40.4781L37.916 26.5817L42.6665 32.9064H60.4808" stroke="#4A5056" stroke-linecap="round"/>
</svg>
