<svg width="60" height="43" viewBox="0 0 60 43" fill="none" xmlns="http://www.w3.org/2000/svg">
<path fill-rule="evenodd" clip-rule="evenodd" d="M11.5874 14.7569C11.5715 14.4944 11.5635 14.2297 11.5635 13.9632C11.5635 6.80384 17.3673 1 24.5267 1C29.2424 1 33.37 3.51801 35.6384 7.28286C37.9067 3.51801 42.0343 1 46.75 1C53.9094 1 59.7132 6.80384 59.7132 13.9632C59.7132 14.2297 59.7052 14.4944 59.6893 14.7569H59.7099C59.7099 25.7617 42.432 38.2951 35.6444 42.269C15.6511 30.5305 11.2699 19.0365 11.5784 14.7569H11.5874Z" fill="#8FD6FF"/>
<path d="M6.42863 14.7569V15.2569H6.95974L6.92772 14.7267L6.42863 14.7569ZM30.4796 7.28286L30.0513 7.54089L30.4796 8.25172L30.9079 7.54089L30.4796 7.28286ZM54.5306 14.7569L54.0315 14.7267L53.9995 15.2569H54.5306V14.7569ZM54.5506 14.7569H55.0506V14.2569H54.5506V14.7569ZM30.4851 42.269L30.2319 42.7002L30.4847 42.8486L30.7377 42.7005L30.4851 42.269ZM6.41915 14.7569V14.2569H5.9539L5.92045 14.7209L6.41915 14.7569ZM6.92772 14.7267C6.91247 14.4742 6.90473 14.2197 6.90473 13.9632H5.90473C5.90473 14.2398 5.91308 14.5145 5.92954 14.787L6.92772 14.7267ZM6.90473 13.9632C6.90473 7.07998 12.4847 1.5 19.368 1.5V0.5C11.9324 0.5 5.90473 6.5277 5.90473 13.9632H6.90473ZM19.368 1.5C23.9012 1.5 27.8697 3.91995 30.0513 7.54089L30.9079 7.02482C28.5529 3.11607 24.2662 0.5 19.368 0.5V1.5ZM30.9079 7.54089C33.0895 3.91995 37.058 1.5 41.5912 1.5V0.5C36.693 0.5 32.4064 3.11607 30.0513 7.02482L30.9079 7.54089ZM41.5912 1.5C48.4745 1.5 54.0545 7.07998 54.0545 13.9632H55.0545C55.0545 6.5277 49.0268 0.5 41.5912 0.5V1.5ZM54.0545 13.9632C54.0545 14.2197 54.0467 14.4743 54.0315 14.7267L55.0297 14.787C55.0461 14.5145 55.0545 14.2398 55.0545 13.9632H54.0545ZM54.5306 15.2569H54.5506V14.2569H54.5306V15.2569ZM54.0506 14.7569C54.0506 17.3802 53.019 20.1345 51.3199 22.8761C49.623 25.614 47.2817 28.3046 44.7153 30.7904C39.5818 35.7628 33.5992 39.8664 30.2324 41.8375L30.7377 42.7005C34.1586 40.6977 40.2088 36.5476 45.4111 31.5087C48.0126 28.9888 50.415 26.2343 52.1698 23.4029C53.9224 20.5751 55.0506 17.636 55.0506 14.7569H54.0506ZM30.7382 41.8379C20.7881 35.9959 14.7506 30.2309 11.2429 25.4213C7.72424 20.5965 6.77535 16.7695 6.91786 14.7928L5.92045 14.7209C5.75441 17.0239 6.84188 21.0837 10.435 26.0105C14.0391 30.9524 20.1888 36.8037 30.2319 42.7002L30.7382 41.8379ZM6.41915 15.2569H6.42863V14.2569H6.41915V15.2569Z" fill="#3A3A3A"/>
<path d="M1 25.0443H13.8461L16.9141 18.8978L21.6646 27.004L25.2274 14.2656L29.9779 30.4781L35.916 16.5817L40.6665 22.9064H58.4808" stroke="#3A3A3A" stroke-linecap="round"/>
</svg>
