<svg width="64" height="64" viewBox="0 0 64 64" fill="none" xmlns="http://www.w3.org/2000/svg">
<rect width="64" height="64" fill="#F8F8F8"/>
<path fill-rule="evenodd" clip-rule="evenodd" d="M20.1822 29.3333C20.1715 29.1554 20.166 28.976 20.166 28.7954C20.166 23.9378 24.1039 20 28.9614 20C32.1608 20 34.9613 21.7083 36.5003 24.2625C38.0394 21.7083 40.8398 20 44.0393 20C48.8968 20 52.8347 23.9378 52.8347 28.7954C52.8347 28.976 52.8292 29.1554 52.8185 29.3333H52.8327C52.8327 36.8 41.1099 45.3037 36.5045 48C22.9394 40.0356 19.9668 32.237 20.1761 29.3333H20.1822Z" fill="#8FD6FF"/>
<path d="M16.6822 29.3333V29.8333H17.2133L17.1813 29.3032L16.6822 29.3333ZM33.0003 24.2625L32.5721 24.5206L33.0003 25.2313L33.4286 24.5206L33.0003 24.2625ZM49.3185 29.3333L48.8194 29.3032L48.7874 29.8333H49.3185V29.3333ZM49.3327 29.3333H49.8327V28.8333H49.3327V29.3333ZM33.0045 48L32.7514 48.4312L33.0042 48.5796L33.2571 48.4315L33.0045 48ZM16.6761 29.3333V28.8333H16.2108L16.1774 29.2974L16.6761 29.3333ZM17.1813 29.3032C17.1712 29.1353 17.166 28.966 17.166 28.7954H16.166C16.166 28.9861 16.1718 29.1755 16.1831 29.3634L17.1813 29.3032ZM17.166 28.7954C17.166 24.214 20.88 20.5 25.4614 20.5V19.5C20.3277 19.5 16.166 23.6617 16.166 28.7954H17.166ZM25.4614 20.5C28.4784 20.5 31.1197 22.1102 32.5721 24.5206L33.4286 24.0045C31.8028 21.3064 28.8433 19.5 25.4614 19.5V20.5ZM33.4286 24.5206C34.881 22.1102 37.5223 20.5 40.5393 20.5V19.5C37.1574 19.5 34.1978 21.3064 32.5721 24.0045L33.4286 24.5206ZM40.5393 20.5C45.1207 20.5 48.8347 24.214 48.8347 28.7954H49.8347C49.8347 23.6617 45.673 19.5 40.5393 19.5V20.5ZM48.8347 28.7954C48.8347 28.966 48.8295 29.1353 48.8194 29.3032L49.8176 29.3634C49.8289 29.1755 49.8347 28.9861 49.8347 28.7954H48.8347ZM49.3185 29.8333H49.3327V28.8333H49.3185V29.8333ZM48.8327 29.3333C48.8327 31.0721 48.1483 32.9112 47.004 34.7574C45.862 36.6001 44.2833 38.4153 42.5477 40.0964C39.0757 43.4594 35.0275 46.2362 32.7519 47.5685L33.2571 48.4315C35.5869 47.0675 39.7028 44.2443 43.2435 40.8147C45.0143 39.0995 46.6541 37.2203 47.854 35.2842C49.0517 33.3518 49.8327 31.3279 49.8327 29.3333H48.8327ZM33.2577 47.5688C26.5216 43.6139 22.4433 39.7163 20.0789 36.4743C17.7034 33.2171 17.0819 30.658 17.1748 29.3693L16.1774 29.2974C16.061 30.9124 16.8211 33.7043 19.2709 37.0635C21.7317 40.4378 25.9223 44.4217 32.7514 48.4312L33.2577 47.5688ZM16.6761 29.8333H16.6822V28.8333H16.6761V29.8333Z" fill="#3A3A3A"/>
<path d="M13 36.3132H21.7159L23.7975 32.1429L27.0207 37.6429L29.438 29L32.6612 40L36.6901 30.5714L39.9132 34.8626H52" stroke="#3A3A3A" stroke-linecap="round"/>
</svg>
