<svg width="64" height="64" viewBox="0 0 64 64" fill="none" xmlns="http://www.w3.org/2000/svg">
<rect width="64" height="64" fill="#F8F8F8"/>
<path d="M45.3873 24.5068C44.3725 23.0357 43.0778 21.7789 41.5772 20.8081C40.0766 19.8374 38.3995 19.1717 36.6417 18.8491C34.8838 18.5265 33.0796 18.5533 31.3321 18.928C29.5846 19.3026 27.9281 20.0178 26.457 21.0327C24.9859 22.0476 23.7291 23.3423 22.7583 24.8429C21.7876 26.3434 21.1219 28.0205 20.7993 29.7784C20.4767 31.5362 20.5035 33.3404 20.8782 35.0879C21.2528 36.8354 21.968 38.492 22.9829 39.9631L34.1851 32.2349L45.3873 24.5068Z" fill="#8FD6FF"/>
<path d="M24.2104 20.5712C22.4116 23.753 23.025 29.0164 26.0368 33.7835" stroke="#3A3A3A" stroke-linecap="round"/>
<path d="M24.4178 20.9551C27.7456 20.8665 32.4911 23.0018 35.305 27.0796" stroke="#3A3A3A" stroke-linecap="round"/>
<mask id="path-4-inside-1_209_44322" fill="white">
<path d="M41.7467 24.1142C40.7318 22.6431 39.4372 21.3863 37.9366 20.4156C36.436 19.4448 34.7589 18.7791 33.001 18.4565C31.2432 18.1339 29.439 18.1607 27.6915 18.5354C25.944 18.9101 24.2874 19.6252 22.8163 20.6401C21.3452 21.655 20.0884 22.9497 19.1177 24.4503C18.147 25.9509 17.4813 27.628 17.1587 29.3858C16.8361 31.1437 16.8629 32.9478 17.2375 34.6953C17.6122 36.4428 18.3274 38.0994 19.3423 39.5705L30.5445 31.8423L41.7467 24.1142Z"/>
</mask>
<path d="M41.7467 24.1142C40.7318 22.6431 39.4372 21.3863 37.9366 20.4156C36.436 19.4448 34.7589 18.7791 33.001 18.4565C31.2432 18.1339 29.439 18.1607 27.6915 18.5354C25.944 18.9101 24.2874 19.6252 22.8163 20.6401C21.3452 21.655 20.0884 22.9497 19.1177 24.4503C18.147 25.9509 17.4813 27.628 17.1587 29.3858C16.8361 31.1437 16.8629 32.9478 17.2375 34.6953C17.6122 36.4428 18.3274 38.0994 19.3423 39.5705L30.5445 31.8423L41.7467 24.1142Z" stroke="#3A3A3A" stroke-width="2" mask="url(#path-4-inside-1_209_44322)"/>
<path d="M17.168 51.9979C23.4982 46.5998 40.4994 36.6869 57.8623 40.2202" stroke="#3A3A3A" stroke-linecap="round"/>
<path d="M21.8066 18.2305L40.0689 45.4492" stroke="#3A3A3A" stroke-linecap="round"/>
</svg>
