<svg width="65" height="54" viewBox="0 0 65 54" fill="none" xmlns="http://www.w3.org/2000/svg">
<path d="M45.2262 12.5374C43.7305 10.3692 41.8223 8.5168 39.6106 7.08606C37.3989 5.65532 34.9271 4.67421 32.3363 4.19874C29.7455 3.72327 27.0863 3.76277 24.5108 4.31496C21.9352 4.86716 19.4936 5.92124 17.3254 7.41703C15.1572 8.91282 13.3049 10.821 11.8741 13.0327C10.4434 15.2444 9.46227 17.7162 8.98681 20.307C8.51134 22.8978 8.55083 25.5569 9.10303 28.1325C9.65523 30.7081 10.7093 33.1497 12.2051 35.3179L28.7157 23.9276L45.2262 12.5374Z" fill="#8FD6FF"/>
<path d="M14.0145 6.73781C11.3632 11.4274 12.2673 19.1849 16.7063 26.2109" stroke="#3A3A3A" stroke-linecap="round"/>
<path d="M14.3219 7.30146C19.2267 7.17083 26.2208 10.318 30.3683 16.3281" stroke="#3A3A3A" stroke-linecap="round"/>
<mask id="path-4-inside-1_270_74579" fill="white">
<path d="M39.86 11.9592C38.3642 9.79103 36.456 7.93867 34.2444 6.50793C32.0327 5.07719 29.5609 4.09608 26.9701 3.62061C24.3792 3.14515 21.7201 3.18464 19.1446 3.73684C16.569 4.28903 14.1274 5.34312 11.9592 6.83891C9.79101 8.3347 7.93866 10.2429 6.50791 12.4546C5.07717 14.6662 4.09606 17.138 3.6206 19.7289C3.14513 22.3197 3.18462 24.9788 3.73682 27.5544C4.28901 30.13 5.3431 32.5715 6.83889 34.7397L23.3495 23.3495L39.86 11.9592Z"/>
</mask>
<path d="M39.86 11.9592C38.3642 9.79103 36.456 7.93867 34.2444 6.50793C32.0327 5.07719 29.5609 4.09608 26.9701 3.62061C24.3792 3.14515 21.7201 3.18464 19.1446 3.73684C16.569 4.28903 14.1274 5.34312 11.9592 6.83891C9.79101 8.3347 7.93866 10.2429 6.50791 12.4546C5.07717 14.6662 4.09606 17.138 3.6206 19.7289C3.14513 22.3197 3.18462 24.9788 3.73682 27.5544C4.28901 30.13 5.3431 32.5715 6.83889 34.7397L23.3495 23.3495L39.86 11.9592Z" stroke="#3A3A3A" stroke-width="2" mask="url(#path-4-inside-1_270_74579)"/>
<path d="M3.6377 53.0563C12.9676 45.1002 38.025 30.49 63.6156 35.6976" stroke="#3A3A3A" stroke-linecap="round"/>
<path d="M10.4736 3.28516L37.3898 43.4018" stroke="#3A3A3A" stroke-linecap="round"/>
</svg>
