<svg width="64" height="64" viewBox="0 0 64 64" fill="none" xmlns="http://www.w3.org/2000/svg">
<path d="M24.5933 28.1134L14.9961 13.7175L16.4357 12.7578L17.8753 13.2377H18.835H20.2746L22.194 14.1974L24.1135 15.1571L25.5531 16.1168L26.9926 17.0766L28.9121 18.5162L30.3517 19.9557L31.7913 21.3953L32.2711 22.3551L24.5933 28.1134Z" fill="white"/>
<path d="M7.79957 35.7911L9.71902 38.6702L17.8767 32.9119L16.4371 30.9924L15.9572 29.5529L14.9975 28.1133L14.5176 26.6737L14.0378 24.7542L13.5579 23.3146L13.0781 21.3952V19.4758L13.5579 17.0764V15.6369L14.5176 14.1973L13.0781 14.6771L11.6385 16.1167L10.1989 18.0362L8.75929 19.9556L7.79957 22.3549L6.83984 24.7542V27.1535V30.9924L7.79957 35.7911Z" fill="white"/>
<path d="M14.9941 13.2377C11.6342 18.0359 13.2949 25.9444 17.3945 32.4333" stroke="#4A5056" stroke-linecap="round"/>
<path d="M15.6024 13.2878C20.7543 11.7981 28.4325 16.5994 32.2718 22.3568" stroke="#4A5056" stroke-linecap="round"/>
<mask id="path-5-inside-1_810_23880" fill="white">
<path d="M39.8125 18.0449C38.4311 16.0425 36.6688 14.3317 34.6262 13.0104C32.5836 11.689 30.3008 10.7829 27.908 10.3438C25.5153 9.90469 23.0595 9.94117 20.6808 10.4511C18.3021 10.9611 16.0472 11.9346 14.0448 13.3161C12.0424 14.6975 10.3316 16.4598 9.01027 18.5024C7.68891 20.545 6.78281 22.8278 6.34369 25.2205C5.90458 27.6133 5.94105 30.0691 6.45103 32.4478C6.96101 34.8264 7.9345 37.0814 9.31594 39.0838L24.5642 28.5643L39.8125 18.0449Z"/>
</mask>
<path d="M39.8125 18.0449C38.4311 16.0425 36.6688 14.3317 34.6262 13.0104C32.5836 11.689 30.3008 10.7829 27.908 10.3438C25.5153 9.90469 23.0595 9.94117 20.6808 10.4511C18.3021 10.9611 16.0472 11.9346 14.0448 13.3161C12.0424 14.6975 10.3316 16.4598 9.01027 18.5024C7.68891 20.545 6.78281 22.8278 6.34369 25.2205C5.90458 27.6133 5.94105 30.0691 6.45103 32.4478C6.96101 34.8264 7.9345 37.0814 9.31594 39.0838L24.5642 28.5643L39.8125 18.0449Z" stroke="#4A5056" stroke-width="2" mask="url(#path-5-inside-1_810_23880)"/>
<path d="M6.35938 55.9989C14.976 48.6511 38.1177 35.1578 61.7518 39.9673" stroke="#4A5056" stroke-linecap="round"/>
<path d="M12.6719 10.0352L37.5302 47.0848" stroke="#4A5056" stroke-linecap="round"/>
</svg>
