<svg width="64" height="64" viewBox="0 0 64 64" fill="none" xmlns="http://www.w3.org/2000/svg">
<path d="M32.7253 42.9047C25.9934 42.9047 14.701 27.6702 32.7253 15C39.7935 19.7765 47.4585 37.5384 32.7253 42.9047Z" fill="white"/>
<path d="M32 42.5C40 40.5 54.5 36 53.004 23.1072C36.5004 25.5006 35.2654 34.8406 32 42.5Z" fill="white"/>
<path d="M31.4648 42.3965C23.4648 40.3965 8.96484 35.8965 10.4608 23.0037C26.9644 25.3971 28.1995 34.7371 31.4648 42.3965Z" fill="white"/>
<path d="M6 34.5L5 32.5L6.3125 33H8.5L10.5 33.5L12.5 34L15 35L16.5 36.5L20 38.5L22.5 40L25.5 41L29.5 42L32 42.5L30 43.5L28.5 44H26.5H24.5H23L21 43.5H20L18.5 43L16.5 42.5L15 42L13.5 41L12 40L10.5 39L8.5 37.5L7.5 36L6 34.5Z" fill="white"/>
<path d="M58 34L59 32.5H57.6875H55.5L53.5 33L51.5 33.5L49 34.5L47.5 36L44 38L41.5 39.5L38.5 40.5L34.5 41.5L32 42L33.5 43L35.5 43.5L37.5 44H40H41.5L43.5 43.5H45L46.5 43L47.5 42.5L49 41.5L50.5 41L52.5 39.5L53.5 39L55.5 37L56.5 35.5L58 34Z" fill="white"/>
<path d="M32.4429 41.9603C23.5136 39.0717 16.5364 27.2414 32.7069 15C38.9212 19.8143 48.2578 34.5 32.4429 41.9603Z" stroke="#4A5056"/>
<path d="M31.9716 42.2623C21.3798 41.2994 8.73041 33.9875 10.9098 23.0938C11.8118 23.2738 20.0963 24.0574 23.033 28.1315" stroke="#4A5056"/>
<path d="M31.9687 42.4481C28.7263 45.038 13.1679 46.5231 4.78517 32.4462C7 32.5 12.5 33.5 15 35" stroke="#4A5056"/>
<path d="M31.8956 42.2623C42.4874 41.2994 55.1368 33.9875 52.9573 23.0938C52.0554 23.2738 43.7708 24.0574 40.8342 28.1315" stroke="#4A5056"/>
<path d="M31.8985 42.4481C35.1409 45.038 50.6992 46.5231 59.082 32.4462C56.8672 32.5 51.3672 33.5 48.8672 35" stroke="#4A5056"/>
</svg>
