<svg width="64" height="64" viewBox="0 0 64 64" fill="none" xmlns="http://www.w3.org/2000/svg">
<rect width="64" height="64" fill="#F8F8F8"/>
<path fill-rule="evenodd" clip-rule="evenodd" d="M33.1377 37.4889C33.1196 37.4883 33.1014 37.4874 33.0832 37.4864L33.0695 37.4904L33.0716 37.4857C33.0545 37.4846 33.0373 37.4834 33.02 37.4819C33.0234 37.4901 33.0267 37.4982 33.0298 37.5062C32.8673 37.569 32.657 37.6275 32.4049 37.6773C32.4105 37.697 32.4161 37.7155 32.4217 37.7328L32.2989 37.6973C29.8369 38.1401 23.7991 37.7744 19.1367 33.0321C20.5926 32.7676 22.1113 32.7858 23.5881 32.9908C22.0826 31.2289 22.0452 29.5784 22.4573 28.6165C24.9711 28.7893 26.8246 29.4375 28.1988 30.3173C28.4049 28.0028 29.7902 25.4119 33.2213 23C35.0649 24.2459 36.9867 27.193 37.4735 30.1711C38.7203 29.4008 40.4297 28.8427 42.8492 28.6343C42.8492 30.6439 42.2878 32.1495 41.4031 33.3022C42.6385 33.3285 43.9975 33.494 45.4919 33.8385C41.3823 39.1442 35.869 38.5081 33.1377 37.4889Z" fill="#8FD6FF"/>
<path d="M31.6359 37C26.9991 35.5 23.376 29.3568 31.773 23C35 25.5 39.9995 33 31.6359 37Z" stroke="#3A3A3A"/>
<path d="M32.3047 37.0103C36.3926 36.3043 43.1367 34.5 43.1367 28.0013C42.6367 28.0011 38.1367 27.4999 36.1367 29.4998" stroke="#3A3A3A"/>
<path d="M31.637 37.0001C26.1369 36.5 19.5683 32.7031 20.7 27.0462C21.1684 27.1397 25.4704 27.5466 26.9953 29.6622" stroke="#3A3A3A"/>
<path d="M32.1357 37C30.587 37.9417 22.2114 38.519 17.6852 31.8802C18.7467 31.8559 19.9924 31.834 21.6357 31.8802" stroke="#3A3A3A"/>
<path d="M32.1367 37C33.8204 38.3449 41.8996 39.1161 46.2526 31.8062C45.1362 31.6279 44.2195 31.5972 42.4961 31.4214" stroke="#3A3A3A"/>
</svg>
