<svg width="64" height="64" viewBox="0 0 64 64" fill="none" xmlns="http://www.w3.org/2000/svg">
<circle cx="17.0727" cy="32.0727" r="13.5727" fill="white" stroke="#4A5056"/>
<path d="M15.9102 24.3496V33.555H18.238" stroke="#4A5056" stroke-linecap="round" stroke-linejoin="round"/>
<path d="M25.0072 28.1598C25.0072 26.8742 23.965 25.832 22.6794 25.832C21.3938 25.832 20.3516 26.8742 20.3516 28.1598" stroke="#4A5056" stroke-linecap="round"/>
<path d="M13.5814 28.1598C13.5814 26.8742 12.5392 25.832 11.2536 25.832C9.96798 25.832 8.92578 26.8742 8.92578 28.1598" stroke="#4A5056" stroke-linecap="round"/>
<path d="M11.2522 36.4093C11.2522 39.5649 13.8104 42.123 16.966 42.123C20.1216 42.123 22.6797 39.5649 22.6797 36.4093" stroke="#4A5056" stroke-linecap="round"/>
<circle cx="46.9281" cy="32.0727" r="13.5727" fill="white" stroke="#4A5056"/>
<path d="M45.7656 24.3496V33.555H48.0934" stroke="#4A5056" stroke-linecap="round" stroke-linejoin="round"/>
<path d="M38.7819 25.8304C38.7819 27.116 39.8241 28.1582 41.1097 28.1582C42.3953 28.1582 43.4375 27.116 43.4375 25.8304" stroke="#4A5056" stroke-linecap="round"/>
<path d="M50.2077 25.8304C50.2077 27.116 51.2499 28.1582 52.5355 28.1582C53.8211 28.1582 54.8633 27.116 54.8633 25.8304" stroke="#4A5056" stroke-linecap="round"/>
<path d="M52.5368 42.1239C52.5368 38.9683 49.9787 36.4102 46.8231 36.4102C43.6675 36.4102 41.1094 38.9683 41.1094 42.1239" stroke="#4A5056" stroke-linecap="round"/>
</svg>
