<svg width="70" height="54" viewBox="0 0 70 54" fill="none" xmlns="http://www.w3.org/2000/svg">
<path fill-rule="evenodd" clip-rule="evenodd" d="M32.4394 4.44531C32.4394 4.16917 32.6633 3.94531 32.9394 3.94531H69.2773C69.5535 3.94531 69.7773 4.16917 69.7773 4.44531V22.2458V29.4503V35.4967C69.7773 35.936 69.2514 36.1618 68.9329 35.8591L62.3342 29.5878C62.2413 29.4995 62.118 29.4503 61.9898 29.4503H32.9394C32.6633 29.4503 32.4394 29.2264 32.4394 28.9503V4.44531Z" fill="#8FD6FF"/>
<path d="M65.0032 32.9138L65.3477 32.5514L65.0032 32.9138ZM58.4045 26.6425L58.0601 27.005L58.4045 26.6425ZM65.3477 1.5H29.0097V0.5H65.3477V1.5ZM65.3477 19.3005V1.5H66.3477V19.3005H65.3477ZM65.3477 26.505V19.3005H66.3477V26.505H65.3477ZM65.3477 32.5514V26.505H66.3477V32.5514H65.3477ZM58.749 26.2801L65.3477 32.5514L64.6588 33.2762L58.0601 27.005L58.749 26.2801ZM29.0097 26.005H58.0601V27.005H29.0097V26.005ZM29.0097 1.5V26.005H28.0097V1.5H29.0097ZM66.3477 32.5514C66.3477 33.43 65.2957 33.8815 64.6588 33.2762L65.3477 32.5514H65.3477H66.3477ZM29.0097 27.005C28.4574 27.005 28.0097 26.5572 28.0097 26.005H29.0097V27.005ZM29.0097 1.5H28.0097C28.0097 0.947716 28.4574 0.5 29.0097 0.5V1.5ZM58.0601 27.005V26.005C58.3165 26.005 58.5631 26.1035 58.749 26.2801L58.0601 27.005ZM65.3477 0.5C65.8999 0.5 66.3477 0.947716 66.3477 1.5H65.3477L65.3477 1.5V0.5Z" fill="#3A3A3A"/>
<path d="M65.0032 32.9138L65.3477 32.5514L65.0032 32.9138ZM58.4045 26.6425L58.0601 27.005L58.4045 26.6425ZM65.3477 1.5H29.0097V0.5H65.3477V1.5ZM65.3477 19.3005V1.5H66.3477V19.3005H65.3477ZM65.3477 26.505V19.3005H66.3477V26.505H65.3477ZM65.3477 32.5514V26.505H66.3477V32.5514H65.3477ZM58.749 26.2801L65.3477 32.5514L64.6588 33.2762L58.0601 27.005L58.749 26.2801ZM29.0097 26.005H58.0601V27.005H29.0097V26.005ZM29.0097 1.5V26.005H28.0097V1.5H29.0097ZM66.3477 32.5514C66.3477 33.43 65.2957 33.8815 64.6588 33.2762L65.3477 32.5514H65.3477H66.3477ZM29.0097 27.005C28.4574 27.005 28.0097 26.5572 28.0097 26.005H29.0097V27.005ZM29.0097 1.5H28.0097C28.0097 0.947716 28.4574 0.5 29.0097 0.5V1.5ZM58.0601 27.005V26.005C58.3165 26.005 58.5631 26.1035 58.749 26.2801L58.0601 27.005ZM65.3477 0.5C65.8999 0.5 66.3477 0.947716 66.3477 1.5H65.3477L65.3477 1.5V0.5Z" fill="#3A3A3A"/>
<circle cx="46.1966" cy="12.7884" r="7.48562" stroke="#3A3A3A" stroke-width="0.75"/>
<path d="M48.1602 15.4167C47.1776 16.3993 44.6229 17.7749 42.2647 15.4167" stroke="#3A3A3A" stroke-width="0.5" stroke-linecap="round"/>
<ellipse rx="0.982576" ry="0.982577" transform="matrix(1 0 0 -1 42.2658 11.8084)" fill="#3A3A3A"/>
<ellipse rx="0.982576" ry="0.982577" transform="matrix(1 0 0 -1 48.1613 11.8084)" fill="#3A3A3A"/>
<rect x="22.124" y="18.6875" width="13.2648" height="17.6864" fill="#F8F8F8"/>
<path fill-rule="evenodd" clip-rule="evenodd" d="M40.7907 22.1348C40.7907 21.8586 40.5668 21.6348 40.2907 21.6348H6.41211C6.13597 21.6348 5.91211 21.8586 5.91211 22.1348V39.9353V47.1397V53.1291C5.91211 53.5767 6.45498 53.7988 6.7687 53.4796L12.8533 47.2892C12.9473 47.1936 13.0757 47.1397 13.2098 47.1397H40.2907C40.5668 47.1397 40.7907 46.9159 40.7907 46.6397V22.1348Z" fill="#8FD6FF"/>
<path d="M1.85659 50.5343L2.21318 50.8848L1.85659 50.5343ZM7.94115 44.3439L8.29774 44.6944L7.94115 44.3439ZM1.5 19.1895H35.3786V18.1895H1.5V19.1895ZM1.5 36.9899V19.1895H0.5V36.9899H1.5ZM1.5 44.1944V36.9899H0.5V44.1944H1.5ZM1.5 50.1838V44.1944H0.5V50.1838H1.5ZM7.58456 43.9934L1.5 50.1838L2.21318 50.8848L8.29774 44.6944L7.58456 43.9934ZM35.3786 43.6944H8.29774V44.6944H35.3786V43.6944ZM35.3786 19.1895V43.6944H36.3786V19.1895H35.3786ZM0.5 50.1838C0.5 51.0789 1.58575 51.5231 2.21318 50.8848L1.5 50.1838H1.5H0.5ZM35.3786 44.6944C35.9309 44.6944 36.3786 44.2467 36.3786 43.6944H35.3786V44.6944ZM35.3786 19.1895H36.3786C36.3786 18.6372 35.9309 18.1895 35.3786 18.1895V19.1895ZM8.29774 44.6944V43.6944C8.02953 43.6944 7.77257 43.8022 7.58456 43.9934L8.29774 44.6944ZM1.5 18.1895C0.947715 18.1895 0.5 18.6372 0.5 19.1895H1.5V19.1895V18.1895Z" fill="#3A3A3A"/>
<circle cx="18.6848" cy="30.4758" r="7.48561" stroke="#3A3A3A" stroke-width="0.75"/>
<path d="M16.7197 33.7474C17.7023 32.7648 20.257 31.3892 22.6152 33.7474" stroke="#3A3A3A" stroke-width="0.5" stroke-linecap="round"/>
<ellipse rx="0.982577" ry="0.982576" transform="matrix(1 0 0 -1 16.7619 29.4959)" fill="#3A3A3A"/>
<ellipse rx="0.982577" ry="0.982576" transform="matrix(1 0 0 -1 22.6584 29.4959)" fill="#3A3A3A"/>
</svg>
