<svg width="64" height="64" viewBox="0 0 64 64" fill="none" xmlns="http://www.w3.org/2000/svg">
<rect width="64" height="64" fill="#F8F8F8"/>
<path fill-rule="evenodd" clip-rule="evenodd" d="M31.9987 18.5C31.9987 18.2239 32.2226 18 32.4987 18H56.832C57.1082 18 57.332 18.2239 57.332 18.5V30.4167V35.3048V39.0327C57.332 39.4721 56.806 39.6978 56.4876 39.3951L52.3284 35.4424C52.2355 35.3541 52.1122 35.3048 51.984 35.3048H32.4987C32.2226 35.3048 31.9987 35.081 31.9987 34.8048V18.5Z" fill="#8FD6FF"/>
<path d="M53.8216 37.3951L54.166 37.0327L53.8216 37.3951ZM49.6624 33.4424L49.318 33.8048L49.6624 33.4424ZM54.166 16.5H29.8327V15.5H54.166V16.5ZM54.166 28.4167V16.5H55.166V28.4167H54.166ZM54.166 33.3048V28.4167H55.166V33.3048H54.166ZM54.166 37.0327V33.3048H55.166V37.0327H54.166ZM50.0069 33.0799L54.166 37.0327L53.4771 37.7576L49.318 33.8048L50.0069 33.0799ZM29.8327 32.8048H49.318V33.8048H29.8327V32.8048ZM29.8327 16.5V32.8048H28.8327V16.5H29.8327ZM55.166 37.0327C55.166 37.9114 54.1141 38.3629 53.4771 37.7576L54.166 37.0327H54.166H55.166ZM29.8327 33.8048C29.2804 33.8048 28.8327 33.3571 28.8327 32.8048H29.8327V33.8048ZM29.8327 16.5H29.8327H28.8327C28.8327 15.9477 29.2804 15.5 29.8327 15.5V16.5ZM49.318 33.8048H49.318V32.8048C49.5744 32.8048 49.821 32.9033 50.0069 33.0799L49.318 33.8048ZM54.166 15.5C54.7183 15.5 55.166 15.9477 55.166 16.5H54.166V16.5V15.5Z" fill="#3A3A3A"/>
<path d="M53.8216 37.3951L54.166 37.0327L53.8216 37.3951ZM49.6624 33.4424L49.318 33.8048L49.6624 33.4424ZM54.166 16.5H29.8327V15.5H54.166V16.5ZM54.166 28.4167V16.5H55.166V28.4167H54.166ZM54.166 33.3048V28.4167H55.166V33.3048H54.166ZM54.166 37.0327V33.3048H55.166V37.0327H54.166ZM50.0069 33.0799L54.166 37.0327L53.4771 37.7576L49.318 33.8048L50.0069 33.0799ZM29.8327 32.8048H49.318V33.8048H29.8327V32.8048ZM29.8327 16.5V32.8048H28.8327V16.5H29.8327ZM55.166 37.0327C55.166 37.9114 54.1141 38.3629 53.4771 37.7576L54.166 37.0327H54.166H55.166ZM29.8327 33.8048C29.2804 33.8048 28.8327 33.3571 28.8327 32.8048H29.8327V33.8048ZM29.8327 16.5H29.8327H28.8327C28.8327 15.9477 29.2804 15.5 29.8327 15.5V16.5ZM49.318 33.8048H49.318V32.8048C49.5744 32.8048 49.821 32.9033 50.0069 33.0799L49.318 33.8048ZM54.166 15.5C54.7183 15.5 55.166 15.9477 55.166 16.5H54.166V16.5V15.5Z" fill="#3A3A3A"/>
<circle cx="41.3333" cy="23.9993" r="4.95833" stroke="#3A3A3A" stroke-width="0.75"/>
<path d="M42.666 25.7826C41.9993 26.4492 40.266 27.3826 38.666 25.7826" stroke="#3A3A3A" stroke-width="0.5" stroke-linecap="round"/>
<ellipse rx="0.666666" ry="0.666667" transform="matrix(1 0 0 -1 38.6667 23.3333)" fill="#3A3A3A"/>
<ellipse rx="0.666666" ry="0.666667" transform="matrix(1 0 0 -1 42.6667 23.3333)" fill="#3A3A3A"/>
<rect x="25" y="28" width="9" height="12" fill="#F8F8F8"/>
<path fill-rule="evenodd" clip-rule="evenodd" d="M37.6647 30.5C37.6647 30.2239 37.4408 30 37.1647 30H14.5C14.2239 30 14 30.2239 14 30.5V42.4167V47.3048V50.9757C14 51.4232 14.5429 51.6454 14.8566 51.3262L18.6623 47.4543C18.7563 47.3587 18.8848 47.3048 19.0189 47.3048H37.1647C37.4408 47.3048 37.6647 47.081 37.6647 46.8048V30.5Z" fill="#8FD6FF"/>
<path d="M11.5246 49.3262L11.168 48.9757L11.5246 49.3262ZM15.3302 45.4543L15.6868 45.8048L15.3302 45.4543ZM11.168 28.5H33.8327V27.5H11.168V28.5ZM11.168 40.4167V28.5H10.168V40.4167H11.168ZM11.168 45.3048V40.4167H10.168V45.3048H11.168ZM11.168 48.9757V45.3048H10.168V48.9757H11.168ZM14.9737 45.1038L11.168 48.9757L11.8811 49.6767L15.6868 45.8048L14.9737 45.1038ZM33.8327 44.8048H15.6868V45.8048H33.8327V44.8048ZM33.8327 28.5V44.8048H34.8327V28.5H33.8327ZM10.168 48.9757C10.168 49.8708 11.2537 50.315 11.8811 49.6767L11.168 48.9757L11.168 48.9757H10.168ZM33.8327 45.8048C34.3849 45.8048 34.8327 45.3571 34.8327 44.8048H33.8327V45.8048ZM33.8327 28.5H34.8327C34.8327 27.9477 34.3849 27.5 33.8327 27.5V28.5ZM15.6868 45.8048V44.8048C15.4186 44.8048 15.1617 44.9125 14.9737 45.1038L15.6868 45.8048ZM11.168 27.5C10.6157 27.5 10.168 27.9477 10.168 28.5H11.168V28.5V27.5Z" fill="#3A3A3A"/>
<circle cx="22.6673" cy="35.9993" r="4.95833" stroke="#3A3A3A" stroke-width="0.75"/>
<path d="M21 37.8834C21.6667 37.2168 23.4 36.2834 25 37.8834" stroke="#3A3A3A" stroke-width="0.5" stroke-linecap="round"/>
<ellipse rx="0.666667" ry="0.666666" transform="matrix(1 0 0 -1 21.362 35.3333)" fill="#3A3A3A"/>
<ellipse rx="0.666667" ry="0.666666" transform="matrix(1 0 0 -1 25.362 35.3333)" fill="#3A3A3A"/>
</svg>
