<svg width="64" height="64" viewBox="0 0 64 64" fill="none" xmlns="http://www.w3.org/2000/svg">
<path d="M7.05977 7.00586C24.1836 7.50586 29.0483 18.4666 31.6854 31.5052C24.1834 29.0053 8.68335 22.0053 7.05977 7.00586Z" fill="white"/>
<path d="M34.1872 40.0793C37.1875 27.5059 42.5189 15.3979 55.6862 13.5057C55.6862 23.5059 51.0371 41.8082 34.1872 40.0793Z" fill="white"/>
<path d="M15.2891 57.418L51.5856 57.418" stroke="#4A5056" stroke-linecap="round"/>
<path d="M34.4408 57.4171C31.7521 43.3018 35.4485 17.0876 55.6132 13.0547" stroke="#4A5056" stroke-linecap="round"/>
<path d="M33.4368 57.4176C33.7729 38.5972 33.4368 7.00586 7.22266 7.00586" stroke="#4A5056" stroke-linecap="round"/>
<path d="M34.6875 40.5059C48.6875 40.0059 54.8104 29.993 55.617 13.0547" stroke="#4A5056" stroke-linecap="round"/>
<path d="M7.29847 7.00586C5.18744 9.00586 12.3257 26.6663 31.6838 31.5059" stroke="#4A5056" stroke-linecap="round"/>
</svg>
