<svg width="64" height="64" viewBox="0 0 64 64" fill="none" xmlns="http://www.w3.org/2000/svg">
<rect width="64" height="64" fill="#F8F8F8"/>
<path d="M16.4309 19.0008C19.9045 19.6592 27.1789 22.5925 28.4866 29.0586C24.3091 29.2024 16.0495 27.3922 16.4309 19.0008Z" fill="#8FD6FF"/>
<path d="M32.9995 34.4347C33.8542 31.004 37.1959 23.9081 43.7258 22.9697C43.6321 27.1486 41.3557 35.2921 32.9995 34.4347Z" fill="#8FD6FF"/>
<path d="M22 44L40 44" stroke="#3A3A3A" stroke-linecap="round"/>
<path d="M31.4985 44C30.1651 37 31.9982 24 41.9982 22" stroke="#3A3A3A" stroke-linecap="round"/>
<path d="M31 44C31.1667 34.6667 31 19 18 19" stroke="#3A3A3A" stroke-linecap="round"/>
<path d="M32.998 34.5C35.8314 33.8333 41.598 30.4 41.998 22" stroke="#3A3A3A" stroke-linecap="round"/>
<path d="M18.0377 19C17.7044 21.3333 19.4377 26.6 29.0377 29" stroke="#3A3A3A" stroke-linecap="round"/>
</svg>
