<svg width="64" height="64" viewBox="0 0 64 64" fill="none" xmlns="http://www.w3.org/2000/svg">
<mask id="path-1-inside-1_811_24066" fill="white">
<path fill-rule="evenodd" clip-rule="evenodd" d="M42.5677 52.5188C43.2692 52.055 42.841 50.9998 42 50.9998C30.402 50.9998 21 41.8217 21 30.4998C21 24.9997 23.2188 20.0056 26.8304 16.3238C27.5346 15.6058 27.0004 14.3425 26.0231 14.5801C16.8273 16.8153 10 25.1041 10 34.9875C10 46.586 19.4024 55.9884 31.0009 55.9884C35.2749 55.9884 39.2507 54.7117 42.5677 52.5188Z"/>
</mask>
<path fill-rule="evenodd" clip-rule="evenodd" d="M42.5677 52.5188C43.2692 52.055 42.841 50.9998 42 50.9998C30.402 50.9998 21 41.8217 21 30.4998C21 24.9997 23.2188 20.0056 26.8304 16.3238C27.5346 15.6058 27.0004 14.3425 26.0231 14.5801C16.8273 16.8153 10 25.1041 10 34.9875C10 46.586 19.4024 55.9884 31.0009 55.9884C35.2749 55.9884 39.2507 54.7117 42.5677 52.5188Z" fill="white"/>
<path d="M26.8304 16.3238L27.5442 17.024L26.8304 16.3238ZM26.0231 14.5801L25.7869 13.6084L26.0231 14.5801ZM42.5677 52.5188L43.1191 53.3529L42.5677 52.5188ZM42 49.9998C30.9314 49.9998 22 41.2468 22 30.4998H20C20 42.3965 29.8726 51.9998 42 51.9998V49.9998ZM22 30.4998C22 25.2754 24.1063 20.5289 27.5442 17.024L26.1165 15.6235C22.3314 19.4822 20 24.7241 20 30.4998H22ZM11 34.9875C11 25.576 17.5014 17.6806 26.2593 15.5518L25.7869 13.6084C16.1533 15.95 9 24.6322 9 34.9875H11ZM31.0009 54.9884C19.9547 54.9884 11 46.0337 11 34.9875H9C9 47.1383 18.8501 56.9884 31.0009 56.9884V54.9884ZM42.0162 51.6846C38.8577 53.7727 35.0728 54.9884 31.0009 54.9884V56.9884C35.4769 56.9884 39.6436 55.6507 43.1191 53.3529L42.0162 51.6846ZM27.5442 17.024C28.2097 16.3456 28.2901 15.4025 27.9705 14.6861C27.6372 13.939 26.815 13.3585 25.7869 13.6084L26.2593 15.5518C26.2711 15.5489 26.2647 15.5523 26.2444 15.5498C26.2242 15.5473 26.202 15.5403 26.1819 15.5293C26.1425 15.5079 26.1381 15.4877 26.1441 15.501C26.15 15.5144 26.1544 15.5372 26.1507 15.5607C26.148 15.5782 26.1409 15.5986 26.1165 15.6235L27.5442 17.024ZM42 51.9998C42.0002 51.9998 41.9984 51.9998 41.9952 51.9993C41.9919 51.9988 41.9879 51.9979 41.9833 51.9964C41.9738 51.9933 41.9651 51.9887 41.9578 51.9835C41.9453 51.9745 41.9362 51.9631 41.9297 51.9462C41.9231 51.9291 41.9114 51.8842 41.9293 51.8193C41.9384 51.7864 41.9537 51.755 41.9732 51.7284C41.9928 51.7017 42.0105 51.6883 42.0162 51.6846L43.1191 53.3529C43.9165 52.8258 44.0643 51.9208 43.7949 51.2245C43.5352 50.5531 42.8704 49.9998 42 49.9998V51.9998Z" fill="#4A5056" mask="url(#path-1-inside-1_811_24066)"/>
<path d="M33 21H43L33 31H43" stroke="#4A5056" stroke-linecap="round" stroke-linejoin="round"/>
<path d="M46 18H53L46 25H53" stroke="#4A5056" stroke-linecap="round" stroke-linejoin="round"/>
<path d="M38 9H43L38 14H43" stroke="#4A5056" stroke-linecap="round" stroke-linejoin="round"/>
</svg>
