<svg width="64" height="64" viewBox="0 0 64 64" fill="none" xmlns="http://www.w3.org/2000/svg">
<path d="M56.3689 36.3311L56.7254 35.9806L56.3689 36.3311ZM52.0777 31.9653L52.4343 31.6148L52.0777 31.9653ZM57.082 9.5H28.0854V8.5H57.082V9.5ZM57.582 25.2627V10H58.582V25.2627H57.582ZM57.582 31.6663V25.2627H58.582V31.6663H57.582ZM57.582 35.6301V31.6663H58.582V35.6301H57.582ZM52.4343 31.6148L56.7254 35.9806L56.0123 36.6816L51.7211 32.3158L52.4343 31.6148ZM28.0854 31.1663H51.3645V32.1663H28.0854V31.1663ZM27.5854 10V30.6663H26.5854V10H27.5854ZM58.582 35.6301C58.582 36.9727 56.9534 37.6391 56.0123 36.6816L56.7254 35.9806C57.0392 36.2998 57.582 36.0777 57.582 35.6301H58.582ZM28.0854 32.1663C27.2569 32.1663 26.5854 31.4947 26.5854 30.6663H27.5854C27.5854 30.9425 27.8092 31.1663 28.0854 31.1663V32.1663ZM28.0854 9.5C27.8092 9.5 27.5854 9.72386 27.5854 10H26.5854C26.5854 9.17157 27.2569 8.5 28.0854 8.5V9.5ZM51.7211 32.3158C51.6271 32.2202 51.4986 32.1663 51.3645 32.1663V31.1663C51.7668 31.1663 52.1523 31.3279 52.4343 31.6148L51.7211 32.3158ZM57.082 8.5C57.9105 8.5 58.582 9.17157 58.582 10H57.582C57.582 9.72386 57.3582 9.5 57.082 9.5V8.5Z" fill="#4A5056"/>
<path fill-rule="evenodd" clip-rule="evenodd" d="M42.3146 21.707C42.3146 21.1547 41.8669 20.707 41.3146 20.707H7C6.44772 20.707 6 21.1547 6 21.707V39.761V47.2621V52.3264C6 53.2215 7.08575 53.6657 7.71318 53.0274L13.086 47.5611C13.274 47.3698 13.531 47.2621 13.7992 47.2621H41.3146C41.8669 47.2621 42.3146 46.8144 42.3146 46.2621V21.707Z" fill="white"/>
<path d="M7.71318 53.0274L8.06976 53.3779L7.71318 53.0274ZM13.086 47.5611L13.4426 47.9116L13.086 47.5611ZM7 21.207H41.3146V20.207H7V21.207ZM6.5 39.761V21.707H5.5V39.761H6.5ZM6.5 47.2621V39.761H5.5V47.2621H6.5ZM6.5 52.3264V47.2621H5.5V52.3264H6.5ZM12.7294 47.2106L7.35659 52.6769L8.06976 53.3779L13.4426 47.9116L12.7294 47.2106ZM41.3146 46.7621H13.7992V47.7621H41.3146V46.7621ZM41.8146 21.707V46.2621H42.8146V21.707H41.8146ZM5.5 52.3264C5.5 53.669 7.12862 54.3354 8.06976 53.3779L7.35659 52.6769C7.04287 52.996 6.5 52.7739 6.5 52.3264H5.5ZM41.3146 47.7621C42.143 47.7621 42.8146 47.0905 42.8146 46.2621H41.8146C41.8146 46.5382 41.5907 46.7621 41.3146 46.7621V47.7621ZM41.3146 21.207C41.5907 21.207 41.8146 21.4309 41.8146 21.707H42.8146C42.8146 20.8786 42.143 20.207 41.3146 20.207V21.207ZM13.4426 47.9116C13.5366 47.8159 13.6651 47.7621 13.7992 47.7621V46.7621C13.3969 46.7621 13.0114 46.9237 12.7294 47.2106L13.4426 47.9116ZM7 20.207C6.17157 20.207 5.5 20.8786 5.5 21.707H6.5C6.5 21.4309 6.72386 21.207 7 21.207V20.207Z" fill="#4A5056"/>
</svg>
